<svg width="437" height="299" viewBox="0 0 437 299" fill="none" xmlns="http://www.w3.org/2000/svg">
<g clip-path="url(#clip0_71_3708)">
<path d="M437 122.839L417.104 126.255L294.295 55.3844C288.125 51.8326 277.364 52.2691 270.215 56.3777L35.2985 192.009L0.126465 198.029V210.506C0.126465 212.778 1.46594 214.945 4.2803 216.526L142.831 296.517C148.987 300.084 159.748 299.632 166.912 295.524L431.116 143.036C434.954 140.824 436.925 137.994 436.985 135.315L437 122.839Z" fill="url(#paint0_linear_71_3708)"/>
<path d="M142.831 284.04L4.28019 204.049C-1.89035 200.482 -1.10774 194.266 5.9959 190.158L270.26 37.5951C277.364 33.4864 288.125 33.0801 294.34 36.6018L432.892 116.593C439.047 120.16 438.28 126.36 431.161 130.469L166.866 283.047C159.748 287.156 148.942 287.592 142.831 284.04Z" fill="#24126A"/>
<path d="M431.116 130.469L166.866 283.047C159.748 287.141 148.987 287.562 142.786 284.04L4.235 204.049C3.19362 203.545 2.28253 202.807 1.57255 201.894C0.86257 200.98 0.372832 199.915 0.141371 198.782C-0.234881 201.355 1.08953 203.853 4.235 205.659L142.831 285.651C148.987 289.218 159.748 288.766 166.911 284.657L431.116 132.14C435.375 129.672 437.346 126.466 436.925 123.516C436.564 125.939 434.607 128.468 431.116 130.469Z" fill="white"/>
<path opacity="0.51" d="M143.102 280.94L9.48758 203.778C3.46755 200.332 4.28026 194.312 11.1581 190.338L270.501 40.6503C277.394 36.6771 287.809 36.2406 293.769 39.6871L427.368 116.849C433.388 120.295 432.576 126.3 425.698 130.274L166.37 279.977C159.477 283.95 149.062 284.386 143.102 280.94Z" fill="#453C9E"/>
<path style="mix-blend-mode:lighten" opacity="0.8" d="M153.201 280.233C149.619 280.334 146.071 279.521 142.892 277.87L9.27683 200.708C8.07646 200.149 7.04893 199.276 6.30213 198.182C5.55533 197.089 5.11684 195.814 5.03271 194.492C5.03271 191.603 7.18487 188.698 10.9474 186.531L270.29 36.8276C277.289 32.7942 287.914 32.3126 293.979 35.8644L427.594 113.026C428.794 113.586 429.822 114.458 430.569 115.552C431.315 116.646 431.754 117.92 431.838 119.242C431.838 122.132 429.686 125.036 425.923 127.203L166.58 276.907C162.474 279.129 157.87 280.274 153.201 280.233ZM143.313 277.117C149.152 280.489 159.401 280.052 166.144 276.154L425.502 126.466C428.979 124.449 430.98 121.815 430.98 119.242C430.892 118.074 430.493 116.951 429.823 115.99C429.153 115.029 428.238 114.265 427.173 113.779L293.558 36.6169C287.718 33.2457 277.469 33.6069 270.727 37.5802L11.3688 187.268C7.89222 189.285 5.89056 191.919 5.89056 194.492C5.9785 195.66 6.37818 196.783 7.04791 197.744C7.71763 198.705 8.63288 199.469 9.69823 199.956L143.313 277.117Z" fill="url(#paint1_linear_71_3708)"/>
<path opacity="0.4" d="M398.848 126.21C397.702 126.789 396.437 127.091 395.153 127.091C393.87 127.091 392.604 126.789 391.458 126.21C389.427 125.036 389.427 123.125 391.458 121.951C392.604 121.372 393.87 121.07 395.153 121.07C396.437 121.07 397.702 121.372 398.848 121.951C400.88 123.11 400.88 125.036 398.848 126.21Z" fill="#24126A"/>
<path opacity="0.4" d="M370.66 105.667L385.108 114.019C386.884 115.043 386.613 116.819 384.611 117.993C383.57 118.584 382.403 118.918 381.207 118.968C380.01 119.018 378.82 118.782 377.733 118.279L363.27 109.941C361.509 108.917 361.765 107.142 363.767 105.953C364.814 105.373 365.983 105.045 367.179 104.995C368.376 104.946 369.567 105.175 370.66 105.667Z" fill="#24126A"/>
<path opacity="0.4" d="M288.185 55.6102L302.633 63.9479C304.409 64.9713 304.138 66.7472 302.136 67.9362C301.091 68.516 299.925 68.8438 298.731 68.8934C297.537 68.9431 296.348 68.7132 295.258 68.2221L280.795 59.8994C279.034 58.876 279.29 57.1001 281.292 55.9262C282.335 55.3346 283.503 54.9976 284.701 54.9427C285.898 54.8878 287.092 55.1165 288.185 55.6102Z" fill="#24126A"/>
<path d="M398.848 121.033C397.702 121.612 396.437 121.914 395.153 121.914C393.87 121.914 392.604 121.612 391.458 121.033C389.427 119.859 389.427 117.948 391.458 116.759C392.604 116.179 393.87 115.877 395.153 115.877C396.437 115.877 397.702 116.179 398.848 116.759C400.88 117.948 400.88 119.859 398.848 121.033Z" fill="#42E8E0"/>
<path d="M370.66 100.535L385.108 108.887C386.884 109.896 386.613 111.687 384.611 112.861C383.567 113.444 382.401 113.774 381.206 113.823C380.011 113.873 378.822 113.641 377.733 113.147L363.27 104.794C361.509 103.785 361.765 101.994 363.767 100.82C364.813 100.237 365.982 99.9073 367.179 99.8577C368.376 99.808 369.568 100.04 370.66 100.535Z" fill="#42E8E0"/>
<path d="M288.185 50.4179L302.633 58.7707C304.409 59.7941 304.138 61.57 302.136 62.7439C301.095 63.3353 299.928 63.6697 298.732 63.7194C297.536 63.7692 296.345 63.5328 295.258 63.0299L280.795 54.6921C279.034 53.6687 279.29 51.8928 281.292 50.7038C282.34 50.1238 283.508 49.796 284.705 49.7464C285.901 49.6967 287.093 49.9266 288.185 50.4179Z" fill="#42E8E0"/>
<path d="M229.204 65.2723C238.956 51.6068 241.244 28.1438 234.246 12.883C230.754 5.22249 225.607 1.08371 220.129 0.572012L214.395 0.0603027L215.493 1.00847C211.49 2.09207 207.487 5.05694 203.995 10.0385C194.258 23.704 191.955 47.152 198.953 62.4279C200.728 66.8882 203.895 70.6568 207.983 73.1736L207.125 74.197L212.95 74.7238H213.025H213.251C218.699 75.085 224.418 71.9395 229.204 65.2723Z" fill="#9FFFF8"/>
<path d="M232.203 39.1695C234.17 18.7084 226.186 1.20081 214.371 0.0652394C202.556 -1.07033 191.384 14.5961 189.417 35.0572C187.451 55.5183 195.434 73.0259 207.249 74.1615C219.064 75.2971 230.237 59.6306 232.203 39.1695Z" fill="#00B2A9"/>
<g opacity="0.1">
<path opacity="0.1" d="M238.053 175.785C238.053 159.004 226.269 138.596 211.746 130.198C204.462 125.999 197.87 125.608 193.099 128.377L188.132 131.282L189.637 131.417C187.003 134.623 185.483 139.364 185.483 145.384C185.483 162.18 197.268 182.588 211.806 190.971C215.852 193.581 220.639 194.802 225.441 194.447L225.336 195.787L230.378 192.777L230.588 192.656C235.209 189.842 238.053 184.002 238.053 175.785Z" fill="#9FFFF8"/>
<path opacity="0.1" d="M225.309 195.758C235.588 189.823 235.589 170.581 225.311 152.779C215.034 134.978 198.369 125.358 188.09 131.293C177.811 137.227 177.809 156.469 188.087 174.271C198.365 192.072 215.029 201.692 225.309 195.758Z" fill="#42E8E0"/>
</g>
<path opacity="0.4" d="M208.404 203.131C190.254 203.131 172.104 199.143 158.273 191.166C144.833 183.4 137.428 173.106 137.428 162.074C137.428 151.043 144.833 140.733 158.273 132.983C185.92 117.014 230.889 117.014 258.536 132.983C271.976 140.733 279.381 151.043 279.381 162.074C279.381 173.106 271.976 183.4 258.536 191.166L258.416 190.94L258.536 191.166C244.72 199.143 226.57 203.131 208.404 203.131ZM208.404 121.529C190.344 121.529 172.284 125.488 158.543 133.434C145.269 141.095 137.955 151.268 137.955 162.029C137.955 172.79 145.269 183.009 158.543 190.624C186.04 206.502 230.784 206.502 258.28 190.624C271.555 182.964 278.854 172.79 278.854 162.029C278.854 151.268 271.555 141.049 258.28 133.434C244.525 125.488 226.465 121.605 208.404 121.605V121.529Z" fill="#42E8E0"/>
<path opacity="0.2" d="M208.405 214.148C185.363 214.148 162.336 209.076 144.788 198.947C127.751 189.104 118.36 176.011 118.36 162.074C118.36 148.138 127.751 134.984 144.788 125.187C179.87 104.944 236.94 104.944 272.021 125.187C289.073 135.029 298.449 148.123 298.449 162.074C298.449 176.026 289.073 189.165 272.021 198.947C254.488 209.076 231.446 214.148 208.405 214.148ZM208.405 110.513C185.468 110.513 162.517 115.555 145.059 125.638C128.173 135.391 118.841 148.319 118.841 162.074C118.841 175.83 128.127 188.758 145.014 198.496C179.945 218.678 236.819 218.678 271.72 198.496C288.637 188.758 297.938 175.785 297.938 162.074C297.938 148.364 288.637 135.391 271.765 125.653C254.292 115.585 231.356 110.513 208.405 110.513Z" fill="#42E8E0"/>
<path d="M208.405 194.462C194.107 194.462 179.809 191.317 168.898 185.041C158.363 178.915 152.463 170.758 152.463 162.074C152.463 153.39 158.303 145.233 168.898 139.108C190.691 126.541 226.088 126.541 247.911 139.108C258.521 145.233 264.361 153.39 264.361 162.074C264.361 170.758 258.521 178.915 247.911 185.041L247.791 184.8L247.911 185.041C237.03 191.317 222.687 194.462 208.405 194.462ZM208.405 130.198C194.197 130.198 179.975 133.314 169.154 139.559C158.724 145.579 152.975 153.586 152.975 162.135C152.975 170.683 158.724 178.69 169.169 184.71C190.811 197.216 226.013 197.216 247.655 184.71C258.085 178.69 263.834 170.698 263.834 162.135C263.834 153.571 258.085 145.655 247.655 139.559C236.834 133.314 222.687 130.198 208.405 130.198Z" fill="#42E8E0"/>
<path d="M238.053 175.785C238.053 159.004 226.269 138.596 211.746 130.198C204.462 125.999 197.87 125.608 193.099 128.377L188.132 131.282L189.637 131.417C187.003 134.623 185.483 139.364 185.483 145.384C185.483 162.18 197.268 182.588 211.806 190.971C215.852 193.581 220.639 194.802 225.441 194.447L225.336 195.787L230.378 192.777L230.588 192.656C235.209 189.842 238.053 184.002 238.053 175.785Z" fill="#9FFFF8"/>
<path d="M225.309 195.758C235.588 189.823 235.589 170.581 225.311 152.779C215.034 134.978 198.369 125.358 188.09 131.293C177.811 137.227 177.809 156.469 188.087 174.271C198.365 192.072 215.029 201.692 225.309 195.758Z" fill="#00B2A9"/>
<path opacity="0.4" d="M137.729 248.357L55.0742 200.633C54.5178 200.312 54.0558 199.85 53.7345 199.294C53.4133 198.738 53.2441 198.107 53.2441 197.465C53.2441 196.822 53.4133 196.191 53.7345 195.635C54.0558 195.079 54.5178 194.617 55.0742 194.297L67.6862 186.952C69.7585 185.754 72.11 185.123 74.5039 185.123C76.8977 185.123 79.2492 185.754 81.3215 186.952L163.992 234.676C164.548 234.995 165.011 235.455 165.333 236.01C165.654 236.565 165.824 237.195 165.824 237.837C165.824 238.478 165.654 239.108 165.333 239.663C165.011 240.218 164.548 240.678 163.992 240.997L151.38 248.357C149.306 249.558 146.951 250.19 144.554 250.19C142.158 250.19 139.803 249.558 137.729 248.357Z" fill="#24126A"/>
<path d="M96.3413 199.579L83.1123 191.949L85.7461 190.429L98.9751 198.059L96.3413 199.579Z" fill="#42E8E0"/>
<path d="M133.636 221.658L129.572 219.31L132.206 217.79L136.27 220.138L133.636 221.658Z" fill="#42E8E0"/>
<path d="M290.683 137.799C290.683 121.018 278.914 100.61 264.376 92.227C257.091 88.013 250.499 87.6217 245.744 90.3909L240.747 93.3106L242.252 93.4461C239.633 96.6517 238.098 101.377 238.098 107.413C238.098 124.193 249.882 144.601 264.421 152.999C269.417 155.874 274.083 156.972 278.056 156.476L277.951 157.815L282.993 154.805L283.188 154.685C287.839 151.886 290.683 146.061 290.683 137.799Z" fill="#9FFFF8"/>
<path d="M277.959 157.8C288.238 151.865 288.24 132.623 277.962 114.821C267.684 97.0199 251.019 87.4 240.74 93.3347C230.461 99.2694 230.46 118.511 240.737 136.313C251.015 154.114 267.68 163.734 277.959 157.8Z" fill="#00B2A9"/>
<path d="M104.002 204.124L99.9385 201.777L102.572 200.256L106.636 202.604L104.002 204.124Z" fill="#42E8E0"/>
<path d="M144.547 238.845C142.103 238.846 139.7 238.208 137.579 236.994L54.9238 189.33C54.3219 188.983 53.8226 188.482 53.4763 187.88C53.1301 187.277 52.9493 186.594 52.9522 185.899C52.9473 185.205 53.1274 184.523 53.474 183.923C53.8206 183.322 54.321 182.825 54.9238 182.482L67.5508 175.123C69.6677 173.902 72.0681 173.26 74.5115 173.26C76.9549 173.26 79.3554 173.902 81.4722 175.123L164.127 222.847C164.729 223.194 165.228 223.694 165.575 224.297C165.921 224.9 166.102 225.583 166.099 226.278C166.104 226.971 165.924 227.653 165.577 228.254C165.23 228.855 164.73 229.352 164.127 229.694L151.515 237.054C149.388 238.247 146.986 238.865 144.547 238.845ZM74.504 173.798C72.163 173.8 69.8637 174.418 67.8368 175.589L55.2248 182.934C54.7116 183.225 54.2849 183.648 53.988 184.158C53.6911 184.668 53.5348 185.248 53.5348 185.838C53.5348 186.429 53.6911 187.009 53.988 187.519C54.2849 188.029 54.7116 188.451 55.2248 188.743L137.88 236.467C139.907 237.636 142.207 238.251 144.547 238.251C146.887 238.251 149.187 237.636 151.214 236.467L163.826 229.122C164.339 228.829 164.765 228.405 165.062 227.893C165.358 227.382 165.514 226.801 165.514 226.21C165.514 225.619 165.358 225.039 165.062 224.527C164.765 224.016 164.339 223.592 163.826 223.298L81.2163 175.589C79.1778 174.406 76.8608 173.788 74.504 173.798Z" fill="#42E8E0"/>
</g>
<defs>
<linearGradient id="paint0_linear_71_3708" x1="0.111415" y1="175.981" x2="437" y2="175.981" gradientUnits="userSpaceOnUse">
<stop stop-color="#BCBEFF"/>
<stop offset="0.15" stop-color="#A3A7F5"/>
<stop offset="0.39" stop-color="#8289E8"/>
<stop offset="0.61" stop-color="#6A73DF"/>
<stop offset="0.82" stop-color="#5C66D9"/>
<stop offset="1" stop-color="#5761D7"/>
</linearGradient>
<linearGradient id="paint1_linear_71_3708" x1="279.411" y1="237.791" x2="157.46" y2="75.9428" gradientUnits="userSpaceOnUse">
<stop stop-color="#42E8E0"/>
<stop offset="0.11" stop-color="#37B6BF"/>
<stop offset="0.22" stop-color="#2C87A1"/>
<stop offset="0.34" stop-color="#235F87"/>
<stop offset="0.46" stop-color="#1C3F72"/>
<stop offset="0.58" stop-color="#162561"/>
<stop offset="0.71" stop-color="#121355"/>
<stop offset="0.85" stop-color="#10084E"/>
<stop offset="1" stop-color="#0F054C"/>
</linearGradient>
<clipPath id="clip0_71_3708">
<rect width="436.889" height="299" fill="white" transform="translate(0.111328)"/>
</clipPath>
</defs>
</svg>
