<svg width="115" height="152" viewBox="0 0 115 152" fill="none" xmlns="http://www.w3.org/2000/svg">
<path d="M86.5042 93.3066C83.3493 98.7138 62.6286 90.194 42.751 76.2441C18.2453 59.046 12.7609 44.7788 16.0567 39.4573C17.5483 37.0506 38.4224 43.255 57.1382 58.737C75.8541 74.2191 88.5944 89.7161 86.5042 93.3066Z" fill="url(#paint0_linear_11_2179)"/>
<path d="M42.6794 146.772C46.7657 144.413 48.1658 139.188 45.8066 135.101C43.4474 131.015 38.2223 129.615 34.136 131.974C30.0497 134.333 28.6496 139.558 31.0088 143.645C33.368 147.731 38.5931 149.131 42.6794 146.772Z" fill="url(#paint1_linear_11_2179)"/>
<path d="M104.665 59.6315C100.442 75.3904 65.798 109.198 48.0495 125.698C46.6718 126.978 44.343 127.356 40.4937 126.325C38.6712 125.836 39.6388 125.091 39.0837 123.291C31.9627 100.126 18.8688 53.5308 23.0909 37.7738C28.5967 17.2257 51.3195 5.46019 73.8472 11.4965C96.3749 17.5328 110.171 39.0835 104.665 59.6315Z" fill="#038B84"/>
<path d="M101.486 58.7801C97.2637 74.5391 62.9298 108.43 45.3422 124.973C44.6712 125.605 43.852 126.054 42.9619 126.28C42.0718 126.505 41.1401 126.498 40.2548 126.261C39.3696 126.023 38.5599 125.562 37.9022 124.922C37.2446 124.281 36.7606 123.481 36.4961 122.599C29.5361 99.4765 16.7498 52.9634 20.972 37.2063C26.4778 16.6582 48.9652 4.82949 71.1983 10.7869C93.4314 16.7442 106.992 38.2321 101.486 58.7801Z" fill="#00B2A9"/>
<path d="M74.9177 72.0093C87.1245 64.9617 91.3069 49.353 84.2593 37.1461C77.2117 24.9393 61.6029 20.7569 49.3961 27.8045C37.1893 34.8521 33.0069 50.4609 40.0545 62.6677C47.1021 74.8745 62.7109 79.0569 74.9177 72.0093Z" fill="white"/>
<path d="M16.3431 39.215C14.8617 39.8467 13.7612 41.2502 12.8034 43.1659C11.3089 46.1562 11.2027 49.6497 12.3401 52.7778C20.6751 75.6989 50.2743 94.491 79.8657 98.6731C81.0034 98.8355 82.165 98.6185 83.1755 98.0548C84.186 97.4912 84.9906 96.6115 85.468 95.5483L86.6459 92.9174C86.7225 92.7449 86.7593 92.5573 86.7536 92.3689C86.7478 92.1804 86.6997 91.9961 86.6128 91.8299C86.5259 91.6637 86.4026 91.5201 86.2522 91.41C86.1018 91.2999 85.9284 91.2261 85.7451 91.1944C72.7582 88.9666 60.6154 84.4353 48.8258 78.655C21.3298 65.1723 14.334 43.061 16.3255 40.5257C16.5761 40.2071 16.8721 39.8771 17.249 39.7358C18.2189 39.3716 19.7811 39.2355 21.0299 39.3655C19.3699 38.844 17.4643 38.7366 16.3431 39.215Z" fill="url(#paint2_linear_11_2179)"/>
<defs>
<linearGradient id="paint0_linear_11_2179" x1="88.8459" y1="17.3024" x2="37.0445" y2="84.5609" gradientUnits="userSpaceOnUse">
<stop stop-color="#E1473D"/>
<stop offset="1" stop-color="#E9605A"/>
</linearGradient>
<linearGradient id="paint1_linear_11_2179" x1="33753.2" y1="39562.5" x2="21822" y2="59926.4" gradientUnits="userSpaceOnUse">
<stop stop-color="#00B2A9"/>
<stop offset="1" stop-color="#4042E2"/>
</linearGradient>
<linearGradient id="paint2_linear_11_2179" x1="395186" y1="-2661.57" x2="227899" y2="263960" gradientUnits="userSpaceOnUse">
<stop stop-color="#FF928E"/>
<stop offset="1" stop-color="#FE7062"/>
</linearGradient>
</defs>
</svg>
