<svg width="61" height="21" viewBox="0 0 61 21" fill="none" xmlns="http://www.w3.org/2000/svg">
<path d="M35.9442 6.9707L31.1607 7.82148C30.3675 7.9628 29.8397 8.7138 29.983 9.4987C30.1253 10.2841 30.8852 10.8059 31.6775 10.6646L36.461 9.8138C37.5996 9.61042 38.3017 10.2845 38.5815 10.9821C38.8594 11.6796 38.8117 12.6459 37.8414 13.268L30.8191 17.7697C30.1677 18.187 29.3736 18.2171 28.6923 17.8509C28.0115 17.4847 27.6047 16.8077 27.6047 16.0409V4.95977C27.6047 3.11689 26.6277 1.49171 24.992 0.611807C23.3563 -0.268097 21.4466 -0.195049 19.8838 0.806122L2.22538 12.126C0.238462 13.3998 -0.511821 15.7196 0.358121 17.8986C1.22855 20.0771 3.37855 21.2616 5.70901 20.8487L21.1287 18.1053C21.9219 17.964 22.4497 17.2135 22.3069 16.4281C22.1646 15.6432 21.4051 15.1204 20.6124 15.2622L5.19274 18.0056C4.0526 18.2075 3.35153 17.5339 3.07265 16.8368C2.79425 16.1393 2.8425 15.1725 3.8128 14.5504L21.4707 3.23004C22.1207 2.81324 22.9163 2.78269 23.5976 3.14935C24.2784 3.51554 24.6851 4.19254 24.6851 4.95977V16.0409C24.6851 17.8833 25.6617 19.5085 27.2974 20.3884C28.0573 20.7971 28.8766 21 29.692 21C30.6324 21 31.5689 20.7307 32.4061 20.1941L39.4283 15.6924C41.4148 14.4186 42.1655 12.0993 41.2951 9.92027C40.4247 7.74128 38.2723 6.55725 35.9442 6.9707ZM60.6418 9.92027C59.7714 7.74176 57.6204 6.55582 55.2914 6.9707L50.5079 7.82148C49.7137 7.9628 49.1868 8.7138 49.3296 9.4987C49.472 10.2841 50.2305 10.8059 51.0242 10.6646L55.8076 9.8138C56.9458 9.61042 57.6488 10.2845 57.9277 10.9821C58.2066 11.6796 58.1584 12.6459 57.1881 13.268L50.1663 17.7697C49.5139 18.187 48.7198 18.2171 48.0394 17.8509C47.3582 17.4847 46.9514 16.8077 46.9514 16.0409V1.45209C46.9514 0.654777 46.2981 0.00833545 45.4919 0.00833545C44.6861 0.00833545 44.0328 0.654777 44.0328 1.45209V16.0409C44.0328 17.8833 45.0089 19.5085 46.6455 20.3884C47.405 20.7971 48.2238 21 49.0401 21C49.98 21 50.917 20.7307 51.7537 20.1941L58.7755 15.6924C60.7619 14.4191 61.5117 12.0993 60.6418 9.92027Z" fill="#00A94F"/>
</svg>
