<svg width="40" height="40" viewBox="0 0 40 40" fill="none" xmlns="http://www.w3.org/2000/svg">
<path d="M31.6667 8.33333V31.6667H8.33333V8.33333H31.6667ZM31.6667 5H8.33333C6.48333 5 5 6.5 5 8.33333V31.6667C5 33.5 6.48333 35 8.33333 35H31.6667C33.5 35 35 33.5 35 31.6667V8.33333C35 6.5 33.5 5 31.6667 5ZM20 20C17.25 20 15 17.75 15 15C15 12.25 17.25 10 20 10C22.75 10 25 12.25 25 15C25 17.75 22.75 20 20 20ZM20 13.3333C19.0833 13.3333 18.3333 14.0833 18.3333 15C18.3333 15.9167 19.0833 16.6667 20 16.6667C20.9167 16.6667 21.6667 15.9167 21.6667 15C21.6667 14.0833 20.9167 13.3333 20 13.3333ZM30 30H10V27.45C10 23.2833 16.6167 21.4833 20 21.4833C23.3833 21.4833 30 23.2833 30 27.45V30ZM13.85 26.6667H26.15C25 25.7333 22.1833 24.8 20 24.8C17.8167 24.8 14.9833 25.7333 13.85 26.6667Z" fill="#2D9CDB"/>
</svg>
