<svg width="40" height="40" viewBox="0 0 40 40" fill="none" xmlns="http://www.w3.org/2000/svg">
<path d="M19.9993 10C21.8327 10 23.3327 11.5 23.3327 13.3334C23.3327 15.1667 21.8327 16.6667 19.9993 16.6667C18.166 16.6667 16.666 15.1667 16.666 13.3334C16.666 11.5 18.166 10 19.9993 10ZM19.9993 25C24.4993 25 29.666 27.15 29.9993 28.3334V30H9.99935V28.35C10.3327 27.15 15.4993 25 19.9993 25ZM19.9993 6.66669C16.316 6.66669 13.3327 9.65002 13.3327 13.3334C13.3327 17.0167 16.316 20 19.9993 20C23.6827 20 26.666 17.0167 26.666 13.3334C26.666 9.65002 23.6827 6.66669 19.9993 6.66669ZM19.9993 21.6667C15.5493 21.6667 6.66602 23.9 6.66602 28.3334V33.3334H33.3327V28.3334C33.3327 23.9 24.4493 21.6667 19.9993 21.6667Z" fill="#00B2A9"/>
</svg>
