<svg width="40" height="40" viewBox="0 0 40 40" fill="none" xmlns="http://www.w3.org/2000/svg">
<path d="M32.5 5.83331L30 3.33331L27.5 5.83331L25 3.33331L22.5 5.83331L20 3.33331L17.5 5.83331L15 3.33331L12.5 5.83331L10 3.33331L7.5 5.83331L5 3.33331V36.6666L7.5 34.1666L10 36.6666L12.5 34.1666L15 36.6666L17.5 34.1666L20 36.6666L22.5 34.1666L25 36.6666L27.5 34.1666L30 36.6666L32.5 34.1666L35 36.6666V3.33331L32.5 5.83331ZM31.6667 31.8166H8.33333V8.18331H31.6667V31.8166ZM10 25H30V28.3333H10V25ZM10 18.3333H30V21.6666H10V18.3333ZM10 11.6666H30V15H10V11.6666Z" fill="#F58D6B"/>
</svg>
