<svg width="40" height="40" viewBox="0 0 40 40" fill="none" xmlns="http://www.w3.org/2000/svg">
<path d="M28.3333 32.0333H8.33333V11.6666H20V8.33331H8.33333C6.5 8.33331 5 9.83331 5 11.6666V31.6666C5 33.5 6.5 35 8.33333 35H28.3333C30.1667 35 31.6667 33.5 31.6667 31.6666V20H28.3333V32.0333Z" fill="#4EAAFF"/>
<path d="M31.6673 3.33331H28.334V8.33331H23.334C23.3507 8.34998 23.334 11.6666 23.334 11.6666H28.334V16.65C28.3507 16.6666 31.6673 16.65 31.6673 16.65V11.6666H36.6673V8.33331H31.6673V3.33331Z" fill="#4EAAFF"/>
<path d="M24.9993 15H11.666V18.3333H24.9993V15Z" fill="#4EAAFF"/>
<path d="M11.666 20V23.3333H24.9993V20H19.9993H11.666Z" fill="#4EAAFF"/>
<path d="M24.9993 25H11.666V28.3333H24.9993V25Z" fill="#4EAAFF"/>
</svg>
