<svg width="40" height="40" viewBox="0 0 40 40" fill="none" xmlns="http://www.w3.org/2000/svg">
<path d="M19.1507 26.6667C20.6173 26.6667 21.984 26.2334 23.134 25.5L27.2007 29.5667L29.5673 27.2L25.5007 23.15C26.234 21.9834 26.6673 20.6334 26.6673 19.1667C26.6673 15.0167 23.3173 11.6667 19.1673 11.6667C15.0173 11.6667 11.6673 15.0167 11.6673 19.1667C11.6673 23.3167 15.0173 26.6667 19.1507 26.6667ZM19.1673 15C21.4673 15 23.334 16.8667 23.334 19.1667C23.334 21.4667 21.4673 23.3334 19.1673 23.3334C16.8673 23.3334 15.0007 21.4667 15.0007 19.1667C15.0007 16.8667 16.8673 15 19.1673 15ZM33.334 6.66669H6.66732C4.83398 6.66669 3.33398 8.16669 3.33398 10V30C3.33398 31.8334 4.83398 33.3334 6.66732 33.3334H33.334C35.1673 33.3334 36.6673 31.8334 36.6673 30V10C36.6673 8.16669 35.1673 6.66669 33.334 6.66669ZM33.334 30H6.66732V10H33.334V30Z" fill="#AA6DF9"/>
</svg>
