<svg width="172" height="168" viewBox="0 0 172 168" fill="none" xmlns="http://www.w3.org/2000/svg">
<g style="mix-blend-mode:multiply">
<g style="mix-blend-mode:multiply">
<g style="mix-blend-mode:multiply">
<path d="M69.0928 141.114C68.5683 142.212 65.1264 141.671 61.3894 139.901C57.6525 138.13 55.0629 135.802 55.5873 134.695C56.1118 133.589 59.5619 134.13 63.2907 135.909C67.0195 137.687 69.6173 140.007 69.0928 141.114Z" fill="#3A6FAE"/>
</g>
<g style="mix-blend-mode:multiply">
<path d="M68.937 141.032C68.4289 142.114 65.0608 141.581 61.414 139.852C57.7672 138.122 55.2349 135.843 55.743 134.769C56.2511 133.695 59.6192 134.22 63.266 135.95C66.9128 137.679 69.4533 139.958 68.937 141.032Z" fill="#396EAD"/>
</g>
<g style="mix-blend-mode:multiply">
<path d="M68.7813 140.958C68.2814 142.016 64.9952 141.499 61.4058 139.802C57.8163 138.105 55.366 135.892 55.8659 134.843C56.3658 133.794 59.652 134.31 63.2415 135.999C66.8309 137.687 69.273 139.909 68.7813 140.958Z" fill="#376DAD"/>
</g>
<g style="mix-blend-mode:multiply">
<path d="M68.6258 140.884C68.1341 141.909 64.9298 141.409 61.4551 139.761C57.9804 138.114 55.571 135.942 56.0545 134.917C56.538 133.892 59.7505 134.392 63.2252 136.048C66.6999 137.704 69.1093 139.86 68.6258 140.884Z" fill="#366CAC"/>
</g>
<g style="mix-blend-mode:multiply">
<path d="M68.4536 140.811C67.9783 141.811 64.8478 141.319 61.4633 139.712C58.0787 138.106 55.7267 135.991 56.202 134.991C56.6773 133.991 59.7997 134.482 63.1842 136.089C66.5688 137.696 68.9453 139.811 68.4536 140.811Z" fill="#356BAC"/>
</g>
<g style="mix-blend-mode:multiply">
<path d="M68.306 140.737C67.8471 141.712 64.7985 141.229 61.5041 139.671C58.2097 138.114 55.9069 136.04 56.374 135.064C56.8411 134.089 59.8815 134.572 63.1759 136.138C66.4703 137.704 68.7731 139.761 68.306 140.737Z" fill="#336AAB"/>
</g>
<g style="mix-blend-mode:multiply">
<path d="M68.1502 140.663C67.6995 141.614 64.7329 141.147 61.5286 139.622C58.3243 138.097 56.0789 136.089 56.5296 135.138C56.9803 134.187 59.947 134.663 63.1594 136.187C66.3719 137.712 68.6009 139.712 68.1502 140.663Z" fill="#3269AB"/>
</g>
<g style="mix-blend-mode:multiply">
<path d="M67.9945 140.589C67.5602 141.507 64.6674 141.056 61.545 139.573C58.4227 138.089 56.251 136.138 56.6854 135.22C57.1197 134.302 60.0125 134.745 63.1349 136.228C66.2572 137.712 68.4535 139.655 67.9945 140.589Z" fill="#3168AA"/>
</g>
<g style="mix-blend-mode:multiply">
<path d="M67.8389 140.515C67.4128 141.409 64.6019 140.966 61.5697 139.532C58.5375 138.097 56.415 136.187 56.8412 135.294C57.2673 134.4 60.0782 134.835 63.1104 136.277C66.1425 137.72 68.2651 139.655 67.8389 140.515Z" fill="#2F67AA"/>
</g>
<g style="mix-blend-mode:multiply">
<path d="M67.6802 140.439C68.0937 139.568 66.0392 137.727 63.0914 136.327C60.1436 134.927 57.4187 134.498 57.0052 135.369C56.5917 136.24 58.6461 138.081 61.594 139.481C64.5418 140.881 67.2667 141.31 67.6802 140.439Z" fill="#2E66A9"/>
</g>
<g style="mix-blend-mode:multiply">
<path d="M67.5275 140.368C67.1259 141.188 64.4789 140.794 61.6106 139.433C58.7424 138.073 56.7592 136.286 57.1607 135.441C57.5623 134.597 60.2093 135.007 63.0693 136.368C65.9294 137.728 67.929 139.515 67.5275 140.368Z" fill="#2D65A8"/>
</g>
<g style="mix-blend-mode:multiply">
<path d="M67.3636 140.286C66.9784 141.106 64.4133 140.704 61.627 139.392C58.8407 138.081 56.9149 136.335 57.3082 135.515C57.7016 134.695 60.2584 135.097 63.0448 136.417C65.8311 137.737 67.7569 139.466 67.3636 140.286Z" fill="#2B64A8"/>
</g>
<g style="mix-blend-mode:multiply">
<path d="M67.2079 140.212C66.8309 141.032 64.3478 140.622 61.6598 139.343C58.9719 138.064 57.0952 136.376 57.4722 135.556C57.8491 134.736 60.3322 135.154 63.0202 136.433C65.7082 137.712 67.5849 139.417 67.2079 140.212Z" fill="#2A63A7"/>
</g>
<g style="mix-blend-mode:multiply">
<path d="M67.0521 140.138C66.6915 140.909 64.2822 140.532 61.6762 139.319C59.0701 138.105 57.259 136.458 57.6278 135.687C57.9966 134.917 60.3977 135.294 63.0038 136.507C65.6098 137.72 67.4209 139.368 67.0521 140.138Z" fill="#2962A7"/>
</g>
<g style="mix-blend-mode:multiply">
<path d="M66.8964 140.065C66.544 140.811 64.2166 140.442 61.7007 139.245C59.1848 138.048 57.4311 136.474 57.7834 135.728C58.1358 134.982 60.4632 135.351 62.9791 136.548C65.495 137.745 67.2488 139.319 66.8964 140.065Z" fill="#2761A6"/>
</g>
<g style="mix-blend-mode:multiply">
<path d="M66.7407 139.991C66.3965 140.712 64.1511 140.36 61.7254 139.171C59.2996 137.983 57.6278 136.499 57.9392 135.778C58.2507 135.056 60.5289 135.417 62.9546 136.597C65.3804 137.778 67.0767 139.27 66.7407 139.991Z" fill="#2660A6"/>
</g>
<g style="mix-blend-mode:multiply">
<path d="M66.5849 139.917C66.2489 140.606 64.0854 140.27 61.7416 139.155C59.3978 138.04 57.767 136.581 58.103 135.876C58.439 135.171 60.5615 135.523 62.9381 136.638C65.3147 137.753 66.9127 139.22 66.5849 139.917Z" fill="#255FA5"/>
</g>
<g style="mix-blend-mode:multiply">
<path d="M66.4212 139.843C66.1098 140.507 64.02 140.179 61.7664 139.114C59.5127 138.048 57.9393 136.654 58.2589 135.966C58.5785 135.277 60.66 135.622 62.9137 136.695C65.1673 137.769 66.7408 139.171 66.4212 139.843Z" fill="#235EA4"/>
</g>
<g style="mix-blend-mode:multiply">
<path d="M66.2654 139.769C65.9622 140.409 63.9544 140.089 61.7909 139.065C59.6274 138.04 58.1113 136.679 58.4145 136.04C58.7177 135.4 60.7255 135.712 62.889 136.745C65.0525 137.778 66.5686 139.122 66.2654 139.769Z" fill="#225DA4"/>
</g>
<g style="mix-blend-mode:multiply">
<path d="M66.1097 139.696C65.8147 140.311 63.897 140.007 61.8155 139.016C59.7339 138.024 58.2752 136.729 58.5374 136.114C58.7997 135.499 60.7583 135.802 62.8398 136.786C64.9214 137.77 66.4047 139.073 66.1097 139.696Z" fill="#205CA3"/>
</g>
<g style="mix-blend-mode:multiply">
<path d="M65.995 139.655C65.7164 140.245 63.8725 139.958 61.8975 139.015C59.9224 138.073 58.5129 136.818 58.7915 136.228C59.0702 135.638 60.914 135.925 62.8891 136.876C64.8641 137.827 66.2326 139.032 65.995 139.655Z" fill="#1F5BA3"/>
</g>
<g style="mix-blend-mode:multiply">
<path d="M65.7982 139.54C65.5278 140.106 63.7659 139.827 61.8564 138.925C59.947 138.024 58.6194 136.827 58.8816 136.261C59.1438 135.696 60.914 135.974 62.8234 136.884C64.7329 137.794 66.0605 138.983 65.7982 139.54Z" fill="#1E5AA2"/>
</g>
<g style="mix-blend-mode:multiply">
<path d="M65.6444 139.472C65.9006 138.932 64.6301 137.793 62.8067 136.927C60.9832 136.061 59.2972 135.796 59.041 136.336C58.7847 136.876 60.0552 138.015 61.8787 138.882C63.7021 139.748 65.3881 140.012 65.6444 139.472Z" fill="#1C59A2"/>
</g>
<g style="mix-blend-mode:multiply">
<path d="M65.4786 139.392C65.2409 139.909 63.6347 139.655 61.8973 138.835C60.16 138.015 58.9553 136.925 59.2011 136.376C59.447 135.827 61.045 136.113 62.7824 136.941C64.5197 137.769 65.7244 138.884 65.4786 139.392Z" fill="#1B58A1"/>
</g>
<g style="mix-blend-mode:multiply">
<path d="M65.3231 139.319C65.0936 139.81 63.5693 139.565 61.9221 138.786C60.2749 138.007 59.1276 136.974 59.3571 136.482C59.5865 135.991 61.1108 136.236 62.758 137.023C64.4052 137.81 65.5525 138.835 65.3231 139.319Z" fill="#1957A0"/>
</g>
<g style="mix-blend-mode:multiply">
<path d="M65.1755 139.245C64.9543 139.704 63.5365 139.483 61.9549 138.737C60.3733 137.991 59.2997 137.023 59.4964 136.556C59.6931 136.089 61.1354 136.327 62.717 137.064C64.2987 137.802 65.3886 138.786 65.1755 139.245Z" fill="#1856A0"/>
</g>
<g style="mix-blend-mode:multiply">
<path d="M65.0115 139.171C64.8066 139.606 63.438 139.392 61.9629 138.696C60.4878 137.999 59.4634 137.056 59.6683 136.63C59.8732 136.204 61.2418 136.409 62.7169 137.114C64.192 137.819 65.2164 138.737 65.0115 139.171Z" fill="#17559F"/>
</g>
<g style="mix-blend-mode:multiply">
<path d="M64.856 139.097C64.6593 139.507 63.3727 139.302 61.9878 138.646C60.6028 137.991 59.6358 137.122 59.8243 136.712C60.0127 136.302 61.3076 136.499 62.6925 137.163C64.0775 137.827 65.0527 138.687 64.856 139.097Z" fill="#15549F"/>
</g>
<g style="mix-blend-mode:multiply">
<path d="M64.7001 139.024C64.5117 139.409 63.3152 139.22 62.0122 138.597C60.7092 137.974 59.7995 137.171 59.988 136.786C60.1765 136.4 61.373 136.589 62.6678 137.204C63.9626 137.819 64.8804 138.638 64.7001 139.024Z" fill="#14539E"/>
</g>
<g style="mix-blend-mode:multiply">
<path d="M64.5362 138.95C64.3723 139.302 63.2496 139.13 62.0286 138.556C60.8075 137.983 59.9716 137.22 60.1437 136.86C60.3158 136.499 61.4385 136.671 62.6514 137.253C63.8642 137.835 64.7083 138.589 64.5362 138.95Z" fill="#12529E"/>
</g>
<g style="mix-blend-mode:multiply">
<path d="M64.3562 138.835C64.2005 139.171 63.1597 139.007 62.0288 138.474C60.8979 137.942 60.1193 137.237 60.275 136.9C60.4307 136.564 61.4715 136.728 62.6024 137.269C63.7333 137.81 64.5446 138.54 64.3562 138.835Z" fill="#11519D"/>
</g>
<g style="mix-blend-mode:multiply">
<path d="M64.2249 138.835C64.0774 139.147 63.1185 138.991 62.0778 138.499C61.037 138.007 60.3076 137.36 60.4388 137.048C60.5699 136.737 61.5451 136.892 62.5859 137.384C63.6266 137.876 64.356 138.491 64.2249 138.835Z" fill="#104F9C"/>
</g>
<g style="mix-blend-mode:multiply">
<path d="M64.0692 138.72C63.938 139.007 63.053 138.868 62.0942 138.417C61.1353 137.966 60.4551 137.36 60.6108 137.081C60.7666 136.802 61.627 136.941 62.5859 137.392C63.5447 137.843 64.2003 138.442 64.0692 138.72Z" fill="#0E4E9C"/>
</g>
<g style="mix-blend-mode:multiply">
<path d="M63.9134 138.647C63.7905 138.901 62.9874 138.778 62.1187 138.368C61.25 137.958 60.6518 137.409 60.7665 137.155C60.8813 136.9 61.6926 137.023 62.5612 137.441C63.4299 137.86 64.0364 138.392 63.9134 138.647Z" fill="#0D4D9B"/>
</g>
<g style="mix-blend-mode:multiply">
<path d="M63.7578 138.573C63.6431 138.802 62.9383 138.688 62.1188 138.319C61.2993 137.95 60.7912 137.458 60.9059 137.228C61.0207 136.999 61.7254 137.114 62.5449 137.483C63.3644 137.851 63.8644 138.343 63.7578 138.573Z" fill="#0B4C9B"/>
</g>
<g style="mix-blend-mode:multiply">
<path d="M63.594 138.499C63.5038 138.704 62.8564 138.606 62.168 138.278C61.4796 137.95 60.9879 137.507 61.0863 137.302C61.1846 137.097 61.8238 137.204 62.5204 137.532C63.217 137.86 63.6923 138.294 63.594 138.499Z" fill="#0A4B9A"/>
</g>
<g style="mix-blend-mode:multiply">
<path d="M63.438 138.425C63.356 138.606 62.7906 138.515 62.1841 138.228C61.5777 137.942 61.1597 137.556 61.2417 137.409C61.3237 137.261 61.8891 137.319 62.4955 137.614C63.102 137.909 63.5363 138.245 63.438 138.425Z" fill="#094A9A"/>
</g>
<g style="mix-blend-mode:multiply">
<path d="M63.2826 138.351C63.2089 138.507 62.7254 138.425 62.2091 138.179C61.6928 137.933 61.324 137.605 61.3896 137.458C61.4551 137.31 61.9468 137.376 62.4631 137.622C62.9794 137.868 63.3564 138.196 63.2826 138.351Z" fill="#074999"/>
</g>
<g style="mix-blend-mode:multiply">
<path d="M63.1268 138.278C63.0612 138.401 62.6679 138.343 62.2335 138.138C61.7992 137.933 61.496 137.655 61.5534 137.532C61.6107 137.409 62.0205 137.466 62.4548 137.671C62.8891 137.876 63.1842 138.146 63.1268 138.278Z" fill="#064898"/>
</g>
<g style="mix-blend-mode:multiply">
<path d="M62.971 138.204C62.9218 138.302 62.6022 138.253 62.2498 138.089C61.8974 137.925 61.6598 137.704 61.7089 137.605C61.7581 137.507 62.0777 137.548 62.4301 137.72C62.7825 137.892 63.0201 138.097 62.971 138.204Z" fill="#044798"/>
</g>
<g style="mix-blend-mode:multiply">
<path d="M62.8153 138.122C62.7744 138.204 62.5367 138.163 62.2745 138.04C62.0123 137.917 61.832 137.753 61.8729 137.679C61.9139 137.605 62.1434 137.638 62.4056 137.761C62.6678 137.884 62.8481 138.015 62.8153 138.122Z" fill="#034697"/>
</g>
<g style="mix-blend-mode:multiply">
<path d="M62.6516 138.015C62.6516 138.073 62.4713 138.015 62.2992 137.966C62.1271 137.917 62.0042 137.77 62.0288 137.72C62.0534 137.671 62.209 137.72 62.3811 137.778C62.5532 137.835 62.7171 138.015 62.6516 138.015Z" fill="#014597"/>
</g>
<g style="mix-blend-mode:multiply">
<path d="M62.4957 138.015C62.4957 138.015 62.4056 138.015 62.3154 138.015C62.2253 138.015 62.1679 137.917 62.1843 137.892C62.2007 137.868 62.2745 137.892 62.3646 137.892C62.4547 137.892 62.5121 137.95 62.4957 138.015Z" fill="#004496"/>
</g>
</g>
</g>
<path opacity="0.4" d="M149.806 65.0602L61.4222 116.129C60.513 116.637 59.4969 116.924 58.4563 116.967C57.4156 117.01 56.3794 116.807 55.4316 116.375L1.34422 85.1269C-0.188254 84.2416 0.000231053 82.6678 1.77856 81.6677L90.1295 30.6318C91.0394 30.1255 92.0553 29.8395 93.0956 29.7967C94.1359 29.754 95.1718 29.9558 96.1201 30.3859L150.207 61.6337C151.773 62.5108 151.576 64.0683 149.806 65.0602Z" fill="white"/>
<path opacity="0.2" d="M140.57 66.1258L63.2496 110.784C62.453 111.228 61.5635 111.478 60.6525 111.515C59.7416 111.552 58.8347 111.375 58.0048 110.997L10.6291 83.6596C9.28512 82.8809 9.45722 81.5283 11.0061 80.6266L88.3265 35.9764C89.1241 35.5321 90.0146 35.2807 90.9268 35.2423C91.8389 35.2039 92.7474 35.3795 93.5795 35.755L140.914 63.101C142.266 63.8715 142.094 65.2323 140.57 66.1258Z" fill="#041860"/>
<path d="M58.0292 117.285C57.0714 117.315 56.1222 117.095 55.2757 116.645L1.18828 85.3975C0.848489 85.2377 0.55847 84.9886 0.349187 84.6767C0.139903 84.3649 0.0192146 84.002 0 83.6269C0.0522088 83.1437 0.23134 82.6829 0.519206 82.2913C0.807073 81.8997 1.19342 81.5912 1.63901 81.3973L90.0228 30.3532C90.9809 29.8224 92.0501 29.5236 93.1445 29.4809C94.239 29.4382 95.3282 29.6527 96.3247 30.1073L150.412 61.3551C150.754 61.5159 151.045 61.7662 151.256 62.0794C151.466 62.3926 151.588 62.757 151.609 63.1339C151.554 63.6164 151.374 64.0761 151.086 64.4673C150.799 64.8585 150.414 65.1675 149.97 65.3635L61.5777 116.399C60.4906 116.995 59.2685 117.3 58.0292 117.285ZM93.5138 30.0827C92.3856 30.0784 91.2747 30.3604 90.285 30.9024L1.90125 81.9383C1.55612 82.0835 1.25418 82.3151 1.02452 82.6108C0.794862 82.9066 0.645233 83.2565 0.590045 83.6269C0.613601 83.8914 0.707283 84.1448 0.861428 84.3609C1.01557 84.5771 1.2246 84.7482 1.46692 84.8565L55.5543 116.104C56.4543 116.51 57.4369 116.699 58.4231 116.656C59.4094 116.614 60.3719 116.34 61.2335 115.858L149.617 64.8225C149.961 64.6761 150.263 64.4441 150.492 64.1485C150.722 63.853 150.872 63.5038 150.928 63.1339C150.905 62.8674 150.81 62.612 150.654 62.3944C150.499 62.1768 150.288 62.0047 150.043 61.8961L95.956 30.6483C95.2033 30.255 94.3627 30.0603 93.5138 30.0827V30.0827Z" fill="white"/>
<path d="M151.273 50.174L150.289 50.9527H150.232L96.1446 19.7049C95.1963 19.2749 94.1604 19.0731 93.1201 19.1158C92.0797 19.1585 91.0639 19.4445 90.154 19.9509L1.74566 70.954C1.54989 71.0642 1.36351 71.1903 1.1884 71.331L0.278748 70.6589V72.8803C0.292448 73.2073 0.3961 73.5243 0.578284 73.7962C0.760469 74.0681 1.01412 74.2844 1.31133 74.4214L55.3987 105.677C56.3477 106.106 57.3839 106.307 58.4242 106.263C59.4646 106.218 60.4801 105.931 61.3893 105.423L149.806 54.4038C150.2 54.2338 150.543 53.9634 150.8 53.6197C151.058 53.276 151.221 52.8709 151.273 52.4446V50.174Z" fill="white"/>
<path d="M149.806 52.1332L61.4222 103.169C60.513 103.677 59.4975 103.964 58.4571 104.008C57.4168 104.053 56.3806 103.852 55.4316 103.423L1.34422 72.1673C-0.188254 71.282 0.000231053 69.7081 1.77856 68.708L90.1295 17.6639C91.0394 17.1576 92.0553 16.8716 93.0956 16.8288C94.1359 16.7861 95.1718 16.9879 96.1201 17.418L150.207 48.6658C151.773 49.5593 151.576 51.125 149.806 52.1332Z" fill="#00B2A9"/>
<path d="M71.8052 84.4137L54.866 94.2012L52.9074 93.07L69.8466 83.2825L71.8052 84.4137Z" fill="white"/>
<path d="M92.6288 72.3884L75.6896 82.1759L73.731 81.0447L90.6701 71.2572L92.6288 72.3884Z" fill="white"/>
<path d="M113.453 60.3631L96.5135 70.1506L94.5548 69.0194L111.494 59.2319L113.453 60.3631Z" fill="white"/>
<path d="M134.276 48.3378L117.337 58.1253L115.378 56.9941L132.318 47.2066L134.276 48.3378Z" fill="white"/>
<path d="M147.946 116.178L120.754 100.308C115.37 97.2014 110.289 96.7096 106.454 98.9228C102.619 101.136 100.504 105.784 100.504 112.038V114.03C100.693 114.161 100.898 114.284 101.103 114.407V112.038C101.103 106.038 103.111 101.579 106.749 99.472C110.388 97.3654 115.264 97.8326 120.451 100.857L147.642 116.703C147.711 116.742 147.792 116.753 147.869 116.733C147.946 116.713 148.011 116.664 148.052 116.596C148.074 116.562 148.089 116.524 148.095 116.484C148.102 116.444 148.1 116.403 148.09 116.364C148.08 116.325 148.062 116.288 148.037 116.256C148.012 116.224 147.981 116.197 147.946 116.178V116.178Z" fill="white"/>
<path d="M63.1594 97.3162V36.0338C63.1594 23.7379 54.5136 8.79439 43.8928 2.66287C38.6971 -0.34551 33.7883 -0.820948 30.0841 1.31853C26.3799 3.458 24.3476 7.95008 24.3476 13.9586V18.2294L24.954 18.8278V13.9586C24.954 8.17141 26.888 3.86786 30.3955 1.84315C33.903 -0.181566 38.5906 0.28568 43.6142 3.1793C54.071 9.22065 62.5775 23.9511 62.5775 36.0338V97.3162C62.5775 107.481 68.5517 119.514 76.6648 126.752V125.933C68.8631 118.793 63.1594 107.161 63.1594 97.3162Z" fill="white"/>
<path d="M76.7061 126.539C76.7061 126.539 69.7895 119.49 67.0933 113.678C64.3971 107.866 62.9958 102.48 62.9548 97.6851C62.9138 92.8897 62.8646 51.6413 62.8646 51.6413C62.8646 51.6413 63.1597 34.5337 62.4385 31.8368C61.7173 29.1399 60.021 14.7292 45.9173 4.3843C31.8136 -5.9606 24.7658 5.20401 24.8478 11.0322C24.9297 16.8605 24.8478 20.5984 24.8478 20.5984C24.8478 20.5984 32.5757 26.8529 35.5013 35.7879C38.427 44.7228 38.6974 43.1653 38.7794 52.0593C38.8613 60.9533 38.8777 106.038 38.8777 106.038C38.8777 106.038 38.2221 113.965 40.1889 120.088C42.1557 126.211 45.7042 133.015 49.9083 137.458C54.1123 141.901 60.2586 147.123 65.9952 146.606C71.7317 146.09 75.5916 143.975 76.6487 134.892L76.7061 126.539Z" fill="#F4F4F4"/>
<path d="M30.0845 1.3186L6.31067 15.0244L24.8561 20.5493L30.0845 1.3186Z" fill="#F4F4F4"/>
<path d="M100.504 114.03V116.776C99.1768 115.817 92.9649 111.571 87.0563 111.776C80.4019 112.014 78.1646 118.104 78.1646 118.104C78.1646 118.104 76.5912 122.654 76.7059 124.785C76.7059 125.154 76.7469 125.605 76.7633 126.047L76.6486 125.949V126.769L76.7879 126.892C76.8452 128.941 76.8616 131.195 76.8616 131.195C76.8913 133.45 76.7157 135.702 76.3371 137.925C75.3046 142.721 71.248 145.442 70.9284 145.868L95.3333 131.818H95.3989L95.489 131.761L95.6201 131.687C99.1522 129.507 101.094 125.129 101.094 119.293V114.407C100.898 114.284 100.693 114.161 100.504 114.03Z" fill="#00B2A9"/>
<path d="M81.4921 113.424L106.454 98.9721C109.42 97.626 112.796 97.4994 115.854 98.6197C121.001 100.505 147.979 116.654 147.979 116.654L123.877 130.556C123.877 130.556 95.8827 113.203 92.5965 112.334C85.8519 110.547 81.4921 113.424 81.4921 113.424Z" fill="#F4F4F4"/>
<path d="M24.3312 20.1065C20.9013 16.9559 16.6311 14.8687 12.0386 14.0979C4.45002 12.9339 1.31951 21.8115 1.31951 21.8115C0.85805 24.2461 0.584076 26.7125 0.5 29.189C0.5 31.9187 0.729461 41.8209 0.729461 41.8209L24.7738 27.9676C24.8236 27.9437 24.866 27.9067 24.8964 27.8604C24.9267 27.8142 24.9438 27.7605 24.9459 27.7053V20.6721C24.7328 20.4261 24.5361 20.3032 24.3312 20.1065Z" fill="#00B2A9"/>
<path d="M66.2493 146.942C63.192 146.83 60.2172 145.92 57.6199 144.303C47.081 138.212 38.5008 123.351 38.5008 111.178V49.8953C38.5008 37.8207 29.9943 23.0821 19.5374 17.0408C14.5302 14.1472 9.83445 13.6717 6.32696 15.7046C2.81947 17.7376 0.877242 22.0329 0.877242 27.8201V41.5177C0.884455 41.5611 0.882126 41.6056 0.870415 41.6481C0.858704 41.6905 0.837894 41.7299 0.80943 41.7635C0.780965 41.7971 0.745529 41.8241 0.705585 41.8426C0.66564 41.8611 0.622147 41.8707 0.578124 41.8707C0.534102 41.8707 0.490602 41.8611 0.450658 41.8426C0.410714 41.8241 0.375284 41.7971 0.346819 41.7635C0.318355 41.7299 0.297538 41.6905 0.285828 41.6481C0.274117 41.6056 0.271787 41.5611 0.279 41.5177V27.8201C0.279 21.8116 2.31957 17.3195 6.01554 15.18C9.71152 13.0405 14.6286 13.5406 19.8324 16.5244C30.486 22.6559 39.0908 37.624 39.0908 49.8953V111.178C39.0908 123.162 47.5317 137.794 57.9395 143.786C62.9057 146.655 67.5687 147.131 71.0516 145.114C74.5345 143.098 76.4603 138.827 76.4603 133.089V125.9C76.4603 119.678 78.5746 115.03 82.4099 112.784C86.2452 110.538 91.3261 111.063 96.7103 114.17L123.902 130.007C123.942 130.023 123.979 130.047 124.01 130.079C124.04 130.111 124.063 130.148 124.078 130.19C124.092 130.231 124.097 130.275 124.093 130.319C124.089 130.363 124.075 130.405 124.053 130.443C124.031 130.481 124 130.513 123.964 130.538C123.928 130.563 123.887 130.58 123.844 130.588C123.801 130.596 123.757 130.594 123.714 130.583C123.672 130.571 123.632 130.551 123.598 130.523L96.3989 114.719C91.2032 111.727 86.3354 111.227 82.6968 113.334C79.0581 115.44 77.0422 119.891 77.0422 125.9V133.097C77.0422 139.065 75.018 143.516 71.3056 145.639C69.7646 146.512 68.0201 146.961 66.2493 146.942V146.942Z" fill="#1DDBD1"/>
<path d="M44.9668 63.347V61.183L47.4909 59.7239V61.8879L44.9668 63.347Z" fill="#DDE1ED"/>
<path d="M52.0882 55.1907V53.0266L56.8987 50.256V52.42L52.0882 55.1907Z" fill="#00B2A9"/>
<path d="M45.2125 54.7399V52.5758L56.8987 45.8295V47.9935L45.2125 54.7399Z" fill="#00B2A9"/>
<path d="M49.2689 60.8632V58.6991L59.021 53.0676V55.2317L49.2689 60.8632Z" fill="#DDE1ED"/>
<path d="M45.2125 59.1581V57.0022L50.023 54.2234V56.3875L45.2125 59.1581Z" fill="#00B2A9"/>
<path d="M48.0396 84.3975V86.5615L45.0812 88.2666V86.1025L48.0396 84.3975Z" fill="#DDE1ED"/>
<path d="M53.4239 81.2905V83.4546L50.4736 85.1596V82.9955L53.4239 81.2905Z" fill="#DDE1ED"/>
<path d="M56.6528 75.3805V77.5446L45.2289 84.1433V81.9793L56.6528 75.3805Z" fill="#DDE1ED"/>
<path d="M50.9492 68.5358V66.3717L56.653 63.0764V65.2405L50.9492 68.5358Z" fill="#DDE1ED"/>
<path d="M45.0812 71.9212V69.7571L48.0396 68.0521V70.2162L45.0812 71.9212Z" fill="#DDE1ED"/>
<path d="M45.0812 75.9706V73.8065L50.7194 70.5522V72.7163L45.0812 75.9706Z" fill="#DDE1ED"/>
<path d="M52.9897 71.4048V69.2407L56.6529 67.1259V69.2899L52.9897 71.4048Z" fill="#DDE1ED"/>
<path d="M50.9492 93.7258V91.5618L56.653 88.2665V90.4305L50.9492 93.7258Z" fill="#DDE1ED"/>
<path d="M45.0812 97.1114V94.9473L48.0396 93.2423V95.4064L45.0812 97.1114Z" fill="#DDE1ED"/>
<path d="M45.0812 101.161V98.9967L50.7194 95.7424V97.9065L45.0812 101.161Z" fill="#DDE1ED"/>
<path d="M52.9897 96.5949V94.4308L56.6529 92.3159V94.48L52.9897 96.5949Z" fill="#DDE1ED"/>
<path d="M112.896 116.809L111.019 115.727L113.543 114.268L115.42 115.35L112.896 116.809Z" fill="#DDE1ED"/>
<path d="M116.509 110.669L114.641 109.587L119.443 106.817L121.32 107.899L116.509 110.669Z" fill="#DDE1ED"/>
<path d="M105.807 112.432L103.938 111.35L115.616 104.604L117.493 105.686L105.807 112.432Z" fill="#DDE1ED"/>
<path d="M117.198 114.325L115.321 113.243L125.073 107.612L126.95 108.694L117.198 114.325Z" fill="#DDE1ED"/>
<path d="M109.634 114.645L107.766 113.563L112.568 110.784L114.444 111.866L109.634 114.645Z" fill="#DDE1ED"/>
<path d="M147.44 66.8394C147.44 66.8394 145.059 64.4106 144.13 62.4083C143.202 60.4059 142.719 58.5505 142.705 56.8983C142.691 55.2462 142.674 41.0351 142.674 41.0351C142.674 41.0351 142.776 35.1411 142.528 34.2119C142.279 33.2828 141.695 28.3179 136.839 24.7538C131.983 21.1897 129.556 25.0362 129.585 27.0442C129.613 29.0522 129.585 30.34 129.585 30.34C129.585 30.34 132.245 32.4948 133.253 35.5732C134.26 38.6515 134.353 38.1149 134.381 41.1791C134.41 44.2433 134.415 59.7762 134.415 59.7762C134.415 59.7762 134.19 62.5071 134.867 64.6168C135.544 66.7264 136.766 69.0705 138.213 70.6011C139.661 72.1318 141.777 73.9308 143.752 73.7529C145.727 73.575 147.056 72.8464 147.42 69.7172L147.44 66.8394Z" fill="#F4F4F4"/>
<path d="M131.388 23.6976L123.202 28.4196L129.587 30.3231L131.388 23.6976Z" fill="#F4F4F4"/>
<path d="M155.634 62.5297V63.4758C155.177 63.1454 153.038 61.6825 151.004 61.7531C148.712 61.835 147.942 63.9333 147.942 63.9333C147.942 63.9333 147.4 65.5007 147.44 66.235C147.44 66.3621 147.454 66.5174 147.46 66.6699L147.42 66.636V66.9185L147.468 66.9608C147.488 67.6669 147.494 68.4435 147.494 68.4435C147.504 69.2203 147.443 69.9963 147.313 70.7621C146.957 72.4143 145.561 73.3519 145.451 73.4987L153.854 68.6581H153.876L153.907 68.6384L153.952 68.613C155.168 67.8617 155.837 66.3536 155.837 64.3428V62.6596C155.769 62.6173 155.699 62.5749 155.634 62.5297Z" fill="#00B2A9"/>
<path d="M149.088 62.3207L157.683 57.3417C158.704 56.8779 159.866 56.8343 160.919 57.2203C162.691 57.8698 171.98 63.4334 171.98 63.4334L163.681 68.2232C163.681 68.2232 154.043 62.2445 152.911 61.9451C150.589 61.3294 149.088 62.3207 149.088 62.3207Z" fill="#F4F4F4"/>
<path d="M129.407 30.1703C128.226 29.0849 126.756 28.3658 125.174 28.1002C122.562 27.6992 121.484 30.7577 121.484 30.7577C121.325 31.5965 121.23 32.4463 121.202 33.2995C121.202 34.2399 121.281 37.6515 121.281 37.6515L129.559 32.8787C129.576 32.8705 129.591 32.8577 129.601 32.8418C129.612 32.8258 129.618 32.8074 129.618 32.7883V30.3652C129.545 30.2805 129.477 30.2381 129.407 30.1703Z" fill="#00B2A9"/>
<path d="M143.84 73.8687C142.787 73.8299 141.763 73.5164 140.868 72.9593C137.24 70.861 134.286 65.7408 134.286 61.5469V40.4335C134.286 36.2735 131.357 31.1957 127.756 29.1143C126.032 28.1174 124.415 27.9536 123.208 28.654C122 29.3544 121.331 30.8342 121.331 32.8281V37.5472C121.334 37.5622 121.333 37.5775 121.329 37.5922C121.325 37.6068 121.318 37.6203 121.308 37.6319C121.298 37.6435 121.286 37.6528 121.272 37.6592C121.259 37.6655 121.244 37.6688 121.228 37.6688C121.213 37.6688 121.198 37.6655 121.185 37.6592C121.171 37.6528 121.159 37.6435 121.149 37.6319C121.139 37.6203 121.132 37.6068 121.128 37.5922C121.124 37.5775 121.123 37.5622 121.125 37.5472V32.8281C121.125 30.758 121.828 29.2103 123.101 28.4732C124.373 27.7361 126.066 27.9084 127.858 28.9364C131.526 31.0489 134.489 36.2058 134.489 40.4335V61.5469C134.489 65.6758 137.395 70.7169 140.978 72.7814C142.688 73.7698 144.294 73.9337 145.493 73.2389C146.692 72.5442 147.355 71.0728 147.355 69.0959V66.6191C147.355 64.4756 148.083 62.8743 149.404 62.1004C150.724 61.3266 152.474 61.5074 154.328 62.5777L163.69 68.034C163.704 68.0395 163.717 68.048 163.727 68.0589C163.738 68.0698 163.746 68.0828 163.751 68.0971C163.755 68.1114 163.757 68.1266 163.756 68.1416C163.754 68.1567 163.75 68.1712 163.742 68.1843C163.734 68.1973 163.724 68.2085 163.711 68.2172C163.699 68.2258 163.685 68.2316 163.67 68.2343C163.655 68.2369 163.64 68.2362 163.625 68.2324C163.611 68.2285 163.597 68.2215 163.585 68.2119L154.22 62.7669C152.431 61.7361 150.755 61.5638 149.503 62.2897C148.25 63.0155 147.556 64.549 147.556 66.6191V69.0987C147.556 71.1547 146.859 72.6882 145.581 73.4197C145.05 73.7204 144.449 73.8753 143.84 73.8687V73.8687Z" fill="#1DDBD1"/>
<path d="M136.512 45.068V44.3224L137.381 43.8197V44.5653L136.512 45.068Z" fill="#DDE1ED"/>
<path d="M138.964 42.2579V41.5123L140.62 40.5577V41.3033L138.964 42.2579Z" fill="#00B2A9"/>
<path d="M136.596 42.1026V41.357L140.62 39.0327V39.7783L136.596 42.1026Z" fill="#00B2A9"/>
<path d="M137.993 44.2123V43.4667L141.351 41.5265V42.2721L137.993 44.2123Z" fill="#DDE1ED"/>
<path d="M136.596 43.6248V42.8821L138.253 41.9247V42.6703L136.596 43.6248Z" fill="#00B2A9"/>
<path d="M137.57 52.3204V53.066L136.551 53.6534V52.9079L137.57 52.3204Z" fill="#DDE1ED"/>
<path d="M139.424 51.25V51.9956L138.408 52.583V51.8374L139.424 51.25Z" fill="#DDE1ED"/>
<path d="M140.535 49.2138V49.9594L136.602 52.2328V51.4873L140.535 49.2138Z" fill="#DDE1ED"/>
<path d="M138.572 46.8556V46.11L140.536 44.9747V45.7203L138.572 46.8556Z" fill="#DDE1ED"/>
<path d="M136.551 48.0221V47.2765L137.57 46.6891V47.4347L136.551 48.0221Z" fill="#DDE1ED"/>
<path d="M136.551 49.4172V48.6716L138.493 47.5504V48.296L136.551 49.4172Z" fill="#DDE1ED"/>
<path d="M139.274 47.8441V47.0986L140.535 46.3699V47.1155L139.274 47.8441Z" fill="#DDE1ED"/>
<path d="M138.572 55.5343V54.7887L140.536 53.6534V54.399L138.572 55.5343Z" fill="#DDE1ED"/>
<path d="M136.551 56.7006V55.955L137.57 55.3676V56.1132L136.551 56.7006Z" fill="#DDE1ED"/>
<path d="M136.551 58.0958V57.3503L138.493 56.2291V56.9746L136.551 58.0958Z" fill="#DDE1ED"/>
<path d="M139.274 56.5226V55.777L140.535 55.0483V55.7939L139.274 56.5226Z" fill="#DDE1ED"/>
<path d="M159.9 63.4871L159.254 63.1143L160.123 62.6116L160.769 62.9844L159.9 63.4871Z" fill="#DDE1ED"/>
<path d="M161.145 61.3718L160.501 60.999L162.155 60.0444L162.801 60.4172L161.145 61.3718Z" fill="#DDE1ED"/>
<path d="M157.459 61.9788L156.816 61.606L160.837 59.2817L161.483 59.6545L157.459 61.9788Z" fill="#DDE1ED"/>
<path d="M161.382 62.6315L160.736 62.2587L164.093 60.3185L164.739 60.6913L161.382 62.6315Z" fill="#DDE1ED"/>
<path d="M158.777 62.7413L158.134 62.3685L159.788 61.4111L160.434 61.7839L158.777 62.7413Z" fill="#DDE1ED"/>
</svg>
