<svg width="448" height="292" viewBox="0 0 448 292" fill="none" xmlns="http://www.w3.org/2000/svg">
<g clip-path="url(#clip0_191_6641)">
<path d="M281.328 290.409L306.555 288.88L305.026 272.824L281.328 290.409Z" fill="#008C85"/>
<path d="M447.61 231.537L0.764445 151.597L0 157.331L133.792 338.563L303.498 285.043L303.909 284.915C304.574 287.62 306.4 289.602 310.378 288.866C315.46 287.931 316.819 284.151 316.89 280.583L445.713 237.64L447.61 231.537Z" fill="#008C85"/>
<path d="M0.765625 151.64L178.131 129.085L300.442 77.0941L447.611 231.537L309.233 278.176L134.925 331.71L0.765625 151.64Z" fill="#00B2A9"/>
<path d="M137.088 316.093C137.088 316.093 219.195 265.518 307.757 275.033L175.013 124.951C175.013 124.951 37.5261 120.207 9.08594 145.495L137.088 316.093Z" fill="#E9E9E9"/>
<path d="M175.016 124.866C219.254 123.28 296.69 37.9312 296.69 37.9312C333.043 91.6634 445.232 178.598 445.232 178.598C426.858 201.072 406.484 221.834 384.36 240.627C355.92 264.343 307.732 275.004 307.732 275.004L175.016 124.866Z" fill="#E9E9E9"/>
<path d="M237.428 0L380.407 158.054C380.407 158.054 331.426 270.261 307.729 275.004L174.984 124.922L237.428 0Z" fill="white"/>
<path d="M213.734 105.1L242.175 48.2103L291.948 101.15L257.18 181.755L213.734 105.1Z" stroke="black" stroke-linecap="round" stroke-linejoin="round"/>
<path d="M280.102 210.2C280.102 210.2 304.592 162.06 310.92 143.031" stroke="black" stroke-linecap="round" stroke-linejoin="round"/>
<path d="M295.898 226.015C295.898 226.015 320.403 177.805 326.717 158.846" stroke="black" stroke-linecap="round" stroke-linejoin="round"/>
<path d="M310.914 237.073C310.914 237.073 335.405 188.863 341.732 169.904" stroke="black" stroke-linecap="round" stroke-linejoin="round"/>
<path d="M265.094 195.985C265.094 195.985 289.584 147.774 295.898 128.816" stroke="black" stroke-linecap="round" stroke-linejoin="round"/>
<path d="M175.018 124.866L140.25 22.5265C140.25 22.5265 249.254 103.132 269.823 139.477C290.392 175.823 307.762 275.004 307.762 275.004L175.018 124.922" fill="#E9E9E9"/>
<path d="M193.192 131.18L282.462 227.587C282.462 227.587 269.042 172.269 254.815 146.203C240.588 120.137 173.43 67.1688 173.43 67.1688L193.192 131.18Z" stroke="black" stroke-linecap="round" stroke-linejoin="round"/>
<path d="M307.756 275.004C307.756 275.004 265.088 251.303 212.908 254.46C160.728 257.617 148.539 272.64 148.539 272.64L31.2109 101.15C31.2109 101.15 109.425 69.9298 176.583 126.437L307.756 275.004Z" fill="white"/>
<path d="M88.0938 121.694C88.0938 121.694 122.862 118.537 157.63 128.023" stroke="black" stroke-linecap="round" stroke-linejoin="round"/>
<path d="M95.9922 135.131C95.9922 135.131 130.76 131.973 165.528 141.46" stroke="black" stroke-linecap="round" stroke-linejoin="round"/>
<path d="M107.859 150.932C107.859 150.932 142.613 147.774 177.381 157.261" stroke="black" stroke-linecap="round" stroke-linejoin="round"/>
<path d="M118.914 165.161C118.914 165.161 153.682 162.004 188.45 171.49" stroke="black" stroke-linecap="round" stroke-linejoin="round"/>
</g>
<defs>
<clipPath id="clip0_191_6641">
<rect width="447.61" height="338.577" fill="white"/>
</clipPath>
</defs>
</svg>
