<svg width="441" height="383" viewBox="0 0 441 383" fill="none" xmlns="http://www.w3.org/2000/svg">
<g clip-path="url(#clip0_57_3900)">
<path d="M351.132 72.7123L411.2 25.8295C411.572 25.5436 411.844 25.1485 411.978 24.6997L418.331 3.95767C418.495 3.38561 418.876 2.90021 419.393 2.60463L423.513 0.263862C423.923 0.0277613 424.396 -0.0739752 424.866 -0.0270368L437.72 1.22453C438.221 1.27716 438.691 1.49303 439.058 1.83895C439.425 2.18486 439.668 2.64164 439.75 3.13907L440.717 9.13302C440.812 9.71807 440.676 10.3172 440.338 10.804L438.62 13.2869C438.378 13.6374 438.238 14.0484 438.217 14.4738C438.195 14.8992 438.293 15.3221 438.498 15.6953C438.726 16.1094 438.82 16.5839 438.768 17.0538C438.716 17.5237 438.52 17.966 438.207 18.3202C433.725 23.1705 428.262 27.0104 422.18 29.5842C421.887 29.7072 421.624 29.8917 421.409 30.1254L367.403 88.8135C367.196 89.0393 366.946 89.2213 366.667 89.3486C366.389 89.476 366.088 89.5462 365.782 89.555C365.476 89.5638 365.171 89.5112 364.886 89.4C364.601 89.2889 364.341 89.1217 364.121 88.9082L350.956 76.1558C350.721 75.9289 350.538 75.6542 350.418 75.3503C350.298 75.0464 350.244 74.7204 350.261 74.3941C350.277 74.0678 350.364 73.7488 350.514 73.4587C350.665 73.1686 350.875 72.9141 351.132 72.7123Z" fill="url(#paint0_linear_57_3900)"/>
<path d="M262.93 144.389L348.408 72.7596C349.22 72.0776 350.25 71.7099 351.31 71.7235C352.371 71.7372 353.391 72.1313 354.185 72.834C357.791 76.034 363.799 81.8047 366.593 86.9665C367.1 87.9039 367.284 88.982 367.118 90.0345C366.952 91.0871 366.444 92.0558 365.673 92.7914L277.218 177.471L262.93 144.389Z" fill="#00948C"/>
<path d="M171.81 380.644C170.207 382.146 157.738 397.922 155.039 401.345C154.584 401.916 154.242 402.568 154.031 403.266C153.47 405.181 153.043 408.956 156.697 412.372C157.774 413.381 159.195 413.942 160.671 413.942C162.147 413.942 163.568 413.381 164.646 412.372L183.588 390.528L171.81 380.644Z" fill="url(#paint1_linear_57_3900)"/>
<path d="M195.533 297.547C195.533 292.656 223.602 294.394 248.207 291.546C261.128 290.058 268.786 305.591 259.708 314.933L185.209 391.82C184.447 392.613 183.477 393.176 182.41 393.445C181.343 393.714 180.222 393.678 179.175 393.342C175.232 392.091 171.534 390.171 168.242 387.666C167.191 386.815 166.504 385.595 166.322 384.254C166.14 382.914 166.476 381.555 167.261 380.454L201.527 331.677L170.278 340.688L51.6981 487.358C50.7558 488.531 49.4148 489.318 47.9305 489.567C46.4461 489.817 44.9218 489.512 43.6475 488.711C40.1567 486.519 35.5293 483.224 32.4376 479.571C31.6572 478.624 31.2023 477.451 31.1401 476.225C31.078 475 31.4119 473.786 32.0926 472.765C45.1697 452.774 116.258 343.882 119.634 332.57C123.348 320.109 136.987 297.296 149.739 296.485C162.492 295.673 195.533 297.547 195.533 297.547Z" fill="url(#paint2_linear_57_3900)"/>
<path d="M203.394 331.041C203.204 331.035 203.023 330.962 202.883 330.835C202.743 330.707 202.652 330.534 202.628 330.346C202.603 330.158 202.647 329.968 202.75 329.809C202.853 329.65 203.009 329.533 203.191 329.478L231.3 322.037C231.401 322.01 231.505 322.003 231.608 322.016C231.712 322.029 231.811 322.063 231.901 322.115C231.991 322.167 232.07 322.236 232.134 322.318C232.197 322.4 232.244 322.494 232.271 322.595C232.298 322.695 232.305 322.8 232.292 322.903C232.278 323.006 232.245 323.106 232.193 323.196C232.141 323.286 232.072 323.365 231.99 323.429C231.907 323.492 231.813 323.539 231.713 323.566L203.597 331.007C203.531 331.029 203.463 331.04 203.394 331.041Z" fill="url(#paint3_linear_57_3900)"/>
<path d="M173.075 338.652C172.917 338.655 172.761 338.611 172.629 338.526C172.496 338.44 172.391 338.317 172.328 338.172C172.265 338.028 172.246 337.867 172.274 337.712C172.303 337.556 172.376 337.413 172.486 337.299L179.508 329.688C179.651 329.533 179.849 329.441 180.06 329.432C180.271 329.423 180.476 329.498 180.631 329.641C180.787 329.784 180.879 329.982 180.888 330.193C180.897 330.403 180.821 330.609 180.679 330.764L173.657 338.375C173.584 338.459 173.495 338.527 173.395 338.575C173.295 338.623 173.186 338.649 173.075 338.652Z" fill="url(#paint4_linear_57_3900)"/>
<path d="M277.219 142.989C277.219 142.989 292.102 158.157 289.518 184.318C288.732 192.019 285.784 199.341 281.014 205.439L206.036 302.181C205.183 303.291 204.118 304.222 202.903 304.918C201.689 305.615 200.348 306.064 198.959 306.24C187.932 307.593 158.605 310.231 137.849 303.358C137.462 303.226 137.109 303.009 136.816 302.725C136.522 302.44 136.295 302.094 136.151 301.711C136.006 301.328 135.949 300.919 135.982 300.511C136.014 300.103 136.137 299.708 136.341 299.353L204.5 179.42L245.768 131.387C245.768 131.387 265.488 124.595 277.219 142.989Z" fill="#04A79F"/>
<path d="M183.58 269.512C183.304 269.512 183.034 269.436 182.799 269.291C182.564 269.147 182.373 268.94 182.249 268.694C182.125 268.447 182.072 268.171 182.095 267.897C182.119 267.622 182.218 267.359 182.382 267.137C183.059 266.258 247.646 179.244 252.017 168.65C256.028 158.921 246.314 151.263 246.212 151.182C245.9 150.94 245.697 150.583 245.647 150.191C245.598 149.799 245.706 149.404 245.948 149.091C246.19 148.779 246.547 148.576 246.939 148.527C247.331 148.477 247.726 148.585 248.039 148.828C248.154 148.915 259.641 157.981 254.804 169.8C250.291 180.732 187.483 265.331 184.811 268.923C184.667 269.112 184.481 269.264 184.267 269.366C184.053 269.469 183.817 269.518 183.58 269.512Z" fill="#00B2A9"/>
<path d="M158.203 261.394C158.203 261.394 170.848 269.309 181.307 270.378L149.74 309.535C149.74 309.535 145.12 334.87 141.094 338.3C137.069 341.73 125.609 344.024 122.619 338.3C120.742 334.563 119.403 330.58 118.641 326.468C118.641 326.468 120.494 323.539 123.857 328.883V322.794C123.857 322.794 128.768 324.946 128.707 328.883C128.707 328.883 124.357 312.525 131.258 307.153C138.158 301.782 139.937 300.916 139.937 300.916L158.203 261.394Z" fill="url(#paint5_linear_57_3900)"/>
<path d="M41.5308 257.49C41.1244 257.572 40.7421 257.746 40.4135 257.999C40.085 258.251 39.8189 258.576 39.6358 258.948C39.4528 259.32 39.3577 259.729 39.3578 260.144C39.3579 260.559 39.4533 260.968 39.6366 261.34C43.2695 268.666 53.9856 284.835 76.0469 279.741C104.305 273.212 190.494 208.03 209.998 190.258C229.502 172.485 255.325 150.282 267.996 153.374C280.667 156.465 273.016 149.146 264.255 143.267C255.494 137.388 252.246 128.755 258.768 130.372C258.768 130.372 243.039 125.264 219.022 138.49C195.547 151.425 80.9381 195.643 42.5727 182.843C42.238 182.733 41.8835 182.696 41.5334 182.736C41.1832 182.775 40.8457 182.889 40.5439 183.071C40.242 183.253 39.983 183.498 39.7844 183.789C39.5858 184.08 39.4523 184.41 39.3931 184.758C37.8641 193.498 35.5504 220.857 57.9771 251.645C58.0244 251.659 49.2296 256.036 41.5308 257.49Z" fill="#00B2A9"/>
<path d="M61.7459 251.713C61.4128 251.716 61.0882 251.608 60.824 251.405C60.5598 251.202 60.3713 250.916 60.2887 250.594C60.2061 250.271 60.2341 249.93 60.3682 249.625C60.5024 249.32 60.735 249.069 61.0287 248.912C61.3196 248.756 90.0515 233.115 96.1199 228.089C96.2705 227.964 96.4441 227.87 96.631 227.812C96.8179 227.754 97.0143 227.734 97.2091 227.752C97.4038 227.771 97.5931 227.827 97.766 227.918C97.939 228.01 98.0923 228.134 98.2171 228.285C98.3419 228.435 98.4358 228.609 98.4935 228.796C98.5512 228.983 98.5715 229.179 98.5533 229.374C98.5351 229.569 98.4787 229.758 98.3874 229.931C98.296 230.104 98.1715 230.257 98.0209 230.382C91.7292 235.591 63.6469 250.881 62.4563 251.53C62.2379 251.648 61.994 251.711 61.7459 251.713Z" fill="#04A79F"/>
<path d="M280.842 97.8788L258.436 129.513C257.731 130.511 257.393 131.722 257.478 132.941C257.563 134.161 258.066 135.313 258.903 136.204C261.92 139.424 267.021 143.963 272.501 144.998C273.333 145.16 274.193 145.071 274.974 144.742C275.755 144.413 276.42 143.86 276.885 143.152L288.798 124.885C288.798 124.885 291.078 96.1266 280.842 97.8788Z" fill="url(#paint6_linear_57_3900)"/>
<path d="M287.17 71.4405C287.624 71.8667 306.289 108.514 306.289 108.514L285.134 118.729L262.281 86.6148C262.281 86.6148 279.587 64.2965 287.17 71.4405Z" fill="url(#paint7_linear_57_3900)"/>
<path d="M271.892 90.471L282.446 108.061C282.6 108.327 282.794 108.569 283.021 108.778C284.279 109.948 288.575 113.344 291.896 108.717C294.731 104.773 297.383 101.187 300.231 99.7055C300.629 99.5041 301.062 99.3833 301.506 99.3498C301.95 99.3164 302.397 99.3709 302.82 99.5105C303.243 99.65 303.634 99.8718 303.971 100.163C304.308 100.454 304.585 100.809 304.784 101.207C307.611 106.728 310.024 112.452 312.003 118.33C312.249 119.137 312.186 120.007 311.824 120.769C311.462 121.531 310.829 122.131 310.048 122.45C305.765 124.189 297.302 127.328 289.752 128.363C289.148 128.445 288.533 128.363 287.973 128.125C287.412 127.887 286.926 127.501 286.566 127.01C283.332 122.585 274.219 110.212 271.114 107.113C268.225 104.238 262.894 105.321 260.493 106.011C260.042 106.143 259.568 106.18 259.102 106.12C258.636 106.059 258.188 105.902 257.786 105.659C255.351 104.191 251.096 100.531 254.986 94.3475C255.443 93.5965 255.59 92.697 255.396 91.8395C255.201 90.982 254.68 90.234 253.944 89.7539C251.238 87.9679 248.268 84.6056 251.082 79.1664C253.896 73.7271 259.018 73.1656 262.481 73.5851C263.231 73.6897 263.994 73.5484 264.656 73.1825C265.319 72.8165 265.845 72.2457 266.155 71.5555C266.304 71.1984 266.543 70.886 266.849 70.6489C267.155 70.4117 267.517 70.2579 267.9 70.2025C268.328 70.1277 268.737 69.9684 269.103 69.7339C269.468 69.4993 269.783 69.1942 270.03 68.8364C270.276 68.4786 270.448 68.0753 270.537 67.6501C270.626 67.2248 270.629 66.7862 270.546 66.3598C269.937 63.2411 270.397 59.1955 275.376 56.4556C284.502 51.4358 292.499 59.6149 294.528 66.5154C296.558 73.4159 286.356 78.3004 279.936 79.1122C275.2 79.7076 272.636 84.8559 271.594 87.5484C271.421 88.0266 271.358 88.5377 271.409 89.0437C271.461 89.5497 271.626 90.0376 271.892 90.471Z" fill="url(#paint8_linear_57_3900)"/>
<path d="M275.115 113.567C275.115 113.567 271.056 101.688 265.86 102.127C260.664 102.567 256.571 107.736 263.012 113.554C271.022 120.793 275.115 113.567 275.115 113.567Z" fill="url(#paint9_linear_57_3900)"/>
<path d="M426.249 18.1037C426.16 18.1036 426.071 18.0828 425.992 18.0428C425.87 17.9731 425.779 17.8585 425.74 17.7233C425.701 17.5882 425.716 17.4432 425.782 17.3189C425.91 17.0889 428.948 11.67 432.75 12.8404C435.734 13.7537 436.566 13.4086 436.579 13.4086C436.691 13.3444 436.824 13.3254 436.95 13.3556C437.075 13.3858 437.185 13.4628 437.256 13.571C437.33 13.6927 437.354 13.8385 437.322 13.9774C437.29 14.1163 437.206 14.2375 437.087 14.3152C436.857 14.4708 435.821 14.897 432.405 13.8484C429.415 12.9216 426.702 17.779 426.675 17.8331C426.633 17.9106 426.571 17.9761 426.497 18.0235C426.422 18.0708 426.337 18.0984 426.249 18.1037Z" fill="url(#paint10_linear_57_3900)"/>
</g>
<defs>
<linearGradient id="paint0_linear_57_3900" x1="350.253" y1="44.7924" x2="440.731" y2="44.7924" gradientUnits="userSpaceOnUse">
<stop stop-color="#FEB3B1"/>
<stop offset="1" stop-color="#FF928E"/>
</linearGradient>
<linearGradient id="paint1_linear_57_3900" x1="35539.3" y1="36874.9" x2="36863.1" y2="36874.9" gradientUnits="userSpaceOnUse">
<stop stop-color="#FEB3B1"/>
<stop offset="1" stop-color="#FF928E"/>
</linearGradient>
<linearGradient id="paint2_linear_57_3900" x1="331347" y1="158622" x2="275042" y2="222515" gradientUnits="userSpaceOnUse">
<stop stop-color="#09005D"/>
<stop offset="1" stop-color="#1A0F91"/>
</linearGradient>
<linearGradient id="paint3_linear_57_3900" x1="38034.9" y1="9290.5" x2="37771.1" y2="10039.9" gradientUnits="userSpaceOnUse">
<stop stop-color="#09005D"/>
<stop offset="1" stop-color="#1A0F91"/>
</linearGradient>
<linearGradient id="paint4_linear_57_3900" x1="10706.1" y1="9509.77" x2="10472.8" y2="9822.06" gradientUnits="userSpaceOnUse">
<stop stop-color="#09005D"/>
<stop offset="1" stop-color="#1A0F91"/>
</linearGradient>
<linearGradient id="paint5_linear_57_3900" x1="70968.8" y1="76996.7" x2="76773.6" y2="76996.7" gradientUnits="userSpaceOnUse">
<stop stop-color="#FEB3B1"/>
<stop offset="1" stop-color="#FF928E"/>
</linearGradient>
<linearGradient id="paint6_linear_57_3900" x1="45072.3" y1="3818.33" x2="47859.8" y2="2872.15" gradientUnits="userSpaceOnUse">
<stop stop-color="#FEB3B1"/>
<stop offset="1" stop-color="#FF928E"/>
</linearGradient>
<linearGradient id="paint7_linear_57_3900" x1="32715.9" y1="4934.9" x2="33359.1" y2="10313" gradientUnits="userSpaceOnUse">
<stop stop-color="#FEB3B1"/>
<stop offset="1" stop-color="#FF928E"/>
</linearGradient>
<linearGradient id="paint8_linear_57_3900" x1="46703.9" y1="12411.2" x2="50256.5" y2="8637.38" gradientUnits="userSpaceOnUse">
<stop stop-color="#09005D"/>
<stop offset="1" stop-color="#1A0F91"/>
</linearGradient>
<linearGradient id="paint9_linear_57_3900" x1="10697" y1="2497.73" x2="10615.6" y2="1297.69" gradientUnits="userSpaceOnUse">
<stop stop-color="#FEB3B1"/>
<stop offset="1" stop-color="#FF928E"/>
</linearGradient>
<linearGradient id="paint10_linear_57_3900" x1="425.721" y1="15.3909" x2="437.371" y2="15.3909" gradientUnits="userSpaceOnUse">
<stop stop-color="#FF857E"/>
<stop offset="1" stop-color="#FE7062"/>
</linearGradient>
<clipPath id="clip0_57_3900">
<rect width="440.725" height="561.457" fill="white"/>
</clipPath>
</defs>
</svg>
