<svg width="479" height="476" viewBox="0 0 479 476" fill="none" xmlns="http://www.w3.org/2000/svg">
<g clip-path="url(#clip0_187_6178)">
<path d="M417.779 409.217C408.076 419.434 398.894 426.022 391.64 431.227C306.368 492.41 205.469 474.577 184.026 470.22C152.36 463.789 91.1496 451.35 46.8969 399.315C-20.0542 320.581 -9.62981 196.539 42.3069 114.657C51.8048 99.678 101.977 16.5497 203.977 3.21826C265.699 -4.84994 337.645 11.4225 389.746 55.0683C499.105 146.7 491.319 331.803 417.779 409.217Z" fill="#29134F"/>
<path d="M407.413 199.786C403.043 215.735 344.111 208.165 283.611 186.167C209.025 159.047 185.181 126.402 189.972 110.575C192.141 103.416 249.876 104.975 308.451 131.675C367.027 158.375 410.303 189.198 407.413 199.786Z" fill="url(#paint0_linear_187_6178)"/>
<path d="M370.164 143.342C407.039 112.953 444.366 101.511 478.425 103.671V145.333C455.718 130.812 417.276 146.81 375.692 157.075L370.164 143.342Z" fill="url(#paint1_linear_187_6178)"/>
<path d="M264.999 200.739C-101.421 301.07 16.4111 561.471 286.046 375.87L284.414 371.132C33.8973 514.658 -52.4389 330.456 268.65 215.783L264.999 200.739Z" fill="url(#paint2_linear_187_6178)"/>
<path d="M249.097 376.074C257.308 382.828 262.557 389.125 266.253 404.158C266.275 404.249 266.324 404.332 266.393 404.395C266.462 404.458 266.549 404.499 266.642 404.513C266.735 404.526 266.829 404.512 266.914 404.472C266.999 404.431 267.069 404.366 267.117 404.286C273.964 392.744 283.017 382.747 291.79 371.421C291.929 371.242 292.011 371.025 292.025 370.798C292.038 370.572 291.983 370.347 291.867 370.152C291.75 369.957 291.578 369.802 291.372 369.707C291.166 369.612 290.936 369.582 290.713 369.619C275.649 372.14 262.217 375.654 249.415 375.229C249.314 375.223 249.214 375.25 249.129 375.305C249.045 375.359 248.98 375.44 248.944 375.534C248.909 375.629 248.904 375.732 248.932 375.829C248.959 375.926 249.017 376.012 249.097 376.074Z" fill="url(#paint3_linear_187_6178)"/>
<path d="M159.551 268.381L146.359 288.677C152.496 300.635 159.313 307.234 166.134 310.372C167.351 302.923 171.701 296.74 174.896 293.068C162.725 286.147 159.551 268.381 159.551 268.381Z" fill="#00B2A9"/>
<path d="M204.879 289.423C191.373 297.413 181.718 296.949 174.895 293.068C171.7 296.74 167.35 302.928 166.133 310.372C187.813 320.348 209.522 295.242 209.522 295.242L204.879 289.423Z" fill="url(#paint4_linear_187_6178)"/>
<path d="M205.609 292.9C205.609 292.9 201.962 286.543 207.207 281.663C207.207 281.663 208.907 279.733 210.755 282.567C210.755 282.567 216.395 277.445 217.939 279.507C219.483 281.569 223.571 286.678 219.576 292.504C215.537 298.398 207.39 295.771 205.609 292.9Z" fill="url(#paint5_linear_187_6178)"/>
<path d="M211.156 289.401C210.581 289.416 210.012 289.275 209.509 288.995C208.999 288.696 208.367 288.07 208.205 286.797C208.189 286.703 208.193 286.608 208.215 286.516C208.237 286.424 208.277 286.337 208.334 286.261C208.391 286.185 208.462 286.121 208.544 286.074C208.626 286.026 208.717 285.996 208.811 285.984C208.905 285.973 209 285.98 209.091 286.007C209.182 286.033 209.267 286.078 209.34 286.138C209.413 286.198 209.473 286.272 209.517 286.356C209.561 286.44 209.587 286.532 209.594 286.627C209.667 287.205 209.873 287.587 210.22 287.795C210.697 288.08 211.41 288.029 211.945 287.919L210.68 283.907C210.628 283.731 210.647 283.541 210.734 283.379C210.82 283.216 210.967 283.094 211.142 283.039C211.317 282.984 211.507 283 211.671 283.084C211.835 283.168 211.959 283.312 212.017 283.487L213.496 288.181C213.549 288.35 213.537 288.533 213.46 288.693C213.384 288.853 213.249 288.978 213.084 289.043C212.467 289.272 211.815 289.394 211.156 289.401Z" fill="#F79E6D"/>
<path d="M13.7071 425.731C12.5324 426.436 11.9323 427.926 12.2128 429.383C13.3144 435.122 16.9337 450.281 25.7261 459.255C25.8498 459.388 25.9996 459.494 26.1662 459.567C26.3327 459.64 26.5125 459.677 26.6943 459.677C26.876 459.677 27.0558 459.64 27.2224 459.567C27.389 459.494 27.5388 459.388 27.6624 459.255C25.4354 456.936 22.6746 452.965 19.448 446.238C14.4891 435.894 13.5694 429.512 13.7071 425.731Z" fill="url(#paint6_linear_187_6178)"/>
<path d="M25.0623 425.51C25.0623 425.51 19.3928 422.426 13.7471 425.697L13.708 425.726C13.5703 429.507 14.49 435.889 19.4489 446.238C22.6789 452.972 25.4363 456.936 27.6633 459.255C27.8358 459.073 27.9618 458.852 28.0305 458.611C29.6812 452.88 33.1696 436.936 25.0623 425.51Z" fill="#00B2A9"/>
<path d="M33.2421 425.872L28.1047 430.802C27.665 431.227 27.0937 431.49 26.4848 431.548C25.8759 431.605 25.2655 431.454 24.754 431.118C23.581 430.331 22.6709 429.21 22.1411 427.9C21.9437 427.424 21.8856 426.902 21.9734 426.394C22.0613 425.887 22.2916 425.414 22.6375 425.032L27.7732 419.39C28.0579 419.077 28.4122 418.835 28.8075 418.683C29.2029 418.532 29.6282 418.476 30.0494 418.519C30.4705 418.562 30.8756 418.704 31.232 418.932C31.5884 419.16 31.8862 419.469 32.1014 419.834L33.7045 422.545C34.0143 423.071 34.1372 423.685 34.0533 424.289C33.9693 424.893 33.6834 425.451 33.2421 425.872Z" fill="url(#paint7_linear_187_6178)"/>
<path d="M199.297 401.147C200.487 401.819 202.081 401.605 203.207 400.637C207.651 396.845 219.041 386.206 222.495 374.126C222.55 373.953 222.569 373.77 222.551 373.589C222.532 373.409 222.476 373.234 222.387 373.076C222.298 372.918 222.176 372.779 222.031 372.67C221.886 372.561 221.72 372.483 221.543 372.441C220.628 375.523 218.546 379.882 214.287 386.016C207.746 395.446 202.653 399.398 199.297 401.147Z" fill="url(#paint8_linear_187_6178)"/>
<path d="M193.5 391.384C193.5 391.384 193.621 397.836 199.255 401.127C199.268 401.127 199.283 401.14 199.297 401.147C202.653 399.398 207.746 395.445 214.293 386.017C218.543 379.884 220.634 375.525 221.548 372.443C221.305 372.381 221.05 372.381 220.807 372.443C215.003 373.844 199.421 378.692 193.5 391.384Z" fill="#00B2A9"/>
<path d="M193.1 380.7L198.468 385.376C198.931 385.776 199.244 386.322 199.356 386.924C199.467 387.525 199.371 388.147 199.082 388.686C198.403 389.925 197.368 390.932 196.111 391.576C195.654 391.816 195.14 391.92 194.626 391.879C194.113 391.837 193.622 391.65 193.21 391.34L187.133 386.735C186.796 386.479 186.523 386.148 186.337 385.768C186.151 385.387 186.057 384.969 186.063 384.546C186.068 384.123 186.173 383.707 186.368 383.331C186.563 382.956 186.844 382.632 187.187 382.384L189.737 380.545C190.233 380.187 190.835 380.007 191.446 380.035C192.056 380.063 192.639 380.297 193.1 380.7Z" fill="url(#paint9_linear_187_6178)"/>
<path d="M85.3917 333.37C85.3917 333.37 74.9163 369.057 68.1452 384.741C68.1452 384.741 56.3064 386.546 48.9794 390.828C41.6524 395.111 25.8594 418.838 25.8594 418.838C25.8594 418.838 29.9819 426.658 34.9544 427.863L79.8922 396.729L115.75 355.03L114.05 335.687L85.3917 333.37Z" fill="#9387FF"/>
<path d="M86.0405 330.456L82.9805 340.228C82.9805 340.228 85.7719 365.849 118.072 361.527C150.372 357.206 154.43 351.934 154.43 351.934C154.43 351.934 151.626 368.297 186.944 387.974C186.944 387.974 192.313 383.921 193.494 379.319L168.749 338.524C165.306 333.173 162.119 331.764 155.829 332.744C141.93 334.919 115.904 337.753 111.969 337.079L86.0405 330.456Z" fill="#786BF0"/>
<path d="M111.272 257.79C101.861 258.267 86.9829 262.742 77.3711 271.59C80.3257 274.851 84.8715 280.153 88.2596 285.391C91.2873 282.548 95.6342 280.18 101.756 278.664C96.4638 298.44 90.2112 317.279 82.5901 334.791C82.475 335.049 82.4147 335.328 82.413 335.61C82.4112 335.892 82.468 336.172 82.5799 336.431C82.6917 336.69 82.8562 336.923 83.0628 337.116C83.2693 337.308 83.5136 337.455 83.7801 337.549C89.6774 339.604 107.07 344.498 121.01 336.617L151.933 292.335C155.26 287.574 157.446 282.111 158.323 276.369L159.544 268.379C159.544 268.379 131.776 256.746 111.272 257.79Z" fill="#00B2A9"/>
<path d="M94.402 324.797C93.0573 321.829 88.452 319.056 86.259 317.864C84.3499 313.927 76.7238 296.215 88.2532 285.394C84.8651 280.157 80.3192 274.854 77.3646 271.594C66.2755 281.794 62.216 297.838 81.6622 320.294C80.6014 325.824 84.0644 332.263 85.9361 333.166C86.7929 333.579 96.187 328.741 94.402 324.797Z" fill="#FFC1BF"/>
<path d="M103.533 278.672C103.361 278.671 103.196 278.606 103.069 278.49C102.942 278.375 102.862 278.217 102.844 278.046C102.826 277.875 102.871 277.703 102.971 277.564C103.071 277.424 103.219 277.326 103.387 277.289L111.986 275.432C112.157 275.416 112.328 275.462 112.466 275.564C112.605 275.665 112.702 275.813 112.738 275.981C112.775 276.149 112.748 276.325 112.663 276.474C112.579 276.624 112.442 276.737 112.28 276.792L103.683 278.649C103.634 278.662 103.584 278.67 103.533 278.672Z" fill="#00968E"/>
<path d="M132.154 246.027L124.074 261.837C123.832 262.308 123.739 262.84 123.806 263.365C123.874 263.889 124.099 264.381 124.451 264.775C126.408 266.954 131.029 270.494 139.071 267.957C139.505 267.816 139.891 267.555 140.184 267.206C140.477 266.856 140.666 266.431 140.729 265.979L142.833 251.617L132.154 246.027Z" fill="#FEBBBA"/>
<path d="M145.623 227.666C145.623 227.666 150.361 238.546 150.679 244.264C150.997 249.983 152.229 253.684 145.623 254.835C139.017 255.986 133.451 252.695 130.437 247.003C130.437 247.003 125.713 238.234 126.772 234.642C127.831 231.05 145.623 227.666 145.623 227.666Z" fill="url(#paint10_linear_187_6178)"/>
<path d="M132.692 242.911L133.069 242.741C133.183 242.691 133.285 242.619 133.369 242.528C133.453 242.437 133.518 242.33 133.56 242.214C133.601 242.097 133.618 241.973 133.61 241.849C133.601 241.726 133.568 241.605 133.511 241.495C132.58 239.695 130.764 235.571 133.11 234.608C136.134 233.369 148.111 230.926 150.695 226.676C153.177 222.596 150.977 217.326 147.671 215.82C147.565 215.77 147.445 215.762 147.334 215.798C147.223 215.835 147.13 215.912 147.074 216.014L146.799 216.536C146.757 216.615 146.692 216.68 146.613 216.722C146.535 216.764 146.445 216.782 146.356 216.772C146.267 216.763 146.183 216.728 146.114 216.671C146.045 216.613 145.995 216.537 145.971 216.451C145.947 216.368 145.9 216.294 145.835 216.237C145.77 216.18 145.69 216.144 145.604 216.132C145.519 216.119 145.432 216.132 145.354 216.168C145.275 216.204 145.209 216.262 145.163 216.335C144.368 217.607 142.224 219.667 136.493 220.726C128.343 222.231 122.954 225.529 122.82 231.161C122.819 231.241 122.797 231.32 122.755 231.388C122.713 231.457 122.654 231.513 122.583 231.551C122.512 231.589 122.432 231.607 122.352 231.604C122.272 231.6 122.194 231.575 122.126 231.531C121.525 231.164 120.561 230.993 119.274 232.074C117.035 233.956 117.951 238.838 122.857 242.853C122.913 242.896 122.957 242.952 122.987 243.015C123.017 243.079 123.032 243.148 123.03 243.218C123.028 243.288 123.009 243.357 122.976 243.418C122.942 243.48 122.895 243.533 122.837 243.573C121.948 244.152 120.627 245.529 124.058 247.367C127.611 249.266 130.264 249.111 131.288 248.941C131.348 248.931 131.405 248.909 131.456 248.876C131.507 248.843 131.551 248.8 131.585 248.75C131.619 248.699 131.642 248.642 131.653 248.583C131.664 248.523 131.663 248.462 131.65 248.402L130.558 243.452C130.544 243.386 130.544 243.318 130.56 243.253C130.575 243.187 130.605 243.126 130.647 243.074C130.689 243.021 130.742 242.979 130.803 242.95C130.863 242.921 130.93 242.906 130.997 242.906L132.692 242.911Z" fill="url(#paint11_linear_187_6178)"/>
<path d="M132.897 243.95C132.897 243.95 131.09 236.995 127.967 238.945C124.844 240.895 129.586 246.736 132.092 246.996L132.897 243.95Z" fill="url(#paint12_linear_187_6178)"/>
<path d="M332.022 366.045C340.825 357.242 340.825 342.969 332.022 334.166C323.219 325.363 308.946 325.363 300.143 334.166C291.34 342.969 291.34 357.242 300.143 366.045C308.946 374.848 323.219 374.848 332.022 366.045Z" fill="url(#paint13_linear_187_6178)"/>
<path d="M429.683 101.22C429.683 144.092 365.111 253.468 331.474 307.42C328.863 311.607 323.241 314.15 312.829 314.15C307.899 314.15 309.837 311.6 307.219 307.409C273.581 253.453 209.023 144.087 209.023 101.22C209.023 45.3186 258.415 0 319.353 0C380.292 0 429.683 45.3186 429.683 101.22Z" fill="#038B84"/>
<path d="M423.154 101.22C423.154 144.092 358.581 253.468 324.943 307.42C323.66 309.479 321.873 311.178 319.752 312.355C317.63 313.532 315.243 314.15 312.817 314.149C310.39 314.148 308.004 313.528 305.883 312.349C303.763 311.17 301.977 309.47 300.696 307.409C267.057 253.453 202.492 144.087 202.492 101.22C202.492 45.3186 251.889 0 312.822 0C373.755 0 423.154 45.3186 423.154 101.22Z" fill="#00B2A9"/>
<path d="M363.132 153.491C389.43 127.193 389.43 84.5567 363.132 58.2593C336.835 31.9619 294.198 31.962 267.901 58.2594C241.603 84.5567 241.603 127.193 267.901 153.491C294.198 179.788 336.835 179.788 363.132 153.491Z" fill="white"/>
<path d="M323.954 98.4916L317.091 99.7217C315.953 99.926 315.195 101.012 315.401 102.147C315.605 103.282 316.695 104.037 317.832 103.833L324.695 102.602C326.329 102.308 327.336 103.283 327.738 104.292C328.136 105.3 328.068 106.697 326.676 107.597L316.601 114.106C315.666 114.709 314.527 114.753 313.549 114.223C312.572 113.694 311.989 112.715 311.989 111.606V95.5839C311.989 92.9193 310.587 90.5695 308.24 89.2972C305.893 88.025 303.153 88.1306 300.911 89.5782L275.576 105.946C272.725 107.787 271.648 111.142 272.897 114.292C274.145 117.442 277.23 119.155 280.574 118.558L302.697 114.591C303.835 114.387 304.593 113.302 304.388 112.166C304.183 111.031 303.094 110.275 301.956 110.48L279.833 114.447C278.197 114.739 277.191 113.765 276.791 112.757C276.392 111.748 276.461 110.351 277.853 109.451L303.188 93.0829C304.12 92.4803 305.262 92.4361 306.239 92.9663C307.216 93.4957 307.8 94.4746 307.8 95.5839V111.606C307.8 114.27 309.201 116.62 311.548 117.892C312.638 118.483 313.813 118.777 314.983 118.777C316.333 118.777 317.676 118.387 318.877 117.611L328.953 111.102C331.803 109.261 332.88 105.907 331.631 102.756C330.382 99.6057 327.294 97.8937 323.954 98.4916ZM359.389 102.756C358.14 99.6064 355.054 97.8917 351.712 98.4916L344.849 99.7217C343.71 99.926 342.954 101.012 343.158 102.147C343.363 103.282 344.451 104.037 345.59 103.833L352.453 102.602C354.086 102.308 355.094 103.283 355.495 104.292C355.895 105.3 355.825 106.697 354.433 107.597L344.359 114.106C343.423 114.709 342.283 114.753 341.307 114.223C340.33 113.694 339.746 112.715 339.746 111.606V90.5122C339.746 89.3593 338.809 88.4246 337.652 88.4246C336.496 88.4246 335.559 89.3593 335.559 90.5122V111.606C335.559 114.27 336.959 116.62 339.307 117.892C340.397 118.483 341.572 118.777 342.743 118.777C344.092 118.777 345.436 118.387 346.636 117.611L356.711 111.102C359.561 109.261 360.637 105.907 359.389 102.756Z" fill="#00A94F"/>
<path d="M190.703 109.665C187.34 112.263 185.484 116.552 184.345 122.038C182.568 130.601 184.695 139.495 189.758 146.625C226.857 198.869 315.614 226.297 394.319 216.835C397.346 216.475 400.173 215.141 402.376 213.034C404.579 210.927 406.036 208.161 406.53 205.153L407.742 197.712C407.82 197.224 407.785 196.726 407.641 196.254C407.497 195.782 407.247 195.349 406.91 194.988C406.573 194.627 406.159 194.348 405.698 194.171C405.237 193.995 404.742 193.926 404.25 193.97C369.439 197.132 335.21 193.905 301.028 187.286C221.306 171.843 188.195 120.737 191.558 112.987C191.981 112.013 192.513 110.979 193.382 110.367C195.618 108.792 199.528 107.391 202.817 106.874C198.205 106.68 193.248 107.698 190.703 109.665Z" fill="url(#paint14_linear_187_6178)"/>
</g>
<defs>
<linearGradient id="paint0_linear_187_6178" x1="361.239" y1="4.30878" x2="275.334" y2="211.545" gradientUnits="userSpaceOnUse">
<stop stop-color="#E1473D"/>
<stop offset="1" stop-color="#E9605A"/>
</linearGradient>
<linearGradient id="paint1_linear_187_6178" x1="780.549" y1="-442.002" x2="199.722" y2="513.941" gradientUnits="userSpaceOnUse">
<stop stop-color="#FF928E"/>
<stop offset="1" stop-color="#FE7062"/>
</linearGradient>
<linearGradient id="paint2_linear_187_6178" x1="1.12173e+06" y1="-595007" x2="320812" y2="787152" gradientUnits="userSpaceOnUse">
<stop stop-color="#FF928E"/>
<stop offset="1" stop-color="#FE7062"/>
</linearGradient>
<linearGradient id="paint3_linear_187_6178" x1="213821" y1="-75861" x2="107333" y2="140552" gradientUnits="userSpaceOnUse">
<stop stop-color="#FF928E"/>
<stop offset="1" stop-color="#FE7062"/>
</linearGradient>
<linearGradient id="paint4_linear_187_6178" x1="214.753" y1="285.751" x2="115.634" y2="333.768" gradientUnits="userSpaceOnUse">
<stop stop-color="#FEBBBA"/>
<stop offset="1" stop-color="#FF928E"/>
</linearGradient>
<linearGradient id="paint5_linear_187_6178" x1="28794.8" y1="36734" x2="18913.4" y2="41487.3" gradientUnits="userSpaceOnUse">
<stop stop-color="#FEBBBA"/>
<stop offset="1" stop-color="#FF928E"/>
</linearGradient>
<linearGradient id="paint6_linear_187_6178" x1="7722.99" y1="104273" x2="9139.47" y2="104273" gradientUnits="userSpaceOnUse">
<stop stop-color="#4F52FF"/>
<stop offset="1" stop-color="#4042E2"/>
</linearGradient>
<linearGradient id="paint7_linear_187_6178" x1="6756.67" y1="38998.2" x2="7624.22" y2="38998.2" gradientUnits="userSpaceOnUse">
<stop stop-color="#FEBBBA"/>
<stop offset="1" stop-color="#FF928E"/>
</linearGradient>
<linearGradient id="paint8_linear_187_6178" x1="37365" y1="79844.7" x2="40548" y2="79844.7" gradientUnits="userSpaceOnUse">
<stop stop-color="#4F52FF"/>
<stop offset="1" stop-color="#4042E2"/>
</linearGradient>
<linearGradient id="paint9_linear_187_6178" x1="20459.8" y1="32690" x2="21506.5" y2="32690" gradientUnits="userSpaceOnUse">
<stop stop-color="#FEBBBA"/>
<stop offset="1" stop-color="#FF928E"/>
</linearGradient>
<linearGradient id="paint10_linear_187_6178" x1="31501.6" y1="50929" x2="27294.3" y2="53791.5" gradientUnits="userSpaceOnUse">
<stop stop-color="#FEBBBA"/>
<stop offset="1" stop-color="#FF928E"/>
</linearGradient>
<linearGradient id="paint11_linear_187_6178" x1="39674.7" y1="58553.9" x2="44596.1" y2="64964" gradientUnits="userSpaceOnUse">
<stop stop-color="#09005D"/>
<stop offset="1" stop-color="#1A0F91"/>
</linearGradient>
<linearGradient id="paint12_linear_187_6178" x1="7684.81" y1="15559.3" x2="6522.17" y2="16190.8" gradientUnits="userSpaceOnUse">
<stop stop-color="#FEBBBA"/>
<stop offset="1" stop-color="#FF928E"/>
</linearGradient>
<linearGradient id="paint13_linear_187_6178" x1="113163" y1="77799.8" x2="96661.8" y2="137847" gradientUnits="userSpaceOnUse">
<stop stop-color="#00B2A9"/>
<stop offset="1" stop-color="#4042E2"/>
</linearGradient>
<linearGradient id="paint14_linear_187_6178" x1="1.01103e+06" y1="-274112" x2="771905" y2="514375" gradientUnits="userSpaceOnUse">
<stop stop-color="#FF928E"/>
<stop offset="1" stop-color="#FE7062"/>
</linearGradient>
<clipPath id="clip0_187_6178">
<rect width="478.428" height="476" fill="white"/>
</clipPath>
</defs>
</svg>
