<svg width="657" height="483" viewBox="0 0 657 483" fill="none" xmlns="http://www.w3.org/2000/svg">
<g clip-path="url(#clip0_4_637)">
<path d="M15.3445 360L10.7515 354.611L87.0603 289.712H133.405L238.55 200.292L304.314 256.217H352.812L377.331 277.072L453.479 212.3H492.134L652.407 76.0217L657 81.4108L494.747 219.378H456.092L377.331 286.368L350.21 263.295H301.713L238.55 209.6L136.018 296.79H89.6734L15.3445 360Z" fill="url(#paint0_linear_4_637)" fill-opacity="0.1"/>
<path d="M26.3726 270.362H0V263.284H23.4372L63.0363 223.756L91.8262 252.494L160.618 183.838L181.776 204.958L251.512 135.336L293.298 177.058H340.955L414.49 103.645H477.918L524.803 56.8439H582.199L639.146 0L644.165 5.00989L585.135 63.9221H527.739L480.853 110.723H417.425L343.891 184.137H290.363L251.512 145.356L181.776 214.966L160.618 193.846L91.8262 262.502L63.0363 233.764L26.3726 270.362Z" fill="url(#paint1_linear_4_637)" fill-opacity="0.1"/>
<path d="M499.796 52.7009C507.437 41.9939 509.229 23.6105 503.746 11.6536C501.01 5.65153 496.978 2.40878 492.685 2.00786L488.193 1.60693L489.054 2.34982C485.917 3.19884 482.78 5.52182 480.045 9.42492C472.415 20.1319 470.611 38.5035 476.094 50.4722C477.485 53.967 479.967 56.9197 483.169 58.8916L482.497 59.6934L487.061 60.1062H487.12H487.297C491.565 60.3892 496.046 57.9247 499.796 52.7009Z" fill="#9FFFF8"/>
<path d="M502.146 32.2493C503.687 16.2179 497.431 2.50061 488.174 1.61088C478.917 0.721151 470.164 12.9959 468.623 29.0273C467.082 45.0587 473.337 58.776 482.594 59.6657C491.852 60.5554 500.605 48.2807 502.146 32.2493Z" fill="#00B2A9"/>
<path d="M506.729 139.288C506.729 126.14 497.496 110.151 486.117 103.571C480.41 100.281 475.245 99.9744 471.507 102.144L467.616 104.42L468.795 104.526C466.732 107.038 465.541 110.752 465.541 115.469C465.541 128.629 474.774 144.618 486.164 151.186C489.335 153.232 493.085 154.188 496.848 153.91L496.765 154.96L500.716 152.601L500.881 152.507C504.501 150.302 506.729 145.727 506.729 139.288Z" fill="#9FFFF8"/>
<path d="M496.744 154.937C504.798 150.287 504.799 135.211 496.746 121.263C488.693 107.316 475.637 99.7786 467.583 104.428C459.529 109.078 459.528 124.155 467.581 138.102C475.633 152.05 488.69 159.587 496.744 154.937Z" fill="#00B2A9"/>
<path d="M547.965 109.525C547.965 96.3776 538.744 80.3879 527.353 73.8199C521.646 70.5182 516.481 70.2116 512.755 72.3813L508.84 74.6689L510.019 74.775C507.967 77.2867 506.765 80.9893 506.765 85.7178C506.765 98.8657 515.998 114.855 527.389 121.435C531.303 123.687 534.959 124.548 538.072 124.159L537.989 125.209L541.94 122.85L542.093 122.756C545.737 120.563 547.965 115.999 547.965 109.525Z" fill="#9FFFF8"/>
<path d="M537.996 125.197C546.05 120.547 546.051 105.471 537.998 91.523C529.945 77.5754 516.889 70.0382 508.835 74.6881C500.781 79.3379 500.78 94.4142 508.833 108.362C516.885 122.309 529.942 129.847 537.996 125.197Z" fill="#00B2A9"/>
</g>
<g clip-path="url(#clip1_4_637)">
<path d="M272.71 383.07C272.71 383.07 248.16 491.36 242.55 524.34C237.78 552.41 233.98 581.65 236.26 601.91C239.09 627 274.61 757.04 273.13 764.4C271.65 771.76 310.29 765.58 310.29 765.58C310.29 765.58 283.29 620.52 288.68 593.58C292.68 573.58 327.68 440.76 333.06 447.58C338.44 454.4 345.06 572.94 349.06 592.58C353.06 612.22 365.24 767.75 365.24 767.75C365.24 767.75 392.52 771.75 399.8 765.61C399.8 765.61 403.12 632.84 400.59 595.95C399.59 581.89 417.06 427.37 394.7 365.16C382.87 332.26 272.71 383.07 272.71 383.07Z" fill="#2D3133"/>
<path d="M165.85 284.63C183.35 282.18 238.4 306.56 243.4 304.72C246.84 303.46 254.91 277.15 260.68 257.24C264.09 245.47 266.68 235.93 267.05 235.14C266.473 242.251 266.537 249.4 267.24 256.5C267.31 257.26 267.4 258.04 267.49 258.83C267.49 259.03 267.49 259.24 267.56 259.45C268.102 263.938 268.931 268.387 270.04 272.77C271.79 279.52 272.62 288.4 272.93 297.77C272.925 297.843 272.925 297.917 272.93 297.99C272.93 298.21 272.93 298.42 272.93 298.64C272.93 298.86 272.93 298.81 272.93 298.9C273.41 315.95 272.24 334.33 271.75 344.11C270.98 359.27 275.96 366.11 276.11 366.28L281.39 365.54L285.2 365L290.29 364.29L310.29 361.48L317.52 360.48L319.23 360.24L331.87 358.46L367.53 353.46L371.45 352.91L373.06 352.68L386.51 350.78L392.58 349.93C392.58 349.93 397.75 313.32 398.14 293.53C398.5 275.35 408.23 238.45 409.82 232.53V232.41C409.82 232.35 409.82 232.3 409.82 232.25L409.9 231.99C409.894 231.947 409.894 231.903 409.9 231.86C409.903 231.837 409.903 231.813 409.9 231.79C409.9 231.79 439.01 262.37 444.65 275.71C446.38 279.76 451.65 290.77 458.34 304.18C462.93 295.43 465.8 289.35 465.8 287.83C465.8 287.64 465.8 287.44 465.8 287.23C465.37 274.04 451.55 220.55 440.64 185.6C432.17 168.6 424.86 154.8 422.52 153.12C418.96 150.57 404.02 144.12 390.98 139L389.71 138.5C388.5 138.01 387.3 137.55 386.13 137.09L384.41 136.43L383.49 136.08L382.74 135.79C376.22 133.31 371.26 131.58 370.24 131.52C370.07 131.52 369.8 131.52 369.43 131.52C369.06 131.52 368.43 131.52 367.78 131.6C359.72 132.07 335.67 134.32 327.93 135.06L325.52 135.29L316.28 139.5L315.76 139.73C312.41 141.27 308.52 143.32 304.42 145.57C296.37 149.98 287.49 155.13 280.11 158.64C272.89 162.08 262.99 166.87 262.11 167.54L225.49 273.15L161.95 261.54L165.85 284.63Z" fill="#00B2A9"/>
<path d="M276.17 366.27C276.17 366.27 273.49 369.48 272.71 383.07C272.71 383.07 383.03 370.2 394.71 365.13C394.71 365.13 395.17 350.13 392.71 349.89C389.96 349.61 276.17 366.27 276.17 366.27Z" fill="#495055"/>
<path d="M370.25 127.68C369.9 144.99 336.38 154.47 336.38 154.47C336.38 154.47 322.38 136.89 325.71 135.2C327.02 134.54 327.56 131.92 327.71 128.98C327.813 126.359 327.749 123.733 327.52 121.12C327.42 119.9 327.33 119.12 327.33 119.12C327.33 119.12 332.12 114.12 338.21 108.05C348.86 97.52 363.5 84.05 363.52 89.4C363.512 89.7365 363.472 90.0714 363.4 90.4C360.83 102.48 370.25 127.68 370.25 127.68Z" fill="#EEA886"/>
<path d="M367.45 352.55C367.45 352.55 369.85 367.73 370.06 371.69L375.17 370.69C375.17 370.69 373.76 354.63 372.93 351.93L367.45 352.55Z" fill="#353A3D"/>
<path d="M285.37 364.5C285.37 364.5 283.44 378.3 283.37 383.5L288.77 382.8C288.77 382.8 289.88 365.57 290.49 363.8L285.37 364.5Z" fill="#353A3D"/>
<path d="M357.34 102.31C357.28 102.41 355.86 104.53 353.43 107.59C348.28 114.06 338.61 124.69 327.73 128.97C327.833 126.349 327.769 123.723 327.54 121.11C326.419 121.086 325.304 120.952 324.21 120.71C326.413 117.003 328.848 113.44 331.5 110.04L338.23 108.04L357.34 102.31Z" fill="#A77860"/>
<path d="M363.77 89.62C360.87 95.93 358.12 100.5 357.34 102.31C356.303 104.252 354.985 106.032 353.43 107.59C347.9 113.59 337.64 121.39 327.54 121.11C326.42 121.086 325.304 120.952 324.21 120.71C320.14 119.82 315.32 117.93 312.67 112.71C291.76 71.7701 306.9 38.28 306.9 38.28C306.9 38.28 364.09 22.11 373.03 39.28C379.3 51.44 370.58 74.78 363.77 89.62Z" fill="#EEA886"/>
<path d="M306.89 38.32C306.89 38.32 301.58 38.0301 300.27 27.9601C298.96 17.8901 301.59 15.25 301.59 15.25C301.59 15.25 325.2 5.37006 333.68 4.09006C342.16 2.81006 363 1.57001 367.89 7.16001C367.89 7.16001 379.76 4.39996 383 24.11C388.13 55.37 365.51 85.7299 365.51 85.7299C365.51 85.7299 365.7 65.3099 361.2 62.5999C356.7 59.8899 352.81 66.3301 352.81 66.3301L343.59 67.9799C343.59 67.9799 357.59 37.76 340.8 36.64C324.01 35.52 316.5 40.07 306.89 38.32Z" fill="#2D363A"/>
<path d="M353.06 58.1901C353.94 49.1901 370.21 45.7501 369.12 55.1901C368.03 64.6301 360.02 73.69 356.31 73.37C352.6 73.05 352.39 65.0501 353.06 58.1901Z" fill="#EEA886"/>
<path d="M466.02 287.78C466.02 287.59 466.02 287.39 466.02 287.18C465.71 274.02 459.23 221.33 448.32 186.39C443.03 169.39 441.81 157.56 439.76 156.1C436.21 153.55 404.61 144.2 391.2 138.95L389.93 138.45C388.72 137.96 387.52 137.5 386.35 137.04L384.63 136.38L383.71 136.03L382.96 135.74L382.89 135.82C377.612 141.846 372.671 148.158 368.09 154.73C354.25 174.42 336.21 206.29 338.98 235.73C339.86 245.18 340.98 258.73 342.79 273.97C342.95 275.28 343.12 276.59 343.28 277.91C343.73 281.42 344.22 285 344.75 288.62C345.07 290.793 345.404 292.98 345.75 295.18C349.41 318.01 360.91 333.57 371.11 352.18C371.2 352.33 371.28 352.49 371.37 352.65L371.52 352.92L372.17 354.11C372.52 354.76 372.86 355.42 373.17 356.11C373.37 356.49 373.57 356.87 373.76 357.25C375.76 361 377.63 364.83 379.48 368.68C380.68 371.16 381.857 373.647 383.01 376.14L383.36 376.91L387.65 386.91C388.53 388.97 389.49 391.19 390.45 393.43C391.11 394.97 391.78 396.51 392.45 398.01C393.02 399.32 393.56 400.59 394.08 401.8C395.24 404.5 396.25 406.87 396.95 408.52C397.48 409.75 397.83 410.59 397.95 410.88C401.46 419.66 403.95 426.44 405.17 429.6L405.88 431.6L441.17 412.12C447.87 408.77 444.37 390.71 441.85 383.65C439.46 377.263 436.667 371.034 433.49 365C432.13 362.34 430.71 359.65 429.26 356.94C440.26 337.64 451.48 317.74 458.57 304.22C463.15 295.33 466.02 289.25 466.02 287.78ZM409.91 232.55V232.43C409.91 232.37 409.91 232.32 409.91 232.27C409.91 232.22 409.91 232.09 409.99 232.01C409.985 231.967 409.985 231.923 409.99 231.88C409.99 231.88 427.16 258.71 425.86 282.02C425.66 285.65 422.05 294.82 416.8 306.57C414.89 310.86 412.8 315.48 410.5 320.3C410.41 320.11 410.33 319.9 410.25 319.7C406.96 311.7 404.83 304.17 404.83 297.6C404.94 297.5 406.39 246.36 409.91 232.5V232.55Z" fill="#3C4145"/>
<path d="M142.45 248.85L222.36 266.25L260.46 166.63C261.3 165.97 272.22 160.09 279.46 156.63C286.99 153.04 296.46 148.63 304.96 144.72L315.96 139.63L316.23 139.84C316.23 139.84 311.51 155.55 305.41 194.75C305.2 196.07 305 197.41 304.79 198.75C304.79 198.91 304.79 199.07 304.72 199.23C304.58 200.13 304.44 201.05 304.31 201.98C304.31 202.09 304.31 202.2 304.31 202.31C304.21 202.93 304.12 203.57 304.03 204.2C303.796 205.747 303.566 207.327 303.34 208.94C300.62 228.02 296.8 260.49 293.13 293.28C290.23 319.12 283.62 345.64 281.52 365.43C280.876 370.433 279.958 375.398 278.77 380.3C278.62 380.96 278.46 381.63 278.3 382.3C272.39 407.3 260.91 442.63 260.91 442.63L257.57 439.54L247.67 430.4C246.552 429.373 245.75 428.049 245.357 426.583C244.964 425.116 244.996 423.569 245.45 422.12C250.94 404.41 269.6 341.72 273.02 297.64C274.09 283.79 270.02 270.74 267.7 258.38C267.654 258.484 267.614 258.591 267.58 258.7C265.58 264.16 263.44 270.11 261.24 275.89C255.35 291.42 249.33 305.82 246.82 306.73C241.23 308.79 136.01 280.02 135.28 275.89L142.45 248.85Z" fill="#3C4145"/>
<path d="M373.64 178.66L357.34 187.86L364.34 194.97L345.79 295.14C342.01 271.66 340.29 249.36 339.01 235.69C334.74 190.17 380.16 138.84 383.01 135.69C385.19 136.52 387.55 137.43 390.01 138.4L373.64 178.66Z" fill="#51565C"/>
<path d="M316.45 139.42C316.45 139.42 310.35 159.32 303.25 208.99C300.53 228.08 296.71 260.56 293.04 293.34L289.24 199.52L297.01 191.11L290.1 182.48L304.88 144.74L315.88 139.65L316.45 139.42Z" fill="#51565C"/>
<path d="M383.77 135.89L370.25 127.68C370.25 127.68 369.87 135.1 336.38 154.47L345.89 181.25L383.77 135.89Z" fill="#008D86"/>
<path d="M327.45 131.42C327.45 131.42 327.98 139.42 336.36 154.42L317.8 178.61L316.45 139.37L327.45 131.42Z" fill="#008D86"/>
<path d="M336.45 154.47C336.45 154.47 340.05 168.85 338.75 172.88C338.75 172.88 330.84 175.76 325.16 172.16C327.912 165.676 331.728 159.697 336.45 154.47V154.47Z" fill="#323657"/>
<path d="M317.84 361.97C315.84 351.82 317.74 321.4 317.84 320.11L319.57 320.22C319.57 320.53 317.57 351.7 319.57 361.63L317.84 361.97Z" fill="#008D86"/>
<path d="M331.92 357.29C331.92 357.29 315.69 359.23 310.32 360.57L311.02 378.76L332.28 376.49L331.92 357.29Z" fill="#69737A"/>
<path d="M328.37 170.87C328.37 170.87 310.26 216.59 313.22 267.76C316.28 320.82 321.3 340.06 321.3 340.06L332.46 354.06L337.39 336.85C337.39 336.85 322.39 269.21 332.08 203.38C333.83 191.46 336.43 168.85 336.43 168.85L328.37 170.87Z" fill="#323657"/>
<path d="M382.77 386.78C382.77 386.78 378.89 394.55 375 395.85C371.11 397.15 365.45 403.46 365.45 403.46L392.81 417.86C392.81 417.86 400.09 403.62 400.41 394.55C400.73 385.48 382.77 386.78 382.77 386.78Z" fill="#EEA886"/>
<path d="M380.17 387.51L378.36 391.16C378.36 391.16 395.73 403.86 400.42 404.67L402.02 399.82L380.17 387.51Z" fill="#DECBC4"/>
<path d="M378.36 387.67C378.36 387.67 391.36 398.44 402.36 403.4L439.26 337.03L420.14 300.03C420.14 300.03 379.22 381.2 378.36 387.67Z" fill="#3C4145"/>
<path d="M268.14 235.28C267.54 247.55 267.63 258.46 267.63 258.46C267.63 258.52 267.63 258.85 267.63 259.4C267.63 259.19 267.58 258.98 267.56 258.78C265.56 264.24 263.42 270.19 261.22 275.97C260.738 269.736 260.575 263.481 260.73 257.23C261.61 222.81 272.44 204.75 272.44 204.75C269.9 210.78 268.71 223.64 268.14 235.28Z" fill="#2D3133"/>
<path d="M433.45 364.86L403.91 400.54L429.25 356.78C430.7 359.51 432.12 362.2 433.45 364.86Z" fill="#2D3133"/>
<path d="M218.96 320.13H150.76C148.488 320.131 146.281 319.369 144.495 317.965C142.709 316.561 141.446 314.598 140.91 312.39L111.29 190.07C110.93 188.581 110.912 187.029 111.239 185.532C111.565 184.035 112.227 182.632 113.174 181.427C114.122 180.223 115.33 179.249 116.708 178.579C118.086 177.909 119.598 177.561 121.13 177.56H189.33C191.603 177.559 193.811 178.323 195.597 179.729C197.384 181.135 198.646 183.1 199.18 185.31L228.8 307.62C229.16 309.109 229.177 310.661 228.851 312.158C228.525 313.655 227.863 315.059 226.916 316.263C225.968 317.467 224.76 318.441 223.382 319.111C222.004 319.781 220.492 320.129 218.96 320.13V320.13Z" fill="#D9C9C2"/>
<path d="M135.54 286.13C138.88 283.04 145.31 281.24 150.83 277.56C156.35 273.88 151.73 270.08 151.73 270.08C157.4 268.14 156.79 265.55 156.06 263.79C155.06 261.41 148.9 262.08 148.9 262.08C151.557 261.512 154.173 260.767 156.73 259.85C159.01 258.85 158.23 254.85 154.73 253.6C151.23 252.35 136.92 255.87 136.92 255.87C136.92 255.87 139.25 254.73 146.31 251.19C153.37 247.65 154.91 244.43 150.75 242.88C147.86 241.81 142.18 244.06 131.27 251.39C123.06 256.91 123.73 257.62 123.73 257.62C123.73 257.62 131.55 289.78 135.54 286.13Z" fill="#EEA886"/>
</g>
<defs>
<linearGradient id="paint0_linear_4_637" x1="10.7515" y1="218.011" x2="657" y2="218.011" gradientUnits="userSpaceOnUse">
<stop stop-color="#8FD6FF"/>
<stop offset="1" stop-color="#BFEBFE"/>
</linearGradient>
<linearGradient id="paint1_linear_4_637" x1="0" y1="31808.1" x2="360468" y2="31808.1" gradientUnits="userSpaceOnUse">
<stop stop-color="#8FD6FF"/>
<stop offset="1" stop-color="#BFEBFE"/>
</linearGradient>
<clipPath id="clip0_4_637">
<rect width="657" height="360" fill="white"/>
</clipPath>
<clipPath id="clip1_4_637">
<rect width="355.02" height="810.86" fill="white" transform="translate(111 3)"/>
</clipPath>
</defs>
</svg>
