<svg width="424" height="456" viewBox="0 0 424 456" fill="none" xmlns="http://www.w3.org/2000/svg">
<g clip-path="url(#clip0_175_5910)">
<path d="M13.1638 286.634L9.50684 282.343L70.2644 230.67H107.164L190.881 159.474L243.243 204.001H281.857L301.38 220.607L362.009 169.034H392.786L520.397 60.5289L524.054 64.8197L394.867 174.67H364.089L301.38 228.008L279.786 209.637H241.172L190.881 166.885L109.245 236.306H72.345L13.1638 286.634Z" fill="url(#paint0_linear_175_5910)" fill-opacity="0.1"/>
<path d="M21.9443 215.264H0.946289V209.628H19.6071L51.1361 178.156L74.0588 201.037L128.831 146.373L145.677 163.188L201.202 107.755L234.472 140.975H272.417L330.966 82.5228H381.467L418.798 45.2595H464.497L509.838 0L513.834 3.98891L466.834 50.8952H421.135L383.804 88.1585H333.303L274.754 146.611H232.135L201.202 115.733L145.677 171.157L128.831 154.341L74.0588 209.006L51.1361 186.125L21.9443 215.264Z" fill="url(#paint1_linear_175_5910)" fill-opacity="0.1"/>
<path d="M398.887 41.9607C404.97 33.4358 406.398 18.7988 402.032 9.27861C399.854 4.49975 396.643 1.91786 393.225 1.59864L389.648 1.27942L390.334 1.87091C387.836 2.5469 385.339 4.39648 383.161 7.50414C377.086 16.0291 375.65 30.6567 380.015 40.1863C381.123 42.9688 383.098 45.3197 385.649 46.8898L385.113 47.5282L388.747 47.8568H388.794H388.935C392.333 48.0822 395.901 46.1199 398.887 41.9607Z" fill="#9FFFF8"/>
<path d="M400.758 25.677C401.985 12.9127 397.004 1.99091 389.633 1.2825C382.263 0.574098 375.293 10.3473 374.067 23.1116C372.84 35.8759 377.82 46.7977 385.191 47.5061C392.561 48.2145 399.531 38.4412 400.758 25.677Z" fill="#00B2A9"/>
<path d="M404.407 110.902C404.407 100.434 397.056 87.7026 387.996 82.4637C383.451 79.8442 379.339 79.6001 376.363 81.3276L373.265 83.1396L374.204 83.2241C372.561 85.2239 371.612 88.1814 371.612 91.9369C371.612 102.415 378.964 115.146 388.033 120.375C390.557 122.004 393.544 122.765 396.539 122.544L396.474 123.38L399.619 121.502L399.75 121.427C402.633 119.671 404.407 116.028 404.407 110.902Z" fill="#9FFFF8"/>
<path d="M396.457 123.362C402.869 119.659 402.87 107.656 396.458 96.5505C390.047 85.4454 379.651 79.4442 373.238 83.1464C366.826 86.8487 366.825 98.8525 373.237 109.958C379.648 121.063 390.044 127.064 396.457 123.362Z" fill="#00B2A9"/>
<path d="M437.239 87.2048C437.239 76.7364 429.897 64.0053 420.828 58.7758C416.284 56.147 412.171 55.9029 409.205 57.6304L406.087 59.4518L407.026 59.5363C405.393 61.5361 404.435 64.4842 404.435 68.249C404.435 78.7175 411.786 91.4485 420.856 96.6875C423.973 98.4807 426.883 99.1661 429.362 98.8562L429.296 99.6918L432.442 97.8141L432.564 97.739C435.465 95.9927 437.239 92.3592 437.239 87.2048Z" fill="#9FFFF8"/>
<path d="M429.302 99.6823C435.714 95.98 435.715 83.9762 429.304 72.8711C422.892 61.7659 412.496 55.7647 406.084 59.467C399.671 63.1693 399.67 75.173 406.082 86.2782C412.493 97.3833 422.889 103.385 429.302 99.6823Z" fill="#00B2A9"/>
</g>
<g clip-path="url(#clip1_175_5910)">
<path d="M218.079 305.003C218.079 305.003 198.533 391.224 194.066 417.483C190.268 439.832 187.242 463.113 189.058 479.244C191.311 499.221 219.592 602.76 218.414 608.62C217.235 614.48 248.001 609.559 248.001 609.559C248.001 609.559 226.503 494.062 230.795 472.612C233.98 456.688 261.847 350.936 266.13 356.366C270.414 361.796 275.685 456.178 278.87 471.816C282.055 487.453 291.752 611.287 291.752 611.287C291.752 611.287 313.473 614.472 319.269 609.583C319.269 609.583 321.913 503.871 319.898 474.499C319.102 463.304 333.012 340.275 315.209 290.743C305.789 264.547 218.079 305.003 218.079 305.003Z" fill="#2D3133"/>
<path d="M132.997 226.624C146.931 224.673 190.762 244.085 194.743 242.62C197.482 241.617 203.907 220.668 208.501 204.816C211.217 195.445 213.279 187.849 213.573 187.22C213.114 192.882 213.164 198.574 213.725 204.227C213.78 204.832 213.852 205.453 213.924 206.082C213.924 206.241 213.924 206.408 213.979 206.576C214.411 210.149 215.071 213.692 215.954 217.181C217.347 222.556 218.008 229.626 218.255 237.086C218.251 237.145 218.251 237.203 218.255 237.261C218.255 237.437 218.255 237.604 218.255 237.779C218.255 237.954 218.255 237.914 218.255 237.986C218.637 251.561 217.706 266.196 217.316 273.982C216.702 286.053 220.668 291.499 220.787 291.634L224.991 291.045L228.024 290.615L232.077 290.05L248.001 287.812L253.758 287.016L255.119 286.825L265.183 285.408L293.576 281.427L296.697 280.989L297.979 280.806L308.688 279.293L313.521 278.616C313.521 278.616 317.637 249.467 317.948 233.71C318.235 219.235 325.982 189.855 327.248 185.142V185.046C327.248 184.998 327.248 184.959 327.248 184.919L327.311 184.712C327.307 184.677 327.307 184.643 327.311 184.608C327.313 184.59 327.313 184.571 327.311 184.553C327.311 184.553 350.489 208.901 354.979 219.522C356.357 222.747 360.553 231.513 365.88 242.19C369.534 235.223 371.819 230.382 371.819 229.172C371.819 229.021 371.819 228.861 371.819 228.694C371.477 218.192 360.473 175.603 351.787 147.776C345.043 134.24 339.223 123.253 337.359 121.915C334.525 119.885 322.63 114.749 312.247 110.673L311.236 110.275C310.273 109.884 309.317 109.518 308.386 109.152L307.016 108.626L306.284 108.348L305.686 108.117C300.495 106.142 296.546 104.765 295.734 104.717C295.598 104.717 295.383 104.717 295.089 104.717C294.794 104.717 294.293 104.717 293.775 104.781C287.358 105.155 268.209 106.946 262.046 107.536L260.127 107.719L252.77 111.071L252.357 111.254C249.689 112.48 246.592 114.112 243.327 115.904C236.918 119.415 229.848 123.515 223.972 126.31C218.223 129.049 210.341 132.863 209.64 133.396L180.483 217.484L129.892 208.24L132.997 226.624Z" fill="#00B2A9"/>
<path d="M220.834 291.626C220.834 291.626 218.701 294.182 218.08 305.003C218.08 305.003 305.917 294.755 315.217 290.719C315.217 290.719 315.583 278.776 313.624 278.584C311.435 278.362 220.834 291.626 220.834 291.626Z" fill="#495055"/>
<path d="M295.741 101.66C295.463 115.442 268.774 122.99 268.774 122.99C268.774 122.99 257.627 108.993 260.278 107.647C261.321 107.122 261.751 105.036 261.871 102.695C261.953 100.608 261.902 98.5173 261.719 96.4365C261.64 95.4652 261.568 94.8441 261.568 94.8441C261.568 94.8441 265.382 90.8631 270.231 86.0302C278.711 77.6461 290.367 66.9212 290.383 71.1809C290.377 71.4488 290.345 71.7155 290.287 71.9771C288.241 81.5953 295.741 101.66 295.741 101.66Z" fill="#EEA886"/>
<path d="M293.512 280.702C293.512 280.702 295.423 292.789 295.59 295.942L299.659 295.146C299.659 295.146 298.536 282.358 297.875 280.209L293.512 280.702Z" fill="#353A3D"/>
<path d="M228.16 290.217C228.16 290.217 226.623 301.205 226.567 305.345L230.867 304.788C230.867 304.788 231.751 291.069 232.236 289.66L228.16 290.217Z" fill="#353A3D"/>
<path d="M285.462 81.4598C285.415 81.5395 284.284 83.2274 282.349 85.6638C278.249 90.8153 270.549 99.2789 261.887 102.687C261.969 100.599 261.918 98.5092 261.735 96.4284C260.843 96.4094 259.955 96.3028 259.084 96.11C260.838 93.1588 262.777 90.3213 264.888 87.6145L270.247 86.0221L285.462 81.4598Z" fill="#A77860"/>
<path d="M290.582 71.356C288.273 76.3801 286.084 80.0188 285.462 81.4599C284.637 83.0065 283.588 84.423 282.349 85.6639C277.946 90.4411 269.777 96.6515 261.736 96.4285C260.843 96.4095 259.955 96.3029 259.084 96.1101C255.844 95.4015 252.006 93.8967 249.896 89.7405C233.247 57.1438 245.302 30.4788 245.302 30.4788C245.302 30.4788 290.837 17.6042 297.955 31.2751C302.947 40.9569 296.004 59.5403 290.582 71.356Z" fill="#EEA886"/>
<path d="M245.294 30.5106C245.294 30.5106 241.066 30.2797 240.023 22.2619C238.98 14.2442 241.074 12.1421 241.074 12.1421C241.074 12.1421 259.873 4.27566 266.624 3.25651C273.376 2.23737 289.969 1.25003 293.863 5.70082C293.863 5.70082 303.314 3.50326 305.893 19.1965C309.978 44.0859 291.968 68.2587 291.968 68.2587C291.968 68.2587 292.119 52.0001 288.536 49.8424C284.953 47.6847 281.856 52.8124 281.856 52.8124L274.515 54.126C274.515 54.126 285.662 30.0647 272.293 29.173C258.925 28.2812 252.946 31.904 245.294 30.5106Z" fill="#2D363A"/>
<path d="M282.055 46.3313C282.755 39.1655 295.71 36.4265 294.842 43.9427C293.974 51.4589 287.596 58.6724 284.642 58.4177C281.688 58.1629 281.521 51.7933 282.055 46.3313Z" fill="#EEA886"/>
<path d="M371.994 229.132C371.994 228.981 371.994 228.822 371.994 228.654C371.747 218.176 366.588 176.224 357.901 148.405C353.689 134.869 352.718 125.45 351.086 124.288C348.259 122.257 323.099 114.813 312.422 110.633L311.411 110.235C310.447 109.845 309.492 109.478 308.56 109.112L307.191 108.587L306.458 108.308L305.861 108.077L305.805 108.141C301.603 112.938 297.669 117.965 294.022 123.197C283.002 138.874 268.639 164.249 270.844 187.69C271.545 195.214 272.436 206.002 273.878 218.137C274.005 219.18 274.14 220.223 274.268 221.274C274.626 224.068 275.016 226.919 275.438 229.801C275.693 231.531 275.958 233.272 276.234 235.024C279.149 253.201 288.305 265.59 296.426 280.408C296.498 280.527 296.562 280.655 296.633 280.782L296.753 280.997L297.27 281.944C297.549 282.462 297.82 282.987 298.066 283.537C298.226 283.839 298.385 284.142 298.536 284.445C300.129 287.43 301.617 290.48 303.09 293.545C304.046 295.52 304.983 297.5 305.901 299.485L306.18 300.098L309.595 308.06C310.296 309.7 311.06 311.468 311.825 313.251C312.35 314.477 312.884 315.704 313.417 316.898C313.871 317.941 314.301 318.952 314.715 319.916C315.639 322.065 316.443 323.952 317 325.266C317.422 326.245 317.701 326.914 317.796 327.145C320.591 334.136 322.574 339.534 323.545 342.05L324.11 343.642L352.208 328.132C357.543 325.465 354.756 311.086 352.75 305.464C350.846 300.379 348.623 295.42 346.094 290.615C345.011 288.497 343.88 286.355 342.726 284.198C351.484 268.831 360.417 252.986 366.062 242.222C369.709 235.143 371.994 230.303 371.994 229.132ZM327.319 185.158V185.062C327.319 185.014 327.319 184.975 327.319 184.935C327.319 184.895 327.319 184.791 327.383 184.728C327.378 184.693 327.378 184.659 327.383 184.624C327.383 184.624 341.054 205.986 340.018 224.546C339.859 227.436 336.985 234.737 332.805 244.093C331.284 247.509 329.62 251.187 327.789 255.025C327.717 254.874 327.653 254.706 327.59 254.547C324.97 248.177 323.274 242.182 323.274 236.951C323.362 236.871 324.516 196.153 327.319 185.118V185.158Z" fill="#3C4145"/>
<path d="M114.366 198.136L177.991 211.99L208.326 132.672C208.995 132.146 217.69 127.465 223.454 124.71C229.45 121.851 236.99 118.34 243.757 115.227L252.516 111.174L252.731 111.341C252.731 111.341 248.973 123.85 244.116 155.061C243.948 156.112 243.789 157.179 243.622 158.246C243.622 158.373 243.622 158.501 243.566 158.628C243.455 159.345 243.343 160.077 243.24 160.818C243.24 160.905 243.24 160.993 243.24 161.08C243.16 161.574 243.089 162.084 243.017 162.585C242.831 163.817 242.648 165.075 242.468 166.359C240.302 181.551 237.26 207.404 234.338 233.511C232.029 254.085 226.766 275.201 225.094 290.957C224.582 294.941 223.851 298.894 222.905 302.797C222.785 303.323 222.658 303.856 222.531 304.389C217.825 324.295 208.684 352.425 208.684 352.425L206.025 349.964L198.143 342.687C197.253 341.869 196.614 340.815 196.301 339.647C195.988 338.48 196.014 337.248 196.375 336.094C200.746 321.994 215.604 272.079 218.327 236.983C219.178 225.955 215.938 215.565 214.091 205.724C214.054 205.807 214.022 205.892 213.995 205.978C212.403 210.326 210.699 215.063 208.947 219.665C204.258 232.03 199.464 243.496 197.466 244.22C193.015 245.86 109.238 222.954 108.657 219.665L114.366 198.136Z" fill="#3C4145"/>
<path d="M298.44 142.25L285.462 149.575L291.036 155.236L276.266 234.992C273.256 216.297 271.887 198.542 270.868 187.658C267.468 151.415 303.632 110.545 305.901 108.037C307.637 108.698 309.516 109.423 311.474 110.195L298.44 142.25Z" fill="#51565C"/>
<path d="M252.905 111.007C252.905 111.007 248.049 126.852 242.396 166.399C240.23 181.599 237.188 207.459 234.266 233.559L231.241 158.859L237.427 152.163L231.925 145.292L243.693 115.243L252.452 111.19L252.905 111.007Z" fill="#51565C"/>
<path d="M306.506 108.196L295.741 101.66C295.741 101.66 295.439 107.567 268.774 122.99L276.346 144.312L306.506 108.196Z" fill="#008D86"/>
<path d="M261.664 104.637C261.664 104.637 262.086 111.007 268.758 122.95L253.981 142.21L252.906 110.967L261.664 104.637Z" fill="#008D86"/>
<path d="M268.83 122.99C268.83 122.99 271.696 134.439 270.661 137.648C270.661 137.648 264.363 139.941 259.841 137.075C262.032 131.912 265.07 127.152 268.83 122.99Z" fill="#323657"/>
<path d="M254.012 288.203C252.42 280.121 253.933 255.901 254.012 254.873L255.39 254.961C255.39 255.208 253.797 280.026 255.39 287.932L254.012 288.203Z" fill="#008D86"/>
<path d="M265.223 284.476C265.223 284.476 252.301 286.021 248.025 287.088L248.582 301.571L265.51 299.764L265.223 284.476Z" fill="#69737A"/>
<path d="M262.397 136.048C262.397 136.048 247.977 172.45 250.334 213.192C252.77 255.439 256.767 270.758 256.767 270.758L265.653 281.905L269.578 268.202C269.578 268.202 257.635 214.347 265.351 161.932C266.744 152.442 268.814 134.439 268.814 134.439L262.397 136.048Z" fill="#323657"/>
<path d="M305.71 307.956C305.71 307.956 302.621 314.143 299.524 315.178C296.426 316.213 291.92 321.237 291.92 321.237L313.704 332.703C313.704 332.703 319.5 321.365 319.755 314.143C320.01 306.921 305.71 307.956 305.71 307.956Z" fill="#EEA886"/>
<path d="M303.64 308.538L302.199 311.444C302.199 311.444 316.029 321.556 319.763 322.201L321.037 318.339L303.64 308.538Z" fill="#DECBC4"/>
<path d="M302.199 308.665C302.199 308.665 312.549 317.24 321.308 321.189L350.688 268.345L335.464 238.886C335.464 238.886 302.883 303.514 302.199 308.665Z" fill="#3C4145"/>
<path d="M214.441 187.331C213.963 197.101 214.035 205.787 214.035 205.787C214.035 205.835 214.035 206.098 214.035 206.536C214.035 206.369 213.995 206.201 213.979 206.042C212.387 210.389 210.683 215.127 208.931 219.729C208.548 214.765 208.418 209.785 208.541 204.808C209.242 177.403 217.865 163.023 217.865 163.023C215.842 167.824 214.895 178.064 214.441 187.331Z" fill="#2D3133"/>
<path d="M346.062 290.504L322.542 318.912L342.718 284.07C343.872 286.244 345.003 288.386 346.062 290.504Z" fill="#2D3133"/>
<path d="M175.284 254.889H120.983C119.174 254.89 117.417 254.283 115.994 253.166C114.572 252.048 113.567 250.485 113.14 248.727L89.5564 151.335C89.2697 150.149 89.2558 148.914 89.5157 147.722C89.7756 146.53 90.3025 145.412 91.0567 144.453C91.8109 143.495 92.7728 142.719 93.87 142.186C94.9672 141.653 96.171 141.375 97.391 141.374H151.692C153.502 141.374 155.26 141.982 156.682 143.101C158.105 144.22 159.11 145.786 159.535 147.545L183.118 244.929C183.405 246.115 183.419 247.35 183.159 248.542C182.899 249.734 182.372 250.851 181.618 251.81C180.864 252.769 179.902 253.544 178.805 254.078C177.708 254.611 176.504 254.889 175.284 254.889Z" fill="#D9C9C2"/>
<path d="M108.864 227.818C111.523 225.358 116.643 223.925 121.038 220.995C125.433 218.065 121.754 215.039 121.754 215.039C126.269 213.495 125.783 211.433 125.202 210.031C124.406 208.136 119.501 208.67 119.501 208.67C121.617 208.218 123.699 207.624 125.735 206.894C127.551 206.098 126.93 202.913 124.143 201.918C121.356 200.923 109.963 203.725 109.963 203.725C109.963 203.725 111.818 202.818 117.439 199.999C123.06 197.18 124.286 194.617 120.974 193.383C118.673 192.531 114.151 194.322 105.464 200.158C98.9272 204.553 99.4607 205.119 99.4607 205.119C99.4607 205.119 105.687 230.725 108.864 227.818Z" fill="#EEA886"/>
</g>
<defs>
<linearGradient id="paint0_linear_175_5910" x1="9.50684" y1="173.581" x2="524.054" y2="173.581" gradientUnits="userSpaceOnUse">
<stop stop-color="#8FD6FF"/>
<stop offset="1" stop-color="#BFEBFE"/>
</linearGradient>
<linearGradient id="paint1_linear_175_5910" x1="0.946289" y1="25325.8" x2="287008" y2="25325.8" gradientUnits="userSpaceOnUse">
<stop stop-color="#8FD6FF"/>
<stop offset="1" stop-color="#BFEBFE"/>
</linearGradient>
<clipPath id="clip0_175_5910">
<rect width="523.107" height="286.634" fill="white" transform="translate(0.946289)"/>
</clipPath>
<clipPath id="clip1_175_5910">
<rect width="282.669" height="645.611" fill="white" transform="translate(89.3252 2.38867)"/>
</clipPath>
</defs>
</svg>
