<svg width="652" height="506" viewBox="0 0 652 506" fill="none" xmlns="http://www.w3.org/2000/svg">
<g clip-path="url(#clip0_64_5037)">
<path d="M246.28 204.094C246.28 204.094 241.092 190.445 235.024 191.697C228.957 192.948 222.342 197.599 222.342 197.599L212.613 210.758C212.613 210.758 239.927 221.516 249.53 215.349C249.53 215.349 277.43 220.169 312.659 214.389C307.558 203.624 304.519 192.842 302.728 184.477C284.905 194.577 265.685 202.121 246.28 204.094Z" fill="url(#paint0_linear_64_5037)"/>
<path d="M394.06 105.091C394.06 105.091 354.117 155.408 302.75 184.477C304.534 192.842 307.573 203.624 312.681 214.389C339.326 210.016 370.166 199.582 396.311 176.396L394.06 105.091Z" fill="url(#paint1_linear_64_5037)"/>
<path d="M443.869 328.07C436.06 290.968 428.247 269.477 402.092 199.158C393.863 177.028 386.388 154.634 389.999 131.296L394.058 105.088C394.058 105.088 444.885 87.8736 501.231 104.366C501.231 104.366 578.101 137.758 525.887 302.683C502.353 329.014 474.811 336.518 443.869 328.07Z" fill="url(#paint2_linear_64_5037)"/>
<path d="M402.711 71.6429L415.893 103.307C416.302 104.29 416.954 105.154 417.788 105.817C418.621 106.481 419.609 106.922 420.66 107.1C428.257 108.401 446.636 110.437 458.709 102.502C459.049 102.276 459.34 101.985 459.565 101.645C459.791 101.305 459.946 100.923 460.022 100.522C460.099 100.121 460.094 99.7095 460.009 99.3105C459.924 98.9115 459.76 98.5335 459.527 98.1987L435.179 63.2379L402.711 71.6429Z" fill="url(#paint3_linear_64_5037)"/>
<path d="M416.342 23.1991C415.789 23.7188 392.98 68.508 392.98 68.508L418.831 80.9881L446.754 41.747C446.754 41.747 425.607 14.4729 416.342 23.1991Z" fill="url(#paint4_linear_64_5037)"/>
<path d="M435.007 46.4577L422.113 67.9486C421.918 68.2733 421.68 68.5696 421.405 68.8291C419.872 70.2559 414.618 74.4104 410.56 68.7563C407.1 63.9331 403.853 59.5502 400.374 57.7427C399.889 57.4948 399.36 57.3455 398.817 57.3034C398.274 57.2613 397.728 57.3272 397.211 57.4975C396.694 57.6677 396.216 57.9389 395.804 58.2952C395.392 58.6515 395.055 59.086 394.812 59.5734C392.687 63.7842 388.572 72.3646 385.987 80.5048C385.68 81.4904 385.755 82.5556 386.198 83.4881C386.641 84.4207 387.419 85.1521 388.377 85.5365C393.611 87.6585 403.956 91.4952 413.135 92.7598C413.874 92.8631 414.627 92.7636 415.314 92.4721C416.001 92.1805 416.596 91.7079 417.035 91.1046C420.984 85.6955 432.117 70.5803 435.904 66.7899C439.433 63.2743 445.948 64.5985 448.884 65.4426C449.433 65.6019 450.009 65.6455 450.576 65.5709C451.143 65.4962 451.688 65.3049 452.178 65.009C455.157 63.2148 460.354 58.7491 455.597 51.1849C455.039 50.2681 454.861 49.1699 455.099 48.1234C455.338 47.077 455.975 46.1648 456.875 45.5805C460.186 43.3923 463.807 39.2908 460.371 32.6369C456.892 25.907 450.675 25.3012 446.444 25.8209C445.526 25.9439 444.592 25.767 443.782 25.3167C442.972 24.8664 442.329 24.1667 441.949 23.3216C441.771 22.8813 441.482 22.495 441.109 22.2011C440.736 21.9073 440.293 21.7161 439.823 21.6465C439.3 21.5546 438.8 21.3595 438.353 21.0725C437.906 20.7855 437.52 20.4124 437.218 19.9749C436.917 19.5374 436.705 19.0443 436.596 18.5243C436.487 18.0042 436.482 17.4677 436.583 16.9458C437.331 13.1356 436.768 8.18988 430.687 4.84642C419.534 -1.28769 409.762 8.70631 407.279 17.1411C404.796 25.5759 417.263 31.5346 425.109 32.531C430.872 33.2626 434.047 39.5523 435.301 42.8395C435.531 43.4252 435.624 44.0556 435.573 44.6827C435.522 45.3097 435.328 45.9169 435.007 46.4577Z" fill="url(#paint5_linear_64_5037)"/>
<path d="M430.488 73.2187C430.488 73.2187 436.037 60.1659 442.386 60.6989C448.735 61.2318 453.73 67.558 445.862 74.6653C436.076 83.5106 430.488 73.2187 430.488 73.2187Z" fill="url(#paint6_linear_64_5037)"/>
<path d="M631.008 599.586C624.844 605.055 604.793 605.777 604.793 605.777C532.567 432.423 502.443 384.704 502.443 384.704C512.874 450.133 504.691 618.085 504.691 618.085C492.773 623.342 477.407 618.085 477.407 618.085C476.44 510.965 461.358 395.863 441.906 322.214C490.724 321.115 517.254 310.473 525.731 303.769C566.432 369.364 631.008 599.586 631.008 599.586Z" fill="url(#paint7_linear_64_5037)"/>
<path d="M429.617 370.655L438.601 426.524C439.368 431.221 441.925 435.439 445.734 438.291C449.544 441.144 454.31 442.41 459.033 441.824L593.48 425.425C596.655 425.045 599.586 423.533 601.734 421.165C603.883 418.798 605.105 415.734 605.176 412.538C605.464 398.101 604.898 372.409 598.84 349.002L429.617 370.655Z" fill="#04A79F"/>
<path d="M462.796 438.11C462.703 438.11 462.614 438.077 462.544 438.016C462.474 437.955 462.428 437.871 462.416 437.779C462.403 437.678 462.431 437.577 462.493 437.496C462.555 437.416 462.646 437.363 462.747 437.349L465.789 436.978C465.839 436.971 465.89 436.973 465.938 436.986C465.987 436.999 466.033 437.021 466.073 437.052C466.113 437.083 466.146 437.122 466.171 437.166C466.195 437.21 466.211 437.259 466.216 437.309C466.222 437.359 466.219 437.409 466.206 437.458C466.193 437.506 466.17 437.552 466.139 437.591C466.108 437.631 466.07 437.664 466.026 437.689C465.983 437.714 465.935 437.73 465.885 437.736L462.839 438.107L462.796 438.11ZM455.686 437.935C455.658 437.938 455.63 437.938 455.603 437.935C454.584 437.704 453.587 437.383 452.623 436.978C452.529 436.938 452.455 436.863 452.417 436.769C452.378 436.674 452.379 436.569 452.418 436.475C452.458 436.381 452.533 436.306 452.627 436.268C452.722 436.229 452.827 436.23 452.921 436.27C453.843 436.658 454.796 436.965 455.772 437.186C455.863 437.208 455.944 437.262 455.998 437.339C456.053 437.416 456.077 437.51 456.066 437.604C456.056 437.697 456.011 437.784 455.941 437.847C455.871 437.91 455.78 437.944 455.686 437.945V437.935ZM472.942 436.872C472.85 436.872 472.76 436.839 472.69 436.778C472.62 436.717 472.575 436.633 472.562 436.541C472.549 436.44 472.577 436.339 472.639 436.258C472.701 436.178 472.792 436.125 472.893 436.111L475.938 435.743C476.039 435.731 476.14 435.759 476.22 435.821C476.3 435.884 476.351 435.975 476.364 436.076C476.376 436.176 476.348 436.278 476.285 436.357C476.223 436.437 476.132 436.489 476.031 436.501L472.985 436.872H472.942ZM483.089 435.637C482.992 435.636 482.898 435.599 482.828 435.532C482.757 435.465 482.715 435.374 482.709 435.277C482.703 435.18 482.734 435.084 482.796 435.009C482.858 434.934 482.946 434.885 483.042 434.873L486.085 434.502C486.135 434.494 486.185 434.497 486.234 434.51C486.283 434.523 486.329 434.545 486.369 434.576C486.409 434.607 486.442 434.646 486.466 434.69C486.491 434.734 486.506 434.783 486.512 434.833C486.518 434.883 486.515 434.933 486.502 434.982C486.488 435.03 486.466 435.076 486.435 435.115C486.404 435.155 486.366 435.188 486.322 435.213C486.279 435.238 486.23 435.254 486.181 435.26L483.135 435.634L483.089 435.637ZM493.235 434.399C493.138 434.398 493.045 434.36 492.974 434.294C492.904 434.227 492.861 434.135 492.855 434.038C492.85 433.941 492.881 433.846 492.943 433.771C493.004 433.696 493.092 433.647 493.189 433.634L496.231 433.264C496.281 433.256 496.332 433.258 496.381 433.271C496.43 433.283 496.476 433.306 496.516 433.337C496.556 433.368 496.589 433.407 496.614 433.451C496.638 433.495 496.653 433.544 496.658 433.595C496.67 433.695 496.642 433.796 496.58 433.876C496.518 433.956 496.427 434.009 496.327 434.022L493.281 434.393L493.235 434.399ZM503.381 433.161C503.284 433.16 503.191 433.122 503.12 433.055C503.05 432.988 503.008 432.897 503.002 432.8C502.996 432.703 503.027 432.608 503.089 432.533C503.151 432.458 503.239 432.409 503.335 432.396L506.377 432.026C506.427 432.019 506.478 432.022 506.526 432.035C506.575 432.048 506.621 432.07 506.66 432.101C506.7 432.132 506.733 432.17 506.758 432.214C506.783 432.258 506.798 432.307 506.804 432.357C506.816 432.457 506.788 432.558 506.726 432.638C506.664 432.718 506.573 432.771 506.473 432.784L503.428 433.154L503.381 433.161ZM446.916 432.972C446.813 432.972 446.714 432.93 446.642 432.857C445.919 432.102 445.263 431.285 444.682 430.417C444.634 430.333 444.62 430.234 444.642 430.139C444.665 430.045 444.722 429.963 444.802 429.909C444.882 429.855 444.98 429.833 445.076 429.848C445.171 429.863 445.257 429.914 445.317 429.99C445.872 430.822 446.5 431.603 447.194 432.324C447.266 432.396 447.307 432.493 447.307 432.595C447.307 432.697 447.266 432.794 447.194 432.866C447.119 432.936 447.019 432.974 446.916 432.972ZM513.527 431.923C513.43 431.922 513.337 431.884 513.267 431.817C513.196 431.75 513.154 431.659 513.148 431.562C513.142 431.465 513.173 431.37 513.235 431.295C513.297 431.22 513.385 431.171 513.481 431.158L516.523 430.788C516.573 430.78 516.624 430.783 516.673 430.796C516.722 430.808 516.768 430.831 516.808 430.862C516.847 430.893 516.881 430.932 516.905 430.976C516.93 431.02 516.945 431.068 516.95 431.119C516.963 431.219 516.935 431.32 516.873 431.4C516.811 431.48 516.72 431.532 516.619 431.546L513.574 431.916L513.527 431.923ZM523.674 430.685C523.577 430.684 523.483 430.646 523.413 430.579C523.343 430.512 523.3 430.421 523.294 430.324C523.288 430.227 523.32 430.132 523.381 430.057C523.443 429.982 523.531 429.933 523.627 429.92L526.67 429.549C526.768 429.543 526.865 429.574 526.941 429.636C527.017 429.699 527.066 429.788 527.078 429.886C527.09 429.984 527.064 430.082 527.005 430.161C526.946 430.241 526.859 430.294 526.762 430.311L523.72 430.682L523.674 430.685ZM533.82 429.447C533.77 429.45 533.72 429.443 533.673 429.427C533.625 429.41 533.582 429.385 533.544 429.352C533.507 429.319 533.476 429.278 533.454 429.233C533.432 429.188 533.419 429.139 533.416 429.089C533.413 429.039 533.42 428.989 533.436 428.942C533.453 428.895 533.478 428.851 533.511 428.813C533.545 428.776 533.585 428.745 533.63 428.723C533.675 428.701 533.724 428.688 533.774 428.685L536.816 428.311C536.915 428.303 537.013 428.333 537.09 428.395C537.168 428.458 537.218 428.547 537.23 428.646C537.242 428.744 537.216 428.844 537.157 428.923C537.098 429.003 537.01 429.057 536.912 429.073L533.866 429.444L533.82 429.447ZM543.966 428.209C543.865 428.215 543.766 428.181 543.69 428.114C543.615 428.047 543.569 427.952 543.562 427.851C543.556 427.75 543.591 427.651 543.658 427.575C543.725 427.5 543.819 427.454 543.92 427.447L546.962 427.077C547.012 427.069 547.063 427.072 547.112 427.085C547.161 427.098 547.206 427.12 547.246 427.151C547.286 427.182 547.319 427.221 547.344 427.265C547.369 427.309 547.384 427.357 547.389 427.408C547.396 427.458 547.392 427.508 547.379 427.557C547.366 427.605 547.343 427.65 547.313 427.69C547.282 427.73 547.244 427.763 547.2 427.788C547.156 427.813 547.108 427.829 547.058 427.835L544.013 428.205L543.966 428.209ZM554.113 426.974C554.015 426.973 553.922 426.935 553.852 426.868C553.781 426.801 553.739 426.71 553.733 426.613C553.727 426.516 553.758 426.421 553.82 426.346C553.882 426.271 553.97 426.222 554.066 426.209L557.108 425.839C557.158 425.831 557.21 425.833 557.259 425.846C557.308 425.858 557.354 425.881 557.394 425.912C557.434 425.943 557.467 425.982 557.491 426.026C557.516 426.07 557.531 426.119 557.535 426.17C557.542 426.219 557.539 426.27 557.525 426.318C557.512 426.367 557.49 426.412 557.459 426.452C557.428 426.492 557.39 426.525 557.346 426.55C557.302 426.575 557.254 426.59 557.204 426.597L554.159 426.971L554.113 426.974ZM564.259 425.736C564.162 425.735 564.069 425.697 563.998 425.63C563.928 425.563 563.885 425.472 563.879 425.375C563.874 425.278 563.905 425.183 563.966 425.108C564.028 425.033 564.116 424.984 564.213 424.971L567.255 424.601C567.355 424.588 567.457 424.615 567.537 424.678C567.617 424.74 567.669 424.831 567.682 424.932C567.695 425.032 567.667 425.134 567.605 425.214C567.543 425.294 567.451 425.346 567.351 425.359L564.305 425.733L564.259 425.736ZM574.405 424.498C574.308 424.497 574.215 424.459 574.144 424.392C574.074 424.325 574.031 424.234 574.026 424.137C574.02 424.04 574.051 423.945 574.113 423.87C574.174 423.795 574.262 423.746 574.359 423.733L577.404 423.362C577.454 423.356 577.504 423.359 577.553 423.373C577.601 423.386 577.646 423.408 577.685 423.439C577.725 423.47 577.758 423.508 577.782 423.552C577.807 423.596 577.822 423.644 577.828 423.693C577.84 423.794 577.812 423.895 577.75 423.975C577.688 424.055 577.597 424.107 577.497 424.12L574.455 424.491L574.405 424.498ZM442.345 423.985C442.253 423.983 442.164 423.949 442.095 423.889C442.026 423.828 441.981 423.745 441.967 423.654L441.477 420.621C441.461 420.521 441.485 420.419 441.545 420.337C441.604 420.254 441.693 420.199 441.794 420.183C441.894 420.167 441.996 420.191 442.078 420.25C442.161 420.309 442.216 420.399 442.232 420.499L442.722 423.521C442.739 423.621 442.716 423.724 442.658 423.807C442.6 423.89 442.511 423.947 442.411 423.965L442.345 423.985ZM584.551 423.247C584.454 423.246 584.361 423.208 584.291 423.141C584.22 423.074 584.178 422.983 584.172 422.886C584.166 422.789 584.197 422.693 584.259 422.618C584.321 422.543 584.409 422.495 584.505 422.482L587.547 422.111C587.597 422.104 587.648 422.106 587.697 422.119C587.746 422.132 587.792 422.155 587.831 422.185C587.871 422.216 587.905 422.255 587.929 422.299C587.954 422.343 587.969 422.392 587.974 422.442C587.987 422.543 587.959 422.644 587.897 422.724C587.835 422.804 587.744 422.856 587.643 422.869L584.598 423.24L584.551 423.247ZM594.446 421.042C594.362 421.041 594.281 421.012 594.215 420.96C594.149 420.909 594.102 420.837 594.081 420.756C594.059 420.675 594.065 420.589 594.097 420.512C594.129 420.434 594.185 420.369 594.257 420.327C595.119 419.836 595.917 419.241 596.634 418.556C596.671 418.521 596.714 418.494 596.761 418.476C596.808 418.457 596.858 418.449 596.908 418.45C596.959 418.451 597.008 418.462 597.055 418.483C597.101 418.503 597.142 418.532 597.177 418.569C597.212 418.605 597.239 418.649 597.257 418.696C597.275 418.743 597.284 418.793 597.283 418.843C597.282 418.894 597.271 418.943 597.25 418.989C597.23 419.035 597.2 419.077 597.164 419.112C596.4 419.839 595.551 420.47 594.635 420.992C594.578 421.029 594.513 421.051 594.446 421.055V421.042ZM440.719 413.895C440.627 413.894 440.538 413.86 440.469 413.799C440.4 413.739 440.355 413.655 440.342 413.564L439.855 410.538C439.847 410.487 439.849 410.435 439.861 410.385C439.873 410.335 439.896 410.288 439.927 410.247C439.958 410.206 439.997 410.171 440.041 410.146C440.086 410.12 440.135 410.104 440.186 410.098C440.237 410.088 440.29 410.09 440.34 410.101C440.39 410.113 440.438 410.136 440.479 410.167C440.521 410.198 440.555 410.237 440.58 410.282C440.606 410.327 440.622 410.377 440.627 410.429L441.113 413.454C441.122 413.505 441.12 413.557 441.107 413.607C441.095 413.657 441.073 413.704 441.042 413.746C441.011 413.787 440.972 413.821 440.927 413.847C440.883 413.872 440.833 413.889 440.782 413.895H440.719ZM600.448 413.117C600.417 413.12 600.386 413.12 600.355 413.117C600.306 413.105 600.26 413.083 600.22 413.053C600.18 413.024 600.145 412.986 600.119 412.943C600.094 412.9 600.077 412.852 600.069 412.802C600.062 412.753 600.065 412.702 600.077 412.653C600.292 411.777 600.409 410.88 600.428 409.979V409.704C600.43 409.603 600.471 409.507 600.542 409.435C600.614 409.364 600.711 409.324 600.812 409.323C600.914 409.325 601.011 409.367 601.083 409.44C601.154 409.513 601.193 409.612 601.193 409.714V409.995C601.173 410.954 601.047 411.908 600.818 412.839C600.799 412.922 600.752 412.997 600.684 413.049C600.617 413.102 600.533 413.131 600.448 413.13V413.117ZM439.097 403.801C439.005 403.802 438.915 403.768 438.845 403.707C438.775 403.646 438.729 403.562 438.717 403.47L438.223 400.481C438.207 400.381 438.231 400.279 438.291 400.196C438.35 400.114 438.439 400.059 438.539 400.043C438.64 400.026 438.742 400.051 438.824 400.11C438.906 400.169 438.962 400.259 438.978 400.359L439.465 403.388C439.472 403.438 439.47 403.49 439.457 403.54C439.444 403.589 439.422 403.636 439.391 403.677C439.36 403.718 439.322 403.752 439.278 403.778C439.233 403.804 439.184 403.821 439.134 403.828L439.097 403.801ZM600.862 402.924C600.811 402.925 600.761 402.915 600.715 402.896C600.668 402.877 600.626 402.849 600.59 402.814C600.555 402.778 600.526 402.736 600.507 402.69C600.488 402.644 600.477 402.594 600.478 402.544C600.478 401.55 600.465 400.53 600.441 399.481C600.44 399.431 600.449 399.381 600.468 399.334C600.486 399.287 600.514 399.244 600.549 399.208C600.584 399.172 600.626 399.143 600.672 399.123C600.718 399.103 600.768 399.092 600.818 399.091C600.869 399.088 600.92 399.096 600.968 399.114C601.016 399.132 601.059 399.159 601.096 399.194C601.133 399.23 601.162 399.272 601.181 399.319C601.201 399.367 601.21 399.417 601.209 399.468C601.226 400.518 601.236 401.544 601.242 402.537C601.243 402.587 601.233 402.637 601.214 402.684C601.195 402.731 601.167 402.773 601.132 402.809C601.097 402.845 601.055 402.874 601.008 402.894C600.962 402.913 600.912 402.924 600.862 402.924ZM437.475 393.708C437.382 393.708 437.293 393.675 437.223 393.614C437.153 393.553 437.107 393.469 437.095 393.377L436.608 390.348C436.6 390.298 436.602 390.246 436.615 390.196C436.627 390.147 436.65 390.1 436.68 390.059C436.711 390.019 436.75 389.984 436.795 389.959C436.839 389.934 436.888 389.917 436.939 389.911C436.99 389.902 437.042 389.904 437.092 389.916C437.142 389.928 437.19 389.95 437.231 389.981C437.272 390.012 437.307 390.052 437.332 390.096C437.358 390.141 437.374 390.191 437.379 390.242L437.866 393.268C437.874 393.319 437.871 393.371 437.859 393.42C437.847 393.47 437.824 393.517 437.793 393.558C437.763 393.599 437.724 393.634 437.679 393.659C437.635 393.685 437.586 393.702 437.535 393.708H437.475ZM600.617 392.715C600.518 392.715 600.422 392.677 600.351 392.609C600.279 392.54 600.237 392.447 600.233 392.348C600.189 391.355 600.143 390.322 600.087 389.289C600.084 389.239 600.091 389.188 600.107 389.141C600.124 389.093 600.149 389.049 600.183 389.012C600.217 388.974 600.257 388.943 600.303 388.922C600.348 388.9 600.397 388.888 600.448 388.885C600.499 388.879 600.55 388.884 600.599 388.899C600.648 388.914 600.693 388.94 600.731 388.974C600.769 389.008 600.8 389.05 600.821 389.097C600.841 389.144 600.852 389.195 600.852 389.246C600.908 390.282 600.954 391.308 600.997 392.315C601 392.365 600.993 392.415 600.976 392.463C600.959 392.51 600.933 392.554 600.899 392.591C600.865 392.628 600.824 392.658 600.778 392.68C600.733 392.701 600.683 392.713 600.633 392.715H600.617ZM435.853 383.631C435.761 383.63 435.672 383.596 435.602 383.536C435.533 383.475 435.486 383.392 435.472 383.3L434.986 380.271C434.971 380.172 434.997 380.07 435.056 379.989C435.116 379.908 435.205 379.853 435.305 379.837C435.404 379.821 435.506 379.845 435.588 379.903C435.67 379.961 435.726 380.05 435.744 380.149L436.23 383.178C436.238 383.228 436.236 383.28 436.224 383.33C436.211 383.379 436.189 383.426 436.158 383.467C436.127 383.508 436.088 383.542 436.044 383.567C435.999 383.593 435.95 383.609 435.899 383.615L435.853 383.631ZM599.991 382.509C599.895 382.509 599.803 382.473 599.733 382.408C599.662 382.343 599.618 382.254 599.61 382.158C599.531 381.148 599.442 380.13 599.345 379.106C599.336 379.005 599.368 378.904 599.433 378.826C599.498 378.747 599.592 378.698 599.693 378.689C599.742 378.683 599.792 378.687 599.84 378.7C599.887 378.714 599.932 378.737 599.971 378.767C600.01 378.798 600.042 378.836 600.066 378.88C600.09 378.923 600.105 378.971 600.11 379.02C600.203 380.046 600.291 381.066 600.375 382.079C600.383 382.18 600.351 382.281 600.285 382.358C600.219 382.436 600.125 382.484 600.024 382.493L599.991 382.509ZM434.228 373.538C434.135 373.538 434.046 373.505 433.977 373.444C433.907 373.383 433.862 373.299 433.85 373.207L433.301 369.788L434.88 369.586C434.93 369.578 434.981 369.581 435.03 369.594C435.078 369.607 435.124 369.629 435.164 369.66C435.204 369.691 435.237 369.73 435.262 369.774C435.286 369.818 435.302 369.866 435.307 369.917C435.314 369.967 435.311 370.018 435.298 370.067C435.285 370.115 435.262 370.161 435.232 370.201C435.201 370.241 435.162 370.275 435.118 370.3C435.075 370.325 435.026 370.341 434.976 370.347L434.185 370.45L434.608 373.098C434.616 373.149 434.614 373.2 434.602 373.25C434.589 373.3 434.567 373.347 434.536 373.388C434.505 373.429 434.466 373.464 434.422 373.489C434.377 373.515 434.328 373.532 434.277 373.538H434.228ZM598.955 372.34C598.862 372.34 598.772 372.306 598.702 372.246C598.632 372.185 598.587 372.101 598.574 372.009C598.448 370.999 598.313 369.989 598.174 368.97C598.167 368.92 598.17 368.869 598.183 368.82C598.195 368.771 598.218 368.725 598.249 368.685C598.28 368.645 598.318 368.612 598.362 368.587C598.406 368.562 598.454 368.546 598.505 368.54C598.555 368.532 598.606 368.534 598.655 368.547C598.704 368.559 598.751 368.582 598.791 368.613C598.831 368.643 598.865 368.682 598.889 368.727C598.914 368.771 598.93 368.82 598.935 368.871C599.077 369.89 599.21 370.903 599.339 371.916C599.351 372.017 599.323 372.118 599.261 372.198C599.199 372.278 599.108 372.33 599.008 372.343L598.955 372.34ZM442.027 369.453C441.93 369.453 441.836 369.416 441.765 369.349C441.694 369.282 441.651 369.191 441.644 369.094C441.638 368.997 441.669 368.901 441.731 368.826C441.793 368.75 441.881 368.701 441.977 368.688L445.016 368.298C445.066 368.289 445.118 368.292 445.167 368.304C445.217 368.316 445.263 368.339 445.303 368.37C445.344 368.401 445.377 368.44 445.402 368.484C445.427 368.529 445.442 368.578 445.447 368.629C445.46 368.73 445.432 368.832 445.37 368.913C445.308 368.993 445.216 369.046 445.116 369.059L442.073 369.45L442.027 369.453ZM452.163 368.156C452.066 368.155 451.972 368.118 451.901 368.051C451.83 367.985 451.787 367.894 451.781 367.796C451.774 367.699 451.805 367.603 451.867 367.528C451.929 367.453 452.017 367.404 452.114 367.391L455.156 367.004C455.206 366.995 455.258 366.996 455.307 367.008C455.357 367.021 455.404 367.043 455.444 367.074C455.485 367.105 455.518 367.145 455.543 367.189C455.567 367.234 455.582 367.284 455.586 367.335C455.598 367.435 455.57 367.536 455.509 367.616C455.447 367.696 455.355 367.748 455.255 367.762L452.213 368.152L452.163 368.156ZM462.303 366.858C462.205 366.858 462.112 366.82 462.041 366.754C461.97 366.687 461.927 366.596 461.92 366.499C461.914 366.402 461.945 366.305 462.007 366.23C462.069 366.155 462.157 366.106 462.253 366.093L465.296 365.703C465.346 365.695 465.397 365.698 465.446 365.711C465.495 365.723 465.541 365.746 465.581 365.777C465.621 365.808 465.655 365.846 465.679 365.89C465.704 365.935 465.72 365.983 465.726 366.034C465.738 366.134 465.71 366.235 465.648 366.315C465.586 366.395 465.495 366.447 465.395 366.461L462.353 366.851L462.303 366.858ZM472.443 365.56C472.345 365.56 472.251 365.523 472.18 365.456C472.109 365.39 472.066 365.298 472.06 365.201C472.054 365.104 472.085 365.008 472.146 364.933C472.208 364.857 472.296 364.808 472.393 364.795L475.435 364.408C475.485 364.399 475.537 364.401 475.586 364.413C475.636 364.425 475.682 364.448 475.722 364.479C475.762 364.51 475.796 364.549 475.82 364.594C475.844 364.639 475.858 364.688 475.862 364.739C475.869 364.789 475.865 364.84 475.852 364.888C475.839 364.937 475.816 364.982 475.786 365.022C475.755 365.061 475.716 365.095 475.673 365.119C475.629 365.144 475.581 365.16 475.531 365.166L472.489 365.557L472.443 365.56ZM482.579 364.263C482.481 364.262 482.388 364.225 482.317 364.158C482.246 364.092 482.203 364.001 482.196 363.903C482.19 363.806 482.221 363.71 482.283 363.635C482.345 363.56 482.433 363.511 482.529 363.498L485.571 363.111C485.622 363.102 485.673 363.103 485.723 363.115C485.773 363.128 485.819 363.15 485.86 363.181C485.9 363.212 485.934 363.252 485.958 363.296C485.983 363.341 485.998 363.391 486.002 363.442C486.014 363.542 485.986 363.643 485.924 363.723C485.862 363.803 485.771 363.855 485.671 363.869L482.629 364.259L482.579 364.263ZM492.719 362.965C492.621 362.965 492.527 362.928 492.456 362.861C492.385 362.794 492.342 362.703 492.336 362.606C492.33 362.509 492.361 362.413 492.422 362.337C492.484 362.262 492.572 362.213 492.669 362.2L495.711 361.813C495.761 361.805 495.813 361.807 495.862 361.82C495.911 361.832 495.957 361.855 495.997 361.886C496.038 361.917 496.071 361.956 496.096 362C496.121 362.044 496.136 362.093 496.141 362.144C496.154 362.245 496.126 362.346 496.064 362.427C496.002 362.507 495.911 362.56 495.81 362.574L492.768 362.962L492.719 362.965ZM597.439 362.23C597.346 362.23 597.257 362.196 597.188 362.135C597.118 362.075 597.073 361.99 597.061 361.899C596.883 360.899 596.696 359.897 596.502 358.893C596.492 358.844 596.492 358.793 596.503 358.743C596.513 358.694 596.532 358.647 596.561 358.605C596.589 358.563 596.625 358.527 596.667 358.499C596.71 358.472 596.757 358.452 596.806 358.443C596.856 358.433 596.906 358.434 596.956 358.444C597.005 358.454 597.052 358.474 597.093 358.502C597.135 358.53 597.17 358.567 597.198 358.609C597.225 358.651 597.244 358.698 597.253 358.747C597.452 359.741 597.637 360.76 597.816 361.767C597.833 361.867 597.81 361.969 597.752 362.053C597.694 362.136 597.605 362.192 597.505 362.21C597.488 362.219 597.47 362.225 597.452 362.23H597.439ZM502.858 361.667C502.761 361.667 502.667 361.63 502.596 361.563C502.525 361.497 502.482 361.405 502.476 361.308C502.469 361.211 502.5 361.115 502.562 361.04C502.624 360.964 502.712 360.915 502.809 360.902L505.851 360.515C505.901 360.506 505.953 360.508 506.002 360.52C506.052 360.532 506.098 360.555 506.139 360.586C506.179 360.617 506.213 360.656 506.238 360.701C506.262 360.746 506.277 360.795 506.281 360.846C506.293 360.947 506.266 361.049 506.204 361.129C506.142 361.21 506.051 361.263 505.95 361.277L502.908 361.664L502.858 361.667ZM512.998 360.37C512.897 360.376 512.797 360.342 512.721 360.276C512.645 360.209 512.599 360.115 512.592 360.014C512.586 359.913 512.62 359.813 512.686 359.737C512.753 359.661 512.847 359.615 512.948 359.608L515.99 359.218C516.04 359.209 516.092 359.211 516.141 359.224C516.19 359.236 516.236 359.258 516.276 359.29C516.317 359.321 516.35 359.36 516.374 359.404C516.398 359.449 516.413 359.498 516.417 359.549C516.431 359.65 516.403 359.752 516.341 359.832C516.279 359.913 516.187 359.966 516.086 359.979L513.044 360.366L512.998 360.37ZM523.134 359.072C523.037 359.072 522.943 359.035 522.872 358.968C522.801 358.901 522.758 358.81 522.752 358.713C522.745 358.616 522.776 358.52 522.838 358.444C522.9 358.369 522.988 358.32 523.085 358.307L526.127 357.92C526.177 357.911 526.228 357.913 526.278 357.926C526.327 357.938 526.374 357.961 526.414 357.992C526.454 358.023 526.488 358.062 526.513 358.106C526.537 358.151 526.552 358.2 526.557 358.251C526.569 358.352 526.542 358.453 526.48 358.534C526.418 358.614 526.327 358.667 526.226 358.681L523.184 359.069L523.134 359.072ZM533.274 357.774C533.224 357.777 533.174 357.771 533.126 357.755C533.079 357.739 533.035 357.713 532.997 357.68C532.96 357.647 532.929 357.607 532.907 357.562C532.885 357.517 532.872 357.468 532.868 357.418C532.865 357.368 532.872 357.318 532.888 357.271C532.904 357.223 532.929 357.18 532.962 357.142C532.995 357.104 533.035 357.073 533.08 357.051C533.125 357.029 533.174 357.016 533.224 357.013L536.266 356.622C536.316 356.615 536.368 356.618 536.417 356.63C536.466 356.643 536.512 356.666 536.552 356.696C536.592 356.727 536.626 356.766 536.65 356.81C536.675 356.854 536.691 356.903 536.697 356.953C536.71 357.054 536.682 357.156 536.62 357.237C536.558 357.318 536.467 357.37 536.366 357.384L533.323 357.771L533.274 357.774ZM543.413 356.477C543.313 356.483 543.213 356.449 543.137 356.383C543.061 356.316 543.015 356.222 543.008 356.121C543.001 356.02 543.035 355.92 543.102 355.844C543.169 355.768 543.263 355.722 543.364 355.715L546.406 355.325C546.456 355.317 546.507 355.32 546.556 355.333C546.605 355.345 546.651 355.368 546.692 355.399C546.732 355.43 546.765 355.468 546.79 355.512C546.815 355.557 546.831 355.605 546.836 355.656C546.85 355.757 546.822 355.859 546.76 355.939C546.698 356.02 546.606 356.073 546.505 356.086L543.466 356.473L543.413 356.477ZM553.55 355.182C553.453 355.181 553.359 355.143 553.289 355.077C553.219 355.01 553.176 354.918 553.17 354.821C553.164 354.725 553.196 354.629 553.257 354.554C553.319 354.479 553.407 354.43 553.503 354.418L556.542 354.027C556.593 354.017 556.645 354.019 556.694 354.031C556.744 354.043 556.791 354.065 556.832 354.096C556.872 354.127 556.906 354.167 556.93 354.212C556.954 354.257 556.969 354.307 556.973 354.358C556.986 354.459 556.958 354.561 556.896 354.642C556.834 354.722 556.743 354.775 556.642 354.788L553.599 355.179L553.55 355.182ZM563.689 353.885C563.597 353.884 563.508 353.85 563.438 353.79C563.368 353.729 563.322 353.645 563.309 353.554C563.297 353.453 563.324 353.352 563.386 353.272C563.448 353.192 563.54 353.14 563.64 353.126L566.682 352.736C566.732 352.727 566.784 352.729 566.834 352.741C566.883 352.753 566.93 352.775 566.97 352.806C567.011 352.838 567.044 352.877 567.069 352.922C567.093 352.967 567.108 353.016 567.112 353.067C567.126 353.168 567.098 353.27 567.036 353.351C566.974 353.431 566.882 353.484 566.781 353.497L563.739 353.888L563.689 353.885ZM573.829 352.587C573.732 352.587 573.638 352.549 573.567 352.483C573.496 352.416 573.453 352.325 573.447 352.228C573.44 352.131 573.471 352.035 573.533 351.959C573.595 351.884 573.683 351.835 573.779 351.822L576.822 351.432C576.872 351.424 576.923 351.426 576.972 351.439C577.022 351.451 577.068 351.474 577.108 351.505C577.148 351.536 577.182 351.574 577.207 351.619C577.231 351.663 577.247 351.712 577.252 351.763C577.264 351.863 577.236 351.964 577.174 352.044C577.112 352.124 577.021 352.176 576.921 352.19L573.882 352.58L573.829 352.587ZM595.346 352.223C595.261 352.223 595.178 352.194 595.111 352.141C595.043 352.089 594.996 352.015 594.976 351.931C594.814 351.269 594.645 350.607 594.482 349.945L594.151 349.988C594.102 349.996 594.051 349.993 594.002 349.98C593.953 349.967 593.907 349.945 593.867 349.914C593.827 349.883 593.794 349.844 593.77 349.8C593.745 349.756 593.73 349.707 593.724 349.657C593.717 349.607 593.721 349.556 593.733 349.507C593.746 349.459 593.769 349.413 593.8 349.373C593.831 349.333 593.869 349.299 593.913 349.274C593.957 349.249 594.005 349.233 594.055 349.227L595.049 349.098L595.131 349.429C595.333 350.2 595.525 350.975 595.714 351.746C595.738 351.845 595.722 351.949 595.669 352.036C595.616 352.123 595.531 352.185 595.433 352.209L595.346 352.223ZM583.959 351.289C583.861 351.289 583.768 351.252 583.697 351.185C583.626 351.119 583.583 351.027 583.576 350.93C583.57 350.833 583.601 350.737 583.663 350.662C583.724 350.586 583.813 350.537 583.909 350.525L586.951 350.134C587.001 350.126 587.052 350.128 587.101 350.141C587.151 350.154 587.197 350.176 587.237 350.207C587.277 350.238 587.31 350.277 587.334 350.321C587.359 350.366 587.374 350.415 587.378 350.465C587.385 350.515 587.382 350.566 587.369 350.615C587.356 350.664 587.334 350.709 587.303 350.749C587.272 350.79 587.234 350.823 587.19 350.848C587.146 350.873 587.098 350.889 587.047 350.895L584.008 351.286L583.959 351.289Z" fill="white"/>
<path d="M463.778 324.892L463.629 320.513C463.789 319.975 464.081 319.487 464.478 319.091C464.875 318.696 465.365 318.406 465.903 318.248C470.005 317.047 480.234 314.547 485.709 317.643L487.099 322.575L463.778 324.892Z" fill="#00B2A9"/>
<path d="M476.324 319.046C475.402 319.402 474.408 319.528 473.427 319.414C472.843 319.345 472.298 319.084 471.878 318.672C471.458 318.26 471.188 317.719 471.11 317.136L469.375 303.587L476.271 302.703L478.002 316.242C478.076 316.83 477.951 317.426 477.647 317.934C477.342 318.442 476.877 318.834 476.324 319.046Z" fill="#04A79F"/>
<path d="M530.559 316.348L530.41 311.969C530.569 311.431 530.86 310.941 531.258 310.546C531.655 310.15 532.146 309.861 532.684 309.704C536.783 308.503 547.012 306.003 552.49 309.099L553.877 314.031L530.559 316.348Z" fill="#00B2A9"/>
<path d="M543.099 310.512C542.178 310.868 541.184 310.995 540.203 310.88C539.618 310.811 539.072 310.55 538.653 310.137C538.233 309.724 537.963 309.182 537.885 308.599L535.969 293.623L542.861 292.742L544.778 307.708C544.852 308.296 544.727 308.892 544.422 309.4C544.118 309.908 543.652 310.3 543.099 310.512Z" fill="#04A79F"/>
<path d="M469.094 307.006L542.915 295.066C543.732 294.937 544.48 294.532 545.034 293.918C545.588 293.304 545.914 292.518 545.957 291.693C546.126 288.519 545.798 285.337 544.984 282.265C544.423 280.314 543.191 278.623 541.504 277.493C539.818 276.363 537.786 275.865 535.768 276.088C521.894 277.528 486.682 282.046 468.257 292.206C467.299 292.734 466.481 293.484 465.874 294.394C465.266 295.303 464.885 296.346 464.764 297.433C464.529 299.535 464.549 302.296 465.549 304.984C465.815 305.679 466.314 306.26 466.96 306.628C467.607 306.997 468.361 307.131 469.094 307.006Z" fill="#00B2A9"/>
<path opacity="0.58" d="M467.276 304.014C467.045 304.014 466.822 303.935 466.641 303.792C466.461 303.648 466.335 303.447 466.283 303.223C465.872 301.285 465.777 299.294 466.002 297.327C466.168 296.161 466.629 295.057 467.342 294.12C468.054 293.183 468.995 292.443 470.073 291.971C474.075 290.216 481.769 287.121 488.28 286.101C488.548 286.058 488.823 286.122 489.044 286.281C489.264 286.439 489.413 286.679 489.457 286.947C489.501 287.215 489.436 287.49 489.278 287.711C489.119 287.932 488.879 288.08 488.611 288.124C482.096 289.14 474.046 292.461 470.911 293.841C470.153 294.174 469.492 294.694 468.991 295.352C468.49 296.011 468.166 296.786 468.047 297.605C467.856 299.326 467.939 301.068 468.296 302.763C468.356 303.026 468.31 303.303 468.166 303.533C468.023 303.763 467.794 303.926 467.531 303.987C467.448 304.007 467.362 304.016 467.276 304.014Z" fill="white"/>
<path d="M429.161 327.607C453.075 324.237 556.561 309.89 587.129 309.668C588.409 309.654 589.662 310.038 590.714 310.767C591.767 311.497 592.566 312.536 593.001 313.74C595.812 321.552 601.777 339.776 603.723 358.347C603.843 359.578 603.538 360.813 602.858 361.846C602.178 362.879 601.164 363.648 599.986 364.024L532.938 385.816L508.531 388.938L433.458 383.754C432.175 383.669 430.958 383.158 429.998 382.302C429.039 381.446 428.393 380.295 428.162 379.03C426.506 369.761 422.954 348.015 423.673 333.622C423.745 332.137 424.332 330.724 425.334 329.626C426.336 328.528 427.689 327.814 429.161 327.607Z" fill="#00B2A9"/>
<path d="M508.358 383.327H508.335L505.273 383.115C505.171 383.107 505.077 383.06 505.011 382.983C504.944 382.906 504.911 382.806 504.918 382.705C504.931 382.606 504.98 382.516 505.055 382.45C505.13 382.385 505.226 382.349 505.326 382.35L508.384 382.562C508.48 382.574 508.567 382.621 508.63 382.694C508.692 382.767 508.725 382.861 508.722 382.957C508.719 383.053 508.679 383.144 508.612 383.213C508.545 383.281 508.454 383.322 508.358 383.327ZM511.155 382.969C511.058 382.969 510.964 382.932 510.893 382.865C510.822 382.799 510.779 382.707 510.773 382.61C510.766 382.513 510.797 382.417 510.859 382.342C510.921 382.266 511.009 382.217 511.106 382.205L514.148 381.817C514.198 381.808 514.25 381.809 514.299 381.821C514.349 381.833 514.396 381.855 514.436 381.887C514.476 381.918 514.509 381.958 514.533 382.003C514.557 382.048 514.571 382.097 514.575 382.148C514.587 382.249 514.559 382.351 514.497 382.431C514.435 382.512 514.344 382.565 514.244 382.579L511.202 382.966L511.155 382.969ZM498.162 382.638H498.142L495.083 382.426C495.033 382.424 494.984 382.411 494.939 382.388C494.893 382.366 494.853 382.336 494.82 382.298C494.786 382.26 494.761 382.216 494.745 382.168C494.729 382.12 494.722 382.07 494.726 382.019C494.739 381.92 494.788 381.829 494.863 381.763C494.939 381.697 495.036 381.661 495.136 381.662L498.195 381.874C498.291 381.885 498.378 381.932 498.441 382.005C498.503 382.078 498.536 382.172 498.533 382.268C498.529 382.364 498.49 382.456 498.423 382.524C498.355 382.593 498.265 382.633 498.169 382.638H498.162ZM487.966 381.933H487.94L484.881 381.725C484.779 381.717 484.685 381.67 484.618 381.593C484.551 381.516 484.517 381.416 484.523 381.314C484.538 381.216 484.587 381.127 484.662 381.061C484.736 380.996 484.831 380.959 484.931 380.957L487.989 381.169C488.085 381.18 488.172 381.226 488.235 381.299C488.298 381.372 488.331 381.466 488.328 381.562C488.325 381.658 488.286 381.749 488.219 381.818C488.152 381.886 488.062 381.928 487.966 381.933ZM521.292 381.688C521.194 381.687 521.101 381.65 521.031 381.583C520.96 381.516 520.918 381.424 520.912 381.327C520.906 381.23 520.937 381.135 520.999 381.06C521.061 380.985 521.149 380.936 521.245 380.924L524.287 380.536C524.338 380.527 524.389 380.529 524.438 380.541C524.488 380.553 524.534 380.576 524.575 380.607C524.615 380.638 524.648 380.677 524.672 380.722C524.696 380.767 524.711 380.817 524.714 380.867C524.727 380.968 524.699 381.07 524.637 381.15C524.575 381.231 524.484 381.284 524.383 381.298L521.341 381.685L521.292 381.688ZM477.767 381.231H477.744L474.682 381.023C474.581 381.014 474.487 380.967 474.421 380.89C474.354 380.813 474.321 380.714 474.327 380.612C474.342 380.514 474.39 380.424 474.465 380.359C474.54 380.293 474.635 380.256 474.735 380.255L477.793 380.467C477.895 380.47 477.992 380.514 478.061 380.589C478.131 380.663 478.168 380.762 478.164 380.864C478.161 380.966 478.117 381.062 478.042 381.132C477.968 381.201 477.869 381.238 477.767 381.235V381.231ZM467.571 380.526H467.544L464.486 380.314C464.384 380.307 464.29 380.259 464.223 380.183C464.156 380.106 464.122 380.006 464.128 379.904C464.143 379.806 464.193 379.716 464.268 379.651C464.343 379.586 464.439 379.55 464.539 379.55L467.597 379.762C467.693 379.773 467.78 379.82 467.843 379.893C467.905 379.966 467.938 380.06 467.935 380.156C467.932 380.252 467.892 380.343 467.825 380.412C467.758 380.481 467.667 380.521 467.571 380.526ZM531.431 380.391C531.334 380.39 531.241 380.352 531.17 380.285C531.1 380.218 531.058 380.127 531.052 380.03C531.046 379.933 531.077 379.837 531.139 379.762C531.201 379.687 531.289 379.639 531.385 379.626L531.58 379.603L534.228 378.732C534.278 378.712 534.33 378.701 534.383 378.702C534.437 378.703 534.489 378.715 534.537 378.737C534.585 378.76 534.629 378.792 534.664 378.831C534.699 378.871 534.726 378.918 534.742 378.968C534.759 379.019 534.764 379.072 534.759 379.125C534.753 379.178 534.737 379.229 534.711 379.276C534.685 379.322 534.649 379.362 534.607 379.394C534.564 379.426 534.515 379.448 534.463 379.46L531.484 380.387L531.431 380.391ZM457.375 379.821H457.349L454.29 379.609C454.239 379.606 454.19 379.593 454.145 379.571C454.1 379.549 454.059 379.518 454.026 379.481C453.993 379.443 453.967 379.398 453.951 379.351C453.935 379.303 453.929 379.252 453.932 379.202C453.945 379.103 453.994 379.012 454.068 378.947C454.143 378.881 454.24 378.845 454.339 378.845L457.398 379.057C457.499 379.064 457.593 379.111 457.66 379.187C457.727 379.263 457.761 379.363 457.756 379.464C457.746 379.558 457.701 379.645 457.631 379.708C457.561 379.771 457.47 379.805 457.375 379.805V379.821ZM447.176 379.116H447.163L444.104 378.908C444.002 378.9 443.908 378.852 443.842 378.776C443.775 378.699 443.742 378.598 443.75 378.497C443.762 378.398 443.81 378.307 443.885 378.241C443.96 378.175 444.057 378.139 444.157 378.14L447.215 378.351C447.311 378.363 447.399 378.41 447.461 378.483C447.524 378.556 447.556 378.65 447.553 378.746C447.55 378.842 447.51 378.933 447.443 379.002C447.376 379.07 447.285 379.111 447.189 379.116H447.176ZM436.98 378.414H436.953L433.689 378.189L433.633 377.898C433.612 377.794 433.631 377.686 433.687 377.595C433.742 377.504 433.829 377.437 433.931 377.408C433.983 377.395 434.036 377.393 434.089 377.402C434.141 377.412 434.191 377.431 434.236 377.461L437.006 377.65C437.108 377.653 437.204 377.697 437.274 377.771C437.344 377.846 437.381 377.945 437.377 378.047C437.374 378.149 437.33 378.245 437.255 378.315C437.181 378.384 437.082 378.421 436.98 378.418V378.414ZM541.16 377.266C541.069 377.265 540.982 377.232 540.913 377.173C540.844 377.114 540.798 377.032 540.784 376.942C540.77 376.852 540.788 376.76 540.835 376.683C540.882 376.605 540.955 376.546 541.041 376.518L543.958 375.571C544.055 375.541 544.159 375.551 544.25 375.597C544.34 375.643 544.408 375.723 544.441 375.819C544.472 375.916 544.464 376.021 544.418 376.111C544.372 376.202 544.292 376.27 544.196 376.302L541.28 377.249C541.245 377.253 541.211 377.253 541.177 377.249L541.16 377.266ZM550.883 374.108C550.792 374.107 550.704 374.074 550.635 374.015C550.566 373.956 550.521 373.874 550.506 373.784C550.492 373.694 550.51 373.602 550.557 373.525C550.604 373.447 550.678 373.388 550.764 373.359L553.68 372.413C553.777 372.383 553.881 372.392 553.971 372.438C554.061 372.483 554.13 372.562 554.163 372.658C554.179 372.706 554.185 372.756 554.181 372.807C554.177 372.857 554.163 372.906 554.14 372.951C554.117 372.996 554.085 373.036 554.046 373.068C554.008 373.101 553.963 373.125 553.915 373.141L550.999 374.088C550.961 374.095 550.921 374.096 550.883 374.091V374.108ZM432.799 371.059C432.706 371.058 432.617 371.024 432.547 370.964C432.477 370.903 432.432 370.819 432.418 370.728C432.266 369.758 432.104 368.741 431.945 367.692C431.938 367.642 431.941 367.59 431.954 367.541C431.967 367.492 431.989 367.446 432.02 367.405C432.05 367.364 432.089 367.33 432.133 367.305C432.177 367.279 432.225 367.262 432.276 367.255C432.378 367.242 432.48 367.269 432.562 367.331C432.644 367.393 432.698 367.485 432.713 367.586C432.872 368.635 433.044 369.648 433.183 370.618C433.191 370.669 433.188 370.721 433.176 370.77C433.163 370.82 433.141 370.866 433.11 370.907C433.079 370.948 433.041 370.982 432.996 371.008C432.952 371.033 432.903 371.049 432.852 371.055L432.799 371.059ZM560.602 370.949C560.511 370.949 560.424 370.916 560.355 370.857C560.286 370.797 560.24 370.716 560.226 370.626C560.211 370.536 560.229 370.444 560.277 370.366C560.324 370.289 560.397 370.23 560.483 370.201L563.399 369.251C563.447 369.236 563.498 369.23 563.548 369.234C563.599 369.238 563.648 369.252 563.693 369.275C563.737 369.298 563.777 369.33 563.81 369.368C563.843 369.407 563.867 369.451 563.883 369.499C563.899 369.547 563.905 369.597 563.901 369.647C563.898 369.697 563.884 369.746 563.861 369.791C563.838 369.836 563.807 369.875 563.768 369.908C563.73 369.94 563.686 369.965 563.638 369.98L560.721 370.93C560.682 370.937 560.642 370.938 560.602 370.933V370.949ZM570.321 367.788C570.23 367.787 570.143 367.755 570.074 367.695C570.005 367.636 569.959 367.554 569.945 367.464C569.931 367.375 569.949 367.283 569.996 367.205C570.043 367.127 570.116 367.069 570.202 367.04L573.119 366.093C573.215 366.063 573.32 366.071 573.41 366.117C573.501 366.163 573.569 366.242 573.602 366.338C573.618 366.386 573.624 366.436 573.621 366.487C573.617 366.537 573.603 366.586 573.581 366.631C573.558 366.676 573.526 366.716 573.488 366.749C573.449 366.781 573.405 366.806 573.357 366.821L570.441 367.768C570.397 367.777 570.352 367.778 570.308 367.771L570.321 367.788ZM580.044 364.63C579.953 364.629 579.865 364.596 579.796 364.537C579.727 364.478 579.682 364.396 579.667 364.306C579.653 364.217 579.671 364.125 579.718 364.047C579.765 363.969 579.839 363.911 579.925 363.882L582.841 362.935C582.89 362.915 582.942 362.906 582.995 362.907C583.047 362.909 583.099 362.921 583.147 362.943C583.194 362.965 583.237 362.997 583.272 363.036C583.307 363.076 583.333 363.122 583.35 363.172C583.366 363.222 583.372 363.275 583.367 363.327C583.362 363.379 583.347 363.43 583.321 363.476C583.296 363.522 583.261 363.563 583.22 363.595C583.178 363.627 583.131 363.65 583.08 363.663L580.163 364.61C580.124 364.618 580.084 364.619 580.044 364.613V364.63ZM589.766 361.472C589.686 361.472 589.607 361.446 589.541 361.398C589.476 361.351 589.427 361.284 589.402 361.207C589.386 361.159 589.379 361.109 589.383 361.058C589.386 361.008 589.4 360.959 589.423 360.914C589.445 360.868 589.477 360.828 589.516 360.796C589.554 360.763 589.599 360.739 589.647 360.724L592.564 359.774C592.657 359.752 592.756 359.766 592.84 359.814C592.923 359.861 592.986 359.938 593.016 360.03C593.045 360.121 593.04 360.221 592.999 360.308C592.959 360.396 592.887 360.465 592.799 360.502L589.882 361.452C589.844 361.46 589.805 361.461 589.766 361.455V361.472ZM431.322 360.936C431.23 360.936 431.14 360.903 431.071 360.842C431.001 360.781 430.956 360.696 430.945 360.605C430.813 359.611 430.687 358.585 430.561 357.559C430.55 357.459 430.578 357.358 430.64 357.278C430.702 357.199 430.792 357.146 430.892 357.132C430.942 357.126 430.993 357.129 431.041 357.142C431.089 357.155 431.135 357.178 431.175 357.209C431.214 357.239 431.247 357.278 431.272 357.321C431.297 357.365 431.313 357.413 431.319 357.463C431.442 358.486 431.571 359.502 431.7 360.502C431.707 360.552 431.704 360.603 431.691 360.652C431.678 360.701 431.655 360.746 431.625 360.787C431.594 360.827 431.555 360.86 431.511 360.885C431.467 360.91 431.419 360.926 431.369 360.932L431.322 360.936ZM597.526 357.053C597.433 357.053 597.344 357.019 597.274 356.958C597.204 356.897 597.158 356.813 597.145 356.722C597.02 355.709 596.884 354.696 596.735 353.689C596.727 353.639 596.73 353.588 596.743 353.538C596.755 353.489 596.778 353.443 596.809 353.403C596.84 353.362 596.878 353.328 596.922 353.303C596.967 353.278 597.015 353.262 597.066 353.256C597.117 353.247 597.168 353.248 597.218 353.26C597.268 353.272 597.315 353.295 597.356 353.326C597.397 353.357 597.432 353.396 597.457 353.441C597.482 353.486 597.498 353.535 597.503 353.587C597.648 354.603 597.787 355.616 597.913 356.635C597.92 356.685 597.916 356.736 597.903 356.784C597.89 356.833 597.867 356.878 597.837 356.918C597.806 356.958 597.768 356.991 597.724 357.016C597.68 357.04 597.632 357.056 597.582 357.063L597.526 357.053ZM430.194 350.763C430.098 350.763 430.005 350.727 429.934 350.662C429.864 350.597 429.82 350.508 429.813 350.412C429.72 349.389 429.638 348.366 429.558 347.35C429.554 347.299 429.561 347.249 429.576 347.201C429.592 347.153 429.618 347.108 429.651 347.07C429.684 347.032 429.724 347 429.769 346.978C429.814 346.955 429.863 346.941 429.914 346.938C429.964 346.934 430.015 346.94 430.063 346.956C430.111 346.972 430.155 346.997 430.194 347.03C430.232 347.063 430.263 347.104 430.286 347.149C430.309 347.194 430.322 347.243 430.326 347.294C430.401 348.307 430.484 349.324 430.574 350.346C430.584 350.444 430.554 350.542 430.493 350.62C430.431 350.697 430.341 350.747 430.243 350.76L430.194 350.763ZM595.917 346.953C595.828 346.953 595.741 346.922 595.673 346.865C595.604 346.808 595.557 346.729 595.54 346.641C595.341 345.633 595.138 344.633 594.931 343.642C594.91 343.543 594.929 343.439 594.984 343.353C595.04 343.268 595.127 343.208 595.227 343.187C595.327 343.166 595.431 343.185 595.516 343.241C595.601 343.296 595.661 343.384 595.682 343.483C595.891 344.476 596.096 345.47 596.291 346.496C596.311 346.595 596.29 346.699 596.233 346.783C596.177 346.867 596.089 346.926 595.99 346.946L595.917 346.953ZM429.578 340.564C429.477 340.564 429.38 340.524 429.309 340.453C429.237 340.383 429.196 340.287 429.194 340.186C429.174 339.359 429.164 338.531 429.164 337.74V337.108C429.165 337.007 429.205 336.911 429.277 336.839C429.348 336.768 429.444 336.728 429.545 336.727C429.595 336.727 429.645 336.737 429.692 336.757C429.739 336.776 429.781 336.805 429.816 336.841C429.852 336.877 429.88 336.92 429.898 336.967C429.917 337.013 429.926 337.064 429.925 337.114V337.74C429.925 338.534 429.935 339.344 429.955 340.17C429.957 340.271 429.919 340.37 429.849 340.443C429.779 340.517 429.683 340.56 429.581 340.564H429.578ZM593.696 336.978C593.61 336.979 593.527 336.95 593.46 336.897C593.393 336.844 593.345 336.77 593.325 336.687C593.074 335.681 592.819 334.688 592.56 333.708C592.547 333.659 592.543 333.609 592.55 333.559C592.556 333.509 592.573 333.461 592.598 333.417C592.623 333.374 592.657 333.336 592.697 333.306C592.737 333.275 592.783 333.253 592.832 333.241C592.93 333.216 593.035 333.23 593.122 333.281C593.21 333.331 593.275 333.415 593.302 333.513C593.557 334.482 593.815 335.476 594.067 336.492C594.079 336.541 594.082 336.591 594.074 336.641C594.067 336.691 594.05 336.738 594.024 336.782C593.998 336.825 593.964 336.862 593.924 336.892C593.883 336.922 593.837 336.943 593.789 336.955C593.758 336.962 593.727 336.965 593.696 336.962V336.978ZM433.362 333.446C433.264 333.447 433.17 333.41 433.098 333.344C433.026 333.278 432.983 333.186 432.976 333.089C432.969 332.991 433 332.895 433.062 332.819C433.123 332.744 433.212 332.694 433.309 332.682L436.348 332.258C436.4 332.246 436.453 332.245 436.506 332.255C436.558 332.266 436.608 332.287 436.652 332.317C436.695 332.347 436.732 332.386 436.76 332.432C436.788 332.477 436.806 332.528 436.813 332.581C436.82 332.634 436.816 332.687 436.802 332.739C436.787 332.79 436.762 332.837 436.727 332.878C436.693 332.919 436.651 332.953 436.603 332.976C436.556 333 436.503 333.014 436.45 333.016L433.415 333.443L433.362 333.446ZM443.488 332.039C443.391 332.039 443.297 332.002 443.226 331.935C443.155 331.869 443.112 331.778 443.106 331.68C443.099 331.583 443.13 331.487 443.192 331.412C443.254 331.336 443.342 331.287 443.438 331.275L446.474 330.858C446.524 330.85 446.576 330.852 446.625 330.865C446.675 330.877 446.721 330.899 446.762 330.93C446.802 330.961 446.836 331 446.861 331.045C446.886 331.089 446.902 331.138 446.908 331.189C446.915 331.239 446.912 331.29 446.899 331.338C446.886 331.387 446.863 331.433 446.832 331.473C446.802 331.513 446.763 331.547 446.719 331.572C446.675 331.597 446.627 331.613 446.577 331.619L443.538 332.039H443.488ZM453.621 330.652C453.524 330.652 453.43 330.615 453.359 330.548C453.288 330.482 453.245 330.39 453.239 330.293C453.232 330.196 453.263 330.1 453.325 330.025C453.387 329.949 453.475 329.9 453.571 329.888L456.61 329.477C456.662 329.465 456.716 329.465 456.769 329.475C456.821 329.485 456.87 329.506 456.914 329.536C456.958 329.567 456.995 329.606 457.023 329.651C457.051 329.697 457.069 329.747 457.076 329.8C457.083 329.853 457.079 329.907 457.064 329.958C457.05 330.009 457.024 330.057 456.99 330.098C456.956 330.139 456.914 330.172 456.866 330.196C456.818 330.219 456.766 330.233 456.713 330.235L453.674 330.649L453.621 330.652ZM463.754 329.285C463.657 329.285 463.563 329.248 463.492 329.181C463.421 329.115 463.378 329.023 463.372 328.926C463.365 328.829 463.396 328.733 463.458 328.658C463.52 328.582 463.608 328.533 463.704 328.521L466.743 328.113C466.794 328.106 466.845 328.109 466.894 328.121C466.943 328.134 466.99 328.156 467.03 328.187C467.071 328.218 467.104 328.257 467.13 328.301C467.155 328.345 467.171 328.394 467.177 328.444C467.189 328.545 467.161 328.647 467.1 328.727C467.038 328.808 466.947 328.861 466.846 328.875L463.807 329.282L463.754 329.285ZM473.89 327.938C473.793 327.938 473.699 327.901 473.628 327.834C473.557 327.767 473.514 327.676 473.508 327.579C473.502 327.482 473.532 327.386 473.594 327.31C473.656 327.235 473.744 327.186 473.841 327.173L476.883 326.773C476.934 326.765 476.985 326.767 477.035 326.78C477.084 326.792 477.131 326.815 477.172 326.846C477.212 326.876 477.247 326.915 477.272 326.959C477.298 327.003 477.315 327.052 477.321 327.103C477.328 327.153 477.325 327.205 477.311 327.254C477.297 327.303 477.274 327.349 477.243 327.39C477.211 327.43 477.172 327.463 477.127 327.488C477.082 327.513 477.033 327.528 476.982 327.534L473.94 327.935L473.89 327.938ZM590.985 327.117C590.902 327.117 590.822 327.091 590.756 327.042C590.69 326.993 590.641 326.924 590.617 326.846C590.313 325.826 590.011 324.859 589.72 323.916C589.689 323.819 589.698 323.714 589.745 323.624C589.791 323.534 589.872 323.467 589.968 323.436C590.065 323.405 590.17 323.414 590.26 323.461C590.35 323.507 590.418 323.588 590.448 323.684C590.744 324.62 591.045 325.6 591.352 326.624C591.367 326.672 591.372 326.723 591.367 326.773C591.362 326.823 591.347 326.872 591.323 326.916C591.299 326.96 591.266 326.999 591.227 327.031C591.188 327.063 591.142 327.086 591.094 327.1C591.058 327.106 591.021 327.106 590.985 327.1V327.117ZM484.03 326.61C483.929 326.617 483.83 326.583 483.754 326.516C483.678 326.45 483.631 326.356 483.625 326.255C483.618 326.154 483.652 326.054 483.718 325.978C483.785 325.902 483.879 325.856 483.98 325.849L487.023 325.455C487.073 325.447 487.125 325.45 487.174 325.462C487.224 325.475 487.27 325.497 487.311 325.528C487.352 325.559 487.386 325.597 487.412 325.641C487.438 325.686 487.455 325.734 487.461 325.785C487.468 325.836 487.464 325.887 487.451 325.937C487.437 325.986 487.414 326.032 487.382 326.072C487.351 326.112 487.311 326.146 487.267 326.171C487.222 326.195 487.173 326.211 487.122 326.216L484.08 326.607L484.03 326.61ZM494.17 325.313C494.073 325.312 493.979 325.274 493.909 325.207C493.839 325.14 493.796 325.049 493.79 324.952C493.784 324.855 493.816 324.759 493.877 324.684C493.939 324.61 494.027 324.561 494.123 324.548L497.166 324.164C497.216 324.156 497.267 324.159 497.316 324.171C497.365 324.184 497.411 324.206 497.451 324.237C497.491 324.268 497.524 324.307 497.548 324.351C497.573 324.396 497.588 324.445 497.593 324.495C497.599 324.545 497.596 324.596 497.583 324.644C497.569 324.692 497.547 324.738 497.516 324.778C497.485 324.817 497.447 324.85 497.403 324.875C497.36 324.9 497.312 324.916 497.262 324.922L494.219 325.309L494.17 325.313ZM504.313 324.038C504.216 324.037 504.122 324 504.052 323.933C503.982 323.866 503.939 323.775 503.933 323.678C503.927 323.581 503.958 323.485 504.02 323.41C504.082 323.335 504.17 323.286 504.266 323.274L507.309 322.896C507.359 322.888 507.41 322.891 507.459 322.903C507.508 322.916 507.554 322.938 507.594 322.969C507.634 323 507.667 323.039 507.691 323.084C507.716 323.128 507.731 323.177 507.736 323.227C507.742 323.277 507.739 323.328 507.726 323.376C507.712 323.425 507.69 323.47 507.659 323.51C507.628 323.549 507.59 323.583 507.546 323.607C507.503 323.632 507.454 323.648 507.405 323.654L504.362 324.032L504.313 324.038ZM514.456 322.794C514.359 322.792 514.266 322.754 514.196 322.686C514.126 322.619 514.084 322.528 514.079 322.431C514.074 322.334 514.105 322.239 514.167 322.165C514.229 322.09 514.316 322.041 514.413 322.029L517.455 321.665C517.505 321.657 517.556 321.659 517.605 321.672C517.654 321.684 517.7 321.707 517.74 321.738C517.78 321.769 517.813 321.808 517.838 321.852C517.862 321.897 517.877 321.945 517.882 321.996C517.893 322.096 517.865 322.197 517.803 322.277C517.741 322.356 517.651 322.409 517.551 322.423L514.505 322.787L514.456 322.794ZM524.609 321.585C524.516 321.585 524.426 321.552 524.356 321.491C524.286 321.43 524.241 321.346 524.228 321.254C524.221 321.205 524.225 321.154 524.238 321.106C524.251 321.058 524.274 321.013 524.305 320.973C524.335 320.934 524.374 320.901 524.417 320.876C524.461 320.852 524.509 320.836 524.559 320.831L527.608 320.476C527.657 320.469 527.708 320.472 527.757 320.485C527.805 320.497 527.851 320.52 527.891 320.551C527.93 320.582 527.963 320.621 527.987 320.665C528.012 320.709 528.027 320.757 528.031 320.807C528.038 320.857 528.034 320.907 528.021 320.956C528.008 321.004 527.985 321.049 527.955 321.089C527.924 321.128 527.886 321.161 527.842 321.185C527.798 321.21 527.75 321.225 527.7 321.231L524.652 321.585H524.609ZM534.765 320.423C534.668 320.422 534.575 320.383 534.505 320.316C534.435 320.249 534.394 320.158 534.388 320.061C534.383 319.964 534.414 319.869 534.476 319.794C534.538 319.72 534.626 319.671 534.722 319.659L537.767 319.328C537.817 319.321 537.867 319.325 537.916 319.338C537.964 319.351 538.009 319.374 538.048 319.404C538.088 319.435 538.121 319.474 538.145 319.517C538.17 319.561 538.185 319.609 538.191 319.659C538.202 319.759 538.174 319.859 538.112 319.938C538.05 320.017 537.96 320.069 537.86 320.082L534.811 320.413L534.765 320.423ZM544.924 319.314C544.832 319.315 544.742 319.281 544.672 319.22C544.602 319.159 544.556 319.075 544.544 318.983C544.538 318.934 544.541 318.884 544.555 318.836C544.568 318.788 544.591 318.743 544.622 318.704C544.652 318.665 544.691 318.633 544.734 318.608C544.777 318.584 544.825 318.569 544.875 318.563L547.923 318.232C547.975 318.222 548.029 318.224 548.08 318.235C548.132 318.247 548.18 318.27 548.223 318.301C548.265 318.333 548.3 318.373 548.327 318.419C548.353 318.465 548.369 318.516 548.375 318.568C548.381 318.621 548.376 318.674 548.36 318.724C548.344 318.775 548.318 318.821 548.283 318.861C548.249 318.901 548.206 318.933 548.159 318.956C548.111 318.979 548.059 318.992 548.006 318.993L544.954 319.324L544.924 319.314ZM555.094 318.275C554.997 318.272 554.905 318.233 554.837 318.165C554.768 318.097 554.727 318.006 554.723 317.909C554.718 317.813 554.75 317.718 554.812 317.644C554.874 317.57 554.962 317.523 555.057 317.51L558.113 317.216C558.162 317.21 558.212 317.213 558.259 317.227C558.307 317.24 558.352 317.263 558.391 317.294C558.429 317.325 558.462 317.363 558.486 317.406C558.509 317.45 558.524 317.497 558.53 317.547C558.539 317.648 558.508 317.749 558.442 317.827C558.377 317.905 558.284 317.955 558.182 317.964L555.13 318.258L555.094 318.275ZM587.827 317.391C587.747 317.391 587.669 317.366 587.605 317.32C587.54 317.274 587.491 317.208 587.466 317.133L587.075 316.037L585.681 316.057C585.58 316.057 585.482 316.017 585.41 315.944C585.338 315.872 585.297 315.775 585.297 315.673C585.297 315.571 585.338 315.473 585.41 315.401C585.482 315.329 585.58 315.289 585.681 315.289L587.188 315.269C587.311 315.265 587.432 315.299 587.535 315.367C587.638 315.434 587.718 315.532 587.764 315.647L588.204 316.878C588.221 316.926 588.228 316.976 588.225 317.026C588.223 317.077 588.21 317.126 588.188 317.172C588.166 317.217 588.136 317.258 588.098 317.292C588.06 317.325 588.017 317.351 587.969 317.368C587.923 317.384 587.875 317.392 587.827 317.391ZM565.273 317.332C565.177 317.328 565.085 317.288 565.017 317.22C564.949 317.152 564.909 317.061 564.904 316.964C564.9 316.868 564.932 316.774 564.995 316.7C565.057 316.626 565.144 316.579 565.24 316.567C566.286 316.479 567.306 316.394 568.299 316.312C568.35 316.305 568.403 316.309 568.453 316.323C568.503 316.338 568.55 316.362 568.59 316.395C568.63 316.427 568.664 316.468 568.688 316.514C568.712 316.56 568.727 316.611 568.731 316.663C568.735 316.715 568.728 316.767 568.712 316.816C568.695 316.866 568.668 316.911 568.633 316.95C568.599 316.988 568.556 317.02 568.509 317.041C568.462 317.063 568.41 317.075 568.358 317.077L565.306 317.332H565.273ZM575.466 316.544C575.37 316.539 575.279 316.498 575.212 316.429C575.144 316.361 575.105 316.27 575.102 316.173C575.098 316.077 575.131 315.984 575.194 315.91C575.256 315.837 575.344 315.79 575.439 315.779C576.503 315.708 577.525 315.645 578.505 315.59C578.555 315.584 578.607 315.589 578.656 315.604C578.705 315.62 578.75 315.645 578.788 315.679C578.826 315.714 578.857 315.755 578.878 315.802C578.898 315.849 578.909 315.9 578.908 315.951C578.912 316.001 578.905 316.052 578.888 316.099C578.872 316.147 578.846 316.191 578.812 316.228C578.779 316.266 578.738 316.296 578.693 316.318C578.647 316.34 578.598 316.352 578.548 316.355C577.572 316.41 576.553 316.473 575.489 316.544H575.466Z" fill="white"/>
<path d="M531.954 396.357L510.572 399.091C509.221 399.267 507.853 398.942 506.726 398.177C505.599 397.412 504.792 396.26 504.458 394.94L499.353 374.684C499.163 373.92 499.136 373.125 499.276 372.351C499.415 371.577 499.717 370.841 500.162 370.192C500.607 369.543 501.185 368.996 501.857 368.586C502.529 368.177 503.28 367.915 504.06 367.818L529.746 364.531C530.513 364.429 531.293 364.489 532.035 364.706C532.778 364.923 533.467 365.292 534.059 365.791C534.651 366.289 535.133 366.906 535.473 367.601C535.813 368.296 536.005 369.054 536.035 369.827L536.833 390.636C536.882 392.027 536.408 393.386 535.505 394.444C534.602 395.503 533.335 396.185 531.954 396.357Z" fill="#089A93"/>
<path d="M528.836 392.907L512.562 394.989C511.534 395.123 510.493 394.876 509.635 394.294C508.778 393.712 508.163 392.836 507.908 391.831L504.025 376.412C503.879 375.831 503.859 375.226 503.965 374.637C504.071 374.047 504.301 373.487 504.64 372.994C504.978 372.5 505.418 372.084 505.929 371.772C506.441 371.461 507.012 371.262 507.606 371.188L527.157 368.685C527.74 368.609 528.332 368.655 528.896 368.82C529.46 368.985 529.984 369.266 530.433 369.645C530.883 370.024 531.248 370.492 531.507 371.02C531.765 371.547 531.911 372.123 531.934 372.711L532.543 388.551C532.582 389.609 532.223 390.643 531.537 391.45C530.85 392.256 529.887 392.776 528.836 392.907Z" fill="#04A79F"/>
<path d="M516.122 228.942C521.163 249.797 521.299 270.172 520.531 277.604C520.393 278.959 519.781 280.222 518.803 281.17C517.825 282.117 516.543 282.689 515.185 282.785C511.997 283.006 507.657 283.301 503.781 283.523C499.517 283.771 494.786 281.076 491.622 278.825C491.275 278.58 490.857 278.457 490.433 278.477C490.009 278.496 489.604 278.657 489.282 278.933C488.96 279.209 488.739 279.585 488.655 280.001C488.571 280.417 488.628 280.849 488.818 281.229C490.374 284.271 493.072 286.664 495.753 288.7C497.365 289.925 502.721 292.103 502.347 294.513C502.179 295.269 501.809 295.966 501.278 296.529C498.299 300.101 493.796 302.008 489.361 303.372C488.787 303.493 488.256 303.765 487.821 304.16C487.712 307.033 496.554 310.227 498.838 310.986C502.255 312.15 505.882 312.571 509.474 312.22C518.373 311.283 526.589 305.143 531.382 297.737C544.193 277.941 550.818 254.041 553.231 235.751C541.31 223.827 523.318 226.846 516.122 228.942Z" fill="url(#paint8_linear_64_5037)"/>
<path d="M553.231 237.611C562.735 165.81 507.402 110.599 507.402 110.599L474.48 148.98C499.474 180.133 511.355 208.682 516.784 231.103C523.98 229.021 541.31 225.694 553.231 237.611Z" fill="url(#paint9_linear_64_5037)"/>
<path d="M516.015 230.765C515.557 230.767 515.112 230.614 514.751 230.331C514.391 230.048 514.136 229.652 514.029 229.206C507.339 201.565 493.237 174.201 472.117 147.877C471.778 147.455 471.621 146.916 471.68 146.379C471.739 145.841 472.009 145.349 472.431 145.01C472.853 144.672 473.392 144.515 473.93 144.574C474.467 144.633 474.959 144.903 475.298 145.325C496.792 172.139 511.159 200.022 518.001 228.246C518.065 228.506 518.076 228.777 518.034 229.041C517.993 229.306 517.9 229.559 517.76 229.788C517.621 230.016 517.437 230.215 517.221 230.372C517.004 230.53 516.759 230.643 516.499 230.706C516.34 230.745 516.178 230.765 516.015 230.765Z" fill="url(#paint10_linear_64_5037)"/>
<path d="M87.5154 325.776C87.5154 325.776 106.053 453.05 119.404 604.509C119.652 607.329 117.418 609.782 114.634 610.365C110.549 611.226 104.547 612.249 99.5784 612.109C98.2908 612.066 97.058 611.578 96.0889 610.729C95.1199 609.88 94.4744 608.722 94.2619 607.452C89.7102 580.747 57.2157 437.432 48.6882 405.89C48.6882 405.89 38.8928 539.874 42.0244 609.385C42.0597 610.217 41.7801 611.032 41.2414 611.667C40.7027 612.302 39.9445 612.71 39.1179 612.811C35.1 613.241 31.0472 613.23 27.0318 612.778C26.0533 612.681 25.1353 612.26 24.4234 611.582C23.7115 610.903 23.2466 610.007 23.1024 609.034C19.8582 586.434 1.19108 451.911 1.98557 355.007C2.0286 349.541 8.39774 304.64 8.39774 304.64L87.5154 325.776Z" fill="url(#paint11_linear_64_5037)"/>
<path d="M5.61312 333.112C4.68083 332.778 3.86266 332.185 3.25378 331.404C2.64489 330.623 2.27034 329.685 2.17366 328.699C-0.289246 304.802 -12.2165 156.636 63.0843 95.6893C63.0843 95.6893 67.3878 84.3911 102.891 112.162C138.395 139.932 119.38 169.037 110.883 209.182C100.601 257.761 82.5625 297.473 90.5438 327.362C90.815 328.357 90.705 329.418 90.2354 330.336C89.7658 331.255 88.9704 331.965 88.0048 332.327C60.4261 342.497 32.9666 342.831 5.61312 333.112Z" fill="#00B2A9"/>
<path d="M92.4434 51.2941C92.4202 53.4028 62.3555 96.1065 62.3555 96.1065C62.3555 96.1065 67.7514 106.733 93.5126 115.363L115.752 69.6401L92.4434 51.2941Z" fill="url(#paint12_linear_64_5037)"/>
<path d="M116.125 26.8271C116.125 26.8271 126.824 51.4 127.543 64.2971C128.261 77.1943 131.038 85.563 116.125 88.1616C101.212 90.7602 88.649 83.3284 81.8429 70.4809C81.8429 70.4809 71.1803 50.6849 73.567 42.5778C75.9538 34.4708 116.125 26.8271 116.125 26.8271Z" fill="url(#paint13_linear_64_5037)"/>
<path d="M86.9264 61.245L87.7772 60.871C88.0328 60.758 88.2627 60.594 88.4526 60.3889C88.6425 60.1839 88.7885 59.9421 88.8815 59.6786C88.9745 59.415 89.0126 59.1352 88.9935 58.8564C88.9744 58.5775 88.8984 58.3056 88.7703 58.0572C86.6682 53.9953 82.5667 44.6833 87.8633 42.4984C94.6892 39.6979 121.725 34.1861 127.558 24.5927C133.166 15.3733 128.197 3.46926 120.732 0.0959996C120.495 -0.0172465 120.223 -0.0350564 119.973 0.0462552C119.723 0.127567 119.513 0.301776 119.388 0.53295L118.766 1.71146C118.67 1.88908 118.524 2.0344 118.346 2.12893C118.169 2.22347 117.966 2.26294 117.766 2.24236C117.566 2.22178 117.376 2.14208 117.221 2.01336C117.066 1.88464 116.952 1.71273 116.895 1.51947C116.848 1.32702 116.744 1.15302 116.598 1.01993C116.451 0.886832 116.268 0.8007 116.071 0.77258C115.875 0.744459 115.675 0.775635 115.497 0.862127C115.319 0.94862 115.17 1.08648 115.071 1.25794C113.277 4.12803 108.45 8.77907 95.4904 11.1692C77.0947 14.5656 64.929 22.0106 64.6278 34.7257C64.6245 34.907 64.5728 35.0841 64.478 35.2386C64.3833 35.3931 64.2488 35.5195 64.0888 35.6046C63.9287 35.6897 63.7488 35.7304 63.5676 35.7226C63.3865 35.7147 63.2108 35.6586 63.0587 35.5599C61.7014 34.7323 59.5265 34.345 56.62 36.7881C51.5684 41.0353 53.6407 52.0555 64.7139 61.1226C64.8409 61.2182 64.9432 61.343 65.012 61.4863C65.0809 61.6297 65.1142 61.7875 65.1094 61.9465C65.1045 62.1054 65.0615 62.2609 64.9841 62.3998C64.9066 62.5387 64.7969 62.657 64.6642 62.7446C62.6548 64.0688 59.6623 67.164 67.4184 71.3086C75.4428 75.612 81.4345 75.2446 83.7386 74.8639C83.8754 74.8439 84.0065 74.7955 84.1236 74.7218C84.2406 74.6482 84.341 74.5509 84.4183 74.4362C84.4956 74.3215 84.5481 74.192 84.5724 74.0559C84.5967 73.9197 84.5923 73.78 84.5595 73.6457L82.0966 62.4732C82.0638 62.3248 82.0649 62.171 82.0996 62.0231C82.1343 61.8752 82.2019 61.737 82.2972 61.6188C82.3926 61.5005 82.5133 61.4053 82.6505 61.34C82.7877 61.2747 82.9378 61.2411 83.0897 61.2417L86.9264 61.245Z" fill="url(#paint14_linear_64_5037)"/>
<path d="M87.3908 63.602C87.3908 63.602 83.3124 47.9042 76.2746 52.307C69.2367 56.7098 79.916 69.895 85.5833 70.4809L87.3908 63.602Z" fill="url(#paint15_linear_64_5037)"/>
<path d="M114.301 125.059L116.373 180.729C121.888 182.641 127.507 184.237 133.203 185.509C136.543 174.761 143.895 161.569 149.914 151.744C127.797 143.928 114.301 125.059 114.301 125.059Z" fill="#00B2A9"/>
<path d="M224.724 124.099C194.385 156.871 169.828 158.785 149.91 151.747C143.892 161.556 136.539 174.747 133.199 185.513C214.22 203.389 233.301 128.906 233.301 128.906L224.724 124.099Z" fill="url(#paint16_linear_64_5037)"/>
<path d="M230.875 120.62C230.875 120.62 234.371 116.869 240.839 118.048C247.308 119.226 253.064 121.474 257.096 118.048C261.128 114.621 262.542 119.219 262.542 119.219L250.476 128.393L230.875 120.62Z" fill="url(#paint17_linear_64_5037)"/>
<path d="M223.656 127.045C223.656 127.045 226.05 117.035 233.256 118.405C240.463 119.776 256.856 128.687 261.08 127.045C265.304 125.403 270.7 121.477 273.471 122.864L268.591 128.932C268.591 128.932 281.134 121.696 283.292 126.141L262.437 137.887C262.437 137.887 231.899 134.818 223.656 127.045Z" fill="url(#paint18_linear_64_5037)"/>
<path d="M80.6211 197.907C80.6211 197.907 137.662 245.679 199.255 224.833C201.14 224.186 203.138 223.929 205.126 224.079C207.114 224.229 209.05 224.782 210.818 225.704L228.525 235.059C232.104 236.948 236.272 237.393 240.17 236.302C244.067 235.21 247.398 232.666 249.476 229.193C251.936 225.075 254.035 220.378 254.442 215.872L219.802 201.859L222.358 197.612C222.358 197.612 205.442 196.179 201.012 208.301C201.012 208.301 168.793 221.705 114.45 161.933C114.45 161.92 89.7908 182.888 80.6211 197.907Z" fill="url(#paint19_linear_64_5037)"/>
<path d="M77.5531 197.414C77.358 197.415 77.1673 197.356 77.0069 197.245C52.9902 181.024 41.6919 154.829 41.586 154.564C41.5311 154.445 41.5007 154.317 41.4966 154.186C41.4924 154.055 41.5146 153.925 41.5618 153.803C41.6089 153.681 41.6802 153.57 41.7713 153.476C41.8623 153.382 41.9713 153.307 42.0918 153.256C42.2123 153.205 42.3418 153.178 42.4726 153.178C42.6035 153.178 42.733 153.205 42.8535 153.256C42.974 153.307 43.083 153.382 43.174 153.476C43.2651 153.57 43.3363 153.681 43.3835 153.803C43.4928 154.058 54.5825 179.733 78.1059 195.629C78.2785 195.747 78.409 195.916 78.4782 196.113C78.5475 196.31 78.5519 196.523 78.4909 196.723C78.4298 196.922 78.3064 197.097 78.1389 197.221C77.9713 197.346 77.7683 197.413 77.5597 197.414H77.5531Z" fill="#04A79F"/>
<path d="M113.322 161.112C113.158 161.11 112.998 161.068 112.855 160.99C112.712 160.911 112.59 160.799 112.501 160.662C112.428 160.549 105.092 149.129 91.1158 124.106C86.8123 116.409 81.1847 111.526 74.3289 109.623C63.0009 106.458 52.08 112.532 51.974 112.602C51.7546 112.679 51.5152 112.676 51.2974 112.595C51.0797 112.513 50.8974 112.358 50.7824 112.156C50.6673 111.954 50.6269 111.718 50.668 111.489C50.7091 111.26 50.8293 111.053 51.0074 110.904C51.4808 110.639 62.7096 104.356 74.8421 107.749C82.2109 109.805 88.2623 114.989 92.8239 123.162C106.764 148.122 114.073 159.503 114.146 159.616C114.241 159.763 114.295 159.934 114.301 160.109C114.308 160.285 114.267 160.459 114.183 160.613C114.099 160.767 113.975 160.896 113.824 160.985C113.673 161.075 113.501 161.122 113.325 161.122L113.322 161.112Z" fill="#04A79F"/>
</g>
<defs>
<linearGradient id="paint0_linear_64_5037" x1="215" y1="223.354" x2="225.779" y2="219.616" gradientUnits="userSpaceOnUse">
<stop stop-color="#FEBBBA"/>
<stop offset="1" stop-color="#FF928E"/>
</linearGradient>
<linearGradient id="paint1_linear_64_5037" x1="291.73" y1="243.438" x2="448.711" y2="72.3216" gradientUnits="userSpaceOnUse">
<stop stop-color="#09005D"/>
<stop offset="1" stop-color="#1A0F91"/>
</linearGradient>
<linearGradient id="paint2_linear_64_5037" x1="316889" y1="512706" x2="422656" y2="436390" gradientUnits="userSpaceOnUse">
<stop stop-color="#09005D"/>
<stop offset="1" stop-color="#1A0F91"/>
</linearGradient>
<linearGradient id="paint3_linear_64_5037" x1="57966.3" y1="73564.9" x2="56179.6" y2="66747.7" gradientUnits="userSpaceOnUse">
<stop stop-color="#FEBBBA"/>
<stop offset="1" stop-color="#FF928E"/>
</linearGradient>
<linearGradient id="paint4_linear_64_5037" x1="115981" y1="82224.2" x2="125629" y2="86014.5" gradientUnits="userSpaceOnUse">
<stop stop-color="#FEBBBA"/>
<stop offset="1" stop-color="#FF928E"/>
</linearGradient>
<linearGradient id="paint5_linear_64_5037" x1="-627640" y1="67222.3" x2="-638546" y2="55684.3" gradientUnits="userSpaceOnUse">
<stop stop-color="#09005D"/>
<stop offset="1" stop-color="#1A0F91"/>
</linearGradient>
<linearGradient id="paint6_linear_64_5037" x1="41937.8" y1="24769.8" x2="45204" y2="26338.3" gradientUnits="userSpaceOnUse">
<stop stop-color="#FEBBBA"/>
<stop offset="1" stop-color="#FF928E"/>
</linearGradient>
<linearGradient id="paint7_linear_64_5037" x1="82464.2" y1="1.01329e+06" x2="-281578" y2="712716" gradientUnits="userSpaceOnUse">
<stop stop-color="#09005D"/>
<stop offset="1" stop-color="#1A0F91"/>
</linearGradient>
<linearGradient id="paint8_linear_64_5037" x1="168033" y1="169397" x2="152046" y2="192959" gradientUnits="userSpaceOnUse">
<stop stop-color="#FEBBBA"/>
<stop offset="1" stop-color="#FF928E"/>
</linearGradient>
<linearGradient id="paint9_linear_64_5037" x1="169155" y1="286387" x2="225534" y2="247751" gradientUnits="userSpaceOnUse">
<stop stop-color="#09005D"/>
<stop offset="1" stop-color="#1A0F91"/>
</linearGradient>
<linearGradient id="paint10_linear_64_5037" x1="114461" y1="151079" x2="129819" y2="118523" gradientUnits="userSpaceOnUse">
<stop stop-color="#09005D"/>
<stop offset="1" stop-color="#1A0F91"/>
</linearGradient>
<linearGradient id="paint11_linear_64_5037" x1="151002" y1="666930" x2="-88012.9" y2="954973" gradientUnits="userSpaceOnUse">
<stop stop-color="#09005D"/>
<stop offset="1" stop-color="#1A0F91"/>
</linearGradient>
<linearGradient id="paint12_linear_64_5037" x1="59072.1" y1="101174" x2="70027.6" y2="95738.7" gradientUnits="userSpaceOnUse">
<stop stop-color="#FEBBBA"/>
<stop offset="1" stop-color="#FF928E"/>
</linearGradient>
<linearGradient id="paint13_linear_64_5037" x1="72180.5" y1="92962.5" x2="65109.4" y2="83723" gradientUnits="userSpaceOnUse">
<stop stop-color="#FEBBBA"/>
<stop offset="1" stop-color="#FF928E"/>
</linearGradient>
<linearGradient id="paint14_linear_64_5037" x1="84128.5" y1="91640.3" x2="95802.2" y2="105472" gradientUnits="userSpaceOnUse">
<stop stop-color="#09005D"/>
<stop offset="1" stop-color="#1A0F91"/>
</linearGradient>
<linearGradient id="paint15_linear_64_5037" x1="16973.3" y1="29219.6" x2="14731.4" y2="26884.1" gradientUnits="userSpaceOnUse">
<stop stop-color="#FEBBBA"/>
<stop offset="1" stop-color="#FF928E"/>
</linearGradient>
<linearGradient id="paint16_linear_64_5037" x1="174716" y1="103844" x2="143823" y2="127812" gradientUnits="userSpaceOnUse">
<stop stop-color="#FEBBBA"/>
<stop offset="1" stop-color="#FF928E"/>
</linearGradient>
<linearGradient id="paint17_linear_64_5037" x1="55275.9" y1="18310" x2="54290.7" y2="21115.7" gradientUnits="userSpaceOnUse">
<stop stop-color="#FEBBBA"/>
<stop offset="1" stop-color="#FF928E"/>
</linearGradient>
<linearGradient id="paint18_linear_64_5037" x1="104345" y1="31762.4" x2="95378.8" y2="45325.5" gradientUnits="userSpaceOnUse">
<stop stop-color="#FEBBBA"/>
<stop offset="1" stop-color="#FF928E"/>
</linearGradient>
<linearGradient id="paint19_linear_64_5037" x1="332347" y1="146183" x2="156768" y2="72554.4" gradientUnits="userSpaceOnUse">
<stop stop-color="#FEBBBA"/>
<stop offset="1" stop-color="#FF928E"/>
</linearGradient>
<clipPath id="clip0_64_5037">
<rect width="651.364" height="662" fill="white"/>
</clipPath>
</defs>
</svg>
