<svg width="702" height="567" viewBox="0 0 702 567" fill="none" xmlns="http://www.w3.org/2000/svg">
<g clip-path="url(#clip0_1_48)">
<path d="M484.94 220.813C484.556 220.814 484.183 220.681 483.886 220.438L419.973 168.516L356.971 214.663C356.629 214.916 356.202 215.028 355.779 214.977C355.356 214.925 354.969 214.713 354.698 214.385L267.058 109.246C257.094 117.986 192.527 174.599 183.932 182.115C183.766 182.26 183.574 182.371 183.365 182.441C183.157 182.511 182.937 182.54 182.718 182.525C182.498 182.511 182.284 182.453 182.087 182.355C181.89 182.258 181.714 182.123 181.57 181.957C181.425 181.792 181.314 181.599 181.244 181.391C181.174 181.183 181.145 180.963 181.16 180.743C181.174 180.524 181.232 180.31 181.329 180.113C181.427 179.916 181.562 179.74 181.728 179.595C191.045 171.447 266.142 105.6 266.142 105.6C266.31 105.451 266.505 105.338 266.717 105.267C266.929 105.195 267.154 105.168 267.377 105.185C267.6 105.202 267.817 105.264 268.016 105.368C268.214 105.471 268.39 105.613 268.532 105.785L356.26 211.032L419.038 165.052C419.336 164.832 419.699 164.718 420.07 164.727C420.44 164.737 420.797 164.869 421.083 165.105L484.901 216.95L519.073 187.086C519.407 186.794 519.843 186.646 520.286 186.676C520.729 186.706 521.142 186.91 521.434 187.244C521.727 187.578 521.874 188.015 521.844 188.458C521.815 188.901 521.61 189.314 521.276 189.606L486.028 220.413C485.725 220.673 485.339 220.814 484.94 220.813Z" fill="#91B3FA"/>
<path d="M268.563 277.343C268.268 277.343 267.986 277.226 267.778 277.018C267.569 276.81 267.452 276.527 267.452 276.233V272.886C267.452 272.591 267.569 272.309 267.778 272.101C267.986 271.892 268.268 271.775 268.563 271.775C268.857 271.775 269.139 271.892 269.348 272.101C269.556 272.309 269.673 272.591 269.673 272.886V276.233C269.673 276.527 269.556 276.81 269.348 277.018C269.139 277.226 268.857 277.343 268.563 277.343ZM268.563 266.186C268.268 266.186 267.986 266.069 267.778 265.861C267.569 265.652 267.452 265.37 267.452 265.076V261.726C267.452 261.431 267.569 261.149 267.778 260.941C267.986 260.732 268.268 260.615 268.563 260.615C268.857 260.615 269.139 260.732 269.348 260.941C269.556 261.149 269.673 261.431 269.673 261.726V265.076C269.673 265.37 269.556 265.652 269.348 265.861C269.139 266.069 268.857 266.186 268.563 266.186ZM268.563 255.026C268.268 255.026 267.986 254.909 267.778 254.701C267.569 254.492 267.452 254.21 267.452 253.915V250.568C267.452 250.274 267.569 249.992 267.778 249.783C267.986 249.575 268.268 249.458 268.563 249.458C268.857 249.458 269.139 249.575 269.348 249.783C269.556 249.992 269.673 250.274 269.673 250.568V253.915C269.673 254.21 269.556 254.492 269.348 254.701C269.139 254.909 268.857 255.026 268.563 255.026ZM268.563 243.866C268.268 243.866 267.986 243.749 267.778 243.541C267.569 243.332 267.452 243.05 267.452 242.756V239.408C267.452 239.114 267.569 238.832 267.778 238.623C267.986 238.415 268.268 238.298 268.563 238.298C268.857 238.298 269.139 238.415 269.348 238.623C269.556 238.832 269.673 239.114 269.673 239.408V242.756C269.673 243.05 269.556 243.332 269.348 243.541C269.139 243.749 268.857 243.866 268.563 243.866ZM268.563 232.708C268.268 232.708 267.986 232.591 267.778 232.383C267.569 232.175 267.452 231.893 267.452 231.598V228.257C267.452 227.962 267.569 227.68 267.778 227.472C267.986 227.263 268.268 227.146 268.563 227.146C268.857 227.146 269.139 227.263 269.348 227.472C269.556 227.68 269.673 227.962 269.673 228.257V231.587C269.673 231.882 269.556 232.164 269.348 232.372C269.139 232.58 268.857 232.697 268.563 232.697V232.708ZM268.563 221.548C268.268 221.548 267.986 221.432 267.778 221.223C267.569 221.015 267.452 220.733 267.452 220.438V217.091C267.452 216.797 267.569 216.514 267.778 216.306C267.986 216.098 268.268 215.981 268.563 215.981C268.857 215.981 269.139 216.098 269.348 216.306C269.556 216.514 269.673 216.797 269.673 217.091V220.438C269.673 220.584 269.644 220.728 269.588 220.863C269.532 220.998 269.451 221.12 269.348 221.223C269.245 221.326 269.122 221.408 268.987 221.464C268.853 221.52 268.708 221.548 268.563 221.548ZM268.563 210.391C268.268 210.391 267.986 210.274 267.778 210.066C267.569 209.858 267.452 209.576 267.452 209.281V205.931C267.452 205.637 267.569 205.354 267.778 205.146C267.986 204.938 268.268 204.821 268.563 204.821C268.857 204.821 269.139 204.938 269.348 205.146C269.556 205.354 269.673 205.637 269.673 205.931V209.281C269.673 209.427 269.644 209.571 269.588 209.706C269.532 209.841 269.451 209.963 269.348 210.066C269.245 210.169 269.122 210.251 268.987 210.307C268.853 210.363 268.708 210.391 268.563 210.391ZM268.563 199.231C268.268 199.231 267.986 199.114 267.778 198.906C267.569 198.698 267.452 198.416 267.452 198.121V194.774C267.452 194.479 267.569 194.197 267.778 193.989C267.986 193.781 268.268 193.664 268.563 193.664C268.857 193.664 269.139 193.781 269.348 193.989C269.556 194.197 269.673 194.479 269.673 194.774V198.121C269.673 198.267 269.644 198.411 269.588 198.546C269.532 198.681 269.451 198.803 269.348 198.906C269.245 199.009 269.122 199.091 268.987 199.147C268.853 199.203 268.708 199.231 268.563 199.231ZM268.563 188.074C268.268 188.074 267.986 187.957 267.778 187.749C267.569 187.541 267.452 187.258 267.452 186.964V183.617C267.452 183.322 267.569 183.04 267.778 182.832C267.986 182.623 268.268 182.507 268.563 182.507C268.857 182.507 269.139 182.623 269.348 182.832C269.556 183.04 269.673 183.322 269.673 183.617V186.964C269.673 187.11 269.644 187.254 269.588 187.389C269.532 187.523 269.451 187.646 269.348 187.749C269.245 187.852 269.122 187.934 268.987 187.99C268.853 188.045 268.708 188.074 268.563 188.074ZM268.563 176.914C268.268 176.914 267.986 176.797 267.778 176.589C267.569 176.381 267.452 176.098 267.452 175.804V172.457C267.452 172.162 267.569 171.88 267.778 171.672C267.986 171.463 268.268 171.346 268.563 171.346C268.857 171.346 269.139 171.463 269.348 171.672C269.556 171.88 269.673 172.162 269.673 172.457V175.801C269.673 176.096 269.556 176.378 269.348 176.586C269.139 176.794 268.857 176.911 268.563 176.911V176.914ZM268.563 165.754C268.268 165.754 267.986 165.637 267.778 165.429C267.569 165.221 267.452 164.938 267.452 164.644V161.297C267.452 161.002 267.569 160.72 267.778 160.512C267.986 160.303 268.268 160.187 268.563 160.187C268.857 160.187 269.139 160.303 269.348 160.512C269.556 160.72 269.673 161.002 269.673 161.297V164.644C269.673 164.79 269.644 164.934 269.588 165.069C269.532 165.203 269.451 165.326 269.348 165.429C269.245 165.532 269.122 165.614 268.987 165.67C268.853 165.725 268.708 165.754 268.563 165.754ZM268.563 154.597C268.268 154.597 267.986 154.48 267.778 154.272C267.569 154.063 267.452 153.781 267.452 153.487V150.137C267.452 149.842 267.569 149.56 267.778 149.352C267.986 149.143 268.268 149.027 268.563 149.027C268.857 149.027 269.139 149.143 269.348 149.352C269.556 149.56 269.673 149.842 269.673 150.137V153.487C269.673 153.632 269.644 153.777 269.588 153.911C269.532 154.046 269.451 154.169 269.348 154.272C269.245 154.375 269.122 154.457 268.987 154.512C268.853 154.568 268.708 154.597 268.563 154.597ZM268.563 143.437C268.268 143.437 267.986 143.32 267.778 143.112C267.569 142.903 267.452 142.621 267.452 142.327V138.979C267.452 138.685 267.569 138.403 267.778 138.194C267.986 137.986 268.268 137.869 268.563 137.869C268.857 137.869 269.139 137.986 269.348 138.194C269.556 138.403 269.673 138.685 269.673 138.979V142.327C269.673 142.472 269.644 142.617 269.588 142.751C269.532 142.886 269.451 143.009 269.348 143.112C269.245 143.215 269.122 143.297 268.987 143.352C268.853 143.408 268.708 143.437 268.563 143.437ZM268.563 132.28C268.268 132.28 267.986 132.163 267.778 131.954C267.569 131.746 267.452 131.464 267.452 131.169V127.814C267.452 127.519 267.569 127.237 267.778 127.029C267.986 126.821 268.268 126.704 268.563 126.704C268.857 126.704 269.139 126.821 269.348 127.029C269.556 127.237 269.673 127.519 269.673 127.814V131.161C269.674 131.308 269.646 131.453 269.591 131.588C269.535 131.724 269.454 131.847 269.351 131.951C269.247 132.055 269.125 132.138 268.989 132.194C268.854 132.251 268.709 132.28 268.563 132.28Z" fill="#91B3FA"/>
<path d="M355.983 279.397C355.689 279.397 355.406 279.28 355.198 279.072C354.99 278.863 354.873 278.581 354.873 278.287V274.939C354.873 274.645 354.99 274.363 355.198 274.155C355.406 273.946 355.689 273.829 355.983 273.829C356.277 273.829 356.56 273.946 356.768 274.155C356.976 274.363 357.093 274.645 357.093 274.939V278.287C357.093 278.581 356.976 278.863 356.768 279.072C356.56 279.28 356.277 279.397 355.983 279.397ZM355.983 268.237C355.689 268.237 355.406 268.12 355.198 267.912C354.99 267.703 354.873 267.421 354.873 267.127V263.782C354.873 263.488 354.99 263.205 355.198 262.997C355.406 262.789 355.689 262.672 355.983 262.672C356.277 262.672 356.56 262.789 356.768 262.997C356.976 263.205 357.093 263.488 357.093 263.782V267.113C357.095 267.26 357.068 267.406 357.013 267.542C356.958 267.678 356.876 267.802 356.773 267.907C356.67 268.011 356.547 268.094 356.411 268.151C356.275 268.208 356.13 268.237 355.983 268.237ZM355.983 257.08C355.689 257.08 355.406 256.963 355.198 256.754C354.99 256.546 354.873 256.264 354.873 255.969V252.62C354.873 252.325 354.99 252.043 355.198 251.834C355.406 251.626 355.689 251.509 355.983 251.509C356.277 251.509 356.56 251.626 356.768 251.834C356.976 252.043 357.093 252.325 357.093 252.62V255.969C357.093 256.264 356.976 256.546 356.768 256.754C356.56 256.963 356.277 257.08 355.983 257.08ZM355.983 245.92C355.689 245.92 355.406 245.803 355.198 245.594C354.99 245.386 354.873 245.104 354.873 244.809V241.462C354.873 241.168 354.99 240.885 355.198 240.677C355.406 240.469 355.689 240.352 355.983 240.352C356.277 240.352 356.56 240.469 356.768 240.677C356.976 240.885 357.093 241.168 357.093 241.462V244.809C357.093 245.104 356.976 245.386 356.768 245.594C356.56 245.803 356.277 245.92 355.983 245.92ZM355.983 234.76C355.689 234.76 355.406 234.643 355.198 234.434C354.99 234.226 354.873 233.944 354.873 233.649V230.302C354.873 230.008 354.99 229.725 355.198 229.517C355.406 229.309 355.689 229.192 355.983 229.192C356.277 229.192 356.56 229.309 356.768 229.517C356.976 229.725 357.093 230.008 357.093 230.302V233.649C357.093 233.944 356.976 234.226 356.768 234.434C356.56 234.643 356.277 234.76 355.983 234.76ZM355.983 223.602C355.689 223.602 355.406 223.485 355.198 223.277C354.99 223.069 354.873 222.787 354.873 222.492V219.145C354.873 218.851 354.99 218.568 355.198 218.36C355.406 218.152 355.689 218.035 355.983 218.035C356.277 218.035 356.56 218.152 356.768 218.36C356.976 218.568 357.093 218.851 357.093 219.145V222.492C357.093 222.638 357.064 222.782 357.009 222.917C356.953 223.052 356.871 223.174 356.768 223.277C356.665 223.38 356.543 223.462 356.408 223.518C356.273 223.574 356.129 223.602 355.983 223.602Z" fill="#91B3FA"/>
<path d="M422.413 281.545C422.124 281.545 421.846 281.432 421.638 281.231C421.431 281.029 421.311 280.754 421.303 280.465L421.197 277.118C421.192 276.972 421.216 276.826 421.268 276.688C421.319 276.551 421.397 276.426 421.498 276.319C421.598 276.212 421.719 276.126 421.852 276.066C421.986 276.006 422.13 275.973 422.277 275.969C422.425 275.959 422.573 275.979 422.713 276.029C422.852 276.078 422.98 276.156 423.088 276.258C423.196 276.359 423.282 276.482 423.341 276.618C423.4 276.754 423.429 276.901 423.429 277.049L423.531 280.396C423.537 280.542 423.513 280.688 423.461 280.826C423.41 280.963 423.331 281.089 423.231 281.195C423.131 281.302 423.01 281.388 422.876 281.448C422.743 281.508 422.598 281.541 422.452 281.545H422.413ZM422.066 270.393C421.776 270.393 421.498 270.28 421.291 270.078C421.083 269.876 420.963 269.6 420.956 269.311L420.85 265.966C420.841 265.672 420.949 265.386 421.151 265.171C421.353 264.957 421.631 264.831 421.926 264.822C422.22 264.812 422.506 264.921 422.721 265.122C422.936 265.324 423.062 265.603 423.071 265.897L423.173 269.241C423.179 269.388 423.155 269.535 423.104 269.672C423.053 269.81 422.974 269.936 422.874 270.043C422.774 270.15 422.653 270.236 422.519 270.296C422.385 270.356 422.241 270.389 422.094 270.393H422.066ZM421.722 259.239C421.433 259.239 421.155 259.126 420.947 258.925C420.74 258.723 420.62 258.448 420.612 258.159L420.509 254.812C420.5 254.518 420.608 254.232 420.81 254.017C421.011 253.802 421.29 253.676 421.584 253.667C421.879 253.658 422.165 253.766 422.38 253.968C422.594 254.169 422.72 254.448 422.729 254.743L422.835 258.09C422.84 258.237 422.816 258.383 422.764 258.52C422.713 258.658 422.634 258.783 422.533 258.89C422.433 258.997 422.312 259.083 422.178 259.143C422.044 259.203 421.899 259.235 421.752 259.239H421.722ZM421.375 248.087C421.085 248.087 420.807 247.974 420.6 247.772C420.392 247.57 420.272 247.294 420.265 247.005L420.162 243.674C420.156 243.528 420.18 243.381 420.231 243.244C420.283 243.106 420.361 242.98 420.461 242.873C420.562 242.766 420.683 242.68 420.816 242.62C420.95 242.559 421.095 242.526 421.242 242.522C421.389 242.515 421.536 242.537 421.675 242.587C421.813 242.638 421.94 242.716 422.048 242.817C422.155 242.917 422.242 243.039 422.301 243.174C422.36 243.309 422.392 243.455 422.393 243.602L422.496 246.949C422.501 247.096 422.477 247.242 422.426 247.379C422.374 247.516 422.296 247.642 422.196 247.749C422.095 247.856 421.975 247.941 421.841 248.001C421.707 248.061 421.563 248.094 421.417 248.098L421.375 248.087ZM421.028 236.933C420.738 236.933 420.46 236.82 420.253 236.617C420.045 236.415 419.925 236.14 419.918 235.85L419.812 232.52C419.807 232.373 419.83 232.227 419.882 232.089C419.933 231.952 420.011 231.826 420.112 231.719C420.212 231.611 420.333 231.525 420.467 231.465C420.601 231.405 420.745 231.372 420.892 231.368C421.04 231.36 421.187 231.382 421.326 231.432C421.465 231.483 421.592 231.561 421.7 231.662C421.808 231.763 421.894 231.885 421.953 232.021C422.012 232.156 422.043 232.303 422.044 232.45L422.146 235.781C422.152 235.928 422.128 236.074 422.077 236.212C422.026 236.349 421.947 236.475 421.847 236.582C421.747 236.689 421.626 236.775 421.492 236.836C421.358 236.896 421.214 236.929 421.067 236.933H421.028ZM420.684 225.778C420.395 225.778 420.117 225.666 419.909 225.464C419.702 225.262 419.582 224.988 419.574 224.699L419.471 221.351C419.466 221.206 419.491 221.06 419.542 220.924C419.594 220.788 419.672 220.663 419.772 220.556C419.871 220.45 419.991 220.364 420.124 220.304C420.257 220.244 420.401 220.211 420.546 220.207C420.692 220.202 420.837 220.226 420.974 220.278C421.11 220.329 421.235 220.407 421.342 220.507C421.448 220.607 421.534 220.727 421.594 220.86C421.654 220.993 421.687 221.136 421.691 221.282L421.797 224.629C421.802 224.776 421.778 224.922 421.726 225.06C421.675 225.197 421.596 225.323 421.495 225.43C421.395 225.537 421.274 225.622 421.14 225.682C421.006 225.742 420.861 225.775 420.714 225.778H420.684ZM420.337 214.624C420.048 214.624 419.77 214.511 419.562 214.31C419.355 214.108 419.235 213.833 419.227 213.544L419.124 210.197C419.119 210.051 419.143 209.904 419.194 209.767C419.246 209.63 419.324 209.504 419.424 209.398C419.525 209.291 419.645 209.205 419.779 209.145C419.913 209.085 420.057 209.052 420.204 209.048C420.499 209.041 420.786 209.15 421.002 209.353C421.218 209.555 421.345 209.835 421.355 210.13L421.458 213.461C421.463 213.608 421.439 213.754 421.388 213.891C421.336 214.029 421.257 214.154 421.157 214.261C421.056 214.368 420.935 214.454 420.801 214.514C420.667 214.574 420.522 214.606 420.376 214.61L420.337 214.624ZM419.99 203.472C419.7 203.472 419.422 203.359 419.215 203.157C419.007 202.955 418.887 202.679 418.88 202.39L418.777 199.059C418.771 198.913 418.795 198.766 418.847 198.629C418.898 198.491 418.976 198.365 419.076 198.258C419.177 198.151 419.298 198.065 419.431 198.005C419.565 197.944 419.71 197.911 419.857 197.907C420.004 197.902 420.15 197.926 420.288 197.977C420.426 198.029 420.552 198.107 420.659 198.208C420.766 198.309 420.852 198.43 420.912 198.564C420.972 198.698 421.005 198.843 421.009 198.99L421.111 202.32C421.117 202.467 421.093 202.613 421.042 202.751C420.99 202.889 420.912 203.015 420.812 203.122C420.711 203.229 420.591 203.315 420.457 203.375C420.323 203.435 420.178 203.468 420.032 203.472H419.99ZM419.646 192.318C419.357 192.318 419.079 192.205 418.871 192.003C418.664 191.802 418.544 191.527 418.536 191.238L418.43 187.891C418.425 187.744 418.449 187.598 418.501 187.461C418.552 187.323 418.631 187.197 418.732 187.09C418.832 186.984 418.953 186.898 419.087 186.838C419.221 186.778 419.366 186.745 419.513 186.742C419.66 186.733 419.808 186.754 419.947 186.804C420.086 186.854 420.213 186.932 420.32 187.033C420.428 187.135 420.514 187.257 420.572 187.392C420.631 187.528 420.662 187.674 420.662 187.822L420.767 191.169C420.772 191.315 420.748 191.462 420.697 191.599C420.645 191.736 420.566 191.862 420.466 191.969C420.365 192.076 420.244 192.162 420.11 192.222C419.976 192.281 419.831 192.314 419.685 192.318H419.646ZM419.299 181.166C419.009 181.166 418.731 181.053 418.523 180.851C418.316 180.649 418.196 180.373 418.189 180.084L418.086 176.739C418.08 176.593 418.104 176.446 418.155 176.309C418.207 176.171 418.285 176.045 418.385 175.938C418.486 175.831 418.606 175.745 418.74 175.685C418.874 175.624 419.019 175.591 419.166 175.587C419.313 175.578 419.461 175.599 419.6 175.649C419.739 175.699 419.867 175.777 419.974 175.878C420.082 175.979 420.168 176.102 420.226 176.237C420.285 176.373 420.315 176.519 420.315 176.667L420.42 180.014C420.425 180.161 420.401 180.307 420.35 180.444C420.298 180.581 420.22 180.707 420.12 180.814C420.019 180.921 419.899 181.006 419.765 181.066C419.631 181.126 419.487 181.159 419.34 181.163L419.299 181.166Z" fill="#91B3FA"/>
<path d="M485.773 272.386C485.479 272.386 485.196 272.269 484.988 272.061C484.78 271.853 484.663 271.57 484.663 271.276V267.929C484.663 267.634 484.78 267.352 484.988 267.144C485.196 266.935 485.479 266.818 485.773 266.818C486.068 266.818 486.35 266.935 486.558 267.144C486.766 267.352 486.883 267.634 486.883 267.929V271.276C486.883 271.57 486.766 271.853 486.558 272.061C486.35 272.269 486.068 272.386 485.773 272.386ZM485.773 261.226C485.479 261.226 485.196 261.109 484.988 260.901C484.78 260.693 484.663 260.41 484.663 260.116V256.769C484.663 256.474 484.78 256.192 484.988 255.984C485.196 255.775 485.479 255.658 485.773 255.658C486.068 255.658 486.35 255.775 486.558 255.984C486.766 256.192 486.883 256.474 486.883 256.769V260.116C486.881 260.409 486.763 260.689 486.555 260.895C486.347 261.102 486.066 261.218 485.773 261.218V261.226ZM485.773 250.069C485.479 250.069 485.196 249.952 484.988 249.744C484.78 249.535 484.663 249.253 484.663 248.959V245.609C484.663 245.314 484.78 245.032 484.988 244.824C485.196 244.615 485.479 244.499 485.773 244.499C486.068 244.499 486.35 244.615 486.558 244.824C486.766 245.032 486.883 245.314 486.883 245.609V248.959C486.881 249.252 486.763 249.532 486.555 249.738C486.347 249.945 486.066 250.06 485.773 250.06V250.069ZM485.773 238.909C485.479 238.909 485.196 238.792 484.988 238.584C484.78 238.375 484.663 238.093 484.663 237.799V234.451C484.663 234.157 484.78 233.875 484.988 233.666C485.196 233.458 485.479 233.341 485.773 233.341C486.068 233.341 486.35 233.458 486.558 233.666C486.766 233.875 486.883 234.157 486.883 234.451V237.799C486.881 238.092 486.763 238.372 486.555 238.578C486.347 238.785 486.066 238.9 485.773 238.9V238.909ZM485.773 227.749C485.479 227.749 485.196 227.632 484.988 227.424C484.78 227.215 484.663 226.933 484.663 226.639V223.291C484.663 222.997 484.78 222.715 484.988 222.506C485.196 222.298 485.479 222.181 485.773 222.181C486.068 222.181 486.35 222.298 486.558 222.506C486.766 222.715 486.883 222.997 486.883 223.291V226.639C486.881 226.932 486.763 227.212 486.555 227.418C486.347 227.625 486.066 227.74 485.773 227.74V227.749Z" fill="#91B3FA"/>
<path d="M175.353 295.564C174.933 295.565 174.529 295.408 174.22 295.124C173.911 294.84 173.721 294.45 173.687 294.032L155.711 81.6141C155.693 81.3954 155.718 81.1753 155.785 80.9663C155.851 80.7573 155.959 80.5635 156.101 80.3959C156.242 80.2284 156.416 80.0905 156.611 79.99C156.806 79.8894 157.019 79.8283 157.237 79.8101C157.456 79.7919 157.676 79.8169 157.885 79.8837C158.094 79.9506 158.288 80.058 158.456 80.1997C158.623 80.3415 158.761 80.5148 158.862 80.7099C158.962 80.9049 159.023 81.1179 159.041 81.3366L177.021 293.757C177.04 293.976 177.017 294.197 176.95 294.407C176.884 294.617 176.777 294.812 176.635 294.98C176.493 295.148 176.319 295.287 176.123 295.388C175.927 295.488 175.714 295.549 175.494 295.566C175.447 295.568 175.4 295.567 175.353 295.564Z" fill="#91B3FA"/>
<path d="M152.272 88.5972L157.448 82.4579L163.582 87.6396L163.177 82.8354L157.043 77.6592L151.867 83.7957L152.272 88.5972Z" fill="#91B3FA"/>
<path d="M530.394 285.65H161.842C161.398 285.65 160.972 285.473 160.658 285.16C160.345 284.846 160.168 284.42 160.168 283.976C160.168 283.532 160.345 283.107 160.658 282.793C160.972 282.479 161.398 282.303 161.842 282.303H530.394C530.838 282.303 531.263 282.479 531.577 282.793C531.891 283.107 532.067 283.532 532.067 283.976C532.067 284.42 531.891 284.846 531.577 285.16C531.263 285.473 530.838 285.65 530.394 285.65Z" fill="#91B3FA"/>
<path d="M523.716 289.652L529.394 283.976L523.716 278.3H528.534L534.21 283.976L528.534 289.652H523.716Z" fill="#91B3FA"/>
<path d="M531.572 403.8C531.572 403.8 569.199 638.989 568.58 640.28C568.58 640.28 578.971 644.998 590.297 640.882C590.297 640.882 586.897 515.155 578.918 466.952C578.918 466.952 643.13 579.326 663.524 635.318C663.524 635.318 674.16 634.049 682.952 628.257C682.952 628.257 613.811 425.989 595.365 399.048L531.572 403.8Z" fill="url(#paint0_linear_1_48)"/>
<path d="M577.422 465.728C577.621 465.728 577.816 465.675 577.987 465.574C578.158 465.474 578.299 465.329 578.395 465.155C578.491 464.981 578.539 464.785 578.533 464.586C578.528 464.388 578.469 464.195 578.363 464.027L564.3 441.568C564.219 441.44 564.114 441.331 563.99 441.245C563.866 441.159 563.726 441.099 563.578 441.068L553.229 438.987C552.94 438.929 552.64 438.988 552.394 439.151C552.149 439.314 551.978 439.568 551.92 439.857C551.862 440.146 551.921 440.446 552.084 440.691C552.247 440.937 552.501 441.107 552.79 441.165L562.668 443.153L576.476 465.206C576.576 465.366 576.716 465.499 576.881 465.59C577.047 465.681 577.233 465.729 577.422 465.728Z" fill="url(#paint1_linear_1_48)"/>
<path d="M358.918 173.5C358.918 173.5 384.305 179.098 399.748 186.228C402.804 187.643 405.253 190.104 406.653 193.167C411.271 203.283 425.09 228.654 451.892 240.76C448.034 245.881 441.82 256.536 439.125 274.443C423.028 262.464 409.134 242.459 402.465 209.65C402.465 209.65 397.386 212.426 391.047 209.334C387.699 207.707 383.83 205.401 380.933 203.589C378.031 201.808 375.926 198.98 375.052 195.69C373.942 191.357 374.597 187.547 374.597 183.461L361.552 179.417C361.552 179.417 357.605 177.941 358.918 173.5Z" fill="url(#paint2_linear_1_48)"/>
<path d="M439.106 274.448C441.812 256.541 448.026 245.886 451.873 240.766C468.525 248.287 490.174 250.69 517.748 241.135C520.291 240.258 522.944 239.735 525.63 239.58C540.309 238.72 588.682 237.149 628.709 250.374C632.862 251.743 636.679 253.971 639.912 256.914C643.145 259.857 645.722 263.448 647.474 267.454C658.298 292.302 675.831 348.891 627.166 377.461C624.037 369.663 620.1 362.214 615.421 355.235C623.258 342.016 625.579 323.959 611.671 300.448C601.53 327.831 596.772 367.786 595.779 385.468C595.454 391.291 596.473 397.11 598.757 402.476L599.007 403.061C599.122 403.333 599.175 403.626 599.164 403.921C599.153 404.215 599.078 404.504 598.943 404.766C598.808 405.028 598.618 405.257 598.385 405.437C598.151 405.618 597.882 405.745 597.594 405.809C570.195 411.962 541.702 410.291 533.187 409.587C532.45 409.526 531.75 409.235 531.188 408.753C530.625 408.272 530.23 407.625 530.057 406.905C516.735 350.772 516.704 312.48 519.965 288.273C507.515 291.059 469.408 297.001 439.106 274.448Z" fill="url(#paint3_linear_1_48)"/>
<path d="M519.924 289.783C520.195 289.785 520.457 289.688 520.662 289.51C520.866 289.332 520.999 289.085 521.034 288.817C524.164 265.184 530.534 254.868 530.598 254.768C530.676 254.644 530.729 254.507 530.754 254.363C530.779 254.22 530.776 254.072 530.744 253.93C530.712 253.788 530.653 253.653 530.569 253.533C530.485 253.414 530.378 253.312 530.255 253.234C530.132 253.156 529.994 253.103 529.851 253.078C529.707 253.053 529.56 253.056 529.417 253.088C529.275 253.12 529.14 253.179 529.021 253.263C528.902 253.347 528.8 253.454 528.722 253.577C528.444 254.004 522.033 264.332 518.833 288.525C518.813 288.67 518.823 288.817 518.86 288.958C518.898 289.099 518.962 289.232 519.051 289.348C519.14 289.464 519.251 289.561 519.377 289.634C519.503 289.708 519.643 289.755 519.788 289.774C519.833 289.779 519.878 289.782 519.924 289.783Z" fill="url(#paint4_linear_1_48)"/>
<path d="M587.533 206.886C587.533 206.886 590.308 236.192 592.745 244.859C592.927 245.497 592.888 246.178 592.637 246.791C592.385 247.405 591.935 247.916 591.358 248.243C587.217 250.61 577.283 254.471 563.695 247.81C562.623 247.279 561.729 246.448 561.121 245.418C560.513 244.388 560.219 243.204 560.273 242.009L561.472 213.7L587.533 206.886Z" fill="url(#paint5_linear_1_48)"/>
<path d="M560.864 169.39C560.864 169.39 551.999 189.756 551.405 200.444C550.811 211.132 548.505 218.065 560.864 220.219C573.223 222.373 583.622 216.214 589.273 205.568C589.273 205.568 598.11 189.162 596.128 182.445C594.147 175.729 560.864 169.39 560.864 169.39Z" fill="url(#paint6_linear_1_48)"/>
<path d="M585.052 197.913L584.347 197.602C584.134 197.51 583.942 197.375 583.784 197.206C583.625 197.037 583.503 196.837 583.425 196.618C583.347 196.4 583.315 196.168 583.33 195.937C583.345 195.705 583.408 195.48 583.514 195.274C585.254 191.907 588.654 184.188 584.264 182.39C578.607 180.07 556.204 175.501 551.369 167.553C546.723 159.912 550.839 150.048 557.025 147.242C557.222 147.15 557.446 147.137 557.652 147.205C557.858 147.272 558.031 147.415 558.136 147.606L558.652 148.583C558.728 148.733 558.848 148.858 558.996 148.939C559.144 149.02 559.314 149.054 559.482 149.037C559.65 149.019 559.809 148.951 559.937 148.841C560.065 148.731 560.157 148.585 560.201 148.422C560.243 148.265 560.331 148.124 560.453 148.017C560.575 147.909 560.725 147.84 560.886 147.817C561.047 147.794 561.211 147.818 561.358 147.887C561.505 147.956 561.628 148.067 561.713 148.205C563.198 150.584 567.208 154.439 577.938 156.42C593.184 159.235 603.264 165.404 603.514 175.94C603.512 176.093 603.552 176.243 603.63 176.375C603.708 176.506 603.821 176.613 603.956 176.685C604.091 176.757 604.243 176.79 604.396 176.781C604.548 176.772 604.696 176.721 604.821 176.634C605.945 175.948 607.746 175.626 610.155 177.652C614.341 181.172 612.628 190.306 603.45 197.819C603.347 197.899 603.264 198.003 603.208 198.121C603.152 198.239 603.125 198.369 603.129 198.5C603.132 198.631 603.167 198.759 603.23 198.874C603.292 198.989 603.381 199.088 603.489 199.162C605.154 200.244 607.633 202.823 601.208 206.259C594.546 209.814 589.592 209.523 587.683 209.206C587.57 209.188 587.462 209.147 587.366 209.086C587.27 209.024 587.187 208.944 587.123 208.849C587.059 208.754 587.016 208.647 586.995 208.535C586.974 208.423 586.977 208.307 587.003 208.196L589.043 198.937C589.072 198.813 589.072 198.684 589.043 198.56C589.014 198.436 588.958 198.321 588.877 198.222C588.797 198.123 588.695 198.044 588.579 197.991C588.464 197.938 588.337 197.912 588.21 197.916L585.052 197.913Z" fill="#3C3957"/>
<path d="M584.666 199.867C584.666 199.867 588.049 186.858 593.881 190.505C599.712 194.152 590.855 205.082 586.165 205.568L584.666 199.867Z" fill="url(#paint7_linear_1_48)"/>
<path d="M395.673 206.631C395.883 206.631 396.089 206.571 396.267 206.459C396.444 206.347 396.587 206.186 396.677 205.997C396.767 205.807 396.801 205.595 396.776 205.387C396.75 205.178 396.667 204.981 396.534 204.818C395.576 203.636 387.056 193.22 383.767 191.366C382.573 190.691 381.86 189.995 381.71 189.351C381.644 188.995 381.696 188.628 381.857 188.304L391.868 190.311L397.541 195.176C397.765 195.364 398.054 195.455 398.345 195.431C398.636 195.407 398.905 195.269 399.095 195.048C399.286 194.826 399.381 194.539 399.361 194.247C399.34 193.956 399.206 193.685 398.987 193.492L393.095 188.435C392.95 188.311 392.777 188.226 392.59 188.188L381.507 185.968C381.293 185.925 381.07 185.946 380.868 186.03C380.665 186.113 380.492 186.255 380.37 186.437C379.556 187.641 379.287 188.762 379.537 189.861C379.845 191.158 380.866 192.284 382.665 193.3C385.135 194.688 392.259 203.1 394.796 206.22C394.902 206.35 395.036 206.455 395.188 206.526C395.339 206.597 395.506 206.633 395.673 206.631Z" fill="url(#paint8_linear_1_48)"/>
<path d="M585.096 391.544L545.913 392.029L559.626 379.121C561.287 377.553 563.424 376.586 565.697 376.373C567.971 376.16 570.251 376.713 572.174 377.944C574.809 379.633 577.16 381.729 579.14 384.153C579.14 384.153 603.583 375.221 615.432 355.235C620.111 362.214 624.048 369.663 627.177 377.461C616.556 383.697 602.784 388.602 585.096 391.544Z" fill="#FEBBBA"/>
<path d="M580.875 396.598C580.8 396.598 580.725 396.598 580.647 396.598L481.184 396.489C480.016 396.489 478.896 396.025 478.07 395.199C477.244 394.373 476.78 393.253 476.78 392.085C476.78 390.917 477.244 389.796 478.07 388.97C478.896 388.144 480.016 387.68 481.184 387.68L580.647 387.788C581.796 387.789 582.899 388.238 583.721 389.04C584.544 389.843 585.02 390.935 585.049 392.083C585.077 393.232 584.656 394.346 583.875 395.188C583.093 396.031 582.014 396.534 580.866 396.592L580.875 396.598Z" fill="url(#paint9_linear_1_48)"/>
<path d="M391.771 307.245H474.604C477.587 307.238 480.51 308.075 483.037 309.66C485.564 311.245 487.591 313.513 488.883 316.202L527.184 396.545H424.238C422.321 396.55 420.446 395.981 418.855 394.911C417.264 393.841 416.03 392.319 415.312 390.542L385.615 316.196C383.897 311.9 387.103 307.245 391.771 307.245Z" fill="#01B2A9"/>
<path d="M447.189 360.426C450.609 359.299 451.908 353.917 450.092 348.406C448.276 342.894 444.031 339.34 440.611 340.466C437.192 341.593 435.892 346.975 437.708 352.487C439.525 357.999 443.769 361.553 447.189 360.426Z" fill="#069B94"/>
</g>
<defs>
<linearGradient id="paint0_linear_1_48" x1="419151" y1="465869" x2="355967" y2="747952" gradientUnits="userSpaceOnUse">
<stop stop-color="#00B2A9"/>
<stop offset="1" stop-color="#1A0F91"/>
</linearGradient>
<linearGradient id="paint1_linear_1_48" x1="66546.6" y1="66264.6" x2="56410.8" y2="86439.1" gradientUnits="userSpaceOnUse">
<stop stop-color="#009E96"/>
<stop offset="1" stop-color="#4F52FF"/>
</linearGradient>
<linearGradient id="paint2_linear_1_48" x1="9219.38" y1="150554" x2="-20827.5" y2="186662" gradientUnits="userSpaceOnUse">
<stop stop-color="#FEBBBA"/>
<stop offset="1" stop-color="#FF928E"/>
</linearGradient>
<linearGradient id="paint3_linear_1_48" x1="431.565" y1="177.891" x2="663.546" y2="411.268" gradientUnits="userSpaceOnUse">
<stop stop-color="#FE7062"/>
<stop offset="1" stop-color="#FF928E"/>
</linearGradient>
<linearGradient id="paint4_linear_1_48" x1="773.825" y1="34.4677" x2="485.946" y2="308.369" gradientUnits="userSpaceOnUse">
<stop stop-color="#E1473D"/>
<stop offset="1" stop-color="#E9605A"/>
</linearGradient>
<linearGradient id="paint5_linear_1_48" x1="-17592.9" y1="77688.3" x2="-15694.6" y2="70411.7" gradientUnits="userSpaceOnUse">
<stop stop-color="#FEBBBA"/>
<stop offset="1" stop-color="#FF928E"/>
</linearGradient>
<linearGradient id="paint6_linear_1_48" x1="-20886.4" y1="73337.4" x2="-29905.2" y2="79472.9" gradientUnits="userSpaceOnUse">
<stop stop-color="#FEBBBA"/>
<stop offset="1" stop-color="#FF928E"/>
</linearGradient>
<linearGradient id="paint7_linear_1_48" x1="-4906.38" y1="22146.8" x2="-7397.27" y2="23498.2" gradientUnits="userSpaceOnUse">
<stop stop-color="#FEBBBA"/>
<stop offset="1" stop-color="#FF928E"/>
</linearGradient>
<linearGradient id="paint8_linear_1_48" x1="37131" y1="26247" x2="38449.1" y2="32453.7" gradientUnits="userSpaceOnUse">
<stop stop-color="#FEBBBA"/>
<stop offset="1" stop-color="#FF928E"/>
</linearGradient>
<linearGradient id="paint9_linear_1_48" x1="-200115" y1="28634.8" x2="-202438" y2="38024.1" gradientUnits="userSpaceOnUse">
<stop stop-color="#019F97"/>
<stop offset="1" stop-color="#1A0F91"/>
</linearGradient>
<clipPath id="clip0_1_48">
<rect width="702" height="694.529" fill="white"/>
</clipPath>
</defs>
</svg>
