<svg width="357" height="292" viewBox="0 0 357 292" fill="none" xmlns="http://www.w3.org/2000/svg">
<g clip-path="url(#clip0_46_588)">
<path d="M172.967 308.881L56.3197 322.063C35.0227 323.616 16.8887 306.756 16.8887 285.402V36.4159L172.969 43.3193L172.967 308.881Z" fill="#EAEAEA"/>
<g style="mix-blend-mode:soft-light">
<g style="mix-blend-mode:soft-light">
<path d="M124.636 65.8878L41.1699 63.073V55.3633L124.636 58.4429V65.8878Z" fill="white"/>
</g>
<g style="mix-blend-mode:soft-light">
<path d="M124.636 78.4565L41.1699 76.0854V68.3757L124.636 71.0092V78.4565Z" fill="white"/>
</g>
<g style="mix-blend-mode:soft-light">
<path d="M124.636 91.023L41.1699 89.098V81.3883L124.636 83.5781V91.023Z" fill="white"/>
</g>
<g style="mix-blend-mode:soft-light">
<path d="M124.636 103.592L41.1699 102.11V94.4032L124.636 96.1469V103.592Z" fill="white"/>
</g>
<g style="mix-blend-mode:soft-light">
<path d="M124.636 116.158L41.1699 115.125V107.416L124.636 108.713V116.158Z" fill="white"/>
</g>
<g style="mix-blend-mode:soft-light">
<path d="M124.636 133.19L41.1699 132.758V125.049L124.636 125.745V133.19Z" fill="white"/>
</g>
<g style="mix-blend-mode:soft-light">
<path d="M124.636 145.757L41.1699 145.771V138.061L124.636 138.312V145.757Z" fill="white"/>
</g>
<g style="mix-blend-mode:soft-light">
<path d="M124.636 158.325L41.1699 158.783V151.076L124.636 150.88V158.325Z" fill="white"/>
</g>
<g style="mix-blend-mode:soft-light">
<path d="M124.636 170.894L41.1699 171.798V164.089L124.636 163.447V170.894Z" fill="white"/>
</g>
<g style="mix-blend-mode:soft-light">
<path d="M124.636 183.461L41.1699 184.811V177.101L124.636 176.016V183.461Z" fill="white"/>
</g>
<g style="mix-blend-mode:soft-light">
<path d="M124.636 203.935L41.1699 206.01V198.3L124.636 196.49V203.935Z" fill="white"/>
</g>
<g style="mix-blend-mode:soft-light">
<path d="M124.636 216.504L41.1699 219.025V211.315L124.636 209.059V216.504Z" fill="white"/>
</g>
<g style="mix-blend-mode:soft-light">
<path d="M124.636 229.072L41.1699 232.037V224.328L124.636 221.625V229.072Z" fill="white"/>
</g>
<g style="mix-blend-mode:soft-light">
<path d="M124.636 241.639L41.1699 245.05V237.34L124.636 234.194V241.639Z" fill="white"/>
</g>
<g style="mix-blend-mode:soft-light">
<path d="M124.636 254.208L41.1699 258.062V250.353L124.636 246.76V254.208Z" fill="white"/>
</g>
<path style="mix-blend-mode:soft-light" d="M124.636 274.682L41.1699 279.264V271.554L124.636 267.237V274.682Z" fill="url(#paint0_linear_46_588)"/>
<path style="mix-blend-mode:soft-light" d="M124.636 287.25L41.1699 292.276V284.567L124.636 279.803V287.25Z" fill="url(#paint1_linear_46_588)"/>
</g>
<path d="M356.01 271.123C356.01 284.588 345.875 296.408 333.244 297.536L57.3887 322.163C73.3042 320.732 86.0567 307.374 86.0567 292.265V0L356.01 10.4959V271.123Z" fill="url(#paint2_linear_46_588)"/>
<path d="M335.943 111.907L235.664 112.573V102.435L335.943 102.203V111.907Z" fill="url(#paint3_linear_46_588)"/>
<path d="M224.741 198.603L114.031 203.379V102.716L224.741 102.461V198.603Z" fill="url(#paint4_linear_46_588)"/>
<path d="M224 95L114 94V24.177L225 28.5L224 95Z" fill="#EBEBEB"/>
<path d="M335.099 95L236 93.9975V28.3339L335.099 31.5V95Z" fill="#EBEBEB"/>
<path d="M335.943 128.286L235.664 129.684V119.546L335.943 118.582V128.286Z" fill="url(#paint5_linear_46_588)"/>
<path d="M335.943 144.666L235.664 146.797V136.659L335.943 134.963V144.666Z" fill="url(#paint6_linear_46_588)"/>
<path d="M335.943 161.045L235.664 163.907V153.769L335.943 151.341V161.045Z" fill="url(#paint7_linear_46_588)"/>
<path d="M335.943 177.425L235.664 181.02V170.882L335.943 167.722V177.425Z" fill="url(#paint8_linear_46_588)"/>
<path d="M335.943 193.804L235.664 198.131V187.993L335.943 184.1V193.804Z" fill="url(#paint9_linear_46_588)"/>
<path d="M335.943 216L235.664 221.32V211.182L335.943 206.296V216Z" fill="url(#paint10_linear_46_588)"/>
<path d="M335.943 232.381L235.664 238.43V228.295L335.943 222.677V232.381Z" fill="url(#paint11_linear_46_588)"/>
<path d="M335.943 248.759L235.664 255.543V245.405L335.943 239.055V248.759Z" fill="url(#paint12_linear_46_588)"/>
<path d="M335.943 265.14L235.664 272.654V262.518L335.943 255.436V265.14Z" fill="url(#paint13_linear_46_588)"/>
<path d="M335.943 281.518L235.664 289.767V279.629L335.943 271.814V281.518Z" fill="url(#paint14_linear_46_588)"/>
<path d="M224.741 221.899L114.031 227.772V217.107L224.741 211.714V221.899Z" fill="#EBEBEB"/>
<path d="M224.741 239.091L114.031 245.77V235.107L224.741 228.905V239.091Z" fill="#EBEBEB"/>
<path d="M224.741 256.283L114.031 263.771V253.108L224.741 246.097V256.283Z" fill="#EBEBEB"/>
<path d="M224.741 273.472L114.031 281.771V271.106L224.741 263.289V273.472Z" fill="#EBEBEB"/>
<path d="M224.741 290.664L114.031 299.769V289.106L224.741 280.481V290.664Z" fill="#EBEBEB"/>
<path d="M150.086 170.761C149.638 183.881 141.453 194.25 131.807 193.921C122.16 193.592 114.87 177.667 115.318 164.547C115.767 151.427 123.78 146.082 133.429 146.418C143.078 146.754 150.534 157.641 150.086 170.761Z" fill="url(#paint15_linear_46_588)"/>
<path d="M48.4978 249.373C46.4257 249.554 44.3463 249.119 42.5211 248.122C40.696 247.124 39.2066 245.609 38.2404 243.767L9.02854 188.118C8.38495 186.892 7.98913 185.551 7.86368 184.172C7.73823 182.793 7.8856 181.403 8.29738 180.081C8.70916 178.759 9.37729 177.531 10.2636 176.468C11.1499 175.404 12.2371 174.525 13.463 173.881C14.689 173.238 16.0297 172.842 17.4086 172.717C18.7875 172.591 20.1776 172.739 21.4996 173.15C22.8215 173.562 24.0494 174.23 25.1132 175.117C26.1769 176.003 27.0557 177.09 27.6993 178.316L56.9088 233.968C57.7144 235.506 58.128 237.219 58.1131 238.955C58.0981 240.691 57.655 242.396 56.8231 243.92C55.9911 245.444 54.7961 246.738 53.3438 247.69C51.8915 248.641 50.227 249.219 48.4978 249.373Z" fill="url(#paint16_linear_46_588)"/>
<path d="M5.36873 158.422L24.7597 156.726L28.1847 195.874L8.79373 197.57C8.02355 197.638 7.24764 197.553 6.5103 197.32C5.77296 197.088 5.08863 196.712 4.49638 196.215C3.90414 195.718 3.41558 195.11 3.0586 194.424C2.70161 193.738 2.48319 192.989 2.4158 192.218L0.0172191 164.802C-0.0504925 164.032 0.0342348 163.256 0.266553 162.518C0.498872 161.781 0.874238 161.096 1.3712 160.504C1.86816 159.911 2.47697 159.422 3.16288 159.065C3.84879 158.708 4.59835 158.49 5.36873 158.422Z" fill="url(#paint17_linear_46_588)"/>
<path d="M25.2022 156.685C20.1578 170.277 21.2996 183.326 28.6276 195.832L136.549 220.7L132.911 121.276L25.2022 156.685Z" fill="#00B2A9"/>
<path d="M140.746 119H134.021C133.046 119 132.256 119.79 132.256 120.765V222.079C132.256 223.054 133.046 223.844 134.021 223.844H140.746C141.721 223.844 142.511 223.054 142.511 222.079V120.765C142.511 119.79 141.721 119 140.746 119Z" fill="url(#paint18_linear_46_588)"/>
<path style="mix-blend-mode:multiply" opacity="0.3" d="M111.66 190.262C101.138 187.59 96.6582 173.292 84.4997 173.977C74.7981 174.521 72.6537 183.91 62.9116 183.924C52.7878 183.938 50.1853 173.805 38.4061 171.224C32.9817 170.031 27.4332 170.847 22.1161 172.767C22.0668 180.652 24.2375 188.34 28.6283 195.832L136.55 220.7L133.704 188.182C124.026 195.274 116.701 191.543 111.66 190.262Z" fill="url(#paint19_linear_46_588)"/>
</g>
<defs>
<linearGradient id="paint0_linear_46_588" x1="41.1699" y1="273.25" x2="124.636" y2="273.25" gradientUnits="userSpaceOnUse">
<stop stop-color="#D3C5CB"/>
<stop offset="1" stop-color="#ADA0A6"/>
</linearGradient>
<linearGradient id="paint1_linear_46_588" x1="14446.6" y1="15237" x2="43651.3" y2="15237" gradientUnits="userSpaceOnUse">
<stop stop-color="#D3C5CB"/>
<stop offset="1" stop-color="#ADA0A6"/>
</linearGradient>
<linearGradient id="paint2_linear_46_588" x1="449.218" y1="-177.466" x2="259.577" y2="86.3285" gradientUnits="userSpaceOnUse">
<stop stop-color="#F3E9E1"/>
<stop offset="1" stop-color="white"/>
</linearGradient>
<linearGradient id="paint3_linear_46_588" x1="79420.6" y1="-3792.55" x2="80987.6" y2="26843.5" gradientUnits="userSpaceOnUse">
<stop stop-color="#E4D6CA"/>
<stop offset="1" stop-color="#D4BDAC"/>
</linearGradient>
<linearGradient id="paint4_linear_46_588" x1="35729.4" y1="-14442.8" x2="147745" y2="233987" gradientUnits="userSpaceOnUse">
<stop stop-color="#E4D6CA"/>
<stop offset="1" stop-color="#D4BDAC"/>
</linearGradient>
<linearGradient id="paint5_linear_46_588" x1="76622.8" y1="-3898.04" x2="78418.3" y2="28889.1" gradientUnits="userSpaceOnUse">
<stop stop-color="#E4D6CA"/>
<stop offset="1" stop-color="#D4BDAC"/>
</linearGradient>
<linearGradient id="paint6_linear_46_588" x1="73826" y1="-3983.3" x2="75865.4" y2="30952.5" gradientUnits="userSpaceOnUse">
<stop stop-color="#E4D6CA"/>
<stop offset="1" stop-color="#D4BDAC"/>
</linearGradient>
<linearGradient id="paint7_linear_46_588" x1="71028.3" y1="-4048.36" x2="73326.8" y2="33033.3" gradientUnits="userSpaceOnUse">
<stop stop-color="#E4D6CA"/>
<stop offset="1" stop-color="#D4BDAC"/>
</linearGradient>
<linearGradient id="paint8_linear_46_588" x1="68230.5" y1="-4093.2" x2="70803.6" y2="35131.4" gradientUnits="userSpaceOnUse">
<stop stop-color="#E4D6CA"/>
<stop offset="1" stop-color="#D4BDAC"/>
</linearGradient>
<linearGradient id="paint9_linear_46_588" x1="65432.7" y1="-4117.82" x2="68295.6" y2="37246.6" gradientUnits="userSpaceOnUse">
<stop stop-color="#E4D6CA"/>
<stop offset="1" stop-color="#D4BDAC"/>
</linearGradient>
<linearGradient id="paint10_linear_46_588" x1="61642.2" y1="-4118.94" x2="64922.1" y2="40140.2" gradientUnits="userSpaceOnUse">
<stop stop-color="#E4D6CA"/>
<stop offset="1" stop-color="#D4BDAC"/>
</linearGradient>
<linearGradient id="paint11_linear_46_588" x1="58844.4" y1="-4095.32" x2="62448.8" y2="42288.8" gradientUnits="userSpaceOnUse">
<stop stop-color="#E4D6CA"/>
<stop offset="1" stop-color="#D4BDAC"/>
</linearGradient>
<linearGradient id="paint12_linear_46_588" x1="56046.7" y1="-4052.78" x2="59992.8" y2="44466.9" gradientUnits="userSpaceOnUse">
<stop stop-color="#E4D6CA"/>
<stop offset="1" stop-color="#D4BDAC"/>
</linearGradient>
<linearGradient id="paint13_linear_46_588" x1="53248.9" y1="-3988.81" x2="57549.6" y2="46648.8" gradientUnits="userSpaceOnUse">
<stop stop-color="#E4D6CA"/>
<stop offset="1" stop-color="#D4BDAC"/>
</linearGradient>
<linearGradient id="paint14_linear_46_588" x1="50451.1" y1="-3905.79" x2="55123.8" y2="48859.7" gradientUnits="userSpaceOnUse">
<stop stop-color="#E4D6CA"/>
<stop offset="1" stop-color="#D4BDAC"/>
</linearGradient>
<linearGradient id="paint15_linear_46_588" x1="115.299" y1="170.162" x2="150.105" y2="170.162" gradientUnits="userSpaceOnUse">
<stop stop-color="#5D535A"/>
<stop offset="1" stop-color="#464143"/>
</linearGradient>
<linearGradient id="paint16_linear_46_588" x1="58.8219" y1="317.827" x2="40.1822" y2="240.838" gradientUnits="userSpaceOnUse">
<stop stop-color="#96888E"/>
<stop offset="1" stop-color="#706369"/>
</linearGradient>
<linearGradient id="paint17_linear_46_588" x1="11388.7" y1="45194.2" x2="25407.5" y2="61793.3" gradientUnits="userSpaceOnUse">
<stop stop-color="#96888E"/>
<stop offset="1" stop-color="#706369"/>
</linearGradient>
<linearGradient id="paint18_linear_46_588" x1="13583.1" y1="171694" x2="13078.8" y2="171651" gradientUnits="userSpaceOnUse">
<stop stop-color="#96888E"/>
<stop offset="1" stop-color="#706369"/>
</linearGradient>
<linearGradient id="paint19_linear_46_588" x1="78155.6" y1="80025.4" x2="133052" y2="80025.4" gradientUnits="userSpaceOnUse">
<stop stop-color="#F6AF9A"/>
<stop offset="1" stop-color="#F89F8A"/>
</linearGradient>
<clipPath id="clip0_46_588">
<rect width="356.01" height="322.164" fill="white"/>
</clipPath>
</defs>
</svg>
