<svg width="423" height="275" viewBox="0 0 423 275" fill="none" xmlns="http://www.w3.org/2000/svg">
<g clip-path="url(#clip0_392_7843)">
<path d="M227.967 223.811H104.81C100.953 223.735 97.2582 222.248 94.4256 219.629C91.5931 217.011 89.8199 213.444 89.4423 209.605L83.2762 133.89C83.0971 132.077 83.3027 130.246 83.8797 128.518C84.4566 126.789 85.3919 125.202 86.6243 123.86C87.8567 122.518 89.3585 121.451 91.0315 120.729C92.7045 120.007 94.511 119.647 96.333 119.671H219.477C223.335 119.747 227.032 121.236 229.865 123.858C232.698 126.479 234.47 130.049 234.844 133.89L241.01 209.605C241.189 211.417 240.984 213.246 240.408 214.973C239.831 216.699 238.897 218.285 237.666 219.626C236.435 220.966 234.935 222.032 233.263 222.754C231.592 223.475 229.787 223.835 227.967 223.811Z" fill="white"/>
<path d="M227.967 224.399H104.809C100.796 224.328 96.9487 222.781 94.0049 220.051C91.061 217.322 89.2272 213.603 88.8543 209.605L82.6882 133.876C82.5032 131.98 82.7207 130.066 83.3263 128.26C83.9319 126.453 84.912 124.795 86.2025 123.394C87.4931 121.992 89.0649 120.879 90.8153 120.127C92.5657 119.374 94.4552 119 96.3602 119.028H219.504C223.511 119.098 227.353 120.64 230.296 123.361C233.239 126.082 235.077 129.791 235.459 133.781L241.598 209.605C241.783 211.502 241.565 213.416 240.96 215.222C240.354 217.028 239.374 218.687 238.084 220.088C236.793 221.49 235.221 222.603 233.471 223.355C231.72 224.107 229.831 224.482 227.926 224.453L227.967 224.399ZM96.3329 120.259C94.5917 120.227 92.8635 120.564 91.2626 121.249C89.6616 121.935 88.2243 122.952 87.0457 124.234C85.8671 125.516 84.9741 127.033 84.4256 128.686C83.8771 130.339 83.6857 132.089 83.864 133.822L90.0301 209.605C90.3853 213.301 92.088 216.737 94.8136 219.259C97.5391 221.78 101.097 223.211 104.809 223.278H227.967C229.717 223.31 231.454 222.968 233.062 222.276C234.67 221.583 236.111 220.555 237.29 219.261C238.469 217.967 239.358 216.437 239.898 214.771C240.438 213.106 240.617 211.345 240.422 209.605L234.256 133.876C233.901 130.18 232.198 126.744 229.473 124.223C226.747 121.702 223.189 120.271 219.477 120.204L96.3329 120.259Z" fill="#00B2A9"/>
<path d="M194.539 201.703C189.652 206.976 183.379 210.767 176.437 212.641L174.4 206.871C189.562 202.77 199.83 188.578 198.463 171.775C197.583 161.925 193.041 152.763 185.734 146.099L189.658 141.82C207.432 158.212 209.633 185.256 194.539 201.703Z" fill="#E0E0E0"/>
<path d="M189.658 141.779L185.734 146.058C178.536 139.3 169.056 135.503 159.183 135.421C154.534 135.365 149.926 136.283 145.654 138.118C141.382 139.952 137.542 142.662 134.382 146.072L129.747 141.779C133.444 137.812 137.928 134.659 142.911 132.522C147.894 130.384 153.269 129.309 158.691 129.364C170.204 129.476 181.256 133.906 189.658 141.779Z" fill="#263238"/>
<path d="M176.437 212.668C162.15 216.565 146.181 212.381 134.628 201.73C116.855 185.324 114.653 158.24 129.747 141.806L134.382 146.099C131.251 149.547 128.873 153.61 127.402 158.029C125.93 162.447 125.397 167.125 125.837 171.761C127.464 191.818 145.046 208.074 165.103 208.074C168.242 208.081 171.368 207.672 174.4 206.857L176.437 212.668Z" fill="#00B2A9"/>
<path d="M145.32 106.095H22.176C18.3186 106.022 14.6221 104.536 11.7889 101.917C8.95577 99.2978 7.18344 95.7294 6.80869 91.8895L0.642618 16.1603C0.463364 14.3476 0.668998 12.5176 1.24606 10.7899C1.82312 9.06229 2.75858 7.476 3.99121 6.13495C5.22384 4.79391 6.72583 3.72834 8.39882 3.00803C10.0718 2.28771 11.8781 1.9289 13.6994 1.95507H136.843C140.7 2.03029 144.395 3.51814 147.227 6.13646C150.06 8.75478 151.833 12.3215 152.21 16.1603L158.377 91.8895C158.556 93.7021 158.35 95.5322 157.773 97.2598C157.196 98.9875 156.261 100.574 155.028 101.915C153.795 103.256 152.293 104.321 150.62 105.042C148.947 105.762 147.141 106.121 145.32 106.095Z" fill="white"/>
<path d="M145.32 106.696H22.1761C18.1687 106.627 14.327 105.085 11.3841 102.364C8.44126 99.6432 6.60325 95.934 6.22086 91.9442L0.0547782 16.215C-0.130177 14.3188 0.0872578 12.4049 0.692858 10.5986C1.29846 8.79218 2.27858 7.13401 3.56912 5.73248C4.85965 4.33096 6.43152 3.21768 8.18192 2.46544C9.93231 1.7132 11.8218 1.33897 13.7268 1.36721H136.871C140.878 1.43628 144.72 2.97842 147.662 5.69938C150.605 8.42033 152.443 12.1296 152.826 16.1193L158.992 91.8485C159.177 93.7447 158.959 95.6586 158.354 97.465C157.748 99.2713 156.768 100.93 155.477 102.331C154.187 103.733 152.615 104.846 150.865 105.598C149.114 106.35 147.225 106.725 145.32 106.696ZM13.6994 2.543C11.957 2.51041 10.2276 2.84829 8.62556 3.53431C7.02354 4.22032 5.58552 5.23879 4.4067 6.52231C3.22788 7.80583 2.33514 9.32513 1.78759 10.9796C1.24005 12.6341 1.05019 14.386 1.23057 16.1193L7.39665 91.8485C7.7519 95.5445 9.45455 98.9805 12.1801 101.502C14.9057 104.023 18.4637 105.454 22.1761 105.521H145.32C147.061 105.553 148.789 105.215 150.39 104.53C151.991 103.845 153.428 102.828 154.607 101.546C155.786 100.264 156.679 98.7462 157.227 97.0934C157.776 95.4406 157.967 93.6902 157.789 91.9579L151.623 16.2287C151.264 12.5339 149.561 9.09954 146.836 6.57875C144.111 4.05797 140.555 2.62654 136.843 2.55667L13.6994 2.543Z" fill="#00B2A9"/>
<path d="M11.7715 23.6935H77.0416L76.5084 17.2404H11.252L11.7715 23.6935Z" fill="#E0E0E0"/>
<path d="M142.298 23.6935H77.0416L76.5084 17.2404H141.765L142.298 23.6935Z" fill="#00B2A9"/>
<path d="M13.1387 40.4692H31.7599L31.2404 34.0297H12.6191L13.1387 40.4692Z" fill="#E0E0E0"/>
<path d="M143.665 40.4692H31.76L31.2405 34.0297H143.132L143.665 40.4692Z" fill="#00B2A9"/>
<path d="M14.506 57.2584H72.5983L72.0788 50.8052H13.9865L14.506 57.2584Z" fill="#E0E0E0"/>
<path d="M145.033 57.2584H72.5983L72.0787 50.8052H144.499L145.033 57.2584Z" fill="#00B2A9"/>
<path d="M15.8732 74.0339H115.023L114.489 67.5944H15.3536L15.8732 74.0339Z" fill="#E0E0E0"/>
<path d="M146.4 74.0339H115.023L114.489 67.5944H145.867L146.4 74.0339Z" fill="#00B2A9"/>
<path d="M17.2404 90.8231H63.0963L62.5767 84.3699H16.7208L17.2404 90.8231Z" fill="#E0E0E0"/>
<path d="M147.767 90.8231H63.0963L62.5768 84.3699H147.234L147.767 90.8231Z" fill="#00B2A9"/>
<path d="M313.677 106.095H190.533C186.683 106.013 182.996 104.521 180.172 101.903C177.347 99.2854 175.581 95.7226 175.207 91.8896L169.041 16.1603C168.862 14.3523 169.066 12.527 169.64 10.8032C170.214 9.07937 171.144 7.49579 172.371 6.15562C173.598 4.81544 175.093 3.74874 176.759 3.025C178.426 2.30126 180.226 1.93672 182.043 1.95513H305.2C309.057 2.03036 312.752 3.5182 315.584 6.13652C318.417 8.75484 320.19 12.3216 320.567 16.1603L326.734 91.8896C326.913 93.7022 326.707 95.5323 326.13 97.2599C325.553 98.9876 324.618 100.574 323.385 101.915C322.152 103.256 320.65 104.321 318.977 105.042C317.304 105.762 315.498 106.121 313.677 106.095Z" fill="white"/>
<path d="M313.677 106.696H190.533C186.53 106.61 182.696 105.062 179.755 102.345C176.813 99.6276 174.967 95.9284 174.564 91.9442L168.371 16.215C168.186 14.3188 168.403 12.4049 169.009 10.5986C169.614 8.79218 170.595 7.13401 171.885 5.73248C173.176 4.33096 174.748 3.21768 176.498 2.46544C178.248 1.7132 180.138 1.33897 182.043 1.36721H305.2C309.208 1.43628 313.049 2.97842 315.992 5.69938C318.935 8.42033 320.773 12.1296 321.155 16.1193L327.322 91.8485C327.506 93.7447 327.289 95.6586 326.683 97.465C326.078 99.2713 325.098 100.93 323.807 102.331C322.517 103.733 320.945 104.846 319.194 105.598C317.444 106.35 315.555 106.725 313.65 106.696H313.677ZM182.043 2.543C180.302 2.51237 178.574 2.85171 176.973 3.53858C175.373 4.22546 173.937 5.24422 172.759 6.52752C171.582 7.81082 170.69 9.32941 170.144 10.9829C169.597 12.6364 169.407 14.3871 169.588 16.1193L175.754 91.8485C176.109 95.5445 177.812 98.9805 180.537 101.502C183.263 104.023 186.821 105.454 190.533 105.521H313.677C315.418 105.553 317.146 105.215 318.747 104.53C320.348 103.845 321.785 102.828 322.964 101.546C324.143 100.264 325.036 98.7462 325.584 97.0934C326.133 95.4406 326.324 93.6902 326.146 91.9579L319.98 16.2287C319.622 12.5339 317.918 9.09954 315.193 6.57875C312.468 4.05797 308.912 2.62654 305.2 2.55667L182.043 2.543Z" fill="#00B2A9"/>
<path d="M251.948 90.8231H249.774L243.786 17.2404H245.959L251.948 90.8231Z" fill="#E0E0E0"/>
<path d="M255.229 60.2389H241.516L239.164 31.5004H252.891L255.229 60.2389Z" fill="#00B2A9"/>
<path d="M224.946 90.8231H222.772L216.783 17.2404H218.957L224.946 90.8231Z" fill="#E0E0E0"/>
<path d="M228.746 66.6236H215.033L212.983 41.4261H226.696L228.746 66.6236Z" fill="#00B2A9"/>
<path d="M197.957 90.8231H195.783L189.795 17.2404H191.969L197.957 90.8231Z" fill="#E0E0E0"/>
<path d="M200.076 45.8969H186.349L184.941 28.6018H198.668L200.076 45.8969Z" fill="#263238"/>
<path d="M278.936 90.8231H276.762L270.774 17.2404H272.948L278.936 90.8231Z" fill="#E0E0E0"/>
<path d="M283.544 76.5633H269.831L266.166 31.5004H279.879L283.544 76.5633Z" fill="#263238"/>
<path d="M305.925 90.8231H303.751L297.763 17.2404H299.937L305.925 90.8231Z" fill="#E0E0E0"/>
<path d="M310.983 81.9636H297.27L294.331 45.8695H308.044L310.983 81.9636Z" fill="#00B2A9"/>
<path d="M396.907 224.304H273.75C269.744 224.232 265.904 222.689 262.961 219.969C260.019 217.248 258.18 213.541 257.795 209.552L251.629 133.796C251.444 131.9 251.661 129.986 252.267 128.179C252.872 126.373 253.853 124.715 255.143 123.313C256.434 121.912 258.006 120.798 259.756 120.046C261.506 119.294 263.396 118.92 265.301 118.948H388.458C392.475 119.029 396.321 120.589 399.259 123.328C402.198 126.068 404.023 129.795 404.386 133.796L410.552 209.511C410.737 211.407 410.52 213.321 409.914 215.128C409.308 216.934 408.328 218.592 407.038 219.994C405.747 221.395 404.175 222.509 402.425 223.261C400.675 224.013 398.785 224.387 396.88 224.359L396.907 224.304ZM265.273 120.124C263.523 120.091 261.786 120.433 260.178 121.126C258.571 121.818 257.129 122.846 255.95 124.14C254.772 125.434 253.882 126.965 253.342 128.63C252.802 130.295 252.623 132.056 252.818 133.796L258.971 209.457C259.326 213.15 261.026 216.584 263.749 219.105C266.472 221.626 270.026 223.058 273.736 223.129H396.894C398.635 223.159 400.363 222.82 401.963 222.133C403.564 221.446 405 220.427 406.177 219.144C407.355 217.861 408.246 216.342 408.793 214.689C409.34 213.035 409.529 211.284 409.349 209.552L403.21 133.796C402.852 130.101 401.149 126.667 398.424 124.146C395.699 121.625 392.142 120.194 388.431 120.124H265.273Z" fill="#00B2A9"/>
<path d="M281.94 169.849L308.477 200.515L338.911 153.552L357.737 177.82L362.331 170.737L393.093 207.611L274.926 207.57L281.94 169.849Z" fill="#00B2A9"/>
<path d="M370.548 171.749L358.202 198.163L318.854 135.682L300.328 175.359L294.395 165.939L274.94 207.611L393.093 207.556L370.548 171.749Z" fill="#E0E0E0"/>
</g>
<defs>
<clipPath id="clip0_392_7843">
<rect width="422.465" height="341.144" fill="white"/>
</clipPath>
</defs>
</svg>
