<svg width="482" height="414" viewBox="0 0 482 414" fill="none" xmlns="http://www.w3.org/2000/svg">
<mask id="mask0_34_2658" style="mask-type:alpha" maskUnits="userSpaceOnUse" x="0" y="0" width="482" height="414">
<rect width="482" height="414" fill="#C4C4C4"/>
</mask>
<g mask="url(#mask0_34_2658)">
<g clip-path="url(#clip0_34_2658)">
<g opacity="0.15">
<path opacity="0.15" d="M0.150391 303.078L0.343432 320.625C0.337264 320.761 0.373051 320.895 0.445942 321.01C0.518832 321.125 0.625315 321.215 0.750984 321.268L192.513 429.246C192.897 429.418 193.317 429.498 193.737 429.48C194.158 429.461 194.569 429.344 194.937 429.139L225.932 410.843C226.07 410.772 226.192 410.673 226.288 410.551C226.385 410.429 226.453 410.287 226.489 410.136L226.296 392.418L211.281 401.159L34.4702 301.407C34.0841 301.238 33.6639 301.162 33.243 301.184C32.8221 301.207 32.4123 301.327 32.0463 301.536L21.3214 307.813L0.150391 303.078Z" fill="url(#paint0_linear_34_2658)"/>
<path opacity="0.15" d="M34.2331 283.796L225.995 391.796C226.617 392.139 226.531 392.761 225.823 393.189L194.85 411.485C194.484 411.694 194.074 411.814 193.653 411.837C193.232 411.859 192.812 411.783 192.426 411.614L0.664055 303.635C0.020559 303.271 0.106341 302.65 0.814187 302.221L31.7878 283.925C32.1593 283.721 32.5722 283.603 32.9957 283.581C33.4192 283.558 33.8422 283.632 34.2331 283.796V283.796Z" fill="url(#paint1_linear_34_2658)"/>
</g>
<path d="M0 285.939L0.193074 303.485C0.186906 303.621 0.222693 303.756 0.295584 303.871C0.368475 303.986 0.474957 304.075 0.600626 304.128L192.362 412.107C192.747 412.281 193.168 412.36 193.59 412.337C194.012 412.315 194.422 412.192 194.786 411.978L225.781 393.703C225.92 393.633 226.042 393.533 226.138 393.411C226.234 393.289 226.303 393.147 226.339 392.996L226.125 375.278L211.11 384.019L34.1482 284.375C33.7621 284.206 33.3419 284.13 32.921 284.152C32.5002 284.174 32.0904 284.295 31.7244 284.503L20.9994 290.781L0 285.939Z" fill="url(#paint2_linear_34_2658)"/>
<path d="M0 285.939L0.193074 303.485C0.186906 303.621 0.222693 303.756 0.295584 303.871C0.368475 303.986 0.474957 304.075 0.600626 304.128L192.362 412.107C192.747 412.281 193.168 412.36 193.59 412.337C194.012 412.315 194.422 412.192 194.786 411.978L225.781 393.703C225.92 393.633 226.042 393.533 226.138 393.411C226.234 393.289 226.303 393.147 226.339 392.996L226.125 375.278L211.11 384.019L34.1482 284.375C33.7621 284.206 33.3419 284.13 32.921 284.152C32.5002 284.174 32.0904 284.295 31.7244 284.503L20.9994 290.781L0 285.939Z" fill="url(#paint3_radial_34_2658)"/>
<path d="M33.9979 266.657L225.76 374.657C226.382 375 226.317 375.621 225.588 376.05L194.614 394.346C194.247 394.55 193.837 394.668 193.417 394.69C192.997 394.712 192.578 394.639 192.191 394.475L0.428836 286.474C-0.19321 286.132 -0.128877 285.51 0.578968 285.082L31.574 266.785C31.9417 266.581 32.3511 266.464 32.7711 266.442C33.1911 266.419 33.6106 266.493 33.9979 266.657V266.657Z" fill="url(#paint4_linear_34_2658)"/>
<path d="M225.76 374.679L225.223 374.379L194.614 392.439C194.248 392.648 193.839 392.768 193.418 392.791C192.997 392.813 192.577 392.737 192.191 392.568L0.965083 284.889L0.578968 285.103C-0.128877 285.532 -0.19321 286.153 0.428836 286.496L192.191 394.496C192.578 394.66 192.997 394.734 193.417 394.711C193.837 394.689 194.247 394.571 194.614 394.367L225.588 376.071C226.317 375.643 226.382 375.021 225.76 374.679Z" fill="white"/>
<path opacity="0.6" d="M41.0977 293.009L191.761 376.285C192.884 370.17 194.556 364.168 196.759 358.353L46.3529 273.641C43.9686 279.909 42.2084 286.396 41.0977 293.009V293.009Z" fill="#24126A"/>
<path d="M27.455 276.855L208.213 378.685C208.642 378.921 208.578 379.349 208.213 379.628L200.427 384.234C200.169 384.359 199.887 384.424 199.601 384.424C199.315 384.424 199.032 384.359 198.775 384.234L17.9527 282.404C17.5237 282.168 17.5667 281.74 18.06 281.461L25.8892 276.941C26.1283 276.814 26.3923 276.74 26.6627 276.725C26.9331 276.711 27.2034 276.755 27.455 276.855V276.855Z" fill="#24126A"/>
<path d="M17.9098 282.489L21.5777 284.632L25.8677 282.146C26.125 282.021 26.4074 281.956 26.6935 281.956C26.9796 281.956 27.262 282.021 27.5193 282.146L204.674 381.898L208.256 379.756C208.728 379.477 208.792 379.049 208.256 378.813L27.4335 276.983C27.1767 276.857 26.8941 276.791 26.6077 276.791C26.3213 276.791 26.0387 276.857 25.7819 276.983L18.017 281.654C17.5237 281.825 17.4808 282.254 17.9098 282.489Z" fill="#453C9E"/>
<path opacity="0.7" d="M479.962 95.7119L329.534 11C329.791 37.8019 311.302 70.5811 288.2 84.2284L82.689 205.555C55.5335 221.58 33.7833 260.122 34.1051 291.616L184.619 376.328C184.297 344.834 206.069 306.292 233.203 290.266L438.714 168.94C461.815 155.293 480.305 122.514 480.048 95.7119H479.962Z" fill="url(#paint5_linear_34_2658)"/>
<path d="M479.962 95.7119L329.534 11C329.791 37.8019 311.302 70.5811 288.2 84.2284L82.689 205.555C55.5335 221.58 33.7833 260.122 34.1051 291.616L184.619 376.328C184.297 344.834 206.069 306.292 233.203 290.266L438.714 168.94C461.815 155.293 480.305 122.514 480.048 95.7119H479.962Z" fill="url(#paint6_radial_34_2658)"/>
<path opacity="0.8" d="M34.1055 291.616L184.619 376.328C184.619 374.957 184.619 373.543 184.726 372.15L34.2127 287.438C34.1484 288.852 34.1055 290.224 34.1055 291.616Z" fill="#453C9E"/>
<path d="M281.915 202.684L311.559 219.373L308.728 221.023L279.084 204.333L281.915 202.684Z" fill="white"/>
<path d="M266.708 194.114L277.39 200.134L274.559 201.784L263.877 195.785L266.708 194.114Z" fill="white"/>
<path d="M254.931 187.472L262.181 191.564L259.35 193.236L252.1 189.144L254.931 187.472Z" fill="white"/>
<path d="M301.865 206.454L318.016 215.56L315.185 217.209L299.033 208.125L301.865 206.454Z" fill="white"/>
<path d="M277.54 192.764L297.339 203.905L294.507 205.576L274.709 194.435L277.54 192.764Z" fill="white"/>
<path d="M265.763 186.123L273.013 190.215L270.182 191.886L262.932 187.794L265.763 186.123Z" fill="white"/>
<path d="M254.546 179.824L261.796 183.894L258.965 185.566L251.715 181.495L254.546 179.824Z" fill="white"/>
<path d="M312.783 205.169L324.473 211.746L321.641 213.417L309.951 206.84L312.783 205.169Z" fill="white"/>
<path d="M304.267 200.37L308.257 202.619L305.425 204.29L301.436 202.041L304.267 200.37Z" fill="white"/>
<path d="M292.468 193.728L299.74 197.82L296.908 199.47L289.658 195.399L292.468 193.728Z" fill="white"/>
<path d="M287.792 183.637L330.928 207.933L328.097 209.604L284.961 185.309L287.792 183.637Z" fill="white"/>
<path d="M272.585 175.089L283.267 181.088L280.436 182.759L269.775 176.76L272.585 175.089Z" fill="white"/>
<path d="M325.695 197.542L337.385 204.119L334.553 205.79L322.863 199.213L325.695 197.542Z" fill="white"/>
<path d="M298.283 182.095L321.169 194.992L318.338 196.664L295.451 183.766L298.283 182.095Z" fill="white"/>
<path d="M286.484 175.453L293.734 179.545L290.924 181.216L283.674 177.124L286.484 175.453Z" fill="white"/>
<path d="M319.925 186.851L343.842 200.306L341.01 201.977L317.094 188.501L319.925 186.851Z" fill="white"/>
<path d="M298.111 174.553L315.399 184.302L312.568 185.951L295.279 176.225L298.111 174.553Z" fill="white"/>
<path d="M281.894 165.427L293.584 172.004L290.753 173.675L279.062 167.098L281.894 165.427Z" fill="white"/>
<path d="M342.21 191.95L350.297 196.492L347.466 198.163L339.4 193.621L342.21 191.95Z" fill="white"/>
<path d="M327.025 183.38L337.685 189.401L334.875 191.072L324.193 185.051L327.025 183.38Z" fill="white"/>
<path d="M305.296 171.147L322.499 180.831L319.668 182.502L302.465 172.818L305.296 171.147Z" fill="white"/>
<path d="M332.023 178.753L356.755 192.679L353.923 194.35L329.191 180.424L332.023 178.753Z" fill="white"/>
<path d="M304.31 163.156L327.497 176.203L324.666 177.874L301.479 164.827L304.31 163.156Z" fill="white"/>
<path d="M292.533 156.514L299.783 160.606L296.951 162.277L289.701 158.185L292.533 156.514Z" fill="white"/>
<path d="M281.23 150.151L288.48 154.243L285.648 155.914L278.398 151.822L281.23 150.151Z" fill="white"/>
<path d="M348.388 180.531L363.21 188.865L360.379 190.536L345.557 182.202L348.388 180.531Z" fill="white"/>
<path d="M221.792 168.812L201.243 157.243L198.412 158.914L218.961 170.483L221.792 168.812Z" fill="white"/>
<path d="M223.85 162.534L207.699 153.429L204.867 155.1L221.019 164.205L223.85 162.534Z" fill="white"/>
<path d="M225.846 156.193L214.156 149.615L211.324 151.287L223.014 157.864L225.846 156.193Z" fill="white"/>
<path d="M237.601 155.379L220.613 145.802L217.781 147.473L234.791 157.05L237.601 155.379Z" fill="white"/>
<path d="M238.758 148.587L227.068 141.988L224.236 143.66L235.927 150.258L238.758 148.587Z" fill="white"/>
<path d="M248.347 146.531L233.525 138.197L230.693 139.846L245.515 148.202L248.347 146.531Z" fill="white"/>
<path d="M248.047 138.925L239.982 134.383L237.15 136.054L245.237 140.596L248.047 138.925Z" fill="white"/>
<path d="M262.095 139.375L246.437 130.569L243.605 132.24L259.264 141.046L262.095 139.375Z" fill="white"/>
<path d="M267.716 135.09L252.894 126.756L250.062 128.427L264.884 136.761L267.716 135.09Z" fill="white"/>
<path d="M337.556 174.425L343.862 177.981L341.031 179.653L334.725 176.096L337.556 174.425Z" fill="white"/>
<path d="M318.853 163.884L333.031 171.876L330.2 173.547L316.021 165.555L318.853 163.884Z" fill="white"/>
<path d="M336.269 134.876L360.207 148.352L357.376 150.023L333.438 136.547L336.269 134.876Z" fill="white"/>
<path d="M319.861 125.642L329.299 130.955L326.467 132.626L317.051 127.313L319.861 125.642Z" fill="white"/>
<path d="M219.624 239.448L249.247 256.137L246.437 257.808L216.793 241.119L219.624 239.448Z" fill="white"/>
<path d="M204.417 230.9L215.099 236.898L212.268 238.569L201.586 232.571L204.417 230.9Z" fill="white"/>
<path d="M192.642 224.258L199.892 228.35L197.061 230L189.811 225.929L192.642 224.258Z" fill="white"/>
<path d="M239.574 243.24L255.725 252.324L252.894 253.995L236.742 244.911L239.574 243.24Z" fill="white"/>
<path d="M215.249 229.528L235.048 240.69L232.216 242.362L212.418 231.199L215.249 229.528Z" fill="white"/>
<path d="M203.474 222.908L210.724 226.979L207.893 228.65L200.643 224.579L203.474 222.908Z" fill="white"/>
<path d="M192.255 216.588L199.505 220.68L196.674 222.351L189.424 218.259L192.255 216.588Z" fill="white"/>
<path d="M250.492 241.933L262.182 248.51L259.35 250.181L247.66 243.604L250.492 241.933Z" fill="white"/>
<path d="M241.976 237.134L245.966 239.384L243.134 241.055L239.145 238.805L241.976 237.134Z" fill="white"/>
<path d="M230.179 230.514L237.429 234.584L234.619 236.256L227.369 232.163L230.179 230.514Z" fill="white"/>
<path d="M225.503 220.423L268.639 244.697L265.808 246.368L222.672 222.094L225.503 220.423Z" fill="white"/>
<path d="M210.294 211.853L220.976 217.874L218.145 219.545L207.463 213.524L210.294 211.853Z" fill="white"/>
<path d="M159.501 205.597L138.952 194.028L136.121 195.699L156.67 207.268L159.501 205.597Z" fill="white"/>
<path d="M161.561 199.299L145.41 190.215L142.578 191.886L158.73 200.97L161.561 199.299Z" fill="white"/>
<path d="M163.555 192.979L151.865 186.401L149.033 188.072L160.723 194.65L163.555 192.979Z" fill="white"/>
<path d="M175.31 192.164L158.322 182.588L155.49 184.259L172.479 193.835L175.31 192.164Z" fill="white"/>
<g opacity="0.2">
<path opacity="0.2" d="M76.9197 440.837C72.3608 440.674 67.9239 439.322 64.0498 436.916C48.3271 427.832 35.543 405.701 35.543 387.64C35.543 378.749 38.5674 372.107 44.1229 368.937C49.6784 365.766 56.8856 366.473 64.5861 370.929C80.3088 379.992 93.093 402.123 93.093 420.205C93.093 429.075 90.0685 435.716 84.513 438.887C82.1995 440.197 79.579 440.87 76.9197 440.837V440.837ZM51.6304 367.865C49.13 367.83 46.6649 368.458 44.4876 369.687C39.2967 372.686 36.4439 379.028 36.4439 387.576C36.4439 405.401 49.0349 427.168 64.5003 436.102C71.9005 440.387 78.8288 441.073 84.0411 438.073C89.2534 435.074 92.0848 428.732 92.0848 420.205C92.0848 402.359 79.4937 380.592 64.0284 371.658C60.298 369.334 56.0236 368.027 51.6304 367.865V367.865Z" fill="#18B2A3"/>
</g>
</g>
<path d="M186.832 82.4447C198.785 65.6948 201.589 36.9359 193.011 18.2307C188.732 8.84113 182.423 3.7682 175.708 3.141L168.68 2.51379L170.026 3.67597C165.119 5.00415 160.213 8.63821 155.933 14.7442C143.998 31.4941 141.175 60.2345 149.753 78.9583C151.929 84.4254 155.811 89.0446 160.821 92.1294L159.77 93.3838L166.909 94.0295H167.001H167.278C173.956 94.4722 180.965 90.6168 186.832 82.4447Z" fill="#9FFFF8"/>
<path d="M190.509 50.4506C192.919 25.3713 183.133 3.91211 168.652 2.52023C154.17 1.12835 140.476 20.3308 138.066 45.4102C135.655 70.4896 145.441 91.9488 159.923 93.3407C174.404 94.7325 188.098 75.53 190.509 50.4506Z" fill="#00B2A9"/>
<path d="M197.68 217.901C197.68 197.333 183.236 172.319 165.434 162.025C156.506 156.879 148.426 156.399 142.578 159.793L136.491 163.353L138.336 163.519C135.107 167.449 133.244 173.26 133.244 180.638C133.244 201.225 147.688 226.239 165.508 236.514C170.467 239.715 176.335 241.211 182.221 240.776L182.092 242.417L188.272 238.728L188.53 238.58C194.193 235.131 197.68 227.973 197.68 217.901Z" fill="#9FFFF8"/>
<path d="M182.058 242.382C194.657 235.108 194.658 211.523 182.061 189.703C169.464 167.884 149.037 156.092 136.438 163.367C123.839 170.641 123.837 194.226 136.435 216.045C149.032 237.865 169.458 249.656 182.058 242.382Z" fill="#00B2A9"/>
<path d="M262.188 171.341C262.188 150.772 247.763 125.758 229.943 115.483C221.015 110.318 212.935 109.838 207.105 113.233L200.981 116.811L202.826 116.977C199.616 120.907 197.734 126.699 197.734 134.096C197.734 154.665 212.178 179.679 229.998 189.972C236.123 193.496 241.841 194.842 246.711 194.233L246.582 195.875L252.762 192.186L253.002 192.038C258.702 188.607 262.188 181.468 262.188 171.341Z" fill="#9FFFF8"/>
<path d="M246.593 195.856C259.192 188.582 259.194 164.997 246.596 143.178C233.999 121.358 213.573 109.567 200.973 116.841C188.374 124.115 188.372 147.7 200.97 169.52C213.567 191.339 233.993 203.131 246.593 195.856Z" fill="#00B2A9"/>
</g>
<defs>
<linearGradient id="paint0_linear_34_2658" x1="223.49" y1="366.196" x2="15.8521" y2="372.072" gradientUnits="userSpaceOnUse">
<stop stop-color="#5761D7"/>
<stop offset="0.04" stop-color="#5C66D9"/>
<stop offset="0.09" stop-color="#6A73DF"/>
<stop offset="0.14" stop-color="#8289E8"/>
<stop offset="0.19" stop-color="#A3A7F5"/>
<stop offset="0.22" stop-color="#BCBEFF"/>
</linearGradient>
<linearGradient id="paint1_linear_34_2658" x1="160.852" y1="259.398" x2="82.3426" y2="384.041" gradientUnits="userSpaceOnUse">
<stop stop-color="#C0BFF6"/>
<stop offset="0.29" stop-color="#C5C4F7"/>
<stop offset="0.64" stop-color="#D3D2F9"/>
<stop offset="1" stop-color="#E9E9FD"/>
</linearGradient>
<linearGradient id="paint2_linear_34_2658" x1="790616" y1="130810" x2="794680" y2="117887" gradientUnits="userSpaceOnUse">
<stop stop-color="#5761D7"/>
<stop offset="0.04" stop-color="#5C66D9"/>
<stop offset="0.09" stop-color="#6A73DF"/>
<stop offset="0.14" stop-color="#8289E8"/>
<stop offset="0.19" stop-color="#A3A7F5"/>
<stop offset="0.22" stop-color="#BCBEFF"/>
</linearGradient>
<radialGradient id="paint3_radial_34_2658" cx="0" cy="0" r="1" gradientUnits="userSpaceOnUse" gradientTransform="translate(-287094 -731545) rotate(-120.699) scale(17665.7 10023)">
<stop stop-color="#7FDFFE"/>
<stop offset="0.09" stop-color="#74BAE9"/>
<stop offset="0.2" stop-color="#6A9AD7"/>
<stop offset="0.31" stop-color="#617FC9"/>
<stop offset="0.43" stop-color="#5B6BBD"/>
<stop offset="0.57" stop-color="#565CB5"/>
<stop offset="0.73" stop-color="#5454B0"/>
<stop offset="1" stop-color="#5351AF"/>
</radialGradient>
<linearGradient id="paint4_linear_34_2658" x1="803136" y1="130897" x2="800486" y2="121762" gradientUnits="userSpaceOnUse">
<stop stop-color="#C0BFF6"/>
<stop offset="0.29" stop-color="#C5C4F7"/>
<stop offset="0.64" stop-color="#D3D2F9"/>
<stop offset="1" stop-color="#E9E9FD"/>
</linearGradient>
<linearGradient id="paint5_linear_34_2658" x1="348.554" y1="17.4955" x2="135.659" y2="388.306" gradientUnits="userSpaceOnUse">
<stop stop-color="#C0BFF6"/>
<stop offset="0.12" stop-color="#D0CFF9"/>
<stop offset="0.26" stop-color="#E9E9FD"/>
<stop offset="0.51" stop-color="#C0BFF6"/>
<stop offset="0.62" stop-color="#D0CFF9"/>
<stop offset="0.75" stop-color="#E9E9FD"/>
<stop offset="1" stop-color="#C0BFF6"/>
</linearGradient>
<radialGradient id="paint6_radial_34_2658" cx="0" cy="0" r="1" gradientUnits="userSpaceOnUse" gradientTransform="translate(-432592 -1.54806e+06) rotate(-120.699) scale(90724 74453.4)">
<stop stop-color="#7FDFFE"/>
<stop offset="0.09" stop-color="#74BAE9"/>
<stop offset="0.2" stop-color="#6A9AD7"/>
<stop offset="0.31" stop-color="#617FC9"/>
<stop offset="0.43" stop-color="#5B6BBD"/>
<stop offset="0.57" stop-color="#565CB5"/>
<stop offset="0.73" stop-color="#5454B0"/>
<stop offset="1" stop-color="#5351AF"/>
</radialGradient>
<clipPath id="clip0_34_2658">
<rect width="590" height="435" fill="white" transform="translate(0 11)"/>
</clipPath>
</defs>
</svg>
