<svg width="438" height="509" viewBox="0 0 438 509" fill="none" xmlns="http://www.w3.org/2000/svg">
<path d="M422.98 44.981H196.606C189.284 44.981 183.348 50.9171 183.348 58.2397V213.406C183.348 220.729 189.284 226.665 196.606 226.665H422.98C430.303 226.665 436.239 220.729 436.239 213.406V58.2397C436.239 50.9171 430.303 44.981 422.98 44.981Z" fill="white" stroke="#C3DBE6" stroke-width="2.73" stroke-miterlimit="10"/>
<path d="M201.754 203.852C219.731 203.852 219.731 179.206 237.748 179.206C255.764 179.206 255.764 135.765 273.78 135.765C291.797 135.765 286.805 164.076 304.977 164.076C323.15 164.076 327.985 89.9828 346.002 89.9828C364.018 89.9828 363.979 122.545 381.995 122.545C400.012 122.545 400.011 89.9828 418.028 89.9828" stroke="#C3DBE6" stroke-width="2" stroke-linecap="round" stroke-linejoin="round"/>
<g clip-path="url(#clip0_187_6401)">
<path d="M300.431 273.268C300.431 273.268 309.639 273.137 312.918 269.617C316.196 266.098 321.987 262.892 323.87 261.987C326.353 260.782 333.224 254.1 334.093 257.364C334.962 260.628 323.14 268.894 320.95 271.129C318.759 273.363 330.749 274.334 332.516 276.503C334.283 278.672 328.135 301.468 320.103 299.708C312.07 297.949 305.499 289.844 303.98 289.858C302.461 289.873 298.051 288.843 298.051 288.843L300.431 273.268Z" fill="#EEA886"/>
<path d="M330.736 275.554C330.736 275.554 354.708 282.856 355.694 284.944C356.68 287.032 356.016 288.537 353.73 287.967C351.445 287.397 330.269 281.687 330.269 281.687C330.269 281.687 356.461 296.006 357.637 297.438C358.33 298.285 357.177 301.271 355.913 301.089C354.65 300.906 327.677 288.544 327.677 288.544C327.677 288.544 352.109 301.972 352.715 303.564C353.248 304.959 351.612 307.529 349.714 306.689C347.815 305.85 324.281 294.962 324.281 294.962C324.281 294.962 341.295 306.112 341.032 307.945C340.871 309.07 339.98 311.684 335.694 308.675C331.408 305.667 320.426 299.774 320.426 299.774L330.736 275.554Z" fill="#EEA886"/>
<path d="M184.373 334.97C184.373 334.97 214.953 452.151 226.636 479.278C237.421 504.375 240.985 539.475 242.467 557.11C244.336 579.278 255.457 665.631 256.771 672.115C258.086 678.599 220.795 675.701 220.795 675.701C220.795 675.701 195.084 526.398 184.409 504.609C177.282 490.07 135.953 385.799 131.222 391.808C126.49 397.818 120.626 502.287 117.122 519.592C113.617 536.898 102.868 673.963 102.868 673.963C102.868 673.963 78.8228 677.511 72.4044 672.079C72.4044 672.079 69.4836 555.072 71.6742 522.557C72.5285 510.143 57.1579 373.984 76.8659 319.154C87.2785 290.158 184.373 334.97 184.373 334.97Z" fill="#2D3133"/>
<path d="M181.323 320.161C181.323 320.161 183.689 322.987 184.376 334.97C184.376 334.97 87.1429 323.63 76.869 319.154C76.869 319.154 76.4674 305.959 78.6434 305.725C81.0384 305.492 181.323 320.161 181.323 320.161Z" fill="#495055"/>
<path d="M98.4102 109.887C98.7168 125.148 128.261 133.494 128.261 133.494C128.261 133.494 140.615 118 137.665 116.517C136.504 115.933 136.037 113.596 135.891 111.026C135.798 108.718 135.855 106.405 136.059 104.104C136.147 103.031 136.227 102.337 136.227 102.337C136.227 102.337 132.006 97.8826 126.639 92.5741C117.256 83.2933 104.354 71.3985 104.332 76.1374C104.338 76.4397 104.375 76.7406 104.442 77.0356C106.712 87.6745 98.4102 109.887 98.4102 109.887Z" fill="#EEA886"/>
<path d="M100.86 308.069C100.86 308.069 98.7353 321.446 98.5527 324.937L94.0547 324.039C94.0547 324.039 95.296 309.88 96.0189 307.507L100.86 308.069Z" fill="#353A3D"/>
<path d="M173.211 318.635C173.211 318.635 174.919 330.8 174.956 335.43L170.202 334.816C170.202 334.816 169.224 319.621 168.684 318.022L173.211 318.635Z" fill="#353A3D"/>
<path d="M109.809 87.5284C109.867 87.6234 111.116 89.4927 113.255 92.1871C117.79 97.8899 126.318 107.266 135.891 111.026C135.799 108.717 135.855 106.405 136.059 104.104C137.042 104.08 138.02 103.963 138.98 103.753C137.037 100.487 134.891 97.3455 132.554 94.3485L126.625 92.5741L109.809 87.5284Z" fill="#A77860"/>
<path d="M104.117 76.3418C106.673 81.9059 109.097 85.9293 109.791 87.5284C110.702 89.2436 111.864 90.8136 113.237 92.1871C118.108 97.4299 127.162 104.352 136.056 104.104C137.038 104.08 138.016 103.963 138.977 103.753C142.569 102.972 146.812 101.3 149.141 96.7289C167.578 60.6426 154.252 31.1355 154.252 31.1355C154.252 31.1355 103.869 16.8821 95.9681 32.0555C90.4259 42.6945 98.1222 63.2786 104.117 76.3418Z" fill="#EEA886"/>
<path d="M154.247 31.1356C154.247 31.1356 158.927 30.8727 160.088 22.0008C161.249 13.129 158.92 10.7996 158.92 10.7996C158.92 10.7996 138.109 2.09571 130.639 1.00041C123.169 -0.0948791 104.798 -1.22667 100.49 3.70214C100.49 3.70214 90.0259 1.27057 87.1708 18.6419C82.6509 46.1995 102.585 72.9538 102.585 72.9538C102.585 72.9538 102.417 54.9545 106.382 52.5668C110.347 50.179 113.779 55.8527 113.779 55.8527L121.906 57.3131C121.906 57.3131 109.566 30.6828 124.367 29.6971C139.168 28.7113 145.776 32.6763 154.247 31.1356Z" fill="#252E3B"/>
<path d="M113.56 48.6383C112.786 40.7084 98.4447 37.6854 99.4013 45.995C100.358 54.3046 107.433 62.293 110.69 62.0155C113.947 61.738 114.144 54.6843 113.56 48.6383Z" fill="#EEA886"/>
<path d="M46.4097 311.793C36.6762 294.787 26.8186 277.248 20.5754 265.331C16.5301 257.642 14.0036 252.282 14.0474 250.961V250.435C14.3103 238.84 20.0277 192.399 29.6444 161.599C34.3176 146.66 38.3556 134.809 40.1592 133.516C43.2918 131.267 68.1695 124.425 79.984 119.796L81.1013 119.35L84.263 118.116C84.7742 117.912 85.278 117.722 85.7818 117.532L86.5923 117.218L87.2495 116.97L87.3079 117.036C91.9611 122.345 96.3172 127.908 100.357 133.699C112.558 151.063 128.447 179.146 126.016 205.097C125.234 213.421 124.27 225.382 122.649 238.796C122.511 239.942 122.365 241.096 122.219 242.264C121.844 245.365 121.413 248.51 120.926 251.698C120.641 253.619 120.349 255.546 120.035 257.489C116.808 277.606 106.68 291.319 97.684 307.719L97.4577 308.135L97.3262 308.369L96.7567 309.428C96.4427 309.997 96.136 310.581 95.8293 311.158L95.3109 312.166C93.5876 315.466 91.9081 318.84 90.2725 322.235C89.2137 324.426 88.1768 326.616 87.1619 328.807C87.0596 329.041 86.9574 329.26 86.8479 329.493C86.8479 329.493 85.1904 333.312 83.0728 338.256C82.2915 340.066 81.4518 342.031 80.6047 344.002C80.0206 345.353 79.4364 346.711 78.8742 348.033L77.4138 351.377L74.8873 357.299L74.0111 359.373C70.9223 367.12 68.688 373.093 67.6584 375.883C67.2422 377.007 67.0304 377.613 67.0304 377.613L35.9241 360.446C30.0241 357.489 33.1347 341.571 35.3253 335.357C37.4263 329.721 39.8822 324.223 42.6784 318.898C43.8759 316.554 45.1318 314.181 46.4097 311.793Z" fill="#3C4145"/>
<path d="M126.917 336.963L38.2567 376.394C37.0632 376.928 35.776 377.221 34.4688 377.257C33.1616 377.293 31.8602 377.071 30.6392 376.603C29.4182 376.134 28.3015 375.43 27.3533 374.53C26.405 373.629 25.6438 372.55 25.1132 371.355L0.841558 316.824C0.308276 315.631 0.0155578 314.344 -0.0197997 313.037C-0.0551571 311.73 0.167517 310.429 0.635477 309.208C1.10344 307.987 1.80753 306.871 2.70742 305.922C3.60731 304.974 4.68534 304.212 5.87988 303.681L94.5402 264.25C95.7337 263.716 97.0209 263.423 98.3281 263.387C99.6353 263.351 100.937 263.573 102.158 264.041C103.379 264.509 104.495 265.214 105.444 266.114C106.392 267.015 107.153 268.093 107.684 269.289L131.955 323.812C133.031 326.224 133.104 328.965 132.159 331.431C131.214 333.897 129.329 335.887 126.917 336.963Z" fill="#B3A5A0"/>
<path d="M146.031 120.621C146.031 120.621 150.186 134.495 155.524 169.018C155.709 170.182 155.891 171.365 156.071 172.567C156.071 172.706 156.115 172.852 156.137 172.991C156.254 173.786 156.378 174.597 156.495 175.415C156.495 175.517 156.495 175.612 156.546 175.707L156.787 177.372C156.992 178.737 157.189 180.125 157.393 181.548C159.795 198.343 163.162 226.981 166.396 255.875C168.952 278.65 174.772 302.016 176.619 319.46C177.185 323.883 177.994 328.271 179.043 332.604C179.175 333.181 179.314 333.772 179.452 334.371C184.659 356.379 194.786 387.536 194.786 387.536L197.707 384.82L206.433 376.788C207.417 375.881 208.123 374.713 208.471 373.421C208.819 372.129 208.793 370.764 208.397 369.486C203.556 353.874 187.112 298.657 184.096 259.781C185.557 246.127 189.354 227.814 188.784 225.178L188.894 225.462C190.624 230.282 192.545 235.517 194.472 240.614C199.664 254.298 204.98 266.981 207.192 267.792C212.107 269.603 300.504 295.685 301.147 292.041C301.212 291.676 301.285 291.311 301.373 290.873C301.461 290.435 301.541 290.041 301.636 289.595C302.724 284.615 304.71 277.474 306.09 272.648C306.294 271.917 306.492 271.275 306.66 270.676C307.244 268.675 307.623 267.412 307.623 267.412L232.866 242.877L195.239 144.214C194.509 143.629 184.87 138.445 178.496 135.415C171.866 132.253 163.468 128.361 156.02 124.922L146.28 120.438L146.031 120.621Z" fill="#3C4145"/>
<path d="M95.4129 154.816L109.79 162.921L103.649 169.186L120.028 257.467C123.357 236.773 124.876 217.123 126.008 205.075C129.769 164.966 89.7319 119.715 87.242 116.948C85.3216 117.678 83.2405 118.481 81.0938 119.328L95.4129 154.816Z" fill="#51565C"/>
<path d="M145.805 120.234C145.805 120.234 151.179 137.759 157.437 181.57C159.832 198.365 163.205 227.018 166.44 255.904L169.784 173.224L162.935 165.805L169.025 158.197L155.998 124.944L146.257 120.46L145.805 120.234Z" fill="#51565C"/>
<path d="M86.4414 117.255L98.4385 109.887C98.4385 109.887 98.7744 116.459 128.289 133.494L119.906 157.102L86.4414 117.255Z" fill="#F5E2D9"/>
<path d="M136.096 113.18C136.096 113.18 135.628 120.234 128.246 133.494L144.602 154.816L145.793 120.234L136.096 113.18Z" fill="#F5E2D9"/>
<path d="M128.215 133.494C128.215 133.494 125.045 146.17 126.185 149.727C126.185 149.727 133.158 152.26 138.167 149.091C138.167 149.091 134.633 140.212 128.215 133.494Z" fill="#00B2A9"/>
<path d="M144.601 316.372C146.375 307.427 144.688 280.592 144.601 279.475L143.082 279.577C143.082 279.855 144.827 307.325 143.082 316.087L144.601 316.372Z" fill="#EAEAEA"/>
<path d="M132.189 312.246C132.189 312.246 146.494 313.955 151.225 315.167L150.605 331.231L131.875 329.238L132.189 312.246Z" fill="#69737A"/>
<path d="M135.32 147.952C135.32 147.952 151.275 188.244 148.676 233.341C145.974 280.074 141.549 297.058 141.549 297.058L131.713 309.398L127.332 294.232C127.332 294.232 140.534 234.619 132.013 176.605C130.472 166.09 128.179 146.17 128.179 146.17L135.32 147.952Z" fill="#00B2A9"/>
<path d="M87.3744 338.241C87.3744 338.241 90.799 345.09 94.2236 346.229C97.6482 347.369 102.635 352.933 102.635 352.933L78.539 365.631C78.539 365.631 72.1206 353.079 71.8358 345.09C71.5511 337.102 87.3744 338.241 87.3744 338.241Z" fill="#EEA886"/>
<path d="M89.6615 338.883L91.2606 342.089C91.2606 342.089 75.9265 353.29 71.8228 354.006L70.4062 349.727L89.6615 338.883Z" fill="#DECBC4"/>
<path d="M91.2598 339.022C91.2598 339.022 79.7811 348.515 70.0842 352.896L26.7617 276.956L54.4142 261.841C54.4142 261.841 90.5004 333.319 91.2598 339.022Z" fill="#3C4145"/>
<path d="M188.396 204.725C188.929 215.546 188.849 225.17 188.849 225.17C188.849 225.221 188.849 225.521 188.849 226.003C188.849 225.82 188.893 225.638 188.922 225.455C190.652 230.274 192.573 235.51 194.501 240.607C194.928 235.114 195.074 229.604 194.939 224.097C194.165 193.757 184.621 177.846 184.621 177.846C186.848 183.111 187.892 194.458 188.396 204.725Z" fill="#2D3133"/>
</g>
<defs>
<clipPath id="clip0_187_6401">
<rect width="357.839" height="714.635" fill="white"/>
</clipPath>
</defs>
</svg>
