<svg width="286" height="446" viewBox="0 0 286 446" fill="none" xmlns="http://www.w3.org/2000/svg">
<path d="M284.425 88.2324L208.005 6.18043L131.584 0.0814209C131.584 0.0814209 119.386 103.765 208.005 213.547C296.705 206.025 284.425 88.2324 284.425 88.2324Z" fill="#40BDF2"/>
<path d="M131.582 0L114.383 9.92106L190.803 16.1014L208.003 6.18033L131.582 0Z" fill="#40BDF2"/>
<path d="M267.285 98.1742L190.864 16.1018L159.454 12.9303L114.443 9.92151C114.443 9.92151 102.245 113.605 190.864 223.387C279.483 215.946 267.285 98.1742 267.285 98.1742Z" fill="#40BDF2"/>
<path d="M267.283 98.1737L190.862 16.1013L114.441 10.0023L116.596 8.76221L194.033 15.0238L270.454 97.0759C270.454 97.0759 280.721 195.534 214.668 218.101C277.143 193.44 267.283 98.1737 267.283 98.1737Z" fill="#2DA5D8"/>
<path opacity="0.2" d="M257.95 99.4343L189.234 25.6567L160.976 22.8105L120.519 20.1066C120.519 20.1066 109.48 113.238 189.234 212.042C268.989 205.333 257.95 99.4343 257.95 99.4343Z" fill="#0052B2"/>
<path d="M95.1359 221.016C110.67 199.249 114.314 161.875 103.167 137.567C97.6051 125.365 89.4064 118.772 80.6804 117.957L71.5468 117.142L73.2968 118.653C66.9201 120.379 60.5433 125.101 54.9816 133.036C39.4713 154.803 35.8035 192.153 46.9508 216.485C49.7784 223.59 54.8228 229.593 61.3345 233.602L59.968 235.232L69.2454 236.071H69.3652H69.7249C78.403 236.646 87.5126 231.636 95.1359 221.016Z" fill="#9FFFF8"/>
<path d="M99.9176 179.438C103.05 146.846 90.3331 118.959 71.5135 117.15C52.6938 115.341 34.8981 140.295 31.7656 172.887C28.6331 205.479 41.3501 233.366 60.1698 235.175C78.9894 236.984 96.7851 212.029 99.9176 179.438Z" fill="#00B2A9"/>
<path d="M109.233 397.046C109.233 370.317 90.4621 337.81 67.3285 324.433C55.7257 317.745 45.2256 317.121 37.6263 321.532L29.7153 326.159L32.1126 326.375C27.9174 331.481 25.4961 339.032 25.4961 348.622C25.4961 375.375 44.2667 407.882 67.4243 421.235C73.8692 425.394 81.4942 427.338 89.1436 426.773L88.9758 428.906L97.0066 424.112L97.3423 423.92C104.702 419.437 109.233 410.136 109.233 397.046Z" fill="#9FFFF8"/>
<path d="M88.9311 428.86C105.305 419.407 105.306 388.757 88.9355 360.402C72.5646 332.047 46.02 316.723 29.6467 326.177C13.2733 335.63 13.2713 366.28 29.6422 394.635C46.0132 422.99 72.5577 438.313 88.9311 428.86Z" fill="#00B2A9"/>
<path d="M193.065 336.539C193.065 309.81 174.319 277.303 151.161 263.95C139.558 257.238 129.058 256.614 121.483 261.025L113.524 265.676L115.921 265.892C111.75 270.998 109.305 278.525 109.305 288.139C109.305 314.868 128.075 347.375 151.233 360.752C159.192 365.331 166.623 367.081 172.952 366.289L172.784 368.423L180.815 363.628L181.127 363.437C188.535 358.978 193.065 349.7 193.065 336.539Z" fill="#9FFFF8"/>
<path d="M172.795 368.398C189.168 358.945 189.17 328.295 172.799 299.94C156.428 271.585 129.883 256.261 113.51 265.715C97.1366 275.168 97.1346 305.818 113.506 334.173C129.877 362.528 156.421 377.852 172.795 368.398Z" fill="#00B2A9"/>
</svg>
