<svg width="182" height="178" viewBox="0 0 182 178" fill="none" xmlns="http://www.w3.org/2000/svg">
<g clip-path="url(#clip0_93_6841)">
<path d="M169.157 75.669L38.8991 0.48485C38.5155 0.213429 38.0659 0.0502974 37.5976 0.01259C37.1292 -0.0251174 36.6593 0.0639971 36.2373 0.270559L34.3086 1.39843L35.1996 1.52249C34.9435 2.16791 34.8208 2.85852 34.8387 3.55267V93.2751C34.8387 96.2753 36.6546 99.7491 38.8991 101.035L169.124 176.23C169.354 176.357 169.596 176.463 169.845 176.546V177.573L171.785 176.445C172.288 176.07 172.684 175.569 172.931 174.993C173.179 174.417 173.27 173.785 173.195 173.163V83.4739C173.218 80.4399 171.402 76.9661 169.157 75.669Z" fill="white"/>
<path d="M167.277 177.324L37.0408 102.14C34.785 100.843 32.9805 97.3694 32.9805 94.3805V4.65801C32.9805 1.66914 34.7963 0.293132 37.0408 1.59019L167.277 76.7744C169.532 78.0714 171.337 81.5453 171.337 84.5341V174.257C171.337 177.245 169.521 178.621 167.277 177.324Z" fill="#00B2A9"/>
<path d="M68.9457 101.949L44.2227 87.6697V84.365L68.9457 98.6439V101.949Z" fill="white"/>
<path d="M99.3324 119.487L74.6094 105.219V101.915L99.3324 116.182V119.487Z" fill="white"/>
<path d="M129.715 137.037L104.992 122.758V119.453L129.715 133.732V137.037Z" fill="white"/>
<path d="M160.102 154.575L135.379 140.308V137.003L160.102 151.271V154.575Z" fill="white"/>
<path opacity="0.2" d="M62.2701 36.8928L32.9453 34.5129V94.3806C32.9453 97.3694 34.7612 100.843 37.0057 102.14L93.3995 134.68C107.96 114.039 104.678 82.4138 104.678 82.4138L62.2701 36.8928Z" fill="#041860"/>
<path d="M94.652 89.3954L52.2552 43.8743L9.85831 40.4907C9.85831 40.4907 3.09109 98.0124 52.2552 158.918C101.464 154.744 94.652 89.3954 94.652 89.3954Z" fill="#00B2A9"/>
<path d="M9.85823 40.4456L0.316406 45.9496L42.7132 49.3783L52.2551 43.8743L9.85823 40.4456Z" fill="#00B2A9"/>
<path d="M85.1442 94.9108L42.7473 49.3784L25.3217 47.619L0.350503 45.9497C0.350503 45.9497 -6.41679 103.471 42.7473 164.377C91.9114 160.249 85.1442 94.9108 85.1442 94.9108Z" fill="#52D7D0"/>
<path d="M85.1452 94.9106L42.7484 49.3783L0.351562 45.9946L1.54711 45.3066L44.5078 48.7805L86.9047 94.3015C86.9047 94.3015 92.6005 148.925 55.9558 161.444C90.6154 147.763 85.1452 94.9106 85.1452 94.9106Z" fill="#01939A"/>
<path opacity="0.2" d="M79.9658 95.61L41.8436 54.6794L26.1662 53.1004L3.72148 51.6003C3.72148 51.6003 -2.4029 103.268 41.8436 158.083C86.0902 154.361 79.9658 95.61 79.9658 95.61Z" fill="#00B2A9"/>
<path d="M14.8665 67.0995L13.3672 65.6001L11.8678 67.0995L13.3672 68.5988L14.8665 67.0995Z" fill="white"/>
<path d="M20.3001 67.0655L18.8008 65.5662L17.3014 67.0655L18.8008 68.5648L20.3001 67.0655Z" fill="white"/>
<path d="M17.5814 64.3812L16.082 62.8818L14.5827 64.3812L16.082 65.8805L17.5814 64.3812Z" fill="white"/>
<path d="M17.5853 69.7725L16.0859 68.2732L14.5866 69.7725L16.0859 71.2719L17.5853 69.7725Z" fill="white"/>
<path d="M170.77 59.1007L167.691 56.0103L175.102 48.6001L167.691 41.19L170.77 38.0996L181.271 48.6001L170.77 59.1007ZM168.921 56.0103L170.77 57.8713L180.042 48.6001L170.77 39.329L168.921 41.19L176.331 48.6001L168.921 56.0103Z" fill="#00B2A9"/>
<path d="M159.29 38.72L156.82 41.19L164.23 48.6002L156.82 56.0103L159.29 58.4803L166.701 51.0702L169.171 48.6002L159.29 38.72Z" fill="#00B2A9"/>
</g>
<defs>
<clipPath id="clip0_93_6841">
<rect width="181.272" height="177.81" fill="white"/>
</clipPath>
</defs>
</svg>
