<svg width="100" height="157" viewBox="0 0 100 157" fill="none" xmlns="http://www.w3.org/2000/svg">
<g clip-path="url(#clip0_73_19509)">
<path opacity="0.5" d="M63.9036 154.571L4.19907 120.052C-2.01472 116.444 -1.24703 110.16 5.93721 106C13.107 101.84 36.8468 101.811 43.0606 105.418L95.9864 136.097C105.532 141.741 96.0878 149.509 88.1504 153.553C80.9661 157.713 70.1174 158.178 63.9036 154.571Z" fill="#0F154D"/>
<path d="M87.1794 82.0712L0.838083 49.7489V114.044C0.56288 116.139 1.66372 118.176 4.21296 119.645L62.5849 153.596C67.6399 156.505 76.4754 156.171 82.3271 152.782C85.4122 150.992 87.0345 148.709 87.1504 146.527L87.1794 82.0712Z" fill="#00B2A9"/>
<path d="M62.5861 88.9953L4.21418 55.0438C-0.84086 52.1345 -0.218032 46.9851 5.66262 43.6103C11.4564 40.221 20.3353 39.8428 25.3903 42.7812L83.7333 76.718C88.7883 79.6273 88.1655 84.7768 82.2849 88.1661C76.4766 91.57 67.7136 91.9337 62.5861 88.9953Z" fill="#40C0BA"/>
<path d="M49.7537 3.31656C46.0353 1.16905 41.82 0.0411331 37.5307 0.0459136C33.2413 0.0506941 29.0285 1.18802 25.3149 3.34382C21.6013 5.49961 18.5174 8.5981 16.3724 12.3285C14.2273 16.059 13.0967 20.2903 13.0938 24.598V51.2472C13.0938 53.8364 16.6858 55.9311 21.1181 55.9311C25.5503 55.9311 29.1569 53.8364 29.1569 51.2472C29.1569 51.2472 29.1569 51.2472 29.1569 51.1454H29.2438V28.0455C29.2444 26.2204 29.7225 24.4275 30.6303 22.8463C31.538 21.2652 32.8436 19.9514 34.4161 19.0365C35.9887 18.1216 37.773 17.6379 39.5903 17.6336C41.4077 17.6293 43.1942 18.1047 44.771 19.0122C48.7252 21.2811 52.0129 24.5581 54.3019 28.512C56.5909 32.4659 57.8 36.9565 57.807 41.5301V77.0381H57.8939C57.9808 79.5982 61.5439 81.6493 65.9182 81.6493C70.2925 81.6493 73.8991 79.5691 73.9425 76.9944V45.1958C73.9346 36.6954 71.6941 28.3475 67.4471 20.9945C63.2002 13.6415 57.097 7.54375 49.7537 3.31656Z" fill="#C2BEF4"/>
<path d="M49.2883 15.6229C48.8214 15.3411 48.3376 15.0885 47.8398 14.8665C51.6637 17.4496 54.7978 20.9358 56.9671 25.0191C59.1365 29.1024 60.2747 33.6581 60.2819 38.2862V79.9764C61.2415 80.5155 62.2844 80.8893 63.3671 81.082V40.0755C63.3606 35.1179 62.0565 30.2491 59.5854 25.9574C57.1144 21.6656 53.5633 18.1017 49.2883 15.6229Z" fill="#E0DCFF"/>
<path d="M32.9508 11.3463C29.4677 11.3501 26.1285 12.7414 23.6656 15.2148C21.2027 17.6883 19.8173 21.0419 19.8135 24.5399V52.3673L19.7266 55.2766C19.7266 55.5239 24.2167 55.1457 24.3326 54.7238L24.4195 51.8145V23.9871C24.4221 21.1645 25.3251 18.417 26.9959 16.1474C28.6668 13.8777 31.0177 12.2053 33.704 11.3754L32.9508 11.3463Z" fill="#ADA2E5"/>
<path d="M40.8738 5.64405C45.038 5.64853 49.137 6.68269 52.8089 8.65518C51.3943 7.5922 49.9139 6.62048 48.3767 5.74589C45.1018 3.82873 41.3766 2.82438 37.5859 2.8366C31.8237 2.8366 26.2974 5.13544 22.2229 9.22742C18.1484 13.3194 15.8594 18.8694 15.8594 24.6563V24.729C17.4214 19.2639 20.7013 14.4525 25.2094 11.0129C29.7176 7.5734 35.2125 5.69008 40.8738 5.64405Z" fill="#E0DCFF"/>
<path d="M67.7148 50.069V81.2275C69.1462 81.0416 70.5202 80.5453 71.7415 79.7729C71.9031 79.4307 71.9965 79.0601 72.0167 78.6819V46.9415C71.9588 33.1951 67.7148 35.988 67.7148 50.069Z" fill="#ADA2E5"/>
<path d="M44.5384 100.385C44.39 97.6329 43.5946 94.955 42.2175 92.5708C40.8404 90.1865 38.9207 88.1637 36.6155 86.6678C32.2702 84.1368 28.707 86.1587 28.707 91.2063C28.9058 94.9459 30.3088 98.5193 32.7047 101.389V117.39L40.5263 121.928V105.927C42.9741 105.811 44.5384 103.774 44.5384 100.385Z" fill="#00938B"/>
<path d="M34.1249 116.808V100.807C31.7262 97.9391 30.3228 94.3647 30.1272 90.6245C30.0391 89.6946 30.1823 88.7573 30.5438 87.8966C30.9053 87.0359 31.4738 86.2789 32.1985 85.6932C30.1272 86.1296 28.7656 88.0934 28.7656 91.2209C28.9644 94.9604 30.3674 98.5339 32.7633 101.403V117.405L40.5849 121.943V120.561L34.1249 116.808Z" fill="#007872"/>
</g>
<defs>
<clipPath id="clip0_73_19509">
<rect width="100" height="157" fill="white"/>
</clipPath>
</defs>
</svg>
