<svg width="136" height="182" viewBox="0 0 136 182" fill="none" xmlns="http://www.w3.org/2000/svg">
<path d="M134.873 41.8403L98.6336 2.93082L62.3945 0.0386353C62.3945 0.0386353 56.6102 49.2057 98.6336 101.265C140.696 97.698 134.873 41.8403 134.873 41.8403Z" fill="#40BDF2"/>
<path d="M62.3981 0L54.2422 4.70462L90.4812 7.63536L98.6372 2.93074L62.3981 0Z" fill="#40BDF2"/>
<path d="M126.748 46.5546L90.5085 7.63545L75.6139 6.13152L54.2695 4.70471C54.2695 4.70471 48.4852 53.8718 90.5085 105.931C132.532 102.403 126.748 46.5546 126.748 46.5546Z" fill="#40BDF2"/>
<path d="M126.748 46.5544L90.5085 7.63528L54.2695 4.7431L55.2914 4.15503L92.0125 7.12433L128.252 46.0338C128.252 46.0338 133.12 92.7232 101.798 103.424C131.423 91.7303 126.748 46.5544 126.748 46.5544Z" fill="#2DA5D8"/>
<path opacity="0.2" d="M122.323 47.1523L89.7375 12.1666L76.3371 10.8169L57.1523 9.53467C57.1523 9.53467 51.9175 53.6983 89.7375 100.552C127.558 97.3702 122.323 47.1523 122.323 47.1523Z" fill="#0052B2"/>
<path d="M45.1115 104.807C52.478 94.4846 54.2059 76.7619 48.9198 65.2348C46.2824 59.4485 42.3946 56.3223 38.2566 55.9358L33.9255 55.5493L34.7553 56.2654C31.7315 57.0839 28.7076 59.3234 26.0702 63.0862C18.7151 73.4083 16.9758 91.1197 22.2619 102.658C23.6028 106.027 25.9949 108.874 29.0827 110.775L28.4347 111.548L32.8341 111.946H32.891H33.0615C37.1767 112.219 41.4965 109.843 45.1115 104.807Z" fill="#9FFFF8"/>
<path d="M47.3787 85.0902C48.8642 69.635 42.8337 56.4108 33.9094 55.5531C24.985 54.6953 16.5462 66.5289 15.0607 81.984C13.5753 97.4392 19.6057 110.663 28.5301 111.521C37.4545 112.379 45.8933 100.545 47.3787 85.0902Z" fill="#00B2A9"/>
<path d="M51.7982 188.281C51.7982 175.606 42.8971 160.191 31.927 153.848C26.4249 150.676 21.4457 150.381 17.842 152.472L14.0906 154.666L15.2274 154.769C13.238 157.19 12.0898 160.771 12.0898 165.318C12.0898 178.005 20.991 193.42 31.9724 199.752C35.0286 201.724 38.6444 202.646 42.2718 202.378L42.1922 203.389L46.0005 201.116L46.1597 201.025C49.6496 198.899 51.7982 194.488 51.7982 188.281Z" fill="#9FFFF8"/>
<path d="M42.1716 203.368C49.9359 198.885 49.9369 184.351 42.1737 170.904C34.4105 157.458 21.8229 150.192 14.0586 154.674C6.29425 159.157 6.2933 173.692 14.0565 187.138C21.8197 200.584 34.4072 207.85 42.1716 203.368Z" fill="#00B2A9"/>
<path d="M91.5518 159.589C91.5518 146.913 82.662 131.498 71.6805 125.166C66.1784 121.983 61.1993 121.688 57.607 123.78L53.8328 125.985L54.9696 126.087C52.9916 128.509 51.832 132.078 51.832 136.637C51.832 149.312 60.7332 164.727 71.7147 171.07C75.4888 173.242 79.0129 174.071 82.014 173.696L81.9345 174.708L85.7427 172.434L85.8905 172.344C89.4032 170.229 91.5518 165.83 91.5518 159.589Z" fill="#9FFFF8"/>
<path d="M81.9412 174.696C89.7055 170.214 89.7065 155.679 81.9433 142.233C74.1801 128.787 61.5925 121.52 53.8281 126.003C46.0638 130.486 46.0628 145.02 53.826 158.466C61.5892 171.913 74.1768 179.179 81.9412 174.696Z" fill="#00B2A9"/>
</svg>
