<svg width="214" height="179" viewBox="0 0 214 179" fill="none" xmlns="http://www.w3.org/2000/svg">
<g clip-path="url(#clip0_38_819)">
<path d="M204.219 96.282H140.466C138.458 96.2874 136.5 96.9095 134.857 98.0642C133.215 99.219 131.967 100.851 131.282 102.738L100.116 188.377C99.5789 189.854 99.4059 191.438 99.6112 192.996C99.8165 194.553 100.394 196.039 101.295 197.326C102.196 198.613 103.394 199.665 104.787 200.391C106.18 201.117 107.728 201.497 109.299 201.499H173.036C175.047 201.497 177.008 200.876 178.654 199.721C180.3 198.566 181.55 196.933 182.236 195.043L213.402 109.404C213.939 107.927 214.112 106.343 213.907 104.785C213.701 103.227 213.124 101.742 212.223 100.455C211.322 99.1673 210.124 98.116 208.731 97.3897C207.338 96.6634 205.79 96.2835 204.219 96.282V96.282Z" fill="#A2C5D2"/>
<path d="M130.879 7.94793C128.158 8.15795 125.611 9.36709 123.728 11.3427C121.844 13.3182 120.759 15.9206 120.679 18.6487C119.888 28.8492 121.728 34.1431 117.322 44.3436C112.916 54.5441 109.381 68.2469 127.732 69.4897C146.083 70.7324 151.748 69.9739 157.397 74.3317C163.046 78.6895 182.301 65.3901 175.41 53.6079C168.518 41.8257 165.871 35.0954 168.695 25.9924C171.52 16.8895 165.564 6.91498 154.573 2.6056C145.341 -0.961333 137.771 -0.412577 130.879 7.94793Z" fill="#21323F"/>
<path d="M126.102 66.3585C126.102 66.3585 128.668 74.4285 122.358 97.428C116.047 120.427 113.981 128.094 108.025 132.436C104.345 135.099 62.6074 135.099 62.6074 135.099V123.333L99.3259 118.862C99.3259 118.862 103.974 96.0722 108.671 81.7399C110.285 76.8011 113.029 63.9859 118.823 61.4197C124.617 58.8534 126.102 66.3585 126.102 66.3585Z" fill="#00B2A9"/>
<path d="M173.263 105.756C171.52 118.765 166.807 150.641 166.807 150.641H117.999C117.999 150.641 119.468 131.144 117.079 120.557C116.762 118.887 116.179 117.28 115.352 115.795C111.559 109.743 108.17 104.094 108.138 97.8638C108.133 96.2886 108.34 94.7198 108.751 93.1993C110.946 85.0486 114.239 66.988 118.322 61.9684C122.406 56.9489 142.758 57.5783 142.758 57.5783C142.758 57.5783 169.357 57.659 177.33 62.1137C179.444 63.308 180.267 65.9873 180.429 69.183C180.978 79.1414 174.554 95.9108 173.263 105.756Z" fill="#00B2A9"/>
<path d="M165.386 110.001C165.386 110.001 128.167 112.987 117.079 120.557C116.762 118.887 116.179 117.28 115.352 115.795C111.559 109.743 108.17 104.094 108.138 97.8638C110.607 102.98 116.886 109.791 132.896 110.001C158.64 110.292 165.386 110.001 165.386 110.001Z" fill="#048F88"/>
<path d="M173.263 105.756C171.52 118.765 166.807 150.641 166.807 150.641L169.147 75.3162L180.445 69.183C180.977 79.1414 174.554 95.9108 173.263 105.756Z" fill="#048F88"/>
<path d="M154.492 124.818C154.492 124.818 131.202 125.673 123.826 126.157C120.351 124.828 116.741 123.881 113.061 123.333C106.815 122.848 101.327 129.095 99.6807 135.099H153.637L154.492 124.818Z" fill="#FFC29F"/>
<path d="M179.411 64.6154C184.206 74.1143 187.993 84.0895 190.709 94.3775C195.18 111.325 201.297 128.514 195.648 133.21C189.999 137.907 153.684 136.035 153.684 136.035L152.748 123.333L180.364 118.862C180.364 118.862 169.937 92.7313 168.291 88.0184C166.645 83.3055 165.386 68.8279 171.196 66.3101C177.006 63.7923 179.411 64.6154 179.411 64.6154Z" fill="#00B2A9"/>
<path d="M144.872 150.641C144.872 154.87 154.556 169.235 152.587 183.244C151.328 192.412 143.436 201.482 125.052 201.482C99.9386 201.482 59.9114 201.208 53.3747 201.482C48.1776 201.692 45.7082 201.805 48.7425 211.602C55.9571 234.795 49.8561 274.274 47.9678 327.713H36.9442C36.9442 327.713 27.2602 272.256 23.1929 245.399C16.9145 203.661 7.37573 187.295 25.5494 178.628C44.7559 169.477 118.015 150.625 118.015 150.625L144.872 150.641Z" fill="#203B53"/>
<path d="M166.806 150.641C166.726 154.87 176.49 169.235 174.537 183.244C173.262 192.412 165.386 201.482 146.986 201.482H75.3087C70.1116 201.482 67.6422 201.805 70.6927 211.602C77.8911 234.795 74.6792 274.742 71.0639 327.713H60.0725C60.0725 327.713 49.2103 272.256 45.1754 245.399C38.8969 203.661 29.3582 187.295 47.5318 178.628C66.7384 169.477 134.413 150.625 134.413 150.625L166.806 150.641Z" fill="#2C4C6A"/>
<path d="M129.459 58.1594C129.459 58.1594 129.314 68.5536 136.367 74.5254C136.367 74.5254 151.345 67.5368 156.752 58.1756C147.676 57.2918 138.536 57.2864 129.459 58.1594V58.1594Z" fill="#FFC29F"/>
<path d="M132.509 57.9011C133.609 57.7405 134.606 57.1638 135.294 56.29C135.981 55.4161 136.307 54.3117 136.205 53.2044C136.205 48.8628 136.624 40.6313 136.624 40.6313L150.521 41.8096C150.521 41.8096 149.343 55.4156 151.586 57.9496L153.813 60.4512C153.813 60.4512 134.736 63.5986 132.509 57.9011Z" fill="#FFC29F"/>
<path d="M136.205 51.4452C136.205 51.4452 145.34 52.8494 150.215 48.9758L150.521 41.7935L136.205 44.8924V51.4452Z" fill="#FFA980"/>
<path d="M128.119 13.0159C128.119 13.0159 115.885 46.587 133.074 50.3477C150.263 54.1083 153.782 36.2252 153.782 36.2252C153.782 36.2252 158.22 35.1761 158.914 31.3832C159.608 27.5903 154.411 29.0752 154.411 29.0752C154.411 29.0752 158.979 15.2755 148.601 10.6272C137.706 5.68834 130.25 8.23845 128.119 13.0159Z" fill="#FFC29F"/>
<path d="M129.766 8.91633C129.766 8.91633 133.704 27.7517 154.411 29.0106C154.411 29.0106 159.754 15.6629 156.138 10.0139C152.523 4.36487 135.883 0.830201 129.766 8.91633Z" fill="#21323F"/>
<path d="M110.85 131.322H29.0526L9.50709 77.479C9.31752 76.9542 9.25552 76.3917 9.32618 75.8382C9.39684 75.2846 9.59815 74.7558 9.9135 74.2954C10.2288 73.835 10.6491 73.4563 11.1398 73.1903C11.6304 72.9244 12.1772 72.779 12.7351 72.7661H87.092C87.7998 72.7814 88.4865 73.0099 89.0624 73.4217C89.6383 73.8334 90.0766 74.4094 90.32 75.0742L110.85 131.322Z" fill="#21323F"/>
<path d="M159.479 136.406H78.1819C77.8478 136.408 77.5166 136.344 77.2073 136.218C76.898 136.091 76.6167 135.905 76.3797 135.67C76.1427 135.434 75.9546 135.154 75.8262 134.845C75.6979 134.537 75.6318 134.206 75.6318 133.872V133.872C75.6318 133.196 75.9005 132.547 76.3787 132.069C76.857 131.591 77.5056 131.322 78.1819 131.322H159.479C159.813 131.322 160.144 131.388 160.452 131.516C160.761 131.645 161.041 131.833 161.277 132.07C161.512 132.307 161.698 132.588 161.825 132.897C161.951 133.207 162.015 133.538 162.013 133.872V133.872C162.013 134.544 161.746 135.189 161.271 135.664C160.796 136.139 160.151 136.406 159.479 136.406V136.406Z" fill="#21323F"/>
<path d="M110.591 136.406H29.2938C28.6218 136.406 27.9772 136.139 27.502 135.664C27.0268 135.189 26.7598 134.544 26.7598 133.872V133.872C26.7577 133.538 26.8217 133.207 26.9481 132.897C27.0745 132.588 27.2608 132.307 27.4963 132.07C27.7318 131.833 28.0118 131.645 28.3203 131.516C28.6288 131.388 28.9597 131.322 29.2938 131.322H110.591C111.267 131.322 111.916 131.591 112.394 132.069C112.872 132.547 113.141 133.196 113.141 133.872C113.141 134.206 113.075 134.537 112.947 134.845C112.818 135.154 112.63 135.434 112.393 135.67C112.156 135.905 111.875 136.091 111.566 136.218C111.256 136.344 110.925 136.408 110.591 136.406V136.406Z" fill="#21323F"/>
<g clip-path="url(#clip1_38_819)">
<path d="M29.7366 28.2934H13.5576V53.2086H29.7366V28.2934Z" fill="#C3DBE6"/>
<path d="M21.6468 12.5974L6.89941 30.9497H36.4027L21.6468 12.5974Z" fill="#C3DBE6"/>
</g>
<g clip-path="url(#clip2_38_819)">
<path d="M57.9187 47.8611H49.8789V60.0303H57.9187V47.8611Z" fill="#C3DBE6"/>
<path d="M53.8987 40.1948L46.5703 49.1585H61.2314L53.8987 40.1948Z" fill="#C3DBE6"/>
</g>
</g>
<defs>
<clipPath id="clip0_38_819">
<rect width="214" height="343.765" fill="white" transform="translate(0 0.52356)"/>
</clipPath>
<clipPath id="clip1_38_819">
<rect width="29.5033" height="40.6112" fill="white" transform="translate(6.89941 12.5974)"/>
</clipPath>
<clipPath id="clip2_38_819">
<rect width="14.6611" height="19.8356" fill="white" transform="translate(46.5703 40.1948)"/>
</clipPath>
</defs>
</svg>
