<svg width="149" height="149" viewBox="0 0 149 149" fill="none" xmlns="http://www.w3.org/2000/svg">
<path opacity="0.7" d="M132.444 16.5556H115.889V0H33.1111V16.5556H16.5556C7.45 16.5556 0 24.0056 0 33.1111V41.3889C0 62.4972 15.8933 79.715 36.3394 82.2811C41.5544 94.6978 52.7294 104.052 66.2222 106.783V132.444H33.1111V149H115.889V132.444H82.7778V106.783C96.2706 104.052 107.446 94.6978 112.661 82.2811C133.107 79.715 149 62.4972 149 41.3889V33.1111C149 24.0056 141.55 16.5556 132.444 16.5556ZM16.5556 41.3889V33.1111H33.1111V64.7322C23.5089 61.2556 16.5556 52.15 16.5556 41.3889ZM132.444 41.3889C132.444 52.15 125.491 61.2556 115.889 64.7322V33.1111H132.444V41.3889Z" fill="#ECECEC"/>
</svg>
