<svg width="139" height="139" viewBox="0 0 139 139" fill="none" xmlns="http://www.w3.org/2000/svg">
<path d="M69.5 0.75C31.55 0.75 0.75 31.55 0.75 69.5C0.75 107.45 31.55 138.25 69.5 138.25C107.45 138.25 138.25 107.45 138.25 69.5C138.25 31.55 107.45 0.75 69.5 0.75ZM79.1938 111.369V124.5H60.8375V111.231C49.0813 108.756 39.1125 101.194 38.3563 87.8563H51.8313C52.5188 95.075 57.4688 100.713 70.05 100.713C83.525 100.713 86.55 93.975 86.55 89.7813C86.55 84.075 83.525 78.7125 68.1938 75.0688C51.1438 70.9438 39.4563 63.9313 39.4563 49.8375C39.4563 38.0125 49.0125 30.3125 60.8375 27.7688V14.5H79.1938V27.9063C91.9813 31 98.375 40.6938 98.7875 51.2125H85.3125C84.9688 43.5813 80.9125 38.3563 70.05 38.3563C59.7375 38.3563 53.55 43.0313 53.55 49.6313C53.55 55.4063 58.0188 59.1875 71.9063 62.7625C85.7938 66.3375 100.644 72.3188 100.644 89.6438C100.575 102.225 91.1563 109.1 79.1938 111.369Z" fill="#ECECEC"/>
</svg>
