<svg width="18" height="18" viewBox="0 0 18 18" fill="none" xmlns="http://www.w3.org/2000/svg">
<path d="M15.6571 10.7143V14.1433C15.6571 14.9815 14.981 15.6578 14.1429 15.6578H3.85714C3.01905 15.6578 2.34286 14.9815 2.34286 14.1433V3.85818C2.34286 3.02153 3.01918 2.34371 3.85714 2.34371H7.28571C7.71022 2.34371 8.05714 1.99838 8.05714 1.57222C8.05714 1.14536 7.71009 0.800732 7.28571 0.800732H3.85714C2.16958 0.800732 0.8 2.16924 0.8 3.85818V14.1433C0.8 15.831 2.16952 17.2007 3.85714 17.2007H14.1429C15.8305 17.2007 17.2 15.831 17.2 14.1433V10.7143C17.2 10.2888 16.8526 9.94457 16.4286 9.94457C16.0046 9.94457 15.6571 10.2888 15.6571 10.7143Z" fill="#00B2A9" stroke="#00B2A9" stroke-width="0.4"/>
<path d="M14.5064 2.38173L7.03064 9.85472L7.0306 9.85476C6.72313 10.1623 6.72313 10.6618 7.0306 10.9694C7.33809 11.2769 7.84111 11.2769 8.14859 10.9694L8.14861 10.9693L15.6237 3.49145V6.29437C15.6237 6.72977 15.9781 7.08261 16.4118 7.08261C16.8456 7.08261 17.2 6.72977 17.2 6.29437V1.59673V1.59671V1.5967V1.59668V1.59667V1.59666V1.59664V1.59663V1.59661V1.5966V1.59659V1.59657V1.59656V1.59656V1.59655V1.59654V1.59654V1.59653V1.59652V1.59651V1.59651V1.5965V1.59649V1.59648V1.59648V1.59647V1.59646V1.59646V1.59645V1.59644V1.59643V1.59643V1.59642V1.59641V1.5964V1.5964V1.59639V1.59638V1.59637V1.59637V1.59636V1.59635V1.59634V1.59634V1.59633V1.59632V1.59631V1.59631V1.5963V1.59629V1.59628V1.59627V1.59627V1.59626V1.59625V1.59624V1.59624V1.59623V1.59622V1.59621V1.5962V1.5962V1.59619V1.59618V1.59617V1.59617V1.59616V1.59615V1.59614V1.59613V1.59613V1.59612V1.59611V1.5961V1.59609V1.59609V1.59608V1.59607V1.59606V1.59605V1.59605V1.59604V1.59603V1.59602V1.59601V1.59601V1.596V1.59599V1.59598V1.59597V1.59597V1.59596V1.59595V1.59594V1.59593V1.59593V1.59592V1.59591V1.5959V1.59589V1.59588V1.59588V1.59587V1.59586V1.59585V1.59584V1.59584V1.59583V1.59582V1.59581V1.5958V1.59579V1.59579V1.59578V1.59577V1.59576V1.59575V1.59574V1.59574V1.59573V1.59572V1.59571V1.5957V1.59569V1.59568V1.59568V1.59567V1.59566V1.59565V1.59564V1.59563V1.59562V1.59562V1.59561V1.5956V1.59559V1.59558V1.59557V1.59556V1.59556V1.59555V1.59554V1.59553V1.59552V1.59551V1.5955V1.5955V1.59549V1.59548V1.59547V1.59546V1.59545V1.59544V1.59543V1.59543V1.59542V1.59541V1.5954V1.59539V1.59538V1.59537V1.59536V1.59536V1.59535V1.59534V1.59533V1.59532V1.59531V1.5953V1.59529V1.59528V1.59528V1.59527V1.59526V1.59525V1.59524V1.59523V1.59522V1.59521V1.5952V1.5952V1.59519V1.59518V1.59517V1.59516V1.59515V1.59514V1.59513V1.59512V1.59511V1.59511V1.5951V1.59509V1.59508V1.59507V1.59506V1.59505V1.59504V1.59503V1.59502V1.59501V1.59501V1.595V1.59499V1.59498V1.59497V1.59496V1.59495V1.59494V1.59493V1.59492V1.59491V1.5949V1.59489V1.59489V1.59488V1.59487V1.59486V1.59485V1.59484V1.59483V1.59482V1.59481V1.5948V1.59479V1.59478V1.59477V1.59476V1.59476V1.59475V1.59474V1.59473V1.59472V1.59471V1.5947V1.59469V1.59468V1.59467V1.59466V1.59465V1.59464V1.59463V1.59462V1.59461V1.5946V1.5946V1.59459V1.59458V1.59457V1.59456V1.59455V1.59454V1.59453V1.59452V1.59451V1.5945V1.59449V1.59448V1.59447V1.59446V1.59445V1.59444V1.59443V1.59442V1.59441V1.5944V1.5944V1.59439V1.59438V1.59437V1.59436V1.59435V1.59434V1.59433V1.59432V1.59431V1.5943V1.59429V1.59428V1.59427V1.59426V1.59425V1.59424V1.59423V1.59422V1.59421V1.5942V1.59419V1.59418V1.59417V1.59416V1.59415V1.59414V1.59413V1.59412V1.59411V1.5941V1.59409V1.59408V1.59407V1.59407V1.59406V1.59405V1.59404V1.59403V1.59402V1.59401V1.594V1.59399V1.59398V1.59397V1.59396V1.59395V1.59394V1.59393V1.59392V1.59391V1.5939V1.59389V1.59388V1.59387V1.59386V1.59385V1.59384V1.59383V1.59382V1.59381V1.5938V1.59379V1.59378V1.59377V1.59376V1.59375V1.59374V1.59373V1.59372V1.59371V1.5937V1.59369V1.59368V1.59367V1.59366V1.59365V1.59364V1.59363V1.59362V1.59361V1.5936V1.59359V1.59358V1.59357V1.59356V1.59355V1.59354V1.59353V1.59352V1.59351V1.5935V1.59349V1.59348V1.59347V1.59346V1.59345V1.59344V1.59343V1.59342V1.59341V1.5934V1.59339V1.59338V1.59337V1.59336V1.59335V1.59334V1.59333V1.59332V1.59331V1.5933V1.59329V1.59328V1.59327V1.59326V1.59325V1.59324V1.59323V1.59322V1.59321V1.5932V1.59319V1.59317V1.59316V1.59315V1.59314V1.59313V1.59312V1.59311V1.5931V1.59309V1.59308V1.59307V1.59306V1.59305V1.59304V1.59303V1.59302V1.59301V1.593V1.59299V1.59298V1.59297V1.59296V1.59295V1.59294V1.59293V1.59292V1.59291V1.5929V1.59289V1.59288V1.59287V1.59286V1.59285V1.59284V1.59283V1.59282V1.59281V1.5928V1.59279V1.59278V1.59277V1.59276V1.59275V1.59274V1.59272V1.59271V1.5927V1.59269V1.59268V1.59267V1.59266V1.59265V1.59264V1.59263V1.59262V1.59261V1.5926V1.59259V1.59258V1.59257V1.59256V1.59255V1.59254V1.59253V1.59252V1.59251V1.5925V1.59249V1.59248V1.59247V1.59246V1.59245V1.59244V1.59243V1.59242V1.59241V1.5924V1.59238V1.59237V1.59236V1.59235V1.59234V1.59233V1.59232V1.59231V1.5923V1.59229V1.59228V1.59227V1.59226V1.59225V1.59224V1.59223V1.59222V1.59221V1.5922V1.59219V1.59218V1.59217V1.59216V1.59215V1.59214V1.59213V1.59212V1.59211V1.5921V1.59209V1.59207V1.59206V1.59205V1.59204V1.59203V1.59202C17.2 1.38925 17.1216 1.18669 16.973 1.03341L16.973 1.03338L16.9705 1.0309C16.7864 0.847457 16.5345 0.773405 16.2963 0.80846L11.707 0.800231C11.707 0.800231 11.707 0.800231 11.707 0.800231C11.2732 0.799445 10.9185 1.15175 10.9185 1.58732C10.9185 2.02254 11.2727 2.37592 11.7063 2.37671L14.5064 2.38173Z" fill="#00B2A9" stroke="#00B2A9" stroke-width="0.4"/>
</svg>
