<svg width="13" height="22" viewBox="0 0 13 22" fill="none" xmlns="http://www.w3.org/2000/svg">
<path fill-rule="evenodd" clip-rule="evenodd" d="M6.50093 8.058C7.12592 8.058 7.7253 7.80973 8.16723 7.3678C8.60916 6.92587 8.85743 6.32648 8.85743 5.7015C8.85743 5.07652 8.60916 4.47713 8.16723 4.0352C7.7253 3.59327 7.12592 3.345 6.50093 3.345C5.87595 3.345 5.27657 3.59327 4.83464 4.0352C4.39271 4.47713 4.14443 5.07652 4.14443 5.7015C4.14443 6.32648 4.39271 6.92587 4.83464 7.3678C5.27657 7.80973 5.87595 8.058 6.50093 8.058ZM6.50093 0C7.2496 -1.1156e-08 7.99093 0.147461 8.68261 0.433963C9.37429 0.720465 10.0028 1.1404 10.5321 1.66978C11.0615 2.19917 11.4815 2.82764 11.768 3.51932C12.0545 4.211 12.2019 4.95233 12.2019 5.701C12.2019 6.44967 12.0545 7.191 11.768 7.88268C11.4815 8.57436 11.0615 9.20283 10.5321 9.73222C10.0028 10.2616 9.37429 10.6815 8.68261 10.968C7.99093 11.2545 7.2496 11.402 6.50093 11.402C4.98893 11.402 3.53886 10.8014 2.46972 9.73222C1.40057 8.66307 0.799934 7.213 0.799934 5.701C0.799934 4.189 1.40057 2.73893 2.46972 1.66978C3.53886 0.60064 4.98893 0 6.50093 0ZM8.51393 15.938L11.9589 19.353C12.228 19.6478 12.3731 20.035 12.3641 20.4341C12.3552 20.8331 12.1928 21.2134 11.9107 21.4958C11.6287 21.7783 11.2486 21.9412 10.8496 21.9507C10.4505 21.9603 10.0631 21.8157 9.76793 21.547L6.42393 18.29L3.38593 21.526C3.08093 21.841 2.67593 22 2.26993 22C1.96594 21.9996 1.66876 21.9099 1.41534 21.742C1.16191 21.5741 0.963413 21.3354 0.844512 21.0556C0.725611 20.7759 0.69155 20.4673 0.746562 20.1683C0.801574 19.8694 0.943233 19.5931 1.15393 19.374L4.42393 15.956C2.07793 15.502 0.653933 14.393 0.579933 14.335C0.259154 14.0777 0.0537089 13.7036 0.00879392 13.2949C-0.036121 12.8861 0.0831732 12.4763 0.340433 12.1555C0.597693 11.8347 0.971846 11.6293 1.38058 11.5844C1.78932 11.5394 2.19915 11.6587 2.51993 11.916C2.53393 11.927 4.02293 13.046 6.42393 13.048C8.82393 13.046 10.2819 11.928 10.2969 11.916C10.4558 11.7887 10.6381 11.6939 10.8336 11.6371C11.0291 11.5802 11.2338 11.5624 11.4361 11.5847C11.6385 11.607 11.8344 11.6689 12.0129 11.7669C12.1913 11.865 12.3486 11.9972 12.4759 12.156C12.6032 12.3148 12.698 12.4972 12.7549 12.6927C12.8117 12.8881 12.8295 13.0929 12.8072 13.2952C12.7849 13.4975 12.723 13.6935 12.625 13.8719C12.527 14.0503 12.3948 14.2077 12.2359 14.335C12.1639 14.393 10.7959 15.474 8.51393 15.938ZM6.42393 13.048C6.42693 13.048 6.41993 13.048 6.42393 13.048C6.42693 13.048 6.41993 13.048 6.42393 13.048Z" fill="#999999"/>
</svg>
