<svg width="10" height="10" viewBox="0 0 10 10" fill="none" xmlns="http://www.w3.org/2000/svg">
<path d="M4.47751 6.59919L4.47887 6.52286C4.48359 6.25653 4.51541 6.03953 4.57797 5.87589C4.6412 5.71046 4.76742 5.53336 4.94986 5.34471L4.95134 5.34317L4.95136 5.3432L5.40699 4.89812C5.59119 4.70018 5.67863 4.49336 5.67863 4.27611C5.67863 4.05882 5.61897 3.89902 5.50833 3.78652L5.50789 3.78607L5.5079 3.78607C5.39832 3.67276 5.2345 3.61057 5.00377 3.61057C4.77925 3.61057 4.60697 3.66672 4.47953 3.77193C4.35402 3.87555 4.29054 4.01342 4.29054 4.19346V4.26846H4.21554H3.57031H3.49433L3.49532 4.19249C3.50024 3.81463 3.64298 3.50586 3.92347 3.27292L4.47751 6.59919ZM4.47751 6.59919H4.55385M4.47751 6.59919H4.55385M4.55385 6.59919H5.19908H5.27408V6.52419C5.27408 6.20238 5.35522 5.96724 5.50662 5.80707L5.8852 5.45152L5.88522 5.45154M4.55385 6.59919L5.88522 5.45154M5.88522 5.45154L5.88674 5.45002M5.88522 5.45154L5.88674 5.45002M5.88674 5.45002C6.27211 5.06669 6.47386 4.66851 6.47386 4.25628C6.47386 3.84915 6.34451 3.52111 6.0797 3.28179C5.81774 3.04073 5.45565 2.925 5.00377 2.925C4.56722 2.925 4.20488 3.03894 3.92349 3.2729L5.88674 5.45002ZM4.56582 7.2725L4.56573 7.2726C4.4885 7.35394 4.45095 7.45564 4.45095 7.57219C4.45095 7.68875 4.4885 7.79044 4.56573 7.87178L4.5657 7.87181L4.56758 7.87366C4.65129 7.95585 4.76843 7.99102 4.90611 7.99102C5.04379 7.99102 5.16094 7.95585 5.24465 7.87366L5.24466 7.87367L5.24555 7.87276C5.32549 7.79158 5.36477 7.68956 5.36477 7.57219C5.36477 7.45503 5.32563 7.35318 5.24599 7.27207C5.16252 7.18476 5.0449 7.14676 4.90611 7.14676C4.7671 7.14676 4.64931 7.18489 4.56582 7.2725Z" fill="#00B2A9" stroke="#00B2A9" stroke-width="0.15"/>
<circle cx="5" cy="5" r="4.625" transform="rotate(-180 5 5)" stroke="#00B2A9" stroke-width="0.75"/>
</svg>
