<svg width="18" height="18" viewBox="0 0 18 18" fill="none" xmlns="http://www.w3.org/2000/svg">
<path opacity="0.6" fill-rule="evenodd" clip-rule="evenodd" d="M8.34615 1C4.28899 1 1 4.28899 1 8.34615C1 12.4033 4.28899 15.6923 8.34615 15.6923C12.4033 15.6923 15.6923 12.4033 15.6923 8.34615C15.6923 4.28899 12.4033 1 8.34615 1ZM0 8.34615C0 3.7367 3.7367 0 8.34615 0C12.9556 0 16.6923 3.7367 16.6923 8.34615C16.6923 10.4715 15.8979 12.4112 14.5899 13.8847L17.8525 17.1473C18.0477 17.3426 18.0477 17.6591 17.8525 17.8544C17.6572 18.0497 17.3406 18.0497 17.1453 17.8544L13.8827 14.5917C12.4094 15.8987 10.4705 16.6923 8.34615 16.6923C3.7367 16.6923 0 12.9556 0 8.34615ZM8.34726 4.48633C6.216 4.48633 4.48828 6.21405 4.48828 8.3453C4.48828 8.62144 4.26442 8.8453 3.98828 8.8453C3.71214 8.8453 3.48828 8.62144 3.48828 8.3453C3.48828 5.66177 5.66372 3.48633 8.34726 3.48633C8.6234 3.48633 8.84726 3.71019 8.84726 3.98633C8.84726 4.26247 8.6234 4.48633 8.34726 4.48633Z" fill="white"/>
</svg>
