<svg width="22" height="18" viewBox="0 0 22 18" fill="none" xmlns="http://www.w3.org/2000/svg">
<path fill-rule="evenodd" clip-rule="evenodd" d="M6.91 17.889C15.212 17.889 19.755 11.004 19.755 5.044C19.755 4.851 19.755 4.657 19.746 4.464C20.6305 3.82305 21.3938 3.02966 22 2.121C21.1742 2.48546 20.2991 2.72573 19.403 2.834C20.3472 2.26921 21.0544 1.38086 21.393 0.334002C20.5061 0.859733 19.5352 1.22879 18.523 1.425C18.101 0.974609 17.5909 0.615721 17.0245 0.370594C16.458 0.125467 15.8472 -0.0006708 15.23 2.68275e-06C14.0326 0.00106185 12.8846 0.477193 12.0379 1.32388C11.1912 2.17056 10.7151 3.31861 10.714 4.516C10.714 4.868 10.758 5.212 10.828 5.546C7.078 5.361 3.75 3.556 1.523 0.828003C0.946821 1.82293 0.770879 2.99984 1.0309 4.11978C1.29091 5.23971 1.9674 6.21871 2.923 6.858C2.20727 6.83315 1.50742 6.64029 0.88 6.295V6.356C0.88105 7.39795 1.24173 8.40759 1.9011 9.21436C2.56047 10.0211 3.47812 10.5756 4.499 10.784C4.11178 10.891 3.71173 10.9445 3.31 10.943C3.02 10.943 2.738 10.916 2.465 10.863C2.75273 11.7603 3.31407 12.5451 4.07032 13.1073C4.82657 13.6696 5.73981 13.981 6.682 13.998C5.08315 15.2549 3.10771 15.9368 1.074 15.934C0.714 15.934 0.352 15.917 0 15.873C2.06403 17.19 4.46157 17.8895 6.91 17.889Z" fill="#999999"/>
</svg>
