<svg width="24" height="14" viewBox="0 0 24 14" fill="none" xmlns="http://www.w3.org/2000/svg">
<path fill-rule="evenodd" clip-rule="evenodd" d="M22.967 0.972C23.141 0.424 22.967 0.0249996 22.194 0.0249996H19.63C18.982 0.0249996 18.683 0.375 18.509 0.747C18.509 0.747 17.189 3.936 15.345 6.003C14.748 6.602 14.473 6.8 14.149 6.8C13.975 6.8 13.751 6.602 13.751 6.054V0.947C13.751 0.299 13.551 0 13.004 0H8.96802C8.57002 0 8.32102 0.3 8.32102 0.598C8.32102 1.22 9.24202 1.37 9.34102 3.114V6.901C9.34102 7.722 9.19302 7.871 8.86902 7.871C7.99702 7.871 5.87902 4.658 4.60902 0.996C4.36002 0.274 4.11102 0 3.46302 0H0.870023C0.123023 0 -0.000976562 0.349 -0.000976562 0.723C-0.000976562 1.395 0.870023 4.783 4.05902 9.267C6.17602 12.331 9.19102 13.974 11.906 13.974C13.55 13.974 13.749 13.601 13.749 12.978V10.662C13.749 9.914 13.899 9.79 14.422 9.79C14.795 9.79 15.467 9.99 16.987 11.459C18.732 13.202 19.031 14 20.002 14H22.568C23.316 14 23.665 13.626 23.465 12.903C23.241 12.181 22.394 11.136 21.298 9.89C20.7 9.192 19.803 8.42 19.528 8.046C19.155 7.548 19.255 7.349 19.528 6.901C19.505 6.901 22.643 2.466 22.967 0.971" fill="#999999"/>
</svg>
