<svg width="20" height="20" viewBox="0 0 20 20" fill="none" xmlns="http://www.w3.org/2000/svg">
<path fill-rule="evenodd" clip-rule="evenodd" d="M18.89 0H1.11102C0.497024 0 -0.000976562 0.498 -0.000976562 1.11V18.89C-0.000976562 19.503 0.497024 20 1.11102 20H10.682V12.267H8.08602V9.238H10.682V7.017C10.682 4.433 12.261 3.025 14.572 3.025C15.3493 3.02289 16.1261 3.06295 16.899 3.145V5.833H15.305C14.052 5.833 13.807 6.431 13.807 7.306V9.233H16.805L16.416 12.261H13.807V20H18.888C19.502 20 19.999 19.503 19.999 18.89V1.11C19.999 0.498 19.502 0 18.889 0" fill="#999999"/>
</svg>
