<svg width="22" height="22" viewBox="0 0 22 22" fill="none" xmlns="http://www.w3.org/2000/svg">
<path fill-rule="evenodd" clip-rule="evenodd" d="M11 0C13.987 0 14.361 0.013 15.535 0.066C16.706 0.119 17.505 0.306 18.205 0.577C18.9392 0.85368 19.6043 1.28707 20.154 1.847C20.7133 2.39641 21.146 3.06119 21.422 3.795C21.695 4.495 21.881 5.294 21.934 6.465C21.987 7.638 22 8.013 22 11C22 13.987 21.987 14.361 21.934 15.535C21.881 16.706 21.694 17.505 21.422 18.205C21.1459 18.9391 20.7132 19.6041 20.154 20.154C19.6041 20.7132 18.9391 21.1459 18.205 21.422C17.505 21.695 16.706 21.881 15.535 21.934C14.36 21.987 13.987 22 11 22C8.013 22 7.638 21.987 6.464 21.934C5.294 21.881 4.494 21.694 3.795 21.422C3.06083 21.1461 2.3957 20.7134 1.846 20.154C1.28679 19.6041 0.854095 18.9391 0.578 18.205C0.305 17.505 0.119 16.706 0.066 15.535C0.013 14.36 0 13.987 0 11C0 8.013 0.013 7.638 0.066 6.464C0.119 5.294 0.306 4.494 0.577 3.795C0.85345 3.06065 1.28687 2.3955 1.847 1.846C2.39641 1.28672 3.06119 0.853993 3.795 0.578C4.495 0.305 5.294 0.119 6.465 0.066C7.637 0.013 8.012 0 11 0ZM11 1.982C8.063 1.982 7.715 1.992 6.555 2.046C5.483 2.096 4.9 2.274 4.513 2.425C3.999 2.625 3.633 2.863 3.248 3.248C2.863 3.633 2.624 3.998 2.425 4.513C2.275 4.9 2.095 5.483 2.046 6.555C1.993 7.715 1.982 8.063 1.982 11C1.982 13.937 1.992 14.284 2.046 15.445C2.095 16.517 2.274 17.099 2.425 17.487C2.625 18.001 2.863 18.367 3.248 18.752C3.633 19.137 3.998 19.376 4.513 19.575C4.9 19.725 5.483 19.905 6.555 19.954C7.715 20.007 8.062 20.018 11 20.018C13.937 20.018 14.284 20.008 15.445 19.954C16.517 19.904 17.099 19.726 17.487 19.574C17.9649 19.3982 18.3972 19.1173 18.752 18.752C19.1176 18.3973 19.3989 17.965 19.575 17.487C19.725 17.1 19.905 16.517 19.954 15.445C20.007 14.285 20.018 13.937 20.018 11C20.018 8.063 20.008 7.715 19.954 6.555C19.904 5.483 19.726 4.9 19.574 4.513C19.3984 4.03499 19.1175 3.60264 18.752 3.248C18.397 2.88274 17.9648 2.60153 17.487 2.425C17.1 2.275 16.517 2.095 15.445 2.046C14.285 1.993 13.937 1.982 11 1.982ZM11 14.667C11.4816 14.667 11.9584 14.5722 12.4033 14.3879C12.8482 14.2036 13.2524 13.9335 13.593 13.593C13.9335 13.2524 14.2036 12.8482 14.3879 12.4033C14.5722 11.9584 14.667 11.4816 14.667 11C14.667 10.5184 14.5722 10.0416 14.3879 9.5967C14.2036 9.1518 13.9335 8.74755 13.593 8.40704C13.2524 8.06653 12.8482 7.79642 12.4033 7.61213C11.9584 7.42785 11.4816 7.333 11 7.333C10.0275 7.333 9.09474 7.71934 8.40704 8.40704C7.71934 9.09474 7.333 10.0275 7.333 11C7.333 11.9725 7.71934 12.9053 8.40704 13.593C9.09474 14.2807 10.0275 14.667 11 14.667ZM11 5.351C12.4982 5.351 13.9351 5.94616 14.9944 7.00555C16.0538 8.06495 16.649 9.50179 16.649 11C16.649 12.4982 16.0538 13.9351 14.9944 14.9944C13.9351 16.0538 12.4982 16.649 11 16.649C9.50179 16.649 8.06495 16.0538 7.00555 14.9944C5.94616 13.9351 5.351 12.4982 5.351 11C5.351 9.50179 5.94616 8.06495 7.00555 7.00555C8.06495 5.94616 9.50179 5.351 11 5.351ZM18.192 5.128C18.192 5.47809 18.0529 5.81383 17.8054 6.06138C17.5578 6.30893 17.2221 6.448 16.872 6.448C16.5219 6.448 16.1862 6.30893 15.9386 6.06138C15.6911 5.81383 15.552 5.47809 15.552 5.128C15.552 4.77791 15.6911 4.44217 15.9386 4.19462C16.1862 3.94707 16.5219 3.808 16.872 3.808C17.2221 3.808 17.5578 3.94707 17.8054 4.19462C18.0529 4.44217 18.192 4.77791 18.192 5.128Z" fill="#999999"/>
</svg>
