<svg width="19" height="19" viewBox="0 0 19 19" fill="none" xmlns="http://www.w3.org/2000/svg">
<g clip-path="url(#clip0_71_4392)">
<path d="M5.06508 13.4817C5.06508 13.4817 6.06032 14.4769 7.23651 15.6531C8.86508 17.2817 14.1127 20.5388 17.7317 16.9198C18.4556 16.196 18.546 15.2912 18.546 14.6579C18.4556 14.0246 18.0032 13.4817 17.3698 13.3007L14.3841 12.5769C13.7508 12.396 13.027 12.6674 12.6651 13.2103L12.3032 13.7531C11.5794 14.4769 10.4032 14.4769 9.67937 13.7531L7.23651 11.4007L5.33651 9.50074C4.52222 8.68646 4.52222 7.51027 5.24603 6.78646L5.78889 6.42455C6.33175 5.97217 6.5127 5.33884 6.42222 4.61503L5.69842 1.62932C5.51746 0.995982 4.97461 0.543601 4.34127 0.453125C3.70794 0.453125 2.80318 0.543601 2.07937 1.26741C-1.53968 4.88646 1.80794 10.2246 3.34603 11.7626C4.52222 12.9388 5.06508 13.4817 5.06508 13.4817Z" stroke="white" stroke-miterlimit="10"/>
<path d="M10.4033 2.17212C12.0319 2.2626 13.6605 2.89593 14.9271 4.07212C16.1938 5.33879 16.8271 6.96736 16.8271 8.59593" stroke="white" stroke-miterlimit="10" stroke-linecap="round" stroke-linejoin="round"/>
<path d="M9.13672 5.1578C10.4034 4.88637 11.7605 5.24828 12.7558 6.24352C13.751 7.23875 14.1129 8.5959 13.8415 9.86256" stroke="white" stroke-miterlimit="10" stroke-linecap="round" stroke-linejoin="round"/>
</g>
<defs>
<clipPath id="clip0_71_4392">
<rect width="19" height="19" fill="white"/>
</clipPath>
</defs>
</svg>
