<svg width="274" height="429" viewBox="0 0 274 429" fill="none" xmlns="http://www.w3.org/2000/svg">
<g clip-path="url(#clip0_93_7267)">
<path opacity="0.5" d="M174.619 422.362L11.4778 328.04C-5.50128 318.183 -3.40358 301.012 16.2272 289.644C35.8185 278.276 100.687 278.196 117.666 288.054L262.285 371.882C288.367 387.304 262.562 408.53 240.873 419.58C221.243 430.948 191.599 432.22 174.619 422.362Z" fill="#0F154D"/>
<path d="M238.222 224.258L2.29619 135.938V311.624C1.54421 317.348 4.55222 322.913 11.518 326.927L171.018 419.699C184.831 427.648 208.974 426.734 224.964 417.473C233.394 412.584 237.827 406.344 238.143 400.381L238.222 224.258Z" fill="#00B2A9"/>
<path d="M171.019 243.178L11.5185 150.406C-2.29435 142.457 -0.592485 128.386 15.4763 119.164C31.3076 109.903 55.5691 108.87 69.3819 116.899L228.803 209.631C242.616 217.58 240.914 231.651 224.845 240.912C208.974 250.213 185.03 251.207 171.019 243.178Z" fill="#40C0BA"/>
<path d="M135.95 9.0624C125.79 3.19436 114.271 0.112345 102.551 0.125408C90.8302 0.13847 79.3189 3.2462 69.1715 9.13688C59.0241 15.0275 50.5973 23.4941 44.7361 33.6875C38.8749 43.8809 35.7854 55.4428 35.7773 67.2137V140.032C35.7773 147.107 45.5927 152.831 57.7036 152.831C69.8146 152.831 79.6696 147.107 79.6696 140.032C79.6696 140.032 79.6696 140.032 79.6696 139.754H79.9071V76.634C79.9087 71.6468 81.2151 66.7477 83.6956 62.4272C86.1761 58.1068 89.7435 54.5168 94.0404 52.0169C98.3374 49.5171 103.213 48.1951 108.179 48.1834C113.145 48.1718 118.026 49.4709 122.335 51.9505C133.14 58.1501 142.123 67.1044 148.378 77.9084C154.633 88.7124 157.936 100.983 157.955 113.48V210.505H158.193C158.43 217.501 168.167 223.105 180.119 223.105C192.072 223.105 201.927 217.421 202.046 210.386V123.497C202.024 100.269 195.902 77.4589 184.297 57.3671C172.692 37.2753 156.016 20.6131 135.95 9.0624Z" fill="#C2BEF4"/>
<path d="M134.684 42.6893C133.409 41.9195 132.087 41.2292 130.727 40.6224C141.175 47.6807 149.739 57.2067 155.667 68.3644C161.594 79.522 164.705 91.9702 164.724 104.617V218.534C167.346 220.008 170.196 221.029 173.154 221.555V109.506C173.137 95.9592 169.573 82.6554 162.821 70.9282C156.069 59.201 146.366 49.4626 134.684 42.6893Z" fill="#E0DCFF"/>
<path d="M90.0412 31.0034C80.5238 31.0139 71.3993 34.8156 64.6695 41.5743C57.9397 48.3329 54.1542 57.4967 54.1437 67.0549V143.093L53.9062 151.042C53.9062 151.718 66.1755 150.685 66.4921 149.532L66.7296 141.582V65.5444C66.7368 57.8317 69.2041 50.3242 73.7697 44.1224C78.3353 37.9207 84.759 33.3509 92.0993 31.0829L90.0412 31.0034Z" fill="#ADA2E5"/>
<path d="M111.688 15.4222C123.066 15.4345 134.267 18.2603 144.3 23.6501C140.435 20.7455 136.39 18.0903 132.189 15.7005C123.24 10.4619 113.061 7.71753 102.703 7.75091C86.9581 7.75091 71.8577 14.0324 60.7241 25.2137C49.5906 36.395 43.3359 51.5602 43.3359 67.3729V67.5716C47.6042 52.6381 56.5663 39.4912 68.8849 30.0927C81.2034 20.6941 96.2179 15.548 111.688 15.4222Z" fill="#E0DCFF"/>
<path d="M185.027 136.813V221.953C188.939 221.445 192.693 220.089 196.03 217.978C196.472 217.043 196.727 216.03 196.782 214.997V128.267C196.624 90.705 185.027 98.3366 185.027 136.813Z" fill="#ADA2E5"/>
<path d="M121.704 274.301C121.299 266.78 119.125 259.463 115.362 252.948C111.6 246.433 106.354 240.906 100.055 236.818C88.1815 229.902 78.4453 235.427 78.4453 249.22C78.9885 259.438 82.822 269.202 89.3688 277.043V320.766L110.741 333.167V289.445C117.43 289.127 121.704 283.562 121.704 274.301Z" fill="#00938B"/>
<path d="M93.2456 319.176V275.454C86.6912 267.617 82.8566 257.85 82.3219 247.63C82.0814 245.089 82.4725 242.528 83.4603 240.176C84.4481 237.824 86.0017 235.756 87.9817 234.156C82.322 235.348 78.6016 240.714 78.6016 249.26C79.1448 259.478 82.9784 269.242 89.5252 277.083V320.806L110.897 333.207V329.431L93.2456 319.176Z" fill="#007872"/>
</g>
<defs>
<clipPath id="clip0_93_7267">
<rect width="273.248" height="429" fill="white"/>
</clipPath>
</defs>
</svg>
