<svg width="184" height="212" viewBox="0 0 184 212" fill="none" xmlns="http://www.w3.org/2000/svg">
<g clip-path="url(#clip0_93_6818)">
<path d="M173.46 56.9998L76.1488 0.770753C75.5551 0.352643 74.8617 0.0982632 74.1384 0.0332214C73.4152 -0.0318205 72.6875 0.0947693 72.0287 0.40024L65.4336 4.25357L69.7463 6.84716V234.831C69.7463 239.559 72.6067 245.028 76.1488 247.073L172.319 302.65L170.956 307.541L177.61 303.658C178.988 302.887 179.863 301.064 179.863 298.456V69.2415C179.863 64.5138 176.988 59.045 173.46 56.9998Z" fill="#1BA59E"/>
<path d="M166.702 307.274L69.3908 250.956C65.8635 248.925 62.9883 243.442 62.9883 238.714V9.54441C62.9883 4.83148 65.8635 2.65286 69.3908 4.69809L166.702 60.9271C170.244 62.9724 173.105 68.456 173.105 73.1689V302.383C173.105 307.111 170.244 309.275 166.702 307.274Z" fill="#01939A"/>
<path d="M173.105 302.546L62.9883 238.921V9.38135L173.105 73.0058V302.546Z" fill="#00B2A9"/>
<path opacity="0.4" d="M155.539 306.963L57.2646 250.17C55.4465 249.121 53.9397 247.607 52.8981 245.785C51.8566 243.962 51.3176 241.895 51.3364 239.796V23.9796C51.3339 23.2853 51.5154 22.6028 51.8626 22.0016C52.2097 21.4003 52.71 20.9018 53.3125 20.5569C53.915 20.2119 54.5982 20.0329 55.2925 20.0379C55.9867 20.043 56.6672 20.232 57.2646 20.5857L155.539 77.3779C157.358 78.4275 158.864 79.941 159.906 81.7637C160.948 83.5864 161.486 85.653 161.468 87.7523V303.569C161.47 304.263 161.289 304.945 160.942 305.547C160.594 306.148 160.094 306.646 159.492 306.991C158.889 307.336 158.206 307.515 157.512 307.51C156.817 307.505 156.137 307.316 155.539 306.963Z" fill="#00B2A9"/>
<path d="M157.481 307.926C156.715 307.927 155.963 307.723 155.303 307.333L57.013 250.541C55.1395 249.456 53.5839 247.897 52.5019 246.022C51.4199 244.147 50.8494 242.02 50.8477 239.855V23.9795C50.8492 23.2154 51.0517 22.4652 51.4348 21.8041C51.8179 21.143 52.3681 20.5942 53.0302 20.2128C53.6923 19.8315 54.4431 19.6309 55.2072 19.6313C55.9712 19.6317 56.7218 19.8331 57.3835 20.2151L155.658 76.9925C157.532 78.0812 159.087 79.6422 160.169 81.5198C161.251 83.3974 161.822 85.5259 161.824 87.6929V303.569C161.828 304.333 161.629 305.085 161.246 305.747C160.863 306.408 160.31 306.956 159.645 307.333C158.99 307.721 158.243 307.925 157.481 307.926ZM55.2197 20.4967C54.6067 20.4946 54.0038 20.653 53.4709 20.9561C52.9467 21.2553 52.5096 21.6861 52.2029 22.2059C51.8962 22.7258 51.7305 23.3167 51.7221 23.9202V239.855C51.7263 241.871 52.2596 243.851 53.2687 245.596C54.2778 247.341 55.7274 248.791 57.4724 249.8L155.747 306.577C156.274 306.878 156.87 307.037 157.476 307.038C158.082 307.039 158.679 306.882 159.206 306.583C159.734 306.284 160.175 305.853 160.485 305.333C160.796 304.812 160.966 304.219 160.979 303.613V87.6929C160.978 85.6782 160.447 83.6991 159.441 81.9538C158.434 80.2085 156.987 78.7583 155.243 77.7484L56.9537 20.9561C56.4212 20.6523 55.818 20.4939 55.2049 20.4967H55.2197Z" fill="white"/>
<path d="M125.322 42.4311L110.768 34.0427C110.497 33.844 110.276 33.5855 110.122 33.2873C109.968 32.9891 109.885 32.6592 109.879 32.3235C109.879 31.6714 110.279 31.3602 110.768 31.6566L125.322 40.045C125.593 40.2437 125.814 40.5022 125.968 40.8004C126.122 41.0987 126.205 41.4285 126.211 41.7642C126.211 42.4163 125.811 42.7127 125.322 42.4311Z" fill="white"/>
<path opacity="0.2" d="M131.308 172.718C133.294 173.874 134.91 172.644 134.91 169.991V90.2866C134.891 88.9362 134.555 87.609 133.93 86.412C133.304 85.215 132.406 84.1816 131.308 83.3951L51.5886 37.3625C51.3787 38.3065 51.2744 39.2708 51.2774 40.2377V126.464L131.308 172.718Z" fill="#041860"/>
<path d="M120.979 89.9605L5.29049 23.1645C4.95066 22.9241 4.55193 22.7806 4.13688 22.7493C3.72184 22.718 3.30607 22.8 2.93403 22.9866L1.21484 23.9944L2.00033 24.113C1.77219 24.6828 1.6613 25.2927 1.67428 25.9063V105.626C1.69598 106.977 2.03447 108.305 2.66252 109.502C3.29058 110.699 4.19068 111.732 5.29049 112.517L120.979 179.313C121.182 179.429 121.395 179.524 121.617 179.595V180.499L123.351 179.491C123.804 179.153 124.159 178.7 124.38 178.179C124.602 177.659 124.681 177.089 124.61 176.527V96.8225C124.582 95.4747 124.24 94.1522 123.609 92.9607C122.979 91.7693 122.078 90.7418 120.979 89.9605Z" fill="white"/>
<path d="M119.305 180.277L3.61621 113.481C2.51641 112.695 1.6163 111.662 0.988245 110.465C0.360191 109.268 0.0217049 107.941 0 106.589V26.8696C0 24.2168 1.61544 23.0015 3.61621 24.1427L119.305 90.8943C120.401 91.6833 121.297 92.7172 121.922 93.9137C122.547 95.1101 122.884 96.436 122.907 97.7858V177.505C122.936 180.203 121.291 181.433 119.305 180.277Z" fill="#00B2A9"/>
<path d="M31.9375 113.303L9.98828 100.616V97.6968L31.9375 110.368V113.303Z" fill="white"/>
<path d="M58.9406 128.894L36.9766 116.208V113.273L58.9406 125.96V128.894Z" fill="white"/>
<path d="M85.9289 144.47L63.9648 131.799V128.864L85.9289 141.536V144.47Z" fill="white"/>
<path d="M112.933 160.061L90.9688 147.375V144.441L112.933 157.127V160.061Z" fill="white"/>
<path opacity="0.2" d="M47.9592 86.8928C62.398 85.1274 76.356 80.572 89.0565 73.4802L3.61621 24.202C1.61544 23.0608 0 24.2761 0 26.929V103.225C8.53662 96.4372 23.12 90.094 47.9592 86.8928Z" fill="white"/>
</g>
<defs>
<clipPath id="clip0_93_6818">
<rect width="183.982" height="308" fill="white"/>
</clipPath>
</defs>
</svg>
