<svg width="189" height="209" viewBox="0 0 189 209" fill="none" xmlns="http://www.w3.org/2000/svg">
<g clip-path="url(#clip0_93_6868)">
<g style="mix-blend-mode:multiply">
<g style="mix-blend-mode:multiply">
<g style="mix-blend-mode:multiply">
<path d="M145.525 135.217H7.96875V209H145.525V135.217Z" fill="white"/>
</g>
<g style="mix-blend-mode:multiply">
<path d="M85.1452 175.826C84.4914 177.195 80.2011 176.521 75.543 174.315C70.8849 172.109 67.6569 169.208 68.3107 167.829C68.9644 166.45 73.265 167.124 77.9129 169.341C82.5607 171.557 85.7989 174.448 85.1452 175.826Z" fill="#3A6FAE"/>
</g>
<g style="mix-blend-mode:multiply">
<path d="M84.949 175.724C84.3157 177.072 80.1173 176.408 75.5716 174.253C71.0258 172.098 67.8694 169.259 68.5027 167.921C69.1361 166.583 73.3345 167.237 77.8802 169.392C82.4259 171.547 85.5926 174.386 84.949 175.724Z" fill="#396EAD"/>
</g>
<g style="mix-blend-mode:multiply">
<path d="M84.7539 175.632C84.1307 176.95 80.0345 176.306 75.5603 174.192C71.086 172.078 68.0317 169.32 68.6548 168.013C69.278 166.706 73.3742 167.349 77.8484 169.453C82.3227 171.557 85.3668 174.325 84.7539 175.632Z" fill="#376DAD"/>
</g>
<g style="mix-blend-mode:multiply">
<path d="M84.5633 175.54C83.9504 176.817 79.9563 176.194 75.6251 174.141C71.2939 172.088 68.2906 169.382 68.8933 168.105C69.496 166.828 73.5004 167.451 77.8316 169.514C82.1628 171.578 85.166 174.264 84.5633 175.54Z" fill="#366CAC"/>
</g>
<g style="mix-blend-mode:multiply">
<path d="M84.3477 175.449C83.7552 176.695 79.853 176.082 75.6342 174.08C71.4153 172.078 68.4836 169.443 69.0761 168.197C69.6686 166.951 73.5605 167.564 77.7794 169.565C81.9982 171.567 84.9606 174.202 84.3477 175.449Z" fill="#356BAC"/>
</g>
<g style="mix-blend-mode:multiply">
<path d="M84.1631 175.357C83.5911 176.572 79.791 175.969 75.6845 174.029C71.5781 172.088 68.7076 169.504 69.2899 168.289C69.8721 167.073 73.6619 167.676 77.7684 169.627C81.8749 171.578 84.7454 174.141 84.1631 175.357Z" fill="#336AAB"/>
</g>
<g style="mix-blend-mode:multiply">
<path d="M83.9709 175.265C83.409 176.449 79.7112 175.867 75.717 173.967C71.7229 172.068 68.924 169.565 69.4858 168.381C70.0477 167.196 73.7455 167.788 77.7498 169.688C81.7542 171.588 84.5327 174.08 83.9709 175.265Z" fill="#3269AB"/>
</g>
<g style="mix-blend-mode:multiply">
<path d="M83.7752 175.173C83.2338 176.317 79.6278 175.755 75.7359 173.906C71.8439 172.058 69.1369 169.627 69.6783 168.483C70.2197 167.339 73.8256 167.89 77.7176 169.739C81.6095 171.588 84.3472 174.008 83.7752 175.173Z" fill="#3168AA"/>
</g>
<g style="mix-blend-mode:multiply">
<path d="M83.5812 175.081C83.05 176.194 79.5463 175.643 75.7667 173.855C71.9871 172.068 69.3414 169.688 69.8725 168.575C70.4037 167.462 73.9075 168.003 77.6871 169.8C81.4667 171.598 84.1124 174.008 83.5812 175.081Z" fill="#2F67AA"/>
</g>
<g style="mix-blend-mode:multiply">
<path d="M83.3841 174.986C83.8996 173.9 81.3387 171.606 77.6643 169.862C73.9898 168.117 70.5933 167.583 70.0778 168.668C69.5624 169.754 72.1233 172.048 75.7977 173.792C79.4721 175.537 82.8687 176.071 83.3841 174.986Z" fill="#2E66A9"/>
</g>
<g style="mix-blend-mode:multiply">
<path d="M83.1935 174.897C82.693 175.918 79.3935 175.428 75.8182 173.733C72.2429 172.037 69.7709 169.811 70.2714 168.759C70.7719 167.707 74.0714 168.217 77.6365 169.913C81.2016 171.608 83.694 173.835 83.1935 174.897Z" fill="#2D65A8"/>
</g>
<g style="mix-blend-mode:multiply">
<path d="M82.9881 174.795C82.508 175.816 79.3107 175.316 75.8375 173.681C72.3644 172.047 69.9638 169.872 70.4542 168.85C70.9445 167.829 74.1316 168.33 77.6047 169.974C81.0779 171.618 83.4784 173.773 82.9881 174.795Z" fill="#2B64A8"/>
</g>
<g style="mix-blend-mode:multiply">
<path d="M82.7933 174.703C82.3234 175.724 79.2282 175.213 75.8776 173.62C72.5271 172.027 70.1878 169.923 70.6577 168.902C71.1276 167.88 74.2228 168.401 77.5733 169.994C80.9239 171.588 83.2632 173.712 82.7933 174.703Z" fill="#2A63A7"/>
</g>
<g style="mix-blend-mode:multiply">
<path d="M82.5998 174.611C82.1503 175.571 79.1471 175.101 75.8986 173.59C72.6502 172.078 70.3927 170.025 70.8524 169.065C71.3121 168.105 74.3051 168.575 77.5535 170.086C80.8019 171.598 83.0594 173.651 82.5998 174.611Z" fill="#2962A7"/>
</g>
<g style="mix-blend-mode:multiply">
<path d="M82.4075 174.519C81.9683 175.448 79.0672 174.989 75.9312 173.498C72.7951 172.006 70.6091 170.045 71.0483 169.116C71.4876 168.187 74.3887 168.646 77.5247 170.137C80.6608 171.629 82.8468 173.59 82.4075 174.519Z" fill="#2761A6"/>
</g>
<g style="mix-blend-mode:multiply">
<path d="M82.2128 174.427C81.7838 175.326 78.9849 174.887 75.9612 173.406C72.9375 171.925 70.8536 170.076 71.2418 169.177C71.63 168.279 74.4698 168.728 77.4934 170.199C80.5171 171.669 82.6317 173.528 82.2128 174.427Z" fill="#2660A6"/>
</g>
<g style="mix-blend-mode:multiply">
<path d="M82.018 174.335C81.5991 175.193 78.9023 174.775 75.9808 173.385C73.0593 171.996 71.0265 170.178 71.4453 169.3C71.8641 168.422 74.5098 168.861 77.4722 170.25C80.4346 171.639 82.4266 173.467 82.018 174.335Z" fill="#255FA5"/>
</g>
<g style="mix-blend-mode:multiply">
<path d="M81.8155 174.243C81.4273 175.071 78.8225 174.662 76.0133 173.334C73.2041 172.007 71.2428 170.27 71.6412 169.412C72.0396 168.554 74.6343 168.983 77.4434 170.321C80.2526 171.659 82.2139 173.406 81.8155 174.243Z" fill="#235EA4"/>
</g>
<g style="mix-blend-mode:multiply">
<path d="M81.6194 174.151C81.2414 174.948 78.7387 174.55 76.0419 173.273C73.3451 171.996 71.4553 170.301 71.8333 169.504C72.2112 168.708 74.7139 169.096 77.4107 170.383C80.1075 171.669 81.9973 173.344 81.6194 174.151Z" fill="#225DA4"/>
</g>
<g style="mix-blend-mode:multiply">
<path d="M81.426 174.059C81.0582 174.825 78.6679 174.448 76.0733 173.212C73.4786 171.976 71.6603 170.362 71.9872 169.596C72.3141 168.83 74.7555 169.208 77.3501 170.434C79.9448 171.659 81.7937 173.283 81.426 174.059Z" fill="#205CA3"/>
</g>
<g style="mix-blend-mode:multiply">
<path d="M81.2807 174.008C80.9334 174.744 78.635 174.386 76.1731 173.212C73.7113 172.037 71.9543 170.474 72.3016 169.739C72.6489 169.004 74.9473 169.361 77.4092 170.546C79.871 171.731 81.5769 173.232 81.2807 174.008Z" fill="#1F5BA3"/>
</g>
<g style="mix-blend-mode:multiply">
<path d="M81.0377 173.865C80.7006 174.57 78.5044 174.223 76.1242 173.099C73.7441 171.976 72.0893 170.485 72.4162 169.78C72.7431 169.075 74.9495 169.423 77.3296 170.556C79.7098 171.69 81.3646 173.171 81.0377 173.865Z" fill="#1E5AA2"/>
</g>
<g style="mix-blend-mode:multiply">
<path d="M80.8446 173.781C81.1641 173.108 79.5804 171.688 77.3075 170.609C75.0345 169.53 72.933 169.201 72.6135 169.873C72.2941 170.546 73.8778 171.966 76.1507 173.045C78.4237 174.124 80.5252 174.454 80.8446 173.781Z" fill="#1C59A2"/>
</g>
<g style="mix-blend-mode:multiply">
<path d="M80.6379 173.682C80.3416 174.325 78.3395 174.008 76.1739 172.987C74.0083 171.966 72.5067 170.607 72.8131 169.923C73.1196 169.239 75.1115 169.596 77.2771 170.628C79.4427 171.659 80.9443 173.048 80.6379 173.682Z" fill="#1B58A1"/>
</g>
<g style="mix-blend-mode:multiply">
<path d="M80.4457 173.59C80.1596 174.202 78.2596 173.896 76.2064 172.926C74.1532 171.955 72.723 170.668 73.0091 170.056C73.2951 169.443 75.1951 169.749 77.2483 170.73C79.3016 171.71 80.7317 172.987 80.4457 173.59Z" fill="#1957A0"/>
</g>
<g style="mix-blend-mode:multiply">
<path d="M80.2603 173.498C79.9845 174.07 78.2173 173.794 76.2458 172.864C74.2743 171.935 72.9361 170.73 73.1813 170.148C73.4264 169.565 75.2243 169.862 77.1958 170.781C79.1673 171.7 80.5259 172.926 80.2603 173.498Z" fill="#1856A0"/>
</g>
<g style="mix-blend-mode:multiply">
<path d="M80.056 173.406C79.8007 173.947 78.0947 173.681 76.256 172.813C74.4173 171.945 73.1404 170.771 73.3958 170.24C73.6512 169.708 75.3571 169.964 77.1958 170.842C79.0345 171.72 80.3114 172.864 80.056 173.406Z" fill="#17559F"/>
</g>
<g style="mix-blend-mode:multiply">
<path d="M79.8638 173.314C79.6187 173.824 78.0149 173.569 76.2885 172.752C74.5622 171.935 73.3568 170.852 73.5918 170.342C73.8267 169.831 75.4407 170.076 77.167 170.903C78.8934 171.731 80.109 172.803 79.8638 173.314Z" fill="#15549F"/>
</g>
<g style="mix-blend-mode:multiply">
<path d="M79.6701 173.222C79.4352 173.702 77.9438 173.467 76.3196 172.691C74.6954 171.914 73.5615 170.914 73.7964 170.434C74.0314 169.953 75.5228 170.188 77.1368 170.954C78.7508 171.72 79.8949 172.742 79.6701 173.222Z" fill="#14539E"/>
</g>
<g style="mix-blend-mode:multiply">
<path d="M79.4642 173.13C79.2599 173.569 77.8604 173.355 76.3384 172.64C74.8163 171.925 73.7744 170.975 73.9889 170.525C74.2034 170.076 75.6029 170.291 77.1147 171.016C78.6266 171.741 79.6787 172.681 79.4642 173.13Z" fill="#12529E"/>
</g>
<g style="mix-blend-mode:multiply">
<path d="M79.2407 172.987C79.0466 173.406 77.7493 173.202 76.3396 172.538C74.93 171.874 73.9595 170.995 74.1536 170.577C74.3477 170.158 75.645 170.362 77.0547 171.036C78.4644 171.71 79.4757 172.619 79.2407 172.987Z" fill="#11519D"/>
</g>
<g style="mix-blend-mode:multiply">
<path d="M79.0743 172.987C78.8904 173.375 77.6953 173.181 76.398 172.568C75.1006 171.955 74.1915 171.149 74.3549 170.76C74.5184 170.372 75.734 170.566 77.0313 171.179C78.3286 171.792 79.2377 172.558 79.0743 172.987Z" fill="#104F9C"/>
</g>
<g style="mix-blend-mode:multiply">
<path d="M78.8814 172.844C78.718 173.201 77.6148 173.028 76.4196 172.466C75.2245 171.904 74.3766 171.148 74.5707 170.801C74.7648 170.454 75.8373 170.628 77.0325 171.189C78.2277 171.751 79.0449 172.497 78.8814 172.844Z" fill="#0E4E9C"/>
</g>
<g style="mix-blend-mode:multiply">
<path d="M78.6863 172.752C78.533 173.069 77.5319 172.915 76.4491 172.405C75.3664 171.894 74.6206 171.21 74.7637 170.893C74.9067 170.577 75.918 170.73 77.0008 171.251C78.0836 171.772 78.8395 172.435 78.6863 172.752Z" fill="#0D4D9B"/>
</g>
<g style="mix-blend-mode:multiply">
<path d="M78.4929 172.66C78.3499 172.946 77.4714 172.803 76.4499 172.344C75.4284 171.884 74.795 171.271 74.938 170.985C75.0811 170.699 75.9596 170.842 76.9811 171.302C78.0026 171.761 78.6257 172.374 78.4929 172.66Z" fill="#0B4C9B"/>
</g>
<g style="mix-blend-mode:multiply">
<path d="M78.2899 172.568C78.1775 172.824 77.3705 172.701 76.5125 172.293C75.6544 171.884 75.0415 171.332 75.1641 171.077C75.2866 170.822 76.0834 170.955 76.9517 171.363C77.82 171.772 78.4125 172.313 78.2899 172.568Z" fill="#0A4B9A"/>
</g>
<g style="mix-blend-mode:multiply">
<path d="M78.0942 172.476C77.992 172.701 77.2872 172.589 76.5313 172.231C75.7754 171.874 75.2544 171.394 75.3565 171.21C75.4587 171.026 76.1635 171.097 76.9194 171.465C77.6754 171.833 78.2168 172.252 78.0942 172.476Z" fill="#094A9A"/>
</g>
<g style="mix-blend-mode:multiply">
<path d="M77.9003 172.384C77.8084 172.578 77.2057 172.476 76.5622 172.17C75.9186 171.863 75.4589 171.455 75.5407 171.271C75.6224 171.087 76.2353 171.169 76.8788 171.475C77.5224 171.782 77.9923 172.19 77.9003 172.384Z" fill="#074999"/>
</g>
<g style="mix-blend-mode:multiply">
<path d="M77.7083 172.292C77.6265 172.446 77.1362 172.374 76.5948 172.119C76.0534 171.863 75.6755 171.516 75.747 171.363C75.8185 171.21 76.3292 171.281 76.8706 171.537C77.412 171.792 77.7798 172.129 77.7083 172.292Z" fill="#064898"/>
</g>
<g style="mix-blend-mode:multiply">
<path d="M77.5147 172.201C77.4534 172.323 77.055 172.262 76.6158 172.058C76.1765 171.853 75.8803 171.578 75.9416 171.455C76.0029 171.332 76.4013 171.383 76.8405 171.598C77.2798 171.812 77.576 172.068 77.5147 172.201Z" fill="#044798"/>
</g>
<g style="mix-blend-mode:multiply">
<path d="M77.3187 172.098C77.2676 172.201 76.9714 172.15 76.6445 171.996C76.3176 171.843 76.0929 171.639 76.144 171.547C76.195 171.455 76.481 171.496 76.8079 171.649C77.1348 171.802 77.3595 171.966 77.3187 172.098Z" fill="#034697"/>
</g>
<g style="mix-blend-mode:multiply">
<path d="M77.1162 171.966C77.1162 172.037 76.8915 171.966 76.6769 171.904C76.4624 171.843 76.3092 171.659 76.3398 171.598C76.3705 171.537 76.5646 171.598 76.7791 171.669C76.9936 171.741 77.1979 171.966 77.1162 171.966Z" fill="#014597"/>
</g>
<g style="mix-blend-mode:multiply">
<path d="M76.919 171.966C76.919 171.966 76.8066 171.966 76.6942 171.966C76.5819 171.966 76.5104 171.843 76.5308 171.812C76.5513 171.782 76.6432 171.812 76.7556 171.812C76.8679 171.812 76.9394 171.884 76.919 171.966Z" fill="#004496"/>
</g>
</g>
</g>
<path opacity="0.4" d="M185.75 81.065L75.5799 144.695C74.4465 145.329 73.1801 145.686 71.8829 145.74C70.5856 145.793 69.2941 145.54 68.1127 145.002L0.692908 106.068C-1.21732 104.965 -0.982372 103.004 1.23431 101.758L111.363 38.1681C112.498 37.5372 113.764 37.1808 115.061 37.1276C116.357 37.0744 117.649 37.3258 118.831 37.8617L186.25 76.7958C188.202 77.8886 187.956 79.8292 185.75 81.065Z" fill="white"/>
<path opacity="0.2" d="M174.241 82.3928L77.8613 138.036C76.8683 138.589 75.7595 138.901 74.6241 138.947C73.4886 138.993 72.3582 138.772 71.3236 138.302L12.2701 104.24C10.5948 103.269 10.8093 101.584 12.74 100.461L109.12 44.8273C110.114 44.2738 111.224 43.9606 112.361 43.9127C113.498 43.8648 114.63 44.0836 115.667 44.5516L174.67 78.624C176.355 79.5841 176.141 81.2795 174.241 82.3928Z" fill="#041860"/>
<path d="M71.3527 146.136C70.1588 146.174 68.9756 145.899 67.9205 145.339L0.500719 106.405C0.0771694 106.206 -0.284338 105.895 -0.545209 105.507C-0.80608 105.118 -0.956518 104.666 -0.980469 104.199C-0.915391 103.597 -0.692105 103.022 -0.33328 102.534C0.025545 102.047 0.507128 101.662 1.06255 101.421L111.233 37.8208C112.427 37.1594 113.76 36.7871 115.124 36.7339C116.488 36.6807 117.846 36.948 119.088 37.5144L186.508 76.4484C186.933 76.6488 187.297 76.9607 187.559 77.3509C187.822 77.7411 187.974 78.1951 187.999 78.6648C187.931 79.266 187.707 79.8388 187.348 80.3262C186.99 80.8136 186.51 81.1986 185.956 81.4429L75.7759 145.032C74.4208 145.774 72.8974 146.154 71.3527 146.136ZM115.584 37.4837C114.178 37.4784 112.793 37.8298 111.559 38.5051L1.38944 102.095C0.95923 102.276 0.582859 102.564 0.296592 102.933C0.010324 103.301 -0.176189 103.737 -0.244979 104.199C-0.215618 104.528 -0.0988433 104.844 0.093298 105.113C0.285439 105.383 0.545985 105.596 0.848037 105.731L68.2678 144.665C69.3896 145.17 70.6144 145.406 71.8437 145.353C73.0731 145.299 74.2728 144.959 75.3468 144.358L185.517 80.7688C185.946 80.5863 186.321 80.2972 186.607 79.929C186.893 79.5608 187.081 79.1256 187.151 78.6648C187.122 78.3327 187.004 78.0146 186.81 77.7434C186.616 77.4722 186.353 77.2579 186.048 77.1225L118.628 38.1885C117.69 37.6984 116.642 37.4559 115.584 37.4837Z" fill="white"/>
<path d="M187.581 62.5171L186.355 63.4874H186.283L118.864 24.5533C117.682 24.0174 116.39 23.766 115.094 23.8192C113.797 23.8725 112.53 24.2288 111.396 24.8597L1.19569 88.4085C0.951662 88.5458 0.719336 88.7029 0.501066 88.8783L-0.632812 88.0408V90.8087C-0.615735 91.2161 -0.486533 91.611 -0.259441 91.9498C-0.0323487 92.2886 0.28383 92.5581 0.654294 92.7288L68.074 131.673C69.2569 132.207 70.5485 132.457 71.8453 132.402C73.1421 132.347 74.4079 131.989 75.5413 131.356L185.752 67.7873C186.244 67.5755 186.671 67.2387 186.992 66.8104C187.312 66.3821 187.516 65.8774 187.581 65.3463V62.5171Z" fill="white"/>
<path d="M185.75 64.9581L75.5799 128.548C74.4466 129.18 73.1807 129.538 71.8839 129.593C70.5871 129.648 69.2955 129.399 68.1127 128.864L0.692908 89.9201C-1.21732 88.817 -0.982372 86.856 1.23431 85.6099L111.363 22.0101C112.498 21.3792 113.764 21.0228 115.061 20.9696C116.357 20.9164 117.649 21.1678 118.831 21.7037L186.25 60.6378C188.202 61.7511 187.956 63.7019 185.75 64.9581Z" fill="#00B2A9"/>
<path d="M88.5248 105.179L67.4102 117.374L64.9688 115.965L86.0834 103.77L88.5248 105.179Z" fill="white"/>
<path d="M114.482 90.1958L93.3672 102.391L90.9258 100.981L112.04 88.7864L114.482 90.1958Z" fill="white"/>
<path d="M140.439 75.2124L119.324 87.4074L116.883 85.998L137.997 73.803L140.439 75.2124Z" fill="white"/>
<path d="M166.396 60.2293L145.281 72.4243L142.84 71.0148L163.954 58.8198L166.396 60.2293Z" fill="white"/>
<path d="M183.432 144.757L149.538 124.983C142.827 121.112 136.494 120.499 131.713 123.257C126.932 126.015 124.297 131.806 124.297 139.599V142.081C124.532 142.244 124.787 142.397 125.043 142.551V139.599C125.043 132.122 127.545 126.566 132.081 123.941C136.616 121.317 142.694 121.899 149.16 125.668L183.054 145.41C183.14 145.459 183.241 145.473 183.337 145.448C183.432 145.423 183.514 145.362 183.565 145.278C183.592 145.235 183.61 145.188 183.618 145.138C183.626 145.088 183.624 145.037 183.612 144.988C183.599 144.939 183.577 144.894 183.546 144.854C183.515 144.814 183.476 144.781 183.432 144.757Z" fill="white"/>
<path d="M77.7459 121.255V44.8987C77.7459 29.5784 66.969 10.9591 53.7302 3.31934C47.2538 -0.429033 41.135 -1.02142 36.5178 1.64432C31.9005 4.31006 29.3672 9.90709 29.3672 17.3936V22.7149L30.1231 23.4605V17.3936C30.1231 10.1829 32.5339 4.82073 36.9059 2.29799C41.278 -0.224762 47.1211 0.357416 53.3829 3.9628C66.4174 11.4902 77.0207 29.8439 77.0207 44.8987V121.255C77.0207 133.92 84.4675 148.914 94.5805 157.932V156.911C84.8557 148.015 77.7459 133.522 77.7459 121.255Z" fill="white"/>
<path d="M94.6343 157.667C94.6343 157.667 86.0127 148.883 82.652 141.641C79.2912 134.4 77.5444 127.69 77.4933 121.715C77.4423 115.74 77.381 64.3453 77.381 64.3453C77.381 64.3453 77.7487 43.0296 76.8498 39.6693C75.9509 36.309 73.8363 18.3536 56.2561 5.46411C38.6759 -7.4254 29.8909 6.48546 29.9931 13.7473C30.0952 21.0091 29.9931 25.6665 29.9931 25.6665C29.9931 25.6665 39.6259 33.4595 43.2727 44.5922C46.9195 55.725 47.2566 53.7844 47.3588 64.8661C47.4609 75.9479 47.4813 132.122 47.4813 132.122C47.4813 132.122 46.6641 141.999 49.1158 149.628C51.5674 157.258 55.9905 165.735 61.2309 171.271C66.4712 176.807 74.1326 183.313 81.2831 182.669C88.4337 182.026 93.245 179.391 94.5628 168.074L94.6343 157.667Z" fill="white"/>
<path d="M36.5208 1.64429L6.88672 18.7214L30.0035 25.6053L36.5208 1.64429Z" fill="white"/>
<path d="M124.296 142.081V145.502C122.641 144.307 114.898 139.017 107.533 139.272C99.2384 139.568 96.4496 147.157 96.4496 147.157C96.4496 147.157 94.4883 152.825 94.6313 155.481C94.6313 155.94 94.6824 156.502 94.7028 157.054L94.5598 156.931V157.952L94.7335 158.106C94.805 160.659 94.8254 163.468 94.8254 163.468C94.8624 166.277 94.6436 169.084 94.1717 171.853C92.8845 177.828 87.8281 181.219 87.4297 181.75L117.85 164.244H117.932L118.044 164.173L118.208 164.081C122.611 161.364 125.032 155.91 125.032 148.638V142.55C124.786 142.397 124.531 142.244 124.296 142.081Z" fill="#00B2A9"/>
<path d="M100.598 141.325L131.713 123.318C135.41 121.641 139.618 121.483 143.43 122.879C149.845 125.228 183.473 145.349 183.473 145.349L153.43 162.671C153.43 162.671 118.535 141.049 114.439 139.966C106.032 137.74 100.598 141.325 100.598 141.325Z" fill="white"/>
<path d="M29.3462 25.0537C25.0708 21.1282 19.748 18.5275 14.0235 17.5671C4.56431 16.1168 0.662136 27.1781 0.662136 27.1781C0.0869325 30.2115 -0.254574 33.2846 -0.359375 36.3703C-0.359375 39.7714 -0.0733531 52.1094 -0.0733531 52.1094L29.8978 34.8485C29.9599 34.8187 30.0128 34.7725 30.0506 34.7149C30.0884 34.6573 30.1097 34.5905 30.1123 34.5216V25.7584C29.8467 25.452 29.6016 25.2988 29.3462 25.0537Z" fill="#00B2A9"/>
<path d="M81.6 183.088C77.7892 182.948 74.0811 181.814 70.8435 179.799C57.7069 172.211 47.0117 153.694 47.0117 138.526V62.1699C47.0117 47.1253 36.4084 28.7613 23.3739 21.2339C17.1325 17.6285 11.2792 17.0362 6.90715 19.5691C2.53508 22.1021 0.114096 27.454 0.114096 34.6648V51.7316C0.123086 51.7857 0.120183 51.8412 0.105585 51.8941C0.0909877 51.9469 0.0650482 51.996 0.0295673 52.0379C-0.00591367 52.0797 -0.0500849 52.1133 -0.0998752 52.1364C-0.149665 52.1595 -0.20388 52.1714 -0.258754 52.1714C-0.313628 52.1714 -0.36785 52.1595 -0.41764 52.1364C-0.46743 52.1133 -0.511594 52.0797 -0.547075 52.0379C-0.582556 51.996 -0.608503 51.9469 -0.6231 51.8941C-0.637698 51.8412 -0.640602 51.7857 -0.631611 51.7316V34.6648C-0.631611 27.1782 1.91195 21.5812 6.51897 18.9154C11.126 16.2497 17.2551 16.8727 23.7416 20.5905C37.0213 28.2302 47.7472 46.8802 47.7472 62.1699V138.526C47.7472 153.459 58.2687 171.69 71.2419 179.156C77.4323 182.731 83.2447 183.323 87.5861 180.811C91.9275 178.298 94.3281 172.977 94.3281 165.827V156.87C94.3281 149.118 96.9636 143.327 101.744 140.528C106.525 137.73 112.858 138.383 119.57 142.254L153.463 161.987C153.514 162.007 153.56 162.038 153.598 162.077C153.636 162.116 153.665 162.163 153.683 162.215C153.701 162.267 153.708 162.322 153.702 162.376C153.697 162.431 153.68 162.483 153.652 162.53C153.624 162.578 153.587 162.618 153.542 162.649C153.497 162.681 153.446 162.702 153.392 162.711C153.338 162.721 153.283 162.718 153.23 162.704C153.177 162.691 153.128 162.665 153.085 162.63L119.181 142.939C112.705 139.211 106.637 138.588 102.102 141.213C97.5663 143.837 95.0534 149.383 95.0534 156.87V165.837C95.0534 173.273 92.5302 178.819 87.9028 181.464C85.9819 182.552 83.8074 183.112 81.6 183.088Z" fill="#1DDBD1"/>
<path d="M55.0703 78.9304V76.234L58.2166 74.416V77.1124L55.0703 78.9304Z" fill="#DDE1ED"/>
<path d="M63.9453 68.7677V66.0713L69.9416 62.6191V65.3155L63.9453 68.7677Z" fill="#00B2A9"/>
<path d="M55.375 68.2061V65.5098L69.9418 57.104V59.8004L55.375 68.2061Z" fill="#00B2A9"/>
<path d="M60.4336 75.8357V73.1393L72.5896 66.1226V68.8189L60.4336 75.8357Z" fill="#DDE1ED"/>
<path d="M55.375 73.7111V71.0249L61.3713 67.5625V70.2589L55.375 73.7111Z" fill="#00B2A9"/>
<path d="M58.8986 105.159V107.855L55.2109 109.979V107.283L58.8986 105.159Z" fill="#DDE1ED"/>
<path d="M65.611 101.288V103.984L61.9336 106.109V103.412L65.611 101.288Z" fill="#DDE1ED"/>
<path d="M69.6383 93.9238V96.6202L55.3984 104.842V102.146L69.6383 93.9238Z" fill="#DDE1ED"/>
<path d="M62.5273 85.3955V82.6991L69.6371 78.5933V81.2896L62.5273 85.3955Z" fill="#DDE1ED"/>
<path d="M55.2109 89.6138V86.9174L58.8986 84.793V87.4894L55.2109 89.6138Z" fill="#DDE1ED"/>
<path d="M55.2109 94.6591V91.9627L62.2389 87.908V90.6043L55.2109 94.6591Z" fill="#DDE1ED"/>
<path d="M65.0703 88.9701V86.2738L69.6365 83.6387V86.335L65.0703 88.9701Z" fill="#DDE1ED"/>
<path d="M62.5273 116.782V114.085L69.6371 109.979V112.676L62.5273 116.782Z" fill="#DDE1ED"/>
<path d="M55.2109 121V118.304L58.8986 116.179V118.876L55.2109 121Z" fill="#DDE1ED"/>
<path d="M55.2109 126.045V123.349L62.2389 119.294V121.991L55.2109 126.045Z" fill="#DDE1ED"/>
<path d="M65.0703 120.356V117.66L69.6365 115.025V117.721L65.0703 120.356Z" fill="#DDE1ED"/>
<path d="M139.742 145.543L137.402 144.195L140.549 142.377L142.888 143.725L139.742 145.543Z" fill="#DDE1ED"/>
<path d="M144.247 137.893L141.918 136.545L147.904 133.093L150.243 134.441L144.247 137.893Z" fill="#DDE1ED"/>
<path d="M130.907 140.089L128.578 138.741L143.135 130.335L145.474 131.683L130.907 140.089Z" fill="#DDE1ED"/>
<path d="M145.105 142.448L142.766 141.1L154.922 134.083L157.261 135.432L145.105 142.448Z" fill="#DDE1ED"/>
<path d="M135.677 142.847L133.348 141.499L139.334 138.036L141.673 139.384L135.677 142.847Z" fill="#DDE1ED"/>
</g>
<defs>
<clipPath id="clip0_93_6868">
<rect width="189" height="209" fill="white"/>
</clipPath>
</defs>
</svg>
