<svg width="191" height="172" viewBox="0 0 191 172" fill="none" xmlns="http://www.w3.org/2000/svg">
<g clip-path="url(#clip0_93_6964)">
<path d="M96.1046 172L30.9141 134.366V59.0989L96.1046 96.7326V172Z" fill="#00B2A9"/>
<path d="M96.0708 107.634V107.332L86.8926 102.036V91.4288L86.6348 91.2815V101.881L77.5817 96.6588V86.081L77.3166 85.9336V96.5409L68.2635 91.3109V80.6816L68.0057 80.5269V91.1342L58.9527 85.9042V75.3043L58.6949 75.1496V85.7569L49.664 80.5269V69.927L49.4062 69.7796V80.3795L40.3531 75.1496V64.5497L40.0953 64.4023V75.0317L30.9097 69.7281V70.0301L40.0953 75.3337V85.7863L30.9097 80.4827V80.7847L40.088 86.081V96.5336L30.9171 91.2373V91.5319L40.1027 96.8356V107.288L30.9171 101.985V102.287L40.1027 107.59V118.043L30.9171 112.739V113.041L40.088 118.308V128.805L30.9023 123.501V123.796L40.088 129.099V139.707L40.3458 139.854V129.247L49.3988 134.477V145.01L49.6566 145.165V134.558L58.7243 139.854V150.454L58.9822 150.609V140.001L68.0352 145.231V155.831L68.293 155.979V145.342L77.346 150.572V161.172L77.6112 161.319V150.719L86.6642 155.942V166.549L86.922 166.696V156.096L96.1003 161.4V161.098L86.922 155.794V145.342L96.1003 150.645V150.343L86.922 145.047V134.587L96.1003 139.891V139.596L86.922 134.293V123.84L96.0708 129.136V128.842L86.8926 123.538V113.085L96.0708 118.389V118.087L86.8926 112.783V102.331L96.0708 107.634ZM77.3166 96.8061V107.259L68.2635 102.036V91.5835L77.3166 96.8061ZM58.9822 107.443V96.9829L68.0352 102.213V112.665L58.9822 107.443ZM68.0352 112.967V123.42L58.9822 118.19V107.708L68.0352 112.967ZM58.7243 107.288L49.664 102.036V91.5761L58.717 96.8061L58.7243 107.288ZM58.7243 107.59V118.043L49.664 112.783V102.331L58.7243 107.59ZM58.7243 118.337V128.805L49.664 123.538V113.085L58.7243 118.337ZM58.9822 118.492L68.0352 123.715V134.167L58.9822 128.945V118.492ZM68.293 123.869L77.346 129.092V139.545L68.293 134.322V123.869ZM68.293 123.567V113.085L77.346 118.315V128.805L68.293 123.567ZM68.293 112.813V102.331L77.346 107.561V118.013L68.293 112.813ZM68.0352 91.4509V101.903L58.9822 96.6809V86.2062L68.0352 91.4509ZM58.7243 86.081V96.5409L49.664 91.2815V80.8289L58.7243 86.081ZM40.3605 75.4811L49.4135 80.711V91.1636L40.3605 85.9336V75.4811ZM40.3605 86.2357L49.4135 91.4583V101.911L40.3605 96.6882V86.2357ZM40.3605 96.9829L49.4135 102.213V112.665L40.3605 107.443V96.9829ZM40.3605 107.737L49.4135 112.967V123.42L40.3605 118.19V107.737ZM40.3605 128.945V118.492L49.4135 123.715V134.167L40.3605 128.945ZM49.6713 134.322V123.84L58.7243 129.063V139.515L49.6713 134.322ZM58.9822 139.699V129.239L68.0352 134.469V144.922L58.9822 139.699ZM68.293 145.01V134.587L77.346 139.817V150.27L68.293 145.01ZM86.6642 155.618L77.6112 150.388V139.964L86.6642 145.194V155.618ZM86.6642 144.863L77.6112 139.64V129.217L86.6642 134.44V144.863ZM86.6642 134.116L77.6112 128.886V118.492L86.6642 123.715V134.116ZM86.6642 123.361L77.6112 118.131V107.708L86.6642 112.938V123.361ZM86.6642 112.607L77.6112 107.443V96.9829L86.6642 102.213V112.607Z" fill="#54EDE2"/>
<path d="M161.289 134.366L96.1055 172V96.7326L161.289 59.0989V134.366Z" fill="#00B2A9"/>
<path d="M161.29 70.0006V69.6986L152.105 75.0317V64.4023L151.847 64.5497V75.1496L142.794 80.3795V69.7796L142.536 69.927V80.5269L133.483 85.7569V75.1496L133.225 75.3043V85.9042L124.165 91.1342V80.5269L123.907 80.6816V91.2815L114.854 96.5115V85.9042L114.596 86.0515V96.6588L105.543 101.881V91.2815L105.285 91.4288V102.036L96.0703 107.332V107.634L105.256 102.331V112.783L96.0703 118.087V118.389L105.256 113.085V123.538L96.0703 128.842V129.136L105.256 123.84V134.293L96.0703 139.596V139.891L105.256 134.587V145.047L96.0703 150.343V150.645L105.256 145.342V155.794L96.0703 161.098V161.4L105.256 156.096V166.696L105.514 166.549V155.942L114.567 150.719V161.319L114.825 161.172V150.572L123.878 145.342V155.942L124.135 155.794V145.194L133.196 139.964V150.572L133.454 150.417V139.854L142.507 134.624V145.231L142.764 145.077V134.44L151.817 129.21V139.854L152.075 139.707V129.099L161.261 123.796V123.501L152.105 128.805V118.345L161.29 113.049V112.746L152.105 118.05V107.561L161.29 102.257V101.955L152.105 107.259V96.8061L161.29 91.5025V91.2373L152.105 96.5336V86.081L161.29 80.7847V80.4827L152.105 85.7863V75.3043L161.29 70.0006ZM142.536 80.8289V91.2815L133.483 96.5115V86.081L142.536 80.8289ZM124.165 112.636V102.183L133.225 96.9534V107.443L124.165 112.636ZM133.225 107.708V118.161L124.165 123.391V112.938L133.225 107.708ZM123.907 112.783L114.854 118.013V107.561L123.907 102.331V112.783ZM123.907 113.085V123.538L114.854 128.805V118.315L123.907 113.085ZM123.907 123.84V134.293L114.854 139.515V129.063L123.907 123.84ZM124.165 123.685L133.225 118.463V128.915L124.165 134.138V123.685ZM133.483 118.308L142.536 113.085V123.538L133.483 128.805V118.308ZM133.483 118.013V107.561L142.536 102.331V112.783L133.483 118.013ZM133.483 107.259V96.8061L142.536 91.5761V102.036L133.483 107.259ZM133.225 86.2062V96.6588L124.165 101.881V91.4288L133.225 86.2062ZM123.907 91.5835V102.036L114.854 107.259V96.8061L123.907 91.5835ZM105.543 102.183L114.596 96.9534V107.443L105.543 112.665V102.183ZM105.543 112.938L114.596 107.708V118.161L105.543 123.391V112.938ZM105.543 123.685L114.596 118.492V128.945L105.543 134.175V123.685ZM105.543 134.44L114.596 129.217V139.67L105.543 144.892V134.44ZM105.543 155.647V145.194L114.596 139.964V150.417L105.543 155.647ZM114.854 150.27V139.854L123.907 134.624V145.01L114.854 150.27ZM124.165 144.892V134.44L133.225 129.21V139.67L124.165 144.892ZM133.483 139.515V129.063L142.536 123.84V134.293L133.483 139.515ZM151.847 128.915L142.794 134.138V123.685L151.847 118.492V128.915ZM151.847 118.161L142.794 123.391V112.938L151.847 107.708V118.161ZM151.847 107.406L142.794 112.636V102.183L151.847 96.9534V107.406ZM151.847 96.6588L142.794 101.881V91.4288L151.847 86.2062V96.6588ZM151.847 85.9042L142.794 91.1342V80.6816L151.847 75.4516V85.9042Z" fill="#54EDE2"/>
<path d="M96.1046 96.7326L30.9141 59.0988L96.0973 21.4651L161.288 59.0988L96.1046 96.7326Z" fill="#00B2A9"/>
<path d="M96.1046 96.04L31.5107 58.7524L30.9141 59.0987L96.1046 96.7324L161.288 59.0987L160.691 58.7524L96.1046 96.04Z" fill="#54EDE1"/>
<path d="M151.845 64.5496L152.103 64.4023L142.918 59.0987L152.103 53.795L151.845 53.6477L142.66 58.9513L133.636 53.7214L142.822 48.4177L142.557 48.2704L133.378 53.574L124.325 48.3441L133.504 43.0478L133.246 42.8931L124.06 48.1967L115.007 42.9668L124.185 37.6705L123.928 37.5158L114.742 42.8194L105.645 37.5968L114.853 32.3079L114.595 32.1606L105.409 37.4642L96.3561 32.2416L105.542 26.938L105.284 26.7907L96.0688 32.0648L86.8906 26.7686L86.6254 26.9159L95.811 32.2195L86.7874 37.4642L77.6018 32.168L77.344 32.3153L86.5296 37.6189L77.4766 42.8415L68.291 37.5379L68.0332 37.6926L77.2188 42.9889L68.1658 48.2188L58.9802 42.9152L58.7223 43.0625L67.9079 48.3662L58.8549 53.5961L49.662 48.2704L49.4041 48.4177L58.5824 53.7214L49.5294 58.9513L40.3585 53.6698L40.1007 53.8171L49.2789 59.1208L40.0859 64.4023L40.3438 64.5496L49.522 59.246L58.5824 64.476L49.3968 69.7796L49.6546 69.9269L58.8402 64.6233L67.8932 69.8533L58.7076 75.1495L58.9654 75.3042L68.151 70.0006L77.2041 75.2306L68.0185 80.5269L68.2763 80.6815L77.4619 75.3779L86.5149 80.6005L77.3293 85.9041L77.5945 86.0515L86.7727 80.7552L95.8257 85.9778L86.6475 91.2814L86.9053 91.4288L96.0688 86.1325L105.254 91.4288L105.512 91.2814L96.3266 85.9778L105.38 80.7552L114.595 86.0809L114.853 85.9336L105.645 80.6005L114.698 75.3779L123.876 80.6815L124.134 80.5269L114.956 75.2306L124.009 70.0006L133.187 75.3042L133.445 75.1495L124.296 69.8754L133.349 64.6454L142.535 69.949L142.792 69.8017L133.636 64.476L142.689 59.246L151.845 64.5496ZM133.091 53.7214L124.06 58.9513L115.007 53.7214L124.06 48.5135L133.091 53.7214ZM96.3561 53.7214L105.409 48.5135L114.484 53.7214L105.431 58.9513L96.3561 53.7214ZM105.151 59.0987L96.0688 64.3286L87.0158 59.0987L96.0688 53.8687L105.151 59.0987ZM96.0688 53.574L87.0158 48.3441L96.0688 43.1214L105.122 48.3441L96.0688 53.574ZM95.811 53.7214L86.758 58.9513L77.705 53.7214L86.7874 48.5135L95.811 53.7214ZM86.5002 59.0987L77.4471 64.3286L68.3941 59.0987L77.4471 53.8687L86.5002 59.0987ZM86.758 59.246L95.811 64.476L86.758 69.6986L77.705 64.476L86.758 59.246ZM96.0688 64.6233L105.122 69.8533L96.0688 75.0759L87.0453 69.8754L96.0688 64.6233ZM96.3266 64.476L105.38 59.246L114.433 64.476L105.38 69.6986L96.3266 64.476ZM105.645 59.0987L114.698 53.8687L123.751 59.0987L114.698 64.3286L105.645 59.0987ZM123.751 48.3441L114.698 53.574L105.637 48.3441L114.69 43.1214L123.751 48.3441ZM114.484 42.9668L105.431 48.1967L96.3782 42.9668L105.431 37.7441L114.484 42.9668ZM96.0688 32.3668L105.122 37.5968L96.0688 42.8194L87.0158 37.5968L96.0688 32.3668ZM86.758 37.7441L95.811 42.9668L86.758 48.1967L77.705 42.9668L86.758 37.7441ZM77.4471 43.1214L86.5002 48.3441L77.4471 53.574L68.3941 48.3441L77.4471 43.1214ZM68.1658 48.5135L77.2188 53.7361L68.1658 58.9661L59.1127 53.7361L68.1658 48.5135ZM49.8019 59.1134L58.8549 53.8834L67.9079 59.1134L58.8549 64.3434L49.8019 59.1134ZM59.1127 64.4907L68.1658 59.2607L77.2188 64.4907L68.1658 69.7133L59.1127 64.4907ZM68.4236 69.868L77.4766 64.638L86.5296 69.868L77.4766 75.0906L68.4236 69.868ZM77.7344 75.2453L86.7874 70.0153L95.8405 75.2453L86.7874 80.4679L77.7344 75.2453ZM96.0688 85.8305L87.0158 80.6005L96.0688 75.3779L105.122 80.6005L96.0688 85.8305ZM105.38 80.4532L96.3266 75.2306L105.38 70.0006L114.44 75.2306L105.38 80.4532ZM114.698 75.0759L105.645 69.8754L114.698 64.6454L123.751 69.8754L114.698 75.0759ZM124.009 69.6986L114.956 64.476L124.009 59.246L133.062 64.476L124.009 69.6986ZM133.32 64.3286L124.266 59.0987L133.32 53.8687L142.373 59.0987L133.32 64.3286Z" fill="#54EDE2"/>
<path d="M181.862 72.2916L173.141 67.2532V77.3227L181.862 82.3612L190.584 77.3227V67.2532L181.862 72.2916Z" fill="#00B2A9"/>
<path d="M181.862 82.3612L173.141 77.3227V67.2532L181.862 72.2916V82.3612Z" fill="#00B2A9"/>
<path d="M190.585 77.3227L181.863 82.3612V72.2916L190.585 67.2532V77.3227Z" fill="#2FD3C7"/>
<path d="M181.862 72.2915L173.141 67.2531L181.862 62.2146L190.584 67.2531L181.862 72.2915Z" fill="#00B2A9"/>
<path d="M181.862 72.2916L173.516 67.4668L173.141 67.6878L181.862 72.7262L190.584 67.6878L190.208 67.4668L181.862 72.2916Z" fill="white"/>
<path d="M158.19 132.503L149.469 127.464V137.534L158.19 142.572L166.919 137.534V127.464L158.19 132.503Z" fill="#00B2A9"/>
<path d="M158.19 142.572L149.469 137.534V127.464L158.19 132.503V142.572Z" fill="#2FC2BB"/>
<path d="M166.916 137.534L158.188 142.572V132.503L166.916 127.464V137.534Z" fill="#2FD3C7"/>
<path d="M158.19 132.503L149.469 127.464L158.19 122.426L166.919 127.464L158.19 132.503Z" fill="#00B2A9"/>
<path d="M158.19 132.503L149.852 127.678L149.469 127.899L158.19 132.937L166.919 127.899L166.544 127.678L158.19 132.503Z" fill="white"/>
<g opacity="0.5">
<path opacity="0.5" d="M151.236 24.2053L146.875 21.686V26.7245L151.236 29.2437L155.597 26.7245V21.686L151.236 24.2053Z" fill="#00B2A9"/>
<path opacity="0.5" d="M151.236 29.2437L146.875 26.7245V21.686L151.236 24.2053V29.2437Z" fill="#00B2A9"/>
<path opacity="0.5" d="M155.595 26.7245L151.234 29.2437V24.2053L155.595 21.686V26.7245Z" fill="#2FD3C7"/>
<path opacity="0.5" d="M151.236 24.2052L146.875 21.686L151.236 19.1667L155.597 21.686L151.236 24.2052Z" fill="#00B2A9"/>
<path opacity="0.5" d="M151.236 24.2051L147.067 21.7964L146.875 21.9069L151.236 24.4261L155.597 21.9069L155.405 21.7964L151.236 24.2051Z" fill="white"/>
</g>
<path d="M114.597 61.6181L105.875 56.5796V66.6491L114.597 71.6876L123.318 66.6491V56.5796L114.597 61.6181Z" fill="#00B2A9"/>
<path d="M114.597 71.6876L105.875 66.6491V56.5796L114.597 61.6181V71.6876Z" fill="#2FBBB4"/>
<path d="M123.315 66.6491L114.594 71.6876V61.6181L123.315 56.5796V66.6491Z" fill="#2FD3C7"/>
<path d="M114.597 61.6179L105.875 56.5795L114.597 51.541L123.318 56.5795L114.597 61.6179Z" fill="#3ECDC6"/>
<path d="M114.597 61.618L106.251 56.8005L105.875 57.0142L114.597 62.0526L123.318 57.0142L122.942 56.8005L114.597 61.618Z" fill="white"/>
<path d="M29.9088 41.711L12.2227 31.5015V11.0825L29.9088 21.292V41.711Z" fill="#00B2A9"/>
<path d="M47.589 31.5015L29.9102 41.711V21.292L47.589 11.0825V31.5015Z" fill="#2FD3C7"/>
<path d="M29.9088 21.2921L12.2227 11.0826L29.9088 0.873047L47.5876 11.0826L29.9088 21.2921Z" fill="#00B2A9"/>
<path d="M29.9088 21.2922L12.9887 11.5247L12.2227 11.9666L29.9088 22.1761L47.5876 11.9666L46.8215 11.5247L29.9088 21.2922Z" fill="white"/>
<path d="M72.5285 64.1225L59.4609 56.5796L72.5285 49.0366L85.5961 56.5796L72.5285 64.1225Z" fill="#2FD3C7"/>
<path d="M120.408 79.5913L112.121 74.8033L120.408 70.0227L128.695 74.8107L120.408 79.5913Z" fill="#2FD3C7"/>
<path d="M8.72154 122.426L0 117.387V127.457L8.72154 132.495L17.4505 127.457V117.387L8.72154 122.426Z" fill="#00B2A9"/>
<path d="M8.72154 132.495L0 127.457V117.387L8.72154 122.426V132.495Z" fill="#00B2A9"/>
<path d="M17.4516 127.457L8.72266 132.495V122.426L17.4516 117.387V127.457Z" fill="#2FD3C7"/>
<path d="M8.72154 122.426L0 117.387L8.72154 112.349L17.4505 117.387L8.72154 122.426Z" fill="#00B2A9"/>
<path d="M8.72154 122.426L0.375675 117.601L0 117.822L8.72154 122.86L17.4505 117.822L17.0674 117.608L8.72154 122.426Z" fill="white"/>
<path d="M54.3617 100.46L45.6328 95.4214V105.498L54.3617 110.529L63.0833 105.498V95.4214L54.3617 100.46Z" fill="#00B2A9"/>
<path d="M54.3617 110.529L45.6328 105.498V95.4214L54.3617 100.46V110.529Z" fill="#2EC5BD"/>
<path d="M78.102 123.892L66.957 117.461V104.592L78.102 111.023V123.892Z" fill="#56D2C9"/>
<path d="M63.0848 105.498L54.3633 110.529V100.46L63.0848 95.4214V105.498Z" fill="#2FD3C7"/>
<path d="M54.3617 100.46L45.6328 95.4213L54.3617 90.3828L63.0833 95.4213L54.3617 100.46Z" fill="#4CD0CA"/>
<path d="M54.3617 100.46L46.0159 95.6423L45.6328 95.856L54.3617 100.894L63.0833 95.856L62.7076 95.6423L54.3617 100.46Z" fill="white"/>
</g>
<defs>
<clipPath id="clip0_93_6964">
<rect width="190.585" height="172" fill="white"/>
</clipPath>
</defs>
</svg>
