<svg width="70" height="70" viewBox="0 0 70 70" fill="none" xmlns="http://www.w3.org/2000/svg">
<rect width="70" height="70" rx="15" fill="#CBADFF" fill-opacity="0.2"/>
<path d="M44.2632 19.8889C43.1877 19.8889 42.3158 19.0183 42.3158 17.9444C42.3158 16.8706 43.1877 16 44.2632 16H52.0526C53.1281 16 54 16.8706 54 17.9444V25.7222C54 26.7961 53.1281 27.6667 52.0526 27.6667C50.9771 27.6667 50.1053 26.7961 50.1053 25.7222V22.6388L39.798 32.9305C39.0376 33.6898 37.8045 33.6898 37.0441 32.9305L30.6316 26.5276L20.3244 36.8194C19.5639 37.5787 18.3309 37.5787 17.5704 36.8194C16.8099 36.06 16.8099 34.8289 17.5704 34.0695L29.2546 22.4028C30.0151 21.6435 31.2481 21.6435 32.0086 22.4028L38.4211 28.8057L47.3513 19.8889H44.2632ZM18.9474 49.0556C18.9474 47.9817 19.8192 47.1111 20.8947 47.1111H52.0526C53.1281 47.1111 54 47.9817 54 49.0556C54 50.1294 53.1281 51 52.0526 51H20.8947C19.8192 51 18.9474 50.1294 18.9474 49.0556Z" fill="#843DFF"/>
</svg>
