<svg width="70" height="70" viewBox="0 0 70 70" fill="none" xmlns="http://www.w3.org/2000/svg">
<path d="M34.5 16C35.4665 16 36.25 16.7733 36.25 17.7273V19.582C38.9387 19.981 40.9545 21.2544 42.3298 22.5001C42.8068 22.9321 43.2105 23.3635 43.544 23.7595C43.9028 24.1856 43.7912 24.8187 43.3339 25.1369L42.1152 25.9851C41.6658 26.2978 41.0518 26.1874 40.6883 25.778C40.4791 25.5424 40.2376 25.2937 39.9634 25.0454C39.066 24.2326 37.8437 23.4422 36.25 23.0942V25.3139L36.25 33.346C38.4327 33.5371 40.4034 34.1168 41.9452 35.2598C43.9789 36.7675 45 39.0534 45 41.9091C45 44.8647 43.7363 47.172 41.6958 48.6914C40.1576 49.8369 38.2521 50.4841 36.25 50.7165V52.2727C36.25 53.2267 35.4665 54 34.5 54C33.5335 54 32.75 53.2267 32.75 52.2727V50.6616C30.2342 50.22 28.0952 48.9069 26.5777 47.7134C25.9949 47.2551 25.483 46.798 25.0529 46.3844C24.6512 45.998 24.676 45.3564 25.0866 44.9795L26.176 43.9795C26.5791 43.6094 27.2029 43.6342 27.6004 44.0102C27.9353 44.3271 28.3242 44.6699 28.7588 45.0117C29.9153 45.9212 31.2859 46.738 32.75 47.1249L32.75 36.6143C27.5708 35.9335 24 32.2675 24 28.0909C24 25.9154 24.853 23.7142 26.6702 22.0683C28.1613 20.7177 30.2058 19.825 32.75 19.547V17.7273C32.75 16.7733 33.5335 16 34.5 16ZM30.8959 23.4999C30.1188 23.7983 29.5071 24.1874 29.0366 24.6136C27.9932 25.5586 27.5 26.8119 27.5 28.0909C27.5 30.0624 29.2533 32.5049 32.75 33.1245L32.75 24.1281V23.029C32.0477 23.1311 31.4324 23.2939 30.8959 23.4999ZM36.25 47.2305C37.5849 47.0225 38.7285 46.5736 39.5879 45.9337C40.7445 45.0724 41.5 43.7898 41.5 41.9091C41.5 39.9284 40.8384 38.7598 39.8432 38.022C39.0314 37.4201 37.8475 36.9937 36.25 36.8174L36.25 47.2305Z" fill="#EFB242"/>
</svg>
