<svg width="46" height="17" viewBox="0 0 46 17" fill="none" xmlns="http://www.w3.org/2000/svg">
<path d="M45.7296 8.48629C45.0737 6.81193 43.4517 5.90009 41.6954 6.21919L38.0881 6.87594C37.9366 6.89121 37.7899 6.9379 37.6572 7.01309C37.5245 7.08827 37.4086 7.19032 37.3169 7.31282C37.2251 7.43532 37.1595 7.57562 37.1241 7.72492C37.0888 7.87421 37.0844 8.02927 37.1113 8.18035C37.1382 8.33143 37.1958 8.47527 37.2805 8.60282C37.3652 8.73037 37.4752 8.83888 37.6034 8.92154C37.7317 9.00419 37.8756 9.0592 38.026 9.08312C38.1763 9.10703 38.33 9.09932 38.4773 9.06048L42.0846 8.41115C42.9429 8.25531 43.4719 8.77292 43.6826 9.30909C43.8933 9.84525 43.8565 10.5883 43.1251 11.066L37.8305 14.5177C37.5934 14.6724 37.3193 14.7598 37.037 14.7708C36.7548 14.7817 36.4748 14.7157 36.2266 14.5798C35.9785 14.4438 35.7712 14.2429 35.6267 13.9982C35.4821 13.7535 35.4057 13.4741 35.4054 13.1893V1.97904C35.4178 1.82572 35.3986 1.67146 35.349 1.526C35.2993 1.38054 35.2203 1.24703 35.1169 1.13391C35.0135 1.02078 34.888 0.93049 34.7483 0.868731C34.6085 0.806972 34.4576 0.775085 34.3051 0.775085C34.1525 0.775085 34.0016 0.806972 33.8618 0.868731C33.7221 0.93049 33.5966 1.02078 33.4932 1.13391C33.3898 1.24703 33.3108 1.38054 33.2612 1.526C33.2115 1.67146 33.1923 1.82572 33.2047 1.97904V13.1893C33.1993 13.8742 33.38 14.5476 33.7273 15.1363C34.0745 15.725 34.575 16.2065 35.1745 16.5287C35.7688 16.8609 36.4421 17.0227 37.1212 16.9963C37.8002 16.97 38.4592 16.7566 39.0265 16.3794L44.322 12.9203C45.8207 11.9417 46.3865 10.1588 45.7296 8.48536V8.48629ZM27.1061 6.21919L23.4987 6.87594C23.3473 6.89121 23.2006 6.9379 23.0678 7.01309C22.9351 7.08827 22.8192 7.19032 22.7275 7.31282C22.6358 7.43532 22.5702 7.57562 22.5348 7.72492C22.4994 7.87421 22.495 8.02927 22.522 8.18035C22.5489 8.33143 22.6065 8.47527 22.6912 8.60282C22.7759 8.73037 22.8858 8.83888 23.0141 8.92154C23.1424 9.00419 23.2862 9.0592 23.4366 9.08312C23.587 9.10703 23.7406 9.09932 23.8879 9.06048L27.4943 8.41115C28.3536 8.25531 28.8835 8.77292 29.0942 9.30909C29.3049 9.84525 29.2671 10.5883 28.5348 11.066L23.2402 14.5251C23.0032 14.6799 22.7291 14.7674 22.4469 14.7783C22.1647 14.7893 21.8847 14.7233 21.6366 14.5873C21.3884 14.4514 21.1812 14.2504 21.0368 14.0057C20.8924 13.761 20.8161 13.4815 20.816 13.1967V4.68119C20.817 3.99689 20.6349 3.325 20.2888 2.73635C19.9427 2.1477 19.4455 1.6641 18.8496 1.33653C18.2538 1.00896 17.5813 0.849563 16.9031 0.875137C16.2249 0.900711 15.566 1.11031 14.9961 1.48184L1.67818 10.181C0.179504 11.1597 -0.386296 12.9416 0.270584 14.6169C0.927464 16.2922 2.54758 17.2013 4.30478 16.8831L15.9327 14.7755C16.2018 14.7053 16.4348 14.5354 16.585 14.2995C16.7353 14.0637 16.7918 13.7794 16.7432 13.5034C16.6947 13.2274 16.5446 12.9801 16.3231 12.8107C16.1015 12.6414 15.8248 12.5626 15.5481 12.5901L3.91562 14.6986C3.05634 14.8544 2.52734 14.3368 2.31758 13.8006C2.10782 13.2645 2.1437 12.5214 2.8751 12.0437L16.1921 3.34542C16.4291 3.19029 16.7032 3.10253 16.9856 3.09142C17.2679 3.0803 17.548 3.14624 17.7962 3.28227C18.0445 3.41831 18.2517 3.61939 18.3961 3.86431C18.5404 4.10922 18.6165 4.38888 18.6163 4.67377V13.1893C18.6109 13.8742 18.7916 14.5476 19.1388 15.1363C19.4861 15.725 19.9866 16.2065 20.586 16.5287C21.1804 16.8609 21.8536 17.0227 22.5327 16.9963C23.2118 16.97 23.8708 16.7566 24.4381 16.3794L29.7336 12.9203C31.2323 11.9417 31.7971 10.1588 31.1421 8.48536C30.4871 6.81194 28.8623 5.90101 27.107 6.21826" fill="#009C32"/>
</svg>
