<?xml version="1.0" standalone="no"?>
<!DOCTYPE svg PUBLIC "-//W3C//DTD SVG 20010904//EN"
 "http://www.w3.org/TR/2001/REC-SVG-20010904/DTD/svg10.dtd">
<svg version="1.0" xmlns="http://www.w3.org/2000/svg"
 width="1472.000000pt" height="1472.000000pt" viewBox="0 0 1472.000000 1472.000000"
 preserveAspectRatio="xMidYMid meet">
<metadata>
Created by potrace 1.14, written by Peter Selinger 2001-2017
</metadata>
<g transform="translate(0.000000,1472.000000) scale(0.100000,-0.100000)"
fill="#000000" stroke="none">
<path d="M10937 9828 c-153 -20 -268 -124 -302 -273 -8 -36 -10 -569 -9 -1940
1 -1039 4 -1901 8 -1915 3 -13 8 -42 12 -65 51 -351 310 -694 651 -865 82 -41
236 -96 294 -105 19 -3 59 -10 89 -15 78 -13 302 -5 388 14 188 41 286 86 517
238 65 43 123 78 127 78 4 0 8 5 8 10 0 6 4 10 9 10 5 0 49 26 97 59 203 134
300 196 309 200 5 2 14 8 20 13 11 10 266 178 270 178 5 0 231 149 257 169 14
12 31 21 37 21 6 0 11 5 11 10 0 6 5 10 10 10 6 0 43 22 83 49 39 26 115 76
167 110 52 34 100 65 105 69 6 4 43 30 84 57 41 28 83 57 95 64 49 34 205 202
247 266 67 102 145 263 137 285 -1 3 4 15 11 28 12 22 15 33 26 92 2 14 9 46
13 72 14 72 12 242 -4 347 -14 94 -18 112 -57 226 -24 71 -100 224 -139 280
-16 22 -36 51 -46 65 -9 14 -55 63 -102 110 -172 172 -351 265 -610 315 -65
13 -317 14 -375 1 -16 -3 -46 -9 -65 -12 -61 -11 -79 -14 -107 -20 -16 -3 -39
-7 -53 -9 -14 -2 -61 -11 -105 -20 -44 -9 -98 -18 -120 -21 -22 -3 -56 -10
-75 -15 -20 -4 -53 -11 -75 -14 -35 -4 -74 -11 -235 -41 -19 -3 -44 -8 -55
-10 -329 -56 -401 -74 -450 -107 -71 -48 -133 -134 -154 -212 -3 -11 -6 -56
-5 -101 0 -68 5 -90 29 -139 56 -116 163 -191 286 -202 44 -3 98 1 169 15 58
11 121 23 140 26 19 3 46 8 60 11 14 3 39 7 55 10 17 2 41 6 55 9 46 11 97 20
169 30 18 3 40 7 50 10 9 3 36 8 61 11 25 3 62 10 82 16 20 5 40 9 45 8 4 -1
10 0 13 1 8 3 42 9 89 15 25 3 48 8 51 10 4 3 25 7 46 10 21 2 50 7 64 10 14
3 36 7 50 10 14 2 41 7 60 10 259 48 457 -73 545 -330 24 -70 21 -235 -5 -284
-5 -9 -15 -31 -22 -48 -7 -18 -16 -33 -20 -33 -5 0 -8 -6 -8 -13 0 -24 -93
-107 -192 -172 -54 -36 -102 -65 -107 -65 -5 0 -11 -4 -13 -8 -2 -5 -48 -37
-103 -72 -55 -36 -102 -67 -105 -71 -3 -3 -16 -12 -30 -19 -14 -7 -92 -58
-173 -112 -82 -54 -152 -98 -155 -98 -4 0 -19 -10 -34 -23 -15 -12 -49 -35
-75 -52 -27 -16 -131 -84 -233 -150 -102 -67 -200 -130 -217 -140 -18 -11 -33
-23 -33 -28 0 -4 -5 -5 -10 -2 -6 3 -13 -1 -16 -9 -3 -9 -10 -16 -15 -16 -5 0
-62 -35 -126 -77 -65 -43 -122 -80 -128 -83 -5 -3 -35 -21 -65 -41 -140 -91
-287 -108 -452 -53 -76 25 -228 141 -228 174 0 6 -3 10 -8 10 -11 0 -62 113
-78 173 -11 43 -14 360 -14 1917 0 1329 -3 1877 -11 1905 -48 173 -211 286
-382 263z"/>
<path d="M5480 9803 c0 -4 -35 -8 -78 -9 -143 -1 -301 -35 -422 -92 -19 -9
-41 -17 -48 -18 -8 -1 -22 -10 -31 -18 -10 -9 -21 -16 -25 -16 -7 0 -356 -222
-381 -243 -5 -4 -53 -35 -105 -69 -132 -85 -336 -218 -456 -298 -56 -37 -105
-69 -110 -71 -5 -2 -70 -44 -144 -93 -74 -49 -153 -100 -175 -115 -22 -14 -42
-28 -45 -31 -8 -8 -41 -28 -77 -46 -18 -9 -33 -20 -33 -24 0 -4 -11 -12 -25
-18 -14 -7 -31 -16 -38 -22 -7 -6 -59 -41 -117 -79 -58 -37 -140 -91 -183
-120 -43 -28 -82 -51 -87 -51 -5 0 -10 -3 -12 -7 -5 -11 -146 -103 -158 -103
-5 0 -10 -4 -10 -8 0 -5 -19 -19 -42 -32 -24 -13 -47 -28 -53 -33 -5 -4 -75
-51 -155 -103 -80 -51 -152 -98 -160 -104 -8 -6 -44 -29 -80 -52 -36 -23 -170
-111 -298 -195 -128 -84 -237 -153 -243 -153 -5 0 -9 -4 -9 -9 0 -5 -9 -13
-20 -16 -11 -3 -26 -12 -32 -18 -7 -7 -51 -37 -98 -67 -47 -30 -86 -58 -88
-62 -2 -5 -10 -8 -17 -8 -7 0 -27 -11 -43 -25 -17 -14 -32 -25 -35 -25 -3 0
-35 -20 -71 -45 -37 -25 -70 -45 -75 -45 -5 0 -11 -3 -13 -8 -1 -4 -41 -32
-88 -62 -47 -29 -91 -59 -98 -66 -6 -7 -21 -16 -32 -19 -11 -3 -20 -11 -20
-16 0 -5 -5 -9 -10 -9 -8 0 -118 -70 -339 -216 -24 -16 -51 -33 -60 -39 -54
-33 -155 -118 -213 -176 -160 -163 -271 -377 -312 -604 -14 -78 -16 -328 -2
-385 6 -26 20 -91 21 -100 0 -3 4 -11 8 -17 5 -7 6 -13 3 -13 -8 0 41 -133 77
-210 186 -401 593 -664 1022 -662 56 0 189 11 220 17 11 2 36 7 55 9 19 3 67
12 105 20 39 8 88 17 110 20 23 4 52 8 65 11 14 3 41 8 60 11 19 4 44 8 55 10
11 3 58 11 105 19 47 9 97 18 110 21 14 2 39 7 55 9 17 3 41 7 55 10 14 2 36
7 50 10 14 2 39 7 55 10 17 3 41 7 55 10 14 3 41 8 60 11 33 5 55 8 110 19 25
5 49 10 105 19 17 3 93 17 170 31 77 15 154 28 170 31 17 3 64 11 105 20 41 8
89 16 105 18 62 9 111 17 127 22 10 3 28 7 40 9 65 11 146 25 173 30 36 7 396
72 444 80 19 3 37 7 40 9 3 2 29 7 56 10 28 4 106 18 175 31 69 13 143 27 165
30 22 4 49 8 60 10 11 2 43 8 70 14 28 5 68 12 90 15 23 4 52 9 65 12 14 2 59
11 100 19 101 18 131 24 160 30 14 3 45 8 70 11 25 3 47 8 50 9 3 2 26 6 50
10 75 10 164 60 214 119 155 181 100 448 -114 554 -47 23 -68 27 -140 27 -75
0 -143 -7 -190 -20 -8 -2 -31 -7 -50 -10 -44 -7 -246 -43 -280 -50 -14 -3 -38
-8 -55 -10 -32 -6 -441 -80 -490 -89 -16 -3 -68 -13 -115 -21 -47 -8 -94 -17
-105 -19 -11 -2 -40 -7 -65 -11 -25 -4 -54 -9 -65 -12 -11 -2 -31 -6 -45 -9
-30 -5 -90 -16 -107 -20 -6 -1 -29 -5 -50 -8 -40 -6 -74 -12 -120 -22 -44 -9
-76 -15 -103 -18 -22 -3 -102 -18 -166 -30 -12 -2 -39 -7 -60 -11 -22 -4 -48
-9 -59 -11 -11 -2 -33 -5 -50 -8 -16 -2 -52 -10 -80 -16 -27 -6 -66 -13 -85
-16 -33 -3 -53 -7 -110 -19 -14 -3 -38 -7 -55 -10 -16 -2 -41 -7 -55 -10 -14
-3 -38 -8 -55 -10 -50 -9 -138 -24 -175 -30 -19 -3 -53 -10 -75 -15 -22 -5
-56 -11 -75 -14 -19 -3 -46 -8 -60 -11 -14 -3 -43 -8 -65 -10 -22 -3 -47 -8
-55 -10 -15 -5 -271 -52 -320 -60 -21 -3 -159 -28 -225 -41 -11 -2 -36 -7 -55
-10 -19 -4 -44 -8 -55 -10 -44 -9 -154 -5 -195 6 -270 73 -420 399 -301 655
37 79 108 150 233 231 57 37 143 93 191 126 48 32 90 58 93 58 3 0 10 5 17 10
7 6 91 62 187 125 96 62 180 117 185 122 6 5 46 31 90 58 44 27 85 53 90 58
22 19 177 117 185 117 5 0 10 3 12 8 2 4 28 23 58 42 30 19 57 37 60 40 4 5
90 61 178 115 10 6 71 46 137 89 66 44 181 119 255 167 74 49 142 93 150 99
104 69 153 100 158 100 4 0 18 9 32 21 14 11 54 39 90 62 324 210 467 304 478
314 6 6 21 15 32 18 11 3 20 11 20 16 0 5 4 9 9 9 6 0 104 61 218 136 246 162
329 216 483 316 63 41 194 127 290 190 96 63 178 114 181 114 3 -1 13 7 23 16
10 10 38 30 64 45 26 15 49 30 52 34 3 3 16 12 29 19 14 7 30 17 35 22 31 26
151 98 197 118 67 29 84 32 186 36 92 3 155 -11 239 -52 63 -32 175 -136 196
-184 7 -17 16 -30 20 -30 5 0 8 -8 8 -18 0 -10 4 -22 8 -27 35 -41 36 -67 38
-1555 0 -800 4 -1471 7 -1490 3 -19 9 -57 13 -85 11 -89 54 -217 105 -320 86
-171 111 -206 243 -337 70 -71 258 -207 290 -212 7 -1 24 -9 37 -17 35 -23
186 -76 249 -88 30 -6 66 -14 80 -17 53 -13 297 -12 373 2 153 26 345 99 439
165 14 11 30 19 35 19 6 0 18 9 28 20 10 11 24 20 31 20 7 0 14 3 16 8 2 4 44
33 93 65 110 70 118 75 166 109 21 16 43 28 49 28 5 0 10 5 10 10 0 6 4 10 9
10 6 0 63 35 128 78 65 43 152 100 193 127 41 27 128 84 194 127 65 43 122 78
127 78 5 0 9 5 9 10 0 6 7 10 15 10 8 0 15 5 15 10 0 6 4 10 9 10 11 0 135 82
139 92 2 4 7 8 12 8 7 0 409 258 479 308 200 142 340 321 431 553 12 30 23 61
25 69 2 8 10 44 19 80 18 79 18 71 19 250 1 162 -4 207 -40 330 -98 338 -328
618 -618 749 -39 17 -77 36 -86 40 -13 7 -121 37 -210 57 -45 10 -304 12 -364
3 -75 -12 -94 -16 -125 -23 -30 -7 -70 -14 -130 -22 -25 -3 -48 -8 -51 -10 -4
-2 -24 -6 -45 -9 -22 -3 -50 -8 -64 -11 -14 -3 -36 -8 -50 -10 -14 -2 -34 -6
-46 -9 -12 -3 -39 -7 -60 -10 -21 -3 -50 -8 -64 -11 -14 -3 -36 -8 -50 -10
-14 -3 -86 -16 -160 -29 -74 -14 -151 -27 -170 -31 -19 -3 -39 -7 -45 -8 -5
-2 -32 -6 -60 -10 -166 -26 -234 -54 -301 -122 -63 -65 -96 -142 -99 -229 -3
-113 26 -191 100 -268 63 -67 143 -101 237 -104 42 -1 91 2 110 7 18 5 49 11
68 14 19 3 71 12 115 20 106 20 134 25 174 32 18 3 43 8 55 10 11 2 41 7 66
10 25 3 48 8 51 10 4 2 24 6 44 10 21 3 47 8 59 10 31 6 126 23 166 29 19 3
42 8 50 10 8 2 31 6 50 9 33 5 48 8 110 21 14 3 41 7 60 9 19 3 46 8 60 11 46
12 175 12 220 0 286 -75 434 -435 285 -690 -36 -60 -95 -118 -177 -171 -40
-26 -140 -92 -223 -145 -82 -54 -155 -103 -162 -108 -7 -6 -14 -11 -17 -11 -9
0 -101 -64 -104 -72 -2 -4 -8 -8 -13 -8 -5 0 -63 -36 -130 -80 -66 -44 -121
-80 -123 -80 -1 0 -80 -52 -176 -115 -95 -63 -174 -115 -175 -115 -2 0 -40
-25 -85 -55 -45 -30 -85 -55 -89 -55 -4 0 -16 -9 -26 -20 -10 -11 -23 -20 -30
-20 -7 0 -20 -9 -30 -20 -10 -11 -22 -20 -26 -20 -5 0 -69 -40 -142 -89 -197
-131 -245 -151 -373 -156 -233 -10 -430 133 -504 364 -17 53 -18 143 -18 1478
-1 1227 -4 1525 -16 1587 -2 6 -6 29 -10 51 -14 71 -66 218 -106 297 -121 242
-318 436 -560 551 -70 33 -178 73 -225 83 -76 15 -128 24 -185 30 -36 3 -68 8
-72 11 -5 2 -8 1 -8 -4z"/>
</g>
</svg>
