<svg width="517" height="361" viewBox="0 0 517 361" fill="none" xmlns="http://www.w3.org/2000/svg">
<path d="M126.378 154.31L90.9779 336.11L86.3779 359.91L322.378 358.77C332.978 358.72 342.378 349.31 345.768 335.33L387.628 163.7C390.218 153.09 384.538 142.05 376.498 142.06L137.578 142.31C132.378 142.3 127.718 147.22 126.378 154.31Z" fill="#00B2A9"/>
<g opacity="0.5">
<path opacity="0.5" d="M126.378 154.31L90.9779 336.11L86.3779 359.91L322.378 358.77C332.978 358.72 342.378 349.31 345.768 335.33L387.628 163.7C390.218 153.09 384.538 142.05 376.498 142.06L137.578 142.31C132.378 142.3 127.718 147.22 126.378 154.31Z" fill="black"/>
</g>
<path d="M167.15 126.7C171.223 126.7 174.387 127.783 176.64 129.95C178.98 132.117 180.15 135.107 180.15 138.92C180.15 142.647 178.98 145.593 176.64 147.76C174.387 149.927 171.223 151.01 167.15 151.01H153.63V180.26C153.63 184.593 152.46 188.017 150.12 190.53C147.78 192.957 144.573 194.17 140.5 194.17C136.513 194.17 133.35 192.957 131.01 190.53C128.67 188.017 127.5 184.593 127.5 180.26V151.01H55.35C49.1967 151.01 44.3867 149.58 40.92 146.72C37.4533 143.86 35.72 139.787 35.72 134.5C35.72 129.56 38.06 123.927 42.74 117.6L112.81 19.97C116.103 15.29 119.353 11.9967 122.56 10.09C125.767 8.18333 129.797 7.23 134.65 7.23C140.283 7.23 144.833 9.04999 148.3 12.69C151.853 16.33 153.63 21.5733 153.63 28.42V126.7H167.15ZM128.67 37.26L64.32 127.35H128.67V37.26ZM273.191 195.21C260.885 195.21 249.965 192.61 240.431 187.41C230.898 182.123 223.315 174.54 217.681 164.66C212.048 154.78 208.798 143.123 207.931 129.69C207.411 122.237 207.151 112.27 207.151 99.79C207.151 88.1767 207.411 78.6867 207.931 71.32C208.798 58.06 212.048 46.5333 217.681 36.74C223.315 26.9467 230.855 19.45 240.301 14.25C249.835 8.96332 260.798 6.31999 273.191 6.31999C285.498 6.31999 296.375 8.96332 305.821 14.25C315.355 19.45 322.938 26.9467 328.571 36.74C334.291 46.5333 337.585 58.06 338.451 71.32C338.971 78.86 339.231 89.26 339.231 102.52C339.231 112.833 339.015 121.89 338.581 129.69C337.628 143.037 334.335 154.65 328.701 164.53C323.068 174.323 315.485 181.907 305.951 187.28C296.418 192.567 285.498 195.21 273.191 195.21ZM273.191 169.6C284.458 169.6 293.428 166.003 300.101 158.81C306.775 151.617 310.631 141 311.671 126.96C312.191 120.027 312.451 110.97 312.451 99.79C312.451 89.39 312.191 80.81 311.671 74.05C310.631 60.27 306.818 49.8267 300.231 42.72C293.645 35.5267 284.631 31.93 273.191 31.93C261.665 31.93 252.651 35.5267 246.151 42.72C239.738 49.8267 235.925 60.27 234.711 74.05C234.191 80.03 233.931 88.7833 233.931 100.31C233.931 111.663 234.191 120.547 234.711 126.96C235.925 141.173 239.781 151.833 246.281 158.94C252.868 166.047 261.838 169.6 273.191 169.6ZM494.933 126.7C499.006 126.7 502.169 127.783 504.423 129.95C506.763 132.117 507.933 135.107 507.933 138.92C507.933 142.647 506.763 145.593 504.423 147.76C502.169 149.927 499.006 151.01 494.933 151.01H481.413V180.26C481.413 184.593 480.243 188.017 477.903 190.53C475.563 192.957 472.356 194.17 468.283 194.17C464.296 194.17 461.133 192.957 458.793 190.53C456.453 188.017 455.283 184.593 455.283 180.26V151.01H383.133C376.979 151.01 372.169 149.58 368.703 146.72C365.236 143.86 363.503 139.787 363.503 134.5C363.503 129.56 365.843 123.927 370.523 117.6L440.593 19.97C443.886 15.29 447.136 11.9967 450.343 10.09C453.549 8.18333 457.579 7.23 462.433 7.23C468.066 7.23 472.616 9.04999 476.083 12.69C479.636 16.33 481.413 21.5733 481.413 28.42V126.7H494.933ZM456.453 37.26L392.103 127.35H456.453V37.26Z" fill="#10002B"/>
<path d="M299.768 323.77L274.768 122.36C273.768 114.11 267.178 107.95 259.408 107.98L204.608 108.15C202.571 108.173 200.561 108.61 198.699 109.436C196.837 110.261 195.163 111.457 193.778 112.95L167.778 140.62L15.3778 141.44C6.06781 141.49 -1.09219 150.31 0.137805 160.21L23.3478 346.36C24.3478 354.6 30.9378 360.75 38.6878 360.74L304.338 360.21C333.918 360.82 336.748 352.09 336.748 352.09C302.788 359.6 299.768 323.82 299.768 323.77Z" fill="#00B2A9"/>
<g opacity="0.5">
<path opacity="0.5" d="M185.218 283.48L176.258 293.1L107.258 231.03L116.218 221.41L185.218 283.48Z" fill="white"/>
<path opacity="0.5" d="M172.498 219.27L182.408 228.18L119.968 295.24L110.068 286.33L172.498 219.27Z" fill="white"/>
</g>
</svg>
