<svg width="146" height="30" viewBox="0 0 146 30" fill="none" xmlns="http://www.w3.org/2000/svg">
<g clip-path="url(#clip0_71_4835)">
<path d="M101.417 10.5061L98.7218 3.19873C98.4217 2.36791 97.9851 2 97.2679 2C96.554 2 96.1093 2.36791 95.8093 3.19873L93.1025 10.5102C93.0154 10.7456 93 10.874 93 10.9731C93 11.3216 93.2806 11.6105 93.6717 11.6105C93.9871 11.6105 94.2262 11.4554 94.3588 11.0607L95.232 8.59968H99.2789L100.156 11.0687C100.289 11.4554 100.533 11.6112 100.84 11.6112C101.235 11.6112 101.516 11.3229 101.516 10.9664C101.516 10.8326 101.49 10.7108 101.417 10.5061ZM95.6727 7.35881L97.0543 3.46429C97.1078 3.32382 97.1527 3.27833 97.2558 3.27833C97.3543 3.27833 97.4038 3.32382 97.4494 3.46429L98.8349 7.35881H95.6727ZM108.565 10.4038L106.112 7.90065L108.462 5.64434C108.652 5.45838 108.751 5.27241 108.751 5.04899C108.751 4.68844 108.496 4.42287 108.117 4.42287C107.9 4.42287 107.726 4.50649 107.532 4.70717L105.194 6.98354C104.878 7.2946 104.845 7.31333 104.518 7.31333H104.317V5.13261C104.317 4.68108 104.055 4.42287 103.649 4.42287C103.239 4.42287 102.976 4.68108 102.976 5.13261V10.8667C102.976 11.3142 103.239 11.5758 103.649 11.5758C104.054 11.5758 104.317 11.3142 104.317 10.8667V8.60637H104.526C104.94 8.60637 104.966 8.61038 105.263 8.91341L107.575 11.3216C107.768 11.5303 107.962 11.6099 108.182 11.6099C108.558 11.6099 108.813 11.363 108.813 10.9958C108.811 10.7985 108.74 10.5978 108.565 10.4038ZM114.968 11.549H117.834C119.679 11.549 120.768 10.4794 120.768 8.58296C120.768 6.78152 119.679 5.7808 117.834 5.7808H115.282V3.36529H119.565C119.998 3.36529 120.282 3.1111 120.282 2.70171C120.282 2.31507 119.998 2.06087 119.565 2.06087H114.967C114.283 2.06087 113.9 2.4328 113.9 3.12247V10.4834C113.901 11.1737 114.284 11.549 114.968 11.549ZM115.282 10.2519V7.00963H117.689C118.847 7.00963 119.356 7.60097 119.356 8.61038C119.356 9.64188 118.847 10.2526 117.689 10.2526H115.282V10.2519ZM124.831 11.6781C126.182 11.6781 127.215 11.2232 127.625 10.9389C127.811 10.8058 127.879 10.6847 127.879 10.4265V6.93003C127.879 5.17074 126.861 4.36267 125.1 4.36267C124.295 4.36267 123.558 4.56335 123.103 4.75667C122.735 4.9045 122.571 5.11722 122.579 5.40553C122.579 5.73933 122.834 5.9855 123.148 5.9855C123.304 5.9855 123.471 5.92864 123.65 5.85305C123.957 5.7313 124.474 5.5915 124.99 5.5915C126.11 5.5915 126.581 6.02028 126.581 6.9113V7.49929C125.924 7.32068 125.4 7.24509 124.796 7.24509C123 7.24509 122.116 8.26923 122.116 9.40307C122.116 10.7108 123.107 11.6781 124.831 11.6781ZM124.956 10.5409C123.992 10.5409 123.403 10.1235 123.403 9.40307C123.403 8.75086 123.912 8.2505 124.952 8.2505C125.495 8.2505 125.97 8.3301 126.581 8.51205V10.1389C126.137 10.3697 125.533 10.5409 124.956 10.5409ZM135.873 7.04375C135.725 5.45102 134.594 4.36267 132.825 4.36267C131.598 4.36267 130.585 4.80282 130.178 5.04565C129.874 5.22358 129.837 5.37142 129.837 5.87245V13.2561C129.837 13.7036 130.098 13.9652 130.505 13.9652C130.923 13.9652 131.181 13.7036 131.181 13.2561V11.2955C131.617 11.5075 132.289 11.6788 132.931 11.6788C134.594 11.6788 135.718 10.5791 135.873 8.99368C135.919 8.45854 135.919 7.57889 135.873 7.04375ZM134.533 8.80371C134.446 9.74422 133.857 10.3777 132.783 10.3777C132.229 10.3777 131.523 10.2031 131.181 9.9643V6.07313C131.522 5.82629 132.229 5.65237 132.783 5.65237C133.857 5.65237 134.454 6.28986 134.533 7.23372C134.579 7.69997 134.579 8.30268 134.533 8.80371ZM138.806 7.23372C138.893 6.29722 139.523 5.65973 140.567 5.65973C141.304 5.65973 141.855 6.04637 142.116 6.63035C142.238 6.83103 142.405 7.02435 142.713 7.02435C143.1 7.03237 143.362 6.78152 143.362 6.40224C143.362 6.20892 143.29 6.00824 143.169 5.77278C142.751 4.9841 141.84 4.362 140.549 4.362C138.799 4.362 137.626 5.46507 137.482 7.0511C137.425 7.57822 137.425 8.45051 137.482 8.97763C137.626 10.5663 138.799 11.6781 140.549 11.6781C141.84 11.6781 142.751 11.052 143.169 10.256C143.294 10.0245 143.362 9.82383 143.362 9.62984C143.362 9.25457 143.1 9.00037 142.713 9.00372C142.405 9.01108 142.23 9.20105 142.116 9.40574C141.862 9.97501 141.304 10.369 140.567 10.369C139.515 10.369 138.893 9.73553 138.806 8.80304C138.764 8.3107 138.764 7.72673 138.806 7.23372Z" fill="white"/>
<path d="M49.8887 9.76671L43.2495 10.9587C42.1486 11.1568 41.4159 12.209 41.6148 13.3087C41.8124 14.4091 42.8671 15.1402 43.9668 14.9422L50.606 13.7502C52.1864 13.4652 53.1608 14.4098 53.5492 15.3871C53.935 16.3644 53.8687 17.7183 52.5219 18.5899L42.7754 24.8973C41.8713 25.4819 40.769 25.5241 39.8234 25.011C38.8785 24.4979 38.314 23.5494 38.314 22.4751V6.94917C38.314 4.3671 36.9579 2.09005 34.6876 0.857209C32.4174 -0.375633 29.7668 -0.273285 27.5977 1.12946L3.08872 16.9898C0.330973 18.7746 -0.710381 22.0249 0.497054 25.0779C1.70516 28.1302 4.68926 29.7899 7.92382 29.2112L29.3255 25.3675C30.4265 25.1695 31.1591 24.118 30.9609 23.0176C30.7633 21.9179 29.7092 21.1854 28.6089 21.3841L7.20726 25.2277C5.62481 25.5107 4.65176 24.5668 4.26468 23.5902C3.87828 22.6129 3.94524 21.2583 5.29197 20.3867L29.8003 4.52563C30.7024 3.94165 31.8067 3.89884 32.7523 4.41258C33.6972 4.92565 34.2617 5.8742 34.2617 6.94917V22.4751C34.2617 25.0565 35.6172 27.3335 37.8874 28.5664C38.9421 29.139 40.0793 29.4233 41.211 29.4233C42.5162 29.4233 43.8161 29.046 44.978 28.2941L54.7245 21.9868C57.4816 20.202 58.5236 16.9524 57.3155 13.8994C56.1074 10.8464 53.12 9.18742 49.8887 9.76671ZM84.1677 13.8994C82.9596 10.847 79.9742 9.18541 76.7416 9.76671L70.1024 10.9587C69.0001 11.1568 68.2688 12.209 68.467 13.3087C68.6646 14.4091 69.7173 15.1402 70.819 14.9422L77.4582 13.7502C79.038 13.4652 80.0137 14.4098 80.4008 15.3871C80.7878 16.3644 80.7209 17.7183 79.3742 18.5899L69.6283 24.8973C68.7229 25.4819 67.6206 25.5241 66.6763 25.011C65.7307 24.4979 65.1662 23.5494 65.1662 22.4751V2.03453C65.1662 0.917414 64.2594 0.0116789 63.1404 0.0116789C62.022 0.0116789 61.1153 0.917414 61.1153 2.03453V22.4751C61.1153 25.0565 62.4701 27.3335 64.7416 28.5664C65.7957 29.139 66.9321 29.4233 68.0652 29.4233C69.3698 29.4233 70.6703 29.046 71.8315 28.2941L81.5774 21.9868C84.3345 20.2027 85.3752 16.9524 84.1677 13.8994Z" fill="#00A94F"/>
<path d="M100.585 26.9211L96.1776 22.8099L100.457 18.7822C100.585 18.6605 100.628 18.5702 100.628 18.4337C100.628 18.2397 100.491 18.0544 100.244 18.0544C100.123 18.0544 100.024 18.0999 99.9211 18.1949L95.6994 22.2038C95.4342 22.4574 95.4262 22.4574 94.9253 22.4574V18.4832C94.9253 18.2063 94.7766 18.0544 94.5221 18.0544C94.2676 18.0544 94.1196 18.2063 94.1196 18.4832V27.2362C94.1196 27.5091 94.2676 27.665 94.5221 27.665C94.7766 27.665 94.9246 27.5098 94.9246 27.2362V23.2467C95.4523 23.2467 95.4597 23.2467 95.688 23.4628L100.05 27.5245C100.149 27.6195 100.255 27.665 100.392 27.665C100.62 27.665 100.768 27.483 100.768 27.2817C100.768 27.1412 100.707 27.0349 100.585 26.9211ZM104.539 27.7252C105.852 27.7252 106.859 27.2549 107.219 26.9894C107.352 26.887 107.394 26.8148 107.394 26.6255V22.9584C107.394 21.3202 106.437 20.5502 104.881 20.5502C104.072 20.5502 103.259 20.7777 102.838 20.971C102.584 21.0847 102.463 21.1911 102.47 21.3998C102.477 21.6005 102.637 21.7677 102.831 21.7677C102.926 21.7677 103.047 21.7296 103.161 21.6727C103.495 21.5289 104.151 21.3275 104.794 21.3275C106.027 21.3275 106.616 21.8359 106.616 22.9999V23.6674C105.826 23.44 105.276 23.3604 104.608 23.3604C102.864 23.3604 101.965 24.3651 101.965 25.5144C101.965 26.8683 102.986 27.7252 104.539 27.7252ZM104.66 26.9479C103.427 26.9479 102.743 26.4241 102.743 25.5291C102.743 24.725 103.347 24.1223 104.66 24.1223C105.302 24.1223 105.837 24.2173 106.616 24.4441V26.4388C106.073 26.7352 105.336 26.9479 104.66 26.9479ZM114.585 20.6713H110.458C109.869 20.6713 109.698 20.8385 109.698 21.4259V27.2476C109.698 27.5165 109.838 27.665 110.089 27.665C110.336 27.665 110.477 27.5172 110.477 27.2476V21.4339H114.565V27.2476C114.565 27.5165 114.706 27.665 114.953 27.665C115.199 27.665 115.34 27.5172 115.34 27.2476V21.4259C115.34 20.8385 115.173 20.6713 114.585 20.6713ZM122.976 20.6104C122.645 20.6104 122.452 20.8111 122.155 21.2593L118.534 26.7653H118.507C118.534 25.984 118.545 24.1564 118.545 22.8099V21.0238C118.545 20.7583 118.405 20.6104 118.158 20.6104C117.907 20.6104 117.767 20.7583 117.767 21.0238V27.0007C117.767 27.4295 118.029 27.6643 118.378 27.6643C118.72 27.6643 118.876 27.4556 119.19 26.9813L122.82 21.46H122.862C122.836 22.4647 122.836 23.4735 122.836 24.5511V27.2476C122.836 27.5165 122.976 27.665 123.223 27.665C123.47 27.665 123.61 27.5172 123.61 27.2476V21.2787C123.61 20.8499 123.336 20.6104 122.976 20.6104ZM131.343 20.6713H125.739C125.424 20.6713 125.272 20.8038 125.272 21.0506C125.272 21.3008 125.424 21.4339 125.739 21.4339H128.154V27.2476C128.154 27.5165 128.293 27.665 128.541 27.665C128.788 27.665 128.928 27.5172 128.928 27.2476V21.4339H131.343C131.658 21.4339 131.809 21.3008 131.809 21.0506C131.809 20.8038 131.658 20.6713 131.343 20.6713ZM135.501 27.7252C136.815 27.7252 137.82 27.2549 138.181 26.9894C138.314 26.887 138.356 26.8148 138.356 26.6255V22.9584C138.356 21.3202 137.399 20.5502 135.842 20.5502C135.034 20.5502 134.222 20.7777 133.8 20.971C133.545 21.0847 133.424 21.1911 133.431 21.3998C133.439 21.6005 133.599 21.7677 133.792 21.7677C133.887 21.7677 134.009 21.7296 134.122 21.6727C134.457 21.5289 135.114 21.3275 135.755 21.3275C136.989 21.3275 137.578 21.8359 137.578 22.9999V23.6674C136.788 23.44 136.237 23.3604 135.569 23.3604C133.826 23.3604 132.927 24.3651 132.927 25.5144C132.926 26.8683 133.948 27.7252 135.501 27.7252ZM135.622 26.9479C134.388 26.9479 133.705 26.4241 133.705 25.5291C133.705 24.725 134.309 24.1223 135.622 24.1223C136.264 24.1223 136.799 24.2173 137.578 24.4441V26.4388C137.034 26.7352 136.298 26.9479 135.622 26.9479ZM145.327 20.6713H142.238C141.649 20.6713 141.482 20.8385 141.482 21.4259V23.4206C141.482 25.5706 141.227 26.3519 140.328 26.8603C140.065 27.0081 139.925 27.0616 139.925 27.3044C139.925 27.5513 140.107 27.665 140.301 27.665C140.476 27.665 140.688 27.5586 140.798 27.4978C141.91 26.8683 142.256 25.6963 142.256 23.5002V21.4339H145.305V27.2476C145.305 27.5165 145.445 27.665 145.696 27.665C145.943 27.665 146.084 27.5172 146.084 27.2476V21.4259C146.084 20.8385 145.916 20.6713 145.327 20.6713Z" fill="white"/>
</g>
<defs>
<clipPath id="clip0_71_4835">
<rect width="146" height="30" fill="white"/>
</clipPath>
</defs>
</svg>
