<svg width="134" height="38" viewBox="0 0 134 38" fill="none" xmlns="http://www.w3.org/2000/svg">
<g clip-path="url(#clip0_298_14198)">
<path d="M113.31 20.3456C113.312 20.5711 113.337 20.8491 113.472 21.0347C113.74 21.4069 114.512 21.4305 114.915 21.4305H118.201C119.092 21.4305 119.688 21.2499 119.688 20.2766V20.0011C119.276 20.1348 118.778 20.1951 118.19 20.1951H114.915C112.794 20.1951 111.738 19.4592 111.738 17.2332V14.6815H113.31V17.5344C113.31 17.7644 113.332 18.0569 113.472 18.2502C113.74 18.6224 114.511 18.6461 114.915 18.6461H118.201C119.092 18.6461 119.688 18.4654 119.688 17.4922V14.7074V14.6816H121.259V14.7074V17.2124V19.9968C121.259 22.1954 120.313 22.9797 118.19 22.9797H114.915C112.902 22.9797 111.848 22.3164 111.746 20.3458H113.31L113.31 20.3456Z" fill="#FC1701"/>
<path d="M69.6728 18.8257C69.6728 19.2303 69.6495 20.005 69.2763 20.2739C69.0826 20.4132 68.7898 20.4365 68.5591 20.4365H66.3098H65.4077V16.3019H66.3098H68.5157C69.4922 16.3019 69.6728 16.9006 69.6728 17.7935V18.8257L69.6728 18.8257ZM63.8315 20.4365H62.9295H60.6801C60.4494 20.4365 60.1566 20.4136 59.9629 20.2739C59.5894 20.005 59.5664 19.231 59.5664 18.8256V17.7934C59.5664 16.8998 59.7467 16.3018 60.7235 16.3018H62.9295H63.8315V20.4364L63.8315 20.4365ZM70.1152 15.1201C69.6573 14.8545 69.042 14.7261 68.2356 14.7261H66.3098H62.9295H61.0036C59.855 14.7261 59.0937 14.9868 58.6256 15.5353C58.1952 16.0395 58.0117 16.7856 58.0117 17.8048V18.8257C58.0117 19.8611 58.1888 20.6414 58.6256 21.172C59.0863 21.7319 59.8367 22.013 60.9828 22.013H62.9295H63.8315V23.0555H65.4077V22.013H66.3099H68.2564C69.0579 22.013 69.664 21.8744 70.1152 21.601C70.9213 21.1128 71.2276 20.1899 71.2276 18.8257V17.8048C71.2276 16.4547 70.909 15.5806 70.1152 15.1201L70.1152 15.1201Z" fill="#FC1701"/>
<path d="M89.6014 14.6816H91.1776V22.9796H89.6014V19.6187H83.6779V22.9796H82.1016V14.6816H83.6779V18.0421H89.6014V14.6816Z" fill="#FC1701"/>
<path d="M55.6523 14.7576H57.2287V23.0555H55.6523V19.6947H49.7289V23.0555H48.1523V14.7576H49.7289V18.1182H55.6523V14.7576Z" fill="#FC1701"/>
<path d="M45.7228 17.0127V23.0558H47.2993V14.7577H45.5932L39.7993 21.4986V14.7577H38.2227V23.0558H40.5344L45.7228 17.0127Z" fill="#FC1701"/>
<path d="M99.4645 16.9364V22.9794H101.041V14.6814H99.3351L93.5412 21.4223V14.6814H91.9648V22.9794H94.2762L99.4645 16.9364Z" fill="#FC1701"/>
<path d="M79.7344 16.9364V22.9794H81.3106V14.6814H79.605L73.8109 21.4223V14.6814H72.2344V22.9794H74.5461L79.7344 16.9364Z" fill="#FC1701"/>
<path d="M107.398 16.2369V22.9796H105.822V16.2369H102.18V14.6816H111.061V16.2369H107.398Z" fill="#FC1701"/>
<path d="M131.441 14.6816L127.886 20.6954L124.31 14.6816H122.02V22.9796H123.596V16.401L127.452 22.9796H128.31L132.157 16.4187V22.9796H133.732V14.6816H131.441Z" fill="#FC1701"/>
<path d="M18.9033 7.8317C25.0275 7.8317 29.9947 12.7988 29.9947 18.923C29.9947 19.2416 29.9805 19.5566 29.9541 19.8685H27.5083C27.5421 19.5577 27.5601 19.2427 27.5601 18.923C27.5601 14.1429 23.6835 10.2662 18.9032 10.2662C15.6436 10.2662 12.8052 12.0689 11.3288 14.7313H25.8534C26.3413 15.5808 26.7075 16.4688 26.8807 17.4368H9.5992H7.91147C8.6382 12.0146 13.2832 7.8317 18.9032 7.8317H18.9033ZM18.9033 27.5798C21.9365 27.5798 24.6056 26.0181 26.1515 23.6555H28.9356C27.1597 27.4133 23.3346 30.0144 18.9032 30.0144C13.2831 30.0144 8.63814 25.8308 7.91147 20.4093H10.3746V20.4096H34.646V17.4367H30.4384C30.3209 16.5136 30.0955 15.5978 29.754 14.7312H36.3477H37.3768V14.6146C37.1242 13.5328 36.7771 12.4876 36.3477 11.486C34.3499 6.82414 30.5343 3.12806 25.793 1.28408C23.6661 0.457191 21.355 0 18.9364 0C16.5191 0 14.2102 0.458327 12.0844 1.28408C8.8572 2.53857 6.06 4.65066 3.97118 7.34237C1.48451 10.547 0 14.5675 0 18.9364C0 23.3056 1.48451 27.3261 3.97118 30.5307C6.68719 34.0313 10.5999 36.5565 15.0985 37.4833C16.3382 37.7387 17.6216 37.8735 18.9364 37.8735C20.2459 37.8735 21.5233 37.7366 22.758 37.4833C28.8882 36.226 33.939 32.0075 36.3477 26.3863C36.7771 25.3848 37.1242 24.3395 37.3768 23.2579V23.1146H36.3477H11.3291C12.8058 25.7767 15.6439 27.5797 18.9032 27.5797L18.9033 27.5798Z" fill="#FC1701"/>
<path d="M84.1698 25.16V25.6042H82.7912V27.3906H82.2578V25.16H84.1698Z" fill="#FC1701"/>
<path d="M85.6938 26.2882H86.5839C86.6721 26.2882 86.7423 26.2763 86.7934 26.2519C86.8435 26.2278 86.8791 26.1909 86.9 26.1407C86.9208 26.0911 86.9314 26.0239 86.9314 25.9414C86.9314 25.824 86.9063 25.7378 86.8569 25.6842C86.8082 25.6299 86.7169 25.6027 86.5839 25.6027H85.6938V26.2882ZM85.1602 27.3906V25.16H86.6806C86.8245 25.16 86.9451 25.1745 87.0429 25.203C87.1406 25.2316 87.2206 25.2767 87.2828 25.3378C87.3445 25.3988 87.3908 25.4792 87.4201 25.5773C87.4496 25.6761 87.4645 25.7971 87.4645 25.9414C87.4634 26.1298 87.4366 26.2815 87.3834 26.3975C87.3304 26.5136 87.2468 26.5982 87.1325 26.6512C87.0186 26.7048 86.8697 26.7316 86.687 26.7316H85.6939V27.3906H85.1602L85.1602 27.3906Z" fill="#FC1701"/>
<path d="M90.3174 25.16H90.9503L89.9128 26.8371C89.8278 26.9704 89.7577 27.0713 89.7037 27.1404C89.649 27.2096 89.5946 27.2621 89.541 27.2981C89.4877 27.3348 89.4284 27.3591 89.3633 27.3722C89.2976 27.3842 89.2111 27.3905 89.1029 27.3905H88.8941V26.9693H89.0003C89.2056 26.9693 89.3086 26.9241 89.3086 26.8345C89.3086 26.807 89.2959 26.7728 89.2701 26.7315L88.2383 25.1599H88.8687L89.6137 26.4172L90.3175 25.1599L90.3174 25.16Z" fill="#FC1701"/>
<path d="M91.8594 27.3908V25.1602H92.3925H93.7683H94.3052V27.3908H93.7714V25.6028H92.3925V27.3908H91.8594Z" fill="#FC1701"/>
<path d="M95.2891 27.3908V25.1602H95.8229H97.1984H97.7349V27.3908H97.2015V25.6028H95.8229V27.3908H95.2891Z" fill="#FC1701"/>
<path d="M99.7063 26.4076H100.596L100.172 25.5782H100.147L99.7064 26.4076H99.7063ZM99.2018 27.3908H98.5781L99.7606 25.1602H100.552L101.725 27.3908H101.098L100.812 26.8287H99.4907L99.2018 27.3908H99.2018Z" fill="#FC1701"/>
<path d="M104.336 27.3908V25.1602H104.867V25.9923H105.182L106.156 25.1602H106.955L105.642 26.2054L107.008 27.3908H106.222L105.191 26.4357H104.867V27.3908H104.336Z" fill="#FC1701"/>
<path d="M108.424 26.5742C108.425 26.6726 108.438 26.7485 108.462 26.8021C108.487 26.8554 108.528 26.8931 108.588 26.9147C108.646 26.9365 108.731 26.9471 108.842 26.9471H109.549C109.666 26.9471 109.753 26.9372 109.811 26.9161C109.87 26.8952 109.91 26.8579 109.932 26.8053C109.955 26.7528 109.967 26.6749 109.967 26.5711V26.0018C109.967 25.8924 109.953 25.8095 109.926 25.7534C109.899 25.6966 109.856 25.6578 109.796 25.6359C109.736 25.6141 109.651 25.6031 109.539 25.6031H108.851C108.739 25.6031 108.652 25.6148 108.592 25.6377C108.533 25.6605 108.49 25.6998 108.465 25.7566C108.44 25.8129 108.426 25.8956 108.424 26.0049V26.5742V26.5742ZM110.5 26.6285C110.5 26.7731 110.487 26.8924 110.461 26.9877C110.435 27.0821 110.391 27.1591 110.331 27.2186C110.27 27.2779 110.188 27.3217 110.084 27.3492C109.979 27.3767 109.85 27.3904 109.694 27.3904H108.713C108.564 27.3904 108.437 27.3764 108.333 27.3475C108.229 27.3189 108.144 27.2738 108.079 27.2124C108.013 27.1507 107.965 27.0723 107.936 26.9771C107.905 26.8818 107.891 26.7661 107.891 26.6285V25.9509C107.891 25.7956 107.905 25.6683 107.935 25.5674C107.963 25.4669 108.01 25.3867 108.074 25.3268C108.138 25.2668 108.222 25.2238 108.324 25.1984C108.426 25.1726 108.556 25.1599 108.713 25.1599H109.694C109.886 25.1599 110.04 25.1829 110.157 25.2284C110.273 25.2742 110.359 25.355 110.416 25.4697C110.472 25.585 110.5 25.7452 110.5 25.9509V26.6285L110.5 26.6285Z" fill="#FC1701"/>
<path d="M115.035 27.3908H114.502V25.6039H114.431L113.666 27.3908H112.908L112.143 25.6039H112.072V27.3908H111.539V25.1602H112.532L113.271 26.9472H113.303L114.043 25.1602H115.035V27.3908Z" fill="#FC1701"/>
<path d="M116.051 27.3908V25.1602H116.584H117.96H118.497V27.3908H117.963V25.6028H116.584V27.3908H116.051Z" fill="#FC1701"/>
<path d="M120.467 26.4076H121.357L120.933 25.5782H120.908L120.467 26.4076H120.467ZM119.962 27.3908H119.34L120.522 25.1602H121.313L122.486 27.3908H121.859L121.573 26.8287H120.252L119.962 27.3908Z" fill="#FC1701"/>
<path d="M123.297 27.3908V25.1602H123.83V26.0153H125.206V25.1602H125.742V27.3908H125.206V26.4587H123.83V27.3908H123.297Z" fill="#FC1701"/>
<path d="M129.1 27.3908V25.6039H129.026L127.686 27.3908H126.77V25.1602H127.303V26.9472H127.377L128.736 25.1602H129.634V27.3908H129.1Z" fill="#FC1701"/>
<path d="M132.812 24.5402C132.812 24.6555 132.792 24.7459 132.752 24.81C132.713 24.8743 132.638 24.9216 132.528 24.9511C132.419 24.9811 132.258 24.9959 132.046 24.9959C131.835 24.9959 131.674 24.9811 131.565 24.9511C131.455 24.9216 131.381 24.8743 131.342 24.81C131.302 24.7458 131.282 24.6555 131.282 24.5402V24.511H131.716V24.5434C131.716 24.602 131.726 24.6443 131.746 24.6715C131.766 24.6986 131.797 24.7159 131.841 24.724C131.885 24.7318 131.953 24.736 132.046 24.736C132.139 24.736 132.208 24.7318 132.252 24.724C132.296 24.7159 132.328 24.6986 132.347 24.6715C132.367 24.6443 132.377 24.602 132.377 24.5434V24.511H132.812V24.5402H132.812ZM133.034 27.3907V25.6039H132.96L131.62 27.3907H130.703V25.1601H131.237V26.9472H131.311L132.67 25.1601H133.567V27.3907H133.034Z" fill="#FC1701"/>
</g>
<defs>
<clipPath id="clip0_298_14198">
<rect width="133.733" height="37.8735" fill="white"/>
</clipPath>
</defs>
</svg>
