<svg width="85" height="63" viewBox="0 0 85 63" fill="none" xmlns="http://www.w3.org/2000/svg">
<path d="M8.41723 8.50614L5.72176 1.19873C5.42174 0.367913 4.98511 0 4.26788 0C3.554 0 3.10933 0.367913 2.80931 1.19873L0.102461 8.51015C0.0154027 8.74561 0 8.87405 0 8.97305C0 9.32156 0.280597 9.61054 0.671691 9.61054C0.987111 9.61054 1.22619 9.45535 1.35878 9.06068L2.23205 6.59968H6.27893L7.15622 9.06871C7.28948 9.45535 7.53258 9.61121 7.83996 9.61121C8.23507 9.61121 8.51567 9.3229 8.51567 8.96636C8.51567 8.83258 8.48955 8.71083 8.41723 8.50614ZM2.6727 5.35881L4.05425 1.46429C4.10783 1.32382 4.15269 1.27833 4.25583 1.27833C4.35427 1.27833 4.40383 1.32382 4.44936 1.46429L5.83494 5.35881H2.6727ZM15.5647 8.40379L13.1124 5.90065L15.4623 3.64434C15.6518 3.45838 15.7509 3.27241 15.7509 3.04899C15.7509 2.68844 15.4964 2.42287 15.1167 2.42287C14.9004 2.42287 14.7256 2.50649 14.5321 2.70717L12.1936 4.98354C11.8781 5.2946 11.8447 5.31333 11.5179 5.31333H11.3169V3.13261C11.3169 2.68108 11.0551 2.42287 10.6486 2.42287C10.2388 2.42287 9.97625 2.68108 9.97625 3.13261V8.86669C9.97625 9.31421 10.2388 9.57576 10.6486 9.57576C11.0544 9.57576 11.3169 9.31421 11.3169 8.86669V6.60637H11.5259C11.9398 6.60637 11.9659 6.61038 12.2625 6.91341L14.5749 9.32157C14.7685 9.53027 14.962 9.60987 15.1823 9.60987C15.558 9.60987 15.8125 9.36304 15.8125 8.9958C15.8112 8.79846 15.7395 8.59778 15.5647 8.40379ZM21.9676 9.549H24.8338C26.6788 9.549 27.7683 8.47938 27.7683 6.58296C27.7683 4.78152 26.6788 3.7808 24.8338 3.7808H22.2823V1.36529H26.5649C26.9975 1.36529 27.2822 1.1111 27.2822 0.70171C27.2822 0.315067 26.9975 0.0608728 26.5649 0.0608728H21.9669C21.2831 0.0608728 20.9001 0.432799 20.9001 1.12247V8.48339C20.9008 9.17373 21.2838 9.549 21.9676 9.549ZM22.2823 8.25194V5.00963H24.6891C25.847 5.00963 26.356 5.60097 26.356 6.61038C26.356 7.64188 25.847 8.25261 24.6891 8.25261H22.2823V8.25194ZM31.8306 9.67811C33.182 9.67811 34.2147 9.22323 34.6245 8.93894C34.8107 8.80582 34.879 8.68474 34.879 8.42653V4.93003C34.879 3.17074 33.8611 2.36267 32.0998 2.36267C31.2949 2.36267 30.5582 2.56335 30.1029 2.75667C29.7345 2.9045 29.5711 3.11722 29.5792 3.40553C29.5792 3.73933 29.8336 3.9855 30.1484 3.9855C30.3038 3.9855 30.4712 3.92864 30.65 3.85305C30.9574 3.7313 31.4737 3.5915 31.99 3.5915C33.1104 3.5915 33.5805 4.02028 33.5805 4.9113V5.49929C32.9242 5.32068 32.3999 5.24509 31.7958 5.24509C29.9997 5.24509 29.1157 6.26923 29.1157 7.40307C29.1164 8.71083 30.1069 9.67811 31.8306 9.67811ZM31.9559 8.54092C30.9915 8.54092 30.4029 8.12351 30.4029 7.40307C30.4029 6.75086 30.9118 6.2505 31.9518 6.2505C32.495 6.2505 32.9698 6.3301 33.5805 6.51205V8.13889C33.1365 8.36968 32.5331 8.54092 31.9559 8.54092ZM42.873 5.04375C42.725 3.45102 41.5939 2.36267 39.8246 2.36267C38.5978 2.36267 37.5845 2.80282 37.178 3.04565C36.874 3.22358 36.8365 3.37142 36.8365 3.87245V11.2561C36.8365 11.7036 37.0983 11.9652 37.5048 11.9652C37.9227 11.9652 38.1806 11.7036 38.1806 11.2561V9.29548C38.6172 9.50753 39.2889 9.67877 39.9311 9.67877C41.5939 9.67877 42.7176 8.57905 42.873 6.99368C42.9185 6.45854 42.9185 5.57889 42.873 5.04375ZM41.533 6.80371C41.4459 7.74422 40.8573 8.3777 39.7831 8.3777C39.2286 8.3777 38.5228 8.20311 38.1806 7.9643V4.07313C38.5221 3.82629 39.2286 3.65237 39.7831 3.65237C40.8573 3.65237 41.454 4.28986 41.533 5.23372C41.5785 5.69997 41.5785 6.30268 41.533 6.80371ZM45.8055 5.23372C45.8926 4.29722 46.5228 3.65973 47.5675 3.65973C48.3041 3.65973 48.8546 4.04637 49.1165 4.63035C49.2383 4.83103 49.4051 5.02435 49.7131 5.02435C50.1002 5.03237 50.3621 4.78152 50.3621 4.40224C50.3621 4.20892 50.2904 4.00824 50.1685 3.77278C49.7513 2.9841 48.8399 2.362 47.5487 2.362C45.7988 2.362 44.6256 3.46507 44.4816 5.0511C44.4247 5.57822 44.4247 6.45051 44.4816 6.97763C44.6256 8.56634 45.7988 9.67811 47.5487 9.67811C48.8399 9.67811 49.7513 9.05199 50.1685 8.25596C50.2944 8.02451 50.3621 7.82383 50.3621 7.62984C50.3621 7.25457 50.1002 7.00037 49.7131 7.00372C49.4051 7.01107 49.2303 7.20105 49.1165 7.40574C48.862 7.97501 48.3041 8.36901 47.5675 8.36901C46.5154 8.36901 45.8926 7.73553 45.8055 6.80304C45.764 6.3107 45.764 5.72673 45.8055 5.23372Z" fill="#10002B"/>
<path d="M7.5854 24.9211L3.17756 20.8099L7.45683 16.7822C7.5854 16.6605 7.62759 16.5702 7.62759 16.4337C7.62759 16.2397 7.49098 16.0544 7.24387 16.0544C7.12265 16.0544 7.02354 16.0999 6.92108 16.1949L2.69941 20.2038C2.43421 20.4574 2.42618 20.4574 1.92526 20.4574V16.4832C1.92526 16.2063 1.77659 16.0544 1.52211 16.0544C1.26763 16.0544 1.11963 16.2063 1.11963 16.4832V25.2362C1.11963 25.5091 1.26763 25.665 1.52211 25.665C1.77659 25.665 1.92459 25.5098 1.92459 25.2362V21.2467C2.4523 21.2467 2.45966 21.2467 2.68802 21.4628L7.05033 25.5245C7.14877 25.6195 7.25525 25.665 7.39187 25.665C7.61956 25.665 7.76823 25.483 7.76823 25.2817C7.76823 25.1412 7.70729 25.0349 7.5854 24.9211ZM11.5392 25.7252C12.8525 25.7252 13.859 25.2549 14.2193 24.9894C14.3519 24.887 14.3941 24.8148 14.3941 24.6255V20.9584C14.3941 19.3202 13.4371 18.5502 11.8807 18.5502C11.0718 18.5502 10.2594 18.7777 9.83821 18.971C9.58373 19.0847 9.46252 19.1911 9.46989 19.3998C9.47725 19.6005 9.63731 19.7677 9.83085 19.7677C9.92594 19.7677 10.0472 19.7296 10.161 19.6727C10.4952 19.5289 11.1515 19.3275 11.7937 19.3275C13.0272 19.3275 13.6159 19.8359 13.6159 20.9999V21.6674C12.8263 21.44 12.2759 21.3604 11.6075 21.3604C9.86433 21.3604 8.96495 22.3651 8.96495 23.5144C8.96495 24.8683 9.98621 25.7252 11.5392 25.7252ZM11.6604 24.9479C10.4269 24.9479 9.74312 24.4241 9.74312 23.5291C9.74312 22.725 10.3465 22.1223 11.6604 22.1223C12.302 22.1223 12.837 22.2173 13.6159 22.4441V24.4388C13.0728 24.7352 12.3361 24.9479 11.6604 24.9479ZM21.5851 18.6713H17.4578C16.8692 18.6713 16.6984 18.8385 16.6984 19.4259V25.2476C16.6984 25.5165 16.8384 25.665 17.0889 25.665C17.336 25.665 17.4766 25.5172 17.4766 25.2476V19.4339H21.565V25.2476C21.565 25.5165 21.7056 25.665 21.9528 25.665C22.1992 25.665 22.3398 25.5172 22.3398 25.2476V19.4259C22.3405 18.8385 22.1731 18.6713 21.5851 18.6713ZM29.9755 18.6104C29.6454 18.6104 29.4518 18.8111 29.1552 19.2593L25.5335 24.7653H25.5068C25.5335 23.984 25.5449 22.1564 25.5449 20.8099V19.0238C25.5449 18.7583 25.405 18.6104 25.1578 18.6104C24.9074 18.6104 24.7668 18.7583 24.7668 19.0238V25.0007C24.7668 25.4295 25.0286 25.6643 25.3782 25.6643C25.7197 25.6643 25.8757 25.4556 26.1905 24.9813L29.8202 19.46H29.8624C29.8356 20.4647 29.8356 21.4735 29.8356 22.5511V25.2476C29.8356 25.5165 29.9755 25.665 30.2226 25.665C30.4698 25.665 30.6097 25.5172 30.6097 25.2476V19.2787C30.6097 18.8499 30.3358 18.6104 29.9755 18.6104ZM38.3425 18.6713H32.7386C32.4239 18.6713 32.2719 18.8038 32.2719 19.0506C32.2719 19.3008 32.4239 19.4339 32.7386 19.4339H35.1535V25.2476C35.1535 25.5165 35.2935 25.665 35.5406 25.665C35.7877 25.665 35.9277 25.5172 35.9277 25.2476V19.4339H38.3425C38.658 19.4339 38.8093 19.3008 38.8093 19.0506C38.8093 18.8038 38.658 18.6713 38.3425 18.6713ZM42.5006 25.7252C43.8145 25.7252 44.8204 25.2549 45.1813 24.9894C45.3139 24.887 45.3561 24.8148 45.3561 24.6255V20.9584C45.3561 19.3202 44.3991 18.5502 42.8421 18.5502C42.0338 18.5502 41.2215 18.7777 40.7996 18.971C40.5451 19.0847 40.4239 19.1911 40.4313 19.3998C40.4386 19.6005 40.5987 19.7677 40.7922 19.7677C40.8873 19.7677 41.0085 19.7296 41.1224 19.6727C41.4566 19.5289 42.1135 19.3275 42.7551 19.3275C43.9893 19.3275 44.5779 19.8359 44.5779 20.9999V21.6674C43.7877 21.44 43.2372 21.3604 42.5689 21.3604C40.8264 21.3604 39.927 22.3651 39.927 23.5144C39.9263 24.8683 40.9476 25.7252 42.5006 25.7252ZM42.6225 24.9479C41.3882 24.9479 40.7052 24.4241 40.7052 23.5291C40.7052 22.725 41.3086 22.1223 42.6225 22.1223C43.264 22.1223 43.7991 22.2173 44.5779 22.4441V24.4388C44.0342 24.7352 43.2975 24.9479 42.6225 24.9479ZM52.3275 18.6713H49.2376C48.6489 18.6713 48.4815 18.8385 48.4815 19.4259V21.4206C48.4815 23.5706 48.227 24.3519 47.3277 24.8603C47.0651 25.0081 46.9245 25.0616 46.9245 25.3044C46.9245 25.5513 47.1067 25.665 47.3009 25.665C47.4757 25.665 47.6879 25.5586 47.7978 25.4978C48.9101 24.8683 49.2563 23.6963 49.2563 21.5002V19.4339H52.3047V25.2476C52.3047 25.5165 52.4454 25.665 52.6958 25.665C52.9429 25.665 53.0836 25.5172 53.0836 25.2476V19.4259C53.0836 18.8385 52.9162 18.6713 52.3275 18.6713Z" fill="#10002B"/>
<path d="M50.224 43.3429L43.5847 44.5349C42.4838 44.7329 41.7511 45.7852 41.95 46.8849C42.1476 47.9853 43.2023 48.7164 44.302 48.5184L50.9412 47.3264C52.5216 47.0414 53.496 47.9859 53.8844 48.9633C54.2702 49.9406 54.2039 51.2945 52.8571 52.1661L43.1106 58.4735C42.2065 59.0581 41.1042 59.1002 40.1586 58.5872C39.2137 58.0741 38.6492 57.1256 38.6492 56.0513V40.5253C38.6492 37.9433 37.2931 35.6662 35.0229 34.4334C32.7526 33.2005 30.102 33.3029 27.9329 34.7056L3.42393 50.566C0.666178 52.3507 -0.375176 55.6011 0.83226 58.6541C2.04037 61.7064 5.02447 63.366 8.25903 62.7874L29.6607 58.9437C30.7617 58.7457 31.4943 57.6941 31.2961 56.5938C31.0985 55.494 30.0444 54.7616 28.9442 54.9602L7.54247 58.8039C5.96001 59.0869 4.98696 58.143 4.59989 57.1664C4.21348 56.1891 4.28045 54.8345 5.62718 53.9628L30.1355 38.1018C31.0376 37.5178 32.1419 37.475 33.0875 37.9888C34.0324 38.5018 34.5969 39.4504 34.5969 40.5253V56.0513C34.5969 58.6327 35.9524 60.9097 38.2226 62.1426C39.2773 62.7152 40.4145 62.9995 41.5462 62.9995C42.8514 62.9995 44.1513 62.6222 45.3132 61.8703L55.0597 55.5629C57.8168 53.7782 58.8588 50.5286 57.6507 47.4755C56.4426 44.4225 53.4552 42.7636 50.224 43.3429ZM84.5029 47.4755C83.2948 44.4232 80.3094 42.7616 77.0768 43.3429L70.4376 44.5349C69.3353 44.7329 68.604 45.7852 68.8023 46.8849C68.9998 47.9853 70.0526 48.7164 71.1542 48.5184L77.7934 47.3264C79.3732 47.0414 80.3489 47.9859 80.736 48.9633C81.1231 49.9406 81.0561 51.2945 79.7094 52.1661L69.9635 58.4735C69.0581 59.0581 67.9558 59.1002 67.0115 58.5872C66.0659 58.0741 65.5014 57.1256 65.5014 56.0513V35.6107C65.5014 34.4936 64.5946 33.5879 63.4756 33.5879C62.3572 33.5879 61.4505 34.4936 61.4505 35.6107V56.0513C61.4505 58.6327 62.8053 60.9097 65.0768 62.1426C66.1309 62.7152 67.2673 62.9995 68.4004 62.9995C69.705 62.9995 71.0055 62.6222 72.1667 61.8703L81.9126 55.5629C84.6697 53.7789 85.7104 50.5286 84.5029 47.4755Z" fill="#00A94F"/>
</svg>
