<svg width="85" height="30" viewBox="0 0 85 30" fill="none" xmlns="http://www.w3.org/2000/svg">
<path d="M49.8887 9.76671L43.2495 10.9587C42.1486 11.1568 41.4159 12.209 41.6148 13.3087C41.8124 14.4091 42.8671 15.1402 43.9668 14.9422L50.606 13.7502C52.1864 13.4652 53.1608 14.4098 53.5492 15.3871C53.935 16.3644 53.8687 17.7183 52.5219 18.5899L42.7754 24.8973C41.8713 25.4819 40.769 25.5241 39.8234 25.011C38.8785 24.4979 38.314 23.5494 38.314 22.4751V6.94917C38.314 4.3671 36.9579 2.09005 34.6876 0.857209C32.4174 -0.375633 29.7668 -0.273285 27.5977 1.12946L3.08872 16.9898C0.330973 18.7746 -0.710381 22.0249 0.497054 25.0779C1.70516 28.1302 4.68926 29.7899 7.92382 29.2112L29.3255 25.3675C30.4265 25.1695 31.1591 24.118 30.9609 23.0176C30.7633 21.9179 29.7092 21.1854 28.6089 21.3841L7.20726 25.2277C5.62481 25.5107 4.65176 24.5668 4.26468 23.5902C3.87828 22.6129 3.94524 21.2583 5.29197 20.3867L29.8003 4.52563C30.7024 3.94165 31.8067 3.89884 32.7523 4.41258C33.6972 4.92565 34.2617 5.8742 34.2617 6.94917V22.4751C34.2617 25.0565 35.6172 27.3335 37.8874 28.5664C38.9421 29.139 40.0793 29.4233 41.211 29.4233C42.5162 29.4233 43.8161 29.046 44.978 28.2941L54.7245 21.9868C57.4816 20.202 58.5236 16.9524 57.3155 13.8994C56.1074 10.8464 53.12 9.18742 49.8887 9.76671ZM84.1677 13.8994C82.9596 10.847 79.9742 9.18541 76.7416 9.76671L70.1024 10.9587C69.0001 11.1568 68.2688 12.209 68.467 13.3087C68.6646 14.4091 69.7173 15.1402 70.819 14.9422L77.4582 13.7502C79.038 13.4652 80.0137 14.4098 80.4008 15.3871C80.7878 16.3644 80.7209 17.7183 79.3742 18.5899L69.6283 24.8973C68.7229 25.4819 67.6206 25.5241 66.6763 25.011C65.7307 24.4979 65.1662 23.5494 65.1662 22.4751V2.03453C65.1662 0.917414 64.2594 0.0116789 63.1404 0.0116789C62.022 0.0116789 61.1153 0.917414 61.1153 2.03453V22.4751C61.1153 25.0565 62.4701 27.3335 64.7416 28.5664C65.7957 29.139 66.9321 29.4233 68.0652 29.4233C69.3698 29.4233 70.6703 29.046 71.8315 28.2941L81.5774 21.9868C84.3345 20.2027 85.3752 16.9524 84.1677 13.8994Z" fill="#00A94F"/>
</svg>
