<svg width="472" height="472" viewBox="0 0 472 472" fill="none" xmlns="http://www.w3.org/2000/svg">
<mask id="mask0_33_474" style="mask-type:alpha" maskUnits="userSpaceOnUse" x="0" y="0" width="472" height="472">
<rect width="472" height="472" fill="#C4C4C4"/>
</mask>
<g mask="url(#mask0_33_474)">
<circle cx="235.615" cy="235.919" r="235.896" fill="#00B2A9"/>
<path d="M117.667 440.21C72.6953 414.246 37.5477 374.168 17.6754 326.192C-2.19684 278.216 -5.68326 225.023 7.7569 174.864L235.615 235.918L117.667 440.21Z" fill="white" fill-opacity="0.4"/>
<path d="M296.669 463.776C266.747 471.794 235.538 473.84 204.824 469.796C174.111 465.753 144.495 455.699 117.667 440.21L235.615 235.918L296.669 463.776Z" fill="#FC9202"/>
<path d="M439.466 353.133C408.189 407.308 356.671 446.839 296.247 463.029L235.2 235.2L439.466 353.133Z" fill="#10002B"/>
<path d="M199.632 402.719C200.144 402.719 200.54 402.875 200.82 403.187C201.108 403.499 201.252 403.943 201.252 404.519V418.235C201.252 418.779 201.1 419.207 200.796 419.519C200.492 419.831 200.084 419.987 199.572 419.987C199.06 419.987 198.652 419.831 198.348 419.519C198.044 419.207 197.892 418.779 197.892 418.235V406.859L194.892 408.467C194.492 408.691 194.096 408.803 193.704 408.803C193.472 408.803 193.244 408.735 193.02 408.599C192.796 408.455 192.616 408.267 192.48 408.035C192.344 407.795 192.276 407.539 192.276 407.267C192.276 406.675 192.624 406.191 193.32 405.815L197.82 403.379C198.212 403.155 198.54 402.991 198.804 402.887C199.068 402.775 199.344 402.719 199.632 402.719ZM212.205 420.083C211.037 420.083 209.997 419.843 209.085 419.363C208.181 418.883 207.457 418.187 206.913 417.275C206.369 416.363 206.049 415.275 205.953 414.011C205.905 413.387 205.881 412.503 205.881 411.359C205.881 410.207 205.905 409.291 205.953 408.611C206.049 407.379 206.365 406.315 206.901 405.419C207.437 404.515 208.157 403.823 209.061 403.343C209.973 402.863 211.021 402.623 212.205 402.623C213.381 402.623 214.421 402.863 215.325 403.343C216.237 403.815 216.961 404.503 217.497 405.407C218.041 406.303 218.357 407.371 218.445 408.611C218.501 409.379 218.529 410.347 218.529 411.515C218.529 412.555 218.505 413.387 218.457 414.011C218.361 415.251 218.045 416.331 217.509 417.251C216.973 418.163 216.249 418.863 215.337 419.351C214.433 419.839 213.389 420.083 212.205 420.083ZM212.193 416.891C213.041 416.891 213.717 416.619 214.221 416.075C214.725 415.523 215.017 414.667 215.097 413.507C215.137 412.923 215.157 412.175 215.157 411.263C215.157 410.431 215.137 409.715 215.097 409.115C214.945 406.915 213.981 405.815 212.205 405.815C210.437 405.815 209.469 406.915 209.301 409.115C209.269 409.539 209.253 410.267 209.253 411.299C209.253 412.323 209.269 413.059 209.301 413.507C209.469 415.763 210.433 416.891 212.193 416.891ZM225.833 411.395C225.129 411.395 224.485 411.231 223.901 410.903C223.317 410.575 222.849 410.127 222.497 409.559C222.153 408.983 221.961 408.347 221.921 407.651C221.913 407.499 221.909 407.283 221.909 407.003C221.909 406.723 221.913 406.511 221.921 406.367C221.961 405.671 222.153 405.039 222.497 404.471C222.849 403.895 223.317 403.443 223.901 403.115C224.485 402.787 225.129 402.623 225.833 402.623C226.537 402.623 227.181 402.787 227.765 403.115C228.349 403.443 228.813 403.895 229.157 404.471C229.509 405.039 229.705 405.671 229.745 406.367C229.761 406.655 229.769 406.867 229.769 407.003C229.769 407.131 229.761 407.347 229.745 407.651C229.705 408.347 229.509 408.983 229.157 409.559C228.813 410.127 228.349 410.575 227.765 410.903C227.189 411.231 226.545 411.395 225.833 411.395ZM225.833 408.959C226.241 408.959 226.569 408.831 226.817 408.575C227.073 408.319 227.217 407.995 227.249 407.603C227.265 407.363 227.273 407.163 227.273 407.003C227.273 406.835 227.265 406.639 227.249 406.415C227.217 406.023 227.073 405.699 226.817 405.443C226.569 405.187 226.241 405.059 225.833 405.059C225.433 405.059 225.105 405.187 224.849 405.443C224.593 405.699 224.449 406.023 224.417 406.415C224.409 406.527 224.405 406.723 224.405 407.003C224.405 407.283 224.409 407.483 224.417 407.603C224.449 407.995 224.593 408.319 224.849 408.575C225.105 408.831 225.433 408.959 225.833 408.959ZM226.025 417.515C225.777 417.515 225.561 417.431 225.377 417.263C225.193 417.087 225.101 416.875 225.101 416.627C225.101 416.355 225.201 416.099 225.401 415.859L234.197 405.599C234.429 405.335 234.721 405.203 235.073 405.203C235.305 405.203 235.509 405.291 235.685 405.467C235.869 405.643 235.961 405.851 235.961 406.091C235.961 406.243 235.937 406.383 235.889 406.511C235.841 406.631 235.765 406.751 235.661 406.871L226.853 417.119C226.637 417.383 226.361 417.515 226.025 417.515ZM235.181 420.095C234.477 420.095 233.833 419.931 233.249 419.603C232.665 419.275 232.197 418.827 231.845 418.259C231.501 417.683 231.309 417.047 231.269 416.351C231.261 416.199 231.257 415.983 231.257 415.703C231.257 415.423 231.261 415.211 231.269 415.067C231.309 414.371 231.501 413.739 231.845 413.171C232.197 412.595 232.665 412.143 233.249 411.815C233.833 411.487 234.477 411.323 235.181 411.323C235.893 411.323 236.541 411.487 237.125 411.815C237.709 412.143 238.173 412.595 238.517 413.171C238.869 413.739 239.065 414.371 239.105 415.067C239.121 415.355 239.129 415.567 239.129 415.703C239.129 415.831 239.121 416.047 239.105 416.351C239.065 417.047 238.869 417.683 238.517 418.259C238.173 418.827 237.709 419.275 237.125 419.603C236.541 419.931 235.893 420.095 235.181 420.095ZM235.181 417.659C235.589 417.659 235.921 417.531 236.177 417.275C236.433 417.019 236.573 416.695 236.597 416.303C236.613 416.079 236.621 415.883 236.621 415.715C236.621 415.539 236.613 415.339 236.597 415.115C236.573 414.723 236.433 414.399 236.177 414.143C235.921 413.887 235.589 413.759 235.181 413.759C234.781 413.759 234.453 413.887 234.197 414.143C233.941 414.399 233.797 414.723 233.765 415.115C233.757 415.227 233.753 415.427 233.753 415.715C233.753 415.995 233.757 416.191 233.765 416.303C233.797 416.695 233.941 417.019 234.197 417.275C234.453 417.531 234.781 417.659 235.181 417.659Z" fill="white"/>
<path d="M236.552 122.271C237.648 122.271 238.6 122.495 239.408 122.943C240.216 123.383 240.832 123.995 241.256 124.779C241.688 125.563 241.904 126.455 241.904 127.455C241.904 128.495 241.672 129.443 241.208 130.299C240.744 131.155 240.056 131.835 239.144 132.339C238.24 132.843 237.144 133.095 235.856 133.095C233.648 133.095 232.044 132.387 231.044 130.971C230.052 129.547 229.556 127.591 229.556 125.103C229.556 122.007 230.332 119.691 231.884 118.155C233.444 116.611 235.78 115.839 238.892 115.839C239.412 115.839 239.82 115.983 240.116 116.271C240.42 116.551 240.572 116.927 240.572 117.399C240.572 117.879 240.42 118.263 240.116 118.551C239.82 118.831 239.416 118.971 238.904 118.971C237.6 118.971 236.532 119.119 235.7 119.415C234.876 119.703 234.244 120.163 233.804 120.795C233.364 121.427 233.092 122.255 232.988 123.279C234.068 122.607 235.256 122.271 236.552 122.271ZM235.856 129.987C236.68 129.987 237.344 129.763 237.848 129.315C238.352 128.859 238.604 128.239 238.604 127.455C238.604 126.727 238.364 126.147 237.884 125.715C237.412 125.283 236.756 125.067 235.916 125.067C235.332 125.067 234.78 125.147 234.26 125.307C233.74 125.459 233.272 125.671 232.856 125.943C232.856 128.639 233.856 129.987 235.856 129.987ZM250.205 133.083C249.037 133.083 247.997 132.843 247.085 132.363C246.181 131.883 245.457 131.187 244.913 130.275C244.369 129.363 244.049 128.275 243.953 127.011C243.905 126.387 243.881 125.503 243.881 124.359C243.881 123.207 243.905 122.291 243.953 121.611C244.049 120.379 244.365 119.315 244.901 118.419C245.437 117.515 246.157 116.823 247.061 116.343C247.973 115.863 249.021 115.623 250.205 115.623C251.381 115.623 252.421 115.863 253.325 116.343C254.237 116.815 254.961 117.503 255.497 118.407C256.041 119.303 256.357 120.371 256.445 121.611C256.501 122.379 256.529 123.347 256.529 124.515C256.529 125.555 256.505 126.387 256.457 127.011C256.361 128.251 256.045 129.331 255.509 130.251C254.973 131.163 254.249 131.863 253.337 132.351C252.433 132.839 251.389 133.083 250.205 133.083ZM250.193 129.891C251.041 129.891 251.717 129.619 252.221 129.075C252.725 128.523 253.017 127.667 253.097 126.507C253.137 125.923 253.157 125.175 253.157 124.263C253.157 123.431 253.137 122.715 253.097 122.115C252.945 119.915 251.981 118.815 250.205 118.815C248.437 118.815 247.469 119.915 247.301 122.115C247.269 122.539 247.253 123.267 247.253 124.299C247.253 125.323 247.269 126.059 247.301 126.507C247.469 128.763 248.433 129.891 250.193 129.891ZM263.833 124.395C263.129 124.395 262.485 124.231 261.901 123.903C261.317 123.575 260.849 123.127 260.497 122.559C260.153 121.983 259.961 121.347 259.921 120.651C259.913 120.499 259.909 120.283 259.909 120.003C259.909 119.723 259.913 119.511 259.921 119.367C259.961 118.671 260.153 118.039 260.497 117.471C260.849 116.895 261.317 116.443 261.901 116.115C262.485 115.787 263.129 115.623 263.833 115.623C264.537 115.623 265.181 115.787 265.765 116.115C266.349 116.443 266.813 116.895 267.157 117.471C267.509 118.039 267.705 118.671 267.745 119.367C267.761 119.655 267.769 119.867 267.769 120.003C267.769 120.131 267.761 120.347 267.745 120.651C267.705 121.347 267.509 121.983 267.157 122.559C266.813 123.127 266.349 123.575 265.765 123.903C265.189 124.231 264.545 124.395 263.833 124.395ZM263.833 121.959C264.241 121.959 264.569 121.831 264.817 121.575C265.073 121.319 265.217 120.995 265.249 120.603C265.265 120.363 265.273 120.163 265.273 120.003C265.273 119.835 265.265 119.639 265.249 119.415C265.217 119.023 265.073 118.699 264.817 118.443C264.569 118.187 264.241 118.059 263.833 118.059C263.433 118.059 263.105 118.187 262.849 118.443C262.593 118.699 262.449 119.023 262.417 119.415C262.409 119.527 262.405 119.723 262.405 120.003C262.405 120.283 262.409 120.483 262.417 120.603C262.449 120.995 262.593 121.319 262.849 121.575C263.105 121.831 263.433 121.959 263.833 121.959ZM264.025 130.515C263.777 130.515 263.561 130.431 263.377 130.263C263.193 130.087 263.101 129.875 263.101 129.627C263.101 129.355 263.201 129.099 263.401 128.859L272.197 118.599C272.429 118.335 272.721 118.203 273.073 118.203C273.305 118.203 273.509 118.291 273.685 118.467C273.869 118.643 273.961 118.851 273.961 119.091C273.961 119.243 273.937 119.383 273.889 119.511C273.841 119.631 273.765 119.751 273.661 119.871L264.853 130.119C264.637 130.383 264.361 130.515 264.025 130.515ZM273.181 133.095C272.477 133.095 271.833 132.931 271.249 132.603C270.665 132.275 270.197 131.827 269.845 131.259C269.501 130.683 269.309 130.047 269.269 129.351C269.261 129.199 269.257 128.983 269.257 128.703C269.257 128.423 269.261 128.211 269.269 128.067C269.309 127.371 269.501 126.739 269.845 126.171C270.197 125.595 270.665 125.143 271.249 124.815C271.833 124.487 272.477 124.323 273.181 124.323C273.893 124.323 274.541 124.487 275.125 124.815C275.709 125.143 276.173 125.595 276.517 126.171C276.869 126.739 277.065 127.371 277.105 128.067C277.121 128.355 277.129 128.567 277.129 128.703C277.129 128.831 277.121 129.047 277.105 129.351C277.065 130.047 276.869 130.683 276.517 131.259C276.173 131.827 275.709 132.275 275.125 132.603C274.541 132.931 273.893 133.095 273.181 133.095ZM273.181 130.659C273.589 130.659 273.921 130.531 274.177 130.275C274.433 130.019 274.573 129.695 274.597 129.303C274.613 129.079 274.621 128.883 274.621 128.715C274.621 128.539 274.613 128.339 274.597 128.115C274.573 127.723 274.433 127.399 274.177 127.143C273.921 126.887 273.589 126.759 273.181 126.759C272.781 126.759 272.453 126.887 272.197 127.143C271.941 127.399 271.797 127.723 271.765 128.115C271.757 128.227 271.753 128.427 271.753 128.715C271.753 128.995 271.757 129.191 271.765 129.303C271.797 129.695 271.941 130.019 272.197 130.275C272.453 130.531 272.781 130.659 273.181 130.659Z" fill="white"/>
<path d="M329.731 364.84C330.243 364.84 330.639 364.996 330.919 365.308C331.207 365.62 331.351 366.064 331.351 366.64V380.356C331.351 380.9 331.199 381.328 330.895 381.64C330.591 381.952 330.183 382.108 329.671 382.108C329.159 382.108 328.751 381.952 328.447 381.64C328.143 381.328 327.991 380.9 327.991 380.356V368.98L324.991 370.588C324.591 370.812 324.195 370.924 323.803 370.924C323.571 370.924 323.343 370.856 323.119 370.72C322.895 370.576 322.715 370.388 322.579 370.156C322.443 369.916 322.375 369.66 322.375 369.388C322.375 368.796 322.723 368.312 323.419 367.936L327.919 365.5C328.311 365.276 328.639 365.112 328.903 365.008C329.167 364.896 329.443 364.84 329.731 364.84ZM342.304 382.204C341.136 382.204 340.096 381.964 339.184 381.484C338.28 381.004 337.556 380.308 337.012 379.396C336.468 378.484 336.148 377.396 336.052 376.132C336.004 375.508 335.98 374.624 335.98 373.48C335.98 372.328 336.004 371.412 336.052 370.732C336.148 369.5 336.464 368.436 337 367.54C337.536 366.636 338.256 365.944 339.16 365.464C340.072 364.984 341.12 364.744 342.304 364.744C343.48 364.744 344.52 364.984 345.424 365.464C346.336 365.936 347.06 366.624 347.596 367.528C348.14 368.424 348.456 369.492 348.544 370.732C348.6 371.5 348.628 372.468 348.628 373.636C348.628 374.676 348.604 375.508 348.556 376.132C348.46 377.372 348.144 378.452 347.608 379.372C347.072 380.284 346.348 380.984 345.436 381.472C344.532 381.96 343.488 382.204 342.304 382.204ZM342.292 379.012C343.14 379.012 343.816 378.74 344.32 378.196C344.824 377.644 345.116 376.788 345.196 375.628C345.236 375.044 345.256 374.296 345.256 373.384C345.256 372.552 345.236 371.836 345.196 371.236C345.044 369.036 344.08 367.936 342.304 367.936C340.536 367.936 339.568 369.036 339.4 371.236C339.368 371.66 339.352 372.388 339.352 373.42C339.352 374.444 339.368 375.18 339.4 375.628C339.568 377.884 340.532 379.012 342.292 379.012ZM355.932 373.516C355.228 373.516 354.584 373.352 354 373.024C353.416 372.696 352.948 372.248 352.596 371.68C352.252 371.104 352.06 370.468 352.02 369.772C352.012 369.62 352.008 369.404 352.008 369.124C352.008 368.844 352.012 368.632 352.02 368.488C352.06 367.792 352.252 367.16 352.596 366.592C352.948 366.016 353.416 365.564 354 365.236C354.584 364.908 355.228 364.744 355.932 364.744C356.636 364.744 357.28 364.908 357.864 365.236C358.448 365.564 358.912 366.016 359.256 366.592C359.608 367.16 359.804 367.792 359.844 368.488C359.86 368.776 359.868 368.988 359.868 369.124C359.868 369.252 359.86 369.468 359.844 369.772C359.804 370.468 359.608 371.104 359.256 371.68C358.912 372.248 358.448 372.696 357.864 373.024C357.288 373.352 356.644 373.516 355.932 373.516ZM355.932 371.08C356.34 371.08 356.668 370.952 356.916 370.696C357.172 370.44 357.316 370.116 357.348 369.724C357.364 369.484 357.372 369.284 357.372 369.124C357.372 368.956 357.364 368.76 357.348 368.536C357.316 368.144 357.172 367.82 356.916 367.564C356.668 367.308 356.34 367.18 355.932 367.18C355.532 367.18 355.204 367.308 354.948 367.564C354.692 367.82 354.548 368.144 354.516 368.536C354.508 368.648 354.504 368.844 354.504 369.124C354.504 369.404 354.508 369.604 354.516 369.724C354.548 370.116 354.692 370.44 354.948 370.696C355.204 370.952 355.532 371.08 355.932 371.08ZM356.124 379.636C355.876 379.636 355.66 379.552 355.476 379.384C355.292 379.208 355.2 378.996 355.2 378.748C355.2 378.476 355.3 378.22 355.5 377.98L364.296 367.72C364.528 367.456 364.82 367.324 365.172 367.324C365.404 367.324 365.608 367.412 365.784 367.588C365.968 367.764 366.06 367.972 366.06 368.212C366.06 368.364 366.036 368.504 365.988 368.632C365.94 368.752 365.864 368.872 365.76 368.992L356.952 379.24C356.736 379.504 356.46 379.636 356.124 379.636ZM365.28 382.216C364.576 382.216 363.932 382.052 363.348 381.724C362.764 381.396 362.296 380.948 361.944 380.38C361.6 379.804 361.408 379.168 361.368 378.472C361.36 378.32 361.356 378.104 361.356 377.824C361.356 377.544 361.36 377.332 361.368 377.188C361.408 376.492 361.6 375.86 361.944 375.292C362.296 374.716 362.764 374.264 363.348 373.936C363.932 373.608 364.576 373.444 365.28 373.444C365.992 373.444 366.64 373.608 367.224 373.936C367.808 374.264 368.272 374.716 368.616 375.292C368.968 375.86 369.164 376.492 369.204 377.188C369.22 377.476 369.228 377.688 369.228 377.824C369.228 377.952 369.22 378.168 369.204 378.472C369.164 379.168 368.968 379.804 368.616 380.38C368.272 380.948 367.808 381.396 367.224 381.724C366.64 382.052 365.992 382.216 365.28 382.216ZM365.28 379.78C365.688 379.78 366.02 379.652 366.276 379.396C366.532 379.14 366.672 378.816 366.696 378.424C366.712 378.2 366.72 378.004 366.72 377.836C366.72 377.66 366.712 377.46 366.696 377.236C366.672 376.844 366.532 376.52 366.276 376.264C366.02 376.008 365.688 375.88 365.28 375.88C364.88 375.88 364.552 376.008 364.296 376.264C364.04 376.52 363.896 376.844 363.864 377.236C363.856 377.348 363.852 377.548 363.852 377.836C363.852 378.116 363.856 378.312 363.864 378.424C363.896 378.816 364.04 379.14 364.296 379.396C364.552 379.652 364.88 379.78 365.28 379.78Z" fill="white"/>
<path d="M68.8075 300.867C68.1435 300.867 67.6515 300.695 67.3315 300.351C67.0115 300.007 66.8515 299.559 66.8515 299.007C66.8515 298.167 66.9915 297.411 67.2715 296.739C67.5515 296.067 67.9755 295.439 68.5435 294.855C69.1115 294.263 69.8595 293.639 70.7875 292.983L71.9635 292.179C72.6595 291.723 73.2035 291.339 73.5955 291.027C73.9955 290.715 74.3235 290.367 74.5795 289.983C74.8435 289.599 74.9755 289.183 74.9755 288.735C74.9755 288.151 74.7755 287.675 74.3755 287.307C73.9755 286.931 73.3915 286.743 72.6235 286.743C72.0475 286.743 71.5275 286.847 71.0635 287.055C70.6075 287.255 70.1795 287.563 69.7795 287.979C69.5795 288.179 69.3835 288.331 69.1915 288.435C69.0075 288.539 68.7875 288.591 68.5315 288.591C68.0915 288.591 67.7195 288.447 67.4155 288.159C67.1115 287.871 66.9595 287.491 66.9595 287.019C66.9595 286.571 67.1435 286.151 67.5115 285.759C68.7995 284.335 70.5115 283.623 72.6475 283.623C73.8315 283.623 74.8555 283.835 75.7195 284.259C76.5835 284.683 77.2475 285.283 77.7115 286.059C78.1755 286.827 78.4075 287.727 78.4075 288.759C78.4075 289.535 78.2315 290.247 77.8795 290.895C77.5275 291.535 76.9995 292.159 76.2955 292.767C75.5995 293.375 74.6755 294.043 73.5235 294.771C72.6835 295.323 72.0875 295.731 71.7355 295.995C71.3835 296.259 71.1155 296.523 70.9315 296.787C70.7475 297.043 70.6155 297.363 70.5355 297.747H77.1115C77.6235 297.747 78.0275 297.891 78.3235 298.179C78.6195 298.459 78.7675 298.835 78.7675 299.307C78.7675 299.779 78.6195 300.159 78.3235 300.447C78.0275 300.727 77.6235 300.867 77.1115 300.867H68.8075ZM87.404 301.083C86.236 301.083 85.196 300.843 84.284 300.363C83.38 299.883 82.656 299.187 82.112 298.275C81.568 297.363 81.248 296.275 81.152 295.011C81.104 294.387 81.08 293.503 81.08 292.359C81.08 291.207 81.104 290.291 81.152 289.611C81.248 288.379 81.564 287.315 82.1 286.419C82.636 285.515 83.356 284.823 84.26 284.343C85.172 283.863 86.22 283.623 87.404 283.623C88.58 283.623 89.62 283.863 90.524 284.343C91.436 284.815 92.16 285.503 92.696 286.407C93.24 287.303 93.556 288.371 93.644 289.611C93.7 290.379 93.728 291.347 93.728 292.515C93.728 293.555 93.704 294.387 93.656 295.011C93.56 296.251 93.244 297.331 92.708 298.251C92.172 299.163 91.448 299.863 90.536 300.351C89.632 300.839 88.588 301.083 87.404 301.083ZM87.392 297.891C88.24 297.891 88.916 297.619 89.42 297.075C89.924 296.523 90.216 295.667 90.296 294.507C90.336 293.923 90.356 293.175 90.356 292.263C90.356 291.431 90.336 290.715 90.296 290.115C90.144 287.915 89.18 286.815 87.404 286.815C85.636 286.815 84.668 287.915 84.5 290.115C84.468 290.539 84.452 291.267 84.452 292.299C84.452 293.323 84.468 294.059 84.5 294.507C84.668 296.763 85.632 297.891 87.392 297.891ZM101.032 292.395C100.328 292.395 99.6844 292.231 99.1004 291.903C98.5164 291.575 98.0484 291.127 97.6964 290.559C97.3524 289.983 97.1604 289.347 97.1204 288.651C97.1124 288.499 97.1084 288.283 97.1084 288.003C97.1084 287.723 97.1124 287.511 97.1204 287.367C97.1604 286.671 97.3524 286.039 97.6964 285.471C98.0484 284.895 98.5164 284.443 99.1004 284.115C99.6844 283.787 100.328 283.623 101.032 283.623C101.736 283.623 102.38 283.787 102.964 284.115C103.548 284.443 104.012 284.895 104.356 285.471C104.708 286.039 104.904 286.671 104.944 287.367C104.96 287.655 104.968 287.867 104.968 288.003C104.968 288.131 104.96 288.347 104.944 288.651C104.904 289.347 104.708 289.983 104.356 290.559C104.012 291.127 103.548 291.575 102.964 291.903C102.388 292.231 101.744 292.395 101.032 292.395ZM101.032 289.959C101.44 289.959 101.768 289.831 102.016 289.575C102.272 289.319 102.416 288.995 102.448 288.603C102.464 288.363 102.472 288.163 102.472 288.003C102.472 287.835 102.464 287.639 102.448 287.415C102.416 287.023 102.272 286.699 102.016 286.443C101.768 286.187 101.44 286.059 101.032 286.059C100.632 286.059 100.304 286.187 100.048 286.443C99.7924 286.699 99.6484 287.023 99.6164 287.415C99.6084 287.527 99.6044 287.723 99.6044 288.003C99.6044 288.283 99.6084 288.483 99.6164 288.603C99.6484 288.995 99.7924 289.319 100.048 289.575C100.304 289.831 100.632 289.959 101.032 289.959ZM101.224 298.515C100.976 298.515 100.76 298.431 100.576 298.263C100.392 298.087 100.3 297.875 100.3 297.627C100.3 297.355 100.4 297.099 100.6 296.859L109.396 286.599C109.628 286.335 109.92 286.203 110.272 286.203C110.504 286.203 110.708 286.291 110.884 286.467C111.068 286.643 111.16 286.851 111.16 287.091C111.16 287.243 111.136 287.383 111.088 287.511C111.04 287.631 110.964 287.751 110.86 287.871L102.052 298.119C101.836 298.383 101.56 298.515 101.224 298.515ZM110.38 301.095C109.676 301.095 109.032 300.931 108.448 300.603C107.864 300.275 107.396 299.827 107.044 299.259C106.7 298.683 106.508 298.047 106.468 297.351C106.46 297.199 106.456 296.983 106.456 296.703C106.456 296.423 106.46 296.211 106.468 296.067C106.508 295.371 106.7 294.739 107.044 294.171C107.396 293.595 107.864 293.143 108.448 292.815C109.032 292.487 109.676 292.323 110.38 292.323C111.092 292.323 111.74 292.487 112.324 292.815C112.908 293.143 113.372 293.595 113.716 294.171C114.068 294.739 114.264 295.371 114.304 296.067C114.32 296.355 114.328 296.567 114.328 296.703C114.328 296.831 114.32 297.047 114.304 297.351C114.264 298.047 114.068 298.683 113.716 299.259C113.372 299.827 112.908 300.275 112.324 300.603C111.74 300.931 111.092 301.095 110.38 301.095ZM110.38 298.659C110.788 298.659 111.12 298.531 111.376 298.275C111.632 298.019 111.772 297.695 111.796 297.303C111.812 297.079 111.82 296.883 111.82 296.715C111.82 296.539 111.812 296.339 111.796 296.115C111.772 295.723 111.632 295.399 111.376 295.143C111.12 294.887 110.788 294.759 110.38 294.759C109.98 294.759 109.652 294.887 109.396 295.143C109.14 295.399 108.996 295.723 108.964 296.115C108.956 296.227 108.952 296.427 108.952 296.715C108.952 296.995 108.956 297.191 108.964 297.303C108.996 297.695 109.14 298.019 109.396 298.275C109.652 298.531 109.98 298.659 110.38 298.659Z" fill="white"/>
</g>
</svg>
