<svg width="295" height="25" viewBox="0 0 295 25" fill="none" xmlns="http://www.w3.org/2000/svg">
<g clip-path="url(#clip0_1_307)">
<path d="M226.42 15.1029V-0.00060463H221.317V24.996H226.136L233.716 9.89242V24.996H238.82V-0.00060463H234L226.42 15.1029Z" fill="#921438"/>
<path d="M242.218 -0.000608444V4.82294H250.891V9.97953H244.43V14.8031H250.891V20.1733H242.178V24.9987H252.41L256.007 21.3822V15.3303L253.048 12.3562L256.007 9.38213V3.61317L252.41 -0.000608444H242.218Z" fill="#921438"/>
<path d="M289.884 20.1724H284.723V13.1718H289.884V20.1724ZM291.232 8.34764H284.723V-0.000417709H279.608V24.9969H291.405L295.001 21.3835V11.9625L291.232 8.34764Z" fill="#921438"/>
<path d="M218.59 -0.00060463H213.347L210.083 9.96705H208.273V-0.00060463H203.157V9.96705H201.347L198.084 -0.00060463H192.84L197.081 12.2152L192.797 24.996H198.088L201.377 14.7908H203.157V24.996H208.273V14.7908H210.053L213.342 24.996H218.633L214.349 12.2152L218.59 -0.00060463Z" fill="#921438"/>
<path d="M270.71 10.2146H264.471V-0.00060463H259.355V7.74348V16.9691V24.996H264.471V15.0494H270.71V24.996H275.826V-0.00060463H270.71V10.2146Z" fill="#921438"/>
<path d="M53.3075 24.9984H58.4236V4.82407H64.9284V0.000471115H53.3075V24.9984Z" fill="#42464A"/>
<path d="M115.139 4.82407H120.254V24.9984H125.37V4.82407H130.483V0.000471115H115.139V4.82407Z" fill="#42464A"/>
<path d="M10.1624 13.8258H5.00119V4.82534H10.1624V13.8258ZM0 0.000658035V24.9984H5.00119V18.65H11.5098L15.2789 15.0353V3.61444L11.6833 0.000658035H0Z" fill="#42464A"/>
<path d="M182.645 12.1825L186.281 0.000469208H181.154L178.388 9.44447H177.466L174.7 0.000469208H169.572L173.218 12.2352L169.523 24.9978H174.579L177.513 15.1401H178.34L181.278 24.9978H186.33L182.645 12.1825Z" fill="#42464A"/>
<path d="M29.3129 20.1746H23.3162V4.82445H29.3129V20.1746ZM21.7942 0.000658035L18.1984 3.61444V21.3829L21.7966 24.9984H30.8287L34.4308 21.3829V3.61444L30.8287 0.000658035H21.7942Z" fill="#42464A"/>
<path d="M42.7835 4.82407H50.0343V0.000473022H41.2638L37.6675 3.61426V21.3829L41.2638 25.0002H50.0749V20.1746H42.7835V4.82407Z" fill="#42464A"/>
<path d="M77.5988 20.1746H71.6018V4.82445H77.5988V20.1746ZM70.0796 0.000658035L66.4842 3.61444V21.3829L70.0819 24.9984H79.1144L82.7164 21.3829V3.61444L79.1144 0.000658035H70.0796Z" fill="#42464A"/>
<path d="M143.308 13.8258H138.146V4.82534H143.308V13.8258ZM133.145 0.000658035V24.9984H138.146V18.65H144.655L148.424 15.0353V3.61444L144.828 0.000658035H133.145Z" fill="#42464A"/>
<path d="M91.0688 4.82407H98.3199V0.000473022H89.5495L85.9531 3.61426V21.3835L89.5495 25.0002H98.3606V20.1746H91.0688V4.82407Z" fill="#42464A"/>
<path d="M105.935 4.82407H113.186V0.000473022H104.416L100.819 3.61426V21.3835L104.416 25.0002H113.227V20.1746H105.935V4.82407Z" fill="#42464A"/>
<path d="M156.465 14.3431L158.32 4.82407H159.297L161.152 14.3431H156.465ZM163.229 24.9974H168.377L163.243 0.000471115H154.501L149.367 24.9974H154.388L155.55 19.0392H162.068L163.229 24.9974Z" fill="#42464A"/>
</g>
<defs>
<clipPath id="clip0_1_307">
<rect width="295" height="25" fill="white"/>
</clipPath>
</defs>
</svg>
