<svg width="1268" height="404" viewBox="0 0 1268 404" fill="none" xmlns="http://www.w3.org/2000/svg">
<path opacity="0.02" d="M747.287 134.741L648.026 151.214C631.984 153.959 620.955 168.601 623.963 183.243C626.971 197.885 643.013 207.951 659.055 205.206L758.316 188.734C782.379 185.073 796.416 197.885 802.432 210.697C808.448 224.423 807.445 242.726 787.393 254.622L641.008 340.643C627.974 348.88 610.929 348.88 596.892 342.474C582.855 335.153 573.831 322.341 573.831 307.699V95.3912C573.831 59.7015 553.779 28.5874 519.689 12.1152C485.599 -4.35696 446.497 -3.4419 413.41 15.7756L46.4454 232.659C5.33741 257.368 -10.7047 301.293 7.34274 343.389C25.3902 385.485 70.5085 407.447 118.635 400.126L439.478 347.965C455.52 345.219 466.55 330.577 463.542 315.935C460.534 301.293 444.492 291.227 428.449 293.973L107.606 346.134C83.543 349.795 69.5059 336.983 63.49 324.171C57.4742 310.445 58.4769 292.142 78.5296 280.246L446.497 63.362C459.531 55.1259 476.576 55.1258 490.613 61.5317C504.649 68.8526 513.673 81.6645 513.673 96.3064V308.614C513.673 344.304 533.726 375.418 567.816 391.89C583.858 400.126 600.903 403.787 617.947 403.787C636.997 403.787 657.05 398.296 674.095 388.23L820.479 302.209C861.587 277.5 877.63 233.574 859.582 191.479C840.532 149.383 795.414 126.505 747.287 134.741ZM1260.64 191.479C1242.59 149.383 1197.47 127.42 1149.34 134.741L1050.08 151.214C1034.04 153.959 1023.01 168.601 1026.02 183.243C1029.03 197.885 1045.07 207.951 1061.11 205.206L1160.37 188.734C1184.44 185.073 1198.47 197.885 1204.49 210.697C1210.5 224.423 1209.5 242.726 1189.45 254.622L1043.06 340.643C1029.03 348.88 1012.99 348.88 998.949 342.474C984.912 335.153 975.888 322.341 975.888 307.699V27.6724C975.888 12.1153 961.851 0.21875 945.809 0.21875C928.764 0.21875 915.73 13.0304 915.73 27.6724V307.699C915.73 343.389 935.783 374.503 969.872 390.975C985.914 399.211 1002.96 402.872 1020 402.872C1039.05 402.872 1059.11 397.381 1076.15 387.315L1222.54 301.293C1262.64 277.5 1278.68 232.659 1260.64 191.479Z" fill="white"/>
</svg>
