<svg width="85" height="63" viewBox="0 0 85 63" fill="none" xmlns="http://www.w3.org/2000/svg">
<g clip-path="url(#clip0_71_4372)">
<path d="M8.41723 8.50614L5.72176 1.19873C5.42174 0.367913 4.98511 0 4.26788 0C3.554 0 3.10933 0.367913 2.80931 1.19873L0.102461 8.51015C0.0154027 8.74562 0 8.87405 0 8.97305C0 9.32156 0.280597 9.61054 0.671691 9.61054C0.98711 9.61054 1.22619 9.45535 1.35878 9.06068L2.23205 6.59968H6.27893L7.15622 9.06871C7.28948 9.45535 7.53258 9.61121 7.83996 9.61121C8.23507 9.61121 8.51567 9.3229 8.51567 8.96636C8.51567 8.83258 8.48955 8.71083 8.41723 8.50614ZM2.6727 5.35881L4.05425 1.46429C4.10783 1.32382 4.15269 1.27833 4.25583 1.27833C4.35427 1.27833 4.40383 1.32382 4.44936 1.46429L5.83494 5.35881H2.6727ZM15.5647 8.40379L13.1124 5.90065L15.4623 3.64434C15.6518 3.45838 15.7509 3.27241 15.7509 3.04899C15.7509 2.68844 15.4964 2.42287 15.1167 2.42287C14.9004 2.42287 14.7256 2.50649 14.5321 2.70717L12.1936 4.98354C11.8781 5.2946 11.8447 5.31333 11.5179 5.31333H11.3169V3.13261C11.3169 2.68108 11.0551 2.42287 10.6486 2.42287C10.2388 2.42287 9.97624 2.68108 9.97624 3.13261V8.86669C9.97624 9.31421 10.2388 9.57576 10.6486 9.57576C11.0544 9.57576 11.3169 9.31421 11.3169 8.86669V6.60637H11.5259C11.9398 6.60637 11.9659 6.61038 12.2625 6.91341L14.5749 9.32157C14.7685 9.53027 14.962 9.60987 15.1823 9.60987C15.558 9.60987 15.8125 9.36304 15.8125 8.9958C15.8112 8.79846 15.7395 8.59778 15.5647 8.40379ZM21.9676 9.549H24.8338C26.6788 9.549 27.7683 8.47938 27.7683 6.58296C27.7683 4.78152 26.6788 3.7808 24.8338 3.7808H22.2823V1.36529H26.5649C26.9975 1.36529 27.2822 1.1111 27.2822 0.70171C27.2822 0.315067 26.9975 0.0608728 26.5649 0.0608728H21.9669C21.2831 0.0608728 20.9001 0.432799 20.9001 1.12247V8.48339C20.9008 9.17373 21.2838 9.549 21.9676 9.549ZM22.2823 8.25194V5.00963H24.6891C25.847 5.00963 26.356 5.60097 26.356 6.61038C26.356 7.64188 25.847 8.25261 24.6891 8.25261H22.2823V8.25194ZM31.8306 9.67811C33.182 9.67811 34.2147 9.22323 34.6245 8.93894C34.8107 8.80582 34.879 8.68474 34.879 8.42653V4.93003C34.879 3.17074 33.8611 2.36267 32.0998 2.36267C31.2949 2.36267 30.5582 2.56335 30.1029 2.75667C29.7345 2.9045 29.5711 3.11722 29.5792 3.40553C29.5792 3.73933 29.8336 3.9855 30.1484 3.9855C30.3038 3.9855 30.4712 3.92864 30.65 3.85305C30.9574 3.7313 31.4737 3.5915 31.99 3.5915C33.1104 3.5915 33.5805 4.02028 33.5805 4.9113V5.49929C32.9242 5.32068 32.3999 5.24509 31.7958 5.24509C29.9997 5.24509 29.1157 6.26923 29.1157 7.40307C29.1164 8.71083 30.1069 9.67811 31.8306 9.67811ZM31.9559 8.54092C30.9915 8.54092 30.4029 8.12351 30.4029 7.40307C30.4029 6.75086 30.9118 6.2505 31.9518 6.2505C32.495 6.2505 32.9698 6.3301 33.5805 6.51205V8.13889C33.1365 8.36967 32.5331 8.54092 31.9559 8.54092ZM42.873 5.04375C42.725 3.45102 41.5939 2.36267 39.8246 2.36267C38.5978 2.36267 37.5845 2.80282 37.178 3.04565C36.874 3.22358 36.8365 3.37142 36.8365 3.87245V11.2561C36.8365 11.7036 37.0983 11.9652 37.5048 11.9652C37.9227 11.9652 38.1805 11.7036 38.1805 11.2561V9.29548C38.6172 9.50753 39.2889 9.67877 39.9311 9.67877C41.5939 9.67877 42.7176 8.57905 42.873 6.99368C42.9185 6.45854 42.9185 5.57889 42.873 5.04375ZM41.533 6.80371C41.4459 7.74422 40.8573 8.3777 39.7831 8.3777C39.2286 8.3777 38.5228 8.20311 38.1805 7.9643V4.07313C38.5221 3.82629 39.2286 3.65237 39.7831 3.65237C40.8573 3.65237 41.454 4.28986 41.533 5.23372C41.5785 5.69997 41.5785 6.30268 41.533 6.80371ZM45.8055 5.23372C45.8926 4.29722 46.5228 3.65973 47.5675 3.65973C48.3041 3.65973 48.8546 4.04637 49.1165 4.63035C49.2383 4.83103 49.4051 5.02435 49.7131 5.02435C50.1002 5.03237 50.3621 4.78152 50.3621 4.40224C50.3621 4.20892 50.2904 4.00824 50.1685 3.77278C49.7513 2.9841 48.8399 2.362 47.5487 2.362C45.7988 2.362 44.6256 3.46507 44.4816 5.0511C44.4247 5.57822 44.4247 6.45051 44.4816 6.97763C44.6256 8.56634 45.7988 9.67811 47.5487 9.67811C48.8399 9.67811 49.7513 9.05199 50.1685 8.25596C50.2944 8.02451 50.3621 7.82383 50.3621 7.62984C50.3621 7.25457 50.1002 7.00037 49.7131 7.00372C49.4051 7.01108 49.2303 7.20105 49.1165 7.40574C48.862 7.97501 48.3041 8.36901 47.5675 8.36901C46.5154 8.36901 45.8926 7.73553 45.8055 6.80304C45.764 6.3107 45.764 5.72673 45.8055 5.23372Z" fill="white"/>
<path d="M7.5854 24.921L3.17756 20.8098L7.45683 16.7821C7.5854 16.6604 7.62759 16.5701 7.62759 16.4336C7.62759 16.2396 7.49098 16.0543 7.24387 16.0543C7.12265 16.0543 7.02354 16.0998 6.92108 16.1948L2.69941 20.2037C2.43421 20.4572 2.42618 20.4572 1.92526 20.4572V16.4831C1.92526 16.2062 1.77659 16.0543 1.52211 16.0543C1.26763 16.0543 1.11963 16.2062 1.11963 16.4831V25.2361C1.11963 25.509 1.26763 25.6649 1.52211 25.6649C1.77659 25.6649 1.92459 25.5097 1.92459 25.2361V21.2466C2.4523 21.2466 2.45966 21.2466 2.68802 21.4626L7.05033 25.5244C7.14877 25.6194 7.25525 25.6649 7.39187 25.6649C7.61956 25.6649 7.76823 25.4829 7.76823 25.2816C7.76823 25.1411 7.70729 25.0347 7.5854 24.921ZM11.5392 25.7251C12.8525 25.7251 13.859 25.2548 14.2193 24.9892C14.3519 24.8869 14.3941 24.8147 14.3941 24.6253V20.9583C14.3941 19.32 13.4371 18.5501 11.8807 18.5501C11.0718 18.5501 10.2594 18.7775 9.83821 18.9709C9.58373 19.0846 9.46252 19.1909 9.46989 19.3996C9.47725 19.6003 9.63731 19.7676 9.83085 19.7676C9.92594 19.7676 10.0472 19.7294 10.161 19.6726C10.4952 19.5288 11.1515 19.3274 11.7937 19.3274C13.0272 19.3274 13.6159 19.8358 13.6159 20.9997V21.6673C12.8263 21.4399 12.2759 21.3603 11.6075 21.3603C9.86433 21.3603 8.96495 22.365 8.96495 23.5142C8.96495 24.8682 9.98621 25.7251 11.5392 25.7251ZM11.6604 24.9478C10.4269 24.9478 9.74312 24.424 9.74312 23.529C9.74312 22.7249 10.3465 22.1222 11.6604 22.1222C12.302 22.1222 12.837 22.2172 13.6159 22.444V24.4387C13.0728 24.7351 12.3361 24.9478 11.6604 24.9478ZM21.5851 18.6712H17.4578C16.8692 18.6712 16.6984 18.8384 16.6984 19.4257V25.2475C16.6984 25.5164 16.8384 25.6649 17.0889 25.6649C17.336 25.6649 17.4766 25.517 17.4766 25.2475V19.4338H21.565V25.2475C21.565 25.5164 21.7056 25.6649 21.9528 25.6649C22.1992 25.6649 22.3398 25.517 22.3398 25.2475V19.4257C22.3405 18.8384 22.1731 18.6712 21.5851 18.6712ZM29.9755 18.6103C29.6454 18.6103 29.4518 18.811 29.1552 19.2592L25.5335 24.7652H25.5068C25.5335 23.9838 25.5449 22.1563 25.5449 20.8098V19.0237C25.5449 18.7581 25.405 18.6103 25.1578 18.6103C24.9074 18.6103 24.7668 18.7581 24.7668 19.0237V25.0006C24.7668 25.4294 25.0286 25.6642 25.3782 25.6642C25.7197 25.6642 25.8757 25.4555 26.1905 24.9812L29.8202 19.4599H29.8624C29.8356 20.4646 29.8356 21.4733 29.8356 22.551V25.2475C29.8356 25.5164 29.9755 25.6649 30.2227 25.6649C30.4698 25.6649 30.6097 25.517 30.6097 25.2475V19.2786C30.6097 18.8498 30.3358 18.6103 29.9755 18.6103ZM38.3425 18.6712H32.7386C32.4239 18.6712 32.2719 18.8036 32.2719 19.0505C32.2719 19.3006 32.4239 19.4338 32.7386 19.4338H35.1535V25.2475C35.1535 25.5164 35.2935 25.6649 35.5406 25.6649C35.7877 25.6649 35.9277 25.517 35.9277 25.2475V19.4338H38.3425C38.658 19.4338 38.8093 19.3006 38.8093 19.0505C38.8093 18.8036 38.658 18.6712 38.3425 18.6712ZM42.5006 25.7251C43.8145 25.7251 44.8204 25.2548 45.1813 24.9892C45.3139 24.8869 45.3561 24.8147 45.3561 24.6253V20.9583C45.3561 19.32 44.3991 18.5501 42.8421 18.5501C42.0338 18.5501 41.2215 18.7775 40.7996 18.9709C40.5451 19.0846 40.4239 19.1909 40.4313 19.3996C40.4386 19.6003 40.5987 19.7676 40.7922 19.7676C40.8873 19.7676 41.0085 19.7294 41.1224 19.6726C41.4566 19.5288 42.1135 19.3274 42.7551 19.3274C43.9893 19.3274 44.5779 19.8358 44.5779 20.9997V21.6673C43.7877 21.4399 43.2372 21.3603 42.5689 21.3603C40.8264 21.3603 39.927 22.365 39.927 23.5142C39.9263 24.8682 40.9476 25.7251 42.5006 25.7251ZM42.6225 24.9478C41.3882 24.9478 40.7052 24.424 40.7052 23.529C40.7052 22.7249 41.3086 22.1222 42.6225 22.1222C43.264 22.1222 43.7991 22.2172 44.5779 22.444V24.4387C44.0342 24.7351 43.2975 24.9478 42.6225 24.9478ZM52.3275 18.6712H49.2376C48.6489 18.6712 48.4815 18.8384 48.4815 19.4257V21.4205C48.4815 23.5704 48.227 24.3518 47.3277 24.8601C47.0651 25.008 46.9245 25.0615 46.9245 25.3043C46.9245 25.5511 47.1067 25.6649 47.3009 25.6649C47.4757 25.6649 47.6879 25.5585 47.7978 25.4976C48.9101 24.8682 49.2563 23.6962 49.2563 21.5001V19.4338H52.3047V25.2475C52.3047 25.5164 52.4454 25.6649 52.6958 25.6649C52.9429 25.6649 53.0836 25.517 53.0836 25.2475V19.4257C53.0836 18.8384 52.9161 18.6712 52.3275 18.6712Z" fill="white"/>
<path d="M50.2242 43.3429L43.585 44.5349C42.484 44.7329 41.7514 45.7852 41.9503 46.8849C42.1478 47.9853 43.2026 48.7164 44.3022 48.5184L50.9414 47.3264C52.5219 47.0414 53.4963 47.9859 53.8847 48.9633C54.2704 49.9406 54.2041 51.2945 52.8574 52.1661L43.1108 58.4735C42.2068 59.0581 41.1045 59.1002 40.1589 58.5872C39.214 58.0741 38.6494 57.1256 38.6494 56.0513V40.5253C38.6494 37.9433 37.2933 35.6662 35.0231 34.4334C32.7529 33.2005 30.1023 33.3029 27.9332 34.7056L3.42417 50.566C0.666423 52.3507 -0.374932 55.6011 0.832504 58.6541C2.04061 61.7064 5.02471 63.366 8.25927 62.7874L29.661 58.9437C30.7619 58.7457 31.4945 57.6941 31.2963 56.5938C31.0988 55.494 30.0447 54.7616 28.9444 54.9602L7.54271 58.8039C5.96025 59.0869 4.98721 58.143 4.60013 57.1664C4.21373 56.1891 4.28069 54.8345 5.62742 53.9628L30.1358 38.1018C31.0378 37.5178 32.1421 37.475 33.0877 37.9888C34.0326 38.5018 34.5972 39.4504 34.5972 40.5253V56.0513C34.5972 58.6327 35.9526 60.9097 38.2228 62.1425C39.2776 62.7152 40.4147 62.9995 41.5465 62.9995C42.8517 62.9995 44.1515 62.6222 45.3134 61.8703L55.06 55.5629C57.817 53.7782 58.8591 50.5286 57.651 47.4755C56.4429 44.4225 53.4554 42.7636 50.2242 43.3429ZM84.5032 47.4755C83.2951 44.4232 80.3096 42.7616 77.0771 43.3429L70.4379 44.5349C69.3356 44.7329 68.6043 45.7852 68.8025 46.8849C69.0001 47.9853 70.0528 48.7164 71.1544 48.5184L77.7936 47.3264C79.3734 47.0414 80.3492 47.9859 80.7362 48.9633C81.1233 49.9406 81.0563 51.2945 79.7096 52.1661L69.9637 58.4735C69.0583 59.0581 67.956 59.1002 67.0118 58.5872C66.0662 58.0741 65.5016 57.1256 65.5016 56.0513V35.6107C65.5016 34.4936 64.5949 33.5879 63.4759 33.5879C62.3575 33.5879 61.4507 34.4936 61.4507 35.6107V56.0513C61.4507 58.6327 62.8055 60.9097 65.0771 62.1425C66.1311 62.7152 67.2676 62.9995 68.4007 62.9995C69.7052 62.9995 71.0058 62.6222 72.167 61.8703L81.9129 55.5629C84.6699 53.7789 85.7106 50.5286 84.5032 47.4755Z" fill="#00A94F"/>
</g>
<defs>
<clipPath id="clip0_71_4372">
<rect width="85" height="63" fill="white"/>
</clipPath>
</defs>
</svg>
