<svg width="56" height="56" viewBox="0 0 56 56" fill="none" xmlns="http://www.w3.org/2000/svg">
<circle cx="28" cy="28" r="28" fill="#00B2A9"/>
<circle cx="28" cy="28" r="24" fill="white"/>
<path d="M30.856 26.6513L28.3466 27.097C27.9305 27.171 27.6536 27.5644 27.7288 27.9755C27.8034 28.3869 28.2021 28.6602 28.6177 28.5862L31.1271 28.1406C31.7244 28.034 32.0927 28.3871 32.2395 28.7525C32.3853 29.1179 32.3602 29.6241 31.8512 29.9499L28.1674 32.3079C27.8257 32.5265 27.4091 32.5423 27.0517 32.3505C26.6945 32.1586 26.4812 31.804 26.4812 31.4024V25.598C26.4812 24.6327 25.9686 23.7814 25.1106 23.3205C24.2525 22.8596 23.2507 22.8978 22.4309 23.4223L13.1674 29.3517C12.1251 30.0189 11.7315 31.2341 12.1879 32.3755C12.6445 33.5166 13.7724 34.137 14.9949 33.9207L23.0839 32.4837C23.5 32.4097 23.7769 32.0166 23.702 31.6052C23.6273 31.1941 23.2289 30.9202 22.8131 30.9945L14.7241 32.4315C14.126 32.5373 13.7582 32.1844 13.6119 31.8193C13.4658 31.4539 13.4911 30.9475 14.0002 30.6216L23.2633 24.6919C23.6043 24.4736 24.0217 24.4576 24.3791 24.6497C24.7362 24.8415 24.9496 25.1961 24.9496 25.598V31.4024C24.9496 32.3675 25.4619 33.2187 26.3199 33.6796C26.7186 33.8937 27.1484 34 27.5761 34C28.0695 34 28.5607 33.859 28.9999 33.5779L32.6837 31.2198C33.7258 30.5526 34.1196 29.3377 33.663 28.1963C33.2064 27.055 32.0772 26.4347 30.856 26.6513ZM43.8121 28.1963C43.3555 27.0552 42.2271 26.434 41.0053 26.6513L38.4959 27.097C38.0793 27.171 37.8029 27.5644 37.8778 27.9755C37.9525 28.3869 38.3504 28.6602 38.7668 28.5862L41.2761 28.1406C41.8732 28.034 42.242 28.3871 42.3883 28.7525C42.5346 29.1179 42.5093 29.6241 42.0003 29.9499L38.3167 32.3079C37.9745 32.5265 37.5579 32.5423 37.201 32.3505C36.8436 32.1586 36.6302 31.804 36.6302 31.4024V23.7606C36.6302 23.343 36.2875 23.0044 35.8646 23.0044C35.4419 23.0044 35.0992 23.343 35.0992 23.7606V31.4024C35.0992 32.3675 35.6112 33.2187 36.4698 33.6796C36.8682 33.8937 37.2977 34 37.726 34C38.219 34 38.7106 33.859 39.1495 33.5779L42.833 31.2198C43.8751 30.5529 44.2684 29.3377 43.8121 28.1963Z" fill="#00A94F"/>
</svg>
