<?xml version="1.0" encoding="utf-8"?><svg viewBox="0 0 24 22" xmlns="http://www.w3.org/2000/svg" xmlns:xlink="http://www.w3.org/1999/xlink"><style>:root>svg{display:none}:root>svg:target{display:block}</style><svg viewBox="0 0 16 10" id="arrow-down" xmlns="http://www.w3.org/2000/svg"><path d="M1 1l7 7 7-7"/></svg><svg viewBox="0 0 20 20" id="fb" xmlns="http://www.w3.org/2000/svg"><path clip-rule="evenodd" d="M18.89 0H1.111C.497 0-.001.498-.001 1.11v17.78c0 .613.498 1.11 1.112 1.11h9.571v-7.733H8.086V9.238h2.596V7.017c0-2.584 1.579-3.992 3.89-3.992a21.49 21.49 0 012.327.12v2.688h-1.594c-1.253 0-1.498.598-1.498 1.473v1.927h2.998l-.389 3.028h-2.609V20h5.081a1.11 1.11 0 001.111-1.11V1.11A1.11 1.11 0 0018.889 0"/></svg><svg viewBox="0 0 22 22" id="inst" xmlns="http://www.w3.org/2000/svg"><path clip-rule="evenodd" d="M11 0c2.987 0 3.361.013 4.535.066 1.171.053 1.97.24 2.67.511a5.4 5.4 0 011.949 1.27 5.39 5.39 0 011.268 1.948c.273.7.459 1.499.512 2.67C21.987 7.638 22 8.013 22 11s-.013 3.361-.066 4.535c-.053 1.171-.24 1.97-.512 2.67a5.4 5.4 0 01-1.268 1.949 5.4 5.4 0 01-1.949 1.268c-.7.273-1.499.459-2.67.512C14.36 21.987 13.987 22 11 22s-3.362-.013-4.536-.066c-1.17-.053-1.97-.24-2.669-.512a5.392 5.392 0 01-1.949-1.268 5.399 5.399 0 01-1.268-1.949c-.273-.7-.459-1.499-.512-2.67C.013 14.36 0 13.987 0 11s.013-3.362.066-4.536c.053-1.17.24-1.97.511-2.669.276-.734.71-1.4 1.27-1.949A5.391 5.391 0 013.795.578c.7-.273 1.499-.459 2.67-.512C7.637.013 8.012 0 11 0zm0 1.982c-2.937 0-3.285.01-4.445.064-1.072.05-1.655.228-2.042.379-.514.2-.88.438-1.265.823a3.39 3.39 0 00-.823 1.265c-.15.387-.33.97-.379 2.042-.053 1.16-.064 1.508-.064 4.445 0 2.937.01 3.284.064 4.445.049 1.072.228 1.654.379 2.042.2.514.438.88.823 1.265.385.385.75.624 1.265.823.387.15.97.33 2.042.379 1.16.053 1.507.064 4.445.064 2.937 0 3.284-.01 4.445-.064 1.072-.05 1.654-.228 2.042-.38a3.4 3.4 0 001.265-.822 3.4 3.4 0 00.823-1.265c.15-.387.33-.97.379-2.042.053-1.16.064-1.508.064-4.445 0-2.937-.01-3.285-.064-4.445-.05-1.072-.228-1.655-.38-2.042a3.393 3.393 0 00-.822-1.265 3.414 3.414 0 00-1.265-.823c-.387-.15-.97-.33-2.042-.379-1.16-.053-1.508-.064-4.445-.064zm0 12.685a3.667 3.667 0 100-7.333 3.667 3.667 0 000 7.333zm0-9.316a5.649 5.649 0 110 11.298A5.649 5.649 0 0111 5.35zm7.192-.223a1.32 1.32 0 11-2.64 0 1.32 1.32 0 012.64 0z"/></svg><svg viewBox="0 0 13 22" id="ok" xmlns="http://www.w3.org/2000/svg"><path clip-rule="evenodd" d="M6.5 8.058a2.356 2.356 0 100-4.713 2.356 2.356 0 000 4.713zM6.5 0a5.701 5.701 0 110 11.402A5.701 5.701 0 016.5 0zm2.014 15.938l3.445 3.415a1.552 1.552 0 01-2.191 2.194L6.424 18.29l-3.038 3.236a1.549 1.549 0 01-2.64-1.358c.056-.299.197-.575.408-.794l3.27-3.418C2.078 15.502.654 14.393.58 14.335a1.55 1.55 0 011.94-2.419c.014.011 1.503 1.13 3.904 1.132 2.4-.002 3.858-1.12 3.873-1.132a1.55 1.55 0 011.939 2.419c-.072.058-1.44 1.139-3.722 1.603zm-2.09-2.89c.003 0-.004 0 0 0 .003 0-.004 0 0 0z"/></svg><svg viewBox="0 0 18 18" id="search" xmlns="http://www.w3.org/2000/svg"><path opacity=".6" clip-rule="evenodd" d="M8.346 1a7.346 7.346 0 100 14.692A7.346 7.346 0 008.346 1zM0 8.346a8.346 8.346 0 1114.59 5.539l3.262 3.262a.5.5 0 01-.707.707l-3.262-3.262A8.346 8.346 0 010 8.346zm8.347-3.86a3.859 3.859 0 00-3.859 3.86.5.5 0 01-1 0 4.859 4.859 0 014.86-4.86.5.5 0 010 1z"/></svg><svg viewBox="0 0 19 19" id="tel" xmlns="http://www.w3.org/2000/svg"><g clip-path="url(#fclip0_71_4392)"><path d="M5.065 13.482l2.172 2.171c1.628 1.629 6.876 4.886 10.495 1.267.724-.724.814-1.629.814-2.262A1.654 1.654 0 0017.37 13.3l-2.986-.724a1.592 1.592 0 00-1.719.633l-.362.543c-.724.724-1.9.724-2.624 0l-2.442-2.352-1.9-1.9c-.815-.815-.815-1.99-.091-2.715l.543-.361c.543-.453.724-1.086.633-1.81l-.724-2.986A1.654 1.654 0 004.341.453c-.633 0-1.538.09-2.262.814-3.619 3.62-.271 8.958 1.267 10.496l1.72 1.719z"/><path d="M10.403 2.172c1.629.09 3.258.724 4.524 1.9 1.267 1.267 1.9 2.895 1.9 4.524M9.137 5.158a3.926 3.926 0 013.619 1.086 3.926 3.926 0 011.085 3.619"/></g><defs><clipPath id="fclip0_71_4392"><path d="M0 0h19v19H0z"/></clipPath></defs></svg><svg viewBox="0 0 20 17" id="tg" xmlns="http://www.w3.org/2000/svg"><path clip-rule="evenodd" d="M7.493 15.698c-.593 0-.492-.225-.697-.79L5.05 9.164l13.435-7.97L7.493 15.698z"/><path clip-rule="evenodd" d="M7.493 15.698c.458 0 .66-.21.916-.458l2.443-2.376-3.047-1.837"/><mask id="ga" style="mask-type:alpha" maskUnits="userSpaceOnUse" x="0" y="0" width="20" height="17"><path d="M18.578.11L.93 6.916C-.274 7.398-.267 8.071.71 8.37l4.53 1.413L15.723 3.17c.495-.3.949-.139.576.192l-8.495 7.666 7.383 5.455c.27.15.517.226.735.228h.013c.45-.003.77-.334.912-1.01l3.006-14.162C20.099.555 19.653 0 19.057 0c-.153 0-.316.036-.48.11"/></mask><g mask="url(#ga)"><path clip-rule="evenodd" d="M18.578.11L.93 6.916C-.274 7.398-.267 8.071.71 8.37l4.53 1.413L15.723 3.17c.495-.3.949-.139.576.192l-8.495 7.666 7.383 5.455c.27.15.517.226.735.228h.013c.45-.003.77-.334.912-1.01l3.006-14.162C20.099.555 19.653 0 19.057 0c-.153 0-.316.036-.48.11"/></g></svg><svg viewBox="0 0 22 18" id="tw" xmlns="http://www.w3.org/2000/svg"><path clip-rule="evenodd" d="M6.91 17.889c8.302 0 12.845-6.885 12.845-12.845 0-.193 0-.387-.009-.58A9.197 9.197 0 0022 2.121a9.15 9.15 0 01-2.597.713 4.542 4.542 0 001.99-2.5 8.98 8.98 0 01-2.87 1.091A4.506 4.506 0 0015.23 0a4.52 4.52 0 00-4.516 4.516c0 .352.044.696.114 1.03A12.822 12.822 0 011.523.828a4.526 4.526 0 001.4 6.03A4.566 4.566 0 01.88 6.295v.061a4.524 4.524 0 003.619 4.428c-.387.107-.787.16-1.189.159-.29 0-.572-.027-.845-.08a4.514 4.514 0 004.217 3.135 9.054 9.054 0 01-5.608 1.936A8.7 8.7 0 010 15.873a12.841 12.841 0 006.91 2.016z"/></svg><svg viewBox="0 0 24 14" id="vk" xmlns="http://www.w3.org/2000/svg"><path clip-rule="evenodd" d="M22.967.972c.174-.548 0-.947-.773-.947H19.63c-.648 0-.947.35-1.121.722 0 0-1.32 3.189-3.164 5.256-.597.599-.872.797-1.196.797-.174 0-.398-.198-.398-.746V.947c0-.648-.2-.947-.747-.947H8.968c-.398 0-.647.3-.647.598 0 .622.921.772 1.02 2.516v3.787c0 .821-.148.97-.472.97-.872 0-2.99-3.213-4.26-6.875C4.36.274 4.111 0 3.463 0H.87C.123 0-.001.349-.001.723c0 .672.871 4.06 4.06 8.544 2.117 3.064 5.132 4.707 7.847 4.707 1.644 0 1.843-.373 1.843-.996v-2.316c0-.748.15-.872.673-.872.373 0 1.045.2 2.565 1.669C18.732 13.202 19.031 14 20.002 14h2.566c.748 0 1.097-.374.897-1.097-.224-.722-1.071-1.767-2.167-3.013-.598-.698-1.495-1.47-1.77-1.844-.373-.498-.273-.697 0-1.145-.023 0 3.115-4.435 3.439-5.93"/></svg></svg>