<?xml version="1.0" encoding="utf-8"?><svg viewBox="0 0 48 54" xmlns="http://www.w3.org/2000/svg" xmlns:xlink="http://www.w3.org/1999/xlink"><style>:root>svg{display:none}:root>svg:target{display:block}</style><svg viewBox="0 0 16 10" id="arrow-down" xmlns="http://www.w3.org/2000/svg"><path d="M1 1l7 7 7-7"/></svg><svg viewBox="0 0 8 5" id="arrow-shevron-bottom-small" xmlns="http://www.w3.org/2000/svg"><path opacity=".6" d="M1 1l3 3 3-3"/></svg><svg viewBox="0 0 10 16" id="arrow-shevron-left" xmlns="http://www.w3.org/2000/svg"><path d="M9 1L2 8l7 7"/></svg><svg viewBox="0 0 10 16" id="arrow-shevron-right" xmlns="http://www.w3.org/2000/svg"><path d="M1 15l7-7-7-7"/></svg><svg viewBox="0 0 24 24" id="cadrs-icon" xmlns="http://www.w3.org/2000/svg"><path d="M3 13h8V3H3v10zm0 8h8v-6H3v6zm10 0h8V11h-8v10zm0-18v6h8V3h-8z"/></svg><svg viewBox="0 0 18 19" id="calendar" xmlns="http://www.w3.org/2000/svg"><rect x="1" y="3.318" width="15.454" height="14.682" rx="3.091"/><path d="M12.59 1v4.636M4.864 1v4.636"/><path d="M16.455 8.727H1"/><path d="M13.364 12.59h-5.41M5.636 12.59H4.091"/></svg><svg viewBox="0 0 22 22" id="email" xmlns="http://www.w3.org/2000/svg"><path d="M18.333 3.667H3.667A1.83 1.83 0 001.842 5.5l-.009 11c0 1.008.825 1.833 1.834 1.833h14.666a1.839 1.839 0 001.834-1.833v-11a1.839 1.839 0 00-1.834-1.833zm0 12.833H3.667V7.333L11 11.917l7.333-4.584V16.5zM11 10.083L3.667 5.5h14.666L11 10.083z"/></svg><svg viewBox="0 0 20 20" id="fb" xmlns="http://www.w3.org/2000/svg"><path clip-rule="evenodd" d="M18.89 0H1.111C.497 0-.001.498-.001 1.11v17.78c0 .613.498 1.11 1.112 1.11h9.571v-7.733H8.086V9.238h2.596V7.017c0-2.584 1.579-3.992 3.89-3.992a21.49 21.49 0 012.327.12v2.688h-1.594c-1.253 0-1.498.598-1.498 1.473v1.927h2.998l-.389 3.028h-2.609V20h5.081a1.11 1.11 0 001.111-1.11V1.11A1.11 1.11 0 0018.889 0"/></svg><svg viewBox="0 0 22 22" id="inst" xmlns="http://www.w3.org/2000/svg"><path clip-rule="evenodd" d="M11 0c2.987 0 3.361.013 4.535.066 1.171.053 1.97.24 2.67.511a5.4 5.4 0 011.949 1.27 5.39 5.39 0 011.268 1.948c.273.7.459 1.499.512 2.67C21.987 7.638 22 8.013 22 11s-.013 3.361-.066 4.535c-.053 1.171-.24 1.97-.512 2.67a5.4 5.4 0 01-1.268 1.949 5.4 5.4 0 01-1.949 1.268c-.7.273-1.499.459-2.67.512C14.36 21.987 13.987 22 11 22s-3.362-.013-4.536-.066c-1.17-.053-1.97-.24-2.669-.512a5.392 5.392 0 01-1.949-1.268 5.399 5.399 0 01-1.268-1.949c-.273-.7-.459-1.499-.512-2.67C.013 14.36 0 13.987 0 11s.013-3.362.066-4.536c.053-1.17.24-1.97.511-2.669.276-.734.71-1.4 1.27-1.949A5.391 5.391 0 013.795.578c.7-.273 1.499-.459 2.67-.512C7.637.013 8.012 0 11 0zm0 1.982c-2.937 0-3.285.01-4.445.064-1.072.05-1.655.228-2.042.379-.514.2-.88.438-1.265.823a3.39 3.39 0 00-.823 1.265c-.15.387-.33.97-.379 2.042-.053 1.16-.064 1.508-.064 4.445 0 2.937.01 3.284.064 4.445.049 1.072.228 1.654.379 2.042.2.514.438.88.823 1.265.385.385.75.624 1.265.823.387.15.97.33 2.042.379 1.16.053 1.507.064 4.445.064 2.937 0 3.284-.01 4.445-.064 1.072-.05 1.654-.228 2.042-.38a3.4 3.4 0 001.265-.822 3.4 3.4 0 00.823-1.265c.15-.387.33-.97.379-2.042.053-1.16.064-1.508.064-4.445 0-2.937-.01-3.285-.064-4.445-.05-1.072-.228-1.655-.38-2.042a3.393 3.393 0 00-.822-1.265 3.414 3.414 0 00-1.265-.823c-.387-.15-.97-.33-2.042-.379-1.16-.053-1.508-.064-4.445-.064zm0 12.685a3.667 3.667 0 100-7.333 3.667 3.667 0 000 7.333zm0-9.316a5.649 5.649 0 110 11.298A5.649 5.649 0 0111 5.35zm7.192-.223a1.32 1.32 0 11-2.64 0 1.32 1.32 0 012.64 0z"/></svg><svg viewBox="0 0 18 18" id="link-open-icon" xmlns="http://www.w3.org/2000/svg"><path d="M15.657 10.714v3.43c0 .838-.676 1.514-1.514 1.514H3.857a1.512 1.512 0 01-1.514-1.515V3.858c0-.836.676-1.514 1.514-1.514h3.429a.772.772 0 000-1.543H3.857A3.058 3.058 0 00.8 3.858v10.285a3.058 3.058 0 003.057 3.058h10.286a3.058 3.058 0 003.057-3.058v-3.429a.772.772 0 00-1.543 0z"/><path d="M14.506 2.382L7.031 9.855h0a.789.789 0 101.118 1.114h0l7.475-7.478v2.803a.79.79 0 001.576 0V1.597v0-.001 0-.001 0-.001 0-.001 0-.001 0a.805.805 0 00-.227-.559h0l-.002-.002a.79.79 0 00-.675-.223L11.707.8s0 0 0 0a.788.788 0 100 1.577l2.8.005z"/></svg><svg viewBox="0 0 24 24" id="list-icon" xmlns="http://www.w3.org/2000/svg"><path d="M4 10.5c-.83 0-1.5.67-1.5 1.5s.67 1.5 1.5 1.5 1.5-.67 1.5-1.5-.67-1.5-1.5-1.5zm0-6c-.83 0-1.5.67-1.5 1.5S3.17 7.5 4 7.5 5.5 6.83 5.5 6 4.83 4.5 4 4.5zm0 12c-.83 0-1.5.68-1.5 1.5s.68 1.5 1.5 1.5 1.5-.68 1.5-1.5-.67-1.5-1.5-1.5zM7 19h14v-2H7v2zm0-6h14v-2H7v2zm0-8v2h14V5H7z"/></svg><svg viewBox="0 0 24 24" id="marker" xmlns="http://www.w3.org/2000/svg"><path d="M12 12c-1.1 0-2-.9-2-2s.9-2 2-2 2 .9 2 2-.9 2-2 2zm6-1.8C18 6.57 15.35 4 12 4s-6 2.57-6 6.2c0 2.34 1.95 5.44 6 9.14 4.05-3.7 6-6.8 6-9.14zM12 2c4.2 0 8 3.22 8 8.2 0 3.32-2.67 7.25-8 11.8-5.33-4.55-8-8.48-8-11.8C4 5.22 7.8 2 12 2z"/></svg><svg viewBox="0 0 22 22" id="mobile" xmlns="http://www.w3.org/2000/svg"><path d="M14.667.917H7.333a2.746 2.746 0 00-2.75 2.75v14.666a2.746 2.746 0 002.75 2.75h7.334a2.746 2.746 0 002.75-2.75V3.667a2.746 2.746 0 00-2.75-2.75zm.916 15.583H6.417V3.667h9.166V16.5zm-2.75 2.75H9.167v-.917h3.666v.917z"/></svg><svg viewBox="0 0 13 22" id="ok" xmlns="http://www.w3.org/2000/svg"><path clip-rule="evenodd" d="M6.5 8.058a2.356 2.356 0 100-4.713 2.356 2.356 0 000 4.713zM6.5 0a5.701 5.701 0 110 11.402A5.701 5.701 0 016.5 0zm2.014 15.938l3.445 3.415a1.552 1.552 0 01-2.191 2.194L6.424 18.29l-3.038 3.236a1.549 1.549 0 01-2.64-1.358c.056-.299.197-.575.408-.794l3.27-3.418C2.078 15.502.654 14.393.58 14.335a1.55 1.55 0 011.94-2.419c.014.011 1.503 1.13 3.904 1.132 2.4-.002 3.858-1.12 3.873-1.132a1.55 1.55 0 011.939 2.419c-.072.058-1.44 1.139-3.722 1.603zm-2.09-2.89c.003 0-.004 0 0 0 .003 0-.004 0 0 0z"/></svg><svg viewBox="0 0 44 54" id="pdf-icon" xmlns="http://www.w3.org/2000/svg"><path d="M2.124 47V7a5 5 0 015-5h17.671a5 5 0 013.617 1.547L40.74 16.46a5 5 0 011.383 3.453V47a5 5 0 01-5 5h-30a5 5 0 01-5-5z"/><path d="M26.41 2v10.714a5 5 0 005 5h10.714"/><path d="M2 25.457h40.123v18.518H2z"/><path d="M9.864 35.992v4.335H7.836V28.66H12.3c1.303 0 2.337.34 3.1 1.018.77.678 1.154 1.576 1.154 2.692 0 1.143-.376 2.033-1.13 2.669-.747.635-1.797.953-3.149.953H9.864zm0-1.627H12.3c.72 0 1.27-.168 1.65-.504.38-.342.57-.834.57-1.475 0-.63-.193-1.132-.578-1.506-.384-.38-.913-.574-1.586-.585H9.864v4.07zM18.333 40.327V28.66h3.446c1.03 0 1.944.23 2.74.69a4.691 4.691 0 011.86 1.954c.437.845.656 1.811.656 2.901v.585c0 1.106-.221 2.078-.665 2.917a4.612 4.612 0 01-1.883 1.939c-.812.454-1.744.68-2.796.68h-3.358zm2.027-10.032v8.413h1.323c1.063 0 1.877-.33 2.444-.993.571-.668.862-1.624.873-2.869v-.649c0-1.266-.275-2.233-.825-2.9-.55-.668-1.35-1.002-2.396-1.002H20.36zM35.777 35.383h-4.695v4.944h-2.028V28.66h7.412v1.635h-5.384v3.47h4.695v1.618z"/></svg><svg viewBox="0 0 20 20" id="post-icon" xmlns="http://www.w3.org/2000/svg"><path d="M16.667 5H8.333v1.667h8.334v10H3.333v-10H5V10h1.667V3.333h5V0H5v5H3.333c-.916 0-1.666.75-1.666 1.667v10c0 .916.75 1.666 1.666 1.666h13.334c.916 0 1.666-.75 1.666-1.666v-10c0-.917-.75-1.667-1.666-1.667z"/></svg><svg viewBox="0 0 10 10" id="question" xmlns="http://www.w3.org/2000/svg"><path d="M4.478 6.6v-.077c.006-.266.037-.483.1-.647.063-.166.19-.343.372-.531l.001-.002h0l.456-.445c.184-.198.272-.405.272-.622 0-.217-.06-.377-.17-.49h-.001 0c-.11-.113-.274-.175-.504-.175-.225 0-.397.056-.524.16a.515.515 0 00-.19.422v.075H3.495l.001-.076c.005-.377.148-.686.428-.92L4.478 6.6zm0 0h.076m-.076 0h.076m0 0h.72v-.076c0-.322.081-.557.233-.717l.378-.355h0M4.554 6.599l1.331-1.147m0 0l.002-.002m-.002.002l.002-.002m0 0c.385-.383.587-.781.587-1.194 0-.407-.13-.735-.394-.974-.262-.241-.624-.357-1.076-.357-.437 0-.8.114-1.08.348L5.886 5.45zM4.566 7.272h0a.42.42 0 00-.115.3.42.42 0 00.115.3h0l.002.002c.083.082.2.117.338.117a.466.466 0 00.339-.117h0v-.001a.414.414 0 00.12-.3.414.414 0 00-.119-.3.451.451 0 00-.34-.126.45.45 0 00-.34.125z"/><circle cx="5" cy="5" r="4.625" transform="rotate(-180 5 5)"/></svg><svg viewBox="0 0 18 18" id="search" xmlns="http://www.w3.org/2000/svg"><path opacity=".6" clip-rule="evenodd" d="M8.346 1a7.346 7.346 0 100 14.692A7.346 7.346 0 008.346 1zM0 8.346a8.346 8.346 0 1114.59 5.539l3.262 3.262a.5.5 0 01-.707.707l-3.262-3.262A8.346 8.346 0 010 8.346zm8.347-3.86a3.859 3.859 0 00-3.859 3.86.5.5 0 01-1 0 4.859 4.859 0 014.86-4.86.5.5 0 010 1z"/></svg><svg viewBox="0 0 12 11" id="small-green-triangle" xmlns="http://www.w3.org/2000/svg"><path d="M0 11L6 0l6 11H0z"/></svg><svg viewBox="0 0 48 48" id="table-icon" xmlns="http://www.w3.org/2000/svg"><path d="M20 16h22v-6c0-2.2-1.8-4-4-4H20v10zM6 16h10V6h-6c-2.2 0-4 1.8-4 4v6zm4 26h6V20H6v18c0 2.2 1.8 4 4 4zm16 2l-8-8 8-8v16zm2-18l8-8 8 8H28zM29.16 38H26v-4h3.16c2.66 0 4.84-2.16 4.84-4.84V26h4v3.16c0 4.88-3.96 8.84-8.84 8.84z"/></svg><svg viewBox="0 0 19 19" id="tel" xmlns="http://www.w3.org/2000/svg"><g clip-path="url(#uclip0_71_4392)"><path d="M5.065 13.482l2.172 2.171c1.628 1.629 6.876 4.886 10.495 1.267.724-.724.814-1.629.814-2.262A1.654 1.654 0 0017.37 13.3l-2.986-.724a1.592 1.592 0 00-1.719.633l-.362.543c-.724.724-1.9.724-2.624 0l-2.442-2.352-1.9-1.9c-.815-.815-.815-1.99-.091-2.715l.543-.361c.543-.453.724-1.086.633-1.81l-.724-2.986A1.654 1.654 0 004.341.453c-.633 0-1.538.09-2.262.814-3.619 3.62-.271 8.958 1.267 10.496l1.72 1.719z"/><path d="M10.403 2.172c1.629.09 3.258.724 4.524 1.9 1.267 1.267 1.9 2.895 1.9 4.524M9.137 5.158a3.926 3.926 0 013.619 1.086 3.926 3.926 0 011.085 3.619"/></g><defs><clipPath id="uclip0_71_4392"><path d="M0 0h19v19H0z"/></clipPath></defs></svg><svg viewBox="0 0 20 17" id="tg" xmlns="http://www.w3.org/2000/svg"><path clip-rule="evenodd" d="M7.493 15.698c-.593 0-.492-.225-.697-.79L5.05 9.164l13.435-7.97L7.493 15.698z"/><path clip-rule="evenodd" d="M7.493 15.698c.458 0 .66-.21.916-.458l2.443-2.376-3.047-1.837"/><mask id="va" style="mask-type:alpha" maskUnits="userSpaceOnUse" x="0" y="0" width="20" height="17"><path d="M18.578.11L.93 6.916C-.274 7.398-.267 8.071.71 8.37l4.53 1.413L15.723 3.17c.495-.3.949-.139.576.192l-8.495 7.666 7.383 5.455c.27.15.517.226.735.228h.013c.45-.003.77-.334.912-1.01l3.006-14.162C20.099.555 19.653 0 19.057 0c-.153 0-.316.036-.48.11"/></mask><g mask="url(#va)"><path clip-rule="evenodd" d="M18.578.11L.93 6.916C-.274 7.398-.267 8.071.71 8.37l4.53 1.413L15.723 3.17c.495-.3.949-.139.576.192l-8.495 7.666 7.383 5.455c.27.15.517.226.735.228h.013c.45-.003.77-.334.912-1.01l3.006-14.162C20.099.555 19.653 0 19.057 0c-.153 0-.316.036-.48.11"/></g></svg><svg viewBox="0 0 22 18" id="tw" xmlns="http://www.w3.org/2000/svg"><path clip-rule="evenodd" d="M6.91 17.889c8.302 0 12.845-6.885 12.845-12.845 0-.193 0-.387-.009-.58A9.197 9.197 0 0022 2.121a9.15 9.15 0 01-2.597.713 4.542 4.542 0 001.99-2.5 8.98 8.98 0 01-2.87 1.091A4.506 4.506 0 0015.23 0a4.52 4.52 0 00-4.516 4.516c0 .352.044.696.114 1.03A12.822 12.822 0 011.523.828a4.526 4.526 0 001.4 6.03A4.566 4.566 0 01.88 6.295v.061a4.524 4.524 0 003.619 4.428c-.387.107-.787.16-1.189.159-.29 0-.572-.027-.845-.08a4.514 4.514 0 004.217 3.135 9.054 9.054 0 01-5.608 1.936A8.7 8.7 0 010 15.873a12.841 12.841 0 006.91 2.016z"/></svg><svg viewBox="0 0 24 14" id="vk" xmlns="http://www.w3.org/2000/svg"><path clip-rule="evenodd" d="M22.967.972c.174-.548 0-.947-.773-.947H19.63c-.648 0-.947.35-1.121.722 0 0-1.32 3.189-3.164 5.256-.597.599-.872.797-1.196.797-.174 0-.398-.198-.398-.746V.947c0-.648-.2-.947-.747-.947H8.968c-.398 0-.647.3-.647.598 0 .622.921.772 1.02 2.516v3.787c0 .821-.148.97-.472.97-.872 0-2.99-3.213-4.26-6.875C4.36.274 4.111 0 3.463 0H.87C.123 0-.001.349-.001.723c0 .672.871 4.06 4.06 8.544 2.117 3.064 5.132 4.707 7.847 4.707 1.644 0 1.843-.373 1.843-.996v-2.316c0-.748.15-.872.673-.872.373 0 1.045.2 2.565 1.669C18.732 13.202 19.031 14 20.002 14h2.566c.748 0 1.097-.374.897-1.097-.224-.722-1.071-1.767-2.167-3.013-.598-.698-1.495-1.47-1.77-1.844-.373-.498-.273-.697 0-1.145-.023 0 3.115-4.435 3.439-5.93"/></svg><svg viewBox="0 0 48 48" id="warning" xmlns="http://www.w3.org/2000/svg"><path d="M31.46 6H16.54L6 16.54v14.92L16.54 42h14.92L42 31.46V16.54L31.46 6zM38 29.8L29.8 38H18.2L10 29.8V18.2l8.2-8.2h11.6l8.2 8.2v11.6z"/><path d="M26 14h-4v12h4V14zM26 30h-4v4h4v-4z"/></svg><svg viewBox="0 0 24 24" id="warning-icon" xmlns="http://www.w3.org/2000/svg"><circle cx="12" cy="12" r="11"/><path d="M10.2 10.8H12v6h1.8"/><path d="M11 6h2v2h-2z"/></svg></svg>