<svg width="189" height="235" viewBox="0 0 189 235" fill="none" xmlns="http://www.w3.org/2000/svg">
<g clip-path="url(#clip0_84_5590)">
<path d="M153.359 108.528C153.359 108.528 139.416 136.422 125.252 155.677C119.615 163.341 113.946 169.634 109.105 172.26C104.368 174.829 100.357 178.814 97.0379 183.242C88.4455 194.693 84.477 209.03 84.477 209.03L48.2578 154.235C48.2578 154.235 49.4942 100.674 53.8429 91.7143C60.1809 78.6568 63.2421 52.2767 65.6771 47.0251C67.4844 43.1294 72.6427 23.0043 73.1364 21.5246C73.352 20.8882 75.0675 19.911 77.2972 19.9125C79.0856 19.9125 82.1235 21.6412 82.8881 25.1946C86.7619 43.1513 82.1002 54.9971 82.1599 55.5229C83.526 69.3246 79.4191 79.5699 82.3055 82.2831C82.4119 82.3821 82.6114 82.3355 82.8881 82.1549C87.8819 78.951 118.871 33.7695 122.688 32.7938C126.711 31.7656 153.359 108.528 153.359 108.528Z" fill="#FFB27D"/>
<path d="M95.3738 198.186C95.3738 198.186 94.8801 222.534 93.4675 255.33H2.11719C22.9923 210.798 41.1471 173.317 41.1471 173.317C41.1471 173.317 93.166 174.906 95.3738 198.186Z" fill="#00B2A9"/>
<path d="M185.034 14.1222L173.82 30.5642L162.815 46.7005C162.143 47.5102 161.367 47.7913 160.527 47.7112C157.885 47.4607 154.619 43.6509 152.071 41.5421L151.814 41.3295C150.2 39.987 149.182 38.0603 148.985 35.9703C148.787 33.8802 149.424 31.7968 150.758 30.1754L167.58 9.84053L172.569 3.80983C173.912 2.1963 175.839 1.17974 177.929 0.982187C180.019 0.784629 182.102 1.42213 183.723 2.75544L183.983 2.96807C185.595 4.31156 186.611 6.23854 186.808 8.32832C187.005 10.4181 186.367 12.501 185.034 14.1222Z" fill="#FFB27D"/>
<path d="M173.809 30.5642L162.804 46.7004C162.132 47.5101 161.356 47.7912 160.516 47.7111L167.569 9.84631C167.585 10.0531 168.783 27.0442 173.809 30.5642Z" fill="#EFA26F"/>
<path d="M125.251 155.677C119.615 163.341 113.946 169.634 109.105 172.26C104.367 174.829 100.357 178.814 97.0376 183.242C93.2205 181.463 88.8689 179.376 84.6164 177.308C79.4377 174.791 79.2382 167.437 84.3121 164.712C84.3616 164.686 84.4096 164.658 84.4577 164.63C89.2112 161.911 94.0812 152.307 94.0812 152.307L125.251 155.677Z" fill="#EFA26F"/>
<path d="M72.8837 22.3577L69.9492 34.2064C69.9492 34.2064 72.5153 35.255 74.1624 34.4409C75.8095 33.6268 77.1537 22.9955 72.8837 22.3577Z" fill="#FFC197"/>
<path d="M157.28 0H94.1758C87.9432 0 82.8906 5.05254 82.8906 11.2852V149.991C82.8906 156.224 87.9432 161.276 94.1758 161.276H157.28C163.513 161.276 168.566 156.224 168.566 149.991V11.2852C168.566 5.05254 163.513 0 157.28 0Z" fill="#00B2A9"/>
<path d="M164.318 12.3527V147.843C164.318 152.439 160.584 156.2 156.017 156.2H95.43C90.8688 156.2 87.1289 152.439 87.1289 147.843V12.3527C87.1289 7.75648 90.8615 3.99622 95.43 3.99622H156.022C160.584 3.99622 164.318 7.7623 164.318 12.3527Z" fill="#C0D8FB"/>
<path d="M156.022 3.99622L96.1801 156.2H95.43C90.8688 156.2 87.1289 152.439 87.1289 147.843V12.3527C87.1289 7.75648 90.8615 3.99622 95.43 3.99622H156.022Z" fill="#CBE1FD"/>
<path d="M138.392 0.94519H113.066C110.995 0.94519 109.316 2.62416 109.316 4.69526V5.28654C109.316 7.35764 110.995 9.03661 113.066 9.03661H138.392C140.463 9.03661 142.142 7.35764 142.142 5.28654V4.69526C142.142 2.62416 140.463 0.94519 138.392 0.94519Z" fill="#00B2A9"/>
<path d="M179.443 76.2102L177.771 76.8452L166.523 81.1195C166.263 81.2196 165.996 81.3042 165.725 81.3729C163.899 81.8412 161.965 81.6219 160.29 80.7567C158.615 79.8915 157.317 78.4408 156.642 76.6806L156.478 76.2437C155.762 74.3441 155.827 72.2386 156.659 70.3869C157.491 68.5352 159.021 67.0879 160.917 66.361L171.402 62.3779L172.164 62.0867L173.837 61.4502C175.739 60.7336 177.846 60.7996 179.699 61.6337C181.552 62.4679 182.999 64.0022 183.723 65.9008L183.889 66.3377C184.601 68.237 184.533 70.3407 183.7 72.1902C182.867 74.0396 181.337 75.4847 179.443 76.2102Z" fill="#FFB27D"/>
<path d="M170.31 76.4723C168.434 77.1844 165.035 78.4456 163.217 78.7078C162.703 78.7806 161.761 78.501 160.871 77.5339C160.341 76.9514 159.834 76.1271 159.457 74.9824C159.274 74.4542 159.145 73.9086 159.072 73.3543C159.001 72.7089 159.022 72.0567 159.135 71.4173C159.192 71.1189 159.319 70.8381 159.506 70.598C159.692 70.3578 159.932 70.165 160.207 70.0353C160.207 70.0353 160.207 70.0353 160.216 70.0353C162.148 69.1134 164.754 67.9876 167.037 67.3614C168.616 66.9245 170.213 67.6221 170.713 69.0042L170.949 69.6493L172.156 72.9552C172.656 74.3242 171.843 75.8941 170.31 76.4723Z" fill="#FFD3B6"/>
<path d="M170.31 76.4723C168.434 77.1845 165.035 78.4456 163.217 78.7078C162.703 78.7806 161.761 78.501 160.871 77.534C160.778 77.3126 160.691 77.0811 160.609 76.832C160.425 76.3042 160.296 75.7585 160.225 75.2038C160.154 74.5585 160.175 73.9065 160.286 73.2669C160.344 72.9687 160.471 72.6883 160.658 72.4485C160.844 72.2086 161.085 72.016 161.359 71.8863C161.359 71.8863 161.359 71.8863 161.368 71.8863C163.301 70.963 165.904 69.8387 168.189 69.211C168.654 69.0713 169.144 69.0381 169.623 69.1137C170.102 69.1894 170.558 69.3719 170.956 69.6479L172.164 72.9538C172.656 74.3242 171.843 75.8941 170.31 76.4723Z" fill="#FFC197"/>
<path d="M174.339 92.0275L165.663 94.3882C164.393 94.7302 163.038 94.5555 161.896 93.9022C160.754 93.249 159.917 92.1703 159.567 90.9017L159.299 89.9201C158.958 88.6482 159.134 87.2928 159.789 86.1502C160.444 85.0077 161.524 84.1708 162.794 83.8224L171.468 81.4617C172.74 81.12 174.095 81.2959 175.238 81.951C176.38 82.606 177.217 83.6868 177.565 84.9569L177.831 85.9385C178.171 87.2089 177.994 88.562 177.34 89.7027C176.686 90.8434 175.607 91.6791 174.339 92.0275Z" fill="#FFB27D"/>
<path d="M169.647 91.6022C168.054 92.0275 165.174 92.7775 163.664 92.8605C163.115 92.8911 162.016 92.4236 161.299 90.9833C160.923 90.2006 160.707 89.3512 160.661 88.4842C160.651 87.9826 160.716 87.4823 160.855 87.0002C160.929 86.7696 161.056 86.5598 161.226 86.3877C161.397 86.2156 161.605 86.0861 161.835 86.0099H161.844C163.497 85.4273 165.716 84.7298 167.637 84.3933C168.962 84.1618 170.221 84.7997 170.531 85.8934L170.755 86.674L171.424 89.0201C171.732 90.1007 170.949 91.2556 169.647 91.6022Z" fill="#FFD3B6"/>
<path d="M169.65 91.6022C168.057 92.0274 165.178 92.7774 163.667 92.8605C163.118 92.891 162.019 92.4236 161.302 90.9832C161.2 90.5919 161.141 90.1904 161.126 89.7861C161.116 89.2845 161.181 88.7842 161.32 88.3021C161.394 88.0713 161.521 87.8612 161.692 87.6889C161.863 87.5166 162.071 87.3869 162.301 87.3104C163.954 86.7278 166.175 86.0288 168.095 85.6953C169.193 85.503 170.246 85.9079 170.751 86.6725L171.42 89.0186C171.736 90.1007 170.952 91.2556 169.65 91.6022Z" fill="#FFC197"/>
<path d="M32.2539 191.791C32.2539 191.791 50.1057 208.89 62.1409 215.491L71.2532 209.028V218.563C71.2532 218.563 89.1662 221.732 94.8255 218.563V192.563L44.4959 167.33L32.2539 191.791Z" fill="#048F88"/>
<path d="M98.6289 216.494C91.6953 217.916 76.7518 212.47 76.7518 212.47L79.1577 189.189L62.2642 208.527C53.6718 205.323 40.2298 196.984 32.2447 191.791C28.2689 189.205 25.6445 187.4 25.6445 187.4C36.9137 169.266 48.2484 152.302 48.2484 152.302C51.5761 158.959 59.4505 164.738 67.9876 169.362C82.1738 177.046 98.1862 181.534 98.1862 181.534C98.1906 195.374 98.6289 216.494 98.6289 216.494Z" fill="#DCEAFF"/>
<path d="M179.168 59.5919L178.981 59.656L167.61 62.5686C162.611 63.8546 157.439 61.1487 156.12 56.5583L155.444 54.2194C154.175 49.8111 156.9 45.2018 161.547 43.7076L165.302 42.7435L172.918 40.7876C177.918 39.5031 183.088 42.209 184.408 46.7994L185.085 49.1514C186.334 53.4913 183.698 58.0336 179.168 59.5919Z" fill="#FFB27D"/>
<path d="M173.964 56.4171L168.43 58.9075H168.395C168.175 58.9687 167.952 59.0173 167.726 59.0531C167.635 59.0677 167.54 59.0779 167.447 59.0881C167.408 59.0917 167.369 59.0917 167.33 59.0881C167.186 59.0832 167.045 59.0426 166.921 58.9701C166.796 58.8976 166.691 58.7954 166.616 58.6725C166.54 58.5496 166.496 58.41 166.488 58.266C166.479 58.122 166.506 57.9781 166.567 57.8472C167.109 56.6743 167.22 55.3481 166.88 54.1016L166.748 53.6195C166.749 53.6147 166.749 53.6097 166.748 53.6049L166.319 52.035C165.993 50.829 165.292 49.758 164.317 48.9767C164.203 48.885 164.087 48.7976 163.968 48.716C162.875 47.9587 163.153 46.2402 164.432 45.8907L164.467 45.8805L170.53 44.963C172.028 44.5567 173.472 45.7101 173.879 47.2087L174.366 48.9956L175.403 52.8054C175.81 54.3142 175.455 56.0108 173.964 56.4171Z" fill="#FFD3B6"/>
<path d="M173.967 56.417L168.433 58.9074H168.398C168.268 58.9321 167.864 59.0006 167.333 59.0821C167.189 59.0772 167.049 59.0367 166.924 58.9642C166.799 58.8917 166.694 58.7894 166.619 58.6666C166.543 58.5437 166.499 58.404 166.491 58.26C166.482 58.116 166.51 57.9722 166.57 57.8413C167.112 56.6684 167.223 55.3422 166.883 54.0956L166.751 53.6136C166.752 53.6088 166.752 53.6038 166.751 53.599L166.323 52.0349C165.996 50.8289 165.295 49.7579 164.32 48.9766C164.528 48.6725 164.838 48.453 165.194 48.3576L165.229 48.3474L171.292 47.4314C172.554 47.0877 173.775 47.8523 174.375 48.9955L175.412 52.8053C175.814 54.3141 175.458 56.0107 173.967 56.417Z" fill="#FFC197"/>
<path d="M82.8895 118.735C82.8895 118.735 80.4137 97.0809 78.1215 92.859C75.8292 88.6371 73.8981 80.1787 77.4166 73.896C80.9351 67.6134 82.1541 55.5302 82.1541 55.5302C83.5201 69.3319 79.4132 79.5772 82.2997 82.2904C82.406 82.3894 82.6055 82.3428 82.8822 82.1622L82.8895 118.735Z" fill="#EFA26F"/>
<path d="M138.298 38.1356H52.1451C49.1547 38.1356 46.7305 40.5599 46.7305 43.5503V78.0553C46.7305 81.0457 49.1547 83.47 52.1451 83.47H138.298C141.288 83.47 143.712 81.0457 143.712 78.0553V43.5503C143.712 40.5599 141.288 38.1356 138.298 38.1356Z" fill="#00B2A9"/>
<path d="M84.0024 59.091C84.0091 62.1923 82.9845 65.2078 81.0897 67.663C80.4828 68.4502 79.7945 69.1712 79.0363 69.814C76.5934 71.8829 73.5174 73.0557 70.3173 73.1383C67.1172 73.221 63.9847 72.2085 61.4384 70.2684C58.892 68.3284 57.0844 65.577 56.3147 62.4697C55.5449 59.3625 55.8592 56.0855 57.2054 53.1811C58.5517 50.2768 60.8493 47.9191 63.7179 46.4984C66.5866 45.0776 69.8543 44.6789 72.9804 45.3682C76.1066 46.0576 78.9036 47.7936 80.9087 50.289C82.9138 52.7845 84.0068 55.8898 84.0068 59.091H84.0024Z" fill="white"/>
<path d="M71.6863 57.7466L69.9923 58.0383C69.7113 58.0867 69.5244 58.3443 69.5752 58.6134C69.6256 58.8827 69.8947 59.0616 70.1753 59.0132L71.8693 58.7214C72.2725 58.6517 72.5212 58.8829 72.6203 59.122C72.7187 59.3612 72.7018 59.6926 72.3581 59.9059L69.8713 61.4495C69.6406 61.5926 69.3594 61.6029 69.1181 61.4773C68.877 61.3518 68.7329 61.1196 68.7329 60.8567V57.057C68.7329 56.4251 68.3869 55.8678 67.8077 55.5661C67.2284 55.2644 66.5521 55.2894 65.9987 55.6327L59.7451 59.5143C59.0415 59.9511 58.7758 60.7465 59.0839 61.4937C59.3921 62.2407 60.1535 62.6469 60.9788 62.5053L66.4395 61.5646C66.7204 61.5161 66.9074 61.2588 66.8568 60.9895C66.8064 60.7203 66.5374 60.5411 66.2567 60.5897L60.796 61.5304C60.3922 61.5996 60.1439 61.3686 60.0452 61.1296C59.9466 60.8904 59.9637 60.5589 60.3073 60.3456L66.5607 56.4639C66.7908 56.321 67.0726 56.3105 67.3139 56.4362C67.555 56.5618 67.699 56.7939 67.699 57.057V60.8567C67.699 61.4885 68.0448 62.0457 68.6241 62.3474C68.8932 62.4876 69.1834 62.5572 69.4721 62.5572C69.8052 62.5572 70.1368 62.4648 70.4333 62.2808L72.9201 60.7372C73.6236 60.3004 73.8895 59.5051 73.5812 58.758C73.273 58.0108 72.5107 57.6048 71.6863 57.7466ZM80.4327 58.758C80.1244 58.0109 79.3627 57.6043 78.5379 57.7466L76.8438 58.0383C76.5626 58.0867 76.376 58.3443 76.4266 58.6134C76.477 58.8827 76.7456 59.0616 77.0267 59.0132L78.7207 58.7214C79.1238 58.6517 79.3727 58.8829 79.4715 59.122C79.5703 59.3612 79.5532 59.6926 79.2096 59.9059L76.7229 61.4495C76.4919 61.5926 76.2106 61.6029 75.9697 61.4773C75.7284 61.3518 75.5844 61.1196 75.5844 60.8567V55.8542C75.5844 55.5808 75.353 55.3592 75.0675 55.3592C74.7821 55.3592 74.5508 55.5808 74.5508 55.8542V60.8567C74.5508 61.4885 74.8964 62.0457 75.476 62.3474C75.745 62.4876 76.0349 62.5572 76.3241 62.5572C76.6569 62.5572 76.9887 62.4648 77.285 62.2808L79.7717 60.7372C80.4752 60.3006 80.7407 59.5051 80.4327 58.758Z" fill="#00A94F"/>
<path d="M109.59 49.5199H93.6274C93.0716 49.5199 92.6211 49.9704 92.6211 50.5262V51.0068C92.6211 51.5626 93.0716 52.0131 93.6274 52.0131H109.59C110.146 52.0131 110.597 51.5626 110.597 51.0068V50.5262C110.597 49.9704 110.146 49.5199 109.59 49.5199Z" fill="white"/>
<path d="M109.782 60.9726H93.4298C93.2147 60.9714 93.0086 60.8854 92.8565 60.7333C92.7043 60.5811 92.6183 60.3751 92.6172 60.1599C92.618 59.9446 92.7038 59.7384 92.8561 59.5862C93.0083 59.4339 93.2145 59.3481 93.4298 59.3473H109.78C109.995 59.3481 110.202 59.4339 110.354 59.5862C110.506 59.7384 110.592 59.9446 110.593 60.1599C110.592 60.375 110.506 60.581 110.354 60.7332C110.203 60.8854 109.997 60.9714 109.782 60.9726Z" fill="white"/>
<path d="M102.546 63.1935H93.243C92.8995 63.1935 92.6211 63.4719 92.6211 63.8153V64.1969C92.6211 64.5404 92.8995 64.8188 93.243 64.8188H102.546C102.889 64.8188 103.168 64.5404 103.168 64.1969V63.8153C103.168 63.4719 102.889 63.1935 102.546 63.1935Z" fill="white"/>
<path d="M121.504 63.1935H106.472C106.041 63.1935 105.691 63.543 105.691 63.9741V64.0382C105.691 64.4693 106.041 64.8188 106.472 64.8188H121.504C121.935 64.8188 122.285 64.4693 122.285 64.0382V63.9741C122.285 63.543 121.935 63.1935 121.504 63.1935Z" fill="white"/>
<path d="M135.547 60.9726H114.11C113.894 60.9718 113.688 60.8859 113.536 60.7337C113.384 60.5815 113.298 60.3752 113.297 60.1599C113.298 59.9446 113.384 59.7384 113.536 59.5862C113.688 59.4339 113.894 59.3481 114.11 59.3473H135.547C135.762 59.3481 135.968 59.4339 136.121 59.5862C136.273 59.7384 136.359 59.9446 136.359 60.1599C136.358 60.3751 136.272 60.5811 136.12 60.7333C135.968 60.8854 135.762 60.9714 135.547 60.9726Z" fill="white"/>
<path d="M109.782 68.6635H93.4298C93.2145 68.6627 93.0083 68.5768 92.8561 68.4246C92.7038 68.2724 92.618 68.0661 92.6172 67.8508C92.6172 67.635 92.7027 67.428 92.855 67.2752C93.0073 67.1223 93.214 67.036 93.4298 67.0353H109.78C109.995 67.036 110.202 67.1219 110.354 67.2741C110.506 67.4264 110.592 67.6326 110.593 67.8479C110.593 68.0635 110.507 68.2702 110.355 68.4231C110.203 68.5759 109.997 68.6623 109.782 68.6635Z" fill="white"/>
<path d="M135.547 68.6635H114.11C113.894 68.6627 113.688 68.5768 113.536 68.4246C113.384 68.2724 113.298 68.0661 113.297 67.8508C113.297 67.635 113.382 67.428 113.535 67.2752C113.687 67.1223 113.894 67.036 114.11 67.0353H135.547C135.762 67.036 135.968 67.1219 136.121 67.2741C136.273 67.4264 136.359 67.6326 136.359 67.8479C136.359 68.0637 136.274 68.2707 136.122 68.4236C135.969 68.5764 135.763 68.6627 135.547 68.6635Z" fill="white"/>
<path d="M125.151 49.5199H113.686C113.21 49.5199 112.824 49.9059 112.824 50.3821V51.151C112.824 51.6271 113.21 52.0131 113.686 52.0131H125.151C125.627 52.0131 126.013 51.6271 126.013 51.151V50.3821C126.013 49.9059 125.627 49.5199 125.151 49.5199Z" fill="white"/>
<path d="M98.8195 12.4721L97.9558 13.0925L97.082 12.4794C97.1798 12.341 97.3092 12.2279 97.4595 12.1497C97.6097 12.0715 97.7765 12.0303 97.946 12.0296C98.1154 12.0288 98.2825 12.0686 98.4335 12.1456C98.5844 12.2226 98.7147 12.3345 98.8136 12.4721H98.8195Z" fill="white"/>
<path d="M97.9555 10.5192C97.5435 10.5191 97.1375 10.6184 96.7719 10.8085C96.4064 10.9986 96.092 11.274 95.8555 11.6114L96.4031 11.9959C96.5769 11.747 96.8079 11.5436 97.0768 11.4028C97.3457 11.2619 97.6446 11.1878 97.9481 11.1867C98.2517 11.1855 98.551 11.2574 98.821 11.3962C99.0909 11.535 99.3236 11.7367 99.4992 11.9842L100.045 11.5925C99.8075 11.2603 99.4938 10.9896 99.1303 10.8029C98.7669 10.6163 98.3641 10.519 97.9555 10.5192Z" fill="white"/>
<path d="M97.9565 7.64868C97.0846 7.6485 96.2255 7.8583 95.4518 8.26034C94.6781 8.66238 94.0127 9.24483 93.5117 9.95843L94.0608 10.3429C94.4986 9.72032 95.0793 9.21171 95.7541 8.85968C96.429 8.50765 97.1783 8.32245 97.9395 8.3196C98.7006 8.31675 99.4513 8.49632 100.129 8.84328C100.806 9.19024 101.391 9.69449 101.833 10.3138L102.376 9.92202C101.874 9.21839 101.211 8.64497 100.442 8.24953C99.6732 7.8541 98.821 7.6481 97.9565 7.64868Z" fill="white"/>
<path d="M97.958 9.21863C97.3375 9.21847 96.7259 9.36701 96.1745 9.65182C95.6232 9.93662 95.1481 10.3494 94.7891 10.8556L95.3366 11.24C95.6334 10.8242 96.0248 10.4849 96.4786 10.2501C96.9323 10.0154 97.4354 9.8919 97.9463 9.88991C98.4571 9.88791 98.9612 10.0075 99.4167 10.2387C99.8723 10.4699 100.266 10.8061 100.566 11.2196L101.11 10.8308C100.75 10.3314 100.276 9.9248 99.7283 9.64449C99.1803 9.36417 98.5736 9.2182 97.958 9.21863Z" fill="white"/>
<path d="M98.6304 216.493C91.6967 217.916 76.7532 212.47 76.7532 212.47L79.1591 189.189L62.2656 208.527C53.6732 205.323 40.2312 196.984 32.2461 191.791C52.7106 189.56 67.989 169.363 67.989 169.363C82.1752 177.047 98.1876 181.535 98.1876 181.535C98.192 195.374 98.6304 216.493 98.6304 216.493Z" fill="#CBE1FD"/>
<path d="M51.0509 195.347C51.0561 194.792 51.226 194.25 51.5392 193.79C51.8523 193.331 52.2947 192.975 52.8102 192.767C53.3258 192.559 53.8914 192.509 54.4356 192.622C54.9798 192.736 55.478 193.008 55.8674 193.405C56.2568 193.802 56.5199 194.305 56.6232 194.851C56.7266 195.397 56.6657 195.962 56.4482 196.473C56.2307 196.985 55.8663 197.421 55.4013 197.725C54.9362 198.03 54.3913 198.19 53.8354 198.184C53.4663 198.181 53.1015 198.105 52.7618 197.96C52.4221 197.816 52.1141 197.606 51.8556 197.343C51.597 197.079 51.3929 196.767 51.2548 196.425C51.1167 196.083 51.0474 195.717 51.0509 195.347Z" fill="#00B2A9"/>
</g>
<defs>
<clipPath id="clip0_84_5590">
<rect width="188.122" height="255.34" fill="white"/>
</clipPath>
</defs>
</svg>
