<svg width="259" height="194" viewBox="0 0 259 194" fill="none" xmlns="http://www.w3.org/2000/svg">
<path d="M246.82 3.50558H98.2801C93.4752 3.50558 89.5801 7.4007 89.5801 12.2056V114.021C89.5801 118.826 93.4752 122.721 98.2801 122.721H246.82C251.625 122.721 255.52 118.826 255.52 114.021V12.2056C255.52 7.4007 251.625 3.50558 246.82 3.50558Z" fill="white" stroke="#C3DBE6" stroke-width="2.73" stroke-miterlimit="10"/>
<path d="M101.657 107.752C113.453 107.752 113.453 91.5802 125.275 91.5802C137.097 91.5802 137.097 63.0749 148.919 63.0749C160.74 63.0749 157.465 81.652 169.389 81.652C181.313 81.652 184.486 33.0344 196.308 33.0344C208.13 33.0344 208.104 54.4005 219.926 54.4005C231.748 54.4005 231.748 33.0344 243.57 33.0344" stroke="#C3DBE6" stroke-width="2" stroke-linecap="round" stroke-linejoin="round"/>
<g clip-path="url(#clip0_40_872)">
<path d="M26.8731 150.704L4.71387 334.389H18.2808L50.4682 200.721L64.1821 334.389H77.602L74.3007 150.704H26.8731Z" fill="#2C4C6A"/>
<path d="M107.619 83.096C107.619 83.096 109.88 78.7772 109.688 76.7874C109.496 74.7976 109.123 71.9598 111.147 68.8734C111.621 68.1611 112.933 66.273 112.933 66.273C113.226 66.5846 113.43 66.97 113.522 67.3881C113.613 67.8063 113.589 68.2415 113.453 68.6472C113.082 69.47 112.765 70.316 112.503 71.1797C112.503 71.1797 113.487 69.4047 117.206 68.3194C118.947 67.8106 125.81 66.0582 125.81 66.0582C126.782 66.0582 126.647 67.4601 124.736 68.3194C124.736 68.3194 125.584 69.2012 124.024 70.0831C124.024 70.0831 125.154 70.9084 122.95 72.1181C122.95 72.1181 123.809 72.8078 121.57 74.1531C119.569 75.3516 116.336 77.0813 115.624 78.2232C114.61 80.4137 113.775 82.6822 113.125 85.0066L107.619 83.096Z" fill="#FFC29F"/>
<path d="M36.4834 63.3901C36.4834 63.3901 22.6904 67.4262 19.5248 68.2516C16.3592 69.0769 19.5248 89.0315 23.8097 111.948C28.0945 134.865 26.8509 150.693 26.8509 150.693H74.2672C74.2672 150.693 76.2457 76.697 75.149 74.1871C73.1705 69.6648 53.2837 63.3336 53.2837 63.3336L36.4834 63.3901Z" fill="#00B2A9"/>
<path d="M39.265 46.9968C39.265 46.9968 39.7285 58.359 37.75 62.9152L40.1694 67.5054L46.5459 71.3832L50.582 68.3533L51.7126 64.8938V46.9968H39.265Z" fill="#FFA980"/>
<path d="M34.2112 38.6079C33.6649 37.1404 33.7136 35.5176 34.3468 34.0856C34.8782 32.955 35.7601 31.9601 36.3253 30.8182C36.6813 29.7619 37.2042 28.7695 37.8742 27.8787C38.2935 27.4989 38.7976 27.2248 39.3443 27.0793C39.891 26.9338 40.4646 26.921 41.0172 27.0421C42.1179 27.3059 43.1166 27.8878 43.8889 28.7153C44.9821 29.827 45.7453 31.2204 46.0935 32.7402C46.4304 34.5963 46.3765 36.5024 45.9352 38.3365C45.7172 40.0363 45.0367 41.6436 43.968 42.9832C43.0467 43.9826 41.7839 44.5999 40.4293 44.713C39.1066 44.826 37.1959 44.4529 36.4497 43.2093C36.0879 42.6101 35.9183 41.8865 35.5905 41.2534C35.1496 40.3489 34.6295 39.5349 34.2112 38.6079Z" fill="#2B2F3A"/>
<path d="M58.4733 28.8963C58.4733 28.8963 61.2205 54.0741 53.8605 57.692C49.0895 60.0436 41.492 57.5337 40.2936 46.3184C39.0952 35.1031 44.1828 29.6425 50.0731 28.8963C52.8567 28.4673 55.6896 28.4673 58.4733 28.8963V28.8963Z" fill="#FFC29F"/>
<path d="M40.1697 41.423C39.9664 41.1685 39.7084 40.963 39.4148 40.8218C39.1212 40.6806 38.7996 40.6073 38.4739 40.6073C38.1481 40.6073 37.8265 40.6806 37.5329 40.8218C37.2394 40.963 36.9813 41.1685 36.778 41.423C35.1273 43.2998 38.146 47.2003 40.4298 47.3925L40.1697 41.423Z" fill="#FFC29F"/>
<path d="M44.0244 32.4915C45.3924 32.6724 46.783 32.4915 48.1397 32.6837C49.7211 32.999 51.2639 33.4842 52.7411 34.1308C54.9741 35.0323 57.3816 35.4187 59.7846 35.2614C60.9822 35.166 62.1471 34.8233 63.2056 34.2551C64.2642 33.6869 65.1935 32.9055 65.9349 31.9601C66.6509 30.9633 67.0898 29.7944 67.2068 28.5727C67.3239 27.351 67.1149 26.12 66.6013 25.0054C66.0876 23.8907 65.2876 22.9321 64.2828 22.2274C63.2779 21.5226 62.1042 21.0969 60.8813 20.9936C58.1566 20.7675 55.6015 22.1241 53.0351 23.0738C50.2927 24.0703 47.4051 24.6089 44.4879 24.6679C43.2878 24.62 42.086 24.7034 40.904 24.9167C40.3144 25.0342 39.7599 25.2861 39.2834 25.6528C38.8069 26.0195 38.4214 26.491 38.1567 27.0308C37.5914 28.4667 38.5185 29.5746 39.5699 30.4226C40.8417 31.5001 42.3806 32.2149 44.0244 32.4915Z" fill="#2B2F3A"/>
<path d="M38.2245 61.5472C38.2245 61.5472 39.8186 67.0418 46.5455 71.3832C46.3307 73.4409 40.5535 77.624 38.0888 70.7388C37.2939 68.3533 36.7558 65.8898 36.4834 63.3901L38.2245 61.5472Z" fill="#048F88"/>
<path d="M46.5459 71.3832C48.0696 70.2538 49.3271 68.8039 50.2296 67.1357C51.132 65.4674 51.6576 63.6216 51.7692 61.7281L53.318 63.3336C53.318 63.3336 54.4486 70.1961 52.0405 73.3617C50.3785 75.5324 46.772 72.7512 46.5459 71.3832Z" fill="#048F88"/>
<path d="M23.6292 151.417C23.6292 151.417 28.4115 158.664 30.4126 160.314C31.9427 161.784 33.1817 163.529 34.0643 165.458L27.9819 173.723C26.7957 173.239 25.7415 172.481 24.9061 171.51C24.0707 170.538 23.478 169.383 23.1769 168.138C22.0463 163.774 20.9158 163.288 19.039 159.093L17.1396 154.887L23.6292 151.417Z" fill="#FFC29F"/>
<path d="M18.8016 68.9751C18.8016 68.9751 11.7807 69.4047 8.47945 82.2706C5.17817 95.1366 1.0742 116.278 -0.0224561 125.3C-0.485992 129.11 19.8191 162.609 19.8191 162.609C19.8191 162.609 23.8553 158.946 27.4392 155.894C27.4392 155.894 16.2239 132.434 16.2239 123.864C16.2239 123.864 26.286 95.8827 26.6139 87.4261C26.9417 78.9694 27.0209 69.8569 18.8016 68.9751Z" fill="#00B2A9"/>
<path d="M75.1831 74.1871C77.8173 74.5828 85.8444 92.4911 90.9546 101.728L96.0761 110.953L108.433 79.2973C109.7 79.1487 110.983 79.3469 112.146 79.8705C113.309 80.3942 114.308 81.2238 115.036 82.2707C115.036 82.2707 108.433 124.972 106.794 129.755C105.155 134.537 100.011 137.997 90.9659 126.623C81.9213 115.25 66.2403 93.1468 64.9627 90.6709C63.6852 88.1949 59.9543 71.8807 75.1831 74.1871Z" fill="#00B2A9"/>
<path d="M35.0471 161.128L25.6553 174.881L27.8307 176.366L37.2225 162.614L35.0471 161.128Z" fill="#048F88"/>
<path d="M74.3581 150.704H26.874V154.107H74.3581V150.704Z" fill="#048F88"/>
<path d="M50.4688 200.721L57.0713 176.063L52.7299 222.677L50.4688 200.721Z" fill="#1F3A54"/>
<path d="M75.2852 105.674L75.5113 87.5956L79.7057 111.767L75.2852 105.674Z" fill="#048F88"/>
<path d="M22.5439 104.86L25.6191 93.6669L24.4885 115.543C24.4885 115.543 22.6231 105.979 22.5439 104.86Z" fill="#048F88"/>
</g>
<defs>
<clipPath id="clip0_40_872">
<rect width="126.398" height="330.444" fill="white" transform="translate(0 20.937)"/>
</clipPath>
</defs>
</svg>
