<svg width="70" height="70" viewBox="0 0 70 70" fill="none" xmlns="http://www.w3.org/2000/svg">
<rect opacity="0.1" width="70" height="70" rx="14" fill="#2B9C36"/>
<path d="M42.9275 33.355L41.0725 31.5L32.5325 40.04L28.8225 36.33L26.9675 38.185L32.5325 43.75L42.9275 33.355ZM47.25 19.25H45.5V15.75H42V19.25H28V15.75H24.5V19.25H22.75C20.8075 19.25 19.2675 20.825 19.2675 22.75L19.25 47.25C19.25 49.175 20.8075 50.75 22.75 50.75H47.25C49.175 50.75 50.75 49.175 50.75 47.25V22.75C50.75 20.825 49.175 19.25 47.25 19.25ZM47.25 47.25H22.75V28H47.25V47.25Z" fill="#219653"/>
</svg>
