<svg width="158" height="149" viewBox="0 0 158 149" fill="none" xmlns="http://www.w3.org/2000/svg">
<path opacity="0.7" d="M63.9599 139.654C64.0978 137.969 64.0866 134.663 62.534 130.932C60.7412 126.617 55.3336 124.759 55.3336 124.759C55.3336 124.759 54.0258 130.991 56.5726 135.095C57.3934 136.419 58.9528 137.715 60.4142 138.743C58.0786 138.071 55.4805 137.179 52.6956 135.991C53.1182 134.4 53.6854 131.188 52.8156 127.294C51.8192 122.826 46.9144 120.112 46.9144 120.112C46.9144 120.112 44.5944 125.904 46.3539 130.299C46.93 131.734 48.2401 133.275 49.4924 134.524C47.9732 133.784 46.4139 132.96 44.8213 132.028C43.9449 131.553 43.0662 131.035 42.1876 130.483C42.8616 129.058 44.0049 126.013 43.8248 122.021C43.6246 117.538 39.3537 114.084 39.3537 114.084C39.3537 114.084 36.1262 119.281 37.0782 123.819C37.4119 125.413 38.5419 127.268 39.6051 128.743C37.3185 127.105 35.0562 125.216 32.8674 123.107C33.7549 121.86 35.3965 119.103 35.9037 115.19C36.4754 110.833 32.9408 106.772 32.9408 106.772C32.9408 106.772 28.9437 111.236 29.0883 115.778C29.1394 117.345 29.8891 119.284 30.6476 120.872C28.6968 118.806 26.8283 116.558 25.071 114.161C26.1588 113.074 28.1473 110.716 29.2773 107.109C30.5697 102.998 27.8493 98.4781 27.8493 98.4781C27.8493 98.4781 23.2292 102.107 22.5997 106.516C22.3928 107.959 22.7354 109.831 23.1669 111.44C21.6366 109.132 20.2174 106.702 18.9361 104.165C20.1551 103.319 22.5174 101.375 24.2457 98.0387C26.1921 94.2923 24.337 89.4672 24.337 89.4672C24.337 89.4672 19.2609 92.1827 17.9019 96.3318C17.4347 97.7607 17.4725 99.7535 17.6371 101.434C16.4604 98.8239 15.4394 96.116 14.5986 93.3271C15.8888 92.7443 18.5669 91.2698 20.8558 88.2784C23.3716 84.9945 22.4039 80.0203 22.4039 80.0203C22.4039 80.0203 17.0409 81.7784 15.0257 85.5517C14.2827 86.9339 13.9891 89.0334 13.8757 90.7482C13.1349 87.858 12.5923 84.8855 12.2831 81.8508C13.6044 81.5216 16.4804 80.5608 19.232 78.0309C22.2216 75.2863 22.1326 70.3233 22.1326 70.3233C22.1326 70.3233 16.6584 71.1063 14.0714 74.4068C13.1105 75.6267 12.4654 77.6295 12.0651 79.2719C11.7715 76.1137 11.7425 72.9723 11.9449 69.8753C13.2218 69.7973 16.238 69.3915 19.4099 67.3632C22.7598 65.2235 23.5206 60.4184 23.5206 60.4184C23.5206 60.4184 18.102 60.2438 15.0435 62.985C13.8178 64.0837 12.7902 66.1231 12.1229 67.7045C12.4588 64.3728 13.0505 61.0989 13.8713 57.9197C15.1324 58.0598 18.0976 58.1698 21.4808 56.762C25.0777 55.2674 26.6303 50.757 26.6303 50.757C26.6303 50.757 21.4297 49.6672 18.0109 51.7945C16.6873 52.6175 15.3904 54.3233 14.4808 55.7134C15.415 52.5407 16.565 49.4715 17.8907 46.539C19.0851 46.8893 21.9257 47.5009 25.4291 46.7169C29.1571 45.8874 31.4194 41.7995 31.4194 41.7995C31.4194 41.7995 26.5903 39.8623 22.9244 41.3335C21.4987 41.9051 19.9461 43.3475 18.8316 44.5373C20.3064 41.5271 21.9636 38.6802 23.7541 36.0302C24.7552 36.5429 27.4622 37.7139 31.1258 37.5481C34.8628 37.3813 37.7432 33.8194 37.7432 33.8194C37.7432 33.8194 33.4125 31.1295 29.6265 31.9268C27.9938 32.2693 26.0298 33.6148 24.7329 34.6246C26.7904 31.7355 29.0037 29.1099 31.3037 26.8003C32.0756 27.4041 34.549 29.12 38.2727 29.6049C41.9096 30.0807 45.2995 27.1349 45.2995 27.1349C45.2995 27.1349 41.5737 23.8 37.7834 23.9245C35.9883 23.9824 33.6038 25.1378 32.2068 25.9096C33.4792 24.6863 34.7759 23.562 36.0839 22.5456C37.5475 21.3256 38.9957 20.2225 40.4192 19.2117C41.0843 19.9467 43.1753 21.9962 46.6542 23.086C50.0797 24.1636 53.8523 21.8962 53.8523 21.8962C53.8523 21.8962 50.8227 18.0463 47.1457 17.5203C45.4308 17.2745 42.9817 17.9595 41.4936 18.4622C44.7056 16.2692 47.7485 14.5767 50.4578 13.2756C50.8716 13.9617 52.5399 16.456 55.8831 18.1875C59.0083 19.8121 63.0322 18.2653 63.0322 18.2653C63.0322 18.2653 60.7634 14.034 57.3067 12.9008C55.5005 12.3104 52.611 12.6851 51.1942 12.9287C53.6099 11.8044 55.7341 10.9915 57.4424 10.4021C58.1787 10.7635 60.6166 11.8166 62.8232 11.0582C66.1175 9.92726 67.748 7.70649 67.748 7.70649C67.748 7.70649 64.3469 6.40436 62.325 6.74684C59.7936 7.18047 57.7249 9.64141 57.3 10.1763C55.8943 10.6189 54.2148 11.205 52.3241 11.9878C53.543 11.1516 55.7785 9.47017 56.6416 7.83774C58.3455 4.61836 57.0398 0 57.0398 0C57.0398 0 53.0671 1.68039 51.9437 5.01644C50.727 8.6339 51.2898 11.6253 51.4588 12.3537C48.7073 13.5436 45.5598 15.1339 42.1987 17.2667C43.302 16.1591 45.0438 14.2264 45.582 12.5494C46.7254 9.01204 44.5921 4.60389 44.5921 4.60389C44.5921 4.60389 40.8997 6.99476 40.3614 10.5477C39.7919 14.3032 40.8219 17.1589 41.151 17.9473C39.3515 19.1349 37.5008 20.4706 35.6234 21.9862C34.7893 22.6145 33.9597 23.2906 33.1344 24.0035C34.0197 22.6701 35.1164 20.7574 35.3321 19.2039C35.8526 15.4485 32.9297 11.3952 32.9297 11.3952C32.9297 11.3952 29.6399 14.4522 29.7289 18.1174C29.8178 21.7538 31.1747 24.3415 31.733 25.2579C29.4219 27.4052 27.1775 29.875 25.0688 32.6051C25.696 31.1261 26.3834 29.1377 26.3278 27.6176C26.1832 23.751 22.5241 20.1959 22.5241 20.1959C22.5241 20.1959 19.7636 23.8512 20.5043 27.5186C21.2339 31.1439 23.049 33.5014 23.7764 34.3288C21.8479 36.9921 20.0505 39.8768 18.4356 42.9448C18.8161 41.3358 19.183 39.144 18.8471 37.5882C18.0175 33.7283 13.7133 30.8035 13.7133 30.8035C13.7133 30.8035 11.5869 34.9671 12.9793 38.5201C14.365 42.0608 16.6294 44.1114 17.4948 44.7998C16.0867 47.6721 14.8388 50.6824 13.8023 53.8084C13.8734 52.1793 13.8111 50.1442 13.2462 48.7541C11.7292 45.0245 6.88448 42.8481 6.88448 42.8481C6.88448 42.8481 5.48533 47.4064 7.51614 50.7314C9.47136 53.9374 12.0072 55.5954 13.066 56.1859C12.2096 59.1017 11.5423 62.1064 11.0863 65.1735C10.8483 63.6477 10.4368 61.9219 9.71609 60.7742C7.53171 57.2958 2.27781 55.9658 2.27781 55.9658C2.27781 55.9658 1.67946 60.7964 4.30635 63.7757C6.73762 66.5346 9.45363 67.769 10.7015 68.2238C10.4056 71.1818 10.3144 74.1899 10.4546 77.2269C9.94741 75.7556 9.23561 74.1332 8.3258 73.1279C5.51204 70.0176 0 69.6106 0 69.6106C0 69.6106 0.251322 74.5713 3.4211 77.1023C6.37729 79.4644 9.35576 80.215 10.6726 80.4429C10.8616 83.3143 11.251 86.141 11.8248 88.9044C11.0641 87.55 10.0853 86.1109 9.02657 85.2847C5.64549 82.6581 0.0334187 83.2286 0.0334187 83.2286C0.0334187 83.2286 1.16784 88.1672 4.8024 90.1488C8.13905 91.9692 11.2153 92.2161 12.6144 92.2194C13.3485 94.9973 14.2605 97.704 15.326 100.323C14.3139 99.0829 13.0593 97.7775 11.8293 97.1247C7.96547 95.084 2.42899 96.6531 2.42899 96.6531C2.42899 96.6531 4.44207 101.415 8.44379 102.763C12.1407 104.006 15.2881 103.7 16.6829 103.458C17.9063 106.092 19.2832 108.625 20.7779 111.041C19.5279 109.953 18.0086 108.836 16.6339 108.393C12.3942 107.025 7.10466 109.583 7.10466 109.583C7.10466 109.583 9.97412 114.01 14.2339 114.655C18.1732 115.251 21.2874 114.382 22.642 113.891C24.2257 116.201 25.914 118.384 27.6847 120.423C26.3188 119.635 24.7641 118.904 23.4294 118.719C18.925 118.098 14.0626 121.604 14.0626 121.604C14.0626 121.604 17.7306 125.545 22.1259 125.439C26.0408 125.344 28.9414 124.021 30.2894 123.265C32.169 125.208 34.1154 126.992 36.0972 128.596C34.6915 128.108 33.1677 127.731 31.9132 127.778C27.2776 127.949 23.0112 132.335 23.0112 132.335C23.0112 132.335 27.3955 135.647 31.7953 134.759C35.6413 133.984 38.295 132.193 39.545 131.184C40.9486 132.152 42.3545 133.03 43.7602 133.805C44.65 134.336 45.5287 134.833 46.3983 135.301C44.848 135.043 43.1708 134.91 41.8628 135.191C37.2362 136.185 33.7261 141.346 33.7261 141.346C33.7261 141.346 38.7198 143.898 42.984 142.228C46.7654 140.746 49.1299 138.427 50.1842 137.206C52.7468 138.405 55.178 139.359 57.4224 140.115C55.8408 140.135 54.1704 140.302 52.9291 140.807C48.4537 142.626 45.8423 148.436 45.8423 148.436C45.8423 148.436 51.312 150.115 55.3003 147.679C58.8193 145.534 60.7812 142.806 61.6332 141.385C68.0372 143.083 71.9832 143.332 71.9832 143.332L72.0988 142.184L72.2168 141.035C72.2168 141.035 69.136 140.825 63.9599 139.654ZM153.2 90.1488C156.832 88.1672 157.967 83.2286 157.967 83.2286C157.967 83.2286 152.355 82.6581 148.973 85.2847C147.915 86.1109 146.936 87.55 146.175 88.9044C146.751 86.141 147.138 83.3143 147.327 80.4429C148.644 80.2161 151.62 79.4644 154.577 77.1023C157.749 74.5713 158 69.6106 158 69.6106C158 69.6106 152.488 70.0176 149.674 73.1279C148.764 74.1354 148.053 75.7556 147.545 77.2269C147.688 74.191 147.594 71.1818 147.296 68.2238C148.546 67.769 151.262 66.5346 153.694 63.7757C156.321 60.7964 155.722 55.9658 155.722 55.9658C155.722 55.9658 150.468 57.2958 148.284 60.7742C147.563 61.923 147.152 63.6488 146.914 65.1757C146.458 62.1076 145.79 59.1017 144.936 56.1859C145.993 55.5954 148.529 53.9374 150.484 50.7314C152.517 47.4064 151.116 42.8481 151.116 42.8481C151.116 42.8481 146.271 45.0245 144.752 48.7541C144.189 50.1442 144.127 52.1793 144.198 53.8084C143.161 50.6824 141.913 47.6721 140.505 44.7998C141.371 44.1114 143.635 42.0608 145.021 38.5201C146.413 34.9671 144.287 30.8035 144.287 30.8035C144.287 30.8035 139.985 33.7283 139.153 37.5882C138.819 39.144 139.186 41.3379 139.564 42.946C137.949 39.879 136.152 36.9921 134.224 34.3288C134.951 33.5014 136.766 31.1439 137.496 27.5186C138.234 23.8512 135.476 20.1959 135.476 20.1959C135.476 20.1959 131.817 23.751 131.672 27.6176C131.617 29.1377 132.304 31.1261 132.933 32.6051C130.82 29.875 128.578 27.4052 126.267 25.2579C126.825 24.3415 128.182 21.7538 128.271 18.1174C128.36 14.4522 125.072 11.3952 125.072 11.3952C125.072 11.3952 122.15 15.4485 122.67 19.2039C122.884 20.7574 123.98 22.6701 124.866 24.0035C124.04 23.2906 123.211 22.6145 122.377 21.9862C120.499 20.4706 118.648 19.1349 116.849 17.9473C117.178 17.16 118.21 14.3032 117.641 10.5477C117.103 6.99476 113.41 4.60389 113.41 4.60389C113.41 4.60389 111.275 9.01204 112.418 12.5494C112.959 14.2264 114.698 16.1591 115.804 17.2689C112.44 15.1339 109.295 13.5436 106.541 12.3537C106.71 11.6253 107.273 8.6339 106.056 5.01644C104.933 1.68039 100.96 0 100.96 0C100.96 0 99.6567 4.61836 101.358 7.83774C102.219 9.46914 104.457 11.1504 105.676 11.9878C103.785 11.205 102.106 10.6189 100.7 10.1763C100.275 9.64141 98.2064 7.18047 95.6773 6.74684C93.6531 6.40436 90.252 7.70649 90.252 7.70649C90.252 7.70649 91.8825 9.92726 95.1768 11.0582C97.3856 11.8166 99.8235 10.7635 100.558 10.4021C102.266 10.9915 104.392 11.8044 106.808 12.9287C105.391 12.6851 102.502 12.3104 100.693 12.9008C97.2366 14.034 94.9677 18.2653 94.9677 18.2653C94.9677 18.2653 98.9917 19.8121 102.117 18.1875C105.46 16.456 107.128 13.9617 107.542 13.2756C110.251 14.5767 113.297 16.2692 116.506 18.4633C115.018 17.9606 112.571 17.2745 110.852 17.5203C107.177 18.0463 104.148 21.8962 104.148 21.8962C104.148 21.8962 107.92 24.1636 111.348 23.086C114.827 21.9962 116.918 19.9467 117.583 19.2117C119.004 20.2225 120.452 21.3256 121.918 22.5456C123.224 23.562 124.521 24.6863 125.795 25.9096C124.399 25.1388 122.014 23.9824 120.214 23.9245C116.426 23.8 112.703 27.1349 112.703 27.1349C112.703 27.1349 116.09 30.0807 119.727 29.6049C123.451 29.12 125.924 27.4041 126.696 26.7992C128.996 29.1099 131.21 31.7366 133.267 34.6246C131.973 33.616 130.008 32.2693 128.374 31.9268C124.588 31.1295 120.257 33.8194 120.257 33.8194C120.257 33.8194 123.137 37.3813 126.874 37.5481C130.538 37.7139 133.247 36.5429 134.246 36.0302C136.037 38.6802 137.694 41.5281 139.168 44.5396C138.054 43.3475 136.501 41.9051 135.073 41.3335C131.412 39.8623 126.581 41.7995 126.581 41.7995C126.581 41.7995 128.845 45.8874 132.571 46.7169C136.074 47.5009 138.917 46.8893 140.109 46.539C141.435 49.4715 142.587 52.5418 143.519 55.7156C142.61 54.3255 141.313 52.6185 139.987 51.7945C136.57 49.6672 131.372 50.757 131.372 50.757C131.372 50.757 132.922 55.2674 136.519 56.762C139.902 58.1698 142.868 58.0598 144.129 57.9197C144.95 61.0989 145.541 64.3728 145.877 67.7045C145.21 66.1243 144.182 64.0837 142.956 62.985C139.898 60.2438 134.479 60.4184 134.479 60.4184C134.479 60.4184 135.24 65.2235 138.59 67.3632C141.762 69.3915 144.781 69.7973 146.057 69.8753C146.258 72.9723 146.229 76.1137 145.935 79.2742C145.535 77.6295 144.89 75.6267 143.931 74.4068C141.342 71.1063 135.867 70.3233 135.867 70.3233C135.867 70.3233 135.778 75.2863 138.768 78.0309C141.52 80.5608 144.396 81.5216 145.717 81.8508C145.408 84.8855 144.865 87.858 144.127 90.7482C144.013 89.0334 143.717 86.9339 142.976 85.5517C140.961 81.7784 135.598 80.0203 135.598 80.0203C135.598 80.0203 134.628 84.9945 137.144 88.2784C139.433 91.2698 142.111 92.7443 143.401 93.3271C142.561 96.116 141.54 98.8239 140.363 101.434C140.527 99.7535 140.567 97.7607 140.098 96.3318C138.739 92.1827 133.663 89.4672 133.663 89.4672C133.663 89.4672 131.808 94.2923 133.754 98.0387C135.485 101.375 137.845 103.319 139.064 104.165C137.785 106.702 136.366 109.132 134.833 111.44C135.265 109.831 135.607 107.959 135.4 106.516C134.771 102.107 130.153 98.4781 130.153 98.4781C130.153 98.4781 127.43 102.998 128.723 107.109C129.853 110.716 131.841 113.074 132.931 114.159C131.172 116.558 129.303 118.804 127.352 120.871C128.111 119.282 128.861 117.345 128.912 115.778C129.059 111.236 125.057 106.772 125.057 106.772C125.057 106.772 121.527 110.833 122.096 115.19C122.606 119.103 124.245 121.86 125.133 123.107C122.944 125.216 120.684 127.105 118.395 128.742C119.458 127.268 120.59 125.413 120.922 123.819C121.874 119.281 118.646 114.084 118.646 114.084C118.646 114.084 114.378 117.538 114.175 122.021C113.995 126.013 115.141 129.058 115.812 130.483C114.934 131.035 114.055 131.553 113.177 132.028C111.584 132.96 110.027 133.784 108.508 134.524C109.76 133.275 111.07 131.734 111.646 130.299C113.406 125.904 111.086 120.112 111.086 120.112C111.086 120.112 106.181 122.826 105.184 127.294C104.315 131.188 104.882 134.4 105.304 135.991C102.519 137.179 99.9214 138.071 97.5858 138.743C99.0472 137.715 100.604 136.419 101.425 135.095C103.974 130.991 102.666 124.759 102.666 124.759C102.666 124.759 97.2588 126.617 95.466 130.932C93.9155 134.663 93.9022 137.969 94.0401 139.654C88.8662 140.825 85.7855 141.035 85.7855 141.035L85.9012 142.184L86.0191 143.332C86.0191 143.332 89.9628 143.083 96.3668 141.385C97.2188 142.806 99.1807 145.534 102.7 147.679C106.688 150.115 112.158 148.436 112.158 148.436C112.158 148.436 109.546 142.626 105.071 140.807C103.83 140.302 102.159 140.135 100.578 140.115C102.822 139.359 105.253 138.405 107.816 137.206C108.87 138.427 111.235 140.746 115.016 142.228C119.28 143.898 124.274 141.346 124.274 141.346C124.274 141.346 120.764 136.185 116.137 135.191C114.829 134.91 113.154 135.043 111.599 135.301C112.471 134.833 113.35 134.336 114.24 133.805C115.643 133.03 117.054 132.152 118.453 131.184C119.703 132.191 122.359 133.984 126.205 134.759C130.604 135.647 134.989 132.335 134.989 132.335C134.989 132.335 130.725 127.949 126.087 127.778C124.832 127.731 123.309 128.108 121.903 128.596C123.885 126.992 125.831 125.208 127.713 123.265C129.059 124.021 131.959 125.344 135.874 125.439C140.269 125.545 143.937 121.604 143.937 121.604C143.937 121.604 139.075 118.098 134.571 118.719C133.236 118.904 131.681 119.635 130.315 120.423C132.086 118.384 133.774 116.201 135.358 113.891C136.713 114.382 139.825 115.251 143.766 114.655C148.028 114.01 150.898 109.583 150.898 109.583C150.898 109.583 145.608 107.025 141.366 108.393C139.989 108.836 138.472 109.954 137.222 111.041C138.717 108.625 140.092 106.092 141.317 103.458C142.712 103.7 145.859 104.006 149.554 102.763C153.558 101.415 155.571 96.6531 155.571 96.6531C155.571 96.6531 150.032 95.084 146.171 97.1247C144.941 97.7775 143.686 99.0829 142.674 100.323C143.737 97.704 144.651 94.9973 145.386 92.2194C146.785 92.2161 149.861 91.9692 153.2 90.1488Z" fill="#E8E8E8"/>
</svg>
