<svg width="70" height="70" viewBox="0 0 70 70" fill="none" xmlns="http://www.w3.org/2000/svg">
<rect opacity="0.15" width="70" height="70" rx="14" fill="#56CCF2"/>
<path d="M51.5002 27.6667C48.8418 27.6667 47.3568 30.3067 47.9618 32.2683L41.4535 38.795C40.9035 38.63 40.0968 38.63 39.5468 38.795L34.8718 34.12C35.4952 32.1583 34.0102 29.5 31.3335 29.5C28.6752 29.5 27.1718 32.14 27.7952 34.12L19.4352 42.4617C17.4735 41.8567 14.8335 43.3417 14.8335 46C14.8335 48.0167 16.4835 49.6667 18.5002 49.6667C21.1585 49.6667 22.6435 47.0267 22.0385 45.065L30.3802 36.705C30.9302 36.87 31.7368 36.87 32.2868 36.705L36.9618 41.38C36.3385 43.3417 37.8235 46 40.5002 46C43.1585 46 44.6618 43.36 44.0385 41.38L50.5652 34.8717C52.5268 35.4767 55.1668 33.9917 55.1668 31.3333C55.1668 29.3167 53.5168 27.6667 51.5002 27.6667Z" fill="#56CCF2"/>
<path d="M40.5 29.5L42.2233 25.705L46 24L42.2233 22.295L40.5 18.5L38.8133 22.295L35 24L38.8133 25.705L40.5 29.5Z" fill="#56CCF2"/>
<path d="M19.4168 33.1667L20.3335 29.5L24.0002 28.5833L20.3335 27.6667L19.4168 24L18.5002 27.6667L14.8335 28.5833L18.5002 29.5L19.4168 33.1667Z" fill="#56CCF2"/>
</svg>
