<svg width="70" height="70" viewBox="0 0 70 70" fill="none" xmlns="http://www.w3.org/2000/svg">
<rect opacity="0.1" width="70" height="70" rx="14" fill="#2B9C36"/>
<path d="M53 53.4268H49.7251C49.7251 45.3112 43.1155 38.7017 35 38.7017C26.8845 38.7017 20.2749 45.3112 20.2749 53.4268H17C17 43.5064 25.0677 35.4268 35 35.4268C44.9322 35.4268 53 43.5064 53 53.4268Z" fill="#219653"/>
<path d="M34.9995 38.7136C28.6888 38.7136 23.5493 33.5742 23.5493 27.2634C23.5493 20.9527 28.6888 15.8013 34.9995 15.8013C41.3103 15.8013 46.4497 20.9407 46.4497 27.2515C46.4497 33.5622 41.3103 38.7136 34.9995 38.7136ZM34.9995 19.0762C30.4935 19.0762 26.8242 22.7455 26.8242 27.2515C26.8242 31.7574 30.4935 35.4267 34.9995 35.4267C39.5055 35.4267 43.1748 31.7574 43.1748 27.2515C43.1748 22.7455 39.5055 19.0762 34.9995 19.0762Z" fill="#219653"/>
<path d="M38.2744 37.0762H31.7246L33.3621 41.9766H36.637L38.2744 37.0762Z" fill="#219653"/>
<path d="M31.7246 53.4265H38.2744L36.637 43.6138H33.3621L31.7246 53.4265Z" fill="#219653"/>
</svg>
