<svg width="799" height="277" viewBox="0 0 799 277" fill="none" xmlns="http://www.w3.org/2000/svg">
<path opacity="0.05" d="M470.81 91.9469L408.154 103.169C397.764 105.033 390.851 114.939 392.728 125.292C394.592 135.652 404.546 142.535 414.923 140.671L477.579 129.449C492.494 126.766 501.689 135.658 505.355 144.859C508.995 154.06 508.369 166.806 495.66 175.011L403.68 234.391C395.148 239.895 384.745 240.292 375.822 235.461C366.904 230.631 361.577 221.701 361.577 211.587V65.4217C361.577 41.1132 348.779 19.6764 327.354 8.07003C305.93 -3.53633 280.916 -2.57279 260.445 10.6331L29.1489 159.948C3.12346 176.75 -6.70401 207.349 4.6908 236.091C16.0919 264.827 44.2535 280.451 74.7787 275.004L276.751 238.818C287.141 236.954 294.055 227.054 292.184 216.695C290.32 206.342 280.372 199.446 269.988 201.316L68.0164 237.502C53.0824 240.166 43.8996 231.28 40.2467 222.085C36.6001 212.885 37.2321 200.132 49.9414 191.927L281.232 42.6057C289.744 37.108 300.166 36.7049 309.09 41.5415C318.007 46.3717 323.335 55.3016 323.335 65.4217V211.587C323.335 235.89 336.126 257.327 357.551 268.933C367.505 274.324 378.236 277 388.917 277C401.234 277 413.501 273.448 424.466 266.37L516.446 206.99C542.465 190.188 552.299 159.595 540.898 130.853C529.497 102.111 501.304 86.4932 470.81 91.9469ZM794.308 130.853C782.907 102.117 754.733 86.4743 724.226 91.9469L661.571 103.169C651.168 105.033 644.267 114.939 646.137 125.292C648.002 135.652 657.937 142.535 668.333 140.671L730.989 129.449C745.897 126.766 755.105 135.658 758.758 144.859C762.411 154.06 761.779 166.806 749.07 175.011L657.096 234.391C648.552 239.895 638.149 240.292 629.238 235.461C620.314 230.631 614.986 221.701 614.986 211.587V19.1537C614.986 8.63682 606.429 0.109948 595.869 0.109948C585.314 0.109948 576.757 8.63682 576.757 19.1537V211.587C576.757 235.89 589.542 257.327 610.98 268.933C620.927 274.324 631.652 277 642.345 277C654.657 277 666.93 273.448 677.889 266.37L769.862 206.99C795.882 190.195 805.703 159.595 794.308 130.853Z" fill="white"/>
</svg>
