<svg width="511" height="421" viewBox="0 0 511 421" fill="none" xmlns="http://www.w3.org/2000/svg">
<g clip-path="url(#clip0_2_464)">
<path d="M510.697 283.59L483.748 268.49C477.7 265.108 472.389 257.637 470.527 249.921L447.186 153.392C444.429 141.976 435.249 133.739 428.754 133.493C425.506 133.363 423.168 135.141 422.042 138.638L414.998 160.313C414.698 161.441 414.142 162.484 413.373 163.361C412.604 164.238 411.644 164.926 410.567 165.371C408.055 166.339 404.88 165.834 401.646 163.926L396.768 161.036C390.994 157.727 386.043 150.921 383.993 143.493C380.919 132.453 372.446 125.04 366.239 124.52C364.839 124.346 363.421 124.642 362.206 125.361C360.992 126.08 360.05 127.181 359.527 128.494L351.805 144.866C351.404 145.798 350.811 146.635 350.064 147.322C349.318 148.009 348.436 148.531 347.475 148.854C346.024 149.195 344.519 149.232 343.054 148.963C341.589 148.695 340.195 148.126 338.959 147.294L333.387 144.086C327.281 140.545 322.013 132.959 320.266 125.184L296.912 20.9821C294.342 9.5373 285.206 1.08377 278.609 0.664709C277.099 0.539488 275.594 0.950101 274.356 1.82461C273.118 2.69912 272.228 3.98176 271.84 5.44781L233.906 109.029C233.571 110.098 233 111.077 232.236 111.895C231.471 112.713 230.533 113.348 229.49 113.754C226.978 114.664 223.86 114.144 220.67 112.309L201.516 101.24L201.834 100.691L220.988 111.76C224.005 113.508 226.949 114 229.259 113.205C230.214 112.832 231.073 112.248 231.772 111.498C232.472 110.748 232.994 109.849 233.3 108.87L271.176 5.24551C271.621 3.64172 272.611 2.24402 273.977 1.29409C275.342 0.344172 276.996 -0.0982471 278.653 0.0433383C285.48 0.491303 294.92 9.16159 297.532 20.8665L320.916 125.127C322.59 132.597 327.859 140.198 333.733 143.594L339.305 146.817C340.465 147.599 341.775 148.131 343.152 148.38C344.528 148.628 345.941 148.588 347.302 148.262C348.185 147.972 348.997 147.497 349.684 146.869C350.371 146.242 350.917 145.475 351.285 144.62L358.993 128.248C359.576 126.821 360.61 125.624 361.937 124.841C363.264 124.058 364.811 123.732 366.34 123.913C372.706 124.447 381.525 132.034 384.672 143.349C386.635 150.429 391.658 157.322 397.157 160.501L402.022 163.319C405.096 165.097 408.055 165.573 410.394 164.678C411.381 164.265 412.26 163.631 412.964 162.825C413.667 162.018 414.175 161.06 414.45 160.024L421.479 138.349C422.692 134.621 425.333 132.655 428.84 132.771C435.711 133.031 444.992 141.282 447.865 153.146L471.205 249.69C473.024 257.233 478.22 264.53 484.124 267.839L511.072 282.94L510.697 283.59Z" fill="#42E8E0"/>
<path d="M490.244 295.44L463.295 280.325C457.247 276.943 451.935 269.472 450.073 261.77L426.733 165.227C423.976 153.811 414.81 145.588 408.301 145.328C405.024 145.213 402.715 146.99 401.589 150.473L394.559 172.148C394.248 173.246 393.695 174.26 392.94 175.115C392.186 175.97 391.25 176.645 390.2 177.09C387.674 178.059 384.499 177.567 381.265 175.645L376.401 172.828C370.757 169.576 365.619 162.524 363.612 155.299C360.538 144.245 352.065 136.846 345.858 136.326C344.459 136.148 343.041 136.441 341.826 137.157C340.612 137.874 339.669 138.974 339.146 140.285L331.352 156.715C330.95 157.647 330.357 158.484 329.611 159.171C328.865 159.859 327.983 160.381 327.022 160.704C325.572 161.044 324.068 161.082 322.603 160.816C321.138 160.55 319.743 159.985 318.505 159.157L312.934 155.935C306.814 152.409 301.545 144.808 299.813 137.048L276.458 32.7448C273.904 21.3144 264.767 12.8609 258.156 12.4274C256.638 12.2938 255.121 12.7001 253.873 13.5748C252.624 14.4496 251.723 15.7368 251.329 17.2105L213.453 120.82C213.12 121.89 212.549 122.871 211.785 123.689C211.02 124.507 210.08 125.142 209.036 125.546C206.539 126.456 203.407 125.936 200.217 124.101L181.063 113.032L181.38 112.468L200.535 123.479C203.566 125.228 206.496 125.719 208.82 124.924C209.773 124.55 210.629 123.966 211.326 123.216C212.024 122.465 212.543 121.568 212.847 120.589L250.722 16.9793C251.164 15.3728 252.154 13.9718 253.52 13.0191C254.885 12.0663 256.541 11.6218 258.199 11.7627C265.027 12.2106 274.467 20.8809 277.079 32.6002L300.405 136.875C302.079 144.36 307.348 151.961 313.222 155.343L318.794 158.565C319.954 159.347 321.264 159.879 322.641 160.128C324.017 160.376 325.43 160.336 326.791 160.01C327.676 159.724 328.491 159.251 329.178 158.623C329.865 157.995 330.41 157.226 330.774 156.369L338.497 139.996C339.081 138.57 340.116 137.375 341.442 136.592C342.769 135.809 344.314 135.482 345.844 135.661C352.195 136.21 361.014 143.797 364.161 155.111C366.138 162.192 371.147 169.085 376.646 172.264L381.511 175.067C384.585 176.845 387.559 177.322 389.897 176.44C390.88 176.024 391.755 175.388 392.455 174.582C393.155 173.775 393.663 172.819 393.938 171.787L400.968 150.111C402.195 146.369 404.836 144.331 408.329 144.519C415.2 144.779 424.481 153.045 427.354 164.909L450.694 261.438C452.527 268.995 457.709 276.293 463.612 279.588L490.561 294.703L490.244 295.44Z" fill="#42E8E0"/>
<path d="M274.594 0.817355L253.979 12.6993L254.303 13.2629L274.918 1.3809L274.594 0.817355Z" fill="#42E8E0"/>
<path d="M361.835 124.895L340.972 136.925L341.296 137.488L362.159 125.458L361.835 124.895Z" fill="#42E8E0"/>
<path d="M404.187 146.456L403.869 145.892L425.607 133.407L425.925 133.97L404.187 146.456Z" fill="#42E8E0"/>
<path d="M510.697 283.59L483.748 268.49C477.7 265.108 472.389 257.637 470.527 249.921L447.186 153.392C444.429 141.976 435.249 133.739 428.754 133.493C425.506 133.363 423.168 135.141 422.042 138.638L414.998 160.313C414.698 161.441 414.142 162.484 413.373 163.361C412.604 164.238 411.644 164.926 410.567 165.371C408.055 166.339 404.88 165.834 401.646 163.926L396.768 161.036C390.994 157.727 386.043 150.921 383.993 143.493C380.919 132.453 372.446 125.04 366.239 124.52C364.839 124.346 363.421 124.642 362.206 125.361C360.992 126.08 360.05 127.181 359.527 128.494L351.805 144.866C351.404 145.798 350.811 146.635 350.064 147.322C349.318 148.009 348.436 148.531 347.475 148.854C346.024 149.195 344.519 149.232 343.054 148.963C341.589 148.695 340.195 148.126 338.959 147.294L333.387 144.086C327.281 140.545 322.013 132.959 320.266 125.184L296.912 20.9821C294.342 9.5373 285.206 1.08377 278.609 0.664709C277.099 0.539488 275.594 0.950101 274.356 1.82461C273.118 2.69912 272.228 3.98176 271.84 5.44781L233.906 109.029C233.571 110.098 233 111.077 232.236 111.895C231.471 112.713 230.533 113.348 229.49 113.754C226.978 114.664 223.86 114.144 220.67 112.309L201.516 101.24L201.834 100.691L220.988 111.76C224.005 113.508 226.949 114 229.259 113.205C230.214 112.832 231.073 112.248 231.772 111.498C232.472 110.748 232.994 109.849 233.3 108.87L271.176 5.24551C271.621 3.64172 272.611 2.24402 273.977 1.29409C275.342 0.344172 276.996 -0.0982471 278.653 0.0433383C285.48 0.491303 294.92 9.16159 297.532 20.8665L320.916 125.127C322.59 132.597 327.859 140.198 333.733 143.594L339.305 146.817C340.465 147.599 341.775 148.131 343.152 148.38C344.528 148.628 345.941 148.588 347.302 148.262C348.185 147.972 348.997 147.497 349.684 146.869C350.371 146.242 350.917 145.475 351.285 144.62L358.993 128.248C359.576 126.821 360.61 125.624 361.937 124.841C363.264 124.058 364.811 123.732 366.34 123.913C372.706 124.447 381.525 132.034 384.672 143.349C386.635 150.429 391.658 157.322 397.157 160.501L402.022 163.319C405.096 165.097 408.055 165.573 410.394 164.678C411.381 164.265 412.26 163.631 412.964 162.825C413.667 162.018 414.175 161.06 414.45 160.024L421.479 138.349C422.692 134.621 425.333 132.655 428.84 132.771C435.711 133.031 444.992 141.282 447.865 153.146L471.205 249.69C473.024 257.233 478.22 264.53 484.124 267.839L511.072 282.94L510.697 283.59Z" fill="#42E8E0"/>
<path d="M490.244 295.44L463.295 280.325C457.247 276.943 451.935 269.472 450.073 261.77L426.733 165.227C423.976 153.811 414.81 145.588 408.301 145.328C405.024 145.213 402.715 146.99 401.589 150.473L394.559 172.148C394.248 173.246 393.695 174.26 392.94 175.115C392.186 175.97 391.25 176.645 390.2 177.09C387.674 178.059 384.499 177.567 381.265 175.645L376.401 172.828C370.757 169.576 365.619 162.524 363.612 155.299C360.538 144.245 352.065 136.846 345.858 136.326C344.459 136.148 343.041 136.441 341.826 137.157C340.612 137.874 339.669 138.974 339.146 140.285L331.352 156.715C330.95 157.647 330.357 158.484 329.611 159.171C328.865 159.859 327.983 160.381 327.022 160.704C325.572 161.044 324.068 161.082 322.603 160.816C321.138 160.55 319.743 159.985 318.505 159.157L312.934 155.935C306.814 152.409 301.545 144.808 299.813 137.048L276.458 32.7448C273.904 21.3144 264.767 12.8609 258.156 12.4274C256.638 12.2938 255.121 12.7001 253.873 13.5748C252.624 14.4496 251.723 15.7368 251.329 17.2105L213.453 120.82C213.12 121.89 212.549 122.871 211.785 123.689C211.02 124.507 210.08 125.142 209.036 125.546C206.539 126.456 203.407 125.936 200.217 124.101L181.063 113.032L181.38 112.468L200.535 123.479C203.566 125.228 206.496 125.719 208.82 124.924C209.773 124.55 210.629 123.966 211.326 123.216C212.024 122.465 212.543 121.568 212.847 120.589L250.722 16.9793C251.164 15.3728 252.154 13.9718 253.52 13.0191C254.885 12.0663 256.541 11.6218 258.199 11.7627C265.027 12.2106 274.467 20.8809 277.079 32.6002L300.405 136.875C302.079 144.36 307.348 151.961 313.222 155.343L318.794 158.565C319.954 159.347 321.264 159.879 322.641 160.128C324.017 160.376 325.43 160.336 326.791 160.01C327.676 159.724 328.491 159.251 329.178 158.623C329.865 157.995 330.41 157.226 330.774 156.369L338.497 139.996C339.081 138.57 340.116 137.375 341.442 136.592C342.769 135.809 344.314 135.482 345.844 135.661C352.195 136.21 361.014 143.797 364.161 155.111C366.138 162.192 371.147 169.085 376.646 172.264L381.511 175.067C384.585 176.845 387.559 177.322 389.897 176.44C390.88 176.024 391.755 175.388 392.455 174.582C393.155 173.775 393.663 172.819 393.938 171.787L400.968 150.111C402.195 146.369 404.836 144.331 408.329 144.519C415.2 144.779 424.481 153.045 427.354 164.909L450.694 261.438C452.527 268.995 457.709 276.293 463.612 279.588L490.561 294.703L490.244 295.44Z" fill="#42E8E0"/>
<path style="mix-blend-mode:lighten" opacity="0.5" d="M201.675 100.98L220.829 112.049C226.603 115.373 231.712 114.13 233.603 108.942L271.479 5.33222C275.809 -6.50272 293.476 4.20508 297.215 20.9098L320.541 125.184C322.244 132.814 327.527 140.415 333.531 143.869L339.088 147.091C344.501 150.227 349.395 149.317 351.531 144.794L359.253 128.436C364.031 118.32 379.966 127.858 384.311 143.479C386.317 150.704 391.34 157.597 396.955 160.819L401.82 163.623C407.709 167.033 412.934 165.631 414.709 160.155L421.739 138.479C425.708 126.268 443.39 136.441 447.504 153.262L470.844 249.791C472.677 257.377 477.989 264.819 483.921 268.157L510.87 283.258L201.675 100.98Z" fill="url(#paint0_linear_2_464)"/>
<path style="mix-blend-mode:lighten" opacity="0.5" d="M181.222 112.453L200.376 123.479C206.149 126.803 211.259 125.56 213.15 120.372L251.025 16.7625C255.356 4.92755 273.038 15.6209 276.776 32.3401L300.087 136.615C301.791 144.245 307.073 151.845 313.078 155.299L318.65 158.522C324.063 161.643 328.956 160.747 331.078 156.224L338.8 139.852C343.578 129.736 359.527 139.288 363.872 154.909C365.878 162.134 370.902 169.013 376.502 172.25L381.366 175.067C387.27 178.478 392.481 177.076 394.271 171.599L401.3 149.924C405.255 137.713 422.951 147.886 427.065 164.692L450.391 261.236C452.238 268.822 457.536 276.264 463.468 279.588L490.417 294.703L181.222 112.453Z" fill="url(#paint1_linear_2_464)"/>
<path d="M310.191 380.336C307.369 380.337 304.597 379.594 302.151 378.183L120.771 273.374C119.848 272.838 119.082 272.068 118.55 271.143C118.017 270.217 117.737 269.168 117.737 268.1C117.737 267.031 118.017 265.982 118.55 265.056C119.082 264.131 119.848 263.361 120.771 262.825L232.333 197.971L232.492 198.058L421.768 307.434C422.69 307.972 423.456 308.743 423.988 309.669C424.52 310.596 424.8 311.646 424.8 312.715C424.8 313.784 424.52 314.835 423.988 315.761C423.456 316.688 422.69 317.459 421.768 317.997L318.246 378.169C315.797 379.587 313.02 380.334 310.191 380.336V380.336ZM302.455 377.663C304.811 379.027 307.484 379.744 310.206 379.744C312.927 379.744 315.601 379.027 317.957 377.663L421.479 317.491C422.312 317.009 423.004 316.316 423.485 315.481C423.966 314.647 424.219 313.7 424.219 312.737C424.219 311.774 423.966 310.827 423.485 309.993C423.004 309.158 422.312 308.465 421.479 307.983L232.319 198.622L121.06 263.302C120.227 263.784 119.535 264.477 119.054 265.312C118.573 266.146 118.32 267.093 118.32 268.056C118.32 269.02 118.573 269.966 119.054 270.801C119.535 271.635 120.227 272.328 121.06 272.81L302.455 377.663Z" fill="#42E8E0"/>
<path d="M323.803 328.864C323.803 329.847 323.511 330.808 322.966 331.626C322.42 332.443 321.645 333.08 320.737 333.456C319.83 333.833 318.832 333.931 317.869 333.739C316.905 333.547 316.021 333.074 315.326 332.379C314.632 331.684 314.159 330.798 313.967 329.834C313.776 328.869 313.874 327.87 314.25 326.962C314.626 326.053 315.262 325.277 316.079 324.731C316.895 324.184 317.855 323.893 318.837 323.893C320.154 323.893 321.417 324.417 322.348 325.349C323.28 326.281 323.803 327.546 323.803 328.864V328.864Z" fill="#24126A"/>
<path d="M372.691 273.331C372.694 274.314 372.405 275.277 371.862 276.096C371.318 276.916 370.543 277.555 369.636 277.933C368.729 278.312 367.73 278.412 366.766 278.222C365.802 278.032 364.916 277.56 364.22 276.865C363.524 276.17 363.05 275.285 362.857 274.32C362.664 273.355 362.762 272.355 363.137 271.446C363.513 270.537 364.149 269.76 364.966 269.213C365.783 268.666 366.743 268.374 367.726 268.374C369.04 268.374 370.301 268.896 371.232 269.825C372.163 270.754 372.688 272.015 372.691 273.331V273.331Z" fill="#24126A"/>
<path d="M383.373 311.335C383.373 312.319 383.081 313.28 382.536 314.097C381.99 314.915 381.215 315.552 380.307 315.928C379.4 316.304 378.402 316.403 377.439 316.211C376.475 316.019 375.591 315.546 374.896 314.85C374.202 314.155 373.729 313.27 373.537 312.305C373.346 311.341 373.444 310.341 373.82 309.433C374.196 308.525 374.832 307.748 375.649 307.202C376.465 306.656 377.425 306.365 378.407 306.365C379.724 306.365 380.987 306.888 381.918 307.82C382.85 308.753 383.373 310.017 383.373 311.335Z" fill="#24126A"/>
<path d="M276.17 301.914C276.17 302.897 275.879 303.858 275.333 304.675C274.787 305.493 274.012 306.13 273.105 306.506C272.197 306.882 271.199 306.981 270.236 306.789C269.273 306.597 268.388 306.124 267.693 305.429C266.999 304.733 266.526 303.848 266.334 302.883C266.143 301.919 266.241 300.92 266.617 300.011C266.993 299.103 267.629 298.327 268.446 297.781C269.262 297.234 270.222 296.943 271.204 296.943C272.521 296.943 273.784 297.466 274.715 298.399C275.647 299.331 276.17 300.595 276.17 301.914V301.914Z" fill="#24126A"/>
<path d="M306.799 268.345C306.799 269.328 306.508 270.29 305.962 271.107C305.417 271.924 304.641 272.562 303.734 272.938C302.827 273.314 301.828 273.413 300.865 273.221C299.902 273.029 299.017 272.555 298.323 271.86C297.628 271.165 297.155 270.279 296.964 269.315C296.772 268.351 296.871 267.351 297.246 266.443C297.622 265.535 298.259 264.758 299.075 264.212C299.892 263.666 300.852 263.374 301.834 263.374C303.151 263.374 304.414 263.898 305.345 264.83C306.276 265.762 306.799 267.027 306.799 268.345V268.345Z" fill="#24126A"/>
<path d="M325.881 286.77L271.306 297.304C271.082 297.322 270.86 297.356 270.642 297.405V297.044L268.015 296.379V299.471C267.994 299.591 267.994 299.713 268.015 299.833C268.347 301.047 270.31 301.87 272.417 301.682L327.094 291.105L325.881 286.77Z" fill="url(#paint2_linear_2_464)"/>
<path d="M371.594 267.984L369.992 269.429C369.162 269.125 368.277 269.003 367.395 269.07C366.514 269.137 365.657 269.393 364.883 269.819L325.953 286.769L331.395 289.92L370.267 272.984C370.633 272.824 370.949 272.568 371.18 272.242C371.412 271.916 371.55 271.533 371.58 271.134V271.134L371.594 267.984Z" fill="url(#paint3_linear_2_464)"/>
<path d="M305.515 264.227C304.806 263.639 303.96 263.242 303.056 263.072C302.152 262.903 301.22 262.967 300.347 263.259V263.259C300.129 263.318 299.917 263.395 299.712 263.49C299.628 263.323 299.515 263.171 299.38 263.042C299.025 262.734 298.644 262.458 298.24 262.218V265.311C298.263 265.665 298.406 266.001 298.644 266.264L323.803 289.168L330.659 287.16L305.515 264.227Z" fill="url(#paint4_linear_2_464)"/>
<path d="M381.987 306.032L381.078 306.35L380.543 307.448C380.333 307.354 380.116 307.277 379.894 307.217L330.659 287.189L327.166 291.105L376.401 311.133C377.274 311.42 378.205 311.482 379.109 311.313C380.012 311.144 380.858 310.749 381.568 310.165V310.165C381.701 310.027 381.805 309.864 381.875 309.685C381.944 309.507 381.977 309.316 381.972 309.124L381.987 306.032Z" fill="url(#paint5_linear_2_464)"/>
<path d="M323.803 289.212L315.72 323.893L315.113 323.589V326.783C315.214 327.809 316.557 328.676 318.347 328.849C320.44 329.037 322.417 328.214 322.749 327L331.41 289.92L323.803 289.212Z" fill="url(#paint6_linear_2_464)"/>
<path d="M379.894 304.11L334.224 285.541L370.31 269.834C371.926 268.894 372.1 267.493 370.699 266.683L370.324 266.467C369.461 266.075 368.518 265.891 367.57 265.929C366.623 265.966 365.698 266.225 364.868 266.683L328.782 282.391L305.514 261.12C304.806 260.532 303.96 260.135 303.056 259.966C302.152 259.796 301.22 259.86 300.347 260.152C298.442 260.701 297.691 262.045 298.658 263.143L321.926 284.414L271.305 294.168C269.212 294.356 267.783 295.498 268.115 296.712C268.447 297.925 270.41 298.749 272.518 298.561L323.139 288.807L315.142 323.199C314.81 324.413 316.239 325.555 318.347 325.743C320.454 325.93 322.417 325.107 322.749 323.893L330.76 289.515L376.43 308.084C377.302 308.376 378.235 308.44 379.139 308.27C380.043 308.101 380.889 307.703 381.597 307.116C382.536 306.018 381.785 304.688 379.894 304.11ZM329.374 285.585L328.523 286.553L326.675 286.379L326.386 285.31L328.061 284.819L329.374 285.585Z" fill="url(#paint7_linear_2_464)"/>
<path d="M327.758 288.446C326.707 288.434 325.704 288.01 324.964 287.263C324.223 286.517 323.806 285.509 323.803 284.457V238.303H331.77V284.457C331.77 284.984 331.666 285.505 331.464 285.99C331.262 286.476 330.966 286.917 330.593 287.288C330.22 287.659 329.778 287.952 329.291 288.151C328.804 288.349 328.283 288.45 327.758 288.446V288.446Z" fill="#24126A"/>
<path d="M306.583 183.478C306.488 182.881 306.249 182.316 305.887 181.833C305.525 181.349 305.05 180.961 304.504 180.703L303.667 180.226C300.578 178.434 295.18 178.666 291.614 180.732L266.441 195.269C265.682 195.619 265.021 196.152 264.517 196.821C264.013 197.489 263.683 198.271 263.554 199.099V199.099V203.434C263.594 204.08 263.809 204.704 264.175 205.238C264.541 205.773 265.045 206.198 265.633 206.468L266.47 206.945C269.559 208.737 274.957 208.506 278.537 206.454L303.595 191.96C304.333 191.615 304.98 191.1 305.482 190.457C305.983 189.814 306.326 189.062 306.482 188.261V188.261L306.583 183.478Z" fill="#5351AF"/>
<path d="M266.398 202.726L265.561 202.249C262.472 200.457 262.861 197.336 266.427 195.269L291.6 180.732C295.165 178.666 300.564 178.434 303.653 180.226L304.49 180.703C307.593 182.495 307.203 185.616 303.624 187.683L278.465 202.22C274.885 204.286 269.487 204.518 266.398 202.726Z" fill="url(#paint8_linear_2_464)"/>
<path d="M319.689 223.028L266.961 253.533C264.348 254.978 262.241 253.432 262.241 249.95C262.266 248.177 262.706 246.436 263.526 244.864C264.345 243.293 265.522 241.937 266.961 240.904L327.353 206.02V208.405C327.353 214.011 323.918 220.586 319.689 223.028Z" fill="#515151"/>
<path d="M323.572 92.9743C322.486 92.4804 321.29 92.2792 320.102 92.3907C318.915 92.5023 317.777 92.9226 316.802 93.6101L315.229 94.5205C309.455 97.8875 304.677 106.919 304.677 114.751V219.127L318.679 211.035V214.344L301.877 228.043L263.713 253.664L317.351 284.01L348.196 260.238L365.763 245.224L376.704 123.089L323.572 92.9743Z" fill="url(#paint9_linear_2_464)"/>
<path d="M284.267 265.253C283.887 264.125 283.82 262.914 284.074 261.75C284.328 260.587 284.894 259.515 285.711 258.649C288.526 255.831 303.364 249.589 304.475 248.909C305.587 248.23 310.884 244.314 310.884 244.314L312.501 240.673C312.501 240.673 282.405 243.563 282.001 244.068C281.597 244.574 267.899 256.843 268.303 257.377C268.707 257.912 277.743 260.108 277.743 260.108L279.49 262.493L284.267 265.253Z" fill="#2D2D2D"/>
<path d="M370.194 123.812L368.621 124.722C362.847 128.089 358.069 137.135 358.069 144.953V249.328L320.367 271.091C318.928 272.124 317.749 273.48 316.927 275.051C316.105 276.622 315.662 278.364 315.633 280.137C315.633 283.619 317.755 285.223 320.367 283.706L373.081 253.273C377.325 250.817 380.76 244.256 380.76 238.592V131.803C380.76 124.028 376.026 120.445 370.194 123.812Z" fill="#5351AF"/>
<path d="M270.006 287.868C270.006 287.868 262.241 292.853 259.614 295.787C256.987 298.72 251.79 304.746 253.927 307.622C256.063 310.497 263.294 312.087 271.06 304.919C278.826 297.752 276.632 297.333 283.243 293.792C289.853 290.252 291.672 286.379 290.878 284.168C290.084 281.958 286.822 278.056 285.032 278.894C283.243 279.732 270.006 287.868 270.006 287.868Z" fill="#160A5B"/>
<path d="M307.781 308.821C306.532 311.628 305.12 314.359 303.551 317C302.108 319.038 295.151 330.786 298.788 333.488C302.426 336.19 309.325 335.439 314.781 329.514C320.237 323.589 321.435 316.379 322.778 314.009C324.12 311.639 327.469 305.339 325.881 301.683C324.293 298.027 323.947 297.347 323.947 297.347L307.781 308.821Z" fill="#160A5B"/>
<path d="M279.576 221.338C279.576 221.338 256.481 244.141 252.714 255.585C252.304 257.524 252.351 259.531 252.853 261.448C253.354 263.364 254.295 265.137 255.601 266.626C260.061 271.481 269.53 287.333 269.53 287.333C269.53 287.333 276.603 295.888 285.725 289.053C285.725 289.053 289.853 282.449 287.313 278.056C284.772 273.663 278.032 259.646 278.032 259.646C278.032 259.646 292.827 249.444 300.13 246.872C303.953 245.577 307.693 244.052 311.331 242.306C310.131 247.286 307.855 251.942 304.663 255.947C299.322 262.666 290.373 273.49 293.346 281.018C295.241 286.046 297.763 290.814 300.852 295.209C303.652 299.544 306.308 308.575 308.69 309.515C311.072 310.454 322.114 311.538 323.904 304.341C325.693 297.145 320.136 283.171 317.639 278.432C317.639 278.432 347.489 243.967 350.333 240.167C353.176 236.366 288.814 215.5 279.576 221.338Z" fill="#24126A"/>
<path d="M287.298 278.099C284.772 273.764 278.017 259.689 278.017 259.689C278.017 259.689 292.812 249.487 300.116 246.915C303.938 245.62 307.679 244.095 311.317 242.349C314.549 237.601 317.223 232.495 319.285 227.132C302.454 222.19 284.181 218.462 279.576 221.352C281.207 225.398 289.796 225.355 289.796 225.355C289.796 225.355 293 233.173 295.122 234.17C297.244 235.167 302.339 234.069 302.339 234.069C301.066 235.599 299.561 236.921 297.879 237.985C294.256 240.6 271.551 259.227 271.551 259.227C271.551 259.227 272.835 259.964 278.883 270.917C284.931 281.871 285.711 289.067 285.711 289.067C285.711 289.067 289.839 282.434 287.298 278.099Z" fill="#160A5B"/>
<path d="M338.323 233.447C324.986 232.161 309.455 232.002 312.934 239.069C314.612 242.489 317.134 245.426 320.26 247.6C323.387 249.774 327.015 251.115 330.803 251.496C330.731 255.831 312.414 276.987 312.414 276.987L316.744 285.296C321.075 293.605 320.468 308.72 320.468 308.72C321.324 308.288 322.078 307.678 322.678 306.93C323.278 306.182 323.711 305.314 323.947 304.385C325.737 297.159 320.18 283.215 317.683 278.475C317.683 278.475 347.532 244.011 350.376 240.21C351.228 239.083 346.103 236.424 338.323 233.447Z" fill="#160A5B"/>
<path d="M256.251 160.574L259.801 157.814C259.801 157.814 278.927 147.178 285.292 143.739C288.849 141.589 292.077 138.936 294.876 135.863C296.115 134.582 297.598 133.561 299.236 132.861C300.874 132.162 302.636 131.797 304.417 131.788L337.948 131.629C339.529 134.238 341.275 136.743 343.173 139.129C344.14 140.025 353.277 147.669 359.758 153.941C363.368 157.418 365.992 161.791 367.365 166.614C371.089 179.793 371.046 206.353 371.609 225.341C368.978 226.245 366.287 226.96 363.554 227.479C357.781 228.693 358.56 227.913 358.56 227.913C358.56 227.913 350.001 247.175 338.352 249.039C326.704 250.903 311.115 245.47 308.329 227.234C308.329 227.234 285.711 223.838 279.576 221.309C279.439 221.258 279.315 221.176 279.216 221.068C279.117 220.961 279.044 220.831 279.005 220.69C278.965 220.549 278.96 220.4 278.989 220.257C279.018 220.113 279.081 219.978 279.172 219.864C281.915 216.222 292.163 202.133 293.087 192.957C294.198 182.35 293.866 166.946 293.014 162.727C293.014 162.727 275.953 169.172 270.526 170.313C270.526 170.313 249.755 193.159 241.08 199.373C241.08 199.373 244.054 194.691 238.078 191.526L256.251 160.574Z" fill="#453C9E"/>
<path d="M363.555 227.523L365.922 226.988L364.724 224.618L333.243 221.28L314.868 222.234L308.546 228.245C308.853 230.089 309.336 231.899 309.989 233.65C309.989 233.65 317.798 234.777 321.407 234.011C325.015 233.245 353.032 237.349 353.09 237.363C355.14 234.402 356.941 231.274 358.474 228.014C358.445 228.13 358.849 228.476 363.555 227.523Z" fill="#24126A"/>
<path d="M321.075 216.468C321.062 216.412 321.031 216.362 320.987 216.325C320.942 216.288 320.887 216.268 320.829 216.266C319.314 216.266 309.47 215.933 305.76 214.647C303.029 213.67 300.104 213.363 297.229 213.751C297.013 213.983 290.301 216.829 289.897 218C289.493 219.17 288.901 222.595 289.796 223.91C290.277 224.615 290.716 225.349 291.109 226.107H291.802C292.231 226.941 292.713 227.747 293.246 228.52C293.464 228.795 293.648 229.096 293.794 229.416C294.213 230.341 294.963 231.843 295.237 231.887C296.24 232.091 297.26 232.197 298.283 232.205C298.716 232.089 299.106 230.76 298.933 230.196C298.919 230.162 298.914 230.125 298.916 230.089C298.919 230.052 298.929 230.017 298.947 229.985C298.965 229.953 298.99 229.926 299.02 229.905C299.05 229.884 299.084 229.87 299.12 229.864C301.486 229.513 303.886 229.46 306.265 229.705C310.595 230.109 316.831 227.248 317.38 226.974H317.481L323.644 226.41C323.685 226.405 323.725 226.392 323.76 226.37C323.795 226.349 323.826 226.32 323.849 226.285C323.872 226.251 323.888 226.212 323.895 226.171C323.902 226.131 323.9 226.089 323.889 226.049L321.075 216.468Z" fill="#FCD1C5"/>
<path d="M313.699 151.383C313.699 151.383 308.445 170.761 314.002 190.66C314.002 190.66 334.21 152.944 336.389 146.831C338.569 140.719 339.377 136.355 337.328 134.158C335.278 131.962 317.033 143.32 317.033 143.32L313.699 151.383Z" fill="#F0F6FF"/>
<path d="M318.852 181.758C318.852 181.758 322.706 169.981 322.027 166.166C321.65 163.956 321.11 161.778 320.411 159.649L323.875 156.441L325.405 159.62C325.405 159.62 333.041 154.013 333.546 152.958C330.975 154.779 328.273 156.406 325.463 157.828C324.943 156.977 324.212 156.275 323.341 155.79C322.128 155.285 319.126 159.403 319.126 159.403L318.563 166.556L315.546 183.232L316.586 185.717L318.852 181.758Z" fill="#C4CCD6"/>
<path d="M315.474 151.614C315.474 151.614 314.752 159.215 315.373 159.764C316.017 160.047 316.712 160.193 317.416 160.193C318.119 160.193 318.814 160.047 319.458 159.764C320.875 158.581 322.175 157.265 323.341 155.834C323.341 155.834 319.92 149.765 315.474 151.614Z" fill="#24126A"/>
<path d="M319.602 158.363C320.867 162.458 320.897 166.836 319.689 170.949C318.458 175.578 317.542 180.285 316.946 185.038L313.958 190.659C311.705 183.531 310.853 176.033 311.447 168.579C312.051 165.129 313.543 161.897 315.777 159.201L319.602 158.363Z" fill="#24126A"/>
<path d="M304.215 120.502C304.215 120.502 303.292 125.213 303.624 126.109C303.956 127.005 305.154 127.554 304.865 129.433C304.89 132.527 305.331 135.604 306.178 138.58C306.178 138.58 305.774 140.545 306.323 141.138C306.871 141.73 307.579 141.73 308.098 142.583C308.618 143.435 308.777 148.262 310.696 149.808C311.487 150.474 312.413 150.959 313.41 151.231C314.407 151.503 315.451 151.555 316.47 151.383C317.405 151.08 318.287 150.631 319.083 150.054L321.969 151.267C321.969 151.267 336.981 146.932 336.519 136.441V135.314C337.099 134.553 337.584 133.723 337.963 132.843C338.28 131.86 340.763 127.482 339.507 125.618C339.507 125.618 345.281 102.613 327.368 101.226C309.455 99.8383 306.611 112.511 304.215 120.502Z" fill="#FCD1C5"/>
<path d="M336.49 136.485C335.898 136.048 335.176 135.825 334.441 135.849C332.377 136.21 332.853 131.947 332.853 131.947C332.211 133.983 331.728 136.065 331.41 138.175C330.356 143.623 319.039 150.227 319.039 150.227L321.926 151.441C321.926 151.441 336.952 147.106 336.49 136.485Z" fill="#E2B1A6"/>
<path d="M304.302 110.474C302.541 114.202 301.704 118.682 305.37 121.687C305.37 121.687 308.459 122.54 314.319 119.809C317.526 118.425 321.139 118.316 324.423 119.505C324.907 119.672 325.325 119.989 325.616 120.41C325.907 120.831 326.055 121.335 326.04 121.846L325.953 125.112C325.945 125.528 326.059 125.936 326.283 126.286C326.506 126.636 326.829 126.911 327.209 127.077L329.937 128.248L330.486 131.427C330.523 131.647 330.609 131.857 330.736 132.04C330.862 132.224 331.028 132.378 331.221 132.491C331.413 132.603 331.628 132.673 331.85 132.694C332.072 132.715 332.296 132.687 332.507 132.612L333.185 132.366C333.185 132.366 333.589 125.286 339.435 125.647C339.435 125.647 344.155 115.416 339.319 106.052C334.484 96.6882 321.204 97.3818 318.375 98.4222C316.475 98.9749 314.672 99.8234 313.035 100.937C309.258 103.196 306.223 106.511 304.302 110.474V110.474Z" fill="#AA8383"/>
<path d="M352.065 182.726C352.065 182.726 349.337 202.783 348.225 208.462L339.435 213.072L355.038 212.118L352.065 182.726Z" fill="#24126A"/>
<path d="M339.392 125.69C340.485 123.078 341.152 120.306 341.369 117.482C337.017 120.906 331.499 122.488 325.997 121.89L325.91 125.156C325.901 125.571 326.016 125.979 326.239 126.329C326.463 126.679 326.785 126.955 327.166 127.121L329.894 128.291L330.442 131.47C330.48 131.691 330.565 131.9 330.692 132.084C330.819 132.267 330.985 132.421 331.177 132.534C331.37 132.647 331.585 132.716 331.807 132.737C332.029 132.758 332.253 132.73 332.463 132.655L333.142 132.41C333.142 132.41 333.546 125.329 339.392 125.69Z" fill="#936D6D"/>
<path d="M343.274 143.305C343.274 143.305 338.627 159.288 337.66 162.366L333.921 161.975L334.585 167.033L314.377 193.622L336.793 167.915L335.913 163.406L339.305 163.767L343.274 143.305Z" fill="#24126A"/>
<path d="M323.5 230.182C323.5 230.182 370.743 228.65 371.941 227.783C373.139 226.916 373.384 214.777 373.254 207.697C373.182 202.755 373.254 183.391 369.011 169.822C372.331 181.382 370.584 221.974 369.083 224.04C367.582 226.107 322.634 227.306 322.634 227.306C323.124 228.968 323.5 230.182 323.5 230.182Z" fill="#263649"/>
<path d="M230.659 192.35C230.659 192.35 230.485 193.535 228.436 194.706C226.386 195.876 221.118 198.477 220.266 199.214C218.585 200.615 216.999 202.126 215.517 203.737C215.402 204.185 214.261 207.957 214.276 208.173C214.29 208.39 214.637 210.153 214.637 210.153L213.467 215.731C213.467 215.731 212.024 217.884 213.597 218.477C214.114 218.635 214.673 218.583 215.151 218.331C215.63 218.079 215.989 217.649 216.152 217.133C217.637 216.416 219.052 215.565 220.381 214.589C222.171 213.144 229.331 207.364 230.485 207.783C231.64 208.202 230.586 210.211 229.995 210.558C229.403 210.905 225.664 214.633 227.194 217.219C228.724 219.806 229.836 215.774 230.89 214.936C231.943 214.098 234.209 210.876 235.595 210.486C236.981 210.095 239.521 204.879 239.853 202.552C240.247 200.805 241.146 199.212 242.437 197.971C243.043 197.22 241.167 191.44 241.167 191.44L234.065 189.229L231.568 190.847L230.659 192.35Z" fill="#FCD1C5"/>
<path d="M365.532 161.845C364.089 159.504 363.367 161.238 361.375 163.175C357.887 166.44 355.213 170.479 353.566 174.966C350.39 184.287 351.531 207.595 352.585 210.919C352.585 210.919 323.009 215.774 320.959 215.688C318.909 215.601 323.5 230.138 323.5 230.138C323.5 230.138 370.743 228.606 371.941 227.739C373.139 226.872 373.384 214.734 373.254 207.653C373.153 201.656 373.269 174.056 365.532 161.845Z" fill="#334659"/>
<path d="M323.5 230.182C323.5 230.182 370.743 228.65 371.941 227.783C373.139 226.916 373.384 214.777 373.254 207.697C373.182 202.755 373.254 183.391 369.011 169.822C372.33 181.382 370.584 221.974 369.083 224.04C367.582 226.107 322.634 227.306 322.634 227.306C323.124 228.968 323.5 230.182 323.5 230.182Z" fill="#263649"/>
<path d="M378.797 224.994C378.702 224.397 378.463 223.832 378.101 223.349C377.739 222.865 377.264 222.477 376.719 222.219L375.881 221.728C372.792 219.951 367.394 220.167 363.829 222.234L338.656 236.785C337.898 237.134 337.238 237.665 336.734 238.331C336.231 238.996 335.899 239.776 335.769 240.6V240.6V244.935C335.81 245.58 336.025 246.201 336.391 246.733C336.757 247.265 337.26 247.688 337.847 247.956L338.684 248.447C341.773 250.239 347.172 250.008 350.751 247.941L375.91 233.389C376.647 233.046 377.292 232.533 377.794 231.893C378.296 231.253 378.639 230.503 378.797 229.705V224.994Z" fill="#5351AF"/>
<path d="M338.612 244.242L337.775 243.75C334.686 241.973 335.076 238.852 338.641 236.785L363.814 222.234C367.38 220.167 372.778 219.951 375.867 221.728L376.704 222.219C379.807 224.011 379.418 227.132 375.838 229.184L350.679 243.736C347.1 245.802 341.701 246.019 338.612 244.242Z" fill="url(#paint10_linear_2_464)"/>
<path opacity="0.5" d="M323.211 327.867L112.255 205.963L194.963 158.16L405.919 280.065L323.211 327.867Z" fill="url(#paint11_linear_2_464)"/>
<path d="M112.255 198.593V205.963L323.211 327.867L405.919 280.065V272.68L323.211 320.483L112.255 198.593Z" fill="url(#paint12_linear_2_464)"/>
<path d="M323.211 320.483L112.255 198.593L194.963 150.776L405.919 272.68L323.211 320.483Z" fill="url(#paint13_linear_2_464)"/>
<path d="M323.211 319.731L112.904 198.217L112.255 198.593L323.211 320.483L405.919 272.68L405.269 272.305L323.211 319.731Z" fill="white"/>
<path opacity="0.3" d="M298.11 231.41C298.11 231.41 304.028 233.52 308.546 232.768C313.064 232.017 334.83 231.583 334.83 231.583L331.409 229.603L323.803 224.286L304.894 225.572L297.59 228.187L298.11 231.41Z" fill="#180D5B"/>
<path d="M321.075 216.468C321.062 216.412 321.031 216.362 320.987 216.325C320.942 216.288 320.887 216.268 320.829 216.266C319.314 216.266 309.47 215.933 305.76 214.647C303.029 213.67 300.104 213.363 297.229 213.751C297.013 213.983 290.301 216.829 289.897 218C289.493 219.17 288.901 222.595 289.796 223.91C290.277 224.615 290.716 225.349 291.109 226.107H291.802C292.231 226.941 292.713 227.747 293.246 228.52C293.464 228.795 293.648 229.096 293.794 229.416C294.213 230.341 294.963 231.843 295.237 231.887C296.24 232.091 297.26 232.197 298.283 232.205C298.716 232.089 299.106 230.76 298.933 230.196C298.919 230.162 298.914 230.125 298.916 230.089C298.919 230.052 298.929 230.017 298.947 229.985C298.965 229.953 298.99 229.926 299.02 229.905C299.05 229.884 299.084 229.87 299.12 229.864C301.486 229.513 303.886 229.46 306.265 229.705C310.595 230.109 316.831 227.248 317.38 226.974H317.481L323.644 226.41C323.685 226.405 323.725 226.392 323.76 226.37C323.795 226.349 323.826 226.32 323.849 226.285C323.872 226.251 323.888 226.212 323.895 226.171C323.902 226.131 323.9 226.089 323.889 226.049L321.075 216.468Z" fill="#FCD1C5"/>
<path d="M365.532 161.845C364.089 159.504 363.367 161.238 361.375 163.175C357.887 166.44 355.213 170.479 353.566 174.966C350.39 184.287 351.531 207.595 352.585 210.919C352.585 210.919 323.009 215.774 320.959 215.688C318.909 215.601 323.5 230.138 323.5 230.138C323.5 230.138 370.743 228.606 371.941 227.739C373.139 226.872 373.384 214.734 373.254 207.653C373.153 201.656 373.269 174.056 365.532 161.845Z" fill="#4846A5"/>
<path d="M323.5 230.182C323.5 230.182 370.743 228.65 371.941 227.783C373.139 226.916 373.384 214.777 373.254 207.697C373.182 202.755 373.254 183.391 369.011 169.822C372.331 181.382 370.584 221.974 369.083 224.04C367.582 226.107 322.634 227.306 322.634 227.306C323.124 228.968 323.5 230.182 323.5 230.182Z" fill="#24126A"/>
<path opacity="0.3" d="M238.8 205.963C238.8 205.963 255.702 192.755 258.113 191.512C259.344 190.908 260.498 190.156 261.548 189.272L255.962 185.963L246.334 189.951L234.311 201.844L215.763 215.008V218.058C215.763 218.058 231.063 211.483 232.781 210.37C234.498 209.257 238.8 205.963 238.8 205.963Z" fill="#180D5B"/>
<path opacity="0.63" d="M228.739 217.942C230.55 216.288 232.534 214.834 234.657 213.607C236.981 212.538 240.662 209.676 241.124 207.494C241.585 205.312 245.454 200.486 245.454 200.486L239.305 204.041L230.385 209.199L215.546 217.87C215.919 218.205 216.382 218.422 216.878 218.494C217.374 218.566 217.879 218.489 218.332 218.274C220.208 217.639 223.73 215.384 225.376 215.182C227.021 214.98 229.706 214.474 229.706 214.474L228.739 217.942Z" fill="#2D2D2D"/>
<path d="M230.659 192.35C230.659 192.35 230.485 193.535 228.436 194.706C226.386 195.876 221.118 198.477 220.266 199.214C218.585 200.615 216.999 202.126 215.517 203.737C215.402 204.185 214.261 207.957 214.276 208.173C214.29 208.39 214.637 210.153 214.637 210.153L213.467 215.731C213.467 215.731 212.024 217.884 213.597 218.477C214.114 218.635 214.673 218.583 215.151 218.331C215.63 218.079 215.989 217.649 216.152 217.133C217.637 216.416 219.052 215.565 220.381 214.589C222.171 213.144 229.331 207.364 230.485 207.783C231.64 208.202 230.586 210.211 229.995 210.558C229.403 210.905 225.664 214.633 227.194 217.219C228.724 219.806 229.836 215.774 230.89 214.936C231.943 214.098 234.209 210.876 235.595 210.486C236.981 210.095 239.521 204.879 239.853 202.552C240.247 200.805 241.146 199.212 242.437 197.971C243.043 197.22 241.167 191.44 241.167 191.44L234.065 189.229L231.568 190.847L230.659 192.35Z" fill="#FCD1C5"/>
<path d="M294.747 153.334C294.624 147.036 295.141 140.742 296.291 134.548C295.776 134.922 295.294 135.337 294.848 135.791C292.048 138.864 288.82 141.517 285.263 143.667C278.898 147.106 259.773 157.741 259.773 157.741L256.222 160.501C244.992 169.316 232.449 188.478 230.63 192.292C231.51 191.122 233.762 189.186 238.092 191.498C244.068 194.662 241.225 199.445 241.225 199.445C249.885 193.217 270.54 170.284 270.54 170.284C275.636 169.215 290.936 163.493 292.841 162.77C294.068 159.774 294.715 156.572 294.747 153.334V153.334Z" fill="#4846A5"/>
<path d="M187.399 225.528L191.499 227.667L232.593 203.911C233.019 203.72 233.483 203.631 233.949 203.651C234.415 203.671 234.87 203.799 235.278 204.026L306.164 244.993C306.843 244.618 309.931 243.129 309.931 243.129L308.488 247.045C308.409 247.249 308.261 247.418 308.069 247.522L264.767 272.536C264.343 272.736 263.878 272.83 263.41 272.81C262.942 272.79 262.487 272.656 262.082 272.42L189.55 230.514C189.273 230.377 189.054 230.147 188.929 229.864V229.864L187.399 225.528Z" fill="url(#paint14_linear_2_464)"/>
<path d="M188.035 226.208L262.371 269.169C262.789 269.403 263.257 269.535 263.736 269.555C264.214 269.576 264.691 269.483 265.128 269.285L309.484 243.649C310.191 243.23 310.105 242.522 309.282 242.06L234.946 199.084C234.53 198.85 234.065 198.718 233.588 198.698C233.112 198.678 232.637 198.77 232.203 198.969L187.833 224.633C187.125 225.023 187.212 225.731 188.035 226.208Z" fill="url(#paint15_linear_2_464)"/>
<path d="M188.035 225.774L262.371 268.735C262.788 268.973 263.256 269.107 263.735 269.127C264.215 269.147 264.692 269.053 265.128 268.851L309.484 243.216C309.682 243.116 309.837 242.946 309.917 242.739C309.97 242.917 309.956 243.109 309.876 243.278C309.796 243.446 309.656 243.578 309.484 243.649L265.128 269.285C264.691 269.483 264.214 269.576 263.735 269.555C263.257 269.535 262.789 269.403 262.371 269.169L188.035 226.208C187.486 225.89 187.27 225.456 187.399 225.095C187.524 225.39 187.749 225.631 188.035 225.774Z" fill="white"/>
<path d="M284.469 249.473L222.763 213.766C222.563 213.645 222.333 213.581 222.099 213.581C221.865 213.581 221.636 213.645 221.435 213.766L199.437 226.511C199.366 226.553 199.306 226.613 199.265 226.686C199.223 226.758 199.201 226.84 199.201 226.923C199.201 227.006 199.223 227.088 199.265 227.16C199.306 227.233 199.366 227.293 199.437 227.335L261.187 263.028C261.39 263.141 261.618 263.201 261.851 263.201C262.084 263.201 262.312 263.141 262.515 263.028L284.542 250.297C284.61 250.249 284.665 250.183 284.701 250.107C284.736 250.031 284.751 249.947 284.744 249.864C284.736 249.78 284.707 249.7 284.659 249.632C284.611 249.563 284.545 249.508 284.469 249.473Z" fill="#ADB1F2"/>
<path d="M284.469 250.297L284.253 250.427L222.763 214.85C222.563 214.728 222.333 214.664 222.099 214.664C221.865 214.664 221.636 214.728 221.435 214.85L199.582 227.523L199.365 227.407C199.293 227.365 199.234 227.305 199.192 227.233C199.151 227.16 199.129 227.079 199.129 226.995C199.129 226.912 199.151 226.83 199.192 226.758C199.234 226.686 199.293 226.625 199.365 226.583L221.32 213.766C221.52 213.645 221.75 213.581 221.984 213.581C222.218 213.581 222.447 213.645 222.648 213.766L284.426 249.473C284.5 249.511 284.563 249.568 284.609 249.638C284.654 249.708 284.68 249.789 284.685 249.872C284.689 249.956 284.671 250.039 284.634 250.113C284.596 250.188 284.539 250.251 284.469 250.297V250.297Z" fill="#9198DB"/>
<path d="M219.703 216.988L276.603 249.892L279.432 248.765L222.085 215.615L219.703 216.988Z" fill="#24126A"/>
<path d="M213.857 220.37L264.189 249.473L266.571 248.086L216.239 218.997L213.857 220.37Z" fill="#24126A"/>
<path d="M210.032 222.581L269.299 256.828L271.695 255.455L212.428 221.193L210.032 222.581Z" fill="#24126A"/>
<path d="M206.236 224.777L265.488 259.039L267.884 257.652L208.618 223.404L206.236 224.777Z" fill="#24126A"/>
<path d="M202.425 226.974L261.678 261.236L264.074 259.848L204.807 225.601L202.425 226.974Z" fill="#24126A"/>
<path d="M276.603 249.892L278.984 251.265L281.38 249.892L278.984 248.505L276.603 249.892Z" fill="#24126A"/>
<path d="M261.288 247.797L273.139 254.646L275.52 253.259L263.598 246.366L261.288 247.797Z" fill="#24126A"/>
<path d="M262.486 233.476L245.858 223.838C245.194 223.462 245.194 222.855 245.858 222.479L257.247 215.89C257.611 215.705 258.014 215.608 258.423 215.608C258.832 215.608 259.235 215.705 259.599 215.89L276.17 225.528C276.309 225.579 276.43 225.671 276.515 225.793C276.6 225.914 276.645 226.059 276.645 226.208C276.645 226.356 276.6 226.501 276.515 226.622C276.43 226.744 276.309 226.836 276.17 226.887L264.781 233.476C264.424 233.652 264.032 233.744 263.634 233.744C263.236 233.744 262.843 233.652 262.486 233.476V233.476Z" fill="url(#paint16_linear_2_464)"/>
<path d="M276.17 226.078L259.513 216.454C259.148 216.268 258.745 216.172 258.336 216.172C257.928 216.172 257.524 216.268 257.16 216.454L245.858 223.043C245.684 223.13 245.538 223.265 245.439 223.433C245.266 223.115 245.439 222.74 245.858 222.479L257.247 215.89C257.611 215.705 258.014 215.608 258.423 215.608C258.832 215.608 259.235 215.705 259.599 215.89L276.17 225.528C276.617 225.789 276.747 226.15 276.574 226.482C276.482 226.31 276.342 226.169 276.17 226.078V226.078Z" fill="#9198DB"/>
<path d="M187.515 224.416L196.912 168.608L196.161 168.29L197.287 167.64C197.42 167.56 197.572 167.517 197.727 167.517C197.882 167.517 198.034 167.56 198.167 167.64L273.225 210.991C273.543 211.197 273.802 211.483 273.974 211.82C274.146 212.158 274.227 212.535 274.207 212.913L264.738 269.169C264.723 269.291 264.678 269.408 264.608 269.508C264.537 269.609 264.443 269.691 264.334 269.747V269.747L263.222 270.383L263.035 269.342L188.395 226.193C188.117 225.989 187.892 225.721 187.738 225.412C187.585 225.103 187.508 224.761 187.515 224.416Z" fill="url(#paint17_linear_2_464)"/>
<path d="M272.85 212.639L274.091 212.09C274.225 212.383 274.28 212.707 274.25 213.029L264.781 269.285C264.766 269.407 264.721 269.523 264.651 269.624C264.581 269.725 264.486 269.807 264.377 269.863V269.863L263.266 270.498L263.078 269.458L259.311 267.276L272.85 212.639Z" fill="url(#paint18_linear_2_464)"/>
<path d="M187.313 227.002L262.371 270.426C262.948 270.758 263.453 270.556 263.554 269.964L273.023 213.694C273.045 213.318 272.967 212.944 272.797 212.609C272.627 212.274 272.371 211.99 272.056 211.786L196.998 168.435C196.421 168.102 195.93 168.29 195.829 168.897L186.346 225.153C186.333 225.519 186.415 225.881 186.585 226.206C186.754 226.53 187.005 226.805 187.313 227.002V227.002Z" fill="#453C9E"/>
<g opacity="0.6">
<path opacity="0.6" d="M180.312 332.563L170.295 326.783L172.474 325.511L182.506 331.306L180.312 332.563Z" fill="#42E8E0"/>
<path opacity="0.6" d="M188.857 337.505L183.849 334.615L186.043 333.358L191.051 336.248L188.857 337.505Z" fill="#42E8E0"/>
<path opacity="0.6" d="M178.147 337.245L173.875 334.774L176.069 333.502L180.341 335.973L178.147 337.245Z" fill="#42E8E0"/>
<path opacity="0.6" d="M185.306 341.378L180.283 338.473L182.477 337.216L187.486 340.106L185.306 341.378Z" fill="#42E8E0"/>
<path opacity="0.6" d="M188.439 349.109L168.765 337.736L170.944 336.465L190.633 347.852L188.439 349.109Z" fill="#42E8E0"/>
<path opacity="0.6" d="M132.261 371.623L112.587 360.25L114.766 358.993L134.455 370.366L132.261 371.623Z" fill="#42E8E0"/>
<path opacity="0.6" d="M139.839 376.001L134.83 373.111L137.009 371.84L142.018 374.744L139.839 376.001Z" fill="#42E8E0"/>
<path opacity="0.6" d="M167.899 343.155L163.641 340.699L165.82 339.427L170.093 341.898L167.899 343.155Z" fill="#42E8E0"/>
<path opacity="0.6" d="M175.058 347.288L170.049 344.398L172.229 343.141L177.238 346.031L175.058 347.288Z" fill="#42E8E0"/>
<path opacity="0.6" d="M169.342 349.904L158.517 343.647L160.696 342.389L171.522 348.647L169.342 349.904Z" fill="#42E8E0"/>
<path opacity="0.6" d="M176.574 354.094L171.565 351.204L173.759 349.933L178.768 352.837L176.574 354.094Z" fill="#42E8E0"/>
<path opacity="0.6" d="M183.863 358.299L178.854 355.409L181.034 354.152L186.042 357.042L183.863 358.299Z" fill="#42E8E0"/>
<path opacity="0.6" d="M195.612 365.091L186.129 359.614L188.323 358.357L197.792 363.834L195.612 365.091Z" fill="#42E8E0"/>
<path opacity="0.6" d="M179.692 367.736L174.683 364.831L176.862 363.574L181.871 366.464L179.692 367.736Z" fill="#42E8E0"/>
<path opacity="0.6" d="M191.441 374.527L181.958 369.051L184.152 367.779L193.621 373.27L191.441 374.527Z" fill="#42E8E0"/>
<path opacity="0.6" d="M153.277 352.476L148.268 349.571L150.448 348.314L155.456 351.204L153.277 352.476Z" fill="#42E8E0"/>
<path opacity="0.6" d="M160.566 356.681L155.558 353.776L157.737 352.519L162.746 355.409L160.566 356.681Z" fill="#42E8E0"/>
<path opacity="0.6" d="M172.316 363.473L162.832 357.996L165.012 356.724L174.495 362.215L172.316 363.473Z" fill="#42E8E0"/>
<path opacity="0.6" d="M191.917 368.892L186.909 365.987L189.103 364.73L194.111 367.62L191.917 368.892Z" fill="#42E8E0"/>
<path opacity="0.6" d="M199.207 373.097L194.198 370.192L196.378 368.935L201.386 371.825L199.207 373.097Z" fill="#42E8E0"/>
<path opacity="0.6" d="M210.956 379.888L201.473 374.412L203.667 373.14L213.136 378.617L210.956 379.888Z" fill="#42E8E0"/>
<path opacity="0.6" d="M147.676 380.539L142.668 377.634L144.847 376.377L149.856 379.267L147.676 380.539Z" fill="#42E8E0"/>
<path opacity="0.6" d="M159.426 387.33L149.942 381.854L152.136 380.582L161.605 386.059L159.426 387.33Z" fill="#42E8E0"/>
<path opacity="0.6" d="M143.028 358.386L138.02 355.496L140.214 354.239L145.222 357.129L143.028 358.386Z" fill="#42E8E0"/>
<path opacity="0.6" d="M154.778 365.178L145.309 359.701L147.489 358.444L156.972 363.921L154.778 365.178Z" fill="#42E8E0"/>
<path opacity="0.6" d="M148.918 387.172L143.909 384.281L146.089 383.024L151.097 385.914L148.918 387.172Z" fill="#42E8E0"/>
<path opacity="0.6" d="M160.667 393.963L151.198 388.486L153.378 387.229L162.861 392.706L160.667 393.963Z" fill="#42E8E0"/>
<path opacity="0.6" d="M203.421 357.765L198.413 354.875L200.592 353.603L205.601 356.508L203.421 357.765Z" fill="#42E8E0"/>
<path opacity="0.6" d="M195.843 353.386L190.835 350.496L193.014 349.225L198.023 352.129L195.843 353.386Z" fill="#42E8E0"/>
<path opacity="0.6" d="M215.171 364.556L205.688 359.08L207.882 357.822L217.35 363.299L215.171 364.556Z" fill="#42E8E0"/>
<path opacity="0.6" d="M157.91 349.224L153.392 346.609L155.572 345.352L160.09 347.967L157.91 349.224Z" fill="#42E8E0"/>
<path opacity="0.6" d="M171.32 356.97L160.335 350.626L162.515 349.355L173.499 355.713L171.32 356.97Z" fill="#42E8E0"/>
<path opacity="0.6" d="M184.715 364.715L173.73 358.372L175.91 357.1L186.894 363.458L184.715 364.715Z" fill="#42E8E0"/>
<path opacity="0.6" d="M222.128 368.574L217.61 365.973L219.79 364.701L224.322 367.317L222.128 368.574Z" fill="#42E8E0"/>
<path opacity="0.6" d="M235.538 376.334L224.553 369.975L226.733 368.718L237.717 375.062L235.538 376.334Z" fill="#42E8E0"/>
<path opacity="0.6" d="M248.932 384.079L237.948 377.721L240.142 376.464L251.112 382.808L248.932 384.079Z" fill="#42E8E0"/>
<path opacity="0.6" d="M154.23 358.935L143.245 352.591L145.425 351.334L156.409 357.678L154.23 358.935Z" fill="#42E8E0"/>
<path opacity="0.6" d="M160.018 362.288L156.655 360.337L158.834 359.08L162.212 361.031L160.018 362.288Z" fill="#42E8E0"/>
<path opacity="0.6" d="M165.82 365.64L162.457 363.689L164.637 362.432L168.014 364.383L165.82 365.64Z" fill="#42E8E0"/>
<path opacity="0.6" d="M176.559 371.84L168.26 367.042L170.439 365.785L178.739 370.582L176.559 371.84Z" fill="#42E8E0"/>
<path opacity="0.6" d="M178.811 373.155L170.511 368.357L172.691 367.085L180.991 371.883L178.811 373.155Z" fill="#42E8E0"/>
<path opacity="0.6" d="M201.213 368.328L197.835 366.377L200.029 365.12L203.393 367.071L201.213 368.328Z" fill="#42E8E0"/>
<path opacity="0.6" d="M211.952 374.542L203.652 369.744L205.832 368.473L214.131 373.27L211.952 374.542Z" fill="#42E8E0"/>
<path opacity="0.6" d="M214.204 375.842L205.904 371.045L208.084 369.773L216.383 374.571L214.204 375.842Z" fill="#42E8E0"/>
<path opacity="0.6" d="M130.904 382.677L120.078 376.42L122.258 375.163L133.083 381.42L130.904 382.677Z" fill="#42E8E0"/>
<path opacity="0.6" d="M138.135 386.868L133.127 383.978L135.321 382.706L140.329 385.611L138.135 386.868Z" fill="#42E8E0"/>
<path opacity="0.6" d="M145.425 391.073L140.416 388.183L142.596 386.911L147.604 389.816L145.425 391.073Z" fill="#42E8E0"/>
<path opacity="0.6" d="M157.174 397.865L147.691 392.388L149.885 391.131L159.354 396.608L157.174 397.865Z" fill="#42E8E0"/>
<path opacity="0.6" d="M164.694 402.214L159.686 399.31L161.865 398.053L166.874 400.943L164.694 402.214Z" fill="#42E8E0"/>
<path opacity="0.6" d="M176.444 409.006L166.96 403.529L169.154 402.258L178.623 407.749L176.444 409.006Z" fill="#42E8E0"/>
<path opacity="0.6" d="M131.972 395.148L126.963 392.244L129.143 390.986L134.152 393.877L131.972 395.148Z" fill="#42E8E0"/>
<path opacity="0.6" d="M143.721 401.94L134.238 396.463L136.432 395.191L145.901 400.668L143.721 401.94Z" fill="#42E8E0"/>
<path opacity="0.6" d="M105.803 380.018L100.794 377.128L102.988 375.857L107.997 378.761L105.803 380.018Z" fill="#42E8E0"/>
<path opacity="0.6" d="M113.092 384.224L108.083 381.334L110.263 380.076L115.272 382.966L113.092 384.224Z" fill="#42E8E0"/>
<path opacity="0.6" d="M124.841 391.015L115.358 385.539L117.552 384.281L127.021 389.758L124.841 391.015Z" fill="#42E8E0"/>
<path opacity="0.6" d="M119.472 381.998L114.954 379.383L117.134 378.126L121.652 380.741L119.472 381.998Z" fill="#42E8E0"/>
<path opacity="0.6" d="M132.881 389.744L121.897 383.4L124.076 382.128L135.061 388.486L132.881 389.744Z" fill="#42E8E0"/>
<path opacity="0.6" d="M146.276 397.489L135.292 391.145L137.471 389.874L148.47 396.232L146.276 397.489Z" fill="#42E8E0"/>
<path opacity="0.6" d="M97.8928 381.377L86.9084 375.019L89.1024 373.761L100.087 380.105L97.8928 381.377Z" fill="#42E8E0"/>
<path opacity="0.6" d="M103.695 384.715L100.318 382.764L102.497 381.507L105.875 383.458L103.695 384.715Z" fill="#42E8E0"/>
<path opacity="0.6" d="M109.498 388.067L106.12 386.117L108.3 384.859L111.678 386.81L109.498 388.067Z" fill="#42E8E0"/>
<path opacity="0.6" d="M120.223 394.267L111.923 389.469L114.102 388.212L122.402 393.01L120.223 394.267Z" fill="#42E8E0"/>
<path opacity="0.6" d="M122.474 395.582L114.175 390.784L116.354 389.512L124.668 394.31L122.474 395.582Z" fill="#42E8E0"/>
<path opacity="0.6" d="M119.688 370.279L116.325 368.328L118.505 367.071L121.882 369.022L119.688 370.279Z" fill="#42E8E0"/>
<path opacity="0.6" d="M130.427 376.478L122.128 371.681L124.307 370.423L132.607 375.221L130.427 376.478Z" fill="#42E8E0"/>
<path opacity="0.6" d="M141.383 382.822L133.083 378.024L135.263 376.767L143.563 381.565L141.383 382.822Z" fill="#42E8E0"/>
<path opacity="0.6" d="M175.202 414.208L170.194 411.318L172.373 410.047L177.382 412.951L175.202 414.208Z" fill="#42E8E0"/>
<path opacity="0.6" d="M186.952 421L177.469 415.523L179.663 414.266L189.131 419.743L186.952 421Z" fill="#42E8E0"/>
<path opacity="0.6" d="M156.712 403.515L148.413 398.717L150.592 397.46L158.892 402.258L156.712 403.515Z" fill="#42E8E0"/>
<path opacity="0.6" d="M167.668 409.859L159.368 405.061L161.548 403.79L169.847 408.587L167.668 409.859Z" fill="#42E8E0"/>
<path opacity="0.6" d="M127.671 355.424L124.293 353.487L126.472 352.216L129.85 354.167L127.671 355.424Z" fill="#42E8E0"/>
<path opacity="0.6" d="M138.395 361.638L130.096 356.84L132.275 355.568L140.575 360.366L138.395 361.638Z" fill="#42E8E0"/>
<path opacity="0.6" d="M149.365 367.967L141.066 363.169L143.245 361.912L151.545 366.71L149.365 367.967Z" fill="#42E8E0"/>
</g>
<path d="M13.828 343.777C12.5838 343.816 11.3506 343.532 10.2483 342.953L1.51559 337.91C1.08588 337.706 0.718556 337.391 0.45197 336.997C0.185384 336.603 0.0293018 336.145 -1.90735e-06 335.67C0.0647488 335.047 0.292268 334.451 0.659665 333.944C1.02706 333.437 1.52138 333.035 2.09295 332.78L28.0745 317.78C29.3173 317.087 30.7054 316.695 32.1271 316.638C33.5487 316.58 34.964 316.857 36.2587 317.448L44.9914 322.491C45.4095 322.702 45.7638 323.021 46.0176 323.414C46.2713 323.808 46.4154 324.263 46.4349 324.731C46.3743 325.354 46.1501 325.949 45.785 326.457C45.4199 326.964 44.9269 327.366 44.3563 327.621L18.3747 342.635C16.976 343.384 15.4143 343.776 13.828 343.777ZM32.6791 317.26C31.1663 317.24 29.6743 317.614 28.3488 318.344L2.36721 333.358C1.89451 333.555 1.48109 333.872 1.16736 334.277C0.853627 334.683 0.650342 335.162 0.57738 335.67C0.608531 336.039 0.737295 336.392 0.950415 336.695C1.16353 336.997 1.4533 337.237 1.78985 337.39L10.4504 342.433C11.6544 342.973 12.9677 343.224 14.2859 343.167C15.604 343.109 16.8905 342.744 18.0428 342.1L44.0243 327.101C44.493 326.896 44.9019 326.574 45.2125 326.167C45.523 325.76 45.7251 325.281 45.7997 324.774C45.7671 324.406 45.6378 324.053 45.4249 323.751C45.2119 323.449 44.9229 323.209 44.5873 323.055L35.8546 318.011C34.8754 317.499 33.7836 317.241 32.6791 317.26V317.26Z" fill="#42E8E0"/>
<path d="M60.6957 370.871C59.452 370.905 58.2202 370.622 57.1161 370.048L28.0022 353.242C27.5868 353.024 27.2351 352.701 26.982 352.306C26.7289 351.911 26.5831 351.456 26.5588 350.987C26.6207 350.363 26.8471 349.767 27.2148 349.259C27.5826 348.751 28.0785 348.35 28.6518 348.097L54.6334 333.083C55.8776 332.394 57.2654 332.005 58.6862 331.948C60.107 331.89 61.5216 332.165 62.8176 332.751L91.8447 349.629C92.2764 349.83 92.6454 350.144 92.9123 350.539C93.1792 350.933 93.3341 351.393 93.3604 351.869C93.2984 352.491 93.0736 353.086 92.7087 353.593C92.3437 354.101 91.8516 354.503 91.2818 354.759L65.3003 369.773C63.8842 370.526 62.299 370.905 60.6957 370.871V370.871ZM59.1657 332.578C57.655 332.56 56.1647 332.928 54.8354 333.647L28.8539 348.661C28.3855 348.863 27.9764 349.181 27.6656 349.586C27.3549 349.99 27.1527 350.468 27.0784 350.973C27.1081 351.342 27.2363 351.696 27.4496 351.999C27.6629 352.301 27.9535 352.541 28.2909 352.693L57.4047 369.527C58.6062 370.067 59.9173 370.319 61.2331 370.261C62.5489 370.203 63.833 369.838 64.9827 369.195L90.9643 354.181C91.4327 353.979 91.8417 353.661 92.1525 353.256C92.4632 352.852 92.6654 352.374 92.7397 351.869C92.71 351.5 92.5818 351.146 92.3685 350.843C92.1552 350.541 91.8647 350.301 91.5272 350.149L62.4134 333.329C61.4127 332.805 60.2946 332.546 59.1657 332.578V332.578Z" fill="#42E8E0"/>
<path d="M103.695 345.93C102.391 345.963 101.1 345.665 99.9424 345.063L44.7316 313.156C44.2815 312.944 43.8965 312.615 43.6172 312.203C43.3378 311.792 43.1743 311.312 43.1438 310.815C43.215 310.171 43.4538 309.558 43.8363 309.035C44.2188 308.513 44.7316 308.1 45.3234 307.838L99.3506 276.654C100.666 275.92 102.135 275.507 103.64 275.446C105.144 275.386 106.642 275.681 108.011 276.307L163.222 308.228C163.673 308.439 164.059 308.768 164.338 309.18C164.618 309.592 164.781 310.072 164.81 310.569C164.734 311.212 164.494 311.824 164.112 312.346C163.73 312.867 163.219 313.281 162.63 313.546L108.603 344.774C107.092 345.572 105.403 345.97 103.695 345.93V345.93ZM100.246 344.485C101.512 345.058 102.896 345.325 104.285 345.265C105.674 345.205 107.029 344.819 108.242 344.138L162.269 312.925C162.764 312.708 163.196 312.369 163.524 311.939C163.853 311.509 164.066 311.003 164.146 310.468C164.112 310.078 163.975 309.704 163.749 309.384C163.524 309.064 163.217 308.81 162.861 308.648L107.65 276.726C106.382 276.16 104.999 275.897 103.611 275.957C102.223 276.017 100.869 276.399 99.6537 277.073L45.6265 308.301C45.1291 308.514 44.6951 308.852 44.3664 309.283C44.0377 309.713 43.8254 310.221 43.75 310.757C43.7839 311.148 43.9207 311.522 44.1464 311.842C44.3721 312.162 44.6786 312.416 45.0347 312.578L100.246 344.485Z" fill="#42E8E0"/>
</g>
<defs>
<linearGradient id="paint0_linear_2_464" x1="201.675" y1="141.817" x2="510.856" y2="141.817" gradientUnits="userSpaceOnUse">
<stop stop-color="#42E8E0"/>
<stop offset="0.11" stop-color="#37B6BF"/>
<stop offset="0.22" stop-color="#2C87A1"/>
<stop offset="0.34" stop-color="#235F87"/>
<stop offset="0.46" stop-color="#1C3F72"/>
<stop offset="0.58" stop-color="#162561"/>
<stop offset="0.71" stop-color="#121355"/>
<stop offset="0.85" stop-color="#10084E"/>
<stop offset="1" stop-color="#0F054C"/>
</linearGradient>
<linearGradient id="paint1_linear_2_464" x1="99810.1" y1="36408.4" x2="166040" y2="36408.4" gradientUnits="userSpaceOnUse">
<stop stop-color="#42E8E0"/>
<stop offset="0.11" stop-color="#37B6BF"/>
<stop offset="0.22" stop-color="#2C87A1"/>
<stop offset="0.34" stop-color="#235F87"/>
<stop offset="0.46" stop-color="#1C3F72"/>
<stop offset="0.58" stop-color="#162561"/>
<stop offset="0.71" stop-color="#121355"/>
<stop offset="0.85" stop-color="#10084E"/>
<stop offset="1" stop-color="#0F054C"/>
</linearGradient>
<linearGradient id="paint2_linear_2_464" x1="325.275" y1="286.972" x2="235.339" y2="308.904" gradientUnits="userSpaceOnUse">
<stop stop-color="#5761D7"/>
<stop offset="0.18" stop-color="#5C66D9"/>
<stop offset="0.39" stop-color="#6A73DF"/>
<stop offset="0.61" stop-color="#8289E8"/>
<stop offset="0.85" stop-color="#A3A7F5"/>
<stop offset="1" stop-color="#BCBEFF"/>
</linearGradient>
<linearGradient id="paint3_linear_2_464" x1="19608.8" y1="4996.9" x2="22756.7" y2="4996.9" gradientUnits="userSpaceOnUse">
<stop stop-color="#5761D7"/>
<stop offset="0.18" stop-color="#5C66D9"/>
<stop offset="0.39" stop-color="#6A73DF"/>
<stop offset="0.61" stop-color="#8289E8"/>
<stop offset="0.85" stop-color="#A3A7F5"/>
<stop offset="1" stop-color="#BCBEFF"/>
</linearGradient>
<linearGradient id="paint4_linear_2_464" x1="13742.9" y1="6032.24" x2="13313.1" y2="5532.28" gradientUnits="userSpaceOnUse">
<stop stop-color="#5761D7"/>
<stop offset="0.18" stop-color="#5C66D9"/>
<stop offset="0.39" stop-color="#6A73DF"/>
<stop offset="0.61" stop-color="#8289E8"/>
<stop offset="0.85" stop-color="#A3A7F5"/>
<stop offset="1" stop-color="#BCBEFF"/>
</linearGradient>
<linearGradient id="paint5_linear_2_464" x1="23534.6" y1="5849.28" x2="26817.9" y2="5849.28" gradientUnits="userSpaceOnUse">
<stop stop-color="#5761D7"/>
<stop offset="0.18" stop-color="#5C66D9"/>
<stop offset="0.39" stop-color="#6A73DF"/>
<stop offset="0.61" stop-color="#8289E8"/>
<stop offset="0.85" stop-color="#A3A7F5"/>
<stop offset="1" stop-color="#BCBEFF"/>
</linearGradient>
<linearGradient id="paint6_linear_2_464" x1="7077.2" y1="9666.24" x2="7261.18" y2="9666.24" gradientUnits="userSpaceOnUse">
<stop stop-color="#5761D7"/>
<stop offset="0.18" stop-color="#5C66D9"/>
<stop offset="0.39" stop-color="#6A73DF"/>
<stop offset="0.61" stop-color="#8289E8"/>
<stop offset="0.85" stop-color="#A3A7F5"/>
<stop offset="1" stop-color="#BCBEFF"/>
</linearGradient>
<linearGradient id="paint7_linear_2_464" x1="320.338" y1="292.853" x2="434.268" y2="292.853" gradientUnits="userSpaceOnUse">
<stop stop-color="#C0BFF6"/>
<stop offset="0.29" stop-color="#C5C4F7"/>
<stop offset="0.64" stop-color="#D3D2F9"/>
<stop offset="1" stop-color="#E9E9FD"/>
</linearGradient>
<linearGradient id="paint8_linear_2_464" x1="263.468" y1="191.469" x2="306.583" y2="191.469" gradientUnits="userSpaceOnUse">
<stop stop-color="#E9E9FD"/>
<stop offset="0.36" stop-color="#D3D2F9"/>
<stop offset="0.71" stop-color="#C5C4F7"/>
<stop offset="1" stop-color="#C0BFF6"/>
</linearGradient>
<linearGradient id="paint9_linear_2_464" x1="357.449" y1="120.56" x2="316.433" y2="225.96" gradientUnits="userSpaceOnUse">
<stop offset="0.35" stop-color="#BCBEFF"/>
<stop offset="0.44" stop-color="#B5B8FC"/>
<stop offset="0.57" stop-color="#A3A7F5"/>
<stop offset="0.7" stop-color="#898FEB"/>
<stop offset="0.86" stop-color="#6069DB"/>
<stop offset="0.89" stop-color="#5761D7"/>
</linearGradient>
<linearGradient id="paint10_linear_2_464" x1="18839.3" y1="4799.66" x2="20126.9" y2="4799.66" gradientUnits="userSpaceOnUse">
<stop stop-color="#E9E9FD"/>
<stop offset="0.36" stop-color="#D3D2F9"/>
<stop offset="0.71" stop-color="#C5C4F7"/>
<stop offset="1" stop-color="#C0BFF6"/>
</linearGradient>
<linearGradient id="paint11_linear_2_464" x1="112.255" y1="243.014" x2="405.919" y2="243.014" gradientUnits="userSpaceOnUse">
<stop stop-color="#42E8E0"/>
<stop offset="0.15" stop-color="#43E3E0"/>
<stop offset="0.33" stop-color="#45D5DF"/>
<stop offset="0.52" stop-color="#49BDDD"/>
<stop offset="0.72" stop-color="#4E9CDB"/>
<stop offset="0.93" stop-color="#5472D8"/>
<stop offset="1" stop-color="#5761D7"/>
</linearGradient>
<linearGradient id="paint12_linear_2_464" x1="14102.4" y1="23747.1" x2="73848.4" y2="23747.1" gradientUnits="userSpaceOnUse">
<stop offset="0.35" stop-color="#BCBEFF"/>
<stop offset="0.44" stop-color="#B5B8FC"/>
<stop offset="0.57" stop-color="#A3A7F5"/>
<stop offset="0.7" stop-color="#898FEB"/>
<stop offset="0.86" stop-color="#6069DB"/>
<stop offset="0.89" stop-color="#5761D7"/>
</linearGradient>
<linearGradient id="paint13_linear_2_464" x1="22950.5" y1="27823.1" x2="82696.5" y2="27823.1" gradientUnits="userSpaceOnUse">
<stop stop-color="#E9E9FD"/>
<stop offset="0.36" stop-color="#D3D2F9"/>
<stop offset="0.71" stop-color="#C5C4F7"/>
<stop offset="1" stop-color="#C0BFF6"/>
</linearGradient>
<linearGradient id="paint14_linear_2_464" x1="-41332.7" y1="13165.1" x2="-51735.7" y2="13165.1" gradientUnits="userSpaceOnUse">
<stop stop-color="#5761D7"/>
<stop offset="0.18" stop-color="#5C66D9"/>
<stop offset="0.39" stop-color="#6A73DF"/>
<stop offset="0.61" stop-color="#8289E8"/>
<stop offset="0.85" stop-color="#A3A7F5"/>
<stop offset="1" stop-color="#BCBEFF"/>
</linearGradient>
<linearGradient id="paint15_linear_2_464" x1="-44856.2" y1="13277.9" x2="-55270.4" y2="13277.9" gradientUnits="userSpaceOnUse">
<stop stop-color="#C0BFF6"/>
<stop offset="0.29" stop-color="#C5C4F7"/>
<stop offset="0.64" stop-color="#D3D2F9"/>
<stop offset="1" stop-color="#E9E9FD"/>
</linearGradient>
<linearGradient id="paint16_linear_2_464" x1="-11086" y1="3444.28" x2="-11766.2" y2="3444.28" gradientUnits="userSpaceOnUse">
<stop stop-color="#C0BFF6"/>
<stop offset="0.29" stop-color="#C5C4F7"/>
<stop offset="0.64" stop-color="#D3D2F9"/>
<stop offset="1" stop-color="#E9E9FD"/>
</linearGradient>
<linearGradient id="paint17_linear_2_464" x1="-31291" y1="18078.5" x2="-36501.4" y2="18078.5" gradientUnits="userSpaceOnUse">
<stop stop-color="#C0BFF6"/>
<stop offset="0.29" stop-color="#C5C4F7"/>
<stop offset="0.64" stop-color="#D3D2F9"/>
<stop offset="1" stop-color="#E9E9FD"/>
</linearGradient>
<linearGradient id="paint18_linear_2_464" x1="-5194.24" y1="11282.3" x2="-5348.5" y2="11282.3" gradientUnits="userSpaceOnUse">
<stop stop-color="#5761D7"/>
<stop offset="0.18" stop-color="#5C66D9"/>
<stop offset="0.39" stop-color="#6A73DF"/>
<stop offset="0.61" stop-color="#8289E8"/>
<stop offset="0.85" stop-color="#A3A7F5"/>
<stop offset="1" stop-color="#BCBEFF"/>
</linearGradient>
<clipPath id="clip0_2_464">
<rect width="511" height="421" fill="white"/>
</clipPath>
</defs>
</svg>
