<svg width="359" height="358" viewBox="0 0 359 358" fill="none" xmlns="http://www.w3.org/2000/svg">
<g clip-path="url(#clip0_15_326)">
<path d="M313.421 306.996C306.141 314.661 299.253 319.603 293.811 323.508C229.84 369.407 154.146 356.029 138.059 352.76C114.303 347.936 68.3826 338.604 35.1841 299.567C-15.0428 240.501 -7.22236 147.444 31.7407 86.0157C38.866 74.7786 76.5053 12.4155 153.026 2.41428C199.33 -3.63851 253.304 8.56909 292.391 41.3123C374.432 110.055 368.591 248.919 313.421 306.996Z" fill="#1E1266"/>
<path d="M305.641 149.88C302.362 161.845 258.151 156.166 212.764 139.663C156.81 119.317 138.922 94.827 142.516 82.9535C144.143 77.5831 187.457 78.7526 231.4 98.7831C275.343 118.814 307.809 141.937 305.641 149.88Z" fill="url(#paint0_linear_15_326)"/>
<path d="M277.7 107.536C305.363 84.7378 333.366 76.1534 358.917 77.7744V109.029C341.883 98.1353 313.043 110.138 281.847 117.838L277.7 107.536Z" fill="url(#paint1_linear_15_326)"/>
<path d="M198.803 150.595C-76.0859 225.863 12.312 421.217 214.593 281.979L213.369 278.424C25.4302 386.098 -39.3394 247.909 201.543 161.881L198.803 150.595Z" fill="url(#paint2_linear_15_326)"/>
<path d="M186.875 282.132C193.035 287.199 196.973 291.922 199.746 303.2C199.762 303.269 199.799 303.331 199.851 303.378C199.903 303.425 199.968 303.456 200.037 303.467C200.107 303.477 200.178 303.466 200.241 303.436C200.305 303.405 200.358 303.357 200.393 303.296C205.53 294.638 212.322 287.137 218.904 278.641C219.008 278.507 219.069 278.344 219.079 278.174C219.09 278.004 219.048 277.835 218.961 277.689C218.874 277.543 218.744 277.427 218.59 277.355C218.435 277.284 218.263 277.261 218.095 277.289C206.794 279.181 196.718 281.817 187.113 281.498C187.038 281.493 186.963 281.513 186.899 281.554C186.836 281.596 186.787 281.656 186.76 281.727C186.734 281.798 186.731 281.875 186.751 281.948C186.772 282.021 186.815 282.085 186.875 282.132Z" fill="url(#paint3_linear_15_326)"/>
<path d="M119.696 201.34L109.799 216.566C114.403 225.537 119.517 230.488 124.634 232.842C125.547 227.254 128.811 222.615 131.207 219.86C122.077 214.669 119.696 201.34 119.696 201.34Z" fill="#00B2A9"/>
<path d="M153.7 217.126C143.567 223.12 136.324 222.772 131.205 219.86C128.809 222.615 125.545 227.257 124.632 232.842C140.896 240.326 157.182 221.492 157.182 221.492L153.7 217.126Z" fill="url(#paint4_linear_15_326)"/>
<path d="M154.25 219.734C154.25 219.734 151.515 214.966 155.449 211.304C155.449 211.304 156.725 209.857 158.111 211.983C158.111 211.983 162.342 208.14 163.5 209.687C164.658 211.234 167.726 215.066 164.729 219.437C161.698 223.859 155.587 221.888 154.25 219.734Z" fill="url(#paint5_linear_15_326)"/>
<path d="M158.41 217.11C157.979 217.12 157.552 217.015 157.175 216.805C156.792 216.58 156.318 216.111 156.196 215.156C156.184 215.086 156.187 215.014 156.204 214.945C156.22 214.876 156.251 214.811 156.293 214.754C156.335 214.697 156.389 214.649 156.451 214.613C156.512 214.577 156.58 214.555 156.651 214.546C156.721 214.537 156.793 214.543 156.861 214.563C156.929 214.583 156.993 214.616 157.048 214.661C157.103 214.706 157.148 214.762 157.181 214.825C157.213 214.888 157.233 214.957 157.238 215.028C157.293 215.462 157.448 215.749 157.708 215.904C158.066 216.119 158.6 216.08 159.002 215.997L158.053 212.988C158.014 212.855 158.028 212.713 158.093 212.591C158.158 212.47 158.268 212.378 158.4 212.337C158.531 212.295 158.674 212.307 158.796 212.37C158.919 212.433 159.012 212.542 159.056 212.673L160.165 216.194C160.206 216.321 160.196 216.458 160.139 216.578C160.081 216.698 159.981 216.792 159.857 216.84C159.394 217.013 158.904 217.104 158.41 217.11Z" fill="#F79E6D"/>
<path d="M10.2831 319.384C9.40185 319.914 8.95165 321.031 9.16208 322.124C9.9885 326.429 12.7037 337.802 19.2998 344.534C19.3925 344.634 19.5049 344.714 19.6299 344.768C19.7549 344.823 19.8898 344.851 20.0261 344.851C20.1624 344.851 20.2973 344.823 20.4223 344.768C20.5473 344.714 20.6597 344.634 20.7524 344.534C19.0817 342.795 17.0105 339.815 14.5899 334.769C10.8698 327.008 10.1798 322.221 10.2831 319.384Z" fill="url(#paint6_linear_15_326)"/>
<path d="M18.801 319.219C18.801 319.219 14.5477 316.905 10.3123 319.359L10.283 319.381C10.1797 322.217 10.8696 327.005 14.5898 334.769C17.013 339.821 19.0816 342.795 20.7523 344.534C20.8817 344.398 20.9762 344.232 21.0278 344.051C22.2661 339.752 24.8831 327.79 18.801 319.219Z" fill="#00B2A9"/>
<path d="M24.9383 319.49L21.0842 323.189C20.7543 323.508 20.3257 323.705 19.8689 323.748C19.4121 323.791 18.9542 323.678 18.5705 323.426C17.6905 322.835 17.0077 321.994 16.6103 321.012C16.4622 320.655 16.4186 320.263 16.4845 319.882C16.5504 319.501 16.7232 319.147 16.9827 318.86L20.8355 314.628C21.0491 314.392 21.3148 314.211 21.6114 314.097C21.908 313.984 22.2271 313.942 22.5431 313.974C22.859 314.006 23.1629 314.112 23.4303 314.284C23.6977 314.455 23.9211 314.687 24.0825 314.96L25.2852 316.995C25.5176 317.389 25.6098 317.85 25.5468 318.303C25.4838 318.756 25.2693 319.175 24.9383 319.49V319.49Z" fill="url(#paint7_linear_15_326)"/>
<path d="M149.512 300.942C150.405 301.446 151.601 301.285 152.446 300.559C155.779 297.714 164.324 289.733 166.916 280.67C166.957 280.54 166.971 280.403 166.957 280.268C166.943 280.132 166.901 280.001 166.834 279.882C166.767 279.764 166.676 279.66 166.568 279.578C166.459 279.496 166.334 279.438 166.201 279.406C165.515 281.719 163.953 284.988 160.758 289.59C155.851 296.664 152.03 299.629 149.512 300.942Z" fill="url(#paint8_linear_15_326)"/>
<path d="M145.164 293.617C145.164 293.617 145.254 298.457 149.481 300.926C149.491 300.926 149.502 300.937 149.513 300.942C152.03 299.629 155.851 296.664 160.762 289.591C163.951 284.99 165.519 281.72 166.205 279.408C166.023 279.362 165.832 279.362 165.649 279.408C161.295 280.458 149.606 284.096 145.164 293.617Z" fill="#00B2A9"/>
<path d="M144.865 285.602L148.893 289.11C149.24 289.411 149.475 289.82 149.559 290.271C149.642 290.723 149.57 291.189 149.353 291.593C148.844 292.523 148.067 293.278 147.124 293.762C146.782 293.941 146.396 294.02 146.01 293.988C145.625 293.957 145.257 293.817 144.948 293.584L140.389 290.129C140.136 289.938 139.932 289.689 139.792 289.404C139.653 289.119 139.582 288.805 139.586 288.487C139.59 288.17 139.668 287.858 139.815 287.576C139.961 287.295 140.172 287.051 140.43 286.866L142.343 285.486C142.714 285.217 143.166 285.082 143.624 285.103C144.082 285.124 144.52 285.3 144.865 285.602V285.602Z" fill="url(#paint9_linear_15_326)"/>
<path d="M64.0631 250.095C64.0631 250.095 56.2045 276.867 51.1248 288.633C51.1248 288.633 42.2433 289.988 36.7465 293.2C31.2498 296.413 19.4019 314.213 19.4019 314.213C19.4019 314.213 22.4946 320.08 26.2249 320.984L59.9374 297.627L86.8382 266.344L85.5629 251.833L64.0631 250.095Z" fill="#9387FF"/>
<path d="M64.5476 247.909L62.252 255.24C62.252 255.24 64.3461 274.461 88.5776 271.219C112.809 267.977 115.853 264.022 115.853 264.022C115.853 264.022 113.75 276.297 140.246 291.059C140.246 291.059 144.273 288.019 145.16 284.566L126.596 253.962C124.013 249.947 121.622 248.89 116.903 249.626C106.476 251.257 86.9515 253.383 83.9991 252.878L64.5476 247.909Z" fill="#786BF0"/>
<path d="M83.4764 193.394C76.4161 193.753 65.2543 197.11 58.0435 203.748C60.26 206.194 63.6703 210.172 66.212 214.101C68.4834 211.969 71.7445 210.192 76.337 209.054C72.3668 223.891 67.6761 238.024 61.9588 251.161C61.8724 251.355 61.8272 251.564 61.8259 251.776C61.8246 251.987 61.8672 252.197 61.9511 252.391C62.035 252.586 62.1584 252.761 62.3134 252.905C62.4683 253.049 62.6516 253.16 62.8515 253.23C67.2757 254.772 80.3237 258.443 90.7815 252.531L113.98 219.311C116.476 215.739 118.116 211.64 118.774 207.333L119.69 201.339C119.69 201.339 98.8583 192.611 83.4764 193.394Z" fill="#00B2A9"/>
<path d="M70.82 243.663C69.8112 241.437 66.3563 239.357 64.7111 238.463C63.2789 235.509 57.5578 222.221 66.2071 214.104C63.6654 210.174 60.2551 206.196 58.0385 203.75C49.7195 211.402 46.674 223.439 61.2626 240.285C60.4668 244.434 63.0647 249.265 64.4688 249.942C65.1116 250.252 72.1592 246.622 70.82 243.663Z" fill="#FFC1BF"/>
<path d="M77.6725 209.061C77.5436 209.06 77.4197 209.011 77.3244 208.924C77.229 208.838 77.1688 208.719 77.1553 208.591C77.1417 208.462 77.1758 208.334 77.2509 208.229C77.3261 208.124 77.4371 208.051 77.5628 208.023L84.0135 206.63C84.1418 206.618 84.2702 206.653 84.3743 206.729C84.4784 206.804 84.5509 206.916 84.5782 207.042C84.6054 207.168 84.5854 207.299 84.522 207.412C84.4586 207.524 84.3561 207.609 84.2342 207.65L77.7848 209.043C77.748 209.053 77.7104 209.059 77.6725 209.061Z" fill="#00968E"/>
<path d="M99.1425 184.57L93.0808 196.431C92.8996 196.784 92.8297 197.183 92.8802 197.577C92.9308 197.97 93.0995 198.339 93.364 198.635C94.8319 200.27 98.2983 202.925 104.332 201.022C104.657 200.916 104.947 200.721 105.166 200.458C105.386 200.196 105.528 199.877 105.575 199.538L107.154 188.764L99.1425 184.57Z" fill="#FEBBBA"/>
<path d="M109.247 170.795C109.247 170.795 112.802 178.958 113.04 183.248C113.279 187.538 114.203 190.314 109.247 191.178C104.291 192.041 100.116 189.572 97.8545 185.302C97.8545 185.302 94.3103 178.724 95.1049 176.029C95.8994 173.335 109.247 170.795 109.247 170.795Z" fill="url(#paint10_linear_15_326)"/>
<path d="M99.5458 182.233L99.829 182.105C99.914 182.068 99.9905 182.013 100.054 181.945C100.117 181.877 100.166 181.797 100.197 181.709C100.228 181.622 100.241 181.529 100.234 181.436C100.228 181.343 100.203 181.253 100.161 181.17C99.4617 179.82 98.0996 176.726 99.8596 176.004C102.128 175.074 111.113 173.242 113.052 170.053C114.914 166.992 113.263 163.039 110.783 161.909C110.704 161.871 110.613 161.866 110.53 161.893C110.447 161.92 110.377 161.977 110.335 162.054L110.129 162.446C110.097 162.505 110.049 162.554 109.99 162.585C109.931 162.617 109.863 162.63 109.797 162.623C109.73 162.616 109.667 162.59 109.615 162.547C109.564 162.504 109.526 162.446 109.508 162.382V162.382C109.49 162.32 109.454 162.264 109.405 162.222C109.357 162.179 109.297 162.152 109.233 162.143C109.169 162.133 109.103 162.143 109.045 162.17C108.986 162.197 108.936 162.241 108.902 162.295C108.305 163.249 106.697 164.795 102.398 165.589C96.2835 166.718 92.2407 169.192 92.1399 173.418C92.1392 173.478 92.1223 173.537 92.091 173.588C92.0596 173.64 92.0151 173.682 91.9619 173.71C91.9087 173.739 91.8489 173.752 91.7887 173.75C91.7285 173.747 91.6701 173.728 91.6196 173.696C91.1681 173.42 90.445 173.291 89.4795 174.102C87.7999 175.514 88.4873 179.177 92.168 182.189C92.2095 182.222 92.2429 182.263 92.2654 182.311C92.2879 182.358 92.2988 182.41 92.2973 182.463C92.2959 182.516 92.282 182.567 92.2568 182.613C92.2317 182.659 92.196 182.699 92.1527 182.729C91.4857 183.164 90.4947 184.197 93.0684 185.575C95.7338 187 97.7246 186.884 98.4924 186.756C98.5374 186.749 98.5803 186.732 98.6186 186.707C98.6569 186.683 98.6898 186.65 98.7152 186.613C98.7406 186.575 98.7581 186.532 98.7665 186.487C98.7749 186.443 98.774 186.397 98.764 186.352L97.9453 182.638C97.9344 182.589 97.9347 182.538 97.9462 182.489C97.9577 182.44 97.98 182.394 98.0116 182.355C98.0432 182.315 98.0832 182.284 98.1286 182.262C98.1741 182.24 98.2239 182.229 98.2743 182.229L99.5458 182.233Z" fill="url(#paint11_linear_15_326)"/>
<path d="M99.701 183.012C99.701 183.012 98.3453 177.794 96.0026 179.257C93.6598 180.72 97.2167 185.102 99.0965 185.297L99.701 183.012Z" fill="url(#paint12_linear_15_326)"/>
<path d="M249.085 274.608C255.689 268.004 255.689 257.296 249.085 250.692C242.481 244.088 231.774 244.088 225.169 250.692C218.565 257.296 218.565 268.004 225.169 274.608C231.774 281.212 242.481 281.212 249.085 274.608Z" fill="url(#paint13_linear_15_326)"/>
<path d="M322.348 75.9353C322.348 108.098 273.906 190.153 248.672 230.627C246.713 233.768 242.495 235.676 234.684 235.676C230.985 235.676 232.439 233.763 230.475 230.619C205.24 190.141 156.809 108.094 156.809 75.9353C156.809 33.9981 193.862 0 239.578 0C285.294 0 322.348 33.9981 322.348 75.9353Z" fill="#038B84"/>
<path d="M317.451 75.9353C317.451 108.098 269.008 190.153 243.773 230.627C242.811 232.172 241.47 233.446 239.879 234.33C238.287 235.213 236.496 235.676 234.676 235.675C232.856 235.674 231.065 235.21 229.474 234.325C227.884 233.441 226.544 232.165 225.583 230.619C200.346 190.141 151.91 108.094 151.91 75.9353C151.91 33.9981 188.968 0 234.68 0C280.392 0 317.451 33.9981 317.451 75.9353Z" fill="#00B2A9"/>
<path d="M272.422 115.149C292.15 95.4209 292.15 63.4348 272.422 43.7065C252.694 23.9781 220.708 23.9781 200.979 43.7065C181.251 63.4348 181.251 95.4209 200.979 115.149C220.708 134.878 252.694 134.878 272.422 115.149Z" fill="white"/>
<path d="M243.031 73.8887L237.882 74.8116C237.028 74.9649 236.46 75.7795 236.615 76.6309C236.768 77.4828 237.586 78.0488 238.438 77.8955L243.587 76.9727C244.813 76.7521 245.568 77.4833 245.87 78.2399C246.169 78.9966 246.117 80.0447 245.073 80.7195L237.515 85.6026C236.813 86.0552 235.959 86.0879 235.225 85.6907C234.493 85.2934 234.055 84.5591 234.055 83.7274V71.7074C234.055 69.7084 233.003 67.9455 231.242 66.9911C229.482 66.0366 227.426 66.1159 225.744 67.2019L206.738 79.4808C204.599 80.8625 203.791 83.3789 204.728 85.7424C205.665 88.1055 207.979 89.3904 210.487 88.9424L227.084 85.9667C227.938 85.8134 228.506 84.9993 228.352 84.1474C228.199 83.296 227.382 82.7289 226.528 82.8827L209.932 85.8585C208.704 86.0775 207.95 85.3468 207.65 84.5907C207.35 83.8341 207.402 82.7854 208.446 82.1106L227.452 69.8311C228.152 69.379 229.008 69.3459 229.742 69.7436C230.474 70.1408 230.912 70.8752 230.912 71.7074V83.7274C230.912 85.7259 231.963 87.4887 233.724 88.4432C234.542 88.8865 235.424 89.1066 236.301 89.1066C237.314 89.1066 238.322 88.8145 239.223 88.2324L246.781 83.3493C248.919 81.9676 249.727 79.4518 248.79 77.0882C247.853 74.7246 245.537 73.4402 243.031 73.8887ZM269.614 77.0882C268.677 74.7251 266.362 73.4387 263.855 73.8887L258.707 74.8116C257.852 74.9649 257.285 75.7795 257.438 76.6309C257.592 77.4828 258.408 78.0488 259.262 77.8955L264.411 76.9727C265.636 76.7521 266.393 77.4833 266.693 78.2399C266.993 78.9966 266.941 80.0447 265.897 80.7195L258.339 85.6026C257.637 86.0552 256.782 86.0879 256.05 85.6907C255.316 85.2934 254.879 84.5591 254.879 83.7274V67.9026C254.879 67.0377 254.175 66.3365 253.308 66.3365C252.44 66.3365 251.737 67.0377 251.737 67.9026V83.7274C251.737 85.7259 252.788 87.4887 254.549 88.4432C255.367 88.8865 256.248 89.1066 257.127 89.1066C258.138 89.1066 259.147 88.8145 260.048 88.2324L267.605 83.3493C269.744 81.9681 270.551 79.4518 269.614 77.0882Z" fill="#00A94F"/>
<path d="M143.066 82.2712C140.543 84.2199 139.15 87.4376 138.296 91.5531C136.963 97.9771 138.559 104.65 142.357 109.998C170.188 149.192 236.774 169.769 295.819 162.67C298.09 162.4 300.211 161.399 301.863 159.819C303.516 158.238 304.609 156.163 304.98 153.906L305.889 148.324C305.947 147.958 305.921 147.584 305.813 147.23C305.705 146.876 305.518 146.551 305.265 146.28C305.012 146.01 304.701 145.8 304.355 145.668C304.01 145.535 303.638 145.484 303.269 145.517C277.154 147.889 251.475 145.468 225.832 140.502C166.024 128.917 141.185 90.5775 143.707 84.7632C144.025 84.0324 144.424 83.257 145.076 82.7979C146.753 81.6157 149.686 80.5648 152.154 80.1771C148.694 80.0317 144.975 80.7956 143.066 82.2712Z" fill="url(#paint14_linear_15_326)"/>
</g>
<defs>
<linearGradient id="paint0_linear_15_326" x1="271.001" y1="3.23258" x2="206.555" y2="158.702" gradientUnits="userSpaceOnUse">
<stop stop-color="#E1473D"/>
<stop offset="1" stop-color="#E9605A"/>
</linearGradient>
<linearGradient id="paint1_linear_15_326" x1="585.572" y1="-331.591" x2="149.833" y2="385.56" gradientUnits="userSpaceOnUse">
<stop stop-color="#FF928E"/>
<stop offset="1" stop-color="#FE7062"/>
</linearGradient>
<linearGradient id="paint2_linear_15_326" x1="841523" y1="-446376" x2="240674" y2="590524" gradientUnits="userSpaceOnUse">
<stop stop-color="#FF928E"/>
<stop offset="1" stop-color="#FE7062"/>
</linearGradient>
<linearGradient id="paint3_linear_15_326" x1="160409" y1="-56911.1" x2="80521.6" y2="105442" gradientUnits="userSpaceOnUse">
<stop stop-color="#FF928E"/>
<stop offset="1" stop-color="#FE7062"/>
</linearGradient>
<linearGradient id="paint4_linear_15_326" x1="161.107" y1="214.371" x2="86.7477" y2="250.393" gradientUnits="userSpaceOnUse">
<stop stop-color="#FEBBBA"/>
<stop offset="1" stop-color="#FF928E"/>
</linearGradient>
<linearGradient id="paint5_linear_15_326" x1="21601.9" y1="27558" x2="14188.9" y2="31123.9" gradientUnits="userSpaceOnUse">
<stop stop-color="#FEBBBA"/>
<stop offset="1" stop-color="#FF928E"/>
</linearGradient>
<linearGradient id="paint6_linear_15_326" x1="5793.81" y1="78225.5" x2="6856.45" y2="78225.5" gradientUnits="userSpaceOnUse">
<stop stop-color="#4F52FF"/>
<stop offset="1" stop-color="#4042E2"/>
</linearGradient>
<linearGradient id="paint7_linear_15_326" x1="5068.87" y1="29256.5" x2="5719.71" y2="29256.5" gradientUnits="userSpaceOnUse">
<stop stop-color="#FEBBBA"/>
<stop offset="1" stop-color="#FF928E"/>
</linearGradient>
<linearGradient id="paint8_linear_15_326" x1="28031.3" y1="59899.7" x2="30419.2" y2="59899.7" gradientUnits="userSpaceOnUse">
<stop stop-color="#4F52FF"/>
<stop offset="1" stop-color="#4042E2"/>
</linearGradient>
<linearGradient id="paint9_linear_15_326" x1="15349" y1="24524.1" x2="16134.2" y2="24524.1" gradientUnits="userSpaceOnUse">
<stop stop-color="#FEBBBA"/>
<stop offset="1" stop-color="#FF928E"/>
</linearGradient>
<linearGradient id="paint10_linear_15_326" x1="23632.6" y1="38207.1" x2="20476.3" y2="40354.5" gradientUnits="userSpaceOnUse">
<stop stop-color="#FEBBBA"/>
<stop offset="1" stop-color="#FF928E"/>
</linearGradient>
<linearGradient id="paint11_linear_15_326" x1="29764.1" y1="43927.3" x2="33456.1" y2="48736.1" gradientUnits="userSpaceOnUse">
<stop stop-color="#09005D"/>
<stop offset="1" stop-color="#1A0F91"/>
</linearGradient>
<linearGradient id="paint12_linear_15_326" x1="5765.13" y1="11672.6" x2="4892.92" y2="12146.3" gradientUnits="userSpaceOnUse">
<stop stop-color="#FEBBBA"/>
<stop offset="1" stop-color="#FF928E"/>
</linearGradient>
<linearGradient id="paint13_linear_15_326" x1="84895.2" y1="58365.6" x2="72515.9" y2="103413" gradientUnits="userSpaceOnUse">
<stop stop-color="#00B2A9"/>
<stop offset="1" stop-color="#4042E2"/>
</linearGradient>
<linearGradient id="paint14_linear_15_326" x1="758474" y1="-205639" x2="579085" y2="385886" gradientUnits="userSpaceOnUse">
<stop stop-color="#FF928E"/>
<stop offset="1" stop-color="#FE7062"/>
</linearGradient>
<clipPath id="clip0_15_326">
<rect width="358.918" height="357.096" fill="white"/>
</clipPath>
</defs>
</svg>
