<svg width="432" height="342" viewBox="0 0 432 342" fill="none" xmlns="http://www.w3.org/2000/svg">
<g clip-path="url(#clip0_55_2681)">
<path d="M163.318 135.343C163.318 135.343 159.878 126.292 155.854 127.122C151.83 127.952 147.444 131.036 147.444 131.036L140.992 139.762C140.992 139.762 159.105 146.897 165.474 142.807C165.474 142.807 183.975 146.003 207.337 142.17C203.954 135.031 201.939 127.882 200.751 122.334C188.932 129.032 176.186 134.035 163.318 135.343Z" fill="url(#paint0_linear_55_2681)"/>
<path d="M261.317 69.6902C261.317 69.6902 234.829 103.058 200.766 122.334C201.949 127.882 203.964 135.032 207.351 142.17C225.021 139.271 245.472 132.351 262.81 116.976L261.317 69.6902Z" fill="#4033B9"/>
<path d="M294.35 217.557C289.171 192.953 283.99 178.701 266.646 132.07C261.188 117.395 256.232 102.544 258.627 87.0677L261.318 69.688C261.318 69.688 295.024 58.2727 332.389 69.2094C332.389 69.2094 383.365 91.3529 348.739 200.722C333.133 218.183 314.869 223.16 294.35 217.557Z" fill="#4033B9"/>
<path d="M267.055 47.5094L275.796 68.5069C276.068 69.1591 276.5 69.7319 277.053 70.1718C277.606 70.6117 278.261 70.9044 278.957 71.0226C283.995 71.8854 296.183 73.2354 304.189 67.9734C304.415 67.8236 304.608 67.6302 304.757 67.4048C304.907 67.1793 305.01 66.9263 305.06 66.6605C305.111 66.3947 305.108 66.1215 305.051 65.8569C304.995 65.5923 304.886 65.3417 304.732 65.1196L288.586 41.9357L267.055 47.5094Z" fill="url(#paint1_linear_55_2681)"/>
<path d="M276.093 15.3842C275.727 15.7289 260.602 45.4305 260.602 45.4305L277.744 53.7065L296.261 27.6841C296.261 27.6841 282.238 9.59756 276.093 15.3842Z" fill="url(#paint2_linear_55_2681)"/>
<path d="M288.474 30.808L279.924 45.0595C279.795 45.2748 279.637 45.4713 279.454 45.6434C278.438 46.5896 274.954 49.3446 272.262 45.5951C269.968 42.3967 267.815 39.4902 265.508 38.2916C265.186 38.1272 264.835 38.0281 264.475 38.0002C264.115 37.9723 263.753 38.016 263.41 38.1289C263.067 38.2418 262.75 38.4217 262.477 38.658C262.204 38.8942 261.981 39.1823 261.82 39.5056C260.41 42.2979 257.682 47.988 255.967 53.3861C255.763 54.0396 255.813 54.746 256.107 55.3644C256.401 55.9828 256.917 56.4679 257.552 56.7228C261.023 58.13 267.883 60.6743 273.97 61.5129C274.46 61.5813 274.96 61.5154 275.415 61.3221C275.871 61.1287 276.265 60.8153 276.556 60.4152C279.175 56.8282 286.558 46.8047 289.069 44.2912C291.409 41.9598 295.73 42.8379 297.677 43.3977C298.041 43.5033 298.423 43.5322 298.799 43.4827C299.175 43.4332 299.537 43.3064 299.861 43.1101C301.837 41.9203 305.283 38.9589 302.129 33.9428C301.759 33.3348 301.64 32.6066 301.798 31.9126C301.957 31.2187 302.379 30.6137 302.976 30.2263C305.171 28.7752 307.573 26.0553 305.294 21.6429C302.987 17.1799 298.864 16.7782 296.059 17.1229C295.45 17.2044 294.831 17.0872 294.294 16.7885C293.756 16.4899 293.33 16.0259 293.078 15.4655C292.96 15.1735 292.768 14.9173 292.521 14.7225C292.274 14.5276 291.98 14.4008 291.668 14.3547C291.321 14.2937 290.99 14.1643 290.693 13.974C290.397 13.7837 290.141 13.5363 289.941 13.2462C289.741 12.956 289.601 12.629 289.528 12.2842C289.456 11.9393 289.453 11.5835 289.519 11.2374C290.015 8.7107 289.642 5.431 285.61 3.21381C278.214 -0.853977 271.733 5.77346 270.087 11.3669C268.441 16.9604 276.708 20.9118 281.911 21.5726C285.733 22.0578 287.838 26.2287 288.67 28.4086C288.822 28.797 288.884 29.2151 288.85 29.6309C288.816 30.0467 288.688 30.4493 288.474 30.808Z" fill="#4F3E3E"/>
<path d="M285.473 48.5543C285.473 48.5543 289.152 39.8984 293.362 40.2519C297.573 40.6053 300.886 44.8004 295.667 49.5136C289.178 55.3793 285.473 48.5543 285.473 48.5543Z" fill="url(#paint3_linear_55_2681)"/>
<path d="M418.448 397.611C414.36 401.237 401.064 401.716 401.064 401.716C353.168 286.758 333.191 255.113 333.191 255.113C340.109 298.502 334.682 409.878 334.682 409.878C326.779 413.364 316.589 409.878 316.589 409.878C315.948 338.842 305.946 262.514 293.047 213.674C325.42 212.945 343.013 205.887 348.635 201.442C375.625 244.941 418.448 397.611 418.448 397.611Z" fill="#00B2A9"/>
<path d="M284.898 245.797L290.856 282.846C291.365 285.961 293.06 288.758 295.586 290.649C298.112 292.541 301.273 293.381 304.405 292.992L393.563 282.117C395.668 281.865 397.612 280.862 399.037 279.292C400.461 277.722 401.272 275.691 401.319 273.571C401.51 263.998 401.134 246.96 397.117 231.438L284.898 245.797Z" fill="url(#paint4_linear_55_2681)"/>
<path d="M306.899 290.529C306.838 290.529 306.779 290.507 306.732 290.467C306.686 290.426 306.656 290.371 306.647 290.31C306.639 290.243 306.657 290.176 306.698 290.122C306.739 290.069 306.8 290.034 306.867 290.024L308.884 289.779C308.917 289.774 308.951 289.775 308.983 289.784C309.016 289.792 309.046 289.807 309.072 289.828C309.099 289.848 309.121 289.874 309.137 289.903C309.153 289.932 309.164 289.965 309.167 289.998C309.171 290.031 309.169 290.065 309.16 290.097C309.152 290.129 309.137 290.159 309.116 290.185C309.096 290.212 309.071 290.234 309.042 290.25C309.013 290.267 308.981 290.277 308.948 290.281L306.928 290.527L306.899 290.529ZM302.184 290.413C302.166 290.415 302.147 290.415 302.129 290.413C301.453 290.26 300.792 290.047 300.153 289.779C300.091 289.752 300.042 289.702 300.016 289.64C299.991 289.577 299.991 289.507 300.017 289.445C300.044 289.383 300.093 289.333 300.156 289.308C300.219 289.282 300.289 289.283 300.351 289.309C300.962 289.567 301.594 289.77 302.241 289.917C302.302 289.931 302.356 289.967 302.392 290.018C302.428 290.069 302.444 290.132 302.437 290.194C302.43 290.256 302.4 290.313 302.353 290.355C302.307 290.396 302.247 290.419 302.184 290.42V290.413ZM313.628 289.708C313.566 289.708 313.507 289.686 313.461 289.646C313.414 289.605 313.384 289.55 313.375 289.489C313.367 289.422 313.386 289.355 313.427 289.301C313.468 289.248 313.528 289.213 313.595 289.203L315.615 288.96C315.681 288.952 315.748 288.97 315.801 289.012C315.854 289.053 315.889 289.114 315.897 289.18C315.905 289.247 315.886 289.314 315.845 289.367C315.803 289.42 315.743 289.454 315.676 289.462L313.656 289.708H313.628ZM320.356 288.889C320.292 288.889 320.23 288.864 320.183 288.819C320.137 288.775 320.109 288.715 320.105 288.65C320.101 288.586 320.121 288.523 320.162 288.473C320.203 288.423 320.262 288.391 320.326 288.382L322.343 288.136C322.376 288.132 322.41 288.133 322.442 288.142C322.475 288.15 322.505 288.165 322.531 288.186C322.558 288.206 322.58 288.232 322.596 288.261C322.613 288.29 322.623 288.323 322.626 288.356C322.631 288.389 322.628 288.423 322.62 288.455C322.611 288.487 322.596 288.517 322.575 288.543C322.555 288.57 322.53 288.592 322.501 288.608C322.472 288.625 322.44 288.635 322.407 288.639L320.387 288.887L320.356 288.889ZM327.085 288.068C327.02 288.068 326.959 288.043 326.912 287.998C326.865 287.954 326.837 287.893 326.833 287.829C326.829 287.765 326.85 287.701 326.891 287.652C326.932 287.602 326.99 287.57 327.054 287.561L329.071 287.315C329.105 287.31 329.138 287.312 329.171 287.32C329.204 287.329 329.234 287.343 329.26 287.364C329.287 287.385 329.309 287.41 329.325 287.44C329.341 287.469 329.351 287.502 329.355 287.535C329.363 287.602 329.344 287.669 329.303 287.722C329.262 287.775 329.202 287.809 329.135 287.818L327.115 288.064L327.085 288.068ZM333.813 287.247C333.749 287.247 333.687 287.222 333.64 287.177C333.594 287.133 333.565 287.072 333.561 287.008C333.558 286.944 333.578 286.88 333.619 286.831C333.66 286.781 333.719 286.749 333.782 286.74L335.8 286.494C335.833 286.49 335.867 286.492 335.899 286.501C335.931 286.509 335.961 286.524 335.988 286.545C336.014 286.565 336.036 286.59 336.053 286.62C336.069 286.649 336.079 286.681 336.083 286.714C336.091 286.781 336.073 286.848 336.031 286.901C335.99 286.954 335.93 286.988 335.863 286.997L333.844 287.243L333.813 287.247ZM296.369 287.122C296.3 287.122 296.235 287.094 296.187 287.045C295.707 286.545 295.272 286.004 294.887 285.428C294.856 285.372 294.846 285.306 294.861 285.244C294.876 285.181 294.914 285.127 294.967 285.091C295.02 285.055 295.085 285.041 295.148 285.051C295.212 285.061 295.269 285.094 295.309 285.144C295.676 285.696 296.093 286.214 296.553 286.692C296.601 286.74 296.628 286.805 296.628 286.872C296.628 286.94 296.601 287.004 296.553 287.052C296.503 287.098 296.437 287.124 296.369 287.122ZM340.542 286.426C340.477 286.426 340.415 286.401 340.369 286.356C340.322 286.312 340.294 286.251 340.29 286.187C340.286 286.123 340.307 286.059 340.348 286.01C340.389 285.96 340.447 285.928 340.511 285.919L342.528 285.673C342.561 285.669 342.595 285.67 342.628 285.679C342.66 285.687 342.69 285.702 342.717 285.723C342.743 285.743 342.765 285.769 342.781 285.798C342.798 285.827 342.808 285.86 342.811 285.893C342.82 285.96 342.801 286.027 342.76 286.08C342.719 286.133 342.658 286.167 342.592 286.176L340.572 286.422L340.542 286.426ZM347.27 285.605C347.206 285.605 347.144 285.58 347.097 285.535C347.05 285.491 347.022 285.43 347.018 285.366C347.014 285.302 347.035 285.238 347.076 285.189C347.117 285.139 347.175 285.107 347.239 285.098L349.257 284.852C349.322 284.848 349.386 284.868 349.437 284.91C349.487 284.952 349.519 285.011 349.527 285.076C349.535 285.14 349.518 285.206 349.479 285.258C349.44 285.311 349.382 285.346 349.318 285.357L347.301 285.603L347.27 285.605ZM353.998 284.784C353.965 284.786 353.932 284.782 353.901 284.771C353.869 284.76 353.84 284.743 353.815 284.721C353.79 284.699 353.77 284.673 353.756 284.643C353.741 284.613 353.733 284.58 353.731 284.547C353.729 284.514 353.733 284.481 353.744 284.449C353.755 284.418 353.772 284.389 353.794 284.364C353.816 284.339 353.842 284.319 353.872 284.305C353.902 284.29 353.934 284.281 353.968 284.279L355.985 284.031C356.051 284.026 356.116 284.046 356.167 284.087C356.218 284.128 356.251 284.188 356.26 284.253C356.268 284.319 356.251 284.384 356.211 284.437C356.172 284.49 356.114 284.526 356.049 284.536L354.029 284.782L353.998 284.784ZM360.727 283.963C360.66 283.967 360.594 283.945 360.544 283.9C360.494 283.856 360.463 283.793 360.459 283.726C360.455 283.659 360.478 283.593 360.522 283.543C360.567 283.493 360.629 283.462 360.696 283.458L362.713 283.213C362.747 283.208 362.78 283.209 362.813 283.218C362.845 283.226 362.875 283.241 362.902 283.262C362.928 283.282 362.95 283.308 362.967 283.337C362.983 283.367 362.993 283.399 362.997 283.432C363.001 283.465 362.999 283.499 362.99 283.531C362.981 283.563 362.966 283.593 362.946 283.619C362.925 283.646 362.9 283.668 362.871 283.684C362.842 283.701 362.81 283.711 362.777 283.715L360.758 283.961L360.727 283.963ZM367.455 283.145C367.391 283.144 367.329 283.119 367.282 283.074C367.236 283.03 367.207 282.97 367.204 282.905C367.2 282.841 367.22 282.778 367.261 282.728C367.302 282.678 367.361 282.646 367.424 282.637L369.442 282.392C369.475 282.386 369.509 282.388 369.541 282.396C369.574 282.405 369.604 282.419 369.631 282.44C369.657 282.461 369.68 282.486 369.696 282.516C369.712 282.545 369.722 282.578 369.725 282.611C369.729 282.644 369.727 282.678 369.718 282.71C369.71 282.742 369.695 282.772 369.674 282.798C369.654 282.825 369.628 282.847 369.6 282.863C369.571 282.88 369.539 282.89 369.506 282.894L367.486 283.142L367.455 283.145ZM374.184 282.323C374.119 282.323 374.057 282.298 374.011 282.253C373.964 282.209 373.936 282.149 373.932 282.084C373.928 282.02 373.949 281.957 373.99 281.907C374.031 281.857 374.089 281.825 374.153 281.816L376.17 281.571C376.237 281.562 376.304 281.58 376.357 281.622C376.41 281.663 376.445 281.723 376.454 281.79C376.462 281.857 376.444 281.924 376.402 281.977C376.361 282.03 376.301 282.065 376.234 282.073L374.214 282.321L374.184 282.323ZM380.912 281.502C380.848 281.502 380.786 281.477 380.739 281.432C380.692 281.388 380.664 281.328 380.66 281.263C380.656 281.199 380.677 281.136 380.718 281.086C380.759 281.036 380.817 281.004 380.881 280.995L382.901 280.75C382.934 280.745 382.967 280.747 382.999 280.756C383.031 280.765 383.061 280.78 383.087 280.8C383.114 280.821 383.135 280.846 383.152 280.875C383.168 280.904 383.178 280.936 383.182 280.969C383.19 281.036 383.172 281.103 383.13 281.156C383.089 281.209 383.029 281.243 382.962 281.252L380.945 281.498L380.912 281.502ZM293.337 281.162C293.276 281.161 293.218 281.139 293.172 281.098C293.126 281.058 293.096 281.003 293.087 280.943L292.762 278.932C292.751 278.865 292.767 278.798 292.807 278.743C292.846 278.688 292.905 278.652 292.972 278.641C293.038 278.63 293.106 278.646 293.161 278.686C293.215 278.725 293.252 278.784 293.263 278.851L293.588 280.855C293.599 280.921 293.584 280.989 293.545 281.045C293.506 281.1 293.447 281.137 293.381 281.149L293.337 281.162ZM387.64 280.673C387.576 280.672 387.514 280.647 387.468 280.603C387.421 280.558 387.393 280.498 387.389 280.433C387.385 280.369 387.406 280.306 387.447 280.256C387.488 280.206 387.546 280.174 387.61 280.166L389.627 279.92C389.66 279.915 389.694 279.917 389.726 279.925C389.759 279.934 389.789 279.949 389.816 279.969C389.842 279.99 389.864 280.015 389.88 280.044C389.897 280.074 389.907 280.106 389.91 280.139C389.918 280.206 389.9 280.273 389.859 280.326C389.818 280.379 389.757 280.414 389.691 280.422L387.671 280.668L387.64 280.673ZM394.202 279.211C394.146 279.21 394.093 279.191 394.049 279.157C394.005 279.122 393.974 279.075 393.96 279.021C393.946 278.967 393.949 278.91 393.97 278.859C393.992 278.808 394.029 278.765 394.077 278.736C394.648 278.411 395.178 278.016 395.653 277.562C395.677 277.539 395.706 277.521 395.737 277.509C395.768 277.497 395.802 277.491 395.835 277.492C395.868 277.493 395.901 277.5 395.932 277.514C395.962 277.527 395.99 277.547 396.013 277.571C396.036 277.595 396.054 277.624 396.066 277.655C396.078 277.686 396.084 277.719 396.083 277.753C396.082 277.786 396.075 277.819 396.062 277.85C396.048 277.88 396.029 277.908 396.004 277.931C395.498 278.413 394.935 278.832 394.327 279.178C394.29 279.202 394.247 279.217 394.202 279.219V279.211ZM292.259 274.471C292.198 274.471 292.139 274.448 292.093 274.408C292.047 274.368 292.018 274.312 292.009 274.252L291.686 272.245C291.681 272.211 291.682 272.177 291.69 272.144C291.698 272.111 291.713 272.079 291.734 272.052C291.754 272.025 291.78 272.002 291.81 271.985C291.839 271.968 291.872 271.957 291.906 271.953C291.94 271.947 291.974 271.948 292.008 271.956C292.041 271.963 292.073 271.978 292.1 271.999C292.128 272.019 292.15 272.046 292.167 272.075C292.184 272.105 292.195 272.139 292.198 272.173L292.521 274.179C292.526 274.213 292.525 274.247 292.517 274.28C292.509 274.314 292.494 274.345 292.473 274.372C292.453 274.399 292.427 274.422 292.397 274.439C292.368 274.456 292.335 274.467 292.301 274.471H292.259ZM398.182 273.955C398.162 273.957 398.141 273.957 398.121 273.955C398.088 273.947 398.058 273.933 398.031 273.913C398.004 273.893 397.981 273.869 397.964 273.84C397.947 273.811 397.936 273.78 397.931 273.747C397.926 273.714 397.928 273.68 397.936 273.648C398.079 273.067 398.157 272.472 398.169 271.874V271.692C398.17 271.625 398.197 271.561 398.245 271.514C398.292 271.467 398.356 271.44 398.423 271.439C398.491 271.441 398.556 271.469 398.603 271.517C398.65 271.566 398.677 271.631 398.676 271.698V271.885C398.663 272.521 398.579 273.153 398.428 273.771C398.415 273.826 398.384 273.875 398.339 273.911C398.294 273.946 398.239 273.965 398.182 273.964V273.955ZM291.184 267.778C291.122 267.778 291.063 267.756 291.016 267.715C290.97 267.675 290.94 267.619 290.931 267.558L290.604 265.576C290.593 265.51 290.609 265.442 290.649 265.387C290.688 265.333 290.747 265.296 290.814 265.285C290.88 265.274 290.948 265.29 291.003 265.33C291.057 265.369 291.094 265.428 291.105 265.495L291.427 267.503C291.432 267.537 291.431 267.571 291.422 267.604C291.414 267.637 291.399 267.668 291.379 267.695C291.358 267.722 291.333 267.745 291.303 267.762C291.274 267.78 291.242 267.791 291.208 267.795L291.184 267.778ZM398.456 267.196C398.423 267.196 398.39 267.19 398.359 267.178C398.328 267.165 398.3 267.146 398.277 267.123C398.253 267.099 398.234 267.072 398.221 267.041C398.208 267.01 398.202 266.977 398.202 266.944C398.202 266.285 398.194 265.608 398.178 264.913C398.177 264.88 398.183 264.846 398.195 264.815C398.208 264.784 398.226 264.756 398.249 264.732C398.272 264.708 398.3 264.688 398.331 264.675C398.361 264.662 398.394 264.655 398.428 264.654C398.462 264.652 398.495 264.657 398.527 264.669C398.559 264.681 398.588 264.699 398.612 264.723C398.636 264.746 398.655 264.774 398.668 264.806C398.681 264.837 398.688 264.87 398.687 264.904C398.698 265.6 398.704 266.281 398.709 266.939C398.709 266.973 398.703 267.006 398.69 267.037C398.678 267.068 398.659 267.096 398.636 267.12C398.612 267.144 398.584 267.163 398.554 267.176C398.523 267.189 398.49 267.196 398.456 267.196ZM290.108 261.085C290.047 261.085 289.987 261.062 289.941 261.022C289.894 260.982 289.864 260.926 289.856 260.865L289.533 258.856C289.528 258.823 289.529 258.789 289.537 258.756C289.546 258.723 289.561 258.692 289.581 258.665C289.602 258.638 289.627 258.615 289.657 258.598C289.686 258.581 289.719 258.571 289.752 258.567C289.786 258.561 289.821 258.562 289.854 258.57C289.887 258.578 289.919 258.592 289.946 258.613C289.973 258.634 289.996 258.66 290.013 258.689C290.03 258.719 290.041 258.752 290.044 258.786L290.367 260.793C290.372 260.826 290.371 260.861 290.363 260.894C290.354 260.927 290.34 260.958 290.319 260.985C290.299 261.012 290.273 261.035 290.243 261.052C290.214 261.069 290.181 261.08 290.148 261.085H290.108ZM398.294 260.426C398.228 260.426 398.165 260.401 398.118 260.355C398.07 260.31 398.042 260.248 398.039 260.182C398.011 259.524 397.98 258.839 397.943 258.154C397.941 258.121 397.945 258.087 397.956 258.056C397.967 258.024 397.984 257.995 398.006 257.97C398.029 257.945 398.056 257.925 398.086 257.91C398.116 257.896 398.149 257.888 398.182 257.886C398.216 257.882 398.25 257.885 398.282 257.895C398.315 257.906 398.345 257.923 398.37 257.945C398.395 257.968 398.416 257.996 398.429 258.027C398.443 258.058 398.45 258.091 398.45 258.125C398.487 258.812 398.518 259.493 398.546 260.16C398.548 260.194 398.543 260.227 398.532 260.258C398.521 260.29 398.504 260.319 398.481 260.344C398.459 260.368 398.432 260.388 398.401 260.402C398.371 260.417 398.338 260.425 398.305 260.426H398.294ZM289.032 254.402C288.971 254.401 288.912 254.379 288.866 254.339C288.82 254.298 288.789 254.243 288.78 254.183L288.457 252.174C288.448 252.108 288.464 252.041 288.504 251.987C288.544 251.933 288.603 251.897 288.669 251.886C288.735 251.875 288.802 251.891 288.857 251.93C288.911 251.968 288.948 252.027 288.96 252.093L289.283 254.101C289.288 254.135 289.286 254.169 289.278 254.202C289.27 254.235 289.255 254.266 289.234 254.293C289.214 254.32 289.188 254.343 289.159 254.36C289.129 254.376 289.097 254.387 289.063 254.391L289.032 254.402ZM397.879 253.658C397.816 253.658 397.754 253.634 397.708 253.591C397.661 253.548 397.632 253.489 397.627 253.425C397.574 252.755 397.515 252.08 397.451 251.401C397.445 251.334 397.466 251.267 397.509 251.215C397.552 251.163 397.614 251.131 397.681 251.125C397.714 251.121 397.747 251.123 397.779 251.132C397.81 251.141 397.84 251.156 397.866 251.177C397.891 251.197 397.913 251.222 397.929 251.251C397.945 251.28 397.955 251.312 397.958 251.344C398.02 252.025 398.078 252.701 398.134 253.373C398.139 253.44 398.118 253.507 398.074 253.558C398.031 253.609 397.968 253.641 397.901 253.647L397.879 253.658ZM287.955 247.709C287.893 247.709 287.834 247.687 287.788 247.646C287.742 247.606 287.712 247.55 287.704 247.489L287.34 245.222L288.387 245.088C288.42 245.083 288.454 245.085 288.486 245.093C288.519 245.102 288.549 245.117 288.575 245.137C288.602 245.158 288.624 245.183 288.64 245.213C288.656 245.242 288.667 245.274 288.67 245.307C288.675 245.341 288.673 245.374 288.664 245.407C288.656 245.439 288.641 245.469 288.62 245.496C288.6 245.523 288.574 245.545 288.545 245.561C288.516 245.578 288.484 245.589 288.451 245.593L287.926 245.661L288.207 247.417C288.212 247.451 288.211 247.485 288.202 247.518C288.194 247.551 288.179 247.582 288.159 247.609C288.138 247.637 288.113 247.659 288.083 247.677C288.054 247.694 288.021 247.705 287.987 247.709H287.955ZM397.192 246.914C397.13 246.914 397.071 246.892 397.025 246.852C396.978 246.811 396.948 246.756 396.939 246.695C396.856 246.025 396.766 245.356 396.674 244.68C396.669 244.646 396.671 244.613 396.68 244.58C396.688 244.548 396.703 244.517 396.724 244.491C396.744 244.464 396.77 244.442 396.799 244.425C396.828 244.409 396.86 244.398 396.893 244.394C396.927 244.389 396.961 244.39 396.993 244.399C397.026 244.407 397.057 244.422 397.083 244.443C397.11 244.463 397.132 244.489 397.149 244.518C397.165 244.548 397.175 244.58 397.179 244.614C397.273 245.29 397.361 245.962 397.447 246.633C397.455 246.7 397.436 246.767 397.395 246.82C397.354 246.873 397.294 246.908 397.227 246.916L397.192 246.914ZM293.127 245C293.062 245 293 244.975 292.953 244.931C292.906 244.887 292.877 244.826 292.873 244.762C292.869 244.697 292.889 244.634 292.93 244.584C292.971 244.534 293.03 244.501 293.094 244.493L295.109 244.234C295.142 244.228 295.176 244.23 295.209 244.238C295.242 244.246 295.273 244.261 295.299 244.281C295.326 244.302 295.348 244.328 295.365 244.358C295.381 244.387 295.391 244.42 295.394 244.453C295.403 244.52 295.385 244.588 295.344 244.642C295.302 244.695 295.242 244.73 295.175 244.739L293.157 244.998L293.127 245ZM299.848 244.139C299.784 244.139 299.722 244.115 299.675 244.07C299.627 244.026 299.599 243.966 299.595 243.901C299.59 243.837 299.611 243.773 299.652 243.723C299.693 243.673 299.751 243.641 299.815 243.632L301.833 243.376C301.866 243.37 301.9 243.371 301.933 243.379C301.966 243.387 301.997 243.402 302.024 243.422C302.051 243.443 302.073 243.469 302.089 243.499C302.106 243.529 302.115 243.561 302.118 243.595C302.126 243.662 302.108 243.729 302.067 243.782C302.026 243.835 301.965 243.869 301.899 243.878L299.881 244.137L299.848 244.139ZM306.572 243.279C306.508 243.279 306.446 243.254 306.399 243.21C306.351 243.166 306.323 243.105 306.319 243.041C306.315 242.976 306.335 242.913 306.376 242.863C306.417 242.813 306.475 242.78 306.539 242.772L308.557 242.513C308.59 242.508 308.624 242.51 308.657 242.518C308.689 242.527 308.72 242.541 308.746 242.562C308.773 242.582 308.795 242.608 308.812 242.637C308.828 242.667 308.839 242.699 308.842 242.732C308.85 242.799 308.832 242.866 308.791 242.919C308.75 242.972 308.689 243.007 308.623 243.015L306.605 243.275L306.572 243.279ZM313.296 242.418C313.232 242.418 313.17 242.394 313.123 242.349C313.075 242.305 313.047 242.245 313.043 242.18C313.039 242.116 313.059 242.052 313.1 242.002C313.141 241.952 313.199 241.92 313.263 241.911L315.281 241.654C315.314 241.649 315.348 241.65 315.381 241.658C315.414 241.666 315.445 241.681 315.471 241.701C315.498 241.722 315.52 241.748 315.536 241.778C315.552 241.808 315.562 241.84 315.564 241.874C315.568 241.907 315.566 241.941 315.557 241.973C315.549 242.005 315.534 242.035 315.513 242.061C315.493 242.088 315.467 242.11 315.439 242.126C315.41 242.143 315.378 242.153 315.345 242.157L313.327 242.416L313.296 242.418ZM320.018 241.558C319.954 241.558 319.891 241.533 319.844 241.489C319.797 241.445 319.769 241.384 319.765 241.32C319.76 241.255 319.781 241.192 319.822 241.142C319.863 241.092 319.921 241.059 319.985 241.051L322.003 240.794C322.036 240.788 322.07 240.789 322.103 240.797C322.136 240.805 322.167 240.82 322.194 240.841C322.221 240.861 322.243 240.887 322.259 240.917C322.275 240.947 322.285 240.98 322.288 241.013C322.296 241.08 322.278 241.147 322.237 241.2C322.195 241.253 322.135 241.288 322.069 241.297L320.051 241.556L320.018 241.558ZM326.742 240.697C326.678 240.697 326.616 240.673 326.568 240.628C326.521 240.584 326.493 240.524 326.489 240.459C326.484 240.395 326.505 240.331 326.546 240.281C326.587 240.231 326.645 240.199 326.709 240.19L328.727 239.933C328.76 239.928 328.794 239.93 328.827 239.938C328.859 239.946 328.89 239.961 328.917 239.982C328.943 240.002 328.966 240.028 328.982 240.058C328.998 240.087 329.009 240.119 329.012 240.153C329.02 240.22 329.002 240.287 328.961 240.34C328.92 240.394 328.859 240.429 328.793 240.438L326.775 240.695L326.742 240.697ZM396.187 240.21C396.125 240.21 396.066 240.188 396.02 240.147C395.974 240.107 395.944 240.051 395.936 239.99C395.818 239.327 395.694 238.663 395.565 237.997C395.559 237.964 395.559 237.931 395.566 237.898C395.572 237.865 395.586 237.834 395.604 237.806C395.623 237.778 395.647 237.755 395.675 237.736C395.703 237.718 395.734 237.705 395.767 237.699C395.8 237.692 395.834 237.692 395.866 237.699C395.899 237.706 395.93 237.719 395.958 237.738C395.985 237.757 396.009 237.781 396.027 237.809C396.045 237.837 396.058 237.868 396.064 237.901C396.195 238.559 396.318 239.235 396.437 239.903C396.448 239.969 396.433 240.037 396.394 240.092C396.356 240.147 396.297 240.185 396.23 240.197C396.219 240.203 396.208 240.207 396.195 240.21H396.187ZM333.466 239.837C333.402 239.837 333.34 239.812 333.292 239.768C333.245 239.724 333.217 239.663 333.213 239.599C333.208 239.534 333.229 239.471 333.27 239.421C333.311 239.371 333.369 239.338 333.433 239.33L335.451 239.073C335.484 239.067 335.518 239.068 335.551 239.076C335.584 239.084 335.615 239.099 335.642 239.12C335.669 239.14 335.691 239.166 335.707 239.196C335.723 239.226 335.733 239.259 335.736 239.292C335.744 239.359 335.726 239.427 335.685 239.48C335.644 239.533 335.583 239.568 335.517 239.578L333.499 239.835L333.466 239.837ZM340.19 238.976C340.123 238.981 340.057 238.958 340.007 238.914C339.957 238.87 339.926 238.807 339.921 238.74C339.917 238.673 339.939 238.607 339.984 238.557C340.028 238.507 340.09 238.476 340.157 238.471L342.175 238.212C342.208 238.207 342.242 238.208 342.275 238.216C342.307 238.225 342.338 238.239 342.365 238.26C342.391 238.281 342.413 238.307 342.429 238.336C342.445 238.366 342.455 238.398 342.458 238.432C342.467 238.499 342.449 238.566 342.407 238.62C342.366 238.673 342.305 238.708 342.238 238.717L340.221 238.974L340.19 238.976ZM346.912 238.116C346.848 238.116 346.785 238.091 346.738 238.047C346.691 238.003 346.663 237.942 346.658 237.878C346.654 237.813 346.675 237.749 346.716 237.7C346.757 237.65 346.815 237.617 346.879 237.609L348.897 237.352C348.93 237.346 348.964 237.348 348.997 237.356C349.03 237.364 349.06 237.379 349.087 237.399C349.114 237.42 349.136 237.446 349.153 237.475C349.169 237.505 349.179 237.538 349.182 237.571C349.19 237.638 349.172 237.706 349.131 237.759C349.09 237.812 349.029 237.847 348.963 237.857L346.945 238.114L346.912 238.116ZM353.636 237.255C353.603 237.257 353.57 237.253 353.538 237.242C353.507 237.232 353.478 237.215 353.453 237.193C353.428 237.171 353.407 237.144 353.393 237.115C353.378 237.085 353.369 237.052 353.367 237.019C353.365 236.986 353.369 236.953 353.38 236.921C353.391 236.89 353.408 236.861 353.43 236.836C353.451 236.811 353.478 236.79 353.508 236.776C353.538 236.761 353.57 236.752 353.603 236.75L355.621 236.491C355.654 236.486 355.688 236.488 355.72 236.497C355.753 236.505 355.783 236.52 355.81 236.54C355.837 236.561 355.859 236.587 355.875 236.616C355.892 236.645 355.902 236.677 355.906 236.711C355.915 236.778 355.897 236.845 355.855 236.899C355.814 236.952 355.753 236.987 355.687 236.996L353.669 237.253L353.636 237.255ZM360.36 236.395C360.293 236.399 360.227 236.377 360.177 236.332C360.126 236.288 360.096 236.226 360.091 236.159C360.087 236.092 360.109 236.026 360.154 235.975C360.198 235.925 360.26 235.894 360.327 235.89L362.345 235.631C362.378 235.626 362.412 235.628 362.444 235.636C362.477 235.644 362.507 235.659 362.534 235.68C362.561 235.7 362.583 235.726 362.599 235.755C362.616 235.785 362.626 235.817 362.63 235.85C362.639 235.917 362.621 235.985 362.579 236.038C362.538 236.092 362.478 236.127 362.411 236.136L360.395 236.392L360.36 236.395ZM367.082 235.536C367.018 235.536 366.956 235.511 366.909 235.466C366.862 235.422 366.834 235.361 366.83 235.297C366.826 235.233 366.847 235.169 366.888 235.12C366.929 235.07 366.987 235.038 367.051 235.029L369.067 234.77C369.1 234.764 369.134 234.765 369.167 234.773C369.2 234.781 369.231 234.795 369.258 234.816C369.285 234.837 369.308 234.863 369.324 234.893C369.34 234.923 369.349 234.956 369.352 234.99C369.361 235.057 369.342 235.124 369.301 235.178C369.26 235.231 369.199 235.266 369.132 235.275L367.115 235.534L367.082 235.536ZM373.806 234.676C373.745 234.675 373.685 234.653 373.639 234.613C373.593 234.572 373.563 234.517 373.554 234.456C373.546 234.39 373.564 234.323 373.605 234.27C373.646 234.217 373.707 234.182 373.773 234.173L375.791 233.914C375.824 233.908 375.858 233.909 375.891 233.917C375.924 233.925 375.955 233.94 375.982 233.961C376.009 233.981 376.031 234.008 376.047 234.037C376.063 234.067 376.073 234.1 376.076 234.134C376.085 234.201 376.066 234.268 376.025 234.322C375.984 234.375 375.923 234.41 375.856 234.419L373.839 234.678L373.806 234.676ZM380.53 233.815C380.465 233.815 380.403 233.79 380.356 233.746C380.309 233.702 380.281 233.642 380.276 233.577C380.272 233.513 380.293 233.449 380.334 233.399C380.375 233.349 380.433 233.317 380.497 233.308L382.515 233.049C382.548 233.044 382.582 233.045 382.615 233.054C382.647 233.062 382.678 233.077 382.704 233.098C382.731 233.118 382.753 233.144 382.77 233.173C382.786 233.203 382.796 233.235 382.8 233.269C382.808 233.335 382.79 233.402 382.748 233.455C382.707 233.508 382.647 233.543 382.58 233.552L380.565 233.811L380.53 233.815ZM394.799 233.574C394.742 233.574 394.687 233.555 394.643 233.52C394.598 233.485 394.567 233.436 394.553 233.381C394.446 232.942 394.334 232.503 394.226 232.063L394.007 232.092C393.974 232.097 393.94 232.095 393.907 232.087C393.875 232.078 393.845 232.063 393.818 232.043C393.792 232.022 393.77 231.997 393.753 231.967C393.737 231.938 393.727 231.906 393.723 231.872C393.719 231.839 393.721 231.805 393.729 231.773C393.738 231.741 393.753 231.71 393.773 231.684C393.794 231.657 393.819 231.635 393.849 231.618C393.878 231.602 393.91 231.591 393.943 231.587L394.602 231.501L394.656 231.721C394.79 232.232 394.918 232.746 395.043 233.258C395.059 233.323 395.048 233.392 395.013 233.45C394.978 233.507 394.922 233.549 394.856 233.565L394.799 233.574ZM387.248 232.955C387.183 232.955 387.121 232.93 387.074 232.886C387.027 232.841 386.998 232.781 386.994 232.717C386.99 232.652 387.01 232.588 387.051 232.539C387.092 232.489 387.151 232.456 387.215 232.448L389.232 232.189C389.265 232.183 389.299 232.185 389.332 232.193C389.364 232.202 389.395 232.217 389.421 232.237C389.448 232.258 389.47 232.283 389.486 232.313C389.502 232.342 389.512 232.375 389.515 232.408C389.52 232.441 389.518 232.475 389.509 232.507C389.501 232.54 389.486 232.57 389.465 232.597C389.445 232.623 389.419 232.646 389.39 232.662C389.361 232.679 389.329 232.689 389.296 232.693L387.28 232.952L387.248 232.955Z" fill="white"/>
<path d="M307.552 215.45L307.453 212.545C307.559 212.189 307.753 211.865 308.016 211.603C308.28 211.34 308.605 211.148 308.961 211.044C311.681 210.247 318.464 208.59 322.095 210.642L323.017 213.913L307.552 215.45Z" fill="url(#paint5_linear_55_2681)"/>
<path d="M315.87 211.573C315.259 211.809 314.599 211.893 313.949 211.817C313.561 211.771 313.2 211.598 312.922 211.325C312.643 211.051 312.464 210.693 312.412 210.306L311.262 201.321L315.834 200.735L316.983 209.714C317.032 210.103 316.949 210.498 316.747 210.835C316.545 211.173 316.236 211.432 315.87 211.573Z" fill="url(#paint6_linear_55_2681)"/>
<path d="M351.833 209.784L351.734 206.88C351.839 206.523 352.033 206.198 352.296 205.936C352.56 205.673 352.885 205.482 353.243 205.378C355.96 204.581 362.744 202.924 366.377 204.976L367.297 208.247L351.833 209.784Z" fill="url(#paint7_linear_55_2681)"/>
<path d="M360.151 205.914C359.54 206.15 358.88 206.234 358.23 206.157C357.842 206.112 357.48 205.939 357.202 205.665C356.924 205.391 356.744 205.032 356.693 204.645L355.422 194.714L359.992 194.13L361.263 204.054C361.313 204.444 361.23 204.839 361.028 205.176C360.826 205.513 360.517 205.773 360.151 205.914Z" fill="url(#paint8_linear_55_2681)"/>
<path d="M311.078 203.589L360.032 195.671C360.574 195.585 361.07 195.317 361.437 194.909C361.804 194.502 362.021 193.981 362.05 193.434C362.161 191.329 361.944 189.219 361.404 187.182C361.032 185.888 360.215 184.767 359.097 184.017C357.978 183.268 356.631 182.938 355.293 183.085C346.092 184.04 322.742 187.037 310.523 193.774C309.888 194.124 309.346 194.622 308.943 195.225C308.54 195.828 308.287 196.519 308.207 197.24C308.051 198.634 308.064 200.465 308.727 202.248C308.904 202.708 309.235 203.094 309.663 203.338C310.092 203.583 310.592 203.671 311.078 203.589Z" fill="url(#paint9_linear_55_2681)"/>
<path opacity="0.58" d="M309.869 201.604C309.716 201.604 309.568 201.552 309.448 201.457C309.329 201.362 309.245 201.229 309.211 201.08C308.938 199.795 308.875 198.475 309.024 197.17C309.134 196.397 309.44 195.665 309.913 195.043C310.385 194.422 311.009 193.931 311.724 193.618C314.378 192.455 319.48 190.402 323.798 189.726C323.976 189.697 324.158 189.74 324.304 189.845C324.451 189.95 324.549 190.109 324.578 190.287C324.607 190.465 324.565 190.647 324.46 190.793C324.354 190.94 324.195 191.038 324.017 191.067C319.697 191.741 314.358 193.943 312.28 194.858C311.777 195.079 311.339 195.424 311.007 195.86C310.675 196.297 310.459 196.811 310.381 197.354C310.253 198.496 310.309 199.651 310.545 200.775C310.585 200.95 310.555 201.133 310.46 201.285C310.365 201.438 310.213 201.546 310.038 201.587C309.983 201.6 309.926 201.606 309.869 201.604Z" fill="white"/>
<path d="M284.593 217.25C300.452 215.015 369.077 205.501 389.348 205.354C390.197 205.344 391.028 205.599 391.726 206.083C392.423 206.567 392.953 207.255 393.242 208.054C395.106 213.235 399.062 225.32 400.353 237.635C400.432 238.451 400.23 239.27 399.779 239.955C399.328 240.64 398.655 241.15 397.874 241.4L353.412 255.851L337.226 257.921L287.443 254.483C286.592 254.427 285.784 254.088 285.148 253.52C284.512 252.953 284.083 252.189 283.93 251.351C282.833 245.204 280.477 230.783 280.953 221.239C281.001 220.254 281.391 219.317 282.055 218.589C282.719 217.861 283.617 217.387 284.593 217.25Z" fill="url(#paint10_linear_55_2681)"/>
<path d="M337.111 254.2H337.095L335.065 254.06C334.997 254.055 334.935 254.023 334.891 253.972C334.847 253.921 334.825 253.855 334.83 253.787C334.838 253.722 334.87 253.662 334.92 253.619C334.97 253.575 335.034 253.552 335.1 253.552L337.128 253.693C337.191 253.701 337.249 253.732 337.291 253.78C337.332 253.829 337.354 253.891 337.352 253.955C337.35 254.018 337.324 254.079 337.279 254.124C337.234 254.17 337.174 254.197 337.111 254.2ZM338.966 253.963C338.901 253.963 338.839 253.938 338.792 253.894C338.745 253.85 338.716 253.789 338.712 253.725C338.708 253.66 338.728 253.597 338.769 253.547C338.81 253.497 338.869 253.464 338.933 253.456L340.95 253.199C340.983 253.193 341.018 253.194 341.05 253.202C341.083 253.209 341.114 253.224 341.141 253.245C341.168 253.266 341.19 253.292 341.206 253.322C341.222 253.352 341.231 253.385 341.233 253.419C341.241 253.485 341.223 253.553 341.182 253.606C341.141 253.66 341.08 253.695 341.014 253.704L338.996 253.961L338.966 253.963ZM330.349 253.743H330.336L328.308 253.603C328.274 253.601 328.242 253.592 328.212 253.578C328.182 253.563 328.155 253.543 328.133 253.517C328.111 253.492 328.094 253.463 328.083 253.431C328.072 253.4 328.068 253.366 328.071 253.333C328.079 253.267 328.112 253.206 328.162 253.163C328.212 253.119 328.276 253.095 328.343 253.096L330.371 253.236C330.434 253.244 330.493 253.275 330.534 253.324C330.575 253.372 330.597 253.434 330.595 253.498C330.593 253.562 330.567 253.622 330.522 253.668C330.477 253.713 330.417 253.74 330.354 253.743H330.349ZM323.588 253.276H323.57L321.542 253.138C321.474 253.132 321.412 253.101 321.367 253.05C321.323 252.999 321.301 252.933 321.305 252.865C321.315 252.8 321.347 252.741 321.397 252.697C321.446 252.654 321.509 252.63 321.575 252.628L323.603 252.769C323.666 252.776 323.725 252.807 323.766 252.855C323.808 252.904 323.83 252.966 323.828 253.029C323.826 253.093 323.8 253.154 323.756 253.199C323.711 253.245 323.651 253.272 323.588 253.276ZM345.687 253.113C345.623 253.113 345.561 253.088 345.514 253.043C345.468 252.999 345.44 252.938 345.436 252.874C345.432 252.81 345.452 252.746 345.493 252.697C345.534 252.647 345.593 252.615 345.657 252.606L347.674 252.349C347.707 252.344 347.741 252.345 347.774 252.353C347.807 252.361 347.838 252.376 347.864 252.396C347.891 252.417 347.913 252.443 347.929 252.473C347.945 252.503 347.955 252.535 347.957 252.569C347.965 252.636 347.947 252.703 347.906 252.757C347.865 252.81 347.804 252.845 347.738 252.854L345.72 253.111L345.687 253.113ZM316.824 252.81H316.809L314.778 252.672C314.711 252.667 314.649 252.635 314.605 252.584C314.561 252.533 314.539 252.467 314.543 252.4C314.553 252.335 314.585 252.275 314.635 252.232C314.684 252.188 314.748 252.164 314.813 252.163L316.842 252.303C316.909 252.306 316.973 252.335 317.019 252.384C317.065 252.434 317.09 252.499 317.088 252.567C317.085 252.634 317.056 252.698 317.007 252.744C316.958 252.79 316.892 252.815 316.824 252.813V252.81ZM310.063 252.343H310.045L308.017 252.202C307.95 252.197 307.887 252.166 307.843 252.115C307.798 252.064 307.776 251.998 307.78 251.93C307.79 251.865 307.823 251.805 307.873 251.762C307.923 251.719 307.986 251.696 308.052 251.695L310.081 251.836C310.144 251.843 310.202 251.875 310.243 251.923C310.285 251.971 310.307 252.034 310.304 252.097C310.302 252.161 310.276 252.222 310.231 252.267C310.187 252.313 310.127 252.34 310.063 252.343ZM352.411 252.253C352.347 252.252 352.285 252.227 352.238 252.183C352.192 252.138 352.164 252.078 352.16 252.014C352.156 251.949 352.176 251.886 352.217 251.836C352.258 251.787 352.317 251.754 352.381 251.746L352.51 251.73L354.266 251.153C354.299 251.139 354.334 251.133 354.369 251.133C354.404 251.134 354.439 251.142 354.471 251.157C354.503 251.171 354.532 251.193 354.555 251.219C354.579 251.245 354.596 251.276 354.607 251.31C354.618 251.343 354.622 251.379 354.618 251.414C354.614 251.449 354.604 251.483 354.586 251.513C354.569 251.544 354.545 251.571 354.517 251.592C354.489 251.613 354.457 251.628 354.422 251.636L352.446 252.251L352.411 252.253ZM303.302 251.875H303.284L301.256 251.735C301.222 251.733 301.19 251.724 301.16 251.71C301.13 251.695 301.103 251.674 301.081 251.649C301.059 251.624 301.042 251.595 301.031 251.563C301.02 251.532 301.016 251.498 301.019 251.465C301.027 251.399 301.059 251.339 301.109 251.295C301.159 251.252 301.222 251.228 301.289 251.228L303.317 251.368C303.384 251.373 303.446 251.404 303.491 251.455C303.535 251.505 303.558 251.571 303.554 251.638C303.548 251.7 303.518 251.758 303.471 251.8C303.425 251.842 303.364 251.865 303.302 251.864V251.875ZM296.538 251.408H296.529L294.501 251.269C294.434 251.264 294.371 251.233 294.327 251.182C294.283 251.131 294.261 251.064 294.266 250.997C294.274 250.931 294.306 250.871 294.356 250.827C294.406 250.783 294.47 250.76 294.536 250.76L296.564 250.901C296.628 250.908 296.686 250.939 296.727 250.988C296.769 251.036 296.79 251.099 296.788 251.162C296.786 251.226 296.76 251.286 296.715 251.332C296.671 251.377 296.611 251.404 296.547 251.408H296.538ZM289.777 250.942H289.759L287.595 250.793L287.557 250.6C287.544 250.531 287.556 250.459 287.593 250.399C287.629 250.339 287.687 250.295 287.755 250.275C287.789 250.267 287.825 250.265 287.86 250.271C287.894 250.277 287.927 250.291 287.957 250.31L289.794 250.435C289.862 250.438 289.926 250.467 289.972 250.516C290.018 250.565 290.042 250.631 290.04 250.699C290.038 250.766 290.009 250.83 289.959 250.876C289.91 250.922 289.844 250.947 289.777 250.945V250.942ZM358.863 250.181C358.803 250.18 358.745 250.158 358.699 250.119C358.653 250.08 358.623 250.026 358.613 249.966C358.604 249.906 358.616 249.845 358.647 249.794C358.678 249.742 358.727 249.704 358.784 249.684L360.718 249.057C360.782 249.037 360.852 249.043 360.912 249.074C360.972 249.105 361.017 249.158 361.039 249.221C361.06 249.285 361.054 249.355 361.024 249.415C360.993 249.475 360.94 249.521 360.876 249.542L358.942 250.17C358.92 250.172 358.897 250.172 358.874 250.17L358.863 250.181ZM365.311 248.086C365.25 248.086 365.192 248.064 365.146 248.025C365.101 247.985 365.07 247.931 365.061 247.872C365.051 247.812 365.063 247.751 365.095 247.7C365.126 247.648 365.174 247.609 365.232 247.59L367.166 246.962C367.23 246.943 367.299 246.949 367.359 246.979C367.418 247.009 367.464 247.061 367.486 247.125C367.496 247.157 367.5 247.19 367.498 247.224C367.495 247.257 367.486 247.289 367.47 247.319C367.455 247.349 367.434 247.375 367.408 247.397C367.383 247.419 367.353 247.435 367.321 247.445L365.387 248.073C365.362 248.078 365.336 248.079 365.311 248.075V248.086ZM287.004 246.065C286.943 246.064 286.884 246.042 286.837 246.001C286.791 245.961 286.761 245.906 286.752 245.845C286.651 245.202 286.543 244.528 286.438 243.832C286.433 243.798 286.435 243.764 286.444 243.732C286.452 243.699 286.467 243.668 286.487 243.642C286.508 243.615 286.533 243.592 286.563 243.575C286.592 243.558 286.624 243.547 286.657 243.542C286.725 243.533 286.793 243.551 286.847 243.593C286.901 243.634 286.937 243.694 286.947 243.762C287.052 244.458 287.167 245.129 287.259 245.773C287.264 245.806 287.262 245.84 287.254 245.873C287.246 245.906 287.231 245.937 287.211 245.964C287.19 245.991 287.164 246.014 287.135 246.031C287.106 246.048 287.073 246.058 287.039 246.062L287.004 246.065ZM371.756 245.992C371.696 245.992 371.637 245.97 371.592 245.931C371.546 245.891 371.516 245.837 371.506 245.777C371.497 245.718 371.509 245.657 371.54 245.605C371.571 245.554 371.62 245.515 371.677 245.496L373.611 244.866C373.643 244.856 373.676 244.852 373.71 244.854C373.743 244.857 373.775 244.866 373.805 244.882C373.835 244.897 373.861 244.918 373.883 244.944C373.905 244.969 373.921 244.999 373.931 245.03C373.942 245.062 373.946 245.095 373.944 245.129C373.941 245.162 373.932 245.194 373.917 245.224C373.902 245.253 373.881 245.28 373.856 245.301C373.83 245.323 373.801 245.339 373.769 245.349L371.835 245.979C371.809 245.984 371.782 245.985 371.756 245.981V245.992ZM378.201 243.896C378.141 243.895 378.083 243.873 378.037 243.834C377.991 243.795 377.961 243.741 377.951 243.681C377.942 243.621 377.954 243.56 377.985 243.509C378.016 243.457 378.065 243.419 378.122 243.399L380.056 242.772C380.12 242.751 380.19 242.757 380.249 242.787C380.309 242.818 380.355 242.87 380.377 242.934C380.387 242.966 380.391 242.999 380.389 243.033C380.386 243.066 380.377 243.098 380.362 243.128C380.347 243.158 380.326 243.185 380.301 243.206C380.275 243.228 380.246 243.244 380.214 243.255L378.28 243.882C378.251 243.888 378.221 243.889 378.192 243.885L378.201 243.896ZM384.648 241.801C384.588 241.801 384.53 241.779 384.484 241.74C384.439 241.7 384.408 241.646 384.399 241.587C384.389 241.527 384.401 241.466 384.433 241.415C384.464 241.363 384.512 241.324 384.569 241.305L386.504 240.677C386.536 240.664 386.571 240.658 386.605 240.659C386.64 240.66 386.675 240.668 386.706 240.683C386.738 240.697 386.766 240.718 386.789 240.745C386.812 240.771 386.83 240.801 386.841 240.834C386.852 240.867 386.855 240.902 386.852 240.937C386.849 240.972 386.839 241.006 386.822 241.036C386.805 241.067 386.782 241.094 386.755 241.115C386.727 241.136 386.695 241.152 386.662 241.16L384.728 241.788C384.701 241.793 384.675 241.794 384.648 241.79V241.801ZM391.096 239.707C391.042 239.707 390.99 239.69 390.947 239.658C390.903 239.627 390.871 239.582 390.854 239.531C390.844 239.5 390.839 239.466 390.841 239.433C390.844 239.399 390.853 239.367 390.868 239.337C390.883 239.307 390.904 239.28 390.93 239.259C390.955 239.237 390.985 239.221 391.017 239.211L392.951 238.581C393.013 238.566 393.078 238.576 393.134 238.607C393.189 238.639 393.231 238.69 393.251 238.751C393.27 238.811 393.266 238.877 393.24 238.935C393.213 238.993 393.166 239.039 393.107 239.064L391.173 239.694C391.147 239.699 391.121 239.7 391.096 239.696V239.707ZM286.025 239.351C285.964 239.352 285.904 239.33 285.858 239.289C285.812 239.249 285.782 239.193 285.775 239.132C285.687 238.473 285.604 237.793 285.52 237.112C285.513 237.046 285.531 236.979 285.572 236.926C285.613 236.873 285.673 236.838 285.74 236.829C285.773 236.825 285.806 236.827 285.838 236.836C285.871 236.845 285.901 236.86 285.927 236.88C285.953 236.9 285.975 236.926 285.992 236.955C286.008 236.984 286.019 237.016 286.023 237.049C286.104 237.727 286.19 238.401 286.275 239.064C286.28 239.097 286.278 239.131 286.269 239.163C286.261 239.196 286.246 239.226 286.225 239.253C286.205 239.279 286.179 239.301 286.15 239.318C286.121 239.335 286.089 239.345 286.056 239.349L286.025 239.351ZM396.242 236.776C396.18 236.776 396.121 236.754 396.074 236.714C396.028 236.674 395.998 236.618 395.989 236.557C395.906 235.885 395.816 235.213 395.717 234.546C395.712 234.513 395.714 234.479 395.722 234.446C395.731 234.413 395.745 234.383 395.766 234.356C395.786 234.329 395.812 234.307 395.841 234.29C395.871 234.273 395.903 234.263 395.936 234.258C395.97 234.253 396.004 234.254 396.038 234.262C396.071 234.27 396.102 234.284 396.129 234.305C396.156 234.326 396.179 234.352 396.196 234.381C396.212 234.411 396.223 234.444 396.226 234.478C396.323 235.152 396.415 235.824 396.498 236.5C396.503 236.533 396.5 236.566 396.492 236.599C396.483 236.631 396.468 236.661 396.448 236.687C396.427 236.713 396.402 236.735 396.373 236.752C396.344 236.768 396.312 236.779 396.279 236.783L396.242 236.776ZM285.276 232.605C285.213 232.606 285.151 232.582 285.105 232.539C285.058 232.495 285.029 232.436 285.024 232.373C284.963 231.694 284.908 231.016 284.855 230.342C284.853 230.309 284.857 230.275 284.867 230.243C284.878 230.211 284.894 230.182 284.916 230.157C284.938 230.131 284.965 230.11 284.995 230.095C285.025 230.08 285.058 230.071 285.091 230.069C285.124 230.066 285.158 230.071 285.19 230.081C285.222 230.092 285.251 230.108 285.277 230.13C285.302 230.152 285.323 230.179 285.338 230.209C285.353 230.239 285.362 230.271 285.364 230.305C285.414 230.977 285.469 231.651 285.529 232.329C285.535 232.394 285.516 232.459 285.475 232.51C285.434 232.562 285.374 232.595 285.309 232.603L285.276 232.605ZM395.175 230.079C395.116 230.079 395.058 230.058 395.012 230.021C394.967 229.983 394.936 229.931 394.924 229.872C394.793 229.204 394.658 228.541 394.52 227.883C394.507 227.817 394.519 227.748 394.556 227.692C394.593 227.635 394.651 227.596 394.717 227.582C394.783 227.568 394.852 227.58 394.909 227.617C394.965 227.654 395.005 227.712 395.019 227.778C395.157 228.437 395.293 229.095 395.423 229.776C395.436 229.842 395.422 229.91 395.384 229.966C395.347 230.022 395.289 230.061 395.223 230.074L395.175 230.079ZM284.868 225.842C284.801 225.842 284.737 225.816 284.69 225.769C284.642 225.722 284.615 225.658 284.614 225.592C284.6 225.043 284.594 224.494 284.594 223.969V223.55C284.594 223.483 284.621 223.419 284.668 223.372C284.716 223.325 284.779 223.298 284.846 223.298C284.88 223.298 284.913 223.304 284.944 223.317C284.975 223.33 285.003 223.349 285.026 223.373C285.05 223.397 285.068 223.425 285.081 223.457C285.093 223.488 285.099 223.521 285.099 223.554V223.969C285.099 224.496 285.105 225.033 285.118 225.581C285.12 225.648 285.094 225.713 285.048 225.762C285.002 225.811 284.938 225.84 284.87 225.842H284.868ZM393.702 223.464C393.645 223.465 393.59 223.446 393.545 223.411C393.501 223.375 393.469 223.326 393.456 223.271C393.289 222.604 393.12 221.945 392.949 221.296C392.94 221.263 392.937 221.23 392.942 221.197C392.946 221.164 392.957 221.132 392.974 221.103C392.99 221.074 393.013 221.049 393.039 221.029C393.066 221.009 393.096 220.994 393.129 220.986C393.194 220.969 393.263 220.979 393.321 221.012C393.38 221.046 393.422 221.101 393.44 221.166C393.609 221.809 393.781 222.468 393.948 223.142C393.956 223.174 393.957 223.208 393.953 223.241C393.948 223.274 393.936 223.305 393.919 223.334C393.902 223.362 393.88 223.387 393.853 223.407C393.826 223.427 393.795 223.441 393.763 223.449C393.743 223.454 393.722 223.455 393.702 223.454V223.464ZM287.377 221.122C287.313 221.123 287.25 221.098 287.202 221.054C287.155 221.01 287.126 220.95 287.121 220.885C287.117 220.82 287.137 220.757 287.178 220.706C287.219 220.656 287.278 220.623 287.342 220.615L289.357 220.334C289.392 220.326 289.428 220.326 289.462 220.332C289.497 220.339 289.53 220.353 289.559 220.373C289.588 220.393 289.613 220.419 289.631 220.449C289.649 220.48 289.661 220.513 289.666 220.548C289.671 220.583 289.668 220.619 289.659 220.653C289.649 220.687 289.632 220.718 289.609 220.745C289.587 220.773 289.559 220.795 289.527 220.81C289.495 220.826 289.461 220.835 289.425 220.837L287.412 221.12L287.377 221.122ZM294.093 220.189C294.028 220.189 293.966 220.164 293.919 220.12C293.872 220.076 293.843 220.016 293.839 219.951C293.835 219.887 293.855 219.823 293.896 219.773C293.937 219.723 293.996 219.691 294.06 219.682L296.073 219.405C296.106 219.4 296.14 219.402 296.173 219.41C296.206 219.418 296.237 219.433 296.263 219.454C296.29 219.474 296.313 219.5 296.329 219.529C296.346 219.559 296.357 219.591 296.36 219.625C296.365 219.658 296.363 219.692 296.354 219.724C296.346 219.757 296.331 219.787 296.31 219.814C296.29 219.84 296.264 219.862 296.235 219.879C296.206 219.896 296.174 219.906 296.141 219.91L294.126 220.189H294.093ZM300.812 219.269C300.748 219.269 300.685 219.245 300.638 219.2C300.591 219.156 300.563 219.096 300.559 219.031C300.554 218.967 300.575 218.903 300.616 218.853C300.657 218.803 300.715 218.771 300.779 218.762L302.795 218.49C302.829 218.482 302.865 218.482 302.899 218.488C302.934 218.495 302.967 218.509 302.996 218.529C303.025 218.549 303.05 218.575 303.068 218.605C303.087 218.636 303.098 218.669 303.103 218.704C303.108 218.739 303.105 218.775 303.096 218.809C303.086 218.843 303.069 218.874 303.046 218.901C303.024 218.929 302.996 218.951 302.964 218.966C302.932 218.982 302.898 218.991 302.863 218.993L300.847 219.267L300.812 219.269ZM307.532 218.363C307.467 218.363 307.405 218.338 307.358 218.294C307.311 218.25 307.282 218.189 307.278 218.125C307.274 218.06 307.294 217.996 307.335 217.946C307.376 217.897 307.435 217.864 307.499 217.856L309.514 217.586C309.547 217.581 309.582 217.582 309.614 217.591C309.647 217.599 309.677 217.614 309.704 217.635C309.731 217.655 309.754 217.681 309.77 217.71C309.787 217.739 309.798 217.772 309.802 217.805C309.81 217.872 309.791 217.939 309.75 217.993C309.709 218.046 309.649 218.081 309.582 218.09L307.567 218.361L307.532 218.363ZM314.254 217.469C314.189 217.469 314.127 217.444 314.08 217.4C314.033 217.356 314.004 217.296 314 217.231C313.996 217.167 314.016 217.103 314.057 217.053C314.098 217.003 314.157 216.971 314.221 216.962L316.238 216.697C316.272 216.691 316.306 216.693 316.339 216.701C316.372 216.71 316.402 216.724 316.43 216.745C316.457 216.765 316.479 216.791 316.496 216.82C316.514 216.849 316.525 216.882 316.529 216.915C316.533 216.949 316.531 216.983 316.522 217.016C316.513 217.048 316.498 217.079 316.477 217.106C316.456 217.132 316.43 217.155 316.4 217.171C316.37 217.187 316.338 217.198 316.304 217.201L314.287 217.467L314.254 217.469ZM391.904 216.925C391.849 216.925 391.796 216.907 391.752 216.875C391.708 216.843 391.676 216.797 391.66 216.745C391.458 216.069 391.258 215.428 391.065 214.802C391.045 214.738 391.051 214.668 391.082 214.609C391.112 214.549 391.166 214.504 391.23 214.484C391.294 214.463 391.363 214.469 391.423 214.5C391.483 214.531 391.528 214.584 391.548 214.648C391.744 215.269 391.944 215.919 392.147 216.598C392.157 216.63 392.161 216.663 392.157 216.697C392.154 216.73 392.144 216.762 392.128 216.792C392.112 216.821 392.09 216.847 392.064 216.868C392.038 216.889 392.008 216.905 391.976 216.914C391.952 216.918 391.928 216.918 391.904 216.914V216.925ZM320.978 216.589C320.911 216.593 320.845 216.571 320.794 216.527C320.744 216.482 320.713 216.42 320.709 216.353C320.704 216.286 320.727 216.22 320.771 216.17C320.815 216.119 320.878 216.088 320.945 216.084L322.962 215.823C322.996 215.818 323.03 215.819 323.063 215.828C323.096 215.836 323.126 215.851 323.154 215.871C323.181 215.892 323.203 215.917 323.22 215.946C323.238 215.976 323.249 216.008 323.253 216.042C323.257 216.075 323.255 216.109 323.246 216.142C323.237 216.175 323.222 216.205 323.201 216.232C323.18 216.259 323.154 216.281 323.124 216.297C323.094 216.314 323.062 216.324 323.028 216.328L321.011 216.587L320.978 216.589ZM327.702 215.728C327.637 215.728 327.576 215.703 327.529 215.658C327.482 215.614 327.454 215.554 327.45 215.489C327.446 215.425 327.467 215.361 327.508 215.312C327.549 215.262 327.607 215.23 327.671 215.221L329.688 214.967C329.722 214.961 329.755 214.963 329.788 214.971C329.82 214.98 329.851 214.995 329.877 215.015C329.904 215.036 329.926 215.062 329.942 215.091C329.958 215.12 329.968 215.153 329.972 215.186C329.976 215.219 329.974 215.253 329.965 215.285C329.956 215.317 329.941 215.347 329.921 215.374C329.9 215.4 329.875 215.422 329.846 215.438C329.817 215.455 329.785 215.465 329.752 215.469L327.735 215.726L327.702 215.728ZM334.428 214.883C334.364 214.883 334.302 214.858 334.255 214.813C334.208 214.769 334.18 214.708 334.176 214.644C334.172 214.58 334.193 214.516 334.234 214.467C334.275 214.417 334.333 214.385 334.397 214.376L336.415 214.126C336.448 214.121 336.482 214.122 336.514 214.131C336.547 214.139 336.577 214.154 336.604 214.174C336.63 214.195 336.652 214.221 336.668 214.25C336.685 214.28 336.695 214.312 336.698 214.345C336.702 214.378 336.7 214.412 336.691 214.444C336.682 214.476 336.667 214.506 336.647 214.533C336.627 214.559 336.601 214.581 336.572 214.598C336.543 214.614 336.511 214.625 336.478 214.629L334.461 214.879L334.428 214.883ZM341.154 214.058C341.09 214.057 341.028 214.031 340.982 213.987C340.936 213.942 340.908 213.882 340.904 213.818C340.901 213.753 340.922 213.69 340.963 213.641C341.004 213.591 341.062 213.559 341.126 213.551L343.143 213.309C343.176 213.304 343.21 213.306 343.243 213.314C343.275 213.322 343.306 213.337 343.332 213.358C343.359 213.378 343.381 213.404 343.397 213.434C343.413 213.463 343.423 213.495 343.426 213.529C343.434 213.595 343.415 213.662 343.374 213.715C343.333 213.768 343.273 213.803 343.207 213.812L341.187 214.053L341.154 214.058ZM347.887 213.257C347.825 213.257 347.766 213.234 347.72 213.194C347.673 213.154 347.643 213.098 347.635 213.037C347.63 213.004 347.633 212.971 347.641 212.939C347.65 212.907 347.665 212.877 347.685 212.851C347.706 212.824 347.731 212.803 347.76 212.786C347.789 212.77 347.821 212.76 347.854 212.756L349.876 212.521C349.909 212.516 349.942 212.518 349.975 212.527C350.007 212.535 350.037 212.55 350.064 212.571C350.09 212.591 350.112 212.617 350.128 212.646C350.144 212.675 350.154 212.708 350.157 212.741C350.161 212.774 350.159 212.807 350.15 212.839C350.141 212.871 350.126 212.901 350.106 212.927C350.085 212.953 350.06 212.975 350.031 212.991C350.002 213.008 349.97 213.018 349.937 213.022L347.916 213.257H347.887ZM354.622 212.486C354.558 212.485 354.496 212.459 354.45 212.415C354.404 212.37 354.376 212.31 354.372 212.246C354.369 212.182 354.389 212.118 354.43 212.069C354.471 212.019 354.53 211.987 354.593 211.979L356.613 211.759C356.646 211.755 356.679 211.757 356.711 211.766C356.743 211.775 356.773 211.79 356.8 211.81C356.826 211.831 356.847 211.856 356.864 211.885C356.88 211.914 356.89 211.946 356.894 211.979C356.902 212.045 356.883 212.112 356.842 212.164C356.801 212.217 356.741 212.251 356.675 212.26L354.653 212.479L354.622 212.486ZM361.359 211.751C361.298 211.751 361.238 211.729 361.192 211.688C361.145 211.648 361.115 211.592 361.107 211.531C361.103 211.498 361.105 211.465 361.114 211.433C361.123 211.402 361.138 211.372 361.159 211.346C361.179 211.32 361.204 211.299 361.233 211.282C361.262 211.266 361.293 211.256 361.326 211.252L363.348 211.033C363.382 211.026 363.418 211.027 363.452 211.035C363.486 211.043 363.518 211.058 363.546 211.079C363.575 211.1 363.598 211.126 363.615 211.157C363.633 211.187 363.644 211.221 363.648 211.256C363.651 211.291 363.648 211.326 363.637 211.359C363.627 211.393 363.61 211.424 363.587 211.45C363.564 211.477 363.536 211.498 363.504 211.513C363.472 211.528 363.438 211.537 363.403 211.538L361.379 211.757L361.359 211.751ZM368.103 211.061C368.039 211.059 367.978 211.033 367.932 210.988C367.887 210.943 367.86 210.883 367.857 210.819C367.854 210.755 367.875 210.692 367.916 210.643C367.957 210.594 368.015 210.562 368.079 210.554L370.105 210.359C370.138 210.355 370.171 210.357 370.202 210.366C370.234 210.375 370.263 210.39 370.289 210.411C370.315 210.431 370.336 210.457 370.352 210.485C370.368 210.514 370.378 210.546 370.382 210.578C370.388 210.646 370.367 210.713 370.324 210.764C370.28 210.816 370.218 210.849 370.151 210.855L368.127 211.05L368.103 211.061ZM389.809 210.475C389.757 210.475 389.705 210.459 389.662 210.428C389.619 210.397 389.587 210.354 389.57 210.304L389.311 209.577L388.387 209.591C388.319 209.591 388.255 209.564 388.207 209.516C388.159 209.468 388.132 209.403 388.132 209.336C388.132 209.268 388.159 209.204 388.207 209.156C388.255 209.108 388.319 209.081 388.387 209.081L389.386 209.068C389.467 209.065 389.548 209.088 389.616 209.133C389.685 209.178 389.738 209.242 389.768 209.318L390.06 210.135C390.071 210.167 390.076 210.2 390.074 210.233C390.072 210.267 390.064 210.3 390.049 210.33C390.035 210.36 390.014 210.387 389.99 210.409C389.965 210.432 389.936 210.449 389.904 210.46C389.874 210.471 389.842 210.476 389.809 210.475ZM374.853 210.436C374.789 210.433 374.729 210.407 374.684 210.362C374.638 210.317 374.612 210.256 374.609 210.192C374.606 210.128 374.627 210.066 374.669 210.017C374.71 209.968 374.768 209.937 374.831 209.929C375.525 209.87 376.201 209.814 376.86 209.76C376.894 209.755 376.929 209.758 376.962 209.767C376.995 209.777 377.026 209.793 377.053 209.814C377.08 209.836 377.102 209.863 377.118 209.894C377.134 209.924 377.144 209.958 377.146 209.992C377.149 210.027 377.145 210.061 377.134 210.094C377.122 210.127 377.105 210.157 377.082 210.182C377.059 210.208 377.03 210.229 376.999 210.243C376.968 210.258 376.934 210.266 376.899 210.267L374.875 210.436H374.853ZM381.612 209.913C381.549 209.91 381.489 209.883 381.444 209.837C381.399 209.792 381.373 209.731 381.371 209.668C381.369 209.604 381.391 209.542 381.432 209.493C381.474 209.445 381.532 209.414 381.595 209.406C382.3 209.359 382.978 209.318 383.628 209.281C383.661 209.277 383.696 209.28 383.728 209.29C383.76 209.301 383.79 209.317 383.816 209.34C383.841 209.363 383.861 209.391 383.875 209.422C383.889 209.453 383.896 209.486 383.896 209.52C383.898 209.554 383.893 209.587 383.882 209.619C383.871 209.65 383.854 209.679 383.832 209.704C383.81 209.729 383.783 209.749 383.752 209.764C383.722 209.778 383.69 209.786 383.656 209.788C383.009 209.825 382.333 209.866 381.628 209.913H381.612Z" fill="white"/>
<path d="M352.76 262.841L338.581 264.654C337.685 264.771 336.778 264.555 336.031 264.048C335.283 263.54 334.748 262.777 334.526 261.901L331.141 248.468C331.015 247.962 330.997 247.435 331.09 246.921C331.182 246.408 331.382 245.92 331.678 245.489C331.973 245.059 332.356 244.696 332.801 244.425C333.247 244.154 333.745 243.98 334.263 243.915L351.296 241.735C351.804 241.668 352.321 241.708 352.814 241.852C353.307 241.996 353.764 242.241 354.156 242.571C354.549 242.902 354.868 243.31 355.094 243.771C355.319 244.232 355.446 244.735 355.467 245.248L355.996 259.047C356.028 259.969 355.714 260.87 355.115 261.572C354.516 262.275 353.676 262.727 352.76 262.841Z" fill="url(#paint11_linear_55_2681)"/>
<path d="M350.693 260.553L339.901 261.934C339.22 262.023 338.529 261.859 337.961 261.473C337.392 261.087 336.984 260.506 336.815 259.84L334.24 249.614C334.144 249.229 334.13 248.828 334.201 248.437C334.271 248.046 334.423 247.675 334.648 247.348C334.872 247.02 335.164 246.744 335.503 246.538C335.842 246.331 336.221 246.199 336.615 246.15L349.58 244.491C349.967 244.44 350.359 244.47 350.733 244.58C351.107 244.69 351.455 244.876 351.753 245.127C352.051 245.378 352.293 245.689 352.464 246.039C352.636 246.389 352.732 246.771 352.748 247.16L353.152 257.664C353.178 258.366 352.939 259.052 352.484 259.587C352.029 260.122 351.39 260.466 350.693 260.553Z" fill="url(#paint12_linear_55_2681)"/>
<path d="M342.26 151.821C345.603 165.651 345.693 179.162 345.184 184.091C345.093 184.989 344.687 185.827 344.038 186.455C343.39 187.084 342.54 187.463 341.639 187.526C339.525 187.673 336.647 187.869 334.076 188.016C331.249 188.18 328.112 186.394 326.013 184.901C325.783 184.738 325.506 184.657 325.225 184.669C324.944 184.682 324.675 184.789 324.461 184.972C324.248 185.155 324.101 185.404 324.046 185.68C323.99 185.956 324.028 186.243 324.154 186.495C325.185 188.512 326.975 190.099 328.753 191.449C329.822 192.261 333.374 193.706 333.126 195.304C333.014 195.805 332.769 196.267 332.417 196.641C330.441 199.01 327.455 200.274 324.514 201.178C324.133 201.259 323.781 201.439 323.493 201.701C323.42 203.606 329.284 205.725 330.799 206.227C333.065 207 335.469 207.279 337.852 207.046C343.753 206.425 349.201 202.353 352.38 197.442C360.876 184.315 365.268 168.465 366.869 156.336C358.964 148.429 347.032 150.431 342.26 151.821Z" fill="url(#paint13_linear_55_2681)"/>
<path d="M366.871 157.57C373.174 109.955 336.48 73.343 336.48 73.343L314.648 98.7947C331.223 119.454 339.101 138.386 342.701 153.254C347.474 151.873 358.966 149.667 366.871 157.57Z" fill="#4033B9"/>
<path d="M342.19 153.03C341.886 153.031 341.591 152.93 341.352 152.742C341.113 152.555 340.944 152.292 340.873 151.996C336.436 133.666 327.084 115.52 313.079 98.0636C312.854 97.7839 312.75 97.4264 312.789 97.0699C312.828 96.7133 313.008 96.387 313.287 96.1625C313.567 95.9381 313.925 95.8339 314.281 95.8731C314.638 95.9122 314.964 96.0913 315.188 96.3711C329.442 114.153 338.969 132.643 343.507 151.36C343.549 151.532 343.556 151.711 343.529 151.887C343.501 152.062 343.44 152.23 343.347 152.382C343.254 152.533 343.133 152.665 342.989 152.77C342.846 152.874 342.683 152.949 342.51 152.991C342.406 153.017 342.298 153.03 342.19 153.03Z" fill="url(#paint14_linear_55_2681)"/>
<path d="M58.0356 216.036C58.0356 216.036 70.3289 300.436 79.1823 400.875C79.347 402.746 77.8652 404.372 76.019 404.759C73.3101 405.329 69.3301 406.008 66.035 405.916C65.1812 405.887 64.3636 405.563 63.721 405C63.0784 404.437 62.6503 403.669 62.5095 402.827C59.491 385.118 37.9425 290.079 32.2876 269.163C32.2876 269.163 25.7919 358.013 27.8686 404.109C27.892 404.661 27.7065 405.201 27.3493 405.622C26.9921 406.043 26.4893 406.314 25.9411 406.381C23.2767 406.666 20.5891 406.658 17.9263 406.359C17.2774 406.295 16.6686 406.015 16.1966 405.566C15.7245 405.116 15.4162 404.521 15.3206 403.876C13.1692 388.889 0.790257 299.681 1.31711 235.42C1.34565 231.796 5.5693 202.019 5.5693 202.019L58.0356 216.036Z" fill="#4033B9"/>
<path d="M3.72229 220.901C3.10406 220.679 2.56149 220.286 2.15772 219.768C1.75394 219.25 1.50556 218.628 1.44145 217.974C-0.191811 202.127 -8.10127 103.872 41.8339 63.4557C41.8339 63.4557 44.6877 55.9633 68.2317 74.3792C91.7756 92.795 79.1662 112.096 73.531 138.717C66.7126 170.932 54.7507 197.267 60.0434 217.087C60.2233 217.747 60.1503 218.451 59.8389 219.06C59.5275 219.669 59 220.14 58.3597 220.38C40.0711 227.124 21.8616 227.346 3.72229 220.901Z" fill="#00B2A9"/>
<path d="M61.3041 34.0153C61.2887 35.4136 41.3516 63.7322 41.3516 63.7322C41.3516 63.7322 44.9298 70.7789 62.0132 76.5019L76.7608 46.1813L61.3041 34.0153Z" fill="url(#paint15_linear_55_2681)"/>
<path d="M77.0077 17.7903C77.0077 17.7903 84.1027 34.0855 84.5791 42.6382C85.0554 51.1909 86.8972 56.7404 77.0077 58.4637C67.1181 60.187 58.7872 55.2587 54.2737 46.7389C54.2737 46.7389 47.2029 33.6114 48.7856 28.2352C50.3684 22.8591 77.0077 17.7903 77.0077 17.7903Z" fill="url(#paint16_linear_55_2681)"/>
<path d="M57.6474 40.6141L58.2116 40.3661C58.3811 40.2912 58.5336 40.1824 58.6595 40.0464C58.7855 39.9104 58.8822 39.7501 58.9439 39.5753C59.0056 39.4006 59.0309 39.215 59.0182 39.0301C59.0055 38.8452 58.9552 38.6648 58.8702 38.5001C57.4762 35.8066 54.7563 29.6313 58.2687 28.1825C62.7953 26.3253 80.7238 22.6702 84.5918 16.3084C88.3106 10.1947 85.0155 2.3006 80.0652 0.0636471C79.9078 -0.0114511 79.7276 -0.0232615 79.5618 0.0306596C79.3959 0.0845807 79.2571 0.200106 79.174 0.353407L78.7613 1.13493C78.6981 1.25272 78.6014 1.34908 78.4834 1.41177C78.3654 1.47446 78.2314 1.50064 78.0984 1.48699C77.9655 1.47334 77.8396 1.42049 77.7368 1.33513C77.634 1.24977 77.5588 1.13577 77.5209 1.00761C77.4897 0.879987 77.421 0.764604 77.3237 0.676342C77.2263 0.588081 77.1048 0.530964 76.9747 0.512316C76.8447 0.493668 76.712 0.514342 76.5938 0.571699C76.4756 0.629055 76.3772 0.720476 76.3114 0.834179C75.1215 2.73745 71.9209 5.82175 63.3265 7.40672C51.1276 9.65904 43.06 14.5961 42.8603 23.0281C42.8581 23.1483 42.8238 23.2657 42.761 23.3682C42.6981 23.4707 42.609 23.5545 42.5028 23.6109C42.3967 23.6673 42.2774 23.6943 42.1572 23.6891C42.0371 23.6839 41.9206 23.6467 41.8197 23.5813C40.9197 23.0325 39.4774 22.7756 37.55 24.3957C34.2001 27.2122 35.5743 34.5201 42.9174 40.5329C43.0016 40.5963 43.0694 40.6791 43.1151 40.7741C43.1607 40.8692 43.1828 40.9739 43.1796 41.0793C43.1764 41.1847 43.1479 41.2878 43.0965 41.3799C43.0452 41.472 42.9724 41.5504 42.8844 41.6086C41.5519 42.4867 39.5674 44.5392 44.7109 47.2877C50.0321 50.1415 54.0055 49.8978 55.5334 49.6454C55.6242 49.6321 55.7111 49.6 55.7887 49.5512C55.8664 49.5023 55.9329 49.4378 55.9842 49.3618C56.0354 49.2857 56.0702 49.1998 56.0864 49.1095C56.1025 49.0192 56.0996 48.9266 56.0778 48.8375L54.4446 41.4286C54.4228 41.3302 54.4235 41.2282 54.4465 41.1301C54.4696 41.032 54.5144 40.9404 54.5776 40.862C54.6409 40.7836 54.7209 40.7204 54.8119 40.6771C54.9029 40.6338 55.0024 40.6115 55.1031 40.6119L57.6474 40.6141Z" fill="#4F3E3E"/>
<path d="M57.954 42.1771C57.954 42.1771 55.2495 31.7673 50.5824 34.687C45.9153 37.6066 52.9972 46.3503 56.7554 46.7388L57.954 42.1771Z" fill="url(#paint17_linear_55_2681)"/>
<path d="M75.7969 82.9319L77.1711 119.849C80.8281 121.117 84.5543 122.175 88.3317 123.019C90.5467 115.891 95.4223 107.143 99.4133 100.628C84.7469 95.4448 75.7969 82.9319 75.7969 82.9319Z" fill="#00948C"/>
<path d="M149.022 82.2952C128.903 104.028 112.618 105.297 99.4097 100.63C95.4188 107.134 90.5431 115.882 88.3281 123.021C142.057 134.876 154.71 85.4827 154.71 85.4827L149.022 82.2952Z" fill="url(#paint18_linear_55_2681)"/>
<path d="M153.102 79.988C153.102 79.988 155.42 77.5008 159.709 78.2823C163.999 79.0638 167.816 80.5544 170.49 78.2823C173.164 76.0102 174.101 79.0594 174.101 79.0594L166.1 85.1424L153.102 79.988Z" fill="url(#paint19_linear_55_2681)"/>
<path d="M148.316 84.249C148.316 84.249 149.904 77.6106 154.683 78.5194C159.462 79.4283 170.332 85.3378 173.134 84.249C175.935 83.1602 179.513 80.5566 181.35 81.4764L178.115 85.5003C178.115 85.5003 186.432 80.7015 187.864 83.6497L174.034 91.4384C174.034 91.4384 153.783 89.4034 148.316 84.249Z" fill="url(#paint20_linear_55_2681)"/>
<path d="M53.4648 131.24C53.4648 131.24 91.291 162.92 132.136 149.096C133.386 148.667 134.711 148.497 136.029 148.596C137.347 148.695 138.632 149.062 139.804 149.674L151.546 155.878C153.92 157.13 156.683 157.425 159.268 156.702C161.853 155.978 164.062 154.291 165.44 151.988C167.071 149.257 168.463 146.142 168.733 143.154L145.762 133.861L147.456 131.045C147.456 131.045 136.239 130.094 133.301 138.133C133.301 138.133 111.935 147.022 75.898 107.385C75.898 107.376 59.5457 121.281 53.4648 131.24Z" fill="url(#paint21_linear_55_2681)"/>
<path d="M51.4265 130.913C51.2972 130.914 51.1707 130.875 51.0643 130.801C35.1378 120.045 27.6455 102.674 27.5752 102.498C27.5389 102.419 27.5187 102.334 27.516 102.247C27.5132 102.16 27.5279 102.074 27.5592 101.993C27.5905 101.912 27.6377 101.838 27.6981 101.776C27.7585 101.714 27.8307 101.664 27.9107 101.63C27.9906 101.596 28.0764 101.579 28.1632 101.579C28.25 101.579 28.3359 101.596 28.4158 101.63C28.4957 101.664 28.568 101.714 28.6283 101.776C28.6887 101.838 28.736 101.912 28.7673 101.993C28.8397 102.162 36.1938 119.188 51.7931 129.73C51.9076 129.808 51.9941 129.92 52.04 130.051C52.086 130.181 52.0889 130.323 52.0484 130.455C52.0079 130.587 51.9261 130.703 51.815 130.786C51.7039 130.868 51.5693 130.913 51.4309 130.913H51.4265Z" fill="#00948C"/>
<path d="M75.1525 106.84C75.0442 106.839 74.9378 106.811 74.8428 106.759C74.7479 106.707 74.6672 106.632 74.608 106.542C74.5598 106.467 69.6951 98.8934 60.4268 82.2996C57.5729 77.1957 53.841 73.9577 49.2947 72.6954C41.7826 70.5968 34.5405 74.625 34.4702 74.6711C34.3247 74.7222 34.1659 74.7205 34.0215 74.6665C33.8771 74.6124 33.7562 74.5095 33.68 74.3755C33.6037 74.2415 33.5769 74.0849 33.6041 73.9332C33.6314 73.7814 33.7111 73.644 33.8292 73.545C34.1432 73.3694 41.5894 69.2028 49.635 71.4529C54.5216 72.8162 58.5345 76.2539 61.5595 81.674C70.8037 98.2261 75.6508 105.773 75.6991 105.848C75.7622 105.946 75.7978 106.059 75.8021 106.175C75.8065 106.292 75.7793 106.407 75.7236 106.509C75.6679 106.611 75.5856 106.697 75.4855 106.756C75.3854 106.816 75.2711 106.847 75.1547 106.847L75.1525 106.84Z" fill="#00948C"/>
</g>
<defs>
<linearGradient id="paint0_linear_55_2681" x1="142.575" y1="148.115" x2="149.723" y2="145.637" gradientUnits="userSpaceOnUse">
<stop stop-color="#FEBBBA"/>
<stop offset="1" stop-color="#FF928E"/>
</linearGradient>
<linearGradient id="paint1_linear_55_2681" x1="38440" y1="48784" x2="37255.1" y2="44263.2" gradientUnits="userSpaceOnUse">
<stop stop-color="#FEBBBA"/>
<stop offset="1" stop-color="#FF928E"/>
</linearGradient>
<linearGradient id="paint2_linear_55_2681" x1="76911.7" y1="54526.3" x2="83309.9" y2="57039.8" gradientUnits="userSpaceOnUse">
<stop stop-color="#FEBBBA"/>
<stop offset="1" stop-color="#FF928E"/>
</linearGradient>
<linearGradient id="paint3_linear_55_2681" x1="27810.8" y1="16425.9" x2="29976.8" y2="17466.1" gradientUnits="userSpaceOnUse">
<stop stop-color="#FEBBBA"/>
<stop offset="1" stop-color="#FF928E"/>
</linearGradient>
<linearGradient id="paint4_linear_55_2681" x1="336.566" y1="203.639" x2="342.486" y2="246.563" gradientUnits="userSpaceOnUse">
<stop stop-color="#E1473D"/>
<stop offset="1" stop-color="#E9605A"/>
</linearGradient>
<linearGradient id="paint5_linear_55_2681" x1="3365.25" y1="16636.7" x2="3305.07" y2="16217.9" gradientUnits="userSpaceOnUse">
<stop stop-color="#E1473D"/>
<stop offset="1" stop-color="#E9605A"/>
</linearGradient>
<linearGradient id="paint6_linear_55_2681" x1="4882.36" y1="30756.4" x2="5489.37" y2="32984.9" gradientUnits="userSpaceOnUse">
<stop stop-color="#E1473D"/>
<stop offset="1" stop-color="#E9605A"/>
</linearGradient>
<linearGradient id="paint7_linear_55_2681" x1="6536.22" y1="16176" x2="6476.02" y2="15757.3" gradientUnits="userSpaceOnUse">
<stop stop-color="#E1473D"/>
<stop offset="1" stop-color="#E9605A"/>
</linearGradient>
<linearGradient id="paint8_linear_55_2681" x1="6417.73" y1="33040.5" x2="7096.33" y2="35450.3" gradientUnits="userSpaceOnUse">
<stop stop-color="#E1473D"/>
<stop offset="1" stop-color="#E9605A"/>
</linearGradient>
<linearGradient id="paint9_linear_55_2681" x1="335.356" y1="169.51" x2="335.089" y2="202.46" gradientUnits="userSpaceOnUse">
<stop stop-color="#FF928E"/>
<stop offset="1" stop-color="#FE7062"/>
</linearGradient>
<linearGradient id="paint10_linear_55_2681" x1="298761" y1="135319" x2="298709" y2="121732" gradientUnits="userSpaceOnUse">
<stop stop-color="#FF928E"/>
<stop offset="1" stop-color="#FE7062"/>
</linearGradient>
<linearGradient id="paint11_linear_55_2681" x1="62590.9" y1="57241.4" x2="63117.4" y2="54589.5" gradientUnits="userSpaceOnUse">
<stop stop-color="#E1473D"/>
<stop offset="1" stop-color="#E9605A"/>
</linearGradient>
<linearGradient id="paint12_linear_55_2681" x1="2074.14" y1="53774.5" x2="3692.54" y2="53774.5" gradientUnits="userSpaceOnUse">
<stop stop-color="#FF928E"/>
<stop offset="1" stop-color="#FE7062"/>
</linearGradient>
<linearGradient id="paint13_linear_55_2681" x1="111430" y1="112335" x2="100828" y2="127959" gradientUnits="userSpaceOnUse">
<stop stop-color="#FEBBBA"/>
<stop offset="1" stop-color="#FF928E"/>
</linearGradient>
<linearGradient id="paint14_linear_55_2681" x1="75903.7" y1="100187" x2="86088.5" y2="78597.6" gradientUnits="userSpaceOnUse">
<stop stop-color="#09005D"/>
<stop offset="1" stop-color="#1A0F91"/>
</linearGradient>
<linearGradient id="paint15_linear_55_2681" x1="39173.2" y1="67092.5" x2="46438.2" y2="63488.4" gradientUnits="userSpaceOnUse">
<stop stop-color="#FEBBBA"/>
<stop offset="1" stop-color="#FF928E"/>
</linearGradient>
<linearGradient id="paint16_linear_55_2681" x1="47865.9" y1="61647.3" x2="43176.8" y2="55520.2" gradientUnits="userSpaceOnUse">
<stop stop-color="#FEBBBA"/>
<stop offset="1" stop-color="#FF928E"/>
</linearGradient>
<linearGradient id="paint17_linear_55_2681" x1="11255.7" y1="19376.7" x2="9769" y2="17827.9" gradientUnits="userSpaceOnUse">
<stop stop-color="#FEBBBA"/>
<stop offset="1" stop-color="#FF928E"/>
</linearGradient>
<linearGradient id="paint18_linear_55_2681" x1="115862" y1="68863.2" x2="95375.1" y2="84757.7" gradientUnits="userSpaceOnUse">
<stop stop-color="#FEBBBA"/>
<stop offset="1" stop-color="#FF928E"/>
</linearGradient>
<linearGradient id="paint19_linear_55_2681" x1="36655.8" y1="12142.1" x2="36002.4" y2="14002.7" gradientUnits="userSpaceOnUse">
<stop stop-color="#FEBBBA"/>
<stop offset="1" stop-color="#FF928E"/>
</linearGradient>
<linearGradient id="paint20_linear_55_2681" x1="69195.5" y1="21062.9" x2="63249.6" y2="30057.2" gradientUnits="userSpaceOnUse">
<stop stop-color="#FEBBBA"/>
<stop offset="1" stop-color="#FF928E"/>
</linearGradient>
<linearGradient id="paint21_linear_55_2681" x1="220393" y1="96940.3" x2="103960" y2="48113.9" gradientUnits="userSpaceOnUse">
<stop stop-color="#FEBBBA"/>
<stop offset="1" stop-color="#FF928E"/>
</linearGradient>
<clipPath id="clip0_55_2681">
<rect width="431.947" height="439" fill="white"/>
</clipPath>
</defs>
</svg>
