<svg width="654" height="249" viewBox="0 0 654 249" fill="none" xmlns="http://www.w3.org/2000/svg">
<path opacity="0.7" d="M385.43 82.9999L334.234 93.1633C325.96 94.8571 320.272 103.891 321.823 112.925C323.375 121.959 331.649 128.17 339.923 126.476L391.119 116.313C403.53 114.054 410.77 121.959 413.873 129.864C416.975 138.333 416.458 149.626 406.116 156.966L330.614 210.041C323.892 215.122 315.1 215.122 307.861 211.17C300.621 206.653 295.967 198.748 295.967 189.714V58.721C295.967 36.7006 285.624 17.5033 268.041 7.34007C250.459 -2.8232 230.291 -2.25861 213.226 9.59853L23.9553 143.415C2.75289 158.66 -5.52119 185.762 3.78718 211.735C13.0956 237.707 36.3664 251.258 61.1887 246.741L226.671 214.558C234.945 212.864 240.634 203.83 239.082 194.796C237.531 185.762 229.257 179.551 220.983 181.245L55.5004 213.428C43.0892 215.687 35.8492 207.782 32.7464 199.877C29.6437 191.408 30.1608 180.116 40.5034 172.776L230.291 38.9591C237.014 33.8775 245.805 33.8774 253.045 37.8298C260.284 42.3468 264.939 50.2517 264.939 59.2857V190.279C264.939 212.299 275.281 231.497 292.864 241.66C301.138 246.741 309.929 249 318.72 249C328.546 249 338.889 245.612 347.68 239.401L423.181 186.327C444.383 171.082 452.658 143.98 443.349 118.007C433.524 92.034 410.253 77.9183 385.43 82.9999ZM650.202 118.007C640.894 92.034 617.623 78.4829 592.8 82.9999L541.604 93.1633C533.33 94.8571 527.642 103.891 529.193 112.925C530.744 121.959 539.019 128.17 547.293 126.476L598.489 116.313C610.9 114.054 618.14 121.959 621.243 129.864C624.345 138.333 623.828 149.626 613.486 156.966L537.984 210.041C530.745 215.122 522.47 215.122 515.231 211.17C507.991 206.653 503.336 198.748 503.336 189.714V16.9388C503.336 7.34014 496.097 0 487.822 0C479.031 0 472.309 7.90476 472.309 16.9388V189.714C472.309 211.735 482.651 230.932 500.234 241.095C508.508 246.177 517.299 248.435 526.09 248.435C535.916 248.435 546.258 245.048 555.05 238.837L630.551 185.762C651.236 171.082 659.51 143.415 650.202 118.007Z" fill="white"/>
</svg>
